<svg width="162" height="139" viewBox="0 0 162 139" fill="none" xmlns="http://www.w3.org/2000/svg">
<g id="ass">
<g id="assessment">
<g id="LEGS">
<g id="Layer_1">
<g id="Group">
<g id="Group_2">
<g id="Group_3">
<path id="Vector" d="M135 35.0827L135.077 35.1795C132.569 36.5509 130.479 39.9949 128.809 45.5113C127.725 50.3613 128.422 53.5408 130.898 55.0499C131.234 55.2434 131.595 55.4111 131.982 55.553C133.723 56.0818 135.929 55.366 138.599 53.4054C139.45 53.1861 140.379 52.812 141.385 52.2832L141.772 52.5347C136.872 59.7634 131.984 66.1096 127.106 71.5732L127.009 71.5925C121.734 77.7581 114.427 79.1899 105.089 75.8878L104.934 75.8104C98.2008 73.3467 95.3374 70.1414 96.3435 66.1944C109.513 48.4845 122.398 38.1139 135 35.0827Z" fill="#0072BD"/>
<path id="Vector_2" d="M135.077 35.1795C135.7 34.8366 136.351 34.6238 137.032 34.541C136 36.1791 135 37.9656 134.033 39.9004V40.0165C131.35 45.8596 131.427 50.0775 134.265 52.6701C135.374 53.5988 136.819 53.8439 138.599 53.4054C135.929 55.366 133.723 56.0818 131.982 55.553C131.595 55.4111 131.234 55.2434 130.898 55.0499C128.422 53.5408 127.725 50.3613 128.809 45.5114C130.479 39.9949 132.569 36.5509 135.077 35.1795Z" fill="url(#paint0_linear)"/>
<path id="Vector_3" d="M137.032 34.541C137.122 34.3991 137.212 34.2572 137.302 34.1153C142.075 26.776 147.699 22.4549 154.174 21.1521C149.609 22.4112 143.888 28.7767 137.012 40.2487C136.999 40.2874 136.98 40.3261 136.954 40.3648C136.915 40.4293 136.87 40.5002 136.819 40.5776C136.741 40.7195 136.657 40.8614 136.567 41.0033C136.544 41.0434 136.525 41.0821 136.509 41.1193C136.277 41.5335 136.077 41.9398 135.909 42.3383C134.303 45.9649 134.813 48.9123 137.438 51.1803C137.464 51.1932 137.489 51.2061 137.515 51.219C138.818 51.9414 140.108 52.2961 141.385 52.2832C140.379 52.812 139.45 53.1861 138.599 53.4054C136.819 53.8439 135.374 53.5988 134.265 52.6701C131.427 50.0775 131.35 45.8596 134.033 40.0165V39.9004C135 37.9656 136 36.1791 137.032 34.541Z" fill="#C5252F"/>
<path id="Vector_4" d="M154.174 21.1521C154.176 21.1597 154.182 21.1597 154.193 21.1521C156.379 20.5592 158.301 21.1461 159.959 22.9128C160.01 22.9644 160.062 23.0225 160.113 23.0869C163.751 29.5363 159.636 38.3332 147.77 49.4777C145.861 51.1674 143.919 52.0961 141.946 52.2638C141.752 52.2767 141.565 52.2832 141.385 52.2832C140.108 52.2961 138.818 51.9414 137.515 51.219C137.489 51.2061 137.464 51.1932 137.438 51.1803C134.813 48.9123 134.303 45.9649 135.909 42.3383C136.077 41.9398 136.277 41.5335 136.509 41.1193C136.525 41.0821 136.544 41.0434 136.567 41.0033C136.657 40.8614 136.741 40.7195 136.819 40.5776C136.87 40.5002 136.915 40.4293 136.954 40.3648C136.98 40.3261 136.999 40.2874 137.012 40.2487C143.888 28.7767 149.609 22.4112 154.174 21.1521Z" fill="white"/>
</g>
</g>
<g id="Group_4">
<path id="Vector_5" d="M141.388 52.2748C140.382 52.8037 139.453 53.1777 138.602 53.397M141.949 52.2555C143.923 52.0878 145.864 51.1591 147.773 49.4694C159.639 38.3249 163.754 29.528 160.116 23.0786C160.065 23.0141 160.013 22.9561 159.962 22.9045C158.304 21.1378 156.379 20.5541 154.186 21.1535C154.182 21.1547 154.179 21.1547 154.177 21.1535C147.702 22.4498 142.078 26.7677 137.306 34.107C137.216 34.2489 137.125 34.3908 137.035 34.5327C136.354 34.6155 135.7 34.8283 135.071 35.1712L141.949 52.2555ZM135.003 35.0744C122.402 38.1056 109.516 48.4762 96.3473 66.1861C95.3412 70.1331 98.2047 73.3384 104.938 75.802L135.003 35.0744ZM105.092 75.8794C114.431 79.1815 121.738 77.7497 127.013 71.5842L127.11 71.5648C131.987 66.1012 136.873 59.7583 141.765 52.536C141.825 52.4417 141.887 52.3482 141.949 52.2555C141.756 52.2684 141.569 52.2748 141.388 52.2748C140.111 52.2877 138.821 51.933 137.519 51.2107C137.493 51.1978 137.467 51.1849 137.441 51.172C134.816 48.9039 134.304 45.9566 135.903 42.3299C136.077 41.9315 136.277 41.5252 136.503 41.111C136.525 41.0738 136.548 41.0351 136.571 40.9949C136.661 40.853 136.745 40.7112 136.822 40.5693C136.874 40.4919 136.919 40.4209 136.958 40.3564C136.983 40.3177 137.003 40.279 137.016 40.2403C143.892 28.7684 149.612 22.4061 154.177 21.1535L105.092 75.8794ZM137.035 34.5327C136.003 36.1708 135.003 37.9573 134.036 39.8921V40.0082C131.353 45.8513 131.431 50.0692 134.268 52.6618C135.378 53.5905 136.822 53.8356 138.602 53.397C135.932 55.3576 133.727 56.0735 131.985 55.5446C131.598 55.4028 131.237 55.2351 130.902 55.0416C128.425 53.5325 127.729 50.3529 128.812 45.503C130.483 39.9866 132.569 36.5426 135.071 35.1712L137.035 34.5327Z" stroke="black" stroke-width="0.0268721" stroke-linecap="round" stroke-linejoin="round"/>
</g>
</g>
</g>
</g>
<g id="LEGS_2">
<g id="Layer_1_2">
<g id="Group_5">
<g id="Group_6">
<g id="Group_7">
<path id="Vector_6" d="M137.303 13.4462C136.787 13.601 135.743 13.8461 134.169 14.1815C133.963 14.2202 133.756 14.2718 133.55 14.3363C133.202 10.7891 134.672 9.03489 137.961 9.07359L138.019 9.01554C141.966 8.69308 144.707 10.0345 146.242 13.0399L146.223 13.156C144.2 12.6603 141.226 12.757 137.303 13.4462Z" fill="url(#paint1_linear)"/>
<path id="Vector_7" d="M130.493 16.4839C130.57 16.3807 130.641 16.284 130.706 16.1937C131.441 15.3037 132.389 14.6845 133.55 14.3363C133.756 14.2718 133.963 14.2202 134.169 14.1815C135.743 13.8461 136.788 13.601 137.303 13.4462C141.226 12.757 144.2 12.6603 146.223 13.156H146.242C146.669 13.2651 147.056 13.4005 147.403 13.5623C147.867 13.7687 148.248 14.0267 148.544 14.3363C152.672 29.7631 154.736 53.0904 154.736 84.3182C154.645 87.3623 150.208 88.3555 141.424 87.2978C141.36 87.2849 141.296 87.2784 141.231 87.2784C130.409 85.9757 125.527 81.732 126.585 74.5474L126.527 74.4894L130.435 16.5226L130.493 16.4839Z" fill="#0072BD"/>
<path id="Vector_8" d="M129.545 8.31902C131.57 4.03665 135.691 2.55975 141.908 3.88831C145.262 4.71383 147.145 6.64864 147.558 9.69273C147.584 9.82172 147.603 9.95715 147.616 10.099C147.706 11.1309 147.635 12.2854 147.403 13.5623C147.056 13.4005 146.669 13.2651 146.242 13.156V13.0399C144.707 10.0345 141.966 8.69308 138.019 9.01555L137.961 9.07359C134.672 9.03489 133.202 10.7891 133.55 14.3363C132.389 14.6845 131.441 15.3037 130.706 16.1937C129.919 15.3166 129.397 14.3363 129.139 13.2528C128.803 11.7952 128.939 10.1506 129.545 8.31902Z" fill="#C5252F"/>
<path id="Vector_9" d="M141.908 3.8883C135.691 2.55974 131.57 4.03664 129.545 8.31901C128.939 10.1506 128.803 11.7952 129.139 13.2528C128.287 11.9113 128.01 10.4666 128.307 8.9188C129.184 4.28816 131.415 1.61813 135.001 0.908706C140.328 0.121885 144.436 1.29566 147.326 4.43005L147.558 9.69272C147.145 6.64863 145.262 4.71382 141.908 3.8883Z" fill="white"/>
</g>
</g>
<g id="Group_8">
<path id="Vector_10" d="M146.237 13.1423H146.227M147.562 9.67903C147.149 6.63494 145.266 4.70014 141.913 3.87462C135.696 2.54606 131.575 4.02296 129.55 8.30533C128.943 10.1369 128.808 11.7815 129.143 13.2391C128.292 11.8976 128.015 10.453 128.311 8.90511C129.188 4.27448 131.42 1.60445 135.006 0.895026C140.333 0.108205 144.441 1.28199 147.33 4.41637L147.562 9.67903ZM147.562 9.67903C147.588 9.80802 147.607 9.94346 147.62 10.0853C147.71 11.1172 147.639 12.2717 147.407 13.5486C147.061 13.3868 146.671 13.2514 146.237 13.1423L147.562 9.67903ZM138.024 9.00185C141.971 8.67939 144.712 10.0209 146.246 13.0262L138.024 9.00185ZM137.966 9.0599L138.024 9.00185L137.966 9.0599ZM133.555 14.3226C133.206 10.7754 134.677 9.0212 137.966 9.0599L133.555 14.3226ZM133.555 14.3226C132.394 14.6708 131.446 15.29 130.71 16.18C129.924 15.3029 129.401 14.3226 129.143 13.2391L133.555 14.3226ZM130.71 16.18C130.646 16.2703 130.575 16.367 130.498 16.4702L130.44 16.5089L126.531 74.4756L126.589 74.5337C125.532 81.7182 130.414 85.9619 141.235 87.2647C141.3 87.2647 141.364 87.2711 141.429 87.284C150.213 88.3417 154.65 87.3485 154.74 84.3044C154.74 53.0767 152.676 29.7494 148.549 14.3226C148.252 14.013 147.872 13.755 147.407 13.5486L130.71 16.18ZM146.227 13.1423C144.204 12.6466 141.231 12.7433 137.308 13.4326C136.792 13.5873 135.747 13.8324 134.174 14.1678C133.967 14.2065 133.761 14.2581 133.555 14.3226L146.227 13.1423Z" stroke="black" stroke-width="0.0268721" stroke-linecap="round" stroke-linejoin="round"/>
</g>
</g>
</g>
</g>
<g id="HAN">
<g id="Layer_1_3">
<g id="Group_9">
<g id="Group_10">
<g id="Group_11">
<path id="Vector_11" d="M49.0689 54.7577C49.0524 54.7595 49.0333 54.7561 49.0118 54.7474C30.157 63.6727 24.2499 80.7775 31.2906 106.062L31.4069 106.068C39.269 107.815 46.4882 107.681 53.0644 105.667C53.0636 105.665 53.0643 105.66 53.0665 105.652C52.9714 100.105 54.2059 94.8725 56.7699 89.9536C56.7953 89.9077 56.8218 89.8569 56.8494 89.8012C67.4122 69.1117 64.8187 57.4306 49.0689 54.7577Z" fill="#F55CD2"/>
</g>
</g>
<g id="Group_12">
<path id="Vector_12" d="M31.3977 106.056C39.2598 107.803 46.4785 107.672 53.0541 105.663M49.0018 54.744C49.0261 54.7331 49.0504 54.7223 49.0746 54.7116C49.1339 54.6846 49.1929 54.6573 49.2517 54.6299L49.0018 54.744ZM49.0018 54.744C49.024 54.7477 49.0462 54.7517 49.0685 54.756C64.8124 57.4228 67.4027 69.1034 56.8392 89.7976C56.8122 89.8484 56.7857 89.8992 56.7596 89.95C54.1963 94.8639 52.9621 100.094 53.0571 105.641C53.055 105.649 53.054 105.656 53.0541 105.663C53.058 105.736 53.0608 105.81 53.0626 105.885L49.0018 54.744ZM31.2815 106.051C24.241 80.7665 30.1477 63.6642 49.0018 54.744L31.2815 106.051Z" stroke="black" stroke-width="0.0268941" stroke-linecap="round" stroke-linejoin="round"/>
</g>
</g>
</g>
</g>
<g id="HIPS">
<g id="Layer_1_4">
<g id="Group_13">
<g id="Group_14">
<g id="Group_15">
<path id="Vector_13" d="M131.053 61.8218H131.073C141.755 62.5151 148.965 67.6101 152.703 77.1067V77.4937H152.858C153.633 79.5605 154.253 81.8306 154.715 84.3042L154.773 84.4396C153.926 88.1524 150.533 92.4218 144.596 97.2481C144.569 97.2672 144.543 97.2866 144.519 97.3061C139.45 99.0603 128.254 96.6547 110.932 90.0893C110.803 90.0119 110.674 89.9409 110.545 89.8764C94.5764 81.8793 91.8935 73.0372 102.496 63.3503C102.516 63.3298 102.535 63.3104 102.554 63.2922C109.003 56.5894 118.503 56.0993 131.053 61.8218Z" fill="#0072BD"/>
</g>
</g>
<g id="Group_16">
<path id="Vector_14" d="M152.706 77.108C148.968 67.6049 141.758 62.5067 131.076 61.8134H131.057C118.506 56.0909 109.007 56.5811 102.558 63.2839C102.539 63.3021 102.519 63.3214 102.5 63.3419C91.8974 73.0288 94.5802 81.8709 110.548 89.8681C110.677 89.9326 110.806 90.0035 110.935 90.0809C128.258 96.6463 139.453 99.0519 144.522 97.2977C144.546 97.2782 144.569 97.2588 144.59 97.2397C150.533 92.4135 153.929 88.144 154.777 84.4313" stroke="black" stroke-width="0.0268721" stroke-linecap="round" stroke-linejoin="round"/>
</g>
</g>
</g>
</g>
<g id="BODY">
<g id="Layer_1_5">
<g id="Group_17">
<g id="Group_18">
<g id="Group_19">
<path id="Vector_15" d="M90.1473 53.8536L90.3214 53.8343C111.488 58.7358 124.135 66.1848 128.262 76.1813C131.474 84.243 135.156 89.8152 139.31 92.898C141.515 94.0589 142.192 95.4971 141.341 97.2126C116.004 104.918 87.5561 101.158 55.9987 85.9327V85.7005H55.4957C49.4949 82.7868 43.3811 79.459 37.1541 75.7169L37.2315 75.6008C32.4978 69.5126 33.4716 63.921 40.153 58.8261V58.8454L40.3078 59.0002C52.2646 51.132 68.8778 49.4165 90.1473 53.8536Z" fill="#F55CD2"/>
</g>
</g>
<g id="Group_20">
<path id="Vector_16" d="M40.1719 58.8403V58.8209C33.4906 63.9159 32.5168 69.5075 37.2505 75.5957M56.0175 85.9372C87.5745 101.156 116.022 104.913 141.359 97.2075C142.21 95.4919 141.533 94.0537 139.328 92.8928C135.174 89.8101 131.492 84.2378 128.28 76.1761C124.153 66.1797 111.506 58.7307 90.3398 53.8292L90.1657 53.8485C68.8964 49.4113 52.2834 51.1269 40.3267 58.9951L56.0175 85.9372Z" stroke="black" stroke-width="0.0268721" stroke-linecap="round" stroke-linejoin="round"/>
</g>
</g>
</g>
</g>
<g id="HAN_2">
<g id="Layer_1_6">
<g id="Group_21">
<g id="Group_22">
<g id="Group_23">
<path id="Vector_17" d="M91.7 101.698C91.6871 101.621 91.6678 101.55 91.642 101.485C83.9803 72.5793 88.1658 58.2617 104.199 58.5326C121.676 74.2561 125.197 97.448 114.762 128.108L114.646 128.089C106.611 128.515 99.4713 126.689 93.2285 122.613C93.2299 122.601 93.2299 122.588 93.2285 122.575C94.0765 115.507 93.567 108.548 91.7 101.698Z" fill="#F55CD2"/>
</g>
</g>
<g id="Group_24">
<path id="Vector_18" d="M114.65 128.08C106.614 128.506 99.4752 126.681 93.2324 122.605M103.97 58.3114C104.023 58.3552 104.074 58.4003 104.125 58.4469C104.152 58.4735 104.177 58.4993 104.202 58.5242C88.1698 58.2534 83.9844 72.5709 91.6459 101.477C91.6717 101.541 91.6911 101.612 91.704 101.69C93.571 108.54 94.0804 115.499 93.2324 122.566C93.2339 122.58 93.2339 122.593 93.2324 122.605C93.2195 122.695 93.2066 122.786 93.1937 122.876L103.97 58.3114ZM114.766 128.1C125.201 97.4396 121.68 74.2478 104.202 58.5242L114.766 128.1Z" stroke="black" stroke-width="0.0268721" stroke-linecap="round" stroke-linejoin="round"/>
</g>
</g>
</g>
</g>
<g id="HEAD">
<g id="Layer_1_7">
<g id="Group_25">
<g id="Group_26">
<g id="Group_27">
<path id="Vector_19" d="M119.354 49.0465C119.39 48.1686 119.309 47.2191 119.112 46.198L119.086 46.0636C117.599 37.8586 109.949 33.783 96.1366 33.8368C101.851 37.4376 102.908 43.5287 99.3075 52.1099C99.2896 52.2174 99.2717 52.3249 99.2538 52.4324C98.9672 53.6685 98.4745 55.0031 97.7758 56.4363C111.767 57.6725 118.96 55.2092 119.354 49.0465ZM98.3939 27.6561C98.2685 26.9396 98.1162 26.2409 97.9371 25.5601C95.429 15.0799 88.684 9.52633 77.7022 8.89931C68.9956 8.57685 62.2059 11.2999 57.3331 17.0685C56.8315 17.6597 56.3388 18.2956 55.8551 18.9764C54.3503 21.1262 53.0604 23.6253 51.9855 26.4738C52.4155 26.2767 52.8544 26.1065 53.3022 25.9632C66.3263 21.6816 79.6818 23.7507 93.3688 32.1707C95.3573 32.0811 97.2115 32.0722 98.9313 32.1438C98.8238 30.5494 98.6447 29.0535 98.3939 27.6561Z" fill="#C5252F"/>
<path id="Vector_20" d="M96.1366 33.8368C95.6887 33.5501 95.223 33.2814 94.7393 33.0306C94.2914 32.744 93.8346 32.4573 93.3688 32.1707C79.6818 23.7507 66.3263 21.6815 53.3022 25.9632C52.8544 26.1065 52.4155 26.2767 51.9855 26.4738C47.8293 28.4444 45.3212 32.6723 44.4613 39.1575C45.6257 36.6315 47.0231 35.0639 48.6533 34.4548C48.6713 34.3473 48.6981 34.2488 48.734 34.1592C48.8594 33.7293 48.9937 33.3172 49.137 32.9231C48.9937 33.3172 48.8594 33.7293 48.734 34.1592C48.6981 34.2488 48.6713 34.3473 48.6533 34.4548C48.4025 35.3506 48.2503 36.309 48.1965 37.3302C48.1965 37.366 48.1876 37.4018 48.1696 37.4376C48.1159 38.9246 48.2413 40.528 48.5459 42.2478C50.2119 36.3717 53.777 32.305 59.241 30.0478C58.3274 33.8278 58.4886 37.2854 59.7247 40.4205C61.1579 36.4971 63.2271 33.4516 65.9322 31.2839C65.6456 34.2757 66.2188 36.8912 67.652 39.1306C67.6699 39.0589 67.6968 38.9783 67.7326 38.8887C69.757 32.4215 73.5908 28.8654 79.234 28.2205C79.5385 28.1846 79.852 28.1578 80.1745 28.1398C80.2103 28.1219 80.2462 28.113 80.282 28.113C85.7818 27.7905 88.8632 36.103 89.526 53.0504L91.9714 52.4861C93.1359 45.8218 94.793 43.1973 96.9428 44.6125C96.9607 44.6125 96.9876 44.6215 97.0234 44.6394C99.1911 46.4667 99.9525 48.9569 99.3075 52.1099C102.908 43.5287 101.851 37.4376 96.1366 33.8368ZM79.5564 40.1786C77.5858 37.4735 75.23 36.4434 72.489 37.0883C72.2024 37.8228 72.4174 38.3065 73.134 38.5394C75.4808 38.3961 77.6216 38.9425 79.5564 40.1786ZM56.4194 37.6526C54.198 37.6885 52.3528 38.7723 50.8837 40.9042C52.299 39.9547 54.0009 39.3456 55.9895 39.0769C56.7598 38.7723 56.9031 38.2976 56.4194 37.6526Z" fill="#4C0000"/>
<path id="Vector_21" d="M94.7393 33.0306C95.223 33.2814 95.6887 33.5501 96.1366 33.8368C109.949 33.783 117.599 37.8586 119.086 46.0636L119.112 46.198C119.309 47.2191 119.39 48.1686 119.354 49.0465C120.196 44.102 119.39 40.4115 116.936 37.9751C114.051 34.84 108.928 32.9589 101.565 32.3319C100.705 32.2423 99.8271 32.1796 98.9313 32.1438C97.2115 32.0722 95.3573 32.0811 93.3688 32.1707C93.8346 32.4573 94.2914 32.744 94.7393 33.0306ZM80.8194 62.3213C81.3031 60.5299 81.6435 58.4965 81.8406 56.2213C73.2415 59.9118 63.9437 60.6463 53.9472 58.4249C54.8429 60.6463 55.7924 62.599 56.7956 64.283C65.1977 65.8237 73.2056 65.1698 80.8194 62.3213Z" fill="white"/>
<path id="Vector_22" d="M83.2917 31.2302C83.4708 31.463 84.0262 32.9769 84.9578 35.7716C85.9072 38.5842 86.5074 41.8447 86.7582 45.5531C87.0269 49.2614 87.0538 53.14 86.8388 57.1888C86.7672 58.819 86.6865 60.2791 86.597 61.5689C86.597 61.6227 86.597 61.6854 86.597 61.757C85.0025 70.8219 79.019 75.7485 68.6463 76.5368V76.698C81.0613 76.698 89.2842 69.5858 93.315 55.3614L93.4494 55.3883C94.6318 58.3622 96.065 58.7115 97.749 56.4363H97.7758C98.4745 55.0031 98.9672 53.6685 99.2538 52.4324C99.2717 52.3249 99.2896 52.2174 99.3075 52.1099C99.9525 48.9569 99.1911 46.4667 97.0234 44.6394C96.9876 44.6215 96.9607 44.6125 96.9428 44.6125C94.793 43.1973 93.1359 45.8218 91.9714 52.4861L89.526 53.0504C88.8632 36.103 85.7818 27.7905 80.282 28.113C80.2462 28.113 80.2103 28.1219 80.1745 28.1398L80.0133 28.5161C81.2673 29.1072 82.3601 30.0119 83.2917 31.2302ZM95.4917 49.3152C95.1513 50.5692 94.8378 52.2532 94.5512 54.3672C94.8378 52.2532 95.1513 50.5692 95.4917 49.3152C95.9216 47.7028 96.4143 46.825 96.9697 46.6817C96.4143 46.825 95.9216 47.7028 95.4917 49.3152C96.2799 50.3722 96.486 52.4682 96.1097 55.6033C96.486 52.4682 96.2799 50.3722 95.4917 49.3152Z" fill="#EB9978"/>
<path id="Vector_23" d="M84.9578 35.7716C84.0262 32.9768 83.4708 31.463 83.2917 31.2302C82.3601 30.0119 81.2673 29.1072 80.0133 28.5161L80.1745 28.1398C79.852 28.1578 79.5385 28.1846 79.234 28.2205C73.5908 28.8654 69.757 32.4215 67.7326 38.8887C67.6968 38.9783 67.6699 39.0589 67.652 39.1306C66.2188 36.8912 65.6456 34.2757 65.9322 31.2839C63.2271 33.4516 61.1579 36.4971 59.7247 40.4205C58.4886 37.2854 58.3274 33.8278 59.241 30.0478C53.777 32.305 50.2119 36.3717 48.5459 42.2478C48.2413 40.528 48.1159 38.9246 48.1696 37.4376C46.3244 40.0532 45.8586 43.7795 46.7723 48.6165L46.826 48.6971C45.3749 65.2504 51.8332 74.5572 66.2009 76.6174C67.0429 76.6711 67.858 76.698 68.6463 76.698V76.5368C79.019 75.7485 85.0025 70.8219 86.597 61.757C86.597 61.6854 86.597 61.6227 86.597 61.5689C86.6865 60.2791 86.7672 58.819 86.8388 57.1887C87.0538 53.14 87.0269 49.2614 86.7582 45.5531C86.5074 41.8447 85.9072 38.5842 84.9578 35.7716ZM50.8837 40.9042C52.3528 38.7723 54.198 37.6885 56.4194 37.6526C56.9031 38.2976 56.7598 38.7723 55.9895 39.0768C54.0009 39.3456 52.299 39.9547 50.8837 40.9042ZM72.489 37.0883C75.23 36.4434 77.5858 37.4735 79.5564 40.1786C77.6216 38.9425 75.4808 38.3961 73.134 38.5394C72.4174 38.3065 72.2024 37.8228 72.489 37.0883ZM81.8406 56.2213C81.6435 58.4965 81.3031 60.5299 80.8194 62.3214C80.4253 63.7366 79.9326 64.9996 79.3415 66.1103C77.0304 70.4816 73.1877 72.5328 67.8133 72.2641L67.7326 72.2103C66.192 72.1208 64.7229 71.7177 63.3256 71.0011C60.9071 69.7291 58.7304 67.4898 56.7956 64.283C55.7924 62.599 54.8429 60.6463 53.9472 58.4249C53.5172 58.3174 53.0962 58.2099 52.6842 58.1024C53.0962 58.2099 53.5172 58.3174 53.9472 58.4249C63.9437 60.6463 73.2415 59.9118 81.8406 56.2213C82.1093 56.0959 82.378 55.9795 82.6467 55.872C82.378 55.9795 82.1093 56.0959 81.8406 56.2213ZM61.3639 53.2385C61.3997 55.1375 62.9942 55.9616 66.1472 55.7108C62.9942 55.9616 61.3997 55.1375 61.3639 53.2385C62.0984 52.5578 62.3761 51.5545 62.197 50.2288C62.3761 51.5545 62.0984 52.5578 61.3639 53.2385Z" fill="url(#paint2_linear)"/>
<path id="Vector_24" d="M71.4679 69.0125C71.45 69.0484 71.4231 69.0752 71.3873 69.0932C70.7961 69.5052 70.2228 69.971 69.6674 70.4905C70.2228 69.971 70.7961 69.5052 71.3873 69.0932C67.9297 68.3049 65.2604 68.9051 63.3793 70.8936L63.3256 71.0011C64.7229 71.7177 66.192 72.1208 67.7326 72.2103L67.8133 72.2641C73.1877 72.5328 77.0304 70.4816 79.3415 66.1103C76.3497 66.4866 73.7252 67.454 71.4679 69.0125Z" fill="#E98585"/>
<path id="Vector_25" d="M79.3414 66.1103C79.9326 64.9996 80.4253 63.7366 80.8194 62.3214C73.2056 65.1698 65.1977 65.8237 56.7956 64.283C58.7304 67.4898 60.9071 69.7291 63.3256 71.0011L63.3793 70.8936C65.2604 68.9051 67.9297 68.3049 71.3873 69.0932C71.4231 69.0752 71.45 69.0484 71.4679 69.0125C73.7251 67.454 76.3497 66.4866 79.3414 66.1103Z" fill="#A31818"/>
</g>
</g>
<g id="Group_28">
<path id="Vector_26" d="M98.9313 32.1438C98.8238 30.5494 98.6447 29.0535 98.3939 27.6561C98.2685 26.9396 98.1162 26.2409 97.9371 25.5601C95.429 15.0799 88.684 9.52633 77.7022 8.89931C68.9956 8.57685 62.2059 11.2999 57.3331 17.0685C56.8315 17.6597 56.3388 18.2956 55.8551 18.9764C54.3503 21.1262 53.0604 23.6253 51.9855 26.4738C52.4155 26.2767 52.8544 26.1065 53.3022 25.9632C66.3263 21.6815 79.6818 23.7507 93.3688 32.1707C95.3573 32.0811 97.2115 32.0722 98.9313 32.1438ZM98.9313 32.1438C99.8271 32.1796 100.705 32.2423 101.565 32.3319C108.928 32.9589 114.051 34.84 116.936 37.9751C119.39 40.4115 120.196 44.102 119.354 49.0465C118.96 55.2092 111.767 57.6725 97.7758 56.4363H97.7489C96.065 58.7115 94.6318 58.3622 93.4494 55.3883L98.9313 32.1438ZM82.6467 55.872C82.378 55.9795 82.1093 56.0959 81.8406 56.2214M93.315 55.3614C89.2842 69.5858 81.0613 76.698 68.6463 76.698C67.858 76.698 67.0429 76.6711 66.2009 76.6174C51.8332 74.5572 45.3749 65.2504 46.826 48.6971L46.7723 48.6165C45.8586 43.7795 46.3244 40.0532 48.1696 37.4376C48.1876 37.4018 48.1965 37.366 48.1965 37.3302C48.2503 36.309 48.4025 35.3506 48.6533 34.4548C47.0231 35.0639 45.6257 36.6315 44.4613 39.1575C45.3212 32.6723 47.8293 28.4444 51.9855 26.4738L93.315 55.3614ZM80.1745 28.1398C79.852 28.1578 79.5385 28.1846 79.234 28.2205C73.5908 28.8654 69.757 32.4215 67.7326 38.8887C67.6968 38.9783 67.6699 39.0589 67.652 39.1306C66.2188 36.8912 65.6456 34.2757 65.9322 31.2839C63.2271 33.4516 61.1579 36.4971 59.7247 40.4205C58.4886 37.2854 58.3274 33.8278 59.241 30.0478C53.777 32.305 50.2119 36.3717 48.5459 42.2478C48.2413 40.528 48.1159 38.9246 48.1696 37.4376L80.1745 28.1398ZM93.3688 32.1707C93.8346 32.4573 94.2914 32.744 94.7393 33.0306C95.223 33.2814 95.6887 33.5501 96.1366 33.8368C109.949 33.783 117.599 37.8586 119.086 46.0636L119.112 46.198C119.309 47.2191 119.39 48.1686 119.354 49.0465L93.3688 32.1707ZM96.1097 55.6033C96.486 52.4682 96.2799 50.3722 95.4917 49.3152C95.1513 50.5692 94.8378 52.2532 94.5512 54.3672L96.1097 55.6033ZM80.1745 28.1398C80.2103 28.1219 80.2462 28.113 80.282 28.113C85.7818 27.7905 88.8632 36.103 89.526 53.0504L91.9714 52.4861C93.1359 45.8218 94.793 43.1973 96.9428 44.6125C96.9607 44.6125 96.9876 44.6215 97.0234 44.6394C99.1911 46.4667 99.9525 48.9569 99.3075 52.1099C102.908 43.5287 101.851 37.4376 96.1366 33.8368L80.1745 28.1398ZM99.3075 52.1099C99.2896 52.2174 99.2717 52.3249 99.2538 52.4324C98.9672 53.6685 98.4745 55.0031 97.7758 56.4363L99.3075 52.1099ZM96.9697 46.6817C96.4143 46.825 95.9216 47.7028 95.4917 49.3152L96.9697 46.6817ZM48.6533 34.4548C48.6713 34.3473 48.6981 34.2488 48.734 34.1592C48.8594 33.7293 48.9937 33.3172 49.137 32.9231L48.6533 34.4548ZM56.4194 37.6526C56.9031 38.2976 56.7598 38.7723 55.9895 39.0769C54.0009 39.3456 52.299 39.9547 50.8837 40.9042C52.3528 38.7723 54.198 37.6885 56.4194 37.6526ZM72.489 37.0883C75.23 36.4434 77.5858 37.4735 79.5564 40.1786C77.6216 38.9425 75.4808 38.3961 73.134 38.5394C72.4174 38.3065 72.2024 37.8228 72.489 37.0883ZM81.8406 56.2214C81.6435 58.4965 81.3031 60.5299 80.8194 62.3214C80.4253 63.7366 79.9326 64.9996 79.3415 66.1103C77.0304 70.4816 73.1877 72.5328 67.8133 72.2641L67.7326 72.2103C66.192 72.1208 64.723 71.7177 63.3256 71.0011C60.9071 69.7291 58.7304 67.4898 56.7956 64.283C55.7924 62.599 54.8429 60.6463 53.9472 58.4249C53.5172 58.3174 53.0962 58.2099 52.6842 58.1024L81.8406 56.2214ZM79.3415 66.1103C76.3497 66.4866 73.7252 67.454 71.4679 69.0125C71.45 69.0484 71.4231 69.0752 71.3873 69.0932C70.7961 69.5052 70.2228 69.971 69.6674 70.4905L79.3415 66.1103ZM62.197 50.2288C62.3761 51.5545 62.0984 52.5578 61.3639 53.2385C61.3997 55.1375 62.9942 55.9616 66.1472 55.7108L62.197 50.2288ZM81.8406 56.2214C73.2415 59.9118 63.9437 60.6463 53.9472 58.4249L81.8406 56.2214ZM56.7956 64.283C65.1977 65.8237 73.2056 65.1698 80.8194 62.3214L56.7956 64.283ZM71.3873 69.0932C67.9297 68.3049 65.2604 68.9051 63.3793 70.8936L71.3873 69.0932Z" stroke="black" stroke-width="0.0268723" stroke-linecap="round" stroke-linejoin="round"/>
</g>
</g>
</g>
<g id="Layer_2">
<g id="Layer_1_8">
<g id="Group_29">
<g id="Group_30">
<g id="Group_31">
<path id="Vector_27" d="M58.8111 43.5108C57.9691 42.418 56.9569 41.8716 55.7745 41.8716C54.61 41.8716 53.6158 42.418 52.7917 43.5108C51.9497 44.6215 51.5287 45.9561 51.5287 47.5147C51.5287 49.0733 51.9497 50.399 52.7917 51.4918C53.6158 52.5846 54.61 53.131 55.7745 53.131C56.9569 53.131 57.9691 52.5846 58.8111 51.4918C59.6351 50.399 60.0472 49.0733 60.0472 47.5147C60.0472 45.9561 59.6351 44.6215 58.8111 43.5108ZM53.7322 47.246C54.2697 46.6011 54.9056 46.2786 55.6401 46.2786C56.3926 46.2786 57.0375 46.6011 57.5749 47.246C58.0945 47.8909 58.3542 48.6613 58.3542 49.557C58.3542 50.4528 58.0945 51.2231 57.5749 51.868C57.0375 52.513 56.3926 52.8354 55.6401 52.8354C54.9056 52.8354 54.2697 52.513 53.7322 51.868C53.2127 51.2231 52.9529 50.4528 52.9529 49.557C52.9529 48.6613 53.2127 47.8909 53.7322 47.246ZM57.1181 48.9927C57.2793 48.7956 57.36 48.5448 57.36 48.2403C57.36 47.9536 57.2793 47.6939 57.1181 47.461C56.939 47.2639 56.724 47.1654 56.4732 47.1654C56.2224 47.1654 56.0164 47.2639 55.8551 47.461C55.676 47.6939 55.5864 47.9536 55.5864 48.2403C55.5864 48.5448 55.676 48.7956 55.8551 48.9927C56.0164 49.2077 56.2224 49.3152 56.4732 49.3152C56.724 49.3152 56.939 49.2077 57.1181 48.9927ZM70.8498 43.3764C70.0078 44.4871 69.5868 45.8218 69.5868 47.3804C69.5868 48.939 70.0078 50.2647 70.8498 51.3575C71.6739 52.4503 72.6771 52.9967 73.8595 52.9967C75.024 52.9967 76.0272 52.4503 76.8692 51.3575C77.6933 50.2647 78.1053 48.939 78.1053 47.3804C78.1053 45.8218 77.6933 44.4871 76.8692 43.3764C76.0272 42.2836 75.024 41.7372 73.8595 41.7372C72.6771 41.7372 71.6739 42.2836 70.8498 43.3764ZM72.0053 47.0848C72.5249 46.4578 73.1609 46.1442 73.9133 46.1442C74.6657 46.1442 75.3017 46.4578 75.8212 47.0848C76.3586 47.7297 76.6274 48.5 76.6274 49.3958C76.6274 50.3094 76.3586 51.0798 75.8212 51.7068C75.3017 52.3517 74.6657 52.6742 73.9133 52.6742C73.1609 52.6742 72.5249 52.3517 72.0053 51.7068C71.4679 51.0798 71.1992 50.3094 71.1992 49.3958C71.1992 48.5 71.4679 47.7297 72.0053 47.0848ZM74.612 47.0579C74.3611 47.0579 74.1551 47.1654 73.9939 47.3804C73.8327 47.5953 73.752 47.8462 73.752 48.1328C73.752 48.4373 73.8327 48.6971 73.9939 48.9121C74.1551 49.1271 74.3611 49.2346 74.612 49.2346C74.8628 49.2346 75.0777 49.1271 75.2569 48.9121C75.436 48.6971 75.5256 48.4373 75.5256 48.1328C75.5256 47.8462 75.436 47.5953 75.2569 47.3804C75.0777 47.1654 74.8628 47.0579 74.612 47.0579Z" fill="white"/>
<path id="Vector_28" d="M55.6401 46.2786C54.9056 46.2786 54.2697 46.6011 53.7322 47.246C53.2127 47.8909 52.9529 48.6613 52.9529 49.557C52.9529 50.4528 53.2127 51.2231 53.7322 51.868C54.2697 52.513 54.9056 52.8354 55.6401 52.8354C56.3926 52.8354 57.0375 52.513 57.5749 51.868C58.0945 51.2231 58.3542 50.4528 58.3542 49.557C58.3542 48.6613 58.0945 47.8909 57.5749 47.246C57.0375 46.6011 56.3926 46.2786 55.6401 46.2786ZM57.36 48.2403C57.36 48.5448 57.2793 48.7956 57.1181 48.9927C56.939 49.2077 56.724 49.3152 56.4732 49.3152C56.2224 49.3152 56.0163 49.2077 55.8551 48.9927C55.676 48.7956 55.5864 48.5448 55.5864 48.2403C55.5864 47.9536 55.676 47.6939 55.8551 47.461C56.0163 47.2639 56.2224 47.1654 56.4732 47.1654C56.724 47.1654 56.939 47.2639 57.1181 47.461C57.2793 47.6939 57.36 47.9536 57.36 48.2403ZM73.9133 46.1442C73.1608 46.1442 72.5249 46.4578 72.0053 47.0848C71.4679 47.7297 71.1992 48.5 71.1992 49.3958C71.1992 50.3094 71.4679 51.0798 72.0053 51.7068C72.5249 52.3517 73.1608 52.6742 73.9133 52.6742C74.6657 52.6742 75.3017 52.3517 75.8212 51.7068C76.3586 51.0798 76.6274 50.3094 76.6274 49.3958C76.6274 48.5 76.3586 47.7297 75.8212 47.0848C75.3017 46.4578 74.6657 46.1442 73.9133 46.1442ZM73.9939 47.3804C74.1551 47.1654 74.3611 47.0579 74.6119 47.0579C74.8628 47.0579 75.0777 47.1654 75.2569 47.3804C75.436 47.5953 75.5256 47.8462 75.5256 48.1328C75.5256 48.4373 75.436 48.6971 75.2569 48.9121C75.0777 49.1271 74.8628 49.2346 74.6119 49.2346C74.3611 49.2346 74.1551 49.1271 73.9939 48.9121C73.8327 48.6971 73.752 48.4373 73.752 48.1328C73.752 47.8462 73.8327 47.5953 73.9939 47.3804Z" fill="black"/>
</g>
</g>
<g id="Group_32">
<path id="Vector_29" d="M70.8498 43.3764C70.0078 44.4871 69.5868 45.8218 69.5868 47.3804C69.5868 48.939 70.0078 50.2647 70.8498 51.3575C71.6739 52.4503 72.6771 52.9967 73.8595 52.9967C75.024 52.9967 76.0272 52.4503 76.8692 51.3575C77.6933 50.2647 78.1053 48.939 78.1053 47.3804C78.1053 45.8218 77.6933 44.4871 76.8692 43.3764C76.0272 42.2836 75.024 41.7372 73.8595 41.7372C72.6771 41.7372 71.6739 42.2836 70.8498 43.3764ZM73.9133 46.1442C73.1609 46.1442 72.5249 46.4578 72.0053 47.0848C71.4679 47.7297 71.1992 48.5 71.1992 49.3958C71.1992 50.3094 71.4679 51.0798 72.0053 51.7068C72.5249 52.3517 73.1609 52.6742 73.9133 52.6742C74.6657 52.6742 75.3017 52.3517 75.8212 51.7068C76.3586 51.0798 76.6274 50.3094 76.6274 49.3958C76.6274 48.5 76.3586 47.7297 75.8212 47.0848C75.3017 46.4578 74.6657 46.1442 73.9133 46.1442ZM52.7917 43.5108C51.9497 44.6215 51.5287 45.9561 51.5287 47.5147C51.5287 49.0733 51.9497 50.399 52.7917 51.4918C53.6158 52.5846 54.61 53.131 55.7745 53.131C56.9569 53.131 57.9691 52.5846 58.8111 51.4918C59.6351 50.399 60.0472 49.0733 60.0472 47.5147C60.0472 45.9561 59.6351 44.6215 58.8111 43.5108C57.9691 42.418 56.9569 41.8716 55.7745 41.8716C54.61 41.8716 53.6158 42.418 52.7917 43.5108ZM55.6401 46.2786C54.9056 46.2786 54.2697 46.6011 53.7322 47.246C53.2127 47.8909 52.9529 48.6613 52.9529 49.557C52.9529 50.4528 53.2127 51.2231 53.7322 51.868C54.2697 52.513 54.9056 52.8354 55.6401 52.8354C56.3926 52.8354 57.0375 52.513 57.5749 51.868C58.0945 51.2231 58.3542 50.4528 58.3542 49.557C58.3542 48.6613 58.0945 47.8909 57.5749 47.246C57.0375 46.6011 56.3926 46.2786 55.6401 46.2786Z" stroke="black" stroke-width="0.0268723" stroke-linecap="round" stroke-linejoin="round"/>
</g>
</g>
</g>
</g>
</g>
<g id="BOOK">
<g id="Layer_1_9">
<g id="Group_33">
<g id="Group_34">
<g id="Group_35">
<path id="Vector_30" d="M81.0075 130.792L80.9806 131.034C81.6435 134.205 83.9634 136.193 87.9405 136.999C88.0301 136.999 88.1018 137.008 88.1555 137.026C88.7288 137.134 89.3469 137.214 90.0097 137.268C92.9119 137.429 94.7392 136.596 95.4916 134.769C92.7865 134.017 89.5081 132.35 85.6564 129.771C85.6564 129.753 85.6564 129.735 85.6564 129.717C83.2558 129.233 81.7062 129.592 81.0075 130.792ZM95.4916 134.769C96.9248 135.145 98.1968 135.28 99.3075 135.172C101.475 135.029 102.693 133.613 102.962 130.926C101.583 129.117 97.8654 127.693 91.8101 126.654C87.7972 126.116 85.746 127.137 85.6564 129.717C85.6564 129.735 85.6564 129.753 85.6564 129.771C89.5081 132.35 92.7865 134.017 95.4916 134.769ZM80.685 130.846C79.9326 131.992 79.1802 132.96 78.4278 133.748C79.0727 136.166 80.5507 137.644 82.8617 138.182C85.2264 138.773 86.9642 138.424 88.0749 137.134L87.9405 136.999C83.9634 136.193 81.6435 134.205 80.9806 131.034L80.685 130.846Z" fill="url(#paint3_linear)"/>
<path id="Vector_31" d="M110.863 80.917V80.9438L108.955 89.4355L108.928 89.4623C120.304 100.48 128.571 113.629 133.731 128.911C135.343 125.561 136.149 122.614 136.149 120.07C128.374 103.929 119.945 90.8776 110.863 80.917ZM14.0956 70.7324C11.1755 70.0337 8.10309 69.6396 4.87842 69.55L9.71542 76.5905C22.0408 79.1524 30.9535 86.2287 36.4533 97.8196C39.5526 97.6763 42.3742 98.0167 44.9181 98.8408C37.6626 83.2907 27.3884 73.9212 14.0956 70.7324ZM9.71542 76.5905C7.85228 76.2322 5.81894 75.9456 3.61542 75.7306L6.7326 82.5562C15.7975 83.7027 23.904 88.9607 31.052 98.3302C32.951 98.0435 34.7514 97.8734 36.4533 97.8196C30.9535 86.2287 22.0408 79.1524 9.71542 76.5905ZM12.7251 53.3192L15.4123 62.4289C30.7654 65.761 41.9532 76.1337 48.9758 93.5469C48.9758 93.529 48.9847 93.5201 49.0027 93.5201C50.3104 91.5494 51.7615 89.7579 53.356 88.1456C46.4767 66.6299 32.933 55.0211 12.7251 53.3192ZM15.4123 62.4289C13.1372 61.9272 10.7724 61.5869 8.31806 61.4077L14.0956 70.7324C27.3884 73.9212 37.6626 83.2907 44.9181 98.8408C45.2226 98.9482 45.5361 99.0557 45.8586 99.1632C46.8081 97.1389 47.8382 95.2847 48.9489 93.6007C48.9489 93.5828 48.9579 93.5648 48.9758 93.5469C41.9532 76.1337 30.7654 65.761 15.4123 62.4289Z" fill="#D4D4D4"/>
<path id="Vector_32" d="M50.83 102.065C50.8121 102.083 50.7941 102.101 50.7762 102.119L80.6851 130.819H80.9269L81.0075 130.792C81.7062 129.592 83.2558 129.233 85.6564 129.717C85.746 127.137 87.7972 126.116 91.8102 126.654C97.8654 127.693 101.583 129.117 102.962 130.926C102.98 130.908 102.989 130.89 102.989 130.872L103.016 130.819C113.657 128.759 123.923 128.212 133.811 129.18C133.794 129.126 133.767 129.063 133.731 128.991C133.731 128.974 133.731 128.947 133.731 128.911C128.571 113.629 120.304 100.48 108.928 89.4623C108.91 89.4444 108.892 89.4176 108.874 89.3817C85.4414 87.9127 66.0934 92.1406 50.83 102.065ZM45.8586 99.1632C45.5361 99.0557 45.2226 98.9482 44.9181 98.8408C42.3742 98.0167 39.5526 97.6763 36.4533 97.8196C34.7514 97.8734 32.951 98.0435 31.052 98.3302C23.904 88.9607 15.7975 83.7027 6.7326 82.5562C4.67239 82.2875 2.55844 82.2337 0.390747 82.3949L48.4921 123.698L48.5458 123.671C52.2542 121.718 58.4527 123.751 67.1414 129.771L30.9176 98.6258L67.1414 129.771C70.7781 136.489 74.5403 137.814 78.4278 133.748C79.1802 132.96 79.9326 131.992 80.6851 130.846V130.819L50.7762 102.119C50.7941 102.101 50.8121 102.083 50.83 102.065V102.039C49.343 100.82 47.6859 99.8619 45.8586 99.1632Z" fill="#FF903A"/>
<path id="Vector_33" d="M49.0027 93.5201L49.6476 94.0038C63.9257 81.1588 82.7273 77.0653 106.052 81.7231C82.7273 77.0653 63.9257 81.1588 49.6476 94.0038L48.9489 93.6007C47.8382 95.2847 46.8081 97.1388 45.8586 99.1632C47.6859 99.8619 49.343 100.82 50.83 102.039V102.065C66.0934 92.1406 85.4414 87.9127 108.874 89.3817L108.955 89.4355L110.863 80.9438C84.2949 73.7062 65.126 76.1068 53.356 88.1456C51.7615 89.7579 50.3104 91.5494 49.0027 93.5201ZM107.262 87.0438C85.9431 84.912 67.1504 89.0055 50.8837 99.3245C67.1504 89.0055 85.9431 84.912 107.262 87.0438ZM106.805 84.4372C85.5041 82.3054 66.7025 86.3989 50.4 96.7178C66.7025 86.3989 85.5041 82.3054 106.805 84.4372Z" fill="white"/>
</g>
</g>
<g id="Group_36">
<path id="Vector_34" d="M15.4123 62.4289C13.1372 61.9272 10.7724 61.5869 8.31806 61.4077L14.0956 70.7324C27.3884 73.9212 37.6626 83.2907 44.9181 98.8408C45.2226 98.9482 45.5361 99.0557 45.8586 99.1632C46.8081 97.1389 47.8382 95.2847 48.9489 93.6007C48.9489 93.5828 48.9579 93.5648 48.9758 93.5469C41.9532 76.1337 30.7654 65.761 15.4123 62.4289ZM15.4123 62.4289L12.7251 53.3192C32.933 55.0211 46.4767 66.6299 53.356 88.1456C65.126 76.1068 84.2949 73.7062 110.863 80.9438V80.917C119.945 90.8776 128.374 103.929 136.149 120.07C136.149 122.614 135.343 125.561 133.731 128.911C133.731 128.947 133.731 128.974 133.731 128.991C133.767 129.063 133.794 129.126 133.811 129.18C123.922 128.212 113.657 128.759 103.016 130.819L102.989 130.872C102.989 130.89 102.98 130.908 102.962 130.926C102.693 133.613 101.475 135.029 99.3075 135.172C98.1968 135.28 96.9248 135.145 95.4917 134.769C94.7392 136.596 92.9119 137.429 90.0097 137.268C89.3469 137.214 88.7288 137.134 88.1555 137.026C88.1376 137.062 88.1107 137.098 88.0749 137.134C86.9642 138.424 85.2264 138.773 82.8617 138.182C80.5507 137.644 79.0727 136.166 78.4278 133.748C74.5403 137.814 70.7781 136.489 67.1414 129.771C58.4527 123.751 52.2542 121.718 48.5458 123.671L48.4921 123.698L0.390747 82.3949C2.55844 82.2337 4.67239 82.2875 6.7326 82.5562L3.61542 75.7306C5.81894 75.9456 7.85228 76.2322 9.71542 76.5905L4.87842 69.55C8.10309 69.6396 11.1755 70.0337 14.0956 70.7324L15.4123 62.4289ZM106.805 84.4372C85.5041 82.3054 66.7025 86.3989 50.4 96.7178M49.6476 94.0038C63.9257 81.1588 82.7273 77.0653 106.052 81.7231L49.6476 94.0038ZM48.9758 93.5469C48.9758 93.529 48.9847 93.5201 49.0027 93.5201C50.3104 91.5494 51.7615 89.7579 53.356 88.1456L48.9758 93.5469ZM50.83 102.065C50.8121 102.083 50.7941 102.101 50.7762 102.119L80.685 130.819H80.9269L81.0075 130.792C81.7062 129.592 83.2558 129.233 85.6564 129.717C85.746 127.137 87.7972 126.116 91.8102 126.654C97.8654 127.693 101.583 129.117 102.962 130.926L50.83 102.065ZM50.83 102.065V102.039C49.343 100.82 47.6859 99.8619 45.8586 99.1632L50.83 102.065ZM6.7326 82.5562C15.7975 83.7027 23.904 88.9607 31.052 98.3302C32.951 98.0435 34.7514 97.8734 36.4533 97.8196C30.9535 86.2287 22.0408 79.1524 9.71542 76.5905L6.7326 82.5562ZM80.685 130.846V130.819L80.9806 131.034L80.685 130.846ZM80.685 130.846C79.9326 131.992 79.1802 132.96 78.4278 133.748L80.685 130.846ZM67.1414 129.771L30.9176 98.6258L67.1414 129.771ZM44.9181 98.8408C42.3742 98.0167 39.5526 97.6763 36.4533 97.8196L44.9181 98.8408ZM108.928 89.4623C108.91 89.4444 108.892 89.4176 108.874 89.3817C85.4414 87.9127 66.0934 92.1406 50.83 102.065L108.928 89.4623ZM110.863 80.9438L108.955 89.4355L108.928 89.4623C120.304 100.48 128.571 113.629 133.731 128.911L110.863 80.9438ZM80.9806 131.034C81.6435 134.205 83.9635 136.193 87.9406 136.999C88.0301 136.999 88.1018 137.008 88.1555 137.026L80.9806 131.034ZM95.4917 134.769C92.7865 134.017 89.5081 132.35 85.6564 129.771C85.6564 129.753 85.6564 129.735 85.6564 129.717L95.4917 134.769ZM107.262 87.0438C85.943 84.912 67.1504 89.0055 50.8837 99.3245L107.262 87.0438Z" stroke="black" stroke-width="0.0268723" stroke-linecap="round" stroke-linejoin="round"/>
</g>
</g>
<g id="Group_37">
<g id="Group_38">
<path id="ASSESSMENT" d="M72.7157 99.8271L69.671 108.402L67.3239 107.658L67.9927 106.155L67.1704 105.894L66.2511 107.317L63.8768 106.564L69.3993 98.7753L72.7157 99.8271ZM68.6998 104.688C69.077 103.727 69.5699 102.55 70.1786 101.156C69.1138 102.641 68.3594 103.735 67.9156 104.439L68.6998 104.688ZM77.959 104.377L75.8297 103.702L76.1527 103.097C76.3034 102.815 76.3722 102.627 76.359 102.532C76.3458 102.438 76.2756 102.37 76.1486 102.33C76.0106 102.286 75.8775 102.305 75.7493 102.386C75.6247 102.468 75.5059 102.615 75.3929 102.827C75.2475 103.099 75.178 103.317 75.1843 103.48C75.187 103.642 75.3142 103.877 75.5659 104.184C76.2864 105.069 76.6832 105.733 76.7563 106.176C76.8293 106.62 76.6523 107.241 76.2253 108.041C75.9149 108.622 75.6117 109.027 75.3158 109.255C75.0234 109.485 74.6165 109.627 74.0949 109.681C73.5751 109.732 73.0356 109.669 72.4765 109.492C71.863 109.297 71.3958 109.024 71.075 108.67C70.7578 108.318 70.6209 107.955 70.6641 107.58C70.7074 107.204 70.8924 106.711 71.2189 106.1L71.5042 105.565L73.6334 106.241L73.1032 107.234C72.94 107.539 72.864 107.745 72.8755 107.851C72.8906 107.958 72.9743 108.035 73.1268 108.084C73.2793 108.132 73.4214 108.112 73.5532 108.024C73.6887 107.938 73.8147 107.785 73.9313 107.567C74.1879 107.086 74.2849 106.75 74.2222 106.557C74.156 106.363 73.9302 106.003 73.5451 105.476C73.1617 104.946 72.9196 104.573 72.8188 104.356C72.7179 104.139 72.6803 103.872 72.7057 103.554C72.7349 103.237 72.8651 102.862 73.0966 102.429C73.4303 101.804 73.7596 101.374 74.0846 101.139C74.4131 100.906 74.8129 100.769 75.2838 100.73C75.7565 100.687 76.2652 100.752 76.8098 100.925C77.4051 101.114 77.864 101.364 78.1864 101.674C78.5125 101.986 78.67 102.299 78.659 102.614C78.6534 102.926 78.4775 103.407 78.1312 104.055L77.959 104.377ZM83.7313 106.208L81.6021 105.533L81.925 104.928C82.0757 104.646 82.1445 104.458 82.1313 104.363C82.1181 104.268 82.048 104.201 81.9209 104.161C81.783 104.117 81.6499 104.136 81.5217 104.217C81.3971 104.299 81.2782 104.446 81.1652 104.658C81.0199 104.93 80.9504 105.147 80.9567 105.311C80.9594 105.472 81.0866 105.707 81.3383 106.015C82.0588 106.899 82.4556 107.564 82.5286 108.007C82.6017 108.451 82.4247 109.072 81.9977 109.872C81.6873 110.453 81.3841 110.858 81.0881 111.086C80.7958 111.315 80.3888 111.457 79.8672 111.512C79.3474 111.563 78.808 111.5 78.2489 111.323C77.6353 111.128 77.1682 110.854 76.8473 110.501C76.5301 110.149 76.3932 109.785 76.4365 109.41C76.4798 109.035 76.6647 108.542 76.9913 107.93L77.2765 107.396L79.4058 108.071L78.8756 109.064C78.7123 109.37 78.6364 109.576 78.6478 109.681C78.6629 109.788 78.7467 109.866 78.8992 109.914C79.0516 109.963 79.1938 109.943 79.3256 109.855C79.461 109.768 79.5871 109.616 79.7037 109.398C79.9603 108.917 80.0572 108.581 79.9946 108.388C79.9283 108.194 79.7026 107.834 79.3174 107.307C78.934 106.777 78.6919 106.403 78.5911 106.187C78.4903 105.97 78.4526 105.703 78.4781 105.385C78.5072 105.068 78.6375 104.693 78.8689 104.259C79.2026 103.635 79.532 103.205 79.8569 102.97C80.1855 102.736 80.5852 102.6 81.0562 102.561C81.5289 102.518 82.0375 102.583 82.5821 102.756C83.1775 102.945 83.6364 103.194 83.9588 103.505C84.2848 103.816 84.4423 104.13 84.4313 104.444C84.4258 104.757 84.2498 105.237 83.9036 105.886L83.7313 106.208ZM85.9649 104.029L89.7877 105.241L88.9157 106.874L87.3855 106.389L86.5593 107.936L87.9915 108.39L87.1626 109.942L85.7304 109.488L84.7723 111.282L86.455 111.816L85.583 113.448L81.6077 112.188L85.9649 104.029ZM94.1433 109.51L92.0141 108.835L92.337 108.23C92.4877 107.948 92.5565 107.76 92.5433 107.665C92.5301 107.571 92.46 107.503 92.3329 107.463C92.195 107.419 92.0619 107.438 91.9337 107.519C91.8091 107.601 91.6903 107.748 91.5772 107.96C91.4319 108.232 91.3624 108.45 91.3687 108.613C91.3714 108.775 91.4986 109.009 91.7503 109.317C92.4708 110.202 92.8676 110.866 92.9406 111.309C93.0137 111.753 92.8367 112.374 92.4097 113.174C92.0993 113.755 91.7961 114.16 91.5001 114.388C91.2078 114.617 90.8008 114.759 90.2792 114.814C89.7594 114.865 89.22 114.802 88.6609 114.625C88.0473 114.43 87.5802 114.156 87.2593 113.803C86.9422 113.451 86.8052 113.088 86.8485 112.712C86.8918 112.337 87.0767 111.844 87.4033 111.233L87.6885 110.698L89.8178 111.374L89.2876 112.366C89.1243 112.672 89.0484 112.878 89.0598 112.984C89.0749 113.091 89.1587 113.168 89.3112 113.217C89.4636 113.265 89.6058 113.245 89.7376 113.157C89.873 113.071 89.9991 112.918 90.1157 112.7C90.3723 112.219 90.4692 111.883 90.4066 111.69C90.3403 111.496 90.1146 111.136 89.7294 110.609C89.346 110.079 89.1039 109.705 89.0031 109.489C88.9023 109.272 88.8646 109.005 88.8901 108.687C88.9192 108.37 89.0495 107.995 89.2809 107.562C89.6147 106.937 89.944 106.507 90.2689 106.272C90.5975 106.038 90.9972 105.902 91.4682 105.863C91.9409 105.82 92.4495 105.885 92.9941 106.058C93.5895 106.247 94.0484 106.496 94.3708 106.807C94.6968 107.119 94.8543 107.432 94.8433 107.746C94.8378 108.059 94.6618 108.539 94.3156 109.188L94.1433 109.51ZM99.9157 111.341L97.7864 110.666L98.1094 110.061C98.2601 109.779 98.3289 109.59 98.3157 109.496C98.3025 109.401 98.2323 109.334 98.1053 109.294C97.9673 109.25 97.8342 109.269 97.706 109.35C97.5814 109.432 97.4626 109.579 97.3496 109.791C97.2042 110.063 97.1347 110.28 97.141 110.443C97.1437 110.605 97.2709 110.84 97.5226 111.148C98.2431 112.032 98.6399 112.696 98.713 113.14C98.786 113.583 98.609 114.205 98.182 115.005C97.8716 115.586 97.5684 115.99 97.2725 116.219C96.9801 116.448 96.5732 116.59 96.0516 116.645C95.5318 116.696 94.9923 116.633 94.4332 116.456C93.8197 116.261 93.3525 115.987 93.0317 115.634C92.7145 115.282 92.5776 114.918 92.6208 114.543C92.6641 114.168 92.8491 113.675 93.1756 113.063L93.4609 112.529L95.5901 113.204L95.0599 114.197C94.8967 114.503 94.8207 114.709 94.8322 114.814C94.8473 114.921 94.931 114.999 95.0835 115.047C95.236 115.096 95.3781 115.076 95.5099 114.988C95.6454 114.901 95.7714 114.749 95.888 114.53C96.1446 114.05 96.2416 113.713 96.1789 113.521C96.1127 113.327 95.8869 112.966 95.5018 112.44C95.1184 111.91 94.8763 111.536 94.7755 111.32C94.6746 111.103 94.637 110.836 94.6624 110.518C94.6916 110.201 94.8218 109.826 95.0533 109.392C95.387 108.767 95.7163 108.338 96.0413 108.103C96.3698 107.869 96.7696 107.733 97.2405 107.693C97.7132 107.651 98.2219 107.716 98.7665 107.889C99.3618 108.078 99.8207 108.327 100.143 108.638C100.469 108.949 100.627 109.262 100.616 109.577C100.61 109.89 100.434 110.37 100.088 111.018L99.9157 111.341ZM109.223 111.405L104.866 119.564L102.862 118.928L105.804 113.42L102.061 118.675L100.64 118.224L102.67 112.574L99.7961 117.956L97.7921 117.321L102.149 109.162L105.117 110.103C104.942 110.621 104.726 111.228 104.469 111.925L103.676 114.101L106.233 110.457L109.223 111.405ZM110.143 111.697L113.966 112.91L113.094 114.542L111.564 114.057L110.738 115.604L112.17 116.058L111.341 117.61L109.909 117.156L108.951 118.95L110.634 119.484L109.762 121.117L105.786 119.856L110.143 111.697ZM119.902 114.792L115.545 122.951L113.535 122.313L114.324 118.226L112.343 121.935L110.426 121.327L114.783 113.169L116.7 113.777L116.023 117.858L117.985 114.184L119.902 114.792ZM125.446 116.55L124.574 118.183L123.212 117.751L119.727 124.277L117.434 123.55L120.92 117.024L119.564 116.594L120.436 114.961L125.446 116.55Z" fill="black"/>
</g>
</g>
</g>
</g>
</g>
</g>
<defs>
<linearGradient id="paint0_linear" x1="64.0524" y1="46.2611" x2="85.5675" y2="71.1519" gradientUnits="userSpaceOnUse">
<stop stop-color="#FBE3B6"/>
<stop offset="1" stop-color="#F2BC93"/>
</linearGradient>
<linearGradient id="paint1_linear" x1="63.918" y1="45.9655" x2="85.4331" y2="70.8563" gradientUnits="userSpaceOnUse">
<stop stop-color="#FBE3B6"/>
<stop offset="1" stop-color="#F2BC93"/>
</linearGradient>
<linearGradient id="paint2_linear" x1="64.0444" y1="46.2182" x2="85.5557" y2="71.1153" gradientUnits="userSpaceOnUse">
<stop stop-color="#FBE3B6"/>
<stop offset="1" stop-color="#F2BC93"/>
</linearGradient>
<linearGradient id="paint3_linear" x1="64.0444" y1="46.245" x2="85.5556" y2="71.1422" gradientUnits="userSpaceOnUse">
<stop stop-color="#FBE3B6"/>
<stop offset="1" stop-color="#F2BC93"/>
</linearGradient>
</defs>
</svg>
