<?xml version="1.0" encoding="UTF-8" standalone="no"?><!DOCTYPE svg PUBLIC "-//W3C//DTD SVG 1.1//EN" "http://www.w3.org/Graphics/SVG/1.1/DTD/svg11.dtd"><svg width="100%" height="100%" viewBox="0 0 33334 18750" version="1.1" xmlns="http://www.w3.org/2000/svg" xmlns:xlink="http://www.w3.org/1999/xlink" xml:space="preserve" xmlns:serif="http://www.serif.com/" style="fill-rule:evenodd;clip-rule:evenodd;stroke-linejoin:round;stroke-miterlimit:2;"><rect x="-2790.8" y="-2481.42" width="38105.3" height="23367.5" style="fill:#9cff8c;"/><path d="M3012.08,13782.6c1107.7,-1402.77 3170.8,179.95 3170.8,179.95c0,0 219.496,-2267.84 2177.69,-2397.83c2327.29,-154.496 2363.08,2117.54 2363.08,2117.54c0,-0 1407.73,-1317.18 2424.32,5.487c1199.28,1560.34 -891.771,2403.09 -891.771,2403.09c0,-0 -54.833,2189.02 -1981.17,2558c-2008.11,384.641 -2663.65,-1578.53 -2663.65,-1578.53c-0,-0 -313.13,2038 -2341.89,1854.73c-1938.45,-175.108 -1238.02,-2589.41 -1238.02,-2589.41c0,0 -2122.31,-1156.33 -1019.4,-2553.03Z" style="fill:#fff;"/><path d="M11419.8,15497.8c-941.788,1519.15 -3170.79,180.15 -3170.79,180.15c0,-0 38.642,2278.11 -1892.25,2628.94c-2294.84,416.954 -2587.6,-1836.42 -2587.6,-1836.42c-0,0 -1249.57,1468.07 -2409.36,268.988c-1368.2,-1414.55 614.004,-2488.59 614.004,-2488.59c-0,0 -193.325,-2181.15 1678.86,-2765.83c1951.65,-609.492 2825.22,1266.85 2825.22,1266.85c0,0 80.404,-2060.35 2116.88,-2107.92c1945.82,-45.454 1523.19,2432.62 1523.19,2432.62c-0,0 2239.56,908.646 1301.86,2421.21Z" style="fill:#fff;fill-opacity:0.73;"/><path d="M18665.1,10035.6c1703.3,-541.812 2526.15,1924.82 2526.15,1924.82c0,-0 1451.9,-1755.92 3147.01,-766.971c2014.62,1175.35 771.871,3077.72 771.871,3077.72c-0,-0 1903.92,-302.879 2005.42,1362.24c119.73,1964.33 -2084.61,1491.48 -2084.61,1491.48c0,0 -1271.34,1782.84 -3073.9,1009.73c-1879.07,-805.933 -1322.75,-2799.49 -1322.75,-2799.49c0,-0 -1400.75,1513.07 -2978.89,225.075c-1507.89,-1230.66 424.479,-2838.59 424.479,-2838.59c-0,0 -1110.7,-2146.54 585.216,-2686.01Z" style="fill:#fff;fill-opacity:0.73;"/><path d="M28021.6,17592.1c-1753.68,345.517 -2292.02,-2198.41 -2292.02,-2198.41c-0,-0 -1641.34,1580.28 -3213.61,405.792c-1868.61,-1395.86 -418.504,-3145.31 -418.504,-3145.31c0,0 -1925.97,85.404 -1838.32,-1580.5c103.408,-1965.25 2240.05,-1245.91 2240.05,-1245.91c0,-0 1464.99,-1627.46 3168.44,-655.263c1775.76,1013.46 997.333,2931.23 997.333,2931.23c0,-0 1563.03,-1344.78 2985.23,113.591c1358.88,1393.45 -743.088,2772.29 -743.088,2772.29c0,-0 860.567,2258.47 -885.517,2602.49Z" style="fill:#fff;"/><ellipse cx="17868.2" cy="22327.1" rx="23823.4" ry="7080.17" style="fill:#19b600;"/><g><path d="M28985.5,3894.58c17.992,108.03 25.646,218.971 39.15,328.313c40.362,32.783 59.204,89.883 109.883,107.133c24.759,8.429 185.146,95.188 209.892,103.625c29.233,9.938 56.717,18.592 83.033,26.334c-16.396,-51.984 -29.837,-105.05 -42.891,-158.142c-157.921,-110.104 -298.771,-244.329 -399.067,-407.263" style="fill:#e3b523;fill-rule:nonzero;"/><path d="M28936,3805.32c-57.875,-117.713 -100.38,-243.65 -132.488,-371.171c-57.629,132.042 -110.687,292.188 -136.962,462.817c62.879,100.816 125.758,201.629 188.637,302.446c33.663,-41.955 99.034,-15.284 147.571,9.533c-14.683,-121.604 -22.654,-245.067 -46.187,-364.142c-7.084,-13 -14,-26.125 -20.571,-39.483" style="fill:#e3b523;fill-rule:nonzero;"/><path d="M29408,4318c12.283,49.721 25.041,99.371 40.441,148.046c140.075,39.492 248.996,53.733 411.438,97.271c1.658,-6.613 3.087,-13.567 4.567,-20.455c-75.396,-23.695 -148.667,-50.195 -219.571,-86.25c-80.863,-41.108 -160.679,-87.145 -236.875,-138.612" style="fill:#e3b523;fill-rule:nonzero;"/><path d="M28704.8,3668.67c-25.6,52.304 -52.52,103.941 -84.046,152.962c-11.37,17.68 -23.333,35.055 -34.958,52.546c10.554,10.771 21.783,20.792 33.808,29.825c7.971,-14.658 15.955,-29.329 23.925,-43.987c4.459,7.162 8.93,14.312 13.388,21.475c12.171,-71.521 28.704,-142.459 47.883,-212.821" style="fill:#e3b523;fill-rule:nonzero;"/><path d="M29723.2,4094.71c-120.383,-40.708 -201.316,-129.908 -309.45,-187.091c-21.262,-3.705 -42.57,-7.688 -64.02,-12.229c-60.126,-12.734 -121.321,-26.805 -179.667,-46.167c-53.9,-17.892 -117.4,-38.188 -167.729,-64.592c-22.504,-11.796 -44.471,-24.583 -65.85,-38.321c17.262,39.975 36.116,79.234 56.991,117.488c59.429,108.929 135.85,203.717 225.588,286.912c201.729,61.271 438.487,42.267 644.371,75.279c6.754,1.075 13.487,2.392 20.237,3.621c-1.571,-33.779 -3.987,-67.179 -7.254,-99.454c-53.113,-8.771 -105.929,-19.446 -153.217,-35.446" style="fill:#e3b523;fill-rule:nonzero;"/><path d="M28721.4,3610.18c21.963,-75.141 46.3,-149.625 70.767,-223.508c-2.129,-9.15 -4.359,-18.284 -6.363,-27.425c-19.191,-87.234 -31.779,-176.713 -30.4,-265.475c-69.241,140.416 -203.104,294.958 -293.154,462.912c7.358,113.68 44.046,231.275 116.479,309.975c10.604,-15.837 21.384,-31.616 31.688,-47.645c42.75,-66.417 77.054,-137.655 110.983,-208.834" style="fill:#e3b523;fill-rule:nonzero;"/><path d="M29538,4214.92c-97.204,-1.959 -193.008,-10.7 -286.687,-35.284c15.987,13.863 32.346,27.417 49.087,40.617c132.738,104.662 278.742,202.417 433.221,271.75c41.513,18.633 86.404,32.854 131.829,46.775c18.721,-89.817 23.196,-200.442 18.338,-307.629c-38.342,-6.133 -77.046,-9.621 -115.796,-11.758c-76.583,-4.242 -153.333,-2.917 -229.992,-4.471" style="fill:#e3b523;fill-rule:nonzero;"/><path d="M29458.6,3914.97c62.805,35.575 107.421,82.883 174.48,122.12c75.583,44.238 158.17,69.188 242.745,87.205c-4.637,-44.434 -10.65,-86.688 -17.791,-124.55c-2.8,-14.921 -5.917,-29.98 -8.567,-45.063c-58.508,-4.708 -117.504,-6.333 -172.754,-12.558c-74.063,-8.346 -145.967,-16.092 -218.113,-27.154" style="fill:#e3b523;fill-rule:nonzero;"/><path d="M29377.4,3535.75c-33.071,11.246 -66.146,23.583 -100.179,30.846c84.721,7.387 172.996,15.367 254.083,30.108c62.8,11.429 104.054,22.013 165.084,40.859c17.391,5.362 34.891,11.67 52.258,18.833c25.987,-5.858 51.983,-11.708 77.971,-17.567c-17.492,-65.733 -47.742,-126.366 -84.096,-183.933c-69.95,-2.754 -145.096,13.821 -203.442,29.379c-54.687,14.567 -108.133,33.263 -161.679,51.475" style="fill:#e3b523;fill-rule:nonzero;"/><path d="M29150.8,3214.61c-120.316,8.758 -241.804,36.183 -358.904,1.766c7.496,71.038 21.883,141.771 39.254,210.771c6.896,27.387 14.192,54.708 21.934,81.925c1.158,1.246 2.391,2.675 3.779,4.475c36.196,46.887 118.012,22.279 174.9,28.437c54.816,5.946 123.275,13.7 178.191,18.696c11.734,1.075 23.646,2.109 35.617,3.159c58.896,-9.663 116.888,-35.663 172.242,-54.105c69.912,-23.287 140.929,-44.545 214.329,-53.237c32.662,-3.879 70.804,-5.854 109.175,-3.383c-36.042,-56.842 -77.975,-110.734 -119.421,-163.642l-55.287,-70.583c-46.563,-4.3 -93.23,-5.284 -134.709,-7.392c-93.633,-4.771 -187.583,-3.696 -281.1,3.112" style="fill:#e3b523;fill-rule:nonzero;"/><path d="M29262.7,3592.45c-105.775,-10.004 -216.812,-17.167 -321.783,-34.133c-27.204,-4.384 -58.646,-13.042 -81.646,-28.101c17.6,59.73 37.533,118.842 60.7,176.613c26.179,29.35 82.05,52.746 109.284,67.046c45.72,23.979 93.533,43.975 142.312,60.846c74.454,25.758 151.092,43.254 228.567,56.579c6.695,0.762 12.504,1.575 15.02,2.529c60.58,10.004 121.617,17.6 182.467,24.675c83.471,9.712 167.417,17.683 250.692,29.654c-5.2,-31.392 -7.959,-62.892 -1.429,-93.792c4.625,-21.895 13.875,-44.329 7.887,-65.883c-5.008,-18.058 -19.716,-31.5 -33.754,-43.912c-28.05,-24.792 -56.1,-49.584 -84.154,-74.375c-40.258,-14.542 -81.534,-25.659 -119.954,-35.417c-116.034,-29.496 -235.225,-31.088 -354.209,-42.329" style="fill:#e3b523;fill-rule:nonzero;"/><path d="M28819,2515.89c-3.975,3.454 -5.696,8.758 -7.208,13.791c-15.513,51.975 -25.667,105.534 -30.554,159.563c-3.805,42.129 -4.221,84.546 -1.692,126.775c-63.796,55.058 -166.629,222.162 -183.742,252.004c-58.271,101.637 -101.579,215.283 -124.279,330.4c-8.267,41.933 -11.871,88.279 -10.392,135.829c88.971,-173.483 217.588,-329.029 298.079,-507.233c5.421,-53.35 18.242,-145.304 29.563,-157.675c11.304,-12.375 41.7,-12.55 37.058,7.746c-4.637,20.279 -64.687,203 -35.995,316.962c99.141,30.359 236.229,9.713 333.795,1.546c93.43,-7.829 186.346,-7.958 280.03,-4.208c51.7,2.066 100.25,4.412 148.958,9.554c-34.121,-43.533 -68.225,-87.075 -102.333,-130.617c-20.721,-26.466 -41.688,-53.158 -67.755,-74.375c-44.97,-36.583 -101.9,-54.4 -157.304,-71.429c-126.996,-38.992 -253.991,-78.004 -380.979,-117.004c-0.979,-97.763 8.883,-195.529 30.913,-290.754c-16.18,11.079 -41.376,-13.734 -56.163,-0.875" style="fill:#e3b523;fill-rule:nonzero;"/><path d="M29123.6,3195.6c-97.546,8.171 -234.645,28.825 -333.787,-1.534c-28.692,-113.962 31.362,-296.683 36,-316.983c4.65,-20.283 -25.758,-20.1 -37.071,-7.737c-11.3,12.375 -24.133,104.337 -29.554,157.687c-80.492,178.204 -209.117,333.738 -298.088,507.221c0.23,7.45 0.625,14.938 1.117,22.429c90.05,-167.954 223.9,-322.487 293.154,-462.916c-1.396,88.77 11.196,178.254 30.4,265.479c2.013,9.154 4.242,18.283 6.363,27.421c-24.467,73.883 -48.804,148.37 -70.767,223.508c-33.925,71.196 -68.246,142.425 -110.975,208.85c-10.313,16.017 -21.108,31.804 -31.7,47.654c2.35,2.533 4.725,5.05 7.142,7.517c11.62,-17.496 23.575,-34.884 34.95,-52.563c31.545,-49.016 58.466,-100.654 84.066,-152.958c-19.187,70.35 -35.721,141.287 -47.887,212.821c3.216,5.158 6.429,10.321 9.646,15.479c26.275,-170.629 79.329,-330.775 136.958,-462.817c32.108,127.521 74.617,253.459 132.492,371.171c6.566,13.358 13.483,26.479 20.566,39.483c23.538,119.071 31.509,242.538 46.175,364.15c1.071,0.538 2.163,1.084 3.188,1.613c6.754,3.496 12.912,7.675 18.642,12.321c-13.5,-109.342 -21.155,-220.284 -39.15,-328.313c100.308,162.946 241.145,297.154 399.066,407.284c13.054,53.091 26.5,106.137 42.892,158.116c7.1,2.084 14.112,4.109 21.042,6.059c-15.388,-48.684 -28.159,-98.321 -40.442,-148.042c76.192,51.467 156.012,97.5 236.875,138.612c70.917,36.042 144.175,62.555 219.571,86.246c0.291,-1.375 0.625,-2.704 0.912,-4.096c-45.421,-13.908 -90.304,-28.145 -131.808,-46.766c-154.504,-69.338 -300.483,-167.092 -433.233,-271.742c-16.75,-13.212 -33.092,-26.762 -49.1,-40.633c93.691,24.6 189.504,33.329 286.691,35.287c76.671,1.542 153.417,0.238 230.013,4.471c38.733,2.15 77.45,5.629 115.771,11.758c-0.021,-0.508 -0.042,-1.016 -0.063,-1.525c-6.746,-1.229 -13.483,-2.545 -20.221,-3.629c-205.896,-33.004 -442.654,-14 -644.391,-75.283c-89.742,-83.192 -166.155,-177.971 -225.58,-286.9c-20.862,-38.263 -39.729,-77.513 -56.991,-117.483c21.379,13.737 43.346,26.525 65.85,38.316c50.325,26.404 113.829,46.7 167.729,64.592c58.346,19.362 119.542,33.433 179.667,46.171c21.445,4.537 42.75,8.508 64.02,12.225c108.134,57.187 189.067,146.383 309.45,187.096c47.288,15.995 100.1,26.67 153.217,35.445c-0.196,-1.97 -0.433,-3.891 -0.637,-5.875c-84.567,-18.008 -167.15,-42.958 -242.746,-87.183c-67.05,-39.25 -111.667,-86.554 -174.471,-122.129c72.137,11.046 144.05,18.808 218.112,27.15c55.246,6.217 114.238,7.837 172.755,12.558c-0.384,-2.179 -0.75,-4.358 -1.113,-6.533c-83.262,-11.958 -167.212,-19.929 -250.679,-29.642c-60.854,-7.075 -121.9,-14.683 -182.483,-24.662c-2.513,-0.979 -8.317,-1.792 -15.017,-2.554c-77.467,-13.313 -154.113,-30.821 -228.567,-56.575c-48.779,-16.875 -96.591,-36.867 -142.312,-60.85c-27.234,-14.3 -83.096,-37.68 -109.275,-67.034c-23.163,-57.771 -43.1,-116.879 -60.709,-176.6c22.988,15.046 54.442,23.696 81.642,28.096c104.988,16.958 216,24.117 321.788,34.113c118.991,11.254 238.175,12.837 354.208,42.329c38.433,9.771 79.696,20.875 119.967,35.429c-3.359,-2.958 -6.705,-5.933 -10.063,-8.892c7.267,-1.65 14.533,-3.279 21.813,-4.912c-17.367,-7.163 -34.867,-13.471 -52.263,-18.834c-61.025,-18.845 -102.279,-29.429 -165.071,-40.845c-81.108,-14.746 -169.371,-22.734 -254.108,-30.113c34.037,-7.262 67.125,-19.608 100.196,-30.854c53.533,-18.204 106.987,-36.908 161.679,-51.475c58.35,-15.546 133.487,-32.133 203.442,-29.379c-0.375,-0.6 -0.767,-1.188 -1.155,-1.775c-38.37,-2.471 -76.5,-0.488 -109.175,3.379c-73.4,8.692 -144.416,29.954 -214.329,53.237c-55.354,18.442 -113.337,44.455 -172.233,54.121c-11.967,-1.054 -23.892,-2.1 -35.625,-3.171c-54.917,-5 -123.363,-12.762 -178.183,-18.683c-56.896,-6.171 -138.713,18.433 -174.909,-28.454c-1.387,-1.8 -2.612,-3.213 -3.779,-4.475c-7.742,-27.213 -15.037,-54.538 -21.933,-81.921c-17.371,-69.004 -31.759,-139.733 -39.254,-210.775c117.112,34.408 238.591,6.992 358.904,-1.767c93.516,-6.808 187.466,-7.883 281.1,-3.108c41.479,2.108 88.154,3.104 134.708,7.388c-4.679,-5.971 -9.367,-11.959 -14.046,-17.934c-48.704,-5.162 -97.266,-7.496 -148.946,-9.562c-93.695,-3.742 -186.62,-3.625 -280.05,4.204" style="fill:#ffecd5;fill-rule:nonzero;"/></g><ellipse cx="13028.5" cy="-1567.86" rx="13612" ry="4667.46" style="fill:#138c00;"/><path d="M19553.8,-1208.74c-50.863,283.4 702.441,3910.04 7566.46,3871.49c4506.83,-25.313 4855,678.263 4968.46,1169.66c545.9,2365.08 1594.71,9412.67 -1594.71,13185.5c-3189.42,3772.85 -4122.91,4472.96 -4122.91,4472.96l9716.54,-328.179l2674.05,-15254.3l1215.48,-9602.29l-7215.08,-763.321l-758.679,6545.21c-0,0 -799.133,-765.05 -4781.12,-247.433c-3715.83,483.012 -7619.62,-2182.22 -6966,-3028.99c143.133,-185.429 -661.063,-250.904 -702.442,-20.341l-0.041,-0.013Z" style="fill:#955151;"/><g><path d="M4750.33,12199c0,0 -345.591,236.204 -660.037,336.038c-26.346,8.375 -48.584,-21.309 -33.767,-44.675c298.45,-470.979 478.654,-793.204 478.654,-793.204c0,-0 -1087.13,1466.75 -2060.12,2324.22c-39.366,34.688 -91.566,80.446 -103.608,-44.395c-16.154,-167.292 -73.775,-1666.57 -85.354,-1970.51c-1.309,-34.512 10.912,-67.817 33.946,-93.517c424.808,-474.033 814.054,-1009.85 1106.44,-1443.15c14.609,-21.645 36.334,-36.875 61.317,-44.425c400.412,-121.22 632.95,-396.562 632.95,-396.562c-0,-0 -277.317,183.929 -526.492,258.033c-19.437,5.804 -35.458,-15.946 -24.341,-32.916c241.65,-369.446 388.141,-622.784 388.141,-622.784c0,0 -463.862,607.763 -1015.47,1194.21c-11.734,12.479 -32.817,4.287 -32.842,-12.863c-0.617,-299.171 69.175,-762.521 69.175,-762.521c-0,0 -113.108,313.063 -189.396,900.792c-3.287,25.371 -14.712,49.3 -32.662,67.508c-143.15,145.075 -289.205,284.35 -432.18,407.654c-24.725,21.338 -63.191,4.363 -64.604,-28.27l-60.879,-1410.08c-1.617,-37.333 10.579,-73.716 33.767,-103.016c416.616,-526.309 728.646,-1179.06 728.646,-1179.06c-0,0 -359.046,543.567 -715.321,903.875c-23.163,23.417 -63.088,7.78 -64.5,-25.087l-66.454,-1539.29c-0,0 -106.075,2335.36 -103.713,2401.74c2.388,66.375 -36.667,43.267 -57.337,22.596c-206.371,-206.371 -413.921,-449.175 -599.955,-682.842c-11.32,-14.2 -17.82,-31.712 -18.92,-49.837c-30.405,-498.171 -117.042,-768.167 -117.042,-768.167c-0,0 29.067,334.371 15.896,579.896c-1.463,27.296 -36.254,37.8 -52.817,16.025c-294.083,-386.113 -501.021,-699.3 -501.021,-699.3c0,-0 298.863,625.325 749.679,1323.98c12.942,20.079 -5.47,45.4 -28.579,39.313c-458.058,-120.659 -957.358,-403.034 -957.358,-403.034c-0,0 415.104,420.034 1126.88,617.725c21.954,6.109 41.213,19.513 54.15,38.259c108.488,156.812 223.396,313.445 343.179,463.991c13.275,16.688 20.109,37.438 19.209,58.725c-15.971,375.479 -163.259,3837.85 -172.142,3986.24c-4.392,73.462 -42.829,52.304 -68.558,28.912c-238.029,-216.766 -480.296,-462.733 -712.779,-713.783c-17.796,-19.229 -29.53,-43.546 -33.921,-69.379c-141.279,-835.133 -321.175,-1275.96 -321.175,-1275.96c-0,0 118.658,617.8 139.25,1039.55c1.183,24.088 -28.863,36 -44.859,17.95c-680.862,-767.475 -1220.78,-1495.87 -1220.78,-1495.87c0,-0 203.417,363.696 539.742,893.754c13.712,21.646 -6.859,48.942 -31.379,41.446c-352.988,-108.204 -747.342,-377.717 -747.342,-377.717c-0,0 330.392,402.571 906.467,578.975c22.387,6.858 41.75,20.85 54.562,40.467c189.421,290.004 408.992,613.05 650.025,944.879c21.338,29.375 -3.75,69.996 -39.492,63.554c-701.866,-126.462 -1496.64,-520.2 -1496.64,-520.2c-0,0 693.062,637.929 1781.42,853.313c38.004,7.525 72.129,28.141 95.829,58.8c151.575,195.995 309.104,391.145 470.871,580.516c29.917,35 45.554,79.884 43.575,125.871l-127.154,2944.64l924.412,-0l-169.75,-3931.7c-2.466,-57.337 17.538,-113.133 55.409,-156.245c182.72,-207.913 360.104,-425.45 529.266,-644.196c21.671,-28.042 52.896,-46.888 87.663,-53.771c979.233,-194.071 1602.76,-768.013 1602.76,-768.013c0,0.001 -748.008,370.58 -1389.77,475.601c-16.712,2.745 -28.037,-16.488 -18.075,-30.146c224.163,-307.105 428.3,-606.784 603.934,-875.396c15.587,-23.829 39.054,-40.829 66.221,-49.354c511.854,-160.459 805.141,-517.809 805.141,-517.809" style="fill:#6b421c;fill-rule:nonzero;"/><path d="M363.492,8307.25c-0,0 -121.196,172.475 -34.871,330.113c86.329,157.633 296.908,148.387 296.908,148.387c0,0 123.638,-168.008 34.896,-330.108c-88.767,-162.075 -296.933,-148.392 -296.933,-148.392" style="fill:#f59e1d;fill-rule:nonzero;"/><path d="M473.342,12330.6c-0,0 -150.213,147.875 -93.621,318.479c56.596,170.6 265.404,199.334 265.404,199.334c0,-0 151.829,-143.076 93.646,-318.48c-58.213,-175.375 -265.429,-199.333 -265.429,-199.333" style="fill:#f59e1d;fill-rule:nonzero;"/><path d="M1658.88,7993.54c0,-0 -99.554,185.804 5.108,331.908c104.688,146.104 312.65,111.567 312.65,111.567c0,-0 102.505,-181.667 -5.137,-331.879c-107.613,-150.238 -312.621,-111.596 -312.621,-111.596" style="fill:#f59e1d;fill-rule:nonzero;"/><path d="M3344.85,8238.54c0,-0 -201.825,-60.829 -324.333,70.666c-122.509,131.521 -47.529,328.542 -47.529,328.542c-0,0 198.358,64.529 324.333,-70.687c125.946,-135.221 47.529,-328.521 47.529,-328.521" style="fill:#f59e1d;fill-rule:nonzero;"/><path d="M3512.86,9377.92c-0.001,-0 -196.405,76.516 -211.813,255.566c-15.408,179.075 165.079,288 165.079,288c0,0 195.996,-71.487 211.813,-255.596c15.845,-184.104 -165.08,-287.97 -165.08,-287.97" style="fill:#f59e1d;fill-rule:nonzero;"/><path d="M5262.21,11768.2c0,0 -187.366,-96.575 -331.775,10.425c-144.412,106.996 -106.562,314.367 -106.562,314.367c-0,0 183.283,99.579 331.779,-10.425c148.467,-110.025 106.558,-314.367 106.558,-314.367" style="fill:#f59e1d;fill-rule:nonzero;"/><path d="M4965.54,13707.6c-0,0 -40.163,-206.908 -213.613,-254.054c-173.425,-47.142 -312.829,110.979 -312.829,110.979c0,0 35.283,205.571 213.587,254.025c178.33,48.479 312.855,-110.95 312.855,-110.95" style="fill:#f59e1d;fill-rule:nonzero;"/><path d="M4210.96,12809c0,-0 -207.654,36.054 -258.241,208.529c-50.559,172.475 104.766,314.983 104.766,314.983c0,0 206.213,-31.196 258.213,-208.525c51.996,-177.329 -104.738,-314.987 -104.738,-314.987" style="fill:#f59e1d;fill-rule:nonzero;"/><path d="M3682.95,11958c-0,0 -175.992,116.038 -153.45,294.342c22.546,178.304 221.879,246.887 221.879,246.887c0,0 176.608,-111.029 153.45,-294.341c-23.187,-183.338 -221.879,-246.888 -221.879,-246.888" style="fill:#f59e1d;fill-rule:nonzero;"/><path d="M3843.41,10791.8c0,-0 -158.841,-138.554 -324.666,-69.175c-165.8,69.383 -178.613,279.783 -178.613,279.783c0,0 154.192,140.504 324.667,69.175c170.446,-71.333 178.612,-279.783 178.612,-279.783" style="fill:#f59e1d;fill-rule:nonzero;"/><path d="M923.425,8469.79c0,-0 -172.217,121.554 -144.025,299.062c28.171,177.509 229.583,239.75 229.583,239.75c0,0 172.992,-116.575 144.025,-299.062c-28.987,-182.517 -229.583,-239.75 -229.583,-239.75" style="fill:#fcd405;fill-rule:nonzero;"/><path d="M-28.717,12170.5c0,0 -186.729,97.805 -182.183,277.471c4.546,179.692 195.971,267.921 195.971,267.921c-0,-0 186.879,-92.75 182.208,-277.471c-4.675,-184.75 -195.996,-267.921 -195.996,-267.921" style="fill:#fcd405;fill-rule:nonzero;"/><path d="M1116.93,12697.4c0,0 -207.217,38.667 -255.617,211.758c-48.379,173.092 108.717,313.65 108.717,313.65c0,0 205.854,-33.816 255.617,-211.758c49.737,-177.971 -108.717,-313.65 -108.717,-313.65" style="fill:#fcd405;fill-rule:nonzero;"/><path d="M4366.58,9178.29c0,-0 -201.616,-61.525 -324.562,69.583c-122.942,131.083 -48.609,328.362 -48.609,328.362c0,0.001 198.155,65.196 324.563,-69.583c126.413,-134.783 48.608,-328.362 48.608,-328.362" style="fill:#fcd405;fill-rule:nonzero;"/><path d="M4374.42,10564.5c-0,0 -15.763,-210.221 -182.513,-277.262c-166.75,-67.046 -323.642,73.745 -323.642,73.745c0,0 11.071,208.321 182.517,277.263c171.45,68.946 323.638,-73.746 323.638,-73.746" style="fill:#fcd405;fill-rule:nonzero;"/><path d="M2997.95,9424.42c0,-0 -190.191,90.921 -192.221,270.637c-2.029,179.717 186.084,274.904 186.084,274.904c-0,0 190.141,-85.866 192.221,-270.641c2.079,-184.8 -186.084,-274.9 -186.084,-274.9" style="fill:#fcd405;fill-rule:nonzero;"/><path d="M4997.88,11271.5c0,-0 -195.738,-78.292 -329.287,41.983c-133.575,120.271 -76.134,323.096 -76.134,323.096c0,-0 191.967,81.683 329.288,-41.979c137.325,-123.663 76.133,-323.1 76.133,-323.1" style="fill:#fcd405;fill-rule:nonzero;"/><path d="M5301.88,13043.4c0,-0 -122.096,-171.834 -299.529,-143.129c-177.429,28.733 -239.054,230.304 -239.054,230.304c-0,-0 117.112,172.654 299.525,143.125c182.437,-29.529 239.058,-230.3 239.058,-230.3" style="fill:#fcd405;fill-rule:nonzero;"/><path d="M2160.86,7429.83c-0,0 -189.809,91.692 -191.067,271.434c-1.283,179.716 187.187,274.108 187.187,274.108c0,0 189.784,-86.637 191.092,-271.438c1.308,-184.774 -187.213,-274.104 -187.213,-274.104" style="fill:#fcd405;fill-rule:nonzero;"/><path d="M150.258,9072.92c0,-0 56.925,202.954 233.613,235.796c176.712,32.841 302.762,-136.117 302.762,-136.117c0,-0 -51.946,-202.029 -233.637,-235.796c-181.667,-33.767 -302.738,136.117 -302.738,136.117" style="fill:#ea5923;fill-rule:nonzero;"/><path d="M191.679,10468.5c0,0 160.434,136.729 325.438,65.425c164.975,-71.279 175.375,-281.808 175.375,-281.808c-0,0 -155.784,-138.737 -325.438,-65.454c-169.625,73.308 -175.375,281.837 -175.375,281.837" style="fill:#ea5923;fill-rule:nonzero;"/><path d="M1481.73,13388.2c0,-0 -180.766,-108.434 -331.75,-10.988c-151.012,97.471 -126.616,306.817 -126.616,306.817c-0,-0 176.504,111.183 331.779,10.992c155.246,-100.221 126.587,-306.821 126.587,-306.821" style="fill:#ea5923;fill-rule:nonzero;"/><path d="M-377.075,15022.2c-0,0 146.746,151.317 317.758,96.058c171.009,-55.283 201.334,-263.862 201.334,-263.862c-0,-0 -141.942,-152.883 -317.759,-96.033c-175.837,56.824 -201.333,263.837 -201.333,263.837" style="fill:#ea5923;fill-rule:nonzero;"/><path d="M1588.53,8619.79c0,-0 -208.862,28.529 -265.633,199.054c-56.8,170.521 93.258,318.579 93.258,318.579c0,0 207.242,-23.725 265.634,-199.054c58.391,-175.325 -93.259,-318.579 -93.259,-318.579" style="fill:#ea5923;fill-rule:nonzero;"/><path d="M2579.13,8151.04c0,-0 -209.4,-24.138 -306.691,126.975c-97.292,151.112 11.375,331.754 11.375,331.754c-0,-0 206.65,28.4 306.691,-126.975c100.038,-155.375 -11.375,-331.754 -11.375,-331.754" style="fill:#ea5923;fill-rule:nonzero;"/><path d="M3421.05,8966.75c0,0 -143.204,-154.679 -315.45,-103.35c-172.241,51.329 -207.396,259.163 -207.396,259.163c0,-0.001 138.35,156.116 315.45,103.35c177.096,-52.767 207.396,-259.163 207.396,-259.163" style="fill:#ea5923;fill-rule:nonzero;"/><path d="M4633.88,9757.96c0,0 -127.537,-167.829 -303.942,-133.396c-176.404,34.409 -231.533,237.851 -231.533,237.851c0,-0.001 122.583,168.804 303.971,133.42c181.358,-35.383 231.504,-237.875 231.504,-237.875" style="fill:#ea5923;fill-rule:nonzero;"/><path d="M4982.38,12723.7c0,0 -43.446,-206.241 -217.587,-250.637c-174.171,-44.371 -311.034,115.933 -311.034,115.933c0,0 38.517,204.984 217.592,250.613c179.05,45.654 311.029,-115.909 311.029,-115.909" style="fill:#ea5923;fill-rule:nonzero;"/><path d="M4288.75,14196.5c0,0 29.787,-208.654 -118.654,-309.975c-148.442,-101.325 -331.933,2.438 -331.933,2.438c-0,-0 -33.971,205.804 118.654,309.979c152.629,104.171 331.933,-2.442 331.933,-2.442" style="fill:#ea5923;fill-rule:nonzero;"/><path d="M4122,11400.7c0,-0 -176.175,115.754 -153.912,294.083c22.262,178.329 221.47,247.221 221.47,247.221c0.001,-0 176.788,-110.721 153.909,-294.083c-22.879,-183.338 -221.467,-247.221 -221.467,-247.221" style="fill:#ea5923;fill-rule:nonzero;"/><path d="M-114.992,9589.88c0,0 38.413,207.267 211.43,255.875c173.037,48.608 313.775,-108.308 313.775,-108.308c-0.001,-0 -33.534,-205.884 -211.426,-255.875c-177.895,-49.996 -313.779,108.308 -313.779,108.308" style="fill:#f59e1d;fill-rule:nonzero;"/></g><g><path d="M23746.5,1202.98c2.358,-9.954 -3.8,-19.942 -13.737,-22.3c-9.955,-2.375 -19.959,3.8 -22.317,13.738c-0.533,2.212 -50.3,209.383 -130.504,364.371c-116.438,25.62 -181.817,111.245 -185.242,115.854c-6.121,8.187 -4.433,19.8 3.767,25.916c3.683,2.746 8.05,3.921 12.304,3.638c5.208,-0.35 10.254,-2.875 13.625,-7.404c0.608,-0.813 40.871,-53.596 113.3,-85.088c-40.638,43.459 -64.317,94.592 -65.917,98.125c-4.221,9.304 -0.112,20.279 9.184,24.517c2.895,1.304 5.937,1.825 8.9,1.629c6.575,-0.437 12.716,-4.383 15.65,-10.796c0.566,-1.241 56.783,-122.166 136.679,-136.358c12.587,-0.238 25.633,0.312 39.179,1.937c10.054,1.305 19.392,-6 20.612,-16.17c1.221,-10.142 -6.016,-19.375 -16.17,-20.596c-13.534,-1.642 -26.584,-2.317 -39.25,-2.317c-2.067,-0.433 -4.234,-0.583 -6.48,-0.246c-0.537,0.079 -1.05,0.209 -1.587,0.288c-4.696,0.112 -9.325,0.362 -13.9,0.683c75.121,-154.637 119.821,-340.671 121.904,-349.421" style="fill:#714b39;fill-rule:nonzero;"/><path d="M23497.5,1089.71c2.362,-9.954 -3.8,-19.941 -13.737,-22.304c-9.955,-2.375 -19.959,3.8 -22.317,13.742c-0.533,2.208 -50.3,209.383 -130.504,364.371c-116.438,25.621 -181.817,111.246 -185.242,115.854c-6.117,8.183 -4.433,19.796 3.767,25.917c3.687,2.745 8.054,3.92 12.308,3.637c5.204,-0.35 10.25,-2.875 13.621,-7.404c0.608,-0.813 40.871,-53.596 113.304,-85.088c-40.637,43.455 -64.317,94.592 -65.917,98.121c-4.225,9.309 -0.112,20.284 9.196,24.521c2.879,1.304 5.921,1.825 8.888,1.629c6.571,-0.441 12.712,-4.383 15.646,-10.796c0.566,-1.241 56.783,-122.17 136.679,-136.358c12.591,-0.237 25.633,0.313 39.179,1.938c10.054,1.304 19.396,-6 20.612,-16.171c1.221,-10.142 -6.012,-19.379 -16.17,-20.596c-13.53,-1.646 -26.584,-2.317 -39.25,-2.321c-2.063,-0.429 -4.234,-0.579 -6.48,-0.246c-0.533,0.084 -1.05,0.209 -1.583,0.292c-4.7,0.112 -9.325,0.362 -13.904,0.683c75.121,-154.637 119.821,-340.675 121.904,-349.421" style="fill:#714b39;fill-rule:nonzero;"/><path d="M24496,52.158c-11.4,-16.87 -1.466,-40.941 -9.816,-59.512c-1.234,-2.725 -3.067,-5.475 -5.921,-6.396c-3.579,-1.179 -7.363,0.879 -10.575,2.883c-13.542,8.4 -27.096,16.805 -40.638,25.205c-2.545,-13.867 5.084,-27.413 6.959,-41.392c1.887,-13.983 -7.842,-32.154 -21.467,-28.529c-4.987,1.333 -8.779,5.337 -11.883,9.446c-18.059,23.916 -21.879,56.354 -40.25,80.029c-3.438,4.441 -7.688,8.704 -13.175,9.95c-15.163,3.466 -24.554,-17.692 -20.996,-32.85c3.554,-15.154 13.467,-29.363 11.542,-44.817c-0.746,-6.092 -3.963,-12.446 -9.763,-14.467c-4.8,-1.67 -10.175,0.063 -14.504,2.725c-11.275,6.955 -17.658,19.492 -23.163,31.571c-53.958,336.492 -203.216,575.913 -203.216,575.913l77.166,69.508c160.513,-129.508 291.442,-378.383 374.388,-568.517c-1.963,0.642 -3.883,1.417 -5.908,1.846c-14.113,3.054 -30.696,-0.637 -38.78,-12.596" style="fill:#fcd305;fill-rule:nonzero;"/><path d="M24311.6,-241.196c-0.45,79.267 -7.725,155.396 -19.241,227.196c5.487,-12.075 11.871,-24.612 23.166,-31.571c4.325,-2.662 9.688,-4.396 14.488,-2.725c5.796,2.021 9.012,8.379 9.775,14.467c1.925,15.454 -8,29.662 -11.554,44.833c-3.559,15.159 5.833,36.317 21.012,32.834c5.471,-1.242 9.721,-5.509 13.158,-9.95c18.371,-23.659 22.209,-56.096 40.25,-80.013c3.105,-4.125 6.909,-8.125 11.884,-9.446c13.625,-3.641 23.354,14.546 21.479,28.513c-1.875,13.979 -9.5,27.525 -6.971,41.396c13.554,-8.405 27.096,-16.805 40.65,-25.209c3.217,-1.987 6.984,-4.058 10.579,-2.879c2.838,0.933 4.671,3.667 5.905,6.408c8.366,18.571 -1.584,42.625 9.833,59.496c8.079,11.959 24.662,15.65 38.762,12.613c2.038,-0.446 3.963,-1.209 5.925,-1.863c62.596,-143.479 97.88,-253.521 97.88,-253.521l-326.98,-50.579Z" style="fill:#714b39;fill-rule:nonzero;"/><path d="M22613.6,568.738c118.067,-292.063 554.05,-337.546 844.634,-186.459c290.591,151.071 626.708,211.379 775.312,102.767c0,-0 -48.242,800.587 -661.45,896.637c-499.125,78.192 -1169.18,-291.733 -958.496,-812.945" style="fill:#fcd305;fill-rule:nonzero;"/><path d="M22601.2,918.342c-0,-0 -38.863,117.962 -20.555,238.054c0,-0 121.476,-160.013 164.488,-202.134c-0,0 -131.708,3.038 -143.933,-35.92" style="fill:#9c5727;fill-rule:nonzero;"/><path d="M22941.3,878.642c5.521,25.6 -7.941,50.208 -30.041,54.971c-22.113,4.762 -44.5,-12.134 -50.021,-37.73c-5.504,-25.6 7.942,-50.208 30.058,-54.971c22.1,-4.762 44.488,12.134 50.004,37.73" style="fill:#6f3830;fill-rule:nonzero;"/><path d="M23827.5,859.612c314.129,-98.924 362.221,-450.5 366.592,-620.62c-290.192,195.262 -905.15,-8.588 -968.8,375.02c57.321,163.771 265.275,351.705 602.208,245.6" style="fill:#ec6a24;fill-rule:nonzero;"/><path d="M24248.3,493.504c99.662,-94.562 17.775,-320.146 17.775,-320.146c-20.675,25.892 -44.954,47.446 -71.975,65.634c-4.367,170.125 -52.459,521.7 -366.588,620.621c-336.933,106.108 -544.887,-81.83 -602.212,-245.613c-0.221,1.313 -0.509,2.533 -0.717,3.842c-49.392,319.621 430.712,410.895 585.187,366.629c236.417,-67.742 217.625,-185.221 217.625,-185.221c124.184,7.942 154.609,-131.892 154.609,-131.892c103.296,-24.02 66.296,-173.854 66.296,-173.854" style="fill:#714b39;fill-rule:nonzero;"/><path d="M23584.2,454.8c161.95,-1.6 315.913,-18.154 468.304,-76.058c22.584,-8.588 -6.237,-20.659 -19.329,-15.684c-146.521,55.696 -294.087,71.221 -449.7,72.75c-22.312,0.225 -21.554,19.213 0.725,18.992" style="fill:#f5b383;fill-rule:nonzero;"/><path d="M23560.2,518.579c150.517,20.117 327.838,33.892 467.496,-37.079c18.263,-9.288 -16.175,-17.617 -26.691,-12.271c-127.792,64.95 -293.905,49.284 -431.655,30.859c-17.546,-2.346 -33.871,15.191 -9.15,18.491" style="fill:#f5b383;fill-rule:nonzero;"/><path d="M23525.6,603.083c135.771,45.6 276.03,50.25 414.605,14.217c23.187,-6.037 -6.675,-18.192 -19.28,-14.912c-123.258,32.062 -248.92,27.441 -369.633,-13.1c-10.512,-3.525 -44.617,7.437 -25.692,13.795" style="fill:#f5b383;fill-rule:nonzero;"/><path d="M23447.4,679.188c61.896,50.837 136.925,66.104 215.013,72.491c70.879,5.809 143.704,10.929 209.72,-19.779c17.329,-8.071 -17.887,-13.525 -26.579,-9.475c-101.275,47.121 -281.758,17.633 -366.475,-51.942c-7.558,-6.204 -42.683,-0.345 -31.679,8.705" style="fill:#f5b383;fill-rule:nonzero;"/><path d="M23353.7,615.413c8.125,8.279 16.255,16.562 24.384,24.845c11.091,11.309 31.179,12.034 45.966,9.35c7.242,-1.316 16.28,-2.966 21.842,-8.154c3.05,-2.841 7.333,-8.233 3.263,-12.387c-8.13,-8.284 -16.259,-16.567 -24.371,-24.85c-11.104,-11.309 -31.196,-12.017 -45.984,-9.35c-7.237,1.316 -16.279,2.966 -21.841,8.154c-3.046,2.858 -7.334,8.233 -3.259,12.392" style="fill:#f5b383;fill-rule:nonzero;"/><path d="M23421,577.275c8.492,4.075 17.005,8.15 25.5,12.213c6.517,3.129 16.934,2.912 23.734,1.287c6.137,-1.462 14.25,-5.179 17.954,-10.704c3.3,-4.925 5.275,-11.15 2.454,-16.888c-3.104,-6.304 -8.425,-9.512 -14.608,-12.462c-8.496,-4.075 -17.009,-8.154 -25.5,-12.213c-6.521,-3.129 -16.934,-2.912 -23.738,-1.287c-6.137,1.458 -14.25,5.179 -17.954,10.7c-3.296,4.929 -5.275,11.154 -2.454,16.892c3.108,6.299 8.442,9.508 14.612,12.462" style="fill:#f5b383;fill-rule:nonzero;"/><path d="M23521.8,494.454c-0.171,-4.633 -9.558,-10.316 -12.633,-11.1c-4.742,-1.208 -38.804,-9.704 -44.825,-9.996c-9.162,-0.454 -21.037,-0.37 -28.246,3.505c-7.296,3.929 -12.679,15.07 0.475,23.495c17.258,11.038 55.642,12.409 68.088,10.746c12.45,-1.65 17.316,-12.158 17.141,-16.65" style="fill:#f5b383;fill-rule:nonzero;"/><path d="M23511.2,418.588c-4.358,-0.555 -8.679,-1.255 -12.992,-2.046c-0.279,-0.059 -0.358,-0.071 -0.558,-0.105c-0.288,-0.087 -0.492,-0.149 -0.946,-0.275c-2.108,-0.583 -4.237,-1.091 -6.358,-1.675c-7.279,-2.029 -15.196,-2.487 -22.621,-0.925c-5.55,1.171 -13.475,4.046 -17.183,8.796c-8.175,10.484 0.345,20.7 11.429,23.784c11.458,3.171 23.179,5.629 34.971,7.125c7.254,0.933 15.671,0.125 22.487,-2.642c4.538,-1.846 11.413,-5.883 13.054,-11.088c4.059,-12.95 -10.983,-19.629 -21.283,-20.95" style="fill:#f5b383;fill-rule:nonzero;"/><path d="M23062.1,1205.88c18.23,-6.308 36.975,-10.925 56.188,-12.992c7.825,-0.845 18.192,-4.825 17.987,-14.345c-0.2,-8.78 -11.5,-13.734 -19.037,-12.925c-22.55,2.416 -44.542,6.925 -65.988,14.341c-7.387,2.559 -15.646,8.25 -12.283,17.267c2.987,8.025 15.746,11.212 23.133,8.654" style="fill:#fdec59;fill-rule:nonzero;"/><path d="M23211.5,1200.53c8.592,-0.221 16.85,2.375 24.521,6.109c7.575,3.691 17.392,3.529 25.413,1.45c3.441,-0.909 13.921,-5.742 6.296,-9.459c-17.892,-8.729 -36.905,-12.058 -56.742,-11.566c-3.958,0.112 -18.5,1.158 -18.263,7.454c0.246,6.262 15.388,6.1 18.775,6.012" style="fill:#fdec59;fill-rule:nonzero;"/><path d="M23129.2,1251.44c14.321,1.9 28.458,4.566 42.425,8.325c8.154,2.2 18.3,2.57 26.179,-1.009c5.867,-2.658 6.954,-7.637 -0.379,-9.6c-16.467,-4.441 -33.083,-7.929 -49.987,-10.167c-7.317,-0.975 -19.163,-1.866 -25.23,3.4c-5.833,5.08 2.15,8.417 6.992,9.05" style="fill:#fdec59;fill-rule:nonzero;"/><path d="M23195.5,1315.96c17.075,7.345 35.413,9.379 53.817,7.487c7.279,-0.762 19.075,-3.867 23.154,-10.679c4.084,-6.813 -4.458,-7.863 -9.529,-7.342c-13.821,1.434 -26.858,-1.321 -39.55,-6.787c-7.129,-3.071 -18.833,1.891 -24.842,5.687c-4.575,2.884 -10.341,8.496 -3.05,11.634" style="fill:#fdec59;fill-rule:nonzero;"/><path d="M23290.1,1272.79c13.017,1.087 26.033,2.179 39.054,3.27c6.404,0.542 19.5,-0.004 22.517,-7.275c3.071,-7.362 -8.483,-10.37 -13.354,-10.77c-13.017,-1.092 -26.034,-2.18 -39.05,-3.271c-6.409,-0.546 -19.504,0.004 -22.521,7.271c-3.071,7.366 8.483,10.358 13.354,10.775" style="fill:#fdec59;fill-rule:nonzero;"/><path d="M23425.8,1353.13l39.546,-5.216c6.546,-0.867 15.883,-7.309 12.367,-14.88c-3.8,-8.216 -15.717,-8.254 -23.071,-7.287c-13.184,1.746 -26.367,3.487 -39.55,5.217c-6.559,0.87 -15.896,7.308 -12.384,14.883c3.821,8.212 15.734,8.254 23.092,7.283" style="fill:#fdec59;fill-rule:nonzero;"/><path d="M23434.7,1215.61c14.412,3.283 28.825,6.55 43.237,9.829c7.221,1.633 19.508,1.737 25.209,-3.934c5.775,-5.754 -1.609,-9.812 -7.08,-11.054c-14.408,-3.266 -28.82,-6.546 -43.22,-9.812c-7.238,-1.646 -19.509,-1.755 -25.221,3.937c-5.775,5.754 1.608,9.796 7.075,11.034" style="fill:#fdec59;fill-rule:nonzero;"/><path d="M23434.6,1279.12c18.067,6.446 36.48,10.479 55.555,12.429c5.9,0.596 19.604,0.175 22.554,-6.471c3.1,-6.967 -9.267,-8.95 -13.305,-9.358c-13.408,-1.371 -26.366,-4.409 -39.058,-8.934c-7.904,-2.82 -18.587,-2.97 -26.175,1.009c-6.112,3.2 -6.791,8.754 0.429,11.325" style="fill:#fdec59;fill-rule:nonzero;"/><path d="M23646.9,1312.66c8.254,-2.801 16.504,-5.605 24.741,-8.421c4.888,-1.654 12.871,-6.646 6.209,-11.663c-6.35,-4.791 -18.317,-4.454 -25.434,-2.021c-8.254,2.804 -16.504,5.605 -24.758,8.409c-4.871,1.666 -12.871,6.662 -6.196,11.675c6.354,4.779 18.304,4.441 25.438,2.021" style="fill:#fdec59;fill-rule:nonzero;"/><path d="M23580,1251.85c13.287,1.904 26.575,3.825 39.862,5.729c7.896,1.142 19.534,-1.379 22.413,-9.996c2.871,-8.554 -6.309,-14.529 -13.538,-15.571c-13.287,-1.908 -26.575,-3.812 -39.862,-5.733c-7.896,-1.125 -19.529,1.396 -22.429,9.996c-2.867,8.571 6.325,14.529 13.554,15.575" style="fill:#fdec59;fill-rule:nonzero;"/><path d="M23765.5,1264.7l59.342,-21.192c6.796,-2.429 16.25,-9.233 13.537,-17.691c-2.666,-8.321 -15.1,-8.034 -21.516,-5.738c-19.788,7.059 -39.571,14.134 -59.342,21.196c-6.813,2.429 -16.246,9.229 -13.554,17.688c2.671,8.325 15.1,8.033 21.533,5.737" style="fill:#fdec59;fill-rule:nonzero;"/></g><g><path d="M29450.1,1426.83c-0.45,-10.221 7.475,-18.871 17.683,-19.325c10.225,-0.462 18.888,7.479 19.338,17.688c0.108,2.271 10.087,215.104 59.758,382.396c109.554,47.033 157.688,143.408 160.188,148.579c4.475,9.187 0.637,20.279 -8.567,24.746c-4.133,2.008 -8.646,2.341 -12.771,1.262c-5.05,-1.321 -9.529,-4.75 -11.987,-9.829c-0.446,-0.913 -30.08,-60.317 -95.309,-104.854c31.754,50.316 45.409,104.987 46.317,108.758c2.4,9.933 -3.7,19.942 -13.621,22.358c-3.092,0.738 -6.179,0.68 -9.05,-0.07c-6.375,-1.667 -11.667,-6.692 -13.346,-13.542c-0.321,-1.325 -32.829,-130.659 -108.641,-159.6c-12.317,-2.596 -25.234,-4.508 -38.842,-5.454c-10.121,-0.609 -17.921,-9.534 -17.208,-19.755c0.704,-10.191 9.546,-17.904 19.75,-17.195c13.6,0.929 26.541,2.721 38.983,5.096c2.112,-0.038 4.271,0.224 6.412,0.975c0.513,0.179 0.996,0.404 1.505,0.583c4.591,0.991 9.091,2.104 13.525,3.279c-44.746,-165.992 -53.713,-357.113 -54.117,-366.096" style="fill:#714b39;fill-rule:nonzero;"/><path d="M29716,1362.33c-0.45,-10.216 7.475,-18.87 17.679,-19.325c10.225,-0.462 18.892,7.484 19.342,17.688c0.108,2.271 10.083,215.104 59.754,382.396c109.554,47.033 157.692,143.408 160.192,148.579c4.471,9.187 0.637,20.279 -8.567,24.75c-4.137,2.004 -8.646,2.337 -12.771,1.258c-5.05,-1.316 -9.533,-4.75 -11.991,-9.829c-0.446,-0.912 -30.08,-60.317 -95.309,-104.85c31.754,50.313 45.409,104.987 46.317,108.754c2.404,9.938 -3.696,19.942 -13.633,22.359c-3.075,0.737 -6.163,0.679 -9.038,-0.071c-6.375,-1.667 -11.662,-6.692 -13.342,-13.542c-0.32,-1.325 -32.829,-130.658 -108.641,-159.6c-12.321,-2.596 -25.234,-4.508 -38.846,-5.454c-10.117,-0.609 -17.921,-9.534 -17.208,-19.754c0.708,-10.188 9.545,-17.905 19.75,-17.192c13.6,0.925 26.545,2.717 38.987,5.092c2.108,-0.038 4.271,0.225 6.413,0.975c0.508,0.183 0.991,0.404 1.5,0.583c4.595,0.996 9.095,2.104 13.529,3.279c-44.746,-165.987 -53.713,-357.108 -54.117,-366.096" style="fill:#714b39;fill-rule:nonzero;"/><path d="M28930.1,155.742c14.367,-14.434 9.129,-39.938 20.817,-56.613c1.725,-2.446 4.041,-4.8 7.016,-5.166c3.738,-0.488 7.067,2.241 9.846,4.816c11.725,10.792 23.459,21.592 35.184,32.388c5.104,-13.146 0.154,-27.884 0.937,-41.967c0.771,-14.087 13.738,-30.108 26.442,-23.987c4.65,2.245 7.621,6.891 9.896,11.508c13.25,26.883 10.908,59.462 24.504,86.162c2.546,5.009 5.921,9.996 11.075,12.25c14.246,6.25 27.437,-12.766 26.791,-28.32c-0.645,-15.555 -7.712,-31.371 -2.92,-46.188c1.879,-5.842 6.233,-11.483 12.304,-12.379c5.029,-0.738 9.987,1.971 13.737,5.404c9.767,8.946 13.683,22.458 16.821,35.354c-10.192,340.642 91.446,603.834 91.446,603.834l-88.846,53.774c-133.333,-157.345 -215.196,-426.379 -260.963,-628.708c1.809,1 3.551,2.121 5.459,2.925c13.287,5.65 30.271,5.138 40.454,-5.087" style="fill:#fcd305;fill-rule:nonzero;"/><path d="M29166.3,-97.767c-14.445,77.942 -21.595,154.084 -23.766,226.767c-3.125,-12.892 -7.038,-26.404 -16.825,-35.354c-3.75,-3.433 -8.688,-6.138 -13.721,-5.4c-6.071,0.896 -10.425,6.533 -12.317,12.375c-4.791,14.817 2.292,30.637 2.934,46.204c0.645,15.554 -12.55,34.575 -26.809,28.304c-5.137,-2.25 -8.512,-7.237 -11.054,-12.246c-13.6,-26.687 -11.279,-59.27 -24.508,-86.145c-2.275,-4.638 -5.263,-9.284 -9.896,-11.513c-12.7,-6.133 -25.675,9.904 -26.454,23.971c-0.784,14.083 4.166,28.821 -0.925,41.971c-11.738,-10.8 -23.459,-21.596 -35.196,-32.396c-2.783,-2.554 -6.092,-5.296 -9.846,-4.813c-2.967,0.384 -5.279,2.725 -7.004,5.184c-11.708,16.671 -6.45,42.166 -20.833,56.596c-10.18,10.225 -27.163,10.737 -40.442,5.104c-1.917,-0.821 -3.663,-1.929 -5.467,-2.942c-34.541,-152.679 -48.529,-267.392 -48.529,-267.392l330.658,11.725Z" style="fill:#714b39;fill-rule:nonzero;"/><path d="M30682,1016.63c-61.117,-309.037 -480.805,-435.587 -794.588,-341.758c-313.796,93.812 -655.254,89.929 -780.821,-44.659c0,0 -102.962,795.405 481.3,1004.9c475.563,170.533 1203.17,-66.98 1094.11,-618.484" style="fill:#fcd305;fill-rule:nonzero;"/><path d="M30628.5,1362.35c-0,-0 16.012,123.162 -24.517,237.675c0,-0 -89.271,-179.975 -123.604,-229.425c-0,-0 128.796,27.716 148.121,-8.25" style="fill:#9c5727;fill-rule:nonzero;"/><path d="M30301.9,1259.47c-10.229,24.108 -1.629,50.808 19.183,59.633c20.825,8.833 45.988,-3.558 56.217,-27.667c10.213,-24.108 1.629,-50.804 -19.2,-59.633c-20.812,-8.829 -45.975,3.563 -56.2,27.667" style="fill:#6f3830;fill-rule:nonzero;"/><path d="M29435.1,1074.36c-289.966,-156.155 -271.179,-510.509 -243.52,-678.426c248.358,246.288 890.658,161.55 881.137,550.288c-87.058,150.087 -326.604,295.629 -637.617,128.137" style="fill:#ec6a24;fill-rule:nonzero;"/><path d="M29090.5,635.746c-80.133,-111.596 42.663,-317.788 42.663,-317.788c15.441,29.317 35.241,55.046 58.366,77.984c-27.658,167.916 -46.446,522.266 243.521,678.425c311.012,167.491 550.558,21.95 637.621,-128.154c-0.029,1.329 0.025,2.583 -0.021,3.908c-11.508,323.204 -500.208,322.696 -643.621,250.208c-219.492,-110.933 -178.971,-222.791 -178.971,-222.791c-123.466,-15.521 -127.091,-158.58 -127.091,-158.58c-96.946,-42.991 -32.467,-183.212 -32.467,-183.212" style="fill:#714b39;fill-rule:nonzero;"/><path d="M29750,722.433c-158.771,-31.983 -306.884,-77.154 -445.688,-162.645c-20.571,-12.68 10.004,-19.121 21.929,-11.775c133.454,82.22 275.479,125.179 428.038,155.908c21.871,4.408 17.558,22.917 -4.279,18.512" style="fill:#f5b383;fill-rule:nonzero;"/><path d="M29761.6,789.592c-151.617,-8.509 -328.375,-28.275 -452.217,-124.213c-16.191,-12.55 19.196,-14.266 28.525,-7.041c113.321,87.791 279.417,103.6 418.175,111.37c17.675,0.992 30.417,21.28 5.517,19.884" style="fill:#f5b383;fill-rule:nonzero;"/><path d="M29779.8,879.096c-141.921,19.292 -280.554,-2.483 -409.9,-63.896c-21.642,-10.288 9.97,-16.617 21.733,-11.029c115.046,54.637 239.338,73.7 365.521,56.55c10.983,-1.492 42.425,15.679 22.646,18.375" style="fill:#f5b383;fill-rule:nonzero;"/><path d="M29842.3,968.533c-70.341,38.309 -146.9,39.213 -224.8,30.825c-70.708,-7.604 -143.2,-16.25 -202.275,-58.812c-15.504,-11.179 20.109,-9.925 27.888,-4.313c90.621,65.3 273.433,70.229 369.708,17.804c8.588,-4.679 41.988,7.676 29.479,14.496" style="fill:#f5b383;fill-rule:nonzero;"/><path d="M29946.3,923.483c-9.538,6.609 -19.079,13.221 -28.617,19.829c-13.017,9.025 -32.888,5.963 -46.904,0.551c-6.867,-2.651 -15.434,-5.971 -19.925,-12.109c-2.459,-3.362 -5.654,-9.466 -0.875,-12.783c9.537,-6.609 19.079,-13.217 28.6,-19.829c13.033,-9.021 32.9,-5.946 46.921,-0.55c6.866,2.654 15.433,5.975 19.925,12.112c2.458,3.379 5.654,9.463 0.875,12.779" style="fill:#f5b383;fill-rule:nonzero;"/><path d="M29887.4,873.392c-9.108,2.408 -18.233,4.812 -27.337,7.208c-6.992,1.85 -17.184,-0.321 -23.559,-3.196c-5.754,-2.583 -13.025,-7.762 -15.625,-13.883c-2.312,-5.454 -3.083,-11.942 0.763,-17.046c4.233,-5.608 10.062,-7.762 16.691,-9.5c9.109,-2.408 18.234,-4.812 27.338,-7.208c6.992,-1.846 17.179,0.321 23.558,3.196c5.75,2.587 13.021,7.762 15.625,13.883c2.313,5.458 3.084,11.946 -0.762,17.05c-4.234,5.608 -10.079,7.754 -16.692,9.496" style="fill:#f5b383;fill-rule:nonzero;"/><path d="M29803.9,773.1c1.038,-4.517 11.325,-8.337 14.496,-8.525c4.883,-0.3 39.933,-2.25 45.9,-1.404c9.087,1.275 20.733,3.587 27.087,8.746c6.43,5.229 9.625,17.183 -4.875,22.991c-19.029,7.596 -56.987,1.738 -68.9,-2.233c-11.916,-3.958 -14.725,-15.192 -13.708,-19.575" style="fill:#f5b383;fill-rule:nonzero;"/><path d="M29828.5,700.579c4.388,0.267 8.763,0.392 13.146,0.425c0.287,-0.004 0.362,0 0.571,0.004c0.291,-0.033 0.508,-0.058 0.979,-0.091c2.179,-0.179 4.366,-0.275 6.558,-0.45c7.533,-0.625 15.392,0.408 22.392,3.333c5.233,2.196 12.475,6.508 15.225,11.871c6.058,11.829 -4.225,20.262 -15.692,21.212c-11.85,0.963 -23.821,1.175 -35.687,0.43c-7.3,-0.442 -15.413,-2.817 -21.592,-6.817c-4.108,-2.663 -10.1,-7.921 -10.737,-13.338c-1.555,-13.483 14.475,-17.22 24.837,-16.579" style="fill:#f5b383;fill-rule:nonzero;"/><path d="M30121.8,1558.2c-16.72,-9.621 -34.266,-17.671 -52.746,-23.312c-7.529,-2.3 -16.962,-8.155 -14.975,-17.467c1.846,-8.587 13.875,-11.333 21.125,-9.121c21.696,6.609 42.45,15.167 62.121,26.479c6.775,3.9 13.821,11.042 8.821,19.267c-4.442,7.317 -17.567,8.058 -24.346,4.154" style="fill:#fdec59;fill-rule:nonzero;"/><path d="M29976.2,1524.9c-8.4,-1.829 -17,-0.829 -25.234,1.396c-8.133,2.204 -17.745,0.2 -25.233,-3.346c-3.212,-1.537 -12.592,-8.254 -4.408,-10.475c19.212,-5.212 38.512,-4.912 57.908,-0.704c3.867,0.854 17.95,4.612 16.538,10.75c-1.421,6.104 -16.259,3.104 -19.571,2.379" style="fill:#fdec59;fill-rule:nonzero;"/><path d="M30047.3,1590.35c-14.425,-0.825 -28.812,-0.863 -43.237,0.208c-8.421,0.629 -18.459,-0.908 -25.521,-5.904c-5.267,-3.717 -5.4,-8.808 2.175,-9.362c17.004,-1.267 33.983,-1.575 51.004,-0.596c7.371,0.416 19.175,1.766 24.146,8.075c4.771,6.083 -3.696,7.866 -8.567,7.579" style="fill:#fdec59;fill-rule:nonzero;"/><path d="M29970.2,1641.29c-18.15,4.008 -36.546,2.558 -54.267,-2.755c-7.004,-2.116 -18.008,-7.379 -20.737,-14.837c-2.73,-7.458 5.858,-6.888 10.741,-5.421c13.304,4.004 26.625,3.742 40.117,0.763c7.583,-1.68 18.146,5.391 23.337,10.25c3.95,3.687 8.559,10.287 0.809,12" style="fill:#fdec59;fill-rule:nonzero;"/><path d="M29885.3,1581.1c-12.992,-1.375 -25.984,-2.746 -38.971,-4.121c-6.396,-0.666 -19.154,-3.666 -20.754,-11.37c-1.634,-7.809 10.283,-8.596 15.141,-8.075c12.992,1.375 25.98,2.75 38.971,4.12c6.396,0.671 19.154,3.667 20.75,11.371c1.638,7.813 -10.275,8.583 -15.137,8.075" style="fill:#fdec59;fill-rule:nonzero;"/><path d="M29737,1634.55l-37.862,-12.55c-6.267,-2.083 -14.23,-10.163 -9.355,-16.938c5.28,-7.358 16.988,-5.158 24.03,-2.824c12.62,4.191 25.241,8.379 37.866,12.55c6.279,2.087 14.242,10.166 9.367,16.941c-5.292,7.354 -17,5.154 -24.046,2.821" style="fill:#fdec59;fill-rule:nonzero;"/><path d="M29754.1,1497.8c-14.775,0.517 -29.541,1.017 -44.312,1.534c-7.4,0.245 -19.492,-1.959 -24.025,-8.601c-4.588,-6.733 3.425,-9.333 9.029,-9.524c14.771,-0.501 29.542,-1.017 44.296,-1.521c7.417,-0.259 19.492,1.941 24.037,8.604c4.588,6.733 -3.425,9.316 -9.025,9.508" style="fill:#fdec59;fill-rule:nonzero;"/><path d="M29742.2,1560.2c-18.954,2.937 -37.796,3.442 -56.9,1.775c-5.908,-0.525 -19.287,-3.513 -20.937,-10.592c-1.738,-7.425 10.783,-7.05 14.829,-6.691c13.425,1.166 26.725,0.616 40.038,-1.442c8.291,-1.283 18.816,0.575 25.52,5.904c5.405,4.292 5.03,9.875 -2.55,11.046" style="fill:#fdec59;fill-rule:nonzero;"/><path d="M29527.4,1553.27c-7.579,-4.304 -15.158,-8.609 -22.717,-12.921c-4.491,-2.542 -11.395,-8.942 -3.912,-12.621c7.141,-3.512 18.829,-0.933 25.367,2.792c7.579,4.304 15.154,8.608 22.733,12.908c4.475,2.554 11.392,8.958 3.892,12.633c-7.134,3.496 -18.809,0.925 -25.363,-2.791" style="fill:#fdec59;fill-rule:nonzero;"/><path d="M29604.5,1506.09c-13.408,-0.621 -26.821,-1.23 -40.229,-1.854c-7.971,-0.367 -18.925,-5.025 -20.137,-14.03c-1.213,-8.937 8.925,-13.083 16.22,-12.754c13.409,0.625 26.817,1.246 40.23,1.854c7.966,0.379 18.92,5.042 20.15,14.034c1.208,8.954 -8.938,13.083 -16.234,12.75" style="fill:#fdec59;fill-rule:nonzero;"/><path d="M29419.9,1483.89l-54.305,-31.963c-6.22,-3.662 -14.225,-12.116 -9.975,-19.916c4.184,-7.671 16.338,-5.055 22.213,-1.596c18.108,10.65 36.212,21.316 54.304,31.962c6.233,3.667 14.225,12.117 9.992,19.921c-4.188,7.671 -16.342,5.054 -22.229,1.592" style="fill:#fdec59;fill-rule:nonzero;"/></g><g><path d="M19943.4,1684.49c-97.921,49.041 -192.117,108.154 -288.458,161.596c-50.263,-13.334 -107.509,5.045 -151.288,-25.771c-21.383,-15.059 -185.929,-93.646 -207.312,-108.688c-25.242,-17.783 -48.417,-34.908 -70.163,-51.625c51.675,-17.346 102.484,-37.712 153.092,-58.408c181.962,62.858 373.375,97.717 564.129,82.896" style="fill:#e3b523;fill-rule:nonzero;"/><path d="M20044.6,1671.91c129.229,-22.5 256.058,-62.262 378.046,-111.366c-72.821,124.308 -171.058,261.462 -293.533,383.141c-118.513,8.504 -237.021,17.013 -355.534,25.521c14.1,-51.908 -45.937,-89.054 -94.571,-113.683c106.95,-59.713 211.454,-125.938 321.567,-177c14.679,-1.925 29.362,-4.059 44.025,-6.613" style="fill:#e3b523;fill-rule:nonzero;"/><path d="M19352.4,1592.11c-47.429,19.333 -95.075,38.245 -143.487,54.445c-114.375,-89.995 -190,-169.666 -320.813,-275.362c4.371,-5.233 9.15,-10.479 13.85,-15.729c63.533,47.004 128.083,90.637 198.967,126.737c80.829,41.175 165.029,78.604 251.483,109.909" style="fill:#e3b523;fill-rule:nonzero;"/><path d="M20291.2,1778.39c-27.216,51.487 -53.116,103.641 -74.187,157.979c-7.6,19.6 -14.604,39.5 -21.904,59.192c-14.917,-2.192 -29.629,-5.371 -44.013,-9.775c7.163,-15.071 14.321,-30.163 21.484,-45.234c-8.417,0.613 -16.83,1.209 -25.242,1.817c50.654,-51.938 98.267,-107.058 143.862,-163.979" style="fill:#e3b523;fill-rule:nonzero;"/><path d="M19347.4,1205.9c103.767,73.354 223.517,86.279 333.392,140.038c15.512,15.008 31.275,29.891 47.566,44.558c45.688,41.112 93.084,82.304 143.08,118.071c46.187,33.046 99.975,72.433 150.941,97.579c22.784,11.25 46.05,21.479 69.738,30.679c-42.475,9.571 -85.309,17.438 -128.521,23.075c-123.038,16.075 -244.654,10.092 -364.729,-13.487c-168.271,-127.017 -292.267,-329.605 -440.138,-476.613c-4.842,-4.825 -9.871,-9.496 -14.837,-14.225c28.233,-18.617 56.654,-36.321 84.666,-52.675c38.354,37.775 78.075,74.183 118.842,103" style="fill:#e3b523;fill-rule:nonzero;"/><path d="M20328.8,1730.61c47.817,-61.983 93.708,-125.5 139.033,-188.766c8.65,-3.667 17.346,-7.238 25.917,-11c81.817,-35.829 161.567,-78.321 232.508,-131.688c-72.762,138.629 -118.904,337.813 -201.675,509.471c-96.233,60.963 -212.891,100.521 -319.15,88.288c6.563,-17.896 12.971,-35.896 19.867,-53.663c28.529,-73.654 65.929,-143.312 103.5,-212.642" style="fill:#e3b523;fill-rule:nonzero;"/><path d="M19359.2,1426.4c58.8,77.429 122.254,149.738 197.271,210.996c-20.617,-4.762 -41.204,-10.013 -61.729,-15.775c-162.742,-45.704 -327.704,-106.196 -474.684,-190.271c-39.5,-22.592 -77.416,-50.512 -115.408,-79.042c61.588,-68 148.388,-136.733 237.896,-195.895c27.529,27.387 53.129,56.625 77.667,86.691c48.508,59.413 92.612,122.238 138.987,183.296" style="fill:#e3b523;fill-rule:nonzero;"/><path d="M19648.5,1314.05c-65.725,-29.834 -130.229,-38.059 -201.425,-69.175c-80.25,-35.063 -149.029,-87.142 -213.379,-144.909c38.654,-22.404 76.35,-42.412 111.163,-58.924c13.708,-6.521 27.716,-12.867 41.475,-19.605c38.241,44.53 74.279,91.267 111.833,132.271c50.342,54.958 98.929,108.529 150.333,160.342" style="fill:#e3b523;fill-rule:nonzero;"/><path d="M20002.8,1156.46c10.37,33.354 19.866,67.354 34.029,99.145c-55.838,-64.145 -114.246,-130.812 -173.896,-187.687c-46.204,-44.042 -79.042,-71.163 -130.196,-109.404c-14.571,-10.909 -29.975,-21.342 -45.987,-31.167c-10.559,-24.454 -21.134,-48.912 -31.696,-73.371c63.437,-24.55 130.262,-35.783 198.196,-40.279c43.4,54.929 74.237,125.433 96,181.758c20.412,52.788 36.754,106.996 53.55,161.005" style="fill:#e3b523;fill-rule:nonzero;"/><path d="M20395.8,1150.58c63.737,102.421 113.075,216.779 209.825,291.184c-61.842,35.754 -127.492,65.758 -193.5,92.333c-26.196,10.542 -52.579,20.725 -79.138,30.487c-1.691,-0.204 -3.57,-0.358 -5.841,-0.42c-59.209,-1.663 -87.475,-82.288 -125.938,-124.655c-37.071,-40.816 -83.633,-91.591 -120,-133.05c-7.771,-8.854 -15.621,-17.879 -23.516,-26.933c-26.855,-53.3 -39.967,-115.487 -57.642,-171.092c-22.325,-70.22 -46.942,-140.145 -83.117,-204.604c-16.091,-28.687 -36.946,-60.683 -61.529,-90.246c67.171,-4.325 135.417,-2.145 202.583,0.217l89.605,3.15c30.883,35.113 59.145,72.263 85.266,104.55c58.971,72.888 113.4,149.471 162.942,229.079" style="fill:#e3b523;fill-rule:nonzero;"/><path d="M20024.5,1282.54c70.35,79.62 141.496,165.166 217,240.045c19.55,19.413 45.059,39.734 70.771,49.463c-58.646,20.929 -118.166,39.608 -178.504,54.883c-39.138,-3.887 -90.933,-35.283 -118.525,-48.883c-46.3,-22.846 -90.608,-49.729 -132.958,-79.234c-64.646,-45.029 -123.9,-96.683 -180.271,-151.475c-4.563,-4.966 -8.633,-9.179 -10.892,-10.654c-43.741,-43.087 -85.812,-87.958 -127.346,-132.987c-56.983,-61.763 -112.837,-124.934 -171.529,-185.209c28.438,-14.27 55.525,-30.583 76.663,-54.054c14.975,-16.621 27.666,-37.304 48.616,-45.154c17.546,-6.579 37.067,-2.6 55.367,1.442c36.554,8.083 73.108,16.171 109.658,24.254c35.459,23.987 68.738,50.812 99.242,76.129c92.142,76.442 163.588,171.858 242.708,261.433" style="fill:#e3b523;fill-rule:nonzero;"/><path d="M21156,1007.59c-0.454,5.25 -3.729,9.762 -6.908,13.946c-32.887,43.133 -70.208,82.866 -111.008,118.62c-31.821,27.871 -65.867,53.175 -101.492,75.988c-6.958,83.979 -81.521,265.475 -95.575,296.871c-47.867,106.933 -114.25,208.837 -193.95,294.946c-29.033,31.366 -64.379,61.558 -103.692,88.35c87.884,-174.038 137.925,-369.571 234.609,-539.534c39.937,-35.783 106.729,-100.275 110.066,-116.708c3.355,-16.421 -14.395,-41.096 -28.075,-25.396c-13.662,15.683 -126.033,171.779 -235.046,215.663c-82.899,-62.28 -146.904,-185.255 -197.729,-268.934c-48.662,-80.141 -103.25,-155.329 -161.425,-228.858c-32.104,-40.579 -62.575,-78.45 -95.4,-114.8c55.275,1.958 110.55,3.904 165.829,5.846c33.592,1.175 67.509,2.412 100.005,11c56.045,14.821 103.958,50.354 150.333,85.121c106.275,79.716 212.563,159.42 318.837,239.12c79.609,-56.75 152.838,-122.27 216.859,-196.129c0.562,19.6 35.454,25.367 33.762,44.888" style="fill:#e3b523;fill-rule:nonzero;"/><path d="M20427.2,1161.41c50.808,83.667 114.812,206.659 197.712,268.938c109.017,-43.888 221.383,-199.983 235.063,-215.683c13.662,-15.7 31.412,8.991 28.075,25.412c-3.354,16.421 -70.146,80.925 -110.079,116.708c-96.688,169.963 -146.713,365.496 -234.596,539.534c-6.154,4.2 -12.438,8.291 -18.784,12.3c82.771,-171.654 128.913,-370.825 201.675,-509.467c-70.945,53.379 -150.691,95.871 -232.508,131.688c-8.587,3.758 -17.283,7.333 -25.917,10.999c-45.325,63.263 -91.216,126.784 -139.033,188.763c-37.587,69.329 -74.971,139.004 -103.517,212.642c-6.879,17.766 -13.287,35.787 -19.866,53.679c-3.434,-0.409 -6.863,-0.846 -10.279,-1.346c7.3,-19.696 14.32,-39.596 21.916,-59.196c21.059,-54.35 46.959,-106.508 74.171,-157.992c-45.575,56.921 -93.192,112.038 -143.858,163.98c-6.063,0.437 -12.129,0.875 -18.192,1.316c122.475,-121.679 220.713,-258.833 293.538,-383.141c-121.992,49.104 -248.821,88.866 -378.05,111.366c-14.663,2.554 -29.346,4.688 -44.025,6.613c-110.113,51.062 -214.617,117.287 -321.563,177.012c-1.067,-0.546 -2.15,-1.112 -3.183,-1.629c-6.8,-3.4 -13.804,-5.921 -20.929,-7.817c96.337,-53.441 190.533,-112.558 288.458,-161.595c-190.771,14.82 -382.171,-20.042 -564.15,-82.884c-50.608,20.696 -101.4,41.05 -153.075,58.392c-5.858,-4.513 -11.625,-8.992 -17.279,-13.442c48.412,-16.216 96.058,-35.112 143.483,-54.446c-86.454,-31.304 -170.65,-68.733 -251.483,-109.908c-70.879,-36.112 -135.429,-79.733 -198.963,-126.737c0.938,-1.05 1.817,-2.1 2.771,-3.146c37.979,28.529 75.913,56.433 115.396,79.025c146.992,84.091 311.942,144.566 474.683,190.287c20.542,5.763 41.113,10.996 61.746,15.775c-75.033,-61.258 -138.487,-133.583 -197.271,-210.996c-46.375,-61.075 -90.496,-123.887 -139.004,-183.312c-24.537,-30.05 -50.137,-59.304 -77.65,-86.675c0.425,-0.283 0.846,-0.563 1.271,-0.846c4.967,4.733 9.996,9.4 14.837,14.213c147.871,147.025 271.867,349.608 440.155,476.625c120.075,23.579 241.675,29.566 364.712,13.491c43.213,-5.658 86.046,-13.504 128.521,-23.079c-23.688,-9.196 -46.954,-19.429 -69.738,-30.679c-50.966,-25.146 -104.754,-64.533 -150.941,-97.575c-49.996,-35.771 -97.392,-76.963 -143.079,-118.075c-16.292,-14.663 -32.038,-29.55 -47.567,-44.558c-109.875,-53.755 -229.625,-66.684 -333.392,-140.038c-40.766,-28.812 -80.487,-65.225 -118.841,-103c1.708,-1.004 3.4,-1.942 5.125,-2.946c64.329,57.767 133.112,109.846 213.362,144.925c71.196,31.104 135.7,39.329 201.425,69.159c-51.392,-51.813 -99.992,-105.38 -150.333,-160.342c-37.538,-41.004 -73.575,-87.742 -111.838,-132.267c1.992,-0.971 3.967,-1.958 5.942,-2.946c58.675,60.271 114.529,123.446 171.512,185.209c41.538,45.029 83.621,89.9 127.346,133.004c2.275,1.454 6.346,5.671 10.909,10.637c56.354,54.788 115.625,106.446 180.27,151.475c42.35,29.5 86.659,56.388 132.959,79.234c27.587,13.596 79.371,44.996 118.508,48.883c60.338,-15.279 119.858,-33.954 178.504,-54.871c-25.696,-9.729 -51.204,-30.066 -70.771,-49.462c-75.504,-74.892 -146.637,-160.421 -216.983,-240.063c-79.137,-89.57 -150.567,-184.987 -242.708,-261.429c-30.521,-25.321 -63.784,-52.141 -99.254,-76.129c4.37,0.971 8.741,1.925 13.112,2.896c-2.946,-6.846 -5.908,-13.675 -8.867,-20.525c16.013,9.825 31.413,20.258 45.984,31.162c51.154,38.246 83.996,65.367 130.183,109.409c59.663,56.891 118.071,123.541 173.913,187.7c-14.167,-31.788 -23.659,-65.804 -34.034,-99.159c-16.796,-53.991 -33.133,-108.22 -53.55,-161.004c-21.779,-56.325 -52.596,-126.829 -95.996,-181.762c0.705,-0.046 1.409,-0.075 2.113,-0.109c24.583,29.567 45.421,61.559 61.529,90.246c36.175,64.459 60.792,134.384 83.117,204.604c17.675,55.609 30.771,117.792 57.625,171.092c7.9,9.058 15.762,18.083 23.533,26.933c36.367,41.459 82.929,92.221 119.983,133.05c38.48,42.367 66.746,122.992 125.955,124.655c2.27,0.062 4.137,0.22 5.845,0.42c26.555,-9.758 52.938,-19.941 79.138,-30.487c66.008,-26.571 131.654,-56.575 193.496,-92.329c-96.75,-74.421 -146.088,-188.767 -209.825,-291.188c-49.538,-79.604 -103.971,-156.191 -162.942,-229.075c-26.121,-32.291 -54.4,-69.441 -85.267,-104.55c7.584,0.267 15.184,0.529 22.767,0.796c32.842,36.333 63.313,74.221 95.4,114.783c58.175,73.546 112.779,148.734 161.442,228.875" style="fill:#ffecd5;fill-rule:nonzero;"/></g><g><path d="M18657.6,34.679c-57.479,93.217 -124.667,181.834 -186.396,273.088c8.85,51.241 -14.504,106.65 12.338,152.97c13.112,22.63 76.887,193.463 89.987,216.092c15.488,26.708 30.504,51.3 45.238,74.438c21.833,-49.942 46.6,-98.759 71.679,-147.346c-46.575,-186.796 -64.425,-380.538 -32.846,-569.242" style="fill:#e3b523;fill-rule:nonzero;"/><path d="M18679.1,-65.071c33.805,-126.742 84.592,-249.571 144.259,-366.758c-130.242,61.583 -275.525,147.346 -407.525,258.616c-18.921,117.3 -37.842,234.6 -56.767,351.896c52.95,-9.466 84.663,53.613 104.908,104.225c68.905,-101.266 144.088,-199.525 204.659,-304.708c3.212,-14.454 6.629,-28.888 10.466,-43.271" style="fill:#e3b523;fill-rule:nonzero;"/><path d="M18697.5,631.533c-23.442,45.538 -46.48,91.33 -66.884,138.125c79.563,121.863 152.254,204.221 246.009,343.838c5.596,-3.892 11.246,-8.188 16.887,-12.409c-41.216,-67.429 -78.991,-135.574 -108.704,-209.362c-33.887,-84.146 -63.75,-171.317 -87.308,-260.192" style="fill:#e3b523;fill-rule:nonzero;"/><path d="M19081.8,670.558c-63.921,-109.829 -66.242,-230.25 -110.1,-344.441c-13.584,-16.771 -27.021,-33.784 -40.192,-51.309c-36.925,-49.133 -73.775,-99.975 -105,-152.929c-28.842,-48.921 -63.338,-105.971 -83.892,-158.958c-9.196,-23.683 -17.337,-47.763 -24.408,-72.171c-13.283,41.467 -24.892,83.442 -34.321,125.988c-26.858,121.145 -31.617,242.812 -18.717,364.5c111.692,178.812 302.555,320.183 435.955,480.441c4.383,5.246 8.587,10.667 12.866,16.034c21.029,-26.484 41.171,-53.234 59.934,-79.696c-34.246,-41.534 -67.017,-84.309 -92.125,-127.459" style="fill:#e3b523;fill-rule:nonzero;"/><path d="M18863.2,639.3c-71.941,-65.4 -138.375,-134.979 -192.783,-215.108c2.925,20.958 6.338,41.929 10.275,62.883c31.175,166.137 76.892,335.792 147.679,489.612c19.025,41.334 43.492,81.563 68.563,121.925c73.162,-55.354 149.283,-135.758 216.104,-219.704c-24.854,-29.833 -51.721,-57.912 -79.504,-85.004c-54.909,-53.554 -113.6,-103.025 -170.334,-154.604" style="fill:#e3b523;fill-rule:nonzero;"/><path d="M19000.6,361.121c23.921,68.1 26.429,133.079 51.146,206.742c27.854,83.025 73.666,156.133 125.537,225.32c25.725,-36.525 48.979,-72.312 68.496,-105.533c7.7,-13.083 15.258,-26.475 23.179,-39.583c-40.979,-42.021 -84.358,-82.038 -121.891,-123.063c-50.309,-54.987 -99.388,-108.108 -146.467,-163.883" style="fill:#e3b523;fill-rule:nonzero;"/><path d="M19188.8,22.042c-32.312,-13.271 -65.341,-25.725 -95.758,-42.638c58.971,61.279 120.229,125.338 171.625,189.767c39.796,49.904 63.917,85.008 97.504,139.337c9.575,15.475 18.613,31.738 26.988,48.55c23.429,12.675 46.858,25.367 70.291,38.042c30.046,-61.025 47.129,-126.6 57.596,-193.875c-50.892,-48.071 -118.404,-85 -172.592,-111.646c-50.779,-24.987 -103.337,-46.046 -155.654,-67.537" style="fill:#e3b523;fill-rule:nonzero;"/><path d="M19229.3,-368.867c-96.404,-72.516 -205.966,-131.746 -271.554,-234.675c-41.066,58.446 -76.741,121.196 -109.029,184.604c-12.813,25.163 -25.283,50.546 -37.346,76.142c0.05,1.7 0.042,3.588 -0.096,5.858c-3.566,59.125 74.255,94.384 113.067,136.434c37.388,40.525 83.863,91.383 121.95,131.262c8.133,8.521 16.433,17.138 24.758,25.8c50.725,31.45 111.513,49.996 165.342,72.5c67.983,28.429 135.467,59.113 196.483,100.834c27.155,18.554 57.188,42.15 84.471,69.241c10.225,-66.525 14.075,-134.7 17.638,-201.816l4.762,-89.53c-32.25,-33.858 -66.762,-65.287 -96.625,-94.15c-67.404,-65.17 -138.891,-126.137 -213.821,-182.504" style="fill:#e3b523;fill-rule:nonzero;"/><path d="M19065.2,-10.65c-73.109,-77.092 -152.05,-155.504 -219.979,-237.313c-17.613,-21.191 -35.605,-48.387 -43.03,-74.858c-26.021,56.571 -49.871,114.217 -70.408,172.971c0.421,39.329 27.129,93.692 38.246,122.375c18.671,48.129 41.546,94.638 67.2,139.421c39.154,68.362 85.387,131.942 134.996,192.925c4.541,4.979 8.383,9.408 9.65,11.787c39.062,47.371 80.05,93.234 121.245,138.575c56.496,62.205 114.5,123.413 169.363,187.188c16.725,-27.067 35.362,-52.613 60.604,-71.596c17.879,-13.454 39.596,-24.275 49.263,-44.446c8.104,-16.9 5.858,-36.7 3.446,-55.283c-4.83,-37.125 -9.663,-74.246 -14.492,-111.371c-20.767,-37.429 -44.554,-72.946 -67.084,-105.562c-68.025,-98.521 -156.77,-178.1 -239.02,-264.813" style="fill:#e3b523;fill-rule:nonzero;"/><path d="M19221.3,-401.104c-78.859,-57.988 -195.73,-132.584 -250.459,-220.65c53.325,-104.721 218.721,-202.892 235.567,-215.134c16.842,-12.225 -6.192,-32.083 -22.842,-30.208c-16.65,1.896 -86.791,62.738 -125.958,99.367c-177.825,81.325 -377.008,113.921 -558.112,186.117c-4.725,5.762 -9.355,11.658 -13.909,17.625c178.284,-67.317 380.746,-95.721 525.263,-155.976c-59.425,65.963 -108.784,141.655 -151.671,219.996c-4.504,8.221 -8.829,16.567 -13.242,24.842c-67.016,39.575 -134.329,79.688 -200.287,121.854c-72.371,31.329 -145.071,62.425 -220.938,84.367c-18.308,5.287 -36.821,10.079 -55.221,15.058c0.1,3.454 0.238,6.913 0.434,10.359c20.262,-5.538 40.704,-10.775 60.896,-16.617c55.995,-16.183 110.233,-37.383 163.916,-59.954c-60.716,40.383 -119.817,82.95 -176.021,128.846c-0.97,6 -1.945,12 -2.916,18.004c132,-111.271 277.283,-197.038 407.525,-258.617c-59.667,117.183 -110.459,240.017 -144.259,366.758c-3.837,14.38 -7.254,28.817 -10.47,43.271c-60.567,105.184 -135.75,203.442 -204.671,304.709c0.454,1.108 0.921,2.233 1.341,3.312c2.788,7.071 4.684,14.271 5.942,21.538c61.729,-91.255 128.917,-179.871 186.4,-273.088c-31.583,188.721 -13.729,382.446 32.825,569.258c-25.079,48.584 -49.829,97.388 -71.662,147.33c3.979,6.233 7.933,12.37 11.87,18.4c20.421,-46.796 43.442,-92.592 66.88,-138.13c23.562,88.88 53.425,176.05 87.312,260.192c29.725,73.792 67.483,141.933 108.704,209.363c1.129,-0.842 2.25,-1.625 3.379,-2.484c-25.071,-40.346 -49.521,-80.587 -68.546,-121.908c-70.804,-153.838 -116.504,-323.475 -147.695,-489.613c-3.934,-20.97 -7.334,-41.921 -10.275,-62.9c54.408,80.142 120.854,149.725 192.787,215.109c56.746,51.579 115.421,101.062 170.342,154.621c27.771,27.091 54.654,55.17 79.491,84.987c0.317,-0.396 0.638,-0.792 0.955,-1.187c-4.275,-5.367 -8.484,-10.788 -12.846,-16.034c-133.417,-160.258 -324.284,-301.629 -435.971,-480.458c-12.9,-121.688 -8.146,-243.338 18.717,-364.483c9.441,-42.542 21.037,-84.521 34.316,-125.988c7.075,24.408 15.213,48.488 24.413,72.171c20.554,52.987 55.046,110.037 83.892,158.958c31.22,52.954 68.074,103.796 104.995,152.929c13.175,17.525 26.613,34.521 40.196,51.309c43.858,114.191 46.179,234.612 110.1,344.441c25.109,43.15 57.875,85.925 92.121,127.459c1.15,-1.613 2.238,-3.217 3.388,-4.842c-51.871,-69.175 -97.684,-142.279 -125.555,-225.313c-24.7,-73.658 -27.208,-138.633 -51.129,-206.733c47.079,55.754 96.154,108.892 146.467,163.879c37.533,41.009 80.908,81.025 121.892,123.063c1.141,-1.896 2.3,-3.775 3.458,-5.654c-54.867,-63.763 -112.871,-124.971 -169.367,-187.175c-41.191,-45.346 -82.179,-91.221 -121.258,-138.58c-1.254,-2.391 -5.092,-6.82 -9.638,-11.8c-49.608,-60.966 -95.837,-124.558 -134.991,-192.925c-25.654,-44.783 -48.529,-91.291 -67.204,-139.42c-11.113,-28.684 -37.825,-83.034 -38.246,-122.359c20.537,-58.754 44.387,-116.4 70.391,-172.971c7.425,26.45 25.438,53.655 43.034,74.855c67.941,81.812 146.866,160.208 219.996,237.3c82.245,86.729 170.995,166.291 239.016,264.812c22.529,32.633 46.317,68.133 67.084,105.579c-0.584,-4.437 -1.15,-8.879 -1.73,-13.316c6.559,3.537 13.105,7.087 19.663,10.641c-8.375,-16.816 -17.413,-33.075 -26.988,-48.554c-33.587,-54.325 -57.708,-89.429 -97.508,-139.321c-51.408,-64.446 -112.65,-128.504 -171.633,-189.779c30.416,16.908 63.462,29.367 95.775,42.638c52.3,21.491 104.871,42.55 155.65,67.537c54.187,26.658 121.7,63.575 172.591,111.646c0.109,-0.696 0.205,-1.396 0.296,-2.096c-27.283,-27.096 -57.312,-50.671 -84.471,-69.246c-61.016,-41.716 -128.5,-72.4 -196.479,-100.829c-53.829,-22.508 -114.621,-41.037 -165.346,-72.483c-8.325,-8.667 -16.62,-17.296 -24.754,-25.817c-38.087,-39.879 -84.55,-90.737 -121.954,-131.246c-38.808,-42.066 -116.629,-77.329 -113.062,-136.45c0.137,-2.271 0.145,-4.141 0.091,-5.862c12.067,-25.592 24.538,-50.975 37.35,-76.142c32.288,-63.408 67.963,-126.154 109.025,-184.6c65.604,102.929 175.154,162.158 271.554,234.675c74.934,56.367 146.421,117.333 213.821,182.504c29.867,28.863 64.375,60.309 96.629,94.15c0.405,-7.579 0.809,-15.171 1.213,-22.75c-33.3,-35.912 -68.35,-69.608 -105.925,-105.146c-68.129,-64.433 -138.213,-125.45 -213.754,-180.991" style="fill:#ffecd5;fill-rule:nonzero;"/></g><g><path d="M22002.5,280.338c39.521,-15.196 77.984,-34.409 117.059,-51.359c18.837,7.013 41.558,2.092 57.246,15.592c7.662,6.596 68.029,43.004 75.695,49.596c9.042,7.787 17.317,15.246 25.059,22.496c-20.534,4.737 -40.85,10.666 -61.096,16.733c-67.663,-31.013 -140.004,-51.608 -213.963,-53.058" style="fill:#e3b523;fill-rule:nonzero;"/><path d="M21963,281.379c-50.571,3.813 -100.863,14.354 -149.646,28.675c32.683,-45.1 75.629,-94.191 127.321,-136.416c45.916,1.17 91.837,2.341 137.758,3.516c-7.371,19.442 14.337,35.988 32.125,47.292c-43.392,18.962 -86.088,40.525 -130.371,56.042c-5.721,0.191 -11.45,0.462 -17.187,0.891" style="fill:#e3b523;fill-rule:nonzero;"/><path d="M22226.4,338.054c18.97,-5.662 38.012,-11.15 57.25,-15.571c40.633,38.921 66.746,72.413 113.116,117.988c-1.879,1.85 -3.916,3.691 -5.921,5.533c-22.683,-20.467 -45.883,-39.679 -71.804,-56.229c-29.558,-18.875 -60.55,-36.433 -92.641,-51.721" style="fill:#e3b523;fill-rule:nonzero;"/><path d="M21872.2,231.158c12.404,-18.787 24.325,-37.887 34.475,-58.004c3.658,-7.258 7.1,-14.65 10.646,-21.954c5.658,1.404 11.2,3.179 16.566,5.412c-3.316,5.53 -6.641,11.067 -9.958,16.601c3.258,0.079 6.517,0.166 9.779,0.245c-21.438,18.088 -41.829,37.509 -61.508,57.7" style="fill:#e3b523;fill-rule:nonzero;"/><path d="M22213.8,486.846c-37.175,-32.117 -82.766,-41.583 -123.029,-66.388c-5.404,-6.358 -10.912,-12.675 -16.633,-18.929c-16.038,-17.533 -32.729,-35.162 -50.625,-50.8c-16.533,-14.446 -35.75,-31.621 -54.421,-43.208c-8.342,-5.184 -16.912,-9.992 -25.683,-14.421c16.704,-2.092 33.483,-3.508 50.321,-4.058c47.945,-1.571 94.516,5.291 139.837,18.87c59.983,55.188 100.096,137.788 151.479,199.9c1.684,2.042 3.442,4.025 5.175,6.034c-11.562,6.1 -23.162,11.85 -34.554,17.091c-13.342,-15.975 -27.258,-31.475 -41.867,-44.091" style="fill:#e3b523;fill-rule:nonzero;"/><path d="M21855.9,248.138c-20.725,22.054 -40.763,44.774 -60.579,67.416c-3.463,1.088 -6.946,2.138 -10.384,3.263c-32.825,10.716 -65.104,24.075 -94.404,41.95c33.196,-50.613 58.421,-125.525 96.712,-188.471c39.313,-19.846 85.688,-30.696 126.113,-22c-3.196,6.637 -6.338,13.325 -9.654,19.904c-13.742,27.271 -30.746,52.671 -47.804,77.938" style="fill:#e3b523;fill-rule:nonzero;"/><path d="M22217.5,401.558c-19.721,-32 -41.425,-62.204 -67.992,-88.591c7.754,2.608 15.479,5.4 23.162,8.387c60.905,23.692 122.113,53.154 175.513,91.017c14.35,10.175 27.896,22.341 41.442,34.746c-26.246,23.854 -62.225,47.046 -98.888,66.454c-9.562,-11.571 -18.317,-23.783 -26.629,-36.271c-16.438,-24.679 -31.05,-50.508 -46.608,-75.742" style="fill:#e3b523;fill-rule:nonzero;"/><path d="M22102,433.942c24.171,13.945 48.683,19.529 74.912,34.171c29.563,16.504 54.075,39.125 76.667,63.762c-15.713,7.175 -30.967,13.458 -44.984,18.504c-5.52,1.996 -11.145,3.913 -16.691,5.988c-13.046,-18.567 -25.159,-37.904 -38.071,-55.088c-17.308,-23.037 -33.996,-45.471 -51.833,-67.337" style="fill:#e3b523;fill-rule:nonzero;"/><path d="M21959.8,481.288c-2.742,-13.226 -5.117,-26.663 -9.375,-39.43c19.079,26.78 39.054,54.621 59.871,78.742c16.129,18.679 27.745,30.346 45.995,46.983c5.196,4.742 10.734,9.334 16.525,13.717c3.146,9.804 6.3,19.612 9.446,29.421c-25.333,7.066 -51.466,8.883 -77.775,8.062c-14.641,-22.762 -23.858,-51.05 -30.121,-73.537c-5.875,-21.075 -10.129,-42.55 -14.566,-63.959" style="fill:#e3b523;fill-rule:nonzero;"/><path d="M21808.4,468.808c-20.683,-41.8 -35.379,-87.654 -69.812,-119.912c25.133,-11.438 51.52,-20.521 77.916,-28.267c10.475,-3.075 21.009,-6.004 31.596,-8.766c0.642,0.141 1.358,0.275 2.229,0.383c22.721,2.858 30.575,34.942 43.783,52.687c12.734,17.096 28.746,38.384 41.184,55.696c2.658,3.7 5.341,7.467 8.041,11.246c8.334,21.517 11.046,45.938 15.759,67.996c5.958,27.858 12.808,55.687 24.308,81.846c5.117,11.641 11.942,24.737 20.292,37.033c-26.009,-0.854 -52.188,-4.254 -77.942,-7.683l-34.362,-4.571c-10.567,-14.671 -20.046,-30.025 -28.888,-43.429c-19.958,-30.259 -38.029,-61.767 -54.104,-94.259" style="fill:#e3b523;fill-rule:nonzero;"/><path d="M21956.2,431.963c-24.079,-33.275 -48.245,-68.863 -74.491,-100.505c-6.796,-8.204 -15.846,-16.979 -25.375,-21.687c23.35,-5.854 46.954,-10.808 70.741,-14.425c14.917,2.962 33.667,16.987 43.775,23.258c16.959,10.525 33,22.534 48.188,35.471c23.183,19.754 44.046,41.85 63.683,65.05c1.567,2.079 2.979,3.854 3.792,4.508c15.216,18.217 29.721,37.063 44.012,55.946c19.609,25.904 38.734,52.304 59.054,77.7c-11.479,4.425 -22.512,9.683 -31.524,17.925c-6.388,5.834 -12.046,13.317 -20.4,15.55c-7,1.875 -14.363,-0.391 -21.255,-2.633c-13.758,-4.479 -27.52,-8.963 -41.283,-13.446c-12.742,-10.558 -24.542,-22.129 -35.329,-33.012c-32.588,-32.871 -56.5,-72.267 -83.588,-109.7" style="fill:#e3b523;fill-rule:nonzero;"/><path d="M21510.5,495.313c0.371,-2 1.8,-3.613 3.183,-5.105c14.271,-15.362 30.121,-29.254 47.163,-41.479c13.287,-9.533 27.337,-17.991 41.904,-25.433c5.825,-32.054 41.325,-99.092 47.908,-110.646c22.43,-39.35 51.796,-76.071 85.696,-106.217c12.346,-10.979 27.079,-21.27 43.209,-30.104c-40.342,63.671 -66.93,137.029 -110.509,198.804c-16.712,12.271 -44.829,34.579 -46.729,40.779c-1.908,6.192 3.996,16.355 9.85,10.825c5.846,-5.52 54.938,-61.37 98.533,-74.17c29.559,27.075 49.575,76.796 65.992,110.9c15.721,32.662 33.904,63.641 53.529,94.116c10.834,16.817 21.138,32.534 32.404,47.75c-21.195,-2.825 -42.391,-5.645 -63.587,-8.466c-12.883,-1.713 -25.888,-3.463 -38.071,-7.984c-21.008,-7.808 -38.112,-23.275 -54.65,-38.395c-37.904,-34.659 -75.812,-69.313 -113.717,-103.967c-32.758,18.85 -63.395,41.312 -90.8,67.333c0.521,-7.562 -12.691,-11.091 -11.308,-18.541" style="fill:#e3b523;fill-rule:nonzero;"/><path d="M21796.7,463.467c-16.416,-34.1 -36.429,-83.825 -65.991,-110.9c-43.592,12.796 -92.684,68.646 -98.538,74.175c-5.846,5.529 -11.75,-4.642 -9.85,-10.834c1.904,-6.191 30.025,-28.504 46.734,-40.779c43.579,-61.771 70.162,-135.133 110.508,-198.804c2.525,-1.383 5.096,-2.721 7.687,-4.025c-38.287,62.946 -63.512,137.85 -96.708,188.467c29.3,-17.875 61.579,-31.234 94.404,-41.95c3.446,-1.121 6.925,-2.171 10.384,-3.259c19.812,-22.641 39.854,-45.362 60.579,-67.416c17.062,-25.267 34.062,-50.675 47.808,-77.942c3.313,-6.575 6.454,-13.271 9.658,-19.908c1.305,0.287 2.609,0.583 3.905,0.904c-3.55,7.304 -6.996,14.7 -10.655,21.954c-10.141,20.125 -22.066,39.221 -34.466,58.013c19.671,-20.192 40.058,-39.617 61.504,-57.7c2.35,0.058 4.7,0.116 7.05,0.175c-51.692,42.225 -94.633,91.316 -127.321,136.416c48.783,-14.321 99.075,-24.862 149.646,-28.675c5.737,-0.429 11.467,-0.7 17.187,-0.891c44.284,-15.517 86.98,-37.08 130.375,-56.05c0.388,0.25 0.784,0.508 1.163,0.745c2.487,1.563 5.087,2.796 7.758,3.796c-39.075,16.95 -77.537,36.163 -117.054,51.359c73.963,1.454 146.3,22.045 213.967,53.054c20.246,-6.067 40.558,-11.992 61.087,-16.729c2.088,1.958 4.138,3.895 6.146,5.82c-19.233,4.425 -38.279,9.909 -57.25,15.567c32.092,15.292 63.083,32.85 92.642,51.725c25.921,16.554 49.121,35.763 71.804,56.229c-0.4,0.371 -0.775,0.742 -1.183,1.109c-13.546,-12.405 -27.092,-24.563 -41.438,-34.738c-53.408,-37.871 -114.608,-67.325 -175.512,-91.021c-7.688,-2.991 -15.409,-5.775 -23.167,-8.387c26.571,26.383 48.275,56.591 67.992,88.587c15.554,25.238 30.175,51.063 46.608,75.75c8.317,12.484 17.067,24.696 26.629,36.263c-0.175,0.091 -0.346,0.183 -0.521,0.279c-1.733,-2.008 -3.491,-3.996 -5.175,-6.025c-51.383,-62.121 -91.496,-144.725 -151.487,-199.908c-45.321,-13.58 -91.884,-20.442 -139.829,-18.871c-16.838,0.554 -33.617,1.966 -50.321,4.058c8.771,4.425 17.341,9.238 25.683,14.421c18.671,11.587 37.888,28.758 54.421,43.208c17.896,15.638 34.587,33.263 50.625,50.796c5.721,6.254 11.221,12.575 16.633,18.933c40.263,24.805 85.854,34.271 123.029,66.388c14.609,12.617 28.525,28.117 41.867,44.092c-0.696,0.32 -1.383,0.62 -2.083,0.941c-22.588,-24.641 -47.1,-47.262 -76.663,-63.771c-26.225,-14.637 -50.737,-20.22 -74.908,-34.166c17.829,21.866 34.521,44.3 51.829,67.337c12.908,17.188 25.021,36.521 38.071,55.092c-0.8,0.296 -1.6,0.604 -2.396,0.908c-20.317,-25.391 -39.437,-51.796 -59.046,-77.7c-14.296,-18.883 -28.804,-37.729 -44.012,-55.954c-0.821,-0.646 -2.229,-2.417 -3.8,-4.5c-19.629,-23.196 -40.496,-45.296 -63.684,-65.05c-15.187,-12.937 -31.229,-24.946 -48.187,-35.471c-10.104,-6.271 -28.854,-20.291 -43.767,-23.254c-23.791,3.613 -47.391,8.567 -70.741,14.417c9.52,4.704 18.57,13.487 25.375,21.683c26.241,31.65 50.404,67.229 74.487,100.513c27.092,37.433 50.996,76.829 83.583,109.7c10.796,10.887 22.588,22.454 35.338,33.016c-1.646,-0.537 -3.292,-1.071 -4.938,-1.608c0.875,2.746 1.759,5.483 2.642,8.229c-5.792,-4.379 -11.329,-8.975 -16.525,-13.717c-18.25,-16.633 -29.871,-28.3 -45.987,-46.979c-20.825,-24.129 -40.8,-51.966 -59.88,-78.75c4.259,12.767 6.634,26.209 9.375,39.434c4.438,21.404 8.692,42.883 14.567,63.958c6.267,22.492 15.479,50.775 30.121,73.542c-0.275,-0.009 -0.546,-0.025 -0.821,-0.038c-8.35,-12.3 -15.167,-25.392 -20.287,-37.033c-11.505,-26.159 -18.35,-53.988 -24.309,-81.846c-4.712,-22.058 -7.421,-46.479 -15.754,-67.996c-2.7,-3.779 -5.387,-7.546 -8.046,-11.246c-12.437,-17.316 -28.45,-38.596 -41.179,-55.696c-13.217,-17.745 -21.067,-49.829 -43.787,-52.687c-0.871,-0.108 -1.584,-0.242 -2.234,-0.383c-10.583,2.758 -21.116,5.687 -31.596,8.762c-26.391,7.75 -52.779,16.833 -77.916,28.271c34.437,32.267 49.133,78.112 69.816,119.912c16.075,32.492 34.146,64 54.105,94.259c8.837,13.404 18.325,28.758 28.887,43.429c-2.908,-0.388 -5.825,-0.775 -8.729,-1.163c-11.275,-15.212 -21.579,-30.933 -32.404,-47.745c-19.625,-30.48 -37.817,-61.459 -53.534,-94.121" style="fill:#ffecd5;fill-rule:nonzero;"/></g><g><path d="M23531.2,13759.5c278.2,-321.52 557.75,-573.12 1158.41,-396.304c72.245,2.088 190.895,-182.583 210.404,-329.45c4.408,-33.321 35.016,-56.737 68.371,-52.329c33.32,4.425 56.75,35.029 52.325,68.367c-15.225,114.737 -79.48,261.483 -167.009,351.975c93.329,15.925 186.621,21.341 277.234,16.45c130.154,-18.059 261.304,-244.238 287.549,-427.542c4.767,-33.3 35.626,-56.413 68.905,-51.646c33.283,4.763 56.396,35.608 51.629,68.904c-16.375,114.384 -71.304,257.838 -153.275,367.188c69.279,-20.742 134.708,-48.521 194.633,-83.275c142.713,-82.767 237.65,-198.684 267.35,-326.421c7.596,-32.742 40.304,-53.1 73.092,-45.504c32.737,7.6 53.129,40.321 45.5,73.075c-37.371,160.833 -152.738,304.362 -324.858,404.187c-38.605,22.409 -79.3,42.071 -121.521,59.309c36.008,26.741 78.937,37.962 114.129,42.008c145.383,16.742 322.333,-60.958 440.275,-193.317c22.379,-25.116 60.858,-27.316 85.958,-4.937c25.113,22.362 27.313,60.841 4.95,85.941c-84.258,94.559 -191.571,165.055 -303.079,203.459c-80.871,27.85 -163.933,38.804 -242.008,29.829c-97.596,-11.225 -177.171,-53.283 -228.971,-119.746c-139.179,37.467 -290.525,50.004 -443.896,36.713c7.617,38.02 24.863,78.687 61.958,105.504c58.317,42.141 153.155,40.9 273.271,-2.038c31.413,-11.471 66.538,4.954 77.938,36.596c11.416,31.629 -4.975,66.525 -36.584,77.925c-4.07,1.488 -8.058,2.879 -12.062,4.271c-194.896,67.108 -310.733,27.592 -373.9,-18.063c-66.971,-48.412 -107.079,-125.604 -115.95,-220.608c-53.117,-9.471 -106.125,-21.996 -158.604,-37.729c-0.179,-0.05 -0.342,-0.088 -0.504,-0.142l-0.063,-0.016c-538.608,-161.267 -770.608,46.279 -1039.51,357.045c-22.009,25.4 -60.455,28.192 -85.888,6.196c-25.421,-21.996 -28.208,-60.454 -6.2,-85.875" style="fill:#954129;fill-rule:nonzero;"/><path d="M23451.5,13615.8c303.634,-297.616 537.405,-592.233 323.634,-1180.76c-6.559,-71.992 170.4,-201.879 315.771,-230.454c32.995,-6.484 54.458,-38.479 47.995,-71.492c-6.479,-32.992 -38.495,-54.475 -71.491,-47.979c-113.575,22.329 -256.046,95.563 -340.938,188.537c-21.7,-92.175 -32.875,-184.933 -33.629,-275.691c9.946,-131.021 227.554,-275.942 408.888,-313.529c32.937,-6.825 54.1,-39.059 47.258,-71.963c-6.813,-32.921 -39.046,-54.083 -71.967,-47.254c-113.146,23.433 -252.937,87.154 -356.971,175.75c16.388,-70.433 40.063,-137.458 71.021,-199.404c73.767,-147.579 183.563,-249.55 309.217,-287.109c32.204,-9.62 50.496,-43.524 40.875,-75.762c-9.621,-32.221 -43.542,-50.529 -75.758,-40.892c-158.205,47.288 -294.313,171.35 -383.263,349.317c-19.942,39.925 -37.05,81.767 -51.646,124.975c-28.916,-34.267 -42.775,-76.425 -49.012,-111.308c-25.734,-144.063 40.837,-325.484 165.616,-451.421c23.688,-23.892 23.484,-62.438 -0.391,-86.096c-23.892,-23.675 -62.438,-23.5 -86.096,0.392c-89.15,89.962 -152.854,201.45 -184.246,315.129c-22.771,82.433 -28.562,166.012 -14.746,243.392c17.259,96.708 64.175,173.525 133.713,221.095c-28.75,141.225 -31.875,293.059 -9.084,445.317c-38.416,-5.246 -80.083,-19.933 -109.154,-55.283c-45.691,-55.596 -50.316,-150.338 -14.921,-272.888c9.488,-32.058 -9.087,-66.091 -41.358,-75.508c-32.287,-9.433 -66.096,9.087 -75.525,41.358c-1.208,4.138 -2.371,8.209 -3.496,12.284c-54.896,198.695 -8.246,311.858 41.242,372.054c52.45,63.846 132.008,99.091 227.383,102.062c12.746,52.404 28.525,104.542 47.488,155.954c0.062,0.163 0.108,0.313 0.166,0.475c0,0.034 0.017,0.05 0.017,0.067c194.396,527.563 1.642,771.988 -291.838,1059.67c-23.975,23.558 -24.375,62.087 -0.85,86.096c23.538,24.025 62.088,24.408 86.096,0.866" style="fill:#954129;fill-rule:nonzero;"/><path d="M27153.8,14546.2c0,0 424.713,436.708 139.746,793.296c-216.775,271.266 -497.629,222.267 -751.412,191.821c-17.904,-2.146 -34.1,-5.963 -49.246,-10.738c86.333,-422.279 934.441,-4.621 660.912,-974.379" style="fill:#fdcd44;fill-rule:nonzero;"/><path d="M26333.9,15257.5c1.95,-409.2 604.825,-335.063 819.975,-711.259c273.513,969.763 -574.579,552.084 -660.912,974.363c-126.059,-39.808 -159.538,-164.008 -159.063,-263.104" style="fill:#f6a81b;fill-rule:nonzero;"/><path d="M23678.5,15872.8c-20.087,192.125 200.734,550.079 187.342,803.338c-13.396,253.258 -871.308,2256.79 -871.308,2256.79c-0,0 39.166,43.417 120.462,58.596c0,0 978.034,-1895.11 1192.64,-2163.31c214.596,-268.184 68.062,-667.8 183.958,-897.825c115.9,-230.025 -69.325,-490.196 -369.529,-481.463c-300.187,8.746 -430.725,300.917 -443.567,423.879" style="fill:#f18621;fill-rule:nonzero;"/><path d="M23434,13351.8c46.008,-139.437 34.6,-579.725 -214.096,-641.858c-73.667,-18.396 -190.163,181.229 -168.358,400.742c21.787,219.5 163.85,277.35 252.65,313.508c88.779,36.154 129.804,-72.392 129.804,-72.392" style="fill:#f6a81b;fill-rule:nonzero;"/><path d="M23260.7,13288c5.234,-33.746 -3.933,-442.737 -67.066,-467.121c-51.675,-19.958 -123.95,121.333 -91.813,279.059c16.988,83.42 49.754,192.933 115.55,216.712c15.663,5.667 39.621,-4.787 43.329,-28.65" style="fill:#fdcd44;fill-rule:nonzero;"/><path d="M25559.1,16352.8c61.725,376.842 106.109,602.467 261.538,863.85c155.425,261.384 -560.467,1926.33 -560.467,1926.33c0,0 35.171,43.188 129.234,66.317c-0,0 646.45,-1450.3 821.287,-1670.48c174.838,-220.167 -3.717,-387.492 136.35,-755.158c140.071,-367.667 54.754,-745.329 -226.85,-783.913c-281.625,-38.562 -593.212,156.917 -561.092,353.054" style="fill:#f18621;fill-rule:nonzero;"/><path d="M21932.4,13862.2c12.592,0.3 24.838,0.512 36.846,0.666c13.637,110.117 91.733,202.938 327.087,266.88c468.546,127.291 689.609,98.154 828.563,389.875c155.158,325.779 81.033,1540.75 443.162,1815.99c760.825,578.313 1712.94,-131.433 1900.88,248.129c-477.691,-60.537 -996.337,463.867 -1722.86,181.454c-663.762,-258.008 -730.183,-1493.91 -798.1,-2133.68c-34.792,-327.554 -583.058,-242.825 -955.992,-488.516c-110.129,-72.542 -200.758,-284.18 -59.583,-280.8" style="fill:#fdcd44;fill-rule:nonzero;"/><path d="M23568,16335.6c-362.113,-275.25 -288.004,-1490.23 -443.167,-1815.99c-138.95,-291.721 -360.012,-262.588 -828.558,-389.875c-235.354,-63.942 -313.45,-156.779 -327.092,-266.896c723.95,8.921 391.442,-258.775 822.9,-502.196c438.625,-247.45 738.267,-149.312 952.008,129.642c115.846,151.183 269.471,297.375 167.513,643.391c-128.829,437.305 224.062,1058.27 435.3,1142.12c313.583,124.5 755.858,184.975 1266.47,-49.266c715.579,-328.28 1277.96,71.171 1382.13,740.02c57.625,370.059 -5.234,435.9 127.237,684.221c131.146,245.838 126.825,133.509 140.763,351.313c92.437,1443.74 719.441,2493.94 719.441,2493.94c-61.833,94.754 -159.558,31.538 -159.558,31.538c-570.287,-767.734 -1013.66,-2532.52 -1260.83,-2547.76c-690.142,-42.554 -859.971,-322.595 -954.692,-360.412c-46.025,-18.371 -92.317,-29.754 -138.983,-35.675c-187.938,-379.567 -1140.05,330.183 -1900.88,-248.113" style="fill:#f6a81b;fill-rule:nonzero;"/><path d="M23795.8,13607.3c162.379,-71.567 699.563,-135.504 803.221,156.454c30.704,86.475 -195.892,249.825 -462.459,249.117c-266.566,-0.709 -352.679,-164.875 -406.491,-267.471c-53.813,-102.617 65.729,-138.1 65.729,-138.1" style="fill:#f6a81b;fill-rule:nonzero;"/><path d="M23891.8,13722.5c39.996,-10.233 544.117,-19.104 581.275,68.834c26.067,61.679 -134.883,160.379 -329.408,159.862c-194.509,-0.504 -245.038,-96.867 -281.296,-173.229c-8.646,-18.212 1.154,-48.237 29.429,-55.467" style="fill:#fdcd44;fill-rule:nonzero;"/><path d="M21843.6,13873.5c-1.533,64.075 58.063,117.471 133.125,119.267c75.046,1.796 137.13,-48.692 138.663,-112.763c1.533,-64.075 -58.063,-117.47 -133.108,-119.266c-75.063,-1.796 -137.146,48.692 -138.68,112.762" style="fill:#954129;fill-rule:nonzero;"/><path d="M22909.3,13743.1c-1.291,54 30.3,98.558 70.584,99.521c40.266,0.962 73.97,-42.033 75.262,-96.033c1.292,-53.996 -30.317,-98.555 -70.583,-99.517c-40.284,-0.967 -73.971,42.029 -75.263,96.029" style="fill:#954129;fill-rule:nonzero;"/><path d="M23783.1,15905.3c-240.479,223.421 -1006.14,823.246 -1057.71,922c-51.558,98.738 59.442,281.767 151.175,317.405c91.733,35.654 1511.83,1102.13 1511.83,1102.13c0,-0 153.888,-8.833 114.754,-132.271c0,0 -1164.25,-930.112 -1233.72,-1023.09c-69.45,-92.975 696.555,-324.7 1002.86,-430.646c306.321,-105.942 563.108,-450.375 248.517,-763.6c-314.609,-313.209 -633.005,-89.204 -737.705,8.066" style="fill:#f6a81b;fill-rule:nonzero;"/><path d="M25635.2,16558.1c6.321,0.155 12.659,-2.441 17.08,-7.629c7.812,-9.125 6.72,-22.858 -2.421,-30.675c-105.321,-89.925 -131.4,-271.412 -110.538,-411.383c16.875,-113.196 62.017,-198.592 117.788,-222.892c11.029,-4.8 16.07,-17.621 11.27,-28.633c-4.783,-11.025 -17.637,-16.071 -28.633,-11.271c-70.479,30.696 -124.104,126.525 -143.467,256.375c-20.979,140.738 -0.745,343.271 125.326,450.9c3.954,3.379 8.779,5.096 13.595,5.208" style="fill:#fff;fill-rule:nonzero;"/><path d="M25651.3,15417.7c-34.971,4.442 -68.938,14.038 -100.817,29.188c-12.05,5.725 -26.675,4.525 -37.317,-4.079c-7.358,-5.942 -14.379,-21.142 -2.183,-26.93c39.3,-18.679 79.929,-30.924 123.129,-36.412c25.729,-3.254 52.288,33.779 17.188,38.233" style="fill:#fbc60b;fill-rule:nonzero;"/><path d="M25355.8,15468.5c-23.958,9.883 -47.921,19.766 -71.879,29.65c-20.392,8.416 -59.95,-21.517 -29.838,-33.929c23.959,-9.884 47.917,-19.767 71.88,-29.65c20.379,-8.417 59.95,21.512 29.837,33.929" style="fill:#fbc60b;fill-rule:nonzero;"/><path d="M25418.5,15586.7c-32.825,22.696 -69.3,30.659 -108.854,26.463c-9.125,-0.971 -27.983,-7.529 -29.125,-18.7c-1.212,-11.988 15.125,-11.975 22.929,-11.15c23.68,2.525 47.713,-4.954 67.163,-18.408c10.104,-6.98 23.925,-4.984 34.621,0.029c4.733,2.204 23.354,14.787 13.266,21.766" style="fill:#fbc60b;fill-rule:nonzero;"/><path d="M25145.4,15578.8l-61.246,-1.467c-12.15,-0.287 -26.387,-4.108 -36.65,-10.758c-7.754,-5.054 -7.541,-9.871 2.825,-9.621l61.25,1.463c12.15,0.291 26.384,4.112 36.65,10.779c7.754,5.037 7.542,9.854 -2.829,9.604" style="fill:#fbc60b;fill-rule:nonzero;"/><path d="M25124.5,15474.2c-22.62,7.905 -45.671,13.184 -69.545,15.442c-12.134,1.146 -25.325,-2.667 -36.196,-7.892c-3.442,-1.666 -18.292,-11.254 -6.467,-12.358c21.679,-2.05 42.763,-6.412 63.325,-13.617c10.296,-3.591 23.588,0.763 33.321,4.459c1.862,0.696 23.108,11.321 15.562,13.966" style="fill:#fbc60b;fill-rule:nonzero;"/><path d="M24923.3,15570.8c-23.6,2.246 -47.241,-0.396 -69.9,-7.275c-9.262,-2.821 -24.7,-11.733 -21.179,-23.742c3.504,-11.891 21.642,-11.262 30.659,-8.512c14.112,4.292 27.758,5.4 42.45,4.004c11.887,-1.138 28.258,4.875 33.741,16.2c5.684,11.683 -5.666,18.358 -15.771,19.325" style="fill:#fbc60b;fill-rule:nonzero;"/><path d="M24948.2,15702c-28.975,2.312 -57.342,-1.667 -85.35,-8.921c-4.613,-1.188 -25.892,-7.708 -23.667,-15.271c2.225,-7.592 24.546,-0.979 28.167,-0.042c15.441,3.996 31.604,3.892 47.383,2.634c11.671,-0.93 27.121,4.129 36.65,10.762c8.337,5.821 6.733,10.046 -3.183,10.838" style="fill:#fbc60b;fill-rule:nonzero;"/><path d="M24685.8,15486.9l-56.137,-1.342c-11.596,-0.279 -27.971,-4.229 -33.975,-15.45c-5.692,-10.595 5.462,-16.683 14.933,-16.454l56.138,1.342c11.595,0.279 27.966,4.229 33.975,15.45c5.675,10.592 -5.467,16.683 -14.934,16.454" style="fill:#fbc60b;fill-rule:nonzero;"/><path d="M24723.2,15598.2c-30.696,1.292 -60.263,-1.558 -90.213,-8.366c-10.462,-2.375 -24.025,-13.254 -20.733,-25.296c3.562,-12.971 21.192,-12.338 31.121,-10.071c20.541,4.654 41.608,6.383 62.637,5.5c12.284,-0.525 28.442,4.275 33.6,16.767c4.754,11.516 -5.046,20.987 -16.412,21.466" style="fill:#fbc60b;fill-rule:nonzero;"/><path d="M24432.4,15448c-23.762,-12.037 -47.508,-24.075 -71.267,-36.1c-6.491,-3.291 -15.641,-11.333 -5.454,-15.812c10.221,-4.508 27.471,2.437 36.463,6.983c23.741,12.038 47.504,24.075 71.266,36.113c6.488,3.275 15.642,11.321 5.455,15.796c-10.238,4.512 -27.488,-2.438 -36.463,-6.98" style="fill:#fbc60b;fill-rule:nonzero;"/><path d="M24283.9,15399.6c10.588,20.35 26.704,38.496 49.129,45.6c7.654,2.421 25,9.517 22.159,20.413c-2.771,10.57 -23.034,7.291 -29.68,5.187c-37.812,-11.979 -71.558,-35.692 -90.162,-71.413c-11.246,-21.604 40.679,-14.891 48.554,0.213" style="fill:#fbc60b;fill-rule:nonzero;"/><path d="M24178.8,15312.3c-20.95,-12.087 -40.796,-25.908 -59.109,-41.704c-7.57,-6.537 -6.25,-13.304 4.217,-14.358c11.529,-1.179 27.717,3.046 36.65,10.762c15.479,13.342 31.858,25.234 49.554,35.446c6.042,3.492 16.058,12.275 5.221,16.625c-10.492,4.192 -27.442,-1.525 -36.533,-6.771" style="fill:#fbc60b;fill-rule:nonzero;"/><path d="M24055.2,15098.1c15.012,20.633 30.037,41.267 45.05,61.917c7.496,10.296 -6.996,16.483 -15.009,16.75c-12.754,0.412 -26.391,-5.125 -33.954,-15.534c-15.025,-20.637 -30.037,-41.27 -45.062,-61.904c-7.484,-10.291 7.008,-16.5 15.02,-16.746c12.755,-0.416 26.396,5.121 33.955,15.517" style="fill:#fbc60b;fill-rule:nonzero;"/><path d="M24002,15200.1l49.608,77.517c6.317,9.858 -6.008,12.208 -13.616,12.012c-10.288,-0.279 -28.2,-4.729 -34.329,-14.283l-49.609,-77.521c-6.316,-9.854 6.009,-12.204 13.617,-12.008c10.287,0.279 28.204,4.725 34.329,14.283" style="fill:#fbc60b;fill-rule:nonzero;"/><path d="M23618.8,13564.6c-26.937,-22.666 -57.387,-37.104 -92.187,-42.541c-7.779,-1.217 -29.188,-7.188 -29.425,-17.746c-0.242,-11.163 14.6,-10.663 22.446,-9.446c52.2,8.158 100.329,29.471 140.8,63.525c8.854,7.467 4.554,14.438 -4.984,16.971c-11.475,3.041 -27.95,-3.446 -36.65,-10.763" style="fill:#fbc60b;fill-rule:nonzero;"/><path d="M23469.7,13393.3c-25.742,-9.863 -51.542,-15.221 -79.079,-16.238c-30.346,-1.133 -38.601,-41.325 -3.226,-40.008c31.946,1.192 63.405,7.529 93.259,18.962c10.492,4.009 24.116,12.913 20.433,26.255c-3.346,12.141 -21.317,14.879 -31.387,11.029" style="fill:#fbc60b;fill-rule:nonzero;"/><path d="M23340.3,13447.3c-18.729,1.591 -37.441,3.204 -56.17,4.8c-11.525,0.996 -28.113,-5.004 -33.938,-15.6c-6.217,-11.309 6.025,-16.259 15.113,-17.038c18.712,-1.596 37.441,-3.204 56.17,-4.8c11.525,-0.983 28.113,5.004 33.934,15.6c6.216,11.321 -6.025,16.259 -15.109,17.038" style="fill:#fbc60b;fill-rule:nonzero;"/><path d="M23180.1,13367.9c-14.804,6.217 -27.587,16.104 -38.233,28.054c-9.771,10.959 -58.929,-8.191 -48.421,-19.996c12.475,-13.995 27.617,-24.041 44.863,-31.275c10.612,-4.454 27.195,1.567 36.495,6.838c6.338,3.579 16.105,11.854 5.296,16.379" style="fill:#fbc60b;fill-rule:nonzero;"/><path d="M23038.6,13488.2c-18.942,9.809 -37.867,19.6 -56.804,29.405c-10.838,5.608 -27.367,0.604 -36.854,-5.667c-7.4,-4.884 -14.929,-15.175 -3.979,-20.863c18.941,-9.791 37.883,-19.596 56.825,-29.404c10.816,-5.592 27.362,-0.604 36.837,5.667c7.413,4.9 14.946,15.196 3.975,20.862" style="fill:#fbc60b;fill-rule:nonzero;"/><path d="M22921.5,13436.9c-13.68,8.396 -27.359,16.808 -41.038,25.208c-9.437,5.8 -24.471,1.225 -33.858,-2.625c-3.171,-1.316 -23.421,-11.766 -14.6,-17.191c13.679,-8.4 27.341,-16.796 41.021,-25.192c9.45,-5.804 24.47,-1.246 33.854,2.621c3.171,1.3 23.442,11.754 14.621,17.179" style="fill:#fbc60b;fill-rule:nonzero;"/><path d="M22780,13587.5c-18.688,4.696 -32.992,18.029 -38.929,36.792c-7.65,24.079 -59.455,8.771 -51.838,-15.225c9.029,-28.425 32.658,-50.521 61.604,-57.8c12.771,-3.209 28.134,-0.013 36.65,10.758c7.104,9.013 4.725,22.4 -7.487,25.475" style="fill:#fbc60b;fill-rule:nonzero;"/></g></svg>