<?xml version="1.0" encoding="UTF-8" standalone="no"?><!DOCTYPE svg PUBLIC "-//W3C//DTD SVG 1.1//EN" "http://www.w3.org/Graphics/SVG/1.1/DTD/svg11.dtd"><svg width="100%" height="100%" viewBox="0 0 8000 4500" version="1.1" xmlns="http://www.w3.org/2000/svg" xmlns:xlink="http://www.w3.org/1999/xlink" xml:space="preserve" xmlns:serif="http://www.serif.com/" style="fill-rule:evenodd;clip-rule:evenodd;stroke-linejoin:round;stroke-miterlimit:2;"><rect x="-669.792" y="-595.54" width="9145.27" height="5608.21" style="fill:#9cff8c;"/><path d="M722.898,3307.82c265.849,-336.665 760.993,43.188 760.993,43.188c-0,0 52.679,-544.282 522.646,-575.479c558.549,-37.079 567.14,508.209 567.14,508.209c0,-0 337.855,-316.123 581.837,1.317c287.826,374.482 -214.025,576.741 -214.025,576.741c0,-0 -13.16,525.365 -475.48,613.919c-481.945,92.314 -639.276,-378.846 -639.276,-378.846c-0,-0 -75.151,489.121 -562.054,445.136c-465.229,-42.026 -297.124,-621.459 -297.124,-621.459c-0,-0 -509.354,-277.52 -244.657,-612.726Z" style="fill:#fff;"/><path d="M2740.74,3719.47c-226.029,364.596 -760.99,43.236 -760.99,43.236c-0,0 9.274,546.746 -454.141,630.945c-550.761,100.069 -621.025,-440.741 -621.025,-440.741c-0,0 -299.897,352.337 -578.246,64.557c-328.368,-339.492 147.361,-597.262 147.361,-597.262c-0,0 -46.398,-523.477 402.926,-663.798c468.397,-146.278 678.054,304.043 678.054,304.043c-0,0 19.297,-494.484 508.05,-505.901c466.996,-10.909 365.565,583.83 365.565,583.83c-0,-0 537.495,218.075 312.446,581.091Z" style="fill:#fff;fill-opacity:0.73;"/><path d="M4479.62,2408.55c408.791,-130.035 606.276,461.957 606.276,461.957c-0,0 348.455,-421.421 755.283,-184.073c483.508,282.084 185.249,738.652 185.249,738.652c0,0 456.942,-72.691 481.3,326.937c28.735,471.438 -500.306,357.954 -500.306,357.954c0,0 -305.121,427.881 -737.735,242.335c-450.977,-193.424 -317.459,-671.877 -317.459,-671.877c0,-0 -336.181,363.137 -714.935,54.018c-361.894,-295.359 101.875,-681.261 101.875,-681.261c-0,0 -266.568,-515.17 140.452,-644.642Z" style="fill:#fff;fill-opacity:0.73;"/><path d="M6725.18,4222.1c-420.883,82.924 -550.084,-527.619 -550.084,-527.619c0,-0 -393.922,379.266 -771.266,97.39c-448.467,-335.006 -100.441,-754.875 -100.441,-754.875c-0,-0 -462.233,20.497 -441.196,-379.319c24.818,-471.661 537.611,-299.018 537.611,-299.018c0,0 351.597,-390.59 760.426,-157.263c426.182,243.231 239.36,703.495 239.36,703.495c-0,0 375.128,-322.747 716.455,27.262c326.132,334.427 -178.341,665.349 -178.341,665.349c0,-0 206.536,542.034 -212.524,624.598Z" style="fill:#fff;"/><ellipse cx="4288.36" cy="5358.5" rx="5717.62" ry="1699.24" style="fill:#19b600;"/><g><path d="M6956.52,934.7c4.318,25.927 6.155,52.553 9.396,78.795c9.687,7.868 14.209,21.572 26.372,25.712c5.942,2.023 44.435,22.845 50.374,24.87c7.016,2.385 13.612,4.462 19.928,6.32c-3.935,-12.476 -7.161,-25.212 -10.294,-37.954c-37.901,-26.425 -71.705,-58.639 -95.776,-97.743" style="fill:#e3b523;fill-rule:nonzero;"/><path d="M6944.65,913.277c-13.89,-28.251 -24.091,-58.476 -31.797,-89.081c-13.831,31.69 -26.565,70.125 -32.871,111.076c15.091,24.196 30.182,48.391 45.273,72.587c8.079,-10.069 23.768,-3.668 35.417,2.288c-3.524,-29.185 -5.437,-58.816 -11.085,-87.394c-1.7,-3.12 -3.36,-6.27 -4.937,-9.476" style="fill:#e3b523;fill-rule:nonzero;"/><path d="M7057.93,1036.32c2.948,11.933 6.01,23.849 9.706,35.531c33.618,9.478 59.759,12.896 98.745,23.345c0.398,-1.587 0.741,-3.256 1.096,-4.909c-18.095,-5.687 -35.68,-12.047 -52.697,-20.7c-19.407,-9.866 -38.563,-20.915 -56.85,-33.267" style="fill:#e3b523;fill-rule:nonzero;"/><path d="M6889.16,880.481c-6.144,12.553 -12.605,24.946 -20.171,36.711c-2.729,4.243 -5.6,8.413 -8.39,12.611c2.533,2.585 5.228,4.99 8.114,7.158c1.913,-3.518 3.829,-7.039 5.742,-10.557c1.07,1.719 2.143,3.435 3.213,5.154c2.921,-17.165 6.889,-34.19 11.492,-51.077" style="fill:#e3b523;fill-rule:nonzero;"/><path d="M7133.57,982.73c-28.892,-9.77 -48.316,-31.178 -74.268,-44.902c-5.103,-0.889 -10.217,-1.845 -15.365,-2.935c-14.43,-3.056 -29.117,-6.433 -43.12,-11.08c-12.936,-4.294 -28.176,-9.165 -40.255,-15.502c-5.401,-2.831 -10.673,-5.9 -15.804,-9.197c4.143,9.594 8.668,19.016 13.678,28.197c14.263,26.143 32.604,48.892 54.141,68.859c48.415,14.705 105.237,10.144 154.649,18.067c1.621,0.258 3.237,0.574 4.857,0.869c-0.377,-8.107 -0.957,-16.123 -1.741,-23.869c-12.747,-2.105 -25.423,-4.667 -36.772,-8.507" style="fill:#e3b523;fill-rule:nonzero;"/><path d="M6893.13,866.443c5.271,-18.034 11.112,-35.91 16.984,-53.642c-0.511,-2.196 -1.046,-4.388 -1.527,-6.582c-4.606,-20.936 -7.627,-42.411 -7.296,-63.714c-16.618,33.7 -48.745,70.79 -70.357,111.099c1.766,27.283 10.571,55.506 27.955,74.394c2.545,-3.801 5.132,-7.588 7.605,-11.435c10.26,-15.94 18.493,-33.037 26.636,-50.12" style="fill:#e3b523;fill-rule:nonzero;"/><path d="M7089.11,1011.58c-23.329,-0.47 -46.322,-2.568 -68.805,-8.468c3.837,3.327 7.763,6.58 11.781,9.748c31.857,25.119 66.898,48.58 103.973,65.22c9.963,4.472 20.737,7.885 31.639,11.226c4.493,-21.556 5.567,-48.106 4.401,-73.831c-9.202,-1.472 -18.491,-2.309 -27.791,-2.822c-18.38,-1.018 -36.8,-0.7 -55.198,-1.073" style="fill:#e3b523;fill-rule:nonzero;"/><path d="M7070.06,939.592c15.073,8.538 25.781,19.892 41.875,29.309c18.14,10.617 37.961,16.605 58.259,20.929c-1.113,-10.664 -2.556,-20.805 -4.27,-29.892c-0.672,-3.581 -1.42,-7.195 -2.056,-10.815c-14.042,-1.13 -28.201,-1.52 -41.461,-3.014c-17.775,-2.003 -35.032,-3.862 -52.347,-6.517" style="fill:#e3b523;fill-rule:nonzero;"/><path d="M7050.57,848.58c-7.937,2.699 -15.875,5.66 -24.043,7.403c20.333,1.773 41.519,3.688 60.98,7.226c15.072,2.743 24.973,5.283 39.62,9.806c4.174,1.287 8.374,2.801 12.542,4.52c6.237,-1.406 12.476,-2.81 18.713,-4.216c-4.198,-15.776 -11.458,-30.328 -20.183,-44.144c-16.788,-0.661 -34.823,3.317 -48.826,7.051c-13.125,3.496 -25.952,7.983 -38.803,12.354" style="fill:#e3b523;fill-rule:nonzero;"/><path d="M6996.2,771.507c-28.876,2.102 -58.033,8.684 -86.137,0.424c1.799,17.049 5.252,34.025 9.421,50.585c1.655,6.573 3.406,13.13 5.264,19.662c0.278,0.299 0.574,0.642 0.907,1.074c8.687,11.253 28.323,5.347 41.976,6.825c13.156,1.427 29.586,3.288 42.766,4.487c2.816,0.258 5.675,0.506 8.548,0.758c14.135,-2.319 28.053,-8.559 41.338,-12.985c16.779,-5.589 33.823,-10.691 51.439,-12.777c7.839,-0.931 16.993,-1.405 26.202,-0.812c-8.65,-13.642 -18.714,-26.576 -28.661,-39.274l-13.269,-16.94c-11.175,-1.032 -22.375,-1.268 -32.33,-1.774c-22.472,-1.145 -45.02,-0.887 -67.464,0.747" style="fill:#e3b523;fill-rule:nonzero;"/><path d="M7023.05,862.187c-25.386,-2.401 -52.035,-4.12 -77.228,-8.192c-6.529,-1.052 -14.075,-3.13 -19.595,-6.744c4.224,14.335 9.008,28.522 14.568,42.387c6.283,7.044 19.692,12.659 26.228,16.091c10.973,5.755 22.448,10.554 34.155,14.603c17.869,6.182 36.262,10.381 54.856,13.579c1.607,0.183 3.001,0.378 3.605,0.607c14.539,2.401 29.188,4.224 43.792,5.922c20.033,2.331 40.18,4.244 60.166,7.117c-1.248,-7.534 -1.91,-15.094 -0.343,-22.51c1.11,-5.255 3.33,-10.639 1.893,-15.812c-1.202,-4.334 -4.732,-7.56 -8.101,-10.539c-6.732,-5.95 -13.464,-11.9 -20.197,-17.85c-9.662,-3.49 -19.568,-6.158 -28.789,-8.5c-27.848,-7.079 -56.454,-7.461 -85.01,-10.159" style="fill:#e3b523;fill-rule:nonzero;"/><path d="M6916.56,603.814c-0.954,0.829 -1.367,2.102 -1.73,3.31c-3.723,12.474 -6.16,25.328 -7.333,38.295c-0.913,10.111 -1.013,20.291 -0.406,30.426c-15.311,13.214 -39.991,53.319 -44.098,60.481c-13.985,24.393 -24.379,51.668 -29.827,79.296c-1.984,10.064 -2.849,21.187 -2.494,32.599c21.353,-41.636 52.221,-78.967 71.539,-121.736c1.301,-12.804 4.378,-34.873 7.095,-37.842c2.713,-2.97 10.008,-3.012 8.894,1.859c-1.113,4.867 -15.525,48.72 -8.639,76.071c23.794,7.286 56.695,2.331 80.111,0.371c22.423,-1.879 44.723,-1.91 67.207,-1.01c12.408,0.496 24.06,1.059 35.75,2.293c-8.189,-10.448 -16.374,-20.898 -24.56,-31.348c-4.973,-6.352 -10.005,-12.758 -16.261,-17.85c-10.793,-8.78 -24.456,-13.056 -37.753,-17.143c-30.479,-9.358 -60.958,-18.721 -91.435,-28.081c-0.235,-23.463 2.132,-46.927 7.419,-69.781c-3.883,2.659 -9.93,-3.296 -13.479,-0.21" style="fill:#e3b523;fill-rule:nonzero;"/><path d="M6989.66,766.943c-23.411,1.961 -56.315,6.918 -80.109,-0.368c-6.886,-27.351 7.527,-71.204 8.64,-76.076c1.116,-4.868 -6.182,-4.824 -8.897,-1.857c-2.712,2.97 -5.792,25.041 -7.093,37.845c-19.318,42.769 -50.188,80.097 -71.541,121.733c0.055,1.788 0.15,3.585 0.268,5.383c21.612,-40.309 53.736,-77.397 70.357,-111.1c-0.335,21.305 2.687,42.781 7.296,63.715c0.483,2.197 1.018,4.388 1.527,6.581c-5.872,17.732 -11.713,35.609 -16.984,53.642c-8.142,17.087 -16.379,34.182 -26.634,50.124c-2.475,3.844 -5.066,7.633 -7.608,11.437c0.564,0.608 1.134,1.212 1.714,1.804c2.789,-4.199 5.658,-8.372 8.388,-12.615c7.571,-11.764 14.032,-24.157 20.176,-36.71c-4.605,16.884 -8.573,33.909 -11.493,51.077c0.772,1.238 1.543,2.477 2.315,3.715c6.306,-40.951 19.039,-79.386 32.87,-111.076c7.706,30.605 17.908,60.83 31.798,89.081c1.576,3.206 3.236,6.355 4.936,9.476c5.649,28.577 7.562,58.209 11.082,87.396c0.257,0.129 0.519,0.26 0.765,0.387c1.621,0.839 3.099,1.842 4.474,2.957c-3.24,-26.242 -5.077,-52.868 -9.396,-78.795c24.074,39.107 57.875,71.317 95.776,97.748c3.133,12.742 6.36,25.473 10.294,37.948c1.704,0.5 3.387,0.986 5.05,1.454c-3.693,-11.684 -6.758,-23.597 -9.706,-35.53c18.286,12.352 37.443,23.4 56.85,33.267c17.02,8.65 34.602,15.013 52.697,20.699c0.07,-0.33 0.15,-0.649 0.219,-0.983c-10.901,-3.338 -21.673,-6.755 -31.634,-11.224c-37.081,-16.641 -72.116,-40.102 -103.976,-65.218c-4.02,-3.171 -7.942,-6.423 -11.784,-9.752c22.486,5.904 45.481,7.999 68.806,8.469c18.401,0.37 36.82,0.057 55.203,1.073c9.296,0.516 18.588,1.351 27.785,2.822c-0.005,-0.122 -0.01,-0.244 -0.015,-0.366c-1.619,-0.295 -3.236,-0.611 -4.853,-0.871c-49.415,-7.921 -106.237,-3.36 -154.654,-18.068c-21.538,-19.966 -39.877,-42.713 -54.139,-68.856c-5.007,-9.183 -9.535,-18.603 -13.678,-28.196c5.131,3.297 10.403,6.366 15.804,9.196c12.078,6.337 27.319,11.208 40.255,15.502c14.003,4.647 28.69,8.024 43.12,11.081c5.147,1.089 10.26,2.042 15.365,2.934c25.952,13.725 45.376,35.132 74.268,44.903c11.349,3.839 24.024,6.401 36.772,8.507c-0.047,-0.473 -0.104,-0.934 -0.153,-1.41c-20.296,-4.322 -40.116,-10.31 -58.259,-20.924c-16.092,-9.42 -26.8,-20.773 -41.873,-29.311c17.313,2.651 34.572,4.514 52.347,6.516c13.259,1.492 27.417,1.881 41.461,3.014c-0.092,-0.523 -0.18,-1.046 -0.267,-1.568c-19.983,-2.87 -40.131,-4.783 -60.163,-7.114c-14.605,-1.698 -29.256,-3.524 -43.796,-5.919c-0.603,-0.235 -1.996,-0.43 -3.604,-0.613c-18.592,-3.195 -36.987,-7.397 -54.856,-13.578c-11.707,-4.05 -23.182,-8.848 -34.155,-14.604c-6.536,-3.432 -19.943,-9.043 -26.226,-16.088c-5.559,-13.865 -10.344,-28.051 -14.57,-42.384c5.517,3.611 13.066,5.687 19.594,6.743c25.197,4.07 51.84,5.788 77.229,8.187c28.558,2.701 57.162,3.081 85.01,10.159c9.224,2.345 19.127,5.01 28.792,8.503c-0.806,-0.71 -1.609,-1.424 -2.415,-2.134c1.744,-0.396 3.488,-0.787 5.235,-1.179c-4.168,-1.719 -8.368,-3.233 -12.543,-4.52c-14.646,-4.523 -24.547,-7.063 -39.617,-9.803c-19.466,-3.539 -40.649,-5.456 -60.986,-7.227c8.169,-1.743 16.11,-4.706 24.047,-7.405c12.848,-4.369 25.677,-8.858 38.803,-12.354c14.004,-3.731 32.037,-7.712 48.826,-7.051c-0.09,-0.144 -0.184,-0.285 -0.277,-0.426c-9.209,-0.593 -18.36,-0.117 -26.202,0.811c-17.616,2.086 -34.66,7.189 -51.439,12.777c-13.285,4.426 -27.201,10.669 -41.336,12.989c-2.872,-0.253 -5.734,-0.504 -8.55,-0.761c-13.18,-1.2 -29.607,-3.063 -42.764,-4.484c-13.655,-1.481 -33.291,4.424 -41.978,-6.829c-0.333,-0.432 -0.627,-0.771 -0.907,-1.074c-1.858,-6.531 -3.609,-13.089 -5.264,-19.661c-4.169,-16.561 -7.622,-33.536 -9.421,-50.586c28.107,8.258 57.262,1.678 86.137,-0.424c22.444,-1.634 44.992,-1.892 67.464,-0.746c9.955,0.506 21.157,0.745 32.33,1.773c-1.123,-1.433 -2.248,-2.87 -3.371,-4.304c-11.689,-1.239 -23.344,-1.799 -35.747,-2.295c-22.487,-0.898 -44.789,-0.87 -67.212,1.009" style="fill:#ffecd5;fill-rule:nonzero;"/></g><ellipse cx="3126.85" cy="-376.286" rx="3266.87" ry="1120.19" style="fill:#138c00;"/><path d="M4692.91,-290.098c-12.207,68.016 168.586,938.409 1815.95,929.158c1081.64,-6.075 1165.2,162.783 1192.43,280.718c131.016,567.618 382.73,2259.04 -382.731,3164.53c-765.461,905.484 -989.498,1073.51 -989.498,1073.51l2331.97,-78.763l641.773,-3661.03l291.715,-2304.55l-1731.62,-183.197l-182.083,1570.85c-0,0 -191.792,-183.612 -1147.47,-59.384c-891.8,115.923 -1828.71,-523.733 -1671.84,-726.957c34.352,-44.503 -158.655,-60.217 -168.586,-4.882Z" style="fill:#955151;"/><g><path d="M1140.08,2927.75c0,-0 -82.942,56.689 -158.409,80.649c-6.323,2.01 -11.66,-5.114 -8.104,-10.722c71.628,-113.035 114.877,-190.369 114.877,-190.369c0,0 -260.912,352.019 -494.43,557.813c-9.448,8.325 -21.976,19.307 -24.866,-10.655c-3.877,-40.15 -17.706,-399.977 -20.485,-472.923c-0.314,-8.283 2.619,-16.276 8.147,-22.444c101.954,-113.768 195.373,-242.363 265.546,-346.356c3.506,-5.195 8.72,-8.85 14.716,-10.662c96.099,-29.093 151.908,-95.175 151.908,-95.175c-0,0 -66.556,44.143 -126.358,61.928c-4.665,1.393 -8.51,-3.827 -5.842,-7.9c57.996,-88.667 93.154,-149.468 93.154,-149.468c-0,0 -111.327,145.863 -243.712,286.61c-2.816,2.995 -7.876,1.029 -7.882,-3.087c-0.148,-71.801 16.602,-183.005 16.602,-183.005c-0,0 -27.146,75.135 -45.455,216.19c-0.789,6.089 -3.531,11.832 -7.839,16.202c-34.356,34.818 -69.409,68.244 -103.723,97.837c-5.934,5.121 -15.166,1.047 -15.505,-6.785l-14.611,-338.419c-0.388,-8.96 2.539,-17.692 8.104,-24.724c99.988,-126.314 174.875,-282.974 174.875,-282.974c0,0 -86.171,130.456 -171.677,216.93c-5.559,5.62 -15.141,1.867 -15.48,-6.021l-15.949,-369.429c-0,0 -25.458,560.487 -24.891,576.418c0.573,15.93 -8.8,10.384 -13.761,5.423c-49.529,-49.529 -99.341,-107.802 -143.989,-163.882c-2.717,-3.408 -4.277,-7.611 -4.541,-11.961c-7.297,-119.561 -28.09,-184.36 -28.09,-184.36c0,-0 6.976,80.249 3.815,139.175c-0.351,6.551 -8.701,9.072 -12.676,3.846c-70.58,-92.667 -120.245,-167.832 -120.245,-167.832c0,0 71.727,150.078 179.923,317.755c3.106,4.819 -1.313,10.896 -6.859,9.435c-109.934,-28.958 -229.766,-96.728 -229.766,-96.728c0,0 99.625,100.808 270.452,148.254c5.269,1.466 9.891,4.683 12.996,9.182c26.037,37.635 53.615,75.227 82.363,111.358c3.186,4.005 4.826,8.985 4.61,14.094c-3.833,90.115 -39.182,921.084 -41.314,956.698c-1.054,17.631 -10.279,12.553 -16.454,6.939c-57.127,-52.024 -115.271,-111.056 -171.067,-171.308c-4.271,-4.615 -7.087,-10.451 -8.141,-16.651c-33.907,-200.432 -77.082,-306.231 -77.082,-306.231c0,-0 28.478,148.272 33.42,249.492c0.284,5.781 -6.927,8.64 -10.766,4.308c-163.407,-184.194 -292.988,-359.008 -292.988,-359.008c0,0 48.82,87.287 129.538,214.501c3.291,5.195 -1.646,11.746 -7.531,9.947c-84.717,-25.969 -179.362,-90.652 -179.362,-90.652c-0,0 79.294,96.617 217.552,138.954c5.373,1.646 10.02,5.004 13.095,9.712c45.461,69.601 98.158,147.132 156.006,226.771c5.121,7.05 -0.9,16.799 -9.478,15.253c-168.448,-30.351 -359.193,-124.848 -359.193,-124.848c0,-0 166.335,153.103 427.542,204.795c9.121,1.806 17.311,6.754 22.999,14.112c36.378,47.039 74.185,93.875 113.009,139.324c7.18,8.4 10.933,19.172 10.458,30.209l-30.517,706.713l221.859,0l-40.74,-943.609c-0.592,-13.761 4.209,-27.152 13.298,-37.499c43.853,-49.899 86.425,-102.108 127.024,-154.607c5.201,-6.73 12.695,-11.253 21.039,-12.905c235.016,-46.577 384.662,-184.323 384.662,-184.323c0,0 -179.522,88.939 -333.544,114.144c-4.011,0.659 -6.729,-3.957 -4.338,-7.235c53.799,-73.705 102.792,-145.628 144.944,-210.095c3.741,-5.719 9.373,-9.799 15.893,-11.845c122.845,-38.51 193.234,-124.274 193.234,-124.274" style="fill:#6b421c;fill-rule:nonzero;"/><path d="M87.238,1993.74c-0,0 -29.087,41.394 -8.369,79.227c20.719,37.832 71.258,35.613 71.258,35.613c0,0 29.673,-40.322 8.375,-79.226c-21.304,-38.898 -71.264,-35.614 -71.264,-35.614" style="fill:#f59e1d;fill-rule:nonzero;"/><path d="M113.602,2959.35c0,0 -36.051,35.49 -22.469,76.435c13.583,40.944 63.697,47.84 63.697,47.84c-0,-0 36.439,-34.338 22.475,-76.435c-13.971,-42.09 -63.703,-47.84 -63.703,-47.84" style="fill:#f59e1d;fill-rule:nonzero;"/><path d="M398.131,1918.45c-0,0 -23.893,44.593 1.226,79.658c25.125,35.065 75.036,26.776 75.036,26.776c-0,0 24.601,-43.6 -1.233,-79.651c-25.827,-36.057 -75.029,-26.783 -75.029,-26.783" style="fill:#f59e1d;fill-rule:nonzero;"/><path d="M802.764,1977.25c-0,0 -48.438,-14.599 -77.84,16.96c-29.402,31.565 -11.407,78.85 -11.407,78.85c-0,0 47.606,15.487 77.84,-16.965c30.227,-32.453 11.407,-78.845 11.407,-78.845" style="fill:#f59e1d;fill-rule:nonzero;"/><path d="M843.087,2250.7c0,-0 -47.137,18.364 -50.835,61.336c-3.698,42.978 39.619,69.12 39.619,69.12c0,-0 47.039,-17.157 50.835,-61.343c3.803,-44.185 -39.619,-69.113 -39.619,-69.113" style="fill:#f59e1d;fill-rule:nonzero;"/><path d="M1262.93,2824.37c0,-0 -44.968,-23.178 -79.626,2.502c-34.659,25.679 -25.575,75.448 -25.575,75.448c-0,0 43.988,23.899 79.627,-2.502c35.632,-26.406 25.574,-75.448 25.574,-75.448" style="fill:#f59e1d;fill-rule:nonzero;"/><path d="M1191.73,3289.83c-0,-0 -9.639,-49.658 -51.267,-60.973c-41.622,-11.314 -75.079,26.635 -75.079,26.635c0,-0 8.468,49.337 51.261,60.966c42.799,11.635 75.085,-26.628 75.085,-26.628" style="fill:#f59e1d;fill-rule:nonzero;"/><path d="M1010.63,3074.17c-0,0 -49.837,8.653 -61.978,50.047c-12.134,41.394 25.144,75.596 25.144,75.596c-0,0 49.491,-7.487 61.971,-50.046c12.479,-42.559 -25.137,-75.597 -25.137,-75.597" style="fill:#f59e1d;fill-rule:nonzero;"/><path d="M883.907,2869.92c-0,-0 -42.238,27.849 -36.828,70.642c5.411,42.793 53.251,59.253 53.251,59.253c0,-0 42.386,-26.647 36.828,-70.642c-5.565,-44.001 -53.251,-59.253 -53.251,-59.253" style="fill:#f59e1d;fill-rule:nonzero;"/><path d="M922.418,2590.03c-0,0 -38.122,-33.253 -77.92,-16.602c-39.792,16.652 -42.867,67.148 -42.867,67.148c-0,-0 37.006,33.721 77.92,16.602c40.907,-17.12 42.867,-67.148 42.867,-67.148" style="fill:#f59e1d;fill-rule:nonzero;"/><path d="M221.622,2032.75c0,-0 -41.332,29.173 -34.566,71.775c6.761,42.602 55.1,57.54 55.1,57.54c0,0 41.518,-27.978 34.566,-71.775c-6.957,-43.804 -55.1,-57.54 -55.1,-57.54" style="fill:#fcd405;fill-rule:nonzero;"/><path d="M-6.892,2920.91c-0,0 -44.815,23.473 -43.724,66.593c1.091,43.126 47.033,64.301 47.033,64.301c-0,-0 44.851,-22.26 43.73,-66.593c-1.122,-44.34 -47.039,-64.301 -47.039,-64.301" style="fill:#fcd405;fill-rule:nonzero;"/><path d="M268.063,3047.37c0,-0 -49.732,9.28 -61.348,50.822c-11.611,41.542 26.092,75.276 26.092,75.276c-0,0 49.405,-8.116 61.348,-50.822c11.937,-42.713 -26.092,-75.276 -26.092,-75.276" style="fill:#fcd405;fill-rule:nonzero;"/><path d="M1047.98,2202.79c0,-0 -48.388,-14.766 -77.895,16.7c-29.506,31.46 -11.666,78.807 -11.666,78.807c0,0 47.557,15.647 77.895,-16.7c30.339,-32.348 11.666,-78.807 11.666,-78.807" style="fill:#fcd405;fill-rule:nonzero;"/><path d="M1049.86,2535.48c0,0 -3.783,-50.453 -43.803,-66.543c-40.02,-16.091 -77.674,17.699 -77.674,17.699c0,-0 2.657,49.997 43.804,66.543c41.148,16.547 77.673,-17.699 77.673,-17.699" style="fill:#fcd405;fill-rule:nonzero;"/><path d="M719.509,2261.86c-0,-0 -45.646,21.821 -46.133,64.953c-0.487,43.132 44.66,65.977 44.66,65.977c-0,0 45.634,-20.608 46.133,-64.954c0.499,-44.352 -44.66,-65.976 -44.66,-65.976" style="fill:#fcd405;fill-rule:nonzero;"/><path d="M1199.49,2705.17c0,-0 -46.977,-18.79 -79.029,10.076c-32.058,28.865 -18.272,77.543 -18.272,77.543c0,0 46.072,19.604 79.029,-10.075c32.958,-29.679 18.272,-77.544 18.272,-77.544" style="fill:#fcd405;fill-rule:nonzero;"/><path d="M1272.45,3130.42c-0,-0 -29.303,-41.24 -71.887,-34.351c-42.583,6.896 -57.373,55.273 -57.373,55.273c-0,-0 28.107,41.437 71.886,34.35c43.785,-7.087 57.374,-55.272 57.374,-55.272" style="fill:#fcd405;fill-rule:nonzero;"/><path d="M518.607,1783.16c-0,-0 -45.554,22.006 -45.856,65.144c-0.308,43.132 44.925,65.786 44.925,65.786c0,0 45.548,-20.793 45.862,-65.145c0.314,-44.346 -44.931,-65.785 -44.931,-65.785" style="fill:#fcd405;fill-rule:nonzero;"/><path d="M36.062,2177.5c0,-0 13.662,48.709 56.067,56.591c42.411,7.882 72.663,-32.668 72.663,-32.668c0,-0 -12.467,-48.487 -56.073,-56.591c-43.6,-8.104 -72.657,32.668 -72.657,32.668" style="fill:#ea5923;fill-rule:nonzero;"/><path d="M46.003,2512.43c-0,-0 38.504,32.815 78.105,15.702c39.594,-17.107 42.09,-67.634 42.09,-67.634c-0,-0 -37.388,-33.297 -78.105,-15.709c-40.71,17.594 -42.09,67.641 -42.09,67.641" style="fill:#ea5923;fill-rule:nonzero;"/><path d="M355.616,3213.16c0,0 -43.384,-26.024 -79.62,-2.637c-36.243,23.393 -30.388,73.636 -30.388,73.636c-0,0 42.361,26.684 79.627,2.638c37.259,-24.053 30.381,-73.637 30.381,-73.637" style="fill:#ea5923;fill-rule:nonzero;"/><path d="M-90.498,3605.34c-0,-0 35.219,36.316 76.262,23.054c41.042,-13.268 48.32,-63.327 48.32,-63.327c0,0 -34.066,-36.692 -76.262,-23.048c-42.201,13.638 -48.32,63.321 -48.32,63.321" style="fill:#ea5923;fill-rule:nonzero;"/><path d="M381.248,2068.75c-0,0 -50.127,6.847 -63.752,47.773c-13.632,40.925 22.382,76.459 22.382,76.459c0,-0 49.738,-5.694 63.752,-47.773c14.014,-42.078 -22.382,-76.459 -22.382,-76.459" style="fill:#ea5923;fill-rule:nonzero;"/><path d="M618.992,1956.25c-0,0 -50.256,-5.793 -73.606,30.474c-23.35,36.267 2.73,79.621 2.73,79.621c-0,-0 49.596,6.816 73.606,-30.474c24.009,-37.29 -2.73,-79.621 -2.73,-79.621" style="fill:#ea5923;fill-rule:nonzero;"/><path d="M821.053,2152.02c-0,0 -34.369,-37.123 -75.708,-24.804c-41.338,12.319 -49.775,62.199 -49.775,62.199c0,-0 33.204,37.468 75.708,24.804c42.503,-12.664 49.775,-62.199 49.775,-62.199" style="fill:#ea5923;fill-rule:nonzero;"/><path d="M1112.13,2341.91c0,-0 -30.609,-40.279 -72.946,-32.015c-42.337,8.258 -55.568,57.084 -55.568,57.084c-0,0 29.42,40.513 72.953,32.021c43.526,-8.492 55.561,-57.09 55.561,-57.09" style="fill:#ea5923;fill-rule:nonzero;"/><path d="M1195.77,3053.69c0,0 -10.427,-49.498 -52.221,-60.153c-41.801,-10.649 -74.648,27.824 -74.648,27.824c0,0 9.244,49.196 52.222,60.147c42.972,10.957 74.647,-27.818 74.647,-27.818" style="fill:#ea5923;fill-rule:nonzero;"/><path d="M1029.3,3407.15c0,0 7.149,-50.077 -28.477,-74.394c-35.626,-24.318 -79.664,0.585 -79.664,0.585c0,0 -8.153,49.393 28.477,74.395c36.631,25.001 79.664,-0.586 79.664,-0.586" style="fill:#ea5923;fill-rule:nonzero;"/><path d="M989.281,2736.16c-0,-0 -42.282,27.781 -36.939,70.58c5.343,42.799 53.153,59.333 53.153,59.333c-0,0 42.429,-26.573 36.938,-70.58c-5.491,-44.001 -53.152,-59.333 -53.152,-59.333" style="fill:#ea5923;fill-rule:nonzero;"/><path d="M-27.598,2301.57c-0,-0 9.219,49.744 50.743,61.41c41.529,11.666 75.306,-25.994 75.306,-25.994c0,-0 -8.048,-49.412 -50.742,-61.41c-42.695,-11.999 -75.307,25.994 -75.307,25.994" style="fill:#f59e1d;fill-rule:nonzero;"/></g><g><path d="M5699.16,288.715c0.566,-2.389 -0.912,-4.786 -3.297,-5.352c-2.389,-0.57 -4.79,0.912 -5.356,3.297c-0.128,0.531 -12.072,50.252 -31.321,87.449c-27.945,6.149 -43.636,26.699 -44.458,27.805c-1.469,1.965 -1.064,4.752 0.904,6.22c0.884,0.659 1.932,0.941 2.953,0.873c1.25,-0.084 2.461,-0.69 3.27,-1.777c0.146,-0.195 9.809,-12.863 27.192,-20.421c-9.753,10.43 -15.436,22.702 -15.82,23.55c-1.013,2.233 -0.027,4.867 2.204,5.884c0.695,0.313 1.425,0.438 2.136,0.391c1.578,-0.105 3.052,-1.052 3.756,-2.591c0.136,-0.298 13.628,-29.32 32.803,-32.726c3.021,-0.057 6.152,0.075 9.403,0.465c2.413,0.313 4.654,-1.44 4.947,-3.881c0.293,-2.434 -1.444,-4.65 -3.881,-4.943c-3.248,-0.394 -6.38,-0.556 -9.42,-0.556c-0.496,-0.104 -1.016,-0.14 -1.555,-0.059c-0.129,0.019 -0.252,0.05 -0.381,0.069c-1.127,0.027 -2.238,0.087 -3.336,0.164c18.029,-37.113 28.757,-81.761 29.257,-83.861" style="fill:#714b39;fill-rule:nonzero;"/><path d="M5639.4,261.53c0.567,-2.389 -0.912,-4.786 -3.297,-5.353c-2.389,-0.57 -4.79,0.912 -5.356,3.298c-0.128,0.53 -12.072,50.252 -31.321,87.449c-27.945,6.149 -43.636,26.699 -44.458,27.805c-1.468,1.964 -1.064,4.751 0.904,6.22c0.885,0.659 1.933,0.941 2.954,0.873c1.249,-0.084 2.46,-0.69 3.269,-1.777c0.146,-0.195 9.809,-12.863 27.193,-20.421c-9.753,10.429 -15.436,22.702 -15.82,23.549c-1.014,2.234 -0.027,4.868 2.207,5.885c0.691,0.313 1.421,0.438 2.133,0.391c1.577,-0.106 3.051,-1.052 3.755,-2.591c0.136,-0.298 13.628,-29.321 32.803,-32.726c3.022,-0.057 6.152,0.075 9.403,0.465c2.413,0.313 4.655,-1.44 4.947,-3.881c0.293,-2.434 -1.443,-4.651 -3.881,-4.943c-3.247,-0.395 -6.38,-0.556 -9.42,-0.557c-0.495,-0.103 -1.016,-0.139 -1.555,-0.059c-0.128,0.02 -0.252,0.05 -0.38,0.07c-1.128,0.027 -2.238,0.087 -3.337,0.164c18.029,-37.113 28.757,-81.762 29.257,-83.861" style="fill:#714b39;fill-rule:nonzero;"/><path d="M5879.03,12.518c-2.736,-4.049 -0.352,-9.826 -2.356,-14.283c-0.296,-0.654 -0.736,-1.314 -1.421,-1.535c-0.859,-0.283 -1.767,0.211 -2.538,0.692c-3.25,2.016 -6.503,4.033 -9.753,6.049c-0.611,-3.328 1.22,-6.579 1.67,-9.934c0.453,-3.356 -1.882,-7.717 -5.152,-6.847c-1.197,0.32 -2.107,1.281 -2.852,2.267c-4.334,5.74 -5.251,13.525 -9.66,19.207c-0.825,1.066 -1.845,2.089 -3.162,2.388c-3.639,0.832 -5.893,-4.246 -5.039,-7.884c0.853,-3.637 3.232,-7.047 2.77,-10.756c-0.179,-1.462 -0.951,-2.987 -2.343,-3.472c-1.152,-0.401 -2.442,0.015 -3.481,0.654c-2.706,1.669 -4.238,4.678 -5.559,7.577c-12.95,80.758 -48.772,138.219 -48.772,138.219l18.52,16.682c38.523,-31.082 69.946,-90.812 89.853,-136.444c-0.471,0.154 -0.932,0.34 -1.418,0.443c-3.387,0.733 -7.367,-0.153 -9.307,-3.023" style="fill:#fcd305;fill-rule:nonzero;"/><path d="M5834.78,-57.887c-0.108,19.024 -1.854,37.295 -4.618,54.527c1.317,-2.898 2.849,-5.907 5.56,-7.577c1.038,-0.639 2.325,-1.055 3.477,-0.654c1.391,0.485 2.163,2.011 2.346,3.472c0.462,3.709 -1.92,7.119 -2.773,10.76c-0.854,3.638 1.4,8.716 5.043,7.88c1.313,-0.298 2.333,-1.322 3.158,-2.388c4.409,-5.678 5.33,-13.463 9.66,-19.203c0.745,-0.99 1.658,-1.95 2.852,-2.267c3.27,-0.874 5.605,3.491 5.155,6.843c-0.45,3.355 -2.28,6.606 -1.673,9.935c3.253,-2.017 6.503,-4.033 9.756,-6.05c0.772,-0.477 1.676,-0.974 2.539,-0.691c0.681,0.224 1.121,0.88 1.417,1.538c2.008,4.457 -0.38,10.23 2.36,14.279c1.939,2.87 5.919,3.756 9.303,3.027c0.489,-0.107 0.951,-0.29 1.422,-0.447c15.023,-34.435 23.491,-60.845 23.491,-60.845l-78.475,-12.139Z" style="fill:#714b39;fill-rule:nonzero;"/><path d="M5427.26,136.497c28.336,-70.095 132.972,-81.011 202.712,-44.75c69.742,36.257 150.41,50.731 186.075,24.664c-0,0 -11.578,192.141 -158.748,215.193c-119.79,18.766 -280.604,-70.016 -230.039,-195.107" style="fill:#fcd305;fill-rule:nonzero;"/><path d="M5424.28,220.402c-0,-0 -9.327,28.311 -4.933,57.133c-0,-0 29.154,-38.403 39.477,-48.512c-0,0 -31.61,0.729 -34.544,-8.621" style="fill:#9c5727;fill-rule:nonzero;"/><path d="M5505.92,210.874c1.325,6.144 -1.906,12.05 -7.21,13.193c-5.307,1.143 -10.68,-2.912 -12.005,-9.055c-1.321,-6.144 1.906,-12.05 7.214,-13.193c5.304,-1.143 10.677,2.912 12.001,9.055" style="fill:#6f3830;fill-rule:nonzero;"/><path d="M5718.6,206.307c75.391,-23.742 86.933,-108.12 87.982,-148.949c-69.646,46.863 -217.236,-2.061 -232.512,90.005c13.757,39.305 63.666,84.409 144.53,58.944" style="fill:#ec6a24;fill-rule:nonzero;"/><path d="M5819.59,118.441c23.919,-22.695 4.266,-76.835 4.266,-76.835c-4.962,6.214 -10.789,11.387 -17.274,15.752c-1.048,40.83 -12.59,125.208 -87.981,148.949c-80.864,25.466 -130.773,-19.639 -144.531,-58.947c-0.053,0.315 -0.122,0.608 -0.172,0.922c-11.854,76.709 103.371,98.615 140.445,87.991c56.74,-16.258 52.23,-44.453 52.23,-44.453c29.804,1.906 37.106,-31.654 37.106,-31.654c24.791,-5.765 15.911,-41.725 15.911,-41.725" style="fill:#714b39;fill-rule:nonzero;"/><path d="M5660.22,109.152c38.868,-0.384 75.819,-4.357 112.393,-18.254c5.42,-2.061 -1.497,-4.958 -4.639,-3.764c-35.165,13.367 -70.581,17.093 -107.928,17.46c-5.355,0.054 -5.173,4.611 0.174,4.558" style="fill:#f5b383;fill-rule:nonzero;"/><path d="M5654.45,124.459c36.124,4.828 78.681,8.134 112.199,-8.899c4.383,-2.229 -3.882,-4.228 -6.406,-2.945c-30.67,15.588 -70.537,11.828 -103.597,7.406c-4.211,-0.563 -8.129,3.646 -2.196,4.438" style="fill:#f5b383;fill-rule:nonzero;"/><path d="M5646.14,144.74c32.585,10.944 66.247,12.06 99.505,3.412c5.565,-1.449 -1.602,-4.366 -4.627,-3.579c-29.582,7.695 -59.741,6.586 -88.712,-3.144c-2.523,-0.846 -10.708,1.785 -6.166,3.311" style="fill:#f5b383;fill-rule:nonzero;"/><path d="M5627.37,163.005c14.855,12.201 32.862,15.865 51.603,17.398c17.011,1.394 34.489,2.623 50.333,-4.747c4.159,-1.937 -4.293,-3.246 -6.379,-2.274c-24.306,11.309 -67.622,4.232 -87.954,-12.466c-1.814,-1.489 -10.244,-0.083 -7.603,2.089" style="fill:#f5b383;fill-rule:nonzero;"/><path d="M5604.89,147.699c1.95,1.987 3.901,3.975 5.852,5.963c2.662,2.714 7.483,2.888 11.032,2.244c1.738,-0.316 3.907,-0.712 5.242,-1.957c0.732,-0.682 1.76,-1.976 0.783,-2.973c-1.951,-1.988 -3.902,-3.976 -5.849,-5.964c-2.665,-2.714 -7.487,-2.884 -11.036,-2.244c-1.737,0.316 -3.907,0.712 -5.242,1.957c-0.731,0.686 -1.76,1.976 -0.782,2.974" style="fill:#f5b383;fill-rule:nonzero;"/><path d="M5621.03,138.546c2.038,0.978 4.081,1.956 6.12,2.931c1.564,0.751 4.064,0.699 5.696,0.309c1.473,-0.351 3.42,-1.243 4.309,-2.569c0.792,-1.182 1.266,-2.676 0.589,-4.053c-0.745,-1.513 -2.022,-2.283 -3.506,-2.991c-2.039,-0.978 -4.082,-1.957 -6.12,-2.931c-1.565,-0.751 -4.064,-0.699 -5.697,-0.309c-1.473,0.35 -3.42,1.243 -4.309,2.568c-0.791,1.183 -1.266,2.677 -0.589,4.054c0.746,1.512 2.026,2.282 3.507,2.991" style="fill:#f5b383;fill-rule:nonzero;"/><path d="M5645.24,118.669c-0.041,-1.112 -2.294,-2.476 -3.032,-2.664c-1.138,-0.29 -9.313,-2.329 -10.758,-2.399c-2.199,-0.109 -5.049,-0.089 -6.779,0.841c-1.751,0.943 -3.043,3.617 0.114,5.639c4.142,2.649 13.354,2.978 16.341,2.579c2.988,-0.396 4.156,-2.918 4.114,-3.996" style="fill:#f5b383;fill-rule:nonzero;"/><path d="M5642.7,100.461c-1.046,-0.133 -2.083,-0.301 -3.118,-0.491c-0.067,-0.014 -0.086,-0.017 -0.134,-0.025c-0.069,-0.021 -0.118,-0.036 -0.227,-0.066c-0.506,-0.14 -1.017,-0.262 -1.526,-0.402c-1.747,-0.487 -3.647,-0.597 -5.429,-0.222c-1.332,0.281 -3.234,0.971 -4.124,2.111c-1.962,2.516 0.083,4.968 2.743,5.708c2.75,0.761 5.563,1.351 8.393,1.71c1.741,0.224 3.761,0.03 5.397,-0.634c1.089,-0.443 2.739,-1.412 3.133,-2.661c0.974,-3.108 -2.636,-4.711 -5.108,-5.028" style="fill:#f5b383;fill-rule:nonzero;"/><path d="M5534.9,289.41c4.375,-1.514 8.874,-2.622 13.485,-3.118c1.878,-0.203 4.366,-1.158 4.317,-3.443c-0.048,-2.107 -2.76,-3.296 -4.569,-3.102c-5.412,0.58 -10.69,1.662 -15.837,3.442c-1.773,0.614 -3.755,1.98 -2.948,4.144c0.717,1.926 3.779,2.691 5.552,2.077" style="fill:#fdec59;fill-rule:nonzero;"/><path d="M5570.75,288.127c2.062,-0.053 4.044,0.57 5.885,1.466c1.818,0.886 4.174,0.847 6.099,0.348c0.826,-0.218 3.341,-1.378 1.511,-2.27c-4.294,-2.095 -8.857,-2.894 -13.618,-2.776c-0.95,0.027 -4.44,0.278 -4.383,1.789c0.059,1.503 3.693,1.464 4.506,1.443" style="fill:#fdec59;fill-rule:nonzero;"/><path d="M5551.02,300.345c3.437,0.456 6.83,1.096 10.182,1.998c1.957,0.528 4.392,0.617 6.283,-0.242c1.408,-0.638 1.669,-1.833 -0.091,-2.304c-3.952,-1.066 -7.94,-1.903 -11.997,-2.44c-1.756,-0.234 -4.599,-0.448 -6.055,0.816c-1.4,1.219 0.516,2.02 1.678,2.172" style="fill:#fdec59;fill-rule:nonzero;"/><path d="M5566.91,315.831c4.098,1.763 8.499,2.251 12.916,1.797c1.747,-0.183 4.578,-0.928 5.557,-2.563c0.98,-1.635 -1.07,-1.887 -2.287,-1.762c-3.317,0.344 -6.446,-0.317 -9.492,-1.629c-1.711,-0.737 -4.52,0.454 -5.962,1.365c-1.098,0.692 -2.482,2.039 -0.732,2.792" style="fill:#fdec59;fill-rule:nonzero;"/><path d="M5589.63,305.469c3.124,0.261 6.248,0.523 9.373,0.785c1.537,0.13 4.68,-0.001 5.404,-1.746c0.737,-1.767 -2.036,-2.489 -3.205,-2.585c-3.124,-0.262 -6.248,-0.523 -9.372,-0.785c-1.538,-0.131 -4.681,0.001 -5.405,1.745c-0.737,1.768 2.036,2.486 3.205,2.586" style="fill:#fdec59;fill-rule:nonzero;"/><path d="M5622.18,324.752l9.491,-1.252c1.571,-0.208 3.812,-1.754 2.968,-3.571c-0.912,-1.972 -3.772,-1.981 -5.537,-1.749c-3.164,0.419 -6.328,0.837 -9.492,1.252c-1.574,0.209 -3.815,1.754 -2.972,3.572c0.917,1.971 3.776,1.981 5.542,1.748" style="fill:#fdec59;fill-rule:nonzero;"/><path d="M5624.32,291.747c3.459,0.788 6.918,1.572 10.377,2.359c1.733,0.392 4.682,0.417 6.05,-0.944c1.386,-1.381 -0.386,-2.355 -1.699,-2.653c-3.458,-0.784 -6.917,-1.571 -10.373,-2.355c-1.737,-0.395 -4.682,-0.421 -6.053,0.945c-1.386,1.381 0.386,2.351 1.698,2.648" style="fill:#fdec59;fill-rule:nonzero;"/><path d="M5624.3,306.989c4.336,1.547 8.755,2.515 13.333,2.983c1.416,0.143 4.705,0.042 5.413,-1.553c0.744,-1.672 -2.224,-2.148 -3.193,-2.246c-3.218,-0.329 -6.328,-1.058 -9.374,-2.144c-1.897,-0.677 -4.461,-0.713 -6.282,0.242c-1.467,0.768 -1.63,2.101 0.103,2.718" style="fill:#fdec59;fill-rule:nonzero;"/><path d="M5675.26,315.039c1.981,-0.672 3.961,-1.345 5.938,-2.021c1.173,-0.397 3.089,-1.595 1.49,-2.799c-1.524,-1.15 -4.396,-1.069 -6.104,-0.485c-1.981,0.673 -3.961,1.345 -5.942,2.018c-1.169,0.4 -3.089,1.599 -1.487,2.802c1.525,1.147 4.393,1.066 6.105,0.485" style="fill:#fdec59;fill-rule:nonzero;"/><path d="M5659.21,300.444c3.189,0.457 6.378,0.918 9.567,1.375c1.895,0.274 4.688,-0.331 5.379,-2.399c0.689,-2.053 -1.514,-3.487 -3.249,-3.737c-3.189,-0.458 -6.378,-0.915 -9.567,-1.376c-1.895,-0.27 -4.687,0.335 -5.383,2.399c-0.688,2.057 1.518,3.487 3.253,3.738" style="fill:#fdec59;fill-rule:nonzero;"/><path d="M5703.72,303.528l14.242,-5.086c1.631,-0.583 3.9,-2.216 3.249,-4.246c-0.64,-1.997 -3.624,-1.928 -5.164,-1.377c-4.749,1.694 -9.497,3.392 -14.242,5.087c-1.635,0.583 -3.899,2.215 -3.253,4.245c0.641,1.998 3.624,1.928 5.168,1.377" style="fill:#fdec59;fill-rule:nonzero;"/></g><g><path d="M7068.03,342.439c-0.108,-2.453 1.794,-4.529 4.244,-4.638c2.454,-0.111 4.533,1.795 4.641,4.245c0.026,0.545 2.421,51.625 14.342,91.775c26.293,11.288 37.845,34.418 38.445,35.659c1.074,2.205 0.153,4.867 -2.056,5.939c-0.992,0.482 -2.075,0.562 -3.065,0.303c-1.212,-0.317 -2.287,-1.14 -2.877,-2.359c-0.107,-0.219 -7.219,-14.476 -22.874,-25.165c7.621,12.076 10.898,25.197 11.116,26.102c0.576,2.384 -0.888,4.786 -3.269,5.366c-0.742,0.177 -1.483,0.163 -2.172,-0.017c-1.53,-0.4 -2.8,-1.606 -3.203,-3.25c-0.077,-0.318 -7.879,-31.358 -26.074,-38.304c-2.956,-0.623 -6.056,-1.082 -9.322,-1.309c-2.429,-0.146 -4.301,-2.288 -4.13,-4.741c0.169,-2.446 2.291,-4.297 4.74,-4.127c3.264,0.223 6.37,0.653 9.356,1.223c0.507,-0.009 1.025,0.054 1.539,0.234c0.123,0.043 0.239,0.097 0.361,0.14c1.102,0.238 2.182,0.505 3.246,0.787c-10.739,-39.838 -12.891,-85.707 -12.988,-87.863" style="fill:#714b39;fill-rule:nonzero;"/><path d="M7131.84,326.96c-0.108,-2.452 1.794,-4.529 4.243,-4.638c2.454,-0.111 4.534,1.796 4.642,4.245c0.026,0.545 2.42,51.625 14.341,91.775c26.293,11.288 37.846,34.418 38.446,35.659c1.073,2.205 0.153,4.867 -2.056,5.94c-0.993,0.481 -2.075,0.561 -3.065,0.302c-1.212,-0.316 -2.288,-1.14 -2.878,-2.359c-0.107,-0.219 -7.219,-14.476 -22.874,-25.164c7.621,12.075 10.898,25.197 11.116,26.101c0.577,2.385 -0.887,4.786 -3.272,5.366c-0.738,0.177 -1.479,0.163 -2.169,-0.017c-1.53,-0.4 -2.799,-1.606 -3.202,-3.25c-0.077,-0.318 -7.879,-31.358 -26.074,-38.304c-2.957,-0.623 -6.056,-1.082 -9.323,-1.309c-2.428,-0.146 -4.301,-2.288 -4.13,-4.741c0.17,-2.445 2.291,-4.297 4.74,-4.126c3.264,0.222 6.371,0.652 9.357,1.222c0.506,-0.009 1.025,0.054 1.539,0.234c0.122,0.044 0.238,0.097 0.36,0.14c1.103,0.239 2.183,0.505 3.247,0.787c-10.739,-39.837 -12.891,-85.706 -12.988,-87.863" style="fill:#714b39;fill-rule:nonzero;"/><path d="M6943.23,37.378c3.448,-3.464 2.191,-9.585 4.996,-13.587c0.414,-0.587 0.97,-1.152 1.684,-1.24c0.897,-0.117 1.696,0.538 2.363,1.156c2.814,2.59 5.63,5.182 8.444,7.773c1.225,-3.155 0.037,-6.692 0.225,-10.072c0.185,-3.381 3.297,-7.226 6.346,-5.757c1.116,0.539 1.829,1.654 2.375,2.762c3.18,6.452 2.618,14.271 5.881,20.679c0.611,1.202 1.421,2.399 2.658,2.94c3.419,1.5 6.585,-3.064 6.43,-6.797c-0.155,-3.733 -1.851,-7.529 -0.701,-11.085c0.451,-1.402 1.496,-2.756 2.953,-2.971c1.207,-0.177 2.397,0.473 3.297,1.297c2.344,2.147 3.284,5.39 4.037,8.485c-2.446,81.754 21.947,144.92 21.947,144.92l-21.323,12.906c-32,-37.763 -51.647,-102.331 -62.631,-150.89c0.434,0.24 0.852,0.509 1.31,0.702c3.189,1.356 7.265,1.233 9.709,-1.221" style="fill:#fcd305;fill-rule:nonzero;"/><path d="M6999.92,-23.464c-3.467,18.706 -5.183,36.98 -5.704,54.424c-0.75,-3.094 -1.689,-6.337 -4.038,-8.485c-0.9,-0.824 -2.085,-1.473 -3.293,-1.296c-1.457,0.215 -2.502,1.568 -2.956,2.97c-1.15,3.556 0.55,7.353 0.704,11.089c0.155,3.733 -3.012,8.298 -6.434,6.793c-1.233,-0.54 -2.043,-1.737 -2.653,-2.939c-3.264,-6.405 -2.707,-14.225 -5.882,-20.675c-0.546,-1.113 -1.263,-2.228 -2.375,-2.763c-3.048,-1.472 -6.162,2.377 -6.349,5.753c-0.188,3.38 1,6.917 -0.222,10.073c-2.817,-2.592 -5.63,-5.183 -8.447,-7.775c-0.668,-0.613 -1.462,-1.271 -2.363,-1.155c-0.712,0.092 -1.267,0.654 -1.681,1.244c-2.81,4.001 -1.548,10.12 -5,13.583c-2.443,2.454 -6.519,2.577 -9.706,1.225c-0.46,-0.197 -0.879,-0.463 -1.312,-0.706c-8.29,-36.643 -11.647,-64.174 -11.647,-64.174l79.358,2.814Z" style="fill:#714b39;fill-rule:nonzero;"/><path d="M7363.69,243.991c-14.668,-74.169 -115.393,-104.541 -190.701,-82.022c-75.311,22.515 -157.261,21.583 -187.397,-10.718c0,0 -24.711,190.897 115.512,241.176c114.135,40.928 288.761,-16.075 262.586,-148.436" style="fill:#fcd305;fill-rule:nonzero;"/><path d="M7350.85,326.963c-0,-0 3.843,29.559 -5.884,57.042c-0,0 -21.425,-43.194 -29.665,-55.062c-0,0 30.911,6.652 35.549,-1.98" style="fill:#9c5727;fill-rule:nonzero;"/><path d="M7272.45,302.272c-2.455,5.786 -0.391,12.194 4.604,14.312c4.998,2.12 11.037,-0.854 13.492,-6.64c2.451,-5.786 0.391,-12.193 -4.608,-14.312c-4.995,-2.119 -11.034,0.855 -13.488,6.64" style="fill:#6f3830;fill-rule:nonzero;"/><path d="M7064.42,257.847c-69.592,-37.477 -65.083,-122.522 -58.445,-162.822c59.606,59.109 213.758,38.772 211.473,132.069c-20.894,36.021 -78.385,70.951 -153.028,30.753" style="fill:#ec6a24;fill-rule:nonzero;"/><path d="M6981.72,152.579c-19.232,-26.783 10.239,-76.269 10.239,-76.269c3.706,7.036 8.458,13.211 14.008,18.716c-6.638,40.3 -11.147,125.344 58.445,162.822c74.643,40.198 132.134,5.268 153.029,-30.757c-0.007,0.319 0.006,0.62 -0.005,0.938c-2.762,77.569 -120.05,77.447 -154.469,60.05c-52.678,-26.624 -42.953,-53.47 -42.953,-53.47c-29.632,-3.725 -30.502,-38.059 -30.502,-38.059c-23.267,-10.318 -7.792,-43.971 -7.792,-43.971" style="fill:#714b39;fill-rule:nonzero;"/><path d="M7140.01,173.384c-38.105,-7.676 -73.652,-18.517 -106.965,-39.035c-4.937,-3.043 2.401,-4.589 5.263,-2.826c32.029,19.733 66.115,30.043 102.729,37.418c5.249,1.058 4.214,5.5 -1.027,4.443" style="fill:#f5b383;fill-rule:nonzero;"/><path d="M7142.79,189.502c-36.388,-2.042 -78.81,-6.786 -108.532,-29.811c-3.886,-3.012 4.607,-3.424 6.846,-1.69c27.197,21.07 67.06,24.864 100.362,26.729c4.242,0.238 7.3,5.107 1.324,4.772" style="fill:#f5b383;fill-rule:nonzero;"/><path d="M7147.15,210.983c-34.061,4.63 -67.333,-0.596 -98.376,-15.335c-5.194,-2.469 2.393,-3.988 5.216,-2.647c27.611,13.113 57.441,17.688 87.725,13.572c2.636,-0.358 10.182,3.763 5.435,4.41" style="fill:#f5b383;fill-rule:nonzero;"/><path d="M7162.16,232.448c-16.882,9.194 -35.256,9.411 -53.952,7.398c-16.97,-1.825 -34.368,-3.9 -48.546,-14.115c-3.721,-2.683 4.826,-2.382 6.693,-1.035c21.749,15.672 65.624,16.855 88.73,4.273c2.061,-1.123 10.077,1.842 7.075,3.479" style="fill:#f5b383;fill-rule:nonzero;"/><path d="M7187.11,221.636c-2.289,1.586 -4.579,3.173 -6.868,4.759c-3.124,2.166 -7.893,1.431 -11.257,0.132c-1.648,-0.636 -3.704,-1.433 -4.782,-2.906c-0.59,-0.807 -1.357,-2.272 -0.21,-3.068c2.289,-1.586 4.579,-3.172 6.864,-4.759c3.128,-2.165 7.896,-1.427 11.261,-0.132c1.648,0.637 3.704,1.434 4.782,2.907c0.59,0.811 1.357,2.271 0.21,3.067" style="fill:#f5b383;fill-rule:nonzero;"/><path d="M7172.97,209.614c-2.186,0.578 -4.376,1.155 -6.561,1.73c-1.678,0.444 -4.124,-0.077 -5.654,-0.767c-1.381,-0.62 -3.126,-1.863 -3.75,-3.332c-0.555,-1.309 -0.74,-2.866 0.183,-4.091c1.016,-1.346 2.415,-1.863 4.006,-2.28c2.186,-0.578 4.376,-1.155 6.561,-1.73c1.678,-0.443 4.123,0.077 5.654,0.767c1.38,0.621 3.125,1.863 3.75,3.332c0.555,1.31 0.74,2.867 -0.183,4.092c-1.016,1.346 -2.419,1.861 -4.006,2.279" style="fill:#f5b383;fill-rule:nonzero;"/><path d="M7152.93,185.544c0.249,-1.084 2.718,-2.001 3.479,-2.046c1.172,-0.072 9.584,-0.54 11.016,-0.337c2.181,0.306 4.976,0.861 6.501,2.099c1.543,1.255 2.31,4.124 -1.17,5.518c-4.567,1.823 -13.677,0.417 -16.536,-0.536c-2.86,-0.95 -3.534,-3.646 -3.29,-4.698" style="fill:#f5b383;fill-rule:nonzero;"/><path d="M7158.84,168.139c1.053,0.064 2.103,0.094 3.155,0.102c0.069,-0.001 0.087,-0 0.137,0.001c0.07,-0.008 0.122,-0.014 0.235,-0.022c0.523,-0.043 1.048,-0.066 1.574,-0.108c1.808,-0.15 3.694,0.098 5.374,0.8c1.256,0.527 2.994,1.562 3.654,2.849c1.454,2.839 -1.014,4.863 -3.766,5.091c-2.844,0.231 -5.717,0.282 -8.565,0.103c-1.752,-0.106 -3.699,-0.676 -5.182,-1.636c-0.986,-0.639 -2.424,-1.901 -2.577,-3.201c-0.373,-3.236 3.474,-4.133 5.961,-3.979" style="fill:#f5b383;fill-rule:nonzero;"/><path d="M7229.24,373.969c-4.013,-2.309 -8.224,-4.241 -12.659,-5.595c-1.807,-0.552 -4.071,-1.957 -3.594,-4.192c0.443,-2.061 3.33,-2.72 5.07,-2.189c5.207,1.586 10.188,3.64 14.909,6.355c1.626,0.936 3.317,2.65 2.117,4.624c-1.066,1.756 -4.216,1.934 -5.843,0.997" style="fill:#fdec59;fill-rule:nonzero;"/><path d="M7194.28,365.977c-2.016,-0.439 -4.08,-0.199 -6.056,0.335c-1.952,0.529 -4.259,0.048 -6.056,-0.803c-0.771,-0.369 -3.022,-1.981 -1.058,-2.514c4.611,-1.251 9.243,-1.179 13.898,-0.169c0.928,0.205 4.308,1.107 3.969,2.58c-0.341,1.465 -3.902,0.745 -4.697,0.571" style="fill:#fdec59;fill-rule:nonzero;"/><path d="M7211.36,381.683c-3.462,-0.198 -6.915,-0.207 -10.377,0.05c-2.021,0.151 -4.43,-0.218 -6.125,-1.417c-1.264,-0.892 -1.296,-2.114 0.522,-2.247c4.081,-0.304 8.156,-0.378 12.241,-0.143c1.769,0.1 4.602,0.424 5.795,1.938c1.145,1.46 -0.887,1.888 -2.056,1.819" style="fill:#fdec59;fill-rule:nonzero;"/><path d="M7192.84,393.909c-4.356,0.962 -8.771,0.614 -13.024,-0.661c-1.681,-0.508 -4.322,-1.771 -4.977,-3.561c-0.655,-1.79 1.406,-1.653 2.578,-1.301c3.193,0.961 6.39,0.898 9.628,0.183c1.82,-0.403 4.355,1.294 5.601,2.46c0.948,0.885 2.054,2.469 0.194,2.88" style="fill:#fdec59;fill-rule:nonzero;"/><path d="M7172.47,379.465c-3.118,-0.33 -6.236,-0.659 -9.353,-0.989c-1.535,-0.16 -4.597,-0.88 -4.981,-2.729c-0.392,-1.874 2.468,-2.063 3.634,-1.938c3.118,0.33 6.235,0.66 9.353,0.989c1.535,0.161 4.597,0.88 4.98,2.729c0.393,1.875 -2.466,2.06 -3.633,1.938" style="fill:#fdec59;fill-rule:nonzero;"/><path d="M7136.88,392.292l-9.087,-3.012c-1.504,-0.5 -3.415,-2.439 -2.245,-4.065c1.267,-1.766 4.077,-1.238 5.767,-0.678c3.029,1.006 6.058,2.011 9.088,3.012c1.507,0.501 3.418,2.44 2.248,4.066c-1.27,1.765 -4.08,1.237 -5.771,0.677" style="fill:#fdec59;fill-rule:nonzero;"/><path d="M7140.98,359.473c-3.546,0.124 -7.09,0.244 -10.635,0.368c-1.776,0.059 -4.678,-0.47 -5.766,-2.064c-1.101,-1.616 0.822,-2.24 2.167,-2.286c3.545,-0.12 7.09,-0.244 10.631,-0.365c1.78,-0.062 4.678,0.466 5.769,2.065c1.101,1.616 -0.822,2.236 -2.166,2.282" style="fill:#fdec59;fill-rule:nonzero;"/><path d="M7138.13,374.447c-4.549,0.705 -9.071,0.826 -13.656,0.426c-1.418,-0.126 -4.629,-0.843 -5.025,-2.542c-0.417,-1.782 2.588,-1.692 3.559,-1.606c3.222,0.28 6.414,0.148 9.609,-0.346c1.99,-0.308 4.516,0.138 6.125,1.417c1.297,1.03 1.207,2.37 -0.612,2.651" style="fill:#fdec59;fill-rule:nonzero;"/><path d="M7086.57,372.784c-1.819,-1.033 -3.638,-2.066 -5.452,-3.101c-1.078,-0.61 -2.735,-2.146 -0.939,-3.029c1.714,-0.843 4.519,-0.224 6.088,0.67c1.819,1.033 3.637,2.066 5.456,3.098c1.074,0.613 2.734,2.15 0.934,3.032c-1.712,0.839 -4.514,0.222 -6.087,-0.67" style="fill:#fdec59;fill-rule:nonzero;"/><path d="M7105.07,361.462c-3.218,-0.149 -6.437,-0.295 -9.655,-0.445c-1.913,-0.088 -4.542,-1.206 -4.833,-3.367c-0.291,-2.145 2.142,-3.14 3.893,-3.061c3.218,0.15 6.436,0.299 9.655,0.445c1.912,0.091 4.541,1.21 4.836,3.368c0.29,2.149 -2.145,3.14 -3.896,3.06" style="fill:#fdec59;fill-rule:nonzero;"/><path d="M7060.78,356.134l-13.033,-7.671c-1.493,-0.879 -3.414,-2.908 -2.394,-4.78c1.004,-1.841 3.921,-1.213 5.331,-0.383c4.346,2.556 8.691,5.116 13.033,7.671c1.496,0.88 3.414,2.908 2.398,4.781c-1.005,1.841 -3.922,1.213 -5.335,0.382" style="fill:#fdec59;fill-rule:nonzero;"/></g><g><path d="M4786.41,404.278c-23.501,11.77 -46.108,25.957 -69.23,38.783c-12.063,-3.2 -25.802,1.211 -36.309,-6.185c-5.132,-3.614 -44.623,-22.475 -49.755,-26.085c-6.058,-4.268 -11.62,-8.378 -16.839,-12.39c12.402,-4.163 24.596,-9.051 36.742,-14.018c43.671,15.086 89.61,23.452 135.391,19.895" style="fill:#e3b523;fill-rule:nonzero;"/><path d="M4810.71,401.258c31.015,-5.4 61.454,-14.943 90.731,-26.728c-17.477,29.834 -41.054,62.751 -70.448,91.954c-28.443,2.041 -56.885,4.083 -85.328,6.125c3.384,-12.458 -11.025,-21.373 -22.697,-27.284c25.668,-14.331 50.749,-30.225 77.176,-42.48c3.523,-0.462 7.047,-0.974 10.566,-1.587" style="fill:#e3b523;fill-rule:nonzero;"/><path d="M4644.57,382.107c-11.383,4.64 -22.818,9.179 -34.437,13.067c-27.45,-21.599 -45.6,-40.72 -76.995,-66.087c1.049,-1.256 2.196,-2.515 3.324,-3.775c15.248,11.281 30.74,21.753 47.752,30.417c19.399,9.882 39.607,18.865 60.356,26.378" style="fill:#e3b523;fill-rule:nonzero;"/><path d="M4869.89,426.814c-6.532,12.357 -12.748,24.874 -17.805,37.915c-1.824,4.704 -3.505,9.48 -5.257,14.206c-3.58,-0.526 -7.111,-1.289 -10.563,-2.346c1.719,-3.617 3.437,-7.239 5.156,-10.856c-2.02,0.147 -4.039,0.29 -6.058,0.436c12.157,-12.465 23.584,-25.694 34.527,-39.355" style="fill:#e3b523;fill-rule:nonzero;"/><path d="M4643.37,289.417c24.904,17.605 53.644,20.707 80.014,33.609c3.723,3.602 7.506,7.174 11.416,10.694c10.965,9.867 22.34,19.753 34.339,28.337c11.085,7.931 23.994,17.384 36.226,23.419c5.468,2.7 11.052,5.155 16.737,7.363c-10.194,2.297 -20.474,4.185 -30.845,5.538c-29.529,3.858 -58.717,2.422 -87.535,-3.237c-40.385,-30.484 -70.144,-79.105 -105.633,-114.387c-1.162,-1.158 -2.369,-2.279 -3.561,-3.414c6.776,-4.468 13.597,-8.717 20.32,-12.642c9.205,9.066 18.738,17.804 28.522,24.72" style="fill:#e3b523;fill-rule:nonzero;"/><path d="M4878.9,415.346c11.476,-14.876 22.49,-30.12 33.368,-45.304c2.076,-0.88 4.163,-1.737 6.22,-2.64c19.636,-8.599 38.776,-18.797 55.802,-31.605c-17.463,33.271 -28.537,81.075 -48.402,122.273c-23.096,14.631 -51.094,24.125 -76.596,21.189c1.575,-4.295 3.113,-8.615 4.768,-12.879c6.847,-17.677 15.823,-34.395 24.84,-51.034" style="fill:#e3b523;fill-rule:nonzero;"/><path d="M4646.22,342.337c14.112,18.583 29.341,35.937 47.345,50.639c-4.948,-1.143 -9.889,-2.403 -14.815,-3.786c-39.058,-10.969 -78.649,-25.487 -113.924,-45.665c-9.48,-5.422 -18.58,-12.123 -27.698,-18.97c14.781,-16.32 35.613,-32.816 57.095,-47.015c6.607,6.573 12.751,13.59 18.64,20.806c11.642,14.259 22.227,29.337 33.357,43.991" style="fill:#e3b523;fill-rule:nonzero;"/><path d="M4715.63,315.371c-15.774,-7.16 -31.255,-9.134 -48.342,-16.602c-19.26,-8.415 -35.767,-20.914 -51.211,-34.778c9.277,-5.377 18.324,-10.179 26.679,-14.142c3.29,-1.565 6.652,-3.088 9.954,-4.705c9.178,10.687 17.827,21.904 26.84,31.745c12.082,13.19 23.743,26.047 36.08,38.482" style="fill:#e3b523;fill-rule:nonzero;"/><path d="M4800.67,277.551c2.489,8.005 4.768,16.165 8.167,23.795c-13.401,-15.395 -27.419,-31.395 -41.735,-45.045c-11.089,-10.57 -18.97,-17.079 -31.247,-26.257c-3.497,-2.618 -7.194,-5.122 -11.037,-7.48c-2.534,-5.869 -5.072,-11.739 -7.607,-17.609c15.225,-5.892 31.263,-8.588 47.567,-9.667c10.416,13.183 17.817,30.104 23.04,43.622c4.899,12.669 8.821,25.679 12.852,38.641" style="fill:#e3b523;fill-rule:nonzero;"/><path d="M4894.98,276.139c15.297,24.581 27.138,52.027 50.358,69.884c-14.842,8.581 -30.598,15.782 -46.44,22.16c-6.287,2.53 -12.619,4.974 -18.993,7.317c-0.406,-0.049 -0.857,-0.086 -1.402,-0.101c-14.21,-0.399 -20.994,-19.749 -30.225,-29.917c-8.897,-9.796 -20.072,-21.982 -28.8,-31.932c-1.865,-2.125 -3.749,-4.291 -5.644,-6.464c-6.445,-12.792 -9.592,-27.717 -13.834,-41.062c-5.358,-16.853 -11.266,-33.635 -19.948,-49.105c-3.862,-6.885 -8.867,-14.564 -14.767,-21.659c16.121,-1.038 32.5,-0.515 48.62,0.052l21.505,0.756c7.412,8.427 14.195,17.343 20.464,25.092c14.153,17.493 27.216,35.873 39.106,54.979" style="fill:#e3b523;fill-rule:nonzero;"/><path d="M4805.87,307.809c16.884,19.109 33.959,39.64 52.08,57.611c4.692,4.659 10.814,9.536 16.985,11.871c-14.075,5.023 -28.36,9.506 -42.841,13.172c-9.393,-0.933 -21.824,-8.468 -28.446,-11.732c-11.112,-5.483 -21.746,-11.935 -31.91,-19.016c-15.515,-10.807 -29.736,-23.204 -43.265,-36.354c-1.095,-1.192 -2.072,-2.203 -2.614,-2.557c-10.498,-10.341 -20.595,-21.11 -30.563,-31.917c-13.676,-14.823 -27.081,-29.984 -41.167,-44.45c6.825,-3.425 13.326,-7.34 18.399,-12.973c3.594,-3.989 6.64,-8.953 11.668,-10.837c4.211,-1.579 8.896,-0.624 13.288,0.346c8.773,1.94 17.546,3.881 26.318,5.821c8.51,5.757 16.497,12.195 23.818,18.271c22.114,18.346 39.261,41.246 58.25,62.744" style="fill:#e3b523;fill-rule:nonzero;"/><path d="M5077.43,241.822c-0.109,1.26 -0.895,2.343 -1.658,3.347c-7.893,10.352 -16.85,19.888 -26.642,28.469c-7.637,6.689 -15.808,12.762 -24.358,18.237c-1.67,20.155 -19.565,63.714 -22.938,71.249c-11.488,25.664 -27.42,50.121 -46.548,70.787c-6.968,7.528 -15.451,14.774 -24.886,21.204c21.092,-41.769 33.102,-88.697 56.306,-129.488c9.585,-8.588 25.615,-24.066 26.416,-28.01c0.805,-3.941 -3.455,-9.863 -6.738,-6.095c-3.279,3.764 -30.248,41.227 -56.411,51.759c-19.896,-14.947 -35.257,-44.461 -47.455,-64.544c-11.679,-19.234 -24.78,-37.279 -38.742,-54.926c-7.705,-9.739 -15.018,-18.828 -22.896,-27.552c13.266,0.47 26.532,0.937 39.799,1.403c8.062,0.282 16.202,0.579 24.001,2.64c13.451,3.557 24.95,12.085 36.08,20.429c25.506,19.132 51.015,38.261 76.521,57.389c19.106,-13.62 36.681,-29.345 52.046,-47.071c0.135,4.704 8.509,6.088 8.103,10.773" style="fill:#e3b523;fill-rule:nonzero;"/><path d="M4902.52,278.738c12.194,20.08 27.555,49.598 47.451,64.545c26.164,-10.533 53.132,-47.996 56.415,-51.764c3.279,-3.768 7.539,2.158 6.738,6.099c-0.805,3.941 -16.835,19.422 -26.419,28.01c-23.205,40.791 -35.211,87.719 -56.303,129.488c-1.477,1.008 -2.985,1.99 -4.508,2.952c19.865,-41.197 30.939,-88.998 48.402,-122.272c-17.027,12.811 -36.166,23.009 -55.802,31.605c-2.061,0.902 -4.148,1.76 -6.22,2.64c-10.878,15.183 -21.892,30.428 -33.368,45.303c-9.021,16.639 -17.993,33.361 -24.844,51.034c-1.651,4.264 -3.189,8.589 -4.768,12.883c-0.824,-0.098 -1.647,-0.203 -2.467,-0.323c1.752,-4.727 3.437,-9.503 5.26,-14.207c5.054,-13.044 11.27,-25.562 17.801,-37.918c-10.938,13.661 -22.366,26.889 -34.526,39.355c-1.455,0.105 -2.911,0.21 -4.366,0.316c29.394,-29.203 52.971,-62.12 70.449,-91.954c-29.278,11.785 -59.717,21.328 -90.732,26.728c-3.519,0.613 -7.043,1.125 -10.566,1.587c-26.427,12.255 -51.508,28.149 -77.175,42.483c-0.256,-0.131 -0.516,-0.267 -0.764,-0.391c-1.632,-0.816 -3.313,-1.421 -5.023,-1.876c23.121,-12.826 45.728,-27.014 69.23,-38.783c-45.785,3.557 -91.721,-4.81 -135.396,-19.892c-12.146,4.967 -24.336,9.852 -36.738,14.014c-1.406,-1.083 -2.79,-2.158 -4.147,-3.226c11.619,-3.892 23.054,-8.427 34.436,-13.067c-20.749,-7.513 -40.956,-16.496 -60.356,-26.378c-17.011,-8.667 -32.503,-19.136 -47.751,-30.417c0.225,-0.252 0.436,-0.504 0.665,-0.755c9.115,6.847 18.219,13.544 27.695,18.966c35.278,20.182 74.866,34.696 113.924,45.669c4.93,1.383 9.867,2.639 14.819,3.786c-18.008,-14.702 -33.237,-32.06 -47.345,-50.639c-11.13,-14.658 -21.719,-29.733 -33.361,-43.995c-5.889,-7.212 -12.033,-14.233 -18.636,-20.802c0.102,-0.068 0.203,-0.135 0.305,-0.203c1.192,1.136 2.399,2.256 3.561,3.411c35.489,35.286 65.248,83.906 105.637,114.39c28.818,5.659 58.002,7.096 87.531,3.238c10.371,-1.358 20.651,-3.241 30.845,-5.539c-5.685,-2.207 -11.269,-4.663 -16.737,-7.363c-12.232,-6.035 -25.141,-15.488 -36.226,-23.418c-11.999,-8.585 -23.374,-18.471 -34.339,-28.338c-3.91,-3.519 -7.689,-7.092 -11.416,-10.694c-26.37,-12.901 -55.11,-16.004 -80.014,-33.609c-9.784,-6.915 -19.317,-15.654 -28.522,-24.72c0.41,-0.241 0.816,-0.466 1.23,-0.707c15.439,13.864 31.947,26.363 51.207,34.782c17.087,7.465 32.568,9.439 48.342,16.598c-12.334,-12.435 -23.998,-25.291 -36.08,-38.482c-9.009,-9.841 -17.658,-21.058 -26.841,-31.744c0.478,-0.233 0.952,-0.47 1.426,-0.707c14.082,14.465 27.487,29.627 41.163,44.45c9.969,10.807 20.069,21.576 30.563,31.921c0.546,0.349 1.523,1.361 2.618,2.553c13.525,13.149 27.75,25.547 43.265,36.354c10.164,7.08 20.798,13.533 31.91,19.016c6.621,3.263 19.049,10.799 28.442,11.732c14.481,-3.667 28.766,-8.149 42.841,-13.169c-6.167,-2.335 -12.289,-7.216 -16.985,-11.871c-18.121,-17.974 -35.193,-38.501 -52.076,-57.615c-18.993,-21.497 -36.136,-44.397 -58.25,-62.743c-7.325,-6.077 -15.308,-12.514 -23.821,-18.271c1.049,0.233 2.098,0.462 3.147,0.695c-0.707,-1.643 -1.418,-3.282 -2.128,-4.926c3.843,2.358 7.539,4.862 11.036,7.479c12.277,9.179 20.159,15.688 31.244,26.258c14.319,13.654 28.337,29.65 41.739,45.048c-3.4,-7.629 -5.678,-15.793 -8.168,-23.798c-4.031,-12.958 -7.952,-25.973 -12.852,-38.641c-5.227,-13.518 -12.623,-30.439 -23.039,-43.623c0.169,-0.011 0.338,-0.018 0.507,-0.026c5.9,7.096 10.901,14.774 14.767,21.659c8.682,15.47 14.59,32.252 19.948,49.105c4.242,13.346 7.385,28.27 13.83,41.062c1.896,2.174 3.783,4.34 5.648,6.464c8.728,9.95 19.903,22.133 28.796,31.932c9.235,10.168 16.019,29.518 30.229,29.917c0.545,0.015 0.993,0.053 1.403,0.101c6.373,-2.342 12.705,-4.786 18.993,-7.317c15.842,-6.377 31.597,-13.578 46.439,-22.159c-23.22,-17.861 -35.061,-45.304 -50.358,-69.885c-11.889,-19.105 -24.953,-37.486 -39.106,-54.978c-6.269,-7.75 -13.056,-16.666 -20.464,-25.092c1.82,0.064 3.644,0.127 5.464,0.191c7.882,8.72 15.195,17.813 22.896,27.548c13.962,17.651 27.067,35.696 38.746,54.93" style="fill:#ffecd5;fill-rule:nonzero;"/></g><g><path d="M4477.83,8.323c-13.795,22.372 -29.92,43.64 -44.735,65.541c2.124,12.298 -3.481,25.596 2.961,36.713c3.147,5.431 18.453,46.431 21.597,51.862c3.717,6.41 7.321,12.312 10.857,17.865c5.24,-11.986 11.184,-23.702 17.203,-35.363c-11.178,-44.831 -15.462,-91.329 -7.883,-136.618" style="fill:#e3b523;fill-rule:nonzero;"/><path d="M4482.98,-15.617c8.113,-30.418 20.302,-59.897 34.622,-88.022c-31.258,14.78 -66.126,35.363 -97.806,62.068c-4.541,28.152 -9.082,56.304 -13.624,84.455c12.708,-2.272 20.319,12.867 25.178,25.014c16.537,-24.304 34.581,-47.886 49.118,-73.13c0.771,-3.469 1.591,-6.933 2.512,-10.385" style="fill:#e3b523;fill-rule:nonzero;"/><path d="M4487.41,151.568c-5.626,10.929 -11.155,21.919 -16.052,33.15c19.095,29.247 36.541,49.013 59.042,82.521c1.343,-0.934 2.699,-1.965 4.053,-2.978c-9.892,-16.183 -18.958,-32.538 -26.089,-50.247c-8.133,-20.195 -15.3,-41.116 -20.954,-62.446" style="fill:#e3b523;fill-rule:nonzero;"/><path d="M4579.63,160.934c-15.341,-26.359 -15.898,-55.26 -26.424,-82.666c-3.26,-4.025 -6.485,-8.108 -9.646,-12.314c-8.862,-11.792 -17.706,-23.994 -25.2,-36.703c-6.922,-11.741 -15.201,-25.433 -20.134,-38.15c-2.207,-5.684 -4.161,-11.463 -5.858,-17.321c-3.188,9.952 -5.974,20.026 -8.237,30.237c-6.446,29.075 -7.588,58.275 -4.492,87.48c26.806,42.915 72.613,76.844 104.629,115.306c1.052,1.259 2.061,2.56 3.088,3.848c5.047,-6.356 9.881,-12.776 14.384,-19.127c-8.219,-9.968 -16.084,-20.234 -22.11,-30.59" style="fill:#e3b523;fill-rule:nonzero;"/><path d="M4527.17,153.432c-17.266,-15.696 -33.21,-32.395 -46.268,-51.626c0.702,5.03 1.521,10.063 2.466,15.092c7.482,39.873 18.454,80.59 35.443,117.507c4.566,9.92 10.438,19.575 16.455,29.262c17.559,-13.285 35.828,-32.582 51.865,-52.729c-5.965,-7.16 -12.413,-13.899 -19.081,-20.401c-13.178,-12.853 -27.264,-24.726 -40.88,-37.105" style="fill:#e3b523;fill-rule:nonzero;"/><path d="M4560.15,86.669c5.741,16.344 6.343,31.939 12.275,49.618c6.685,19.926 17.68,37.472 30.129,54.077c6.174,-8.766 11.755,-17.355 16.439,-25.328c1.848,-3.14 3.662,-6.354 5.563,-9.5c-9.835,-10.085 -20.246,-19.689 -29.254,-29.535c-12.074,-13.197 -23.853,-25.946 -35.152,-39.332" style="fill:#e3b523;fill-rule:nonzero;"/><path d="M4605.32,5.29c-7.755,-3.185 -15.682,-6.174 -22.982,-10.233c14.153,14.707 28.855,30.081 41.19,45.544c9.551,11.977 15.34,20.402 23.401,33.441c2.298,3.714 4.467,7.617 6.477,11.652c5.623,3.042 11.246,6.088 16.87,9.13c7.211,-14.646 11.311,-30.384 13.823,-46.53c-12.214,-11.537 -28.417,-20.4 -41.422,-26.795c-12.187,-5.997 -24.801,-11.051 -37.357,-16.209" style="fill:#e3b523;fill-rule:nonzero;"/><path d="M4615.04,-88.528c-23.137,-17.404 -49.432,-31.619 -65.173,-56.322c-9.856,14.027 -18.418,29.087 -26.167,44.305c-3.075,6.039 -6.068,12.131 -8.963,18.274c0.012,0.408 0.01,0.861 -0.023,1.406c-0.856,14.19 17.821,22.652 27.136,32.744c8.973,9.726 20.127,21.932 29.268,31.503c1.952,2.045 3.944,4.113 5.942,6.192c12.174,7.548 26.763,11.999 39.682,17.4c16.316,6.823 32.512,14.187 47.156,24.2c6.517,4.453 13.725,10.116 20.273,16.618c2.454,-15.966 3.378,-32.328 4.233,-48.436l1.143,-21.487c-7.74,-8.126 -16.023,-15.669 -23.19,-22.596c-16.177,-15.641 -33.334,-30.273 -51.317,-43.801" style="fill:#e3b523;fill-rule:nonzero;"/><path d="M4575.64,-2.556c-17.546,-18.502 -36.492,-37.321 -52.795,-56.955c-4.227,-5.086 -8.545,-11.613 -10.327,-17.966c-6.245,13.577 -11.969,27.412 -16.898,41.513c0.101,9.439 6.511,22.486 9.179,29.37c4.481,11.551 9.971,22.713 16.128,33.461c9.397,16.407 20.493,31.666 32.399,46.302c1.09,1.195 2.012,2.258 2.316,2.829c9.375,11.369 19.212,22.376 29.099,33.258c13.559,14.929 27.48,29.619 40.647,44.925c4.014,-6.496 8.487,-12.627 14.545,-17.183c4.291,-3.229 9.503,-5.826 11.823,-10.667c1.945,-4.056 1.406,-8.808 0.827,-13.268c-1.159,-8.91 -2.319,-17.819 -3.478,-26.729c-4.984,-8.983 -10.693,-17.507 -16.1,-25.335c-16.326,-23.645 -37.625,-42.744 -57.365,-63.555" style="fill:#e3b523;fill-rule:nonzero;"/><path d="M4613.11,-96.265c-18.926,-13.917 -46.975,-31.82 -60.11,-52.956c12.798,-25.133 52.493,-48.694 56.536,-51.632c4.042,-2.934 -1.486,-7.7 -5.482,-7.25c-3.996,0.455 -20.83,15.057 -30.23,23.848c-42.678,19.518 -90.482,27.341 -133.947,44.668c-1.134,1.383 -2.245,2.798 -3.338,4.23c42.788,-16.156 91.379,-22.973 126.063,-37.434c-14.262,15.831 -26.108,33.997 -36.401,52.799c-1.081,1.973 -2.119,3.976 -3.178,5.962c-16.084,9.498 -32.239,19.125 -48.069,29.245c-17.369,7.519 -34.817,14.982 -53.025,20.248c-4.394,1.269 -8.837,2.419 -13.253,3.614c0.024,0.829 0.057,1.659 0.104,2.486c4.863,-1.329 9.769,-2.586 14.615,-3.988c13.439,-3.884 26.456,-8.972 39.34,-14.389c-14.572,9.692 -28.756,19.908 -42.245,30.923c-0.233,1.44 -0.467,2.88 -0.7,4.321c31.68,-26.705 66.548,-47.289 97.806,-62.068c-14.32,28.124 -26.51,57.604 -34.622,88.022c-0.921,3.451 -1.741,6.916 -2.513,10.385c-14.536,25.244 -32.58,48.826 -49.121,73.13c0.109,0.266 0.221,0.536 0.322,0.795c0.669,1.697 1.124,3.425 1.426,5.169c14.815,-21.901 30.94,-43.169 44.736,-65.541c-7.58,45.293 -3.295,91.787 7.878,136.622c-6.019,11.66 -11.959,23.373 -17.199,35.359c0.955,1.496 1.904,2.969 2.849,4.416c4.901,-11.231 10.426,-22.222 16.051,-33.151c5.655,21.331 12.822,42.252 20.955,62.446c7.134,17.71 16.196,34.064 26.089,50.247c0.271,-0.202 0.54,-0.39 0.811,-0.596c-6.017,-9.683 -11.885,-19.341 -16.451,-29.258c-16.993,-36.921 -27.961,-77.634 -35.447,-117.507c-0.944,-5.033 -1.76,-10.061 -2.466,-15.096c13.058,19.234 29.005,35.934 46.269,51.626c13.619,12.379 27.701,24.255 40.882,37.109c6.665,6.502 13.117,13.241 19.078,20.397c0.076,-0.095 0.153,-0.19 0.229,-0.285c-1.026,-1.288 -2.036,-2.589 -3.083,-3.848c-32.02,-38.462 -77.828,-72.391 -104.633,-115.31c-3.096,-29.205 -1.955,-58.401 4.492,-87.476c2.266,-10.21 5.049,-20.285 8.236,-30.237c1.698,5.858 3.651,11.637 5.859,17.321c4.933,12.717 13.211,26.409 20.134,38.15c7.493,12.709 16.338,24.911 25.199,36.703c3.162,4.206 6.387,8.285 9.647,12.314c10.526,27.406 11.083,56.307 26.424,82.666c6.026,10.356 13.89,20.622 22.109,30.59c0.276,-0.387 0.537,-0.772 0.813,-1.162c-12.449,-16.602 -23.444,-34.147 -30.133,-54.075c-5.928,-17.678 -6.53,-33.272 -12.271,-49.616c11.299,13.381 23.077,26.134 35.152,39.331c9.008,9.842 19.418,19.446 29.254,29.535c0.274,-0.455 0.552,-0.906 0.83,-1.357c-13.168,-15.303 -27.089,-29.993 -40.648,-44.922c-9.886,-10.883 -19.723,-21.893 -29.102,-33.259c-0.301,-0.574 -1.222,-1.637 -2.313,-2.832c-11.906,-14.632 -23.001,-29.894 -32.398,-46.302c-6.157,-10.748 -11.647,-21.91 -16.129,-33.461c-2.667,-6.884 -9.078,-19.928 -9.179,-29.366c4.929,-14.101 10.653,-27.936 16.894,-41.513c1.782,6.348 6.105,12.877 10.328,17.965c16.306,19.635 35.248,38.45 52.799,56.952c19.739,20.815 41.039,39.91 57.364,63.555c5.407,7.832 11.116,16.352 16.1,25.339c-0.14,-1.065 -0.276,-2.131 -0.415,-3.196c1.574,0.849 3.145,1.701 4.719,2.554c-2.01,-4.036 -4.179,-7.938 -6.477,-11.653c-8.061,-13.038 -13.85,-21.463 -23.402,-33.437c-12.338,-15.467 -27.036,-30.841 -41.192,-45.547c7.3,4.058 15.231,7.048 22.986,10.233c12.552,5.158 25.169,10.212 37.356,16.209c13.005,6.398 29.208,15.258 41.422,26.795c0.026,-0.167 0.049,-0.335 0.071,-0.503c-6.548,-6.503 -13.755,-12.161 -20.273,-16.619c-14.644,-10.012 -30.84,-17.376 -47.155,-24.199c-12.919,-5.402 -27.509,-9.849 -39.683,-17.396c-1.998,-2.08 -3.989,-4.151 -5.941,-6.196c-9.141,-9.571 -20.292,-21.777 -29.269,-31.499c-9.314,-10.096 -27.991,-18.559 -27.135,-32.748c0.033,-0.545 0.035,-0.994 0.022,-1.407c2.896,-6.142 5.889,-12.234 8.964,-18.274c7.749,-15.218 16.311,-30.277 26.166,-44.304c15.745,24.703 42.037,38.918 65.173,56.322c17.984,13.528 35.141,28.16 51.317,43.801c7.168,6.927 15.45,14.474 23.191,22.596c0.097,-1.819 0.194,-3.641 0.291,-5.46c-7.992,-8.619 -16.404,-16.706 -25.422,-25.235c-16.351,-15.464 -33.171,-30.108 -51.301,-43.438" style="fill:#ffecd5;fill-rule:nonzero;"/></g><g><path d="M5280.59,67.281c9.485,-3.647 18.716,-8.258 28.094,-12.326c4.521,1.683 9.974,0.502 13.739,3.742c1.839,1.583 16.327,10.321 18.167,11.903c2.17,1.869 4.156,3.659 6.014,5.399c-4.928,1.137 -9.804,2.56 -14.663,4.016c-16.239,-7.443 -33.601,-12.386 -51.351,-12.734" style="fill:#e3b523;fill-rule:nonzero;"/><path d="M5271.13,67.531c-12.137,0.915 -24.207,3.445 -35.915,6.882c7.844,-10.824 18.151,-22.606 30.557,-32.74c11.02,0.281 22.041,0.562 33.062,0.844c-1.769,4.666 3.441,8.637 7.71,11.35c-10.414,4.551 -20.661,9.726 -31.289,13.45c-1.373,0.046 -2.748,0.111 -4.125,0.214" style="fill:#e3b523;fill-rule:nonzero;"/><path d="M5334.34,81.133c4.553,-1.359 9.123,-2.676 13.74,-3.737c9.752,9.341 16.019,17.379 27.148,28.317c-0.451,0.444 -0.94,0.886 -1.421,1.328c-5.444,-4.912 -11.012,-9.523 -17.233,-13.495c-7.094,-4.53 -14.532,-8.744 -22.234,-12.413" style="fill:#e3b523;fill-rule:nonzero;"/><path d="M5249.32,55.478c2.977,-4.509 5.838,-9.093 8.274,-13.921c0.878,-1.742 1.704,-3.516 2.555,-5.269c1.358,0.337 2.688,0.763 3.976,1.299c-0.796,1.327 -1.594,2.656 -2.39,3.984c0.782,0.019 1.564,0.04 2.347,0.059c-5.145,4.341 -10.039,9.002 -14.762,13.848" style="fill:#e3b523;fill-rule:nonzero;"/><path d="M5331.32,116.843c-8.922,-7.708 -19.864,-9.98 -29.527,-15.933c-1.297,-1.526 -2.619,-3.042 -3.992,-4.543c-3.849,-4.208 -7.855,-8.439 -12.15,-12.192c-3.968,-3.467 -8.58,-7.589 -13.061,-10.37c-2.002,-1.244 -4.059,-2.398 -6.164,-3.461c4.009,-0.502 8.036,-0.842 12.077,-0.974c11.507,-0.377 22.684,1.27 33.561,4.529c14.396,13.245 24.023,33.069 36.355,47.976c0.404,0.49 0.826,0.966 1.242,1.448c-2.775,1.464 -5.559,2.844 -8.293,4.102c-3.202,-3.834 -6.542,-7.554 -10.048,-10.582" style="fill:#e3b523;fill-rule:nonzero;"/><path d="M5245.42,59.553c-4.974,5.293 -9.783,10.746 -14.539,16.18c-0.831,0.261 -1.667,0.513 -2.492,0.783c-7.878,2.572 -15.625,5.778 -22.657,10.068c7.967,-12.147 14.021,-30.126 23.211,-45.233c9.435,-4.763 20.565,-7.367 30.267,-5.28c-0.767,1.593 -1.521,3.198 -2.317,4.777c-3.298,6.545 -7.379,12.641 -11.473,18.705" style="fill:#e3b523;fill-rule:nonzero;"/><path d="M5332.21,96.374c-4.733,-7.68 -9.942,-14.929 -16.318,-21.262c1.861,0.626 3.715,1.296 5.559,2.013c14.617,5.686 29.307,12.757 42.123,21.844c3.444,2.442 6.695,5.362 9.946,8.339c-6.299,5.725 -14.934,11.291 -23.733,15.949c-2.295,-2.777 -4.396,-5.708 -6.391,-8.705c-3.945,-5.923 -7.452,-12.122 -11.186,-18.178" style="fill:#e3b523;fill-rule:nonzero;"/><path d="M5304.49,104.146c5.801,3.347 11.684,4.687 17.979,8.201c7.095,3.961 12.978,9.39 18.4,15.303c-3.771,1.722 -7.432,3.23 -10.796,4.441c-1.325,0.479 -2.675,0.939 -4.006,1.437c-3.131,-4.456 -6.038,-9.097 -9.137,-13.221c-4.154,-5.529 -8.159,-10.913 -12.44,-16.161" style="fill:#e3b523;fill-rule:nonzero;"/><path d="M5270.35,115.509c-0.658,-3.174 -1.228,-6.399 -2.25,-9.463c4.579,6.427 9.373,13.109 14.369,18.898c3.871,4.483 6.659,7.283 11.039,11.276c1.247,1.138 2.576,2.24 3.966,3.292c0.755,2.353 1.512,4.707 2.267,7.061c-6.08,1.696 -12.352,2.132 -18.666,1.935c-3.514,-5.463 -5.726,-12.252 -7.229,-17.649c-1.41,-5.058 -2.431,-10.212 -3.496,-15.35" style="fill:#e3b523;fill-rule:nonzero;"/><path d="M5234.01,112.514c-4.964,-10.032 -8.491,-21.037 -16.755,-28.779c6.032,-2.745 12.365,-4.925 18.7,-6.784c2.514,-0.738 5.042,-1.441 7.583,-2.104c0.154,0.034 0.326,0.066 0.535,0.092c5.453,0.686 7.338,8.386 10.508,12.645c3.056,4.103 6.899,9.212 9.884,13.367c0.638,0.888 1.282,1.792 1.93,2.699c2,5.164 2.651,11.025 3.782,16.319c1.43,6.686 3.074,13.365 5.834,19.643c1.228,2.794 2.866,5.937 4.87,8.888c-6.242,-0.205 -12.525,-1.021 -18.706,-1.844l-8.247,-1.097c-2.536,-3.521 -4.811,-7.206 -6.933,-10.423c-4.79,-7.262 -9.127,-14.824 -12.985,-22.622" style="fill:#e3b523;fill-rule:nonzero;"/><path d="M5269.49,103.671c-5.779,-7.986 -11.579,-16.527 -17.878,-24.121c-1.631,-1.969 -3.803,-4.075 -6.09,-5.205c5.604,-1.405 11.269,-2.594 16.978,-3.462c3.58,0.711 8.08,4.077 10.506,5.582c4.07,2.526 7.92,5.408 11.565,8.513c5.564,4.741 10.571,10.044 15.284,15.612c0.376,0.499 0.715,0.925 0.91,1.082c3.652,4.372 7.133,8.895 10.563,13.427c4.706,6.217 9.296,12.553 14.173,18.648c-2.755,1.062 -5.403,2.324 -7.566,4.302c-1.533,1.4 -2.891,3.196 -4.896,3.732c-1.68,0.45 -3.447,-0.094 -5.101,-0.632c-3.302,-1.075 -6.605,-2.151 -9.908,-3.227c-3.058,-2.534 -5.89,-5.311 -8.479,-7.923c-7.821,-7.889 -13.56,-17.344 -20.061,-26.328" style="fill:#e3b523;fill-rule:nonzero;"/><path d="M5162.52,118.875c0.089,-0.48 0.432,-0.867 0.764,-1.225c3.425,-3.687 7.229,-7.021 11.319,-9.955c3.189,-2.288 6.561,-4.318 10.057,-6.104c1.398,-7.693 9.918,-23.782 11.498,-26.555c5.383,-9.444 12.431,-18.257 20.567,-25.492c2.963,-2.635 6.499,-5.105 10.37,-7.225c-9.682,15.281 -16.063,32.887 -26.522,47.713c-4.011,2.945 -10.759,8.299 -11.215,9.787c-0.458,1.486 0.959,3.925 2.364,2.598c1.403,-1.325 13.185,-14.729 23.648,-17.801c7.094,6.498 11.898,18.431 15.838,26.616c3.773,7.839 8.137,15.274 12.847,22.588c2.6,4.036 5.073,7.808 7.777,11.46c-5.087,-0.678 -10.174,-1.355 -15.261,-2.032c-3.092,-0.411 -6.213,-0.831 -9.137,-1.916c-5.042,-1.874 -9.147,-5.586 -13.116,-9.215c-9.097,-8.318 -18.195,-16.635 -27.292,-24.952c-7.862,4.524 -15.215,9.915 -21.792,16.16c0.125,-1.815 -3.046,-2.662 -2.714,-4.45" style="fill:#e3b523;fill-rule:nonzero;"/><path d="M5231.21,111.232c-3.94,-8.184 -8.743,-20.118 -15.838,-26.616c-10.462,3.071 -22.244,16.475 -23.649,17.802c-1.403,1.327 -2.82,-1.114 -2.364,-2.6c0.457,-1.486 7.206,-6.841 11.216,-9.787c10.459,-14.825 16.839,-32.432 26.522,-47.713c0.606,-0.332 1.223,-0.653 1.845,-0.966c-9.189,15.107 -15.243,33.084 -23.21,45.232c7.032,-4.29 14.779,-7.496 22.657,-10.068c0.827,-0.269 1.662,-0.521 2.492,-0.782c4.755,-5.434 9.565,-10.887 14.539,-16.18c4.095,-6.064 8.175,-12.162 11.474,-18.706c0.795,-1.578 1.549,-3.185 2.318,-4.778c0.313,0.069 0.626,0.14 0.937,0.217c-0.852,1.753 -1.679,3.528 -2.557,5.269c-2.434,4.83 -5.296,9.413 -8.272,13.923c4.721,-4.846 9.614,-9.508 14.761,-13.848c0.564,0.014 1.128,0.028 1.692,0.042c-12.406,10.134 -22.712,21.916 -30.557,32.74c11.708,-3.437 23.778,-5.967 35.915,-6.882c1.377,-0.103 2.752,-0.168 4.125,-0.214c10.628,-3.724 20.875,-8.899 31.29,-13.452c0.093,0.06 0.188,0.122 0.279,0.179c0.597,0.375 1.221,0.671 1.862,0.911c-9.378,4.068 -18.609,8.679 -28.093,12.326c17.751,0.349 35.112,5.291 51.352,12.733c4.859,-1.456 9.734,-2.878 14.661,-4.015c0.501,0.47 0.993,0.935 1.475,1.397c-4.616,1.062 -9.187,2.378 -13.74,3.736c7.702,3.67 15.14,7.884 22.234,12.414c6.221,3.973 11.789,8.583 17.233,13.495c-0.096,0.089 -0.186,0.178 -0.284,0.266c-3.251,-2.977 -6.502,-5.895 -9.945,-8.337c-12.818,-9.089 -27.506,-16.158 -42.123,-21.845c-1.845,-0.718 -3.698,-1.386 -5.56,-2.013c6.377,6.332 11.586,13.582 16.318,21.261c3.733,6.057 7.242,12.255 11.186,18.18c1.996,2.996 4.096,5.927 6.391,8.703c-0.042,0.022 -0.083,0.044 -0.125,0.067c-0.416,-0.482 -0.838,-0.959 -1.242,-1.446c-12.332,-14.909 -21.959,-34.734 -36.357,-47.978c-10.877,-3.259 -22.052,-4.906 -33.559,-4.529c-4.041,0.133 -8.068,0.472 -12.077,0.974c2.105,1.062 4.162,2.217 6.164,3.461c4.481,2.781 9.093,6.902 13.061,10.37c4.295,3.753 8.301,7.983 12.15,12.191c1.373,1.501 2.693,3.018 3.992,4.544c9.663,5.953 20.605,8.225 29.527,15.933c3.506,3.028 6.846,6.748 10.048,10.582c-0.167,0.077 -0.332,0.149 -0.5,0.226c-5.421,-5.914 -11.304,-11.343 -18.399,-15.305c-6.294,-3.513 -12.177,-4.853 -17.978,-8.2c4.279,5.248 8.285,10.632 12.439,16.161c3.098,4.125 6.005,8.765 9.137,13.222c-0.192,0.071 -0.384,0.145 -0.575,0.218c-4.876,-6.094 -9.465,-12.431 -14.171,-18.648c-3.431,-4.532 -6.913,-9.055 -10.563,-13.429c-0.197,-0.155 -0.535,-0.58 -0.912,-1.08c-4.711,-5.567 -9.719,-10.871 -15.284,-15.612c-3.645,-3.105 -7.495,-5.987 -11.565,-8.513c-2.425,-1.505 -6.925,-4.87 -10.504,-5.581c-5.71,0.867 -11.374,2.056 -16.978,3.46c2.285,1.129 4.457,3.237 6.09,5.204c6.298,7.596 12.097,16.135 17.877,24.123c6.502,8.984 12.239,18.439 20.06,26.328c2.591,2.613 5.421,5.389 8.481,7.924c-0.395,-0.129 -0.79,-0.257 -1.185,-0.386c0.21,0.659 0.422,1.316 0.634,1.975c-1.39,-1.051 -2.719,-2.154 -3.966,-3.292c-4.38,-3.992 -7.169,-6.792 -11.037,-11.275c-4.998,-5.791 -9.792,-12.472 -14.371,-18.9c1.022,3.064 1.592,6.29 2.25,9.464c1.065,5.137 2.086,10.292 3.496,15.35c1.504,5.398 3.715,12.186 7.229,17.65c-0.066,-0.002 -0.131,-0.006 -0.197,-0.009c-2.004,-2.952 -3.64,-6.094 -4.869,-8.888c-2.761,-6.278 -4.404,-12.957 -5.834,-19.643c-1.131,-5.294 -1.781,-11.155 -3.781,-16.319c-0.648,-0.907 -1.293,-1.811 -1.931,-2.699c-2.985,-4.156 -6.828,-9.263 -9.883,-13.367c-3.172,-4.259 -5.056,-11.959 -10.509,-12.645c-0.209,-0.026 -0.38,-0.058 -0.536,-0.092c-2.54,0.662 -5.068,1.365 -7.583,2.103c-6.334,1.86 -12.667,4.04 -18.7,6.785c8.265,7.744 11.792,18.747 16.756,28.779c3.858,7.798 8.195,15.36 12.985,22.622c2.121,3.217 4.398,6.902 6.933,10.423c-0.698,-0.093 -1.398,-0.186 -2.095,-0.279c-2.706,-3.651 -5.179,-7.424 -7.777,-11.459c-4.71,-7.315 -9.076,-14.75 -12.848,-22.589" style="fill:#ffecd5;fill-rule:nonzero;"/></g><g><path d="M5647.5,3302.27c66.768,-77.165 133.86,-137.549 278.019,-95.113c17.339,0.501 45.815,-43.82 50.497,-79.068c1.058,-7.997 8.404,-13.617 16.409,-12.559c7.997,1.062 13.62,8.407 12.558,16.408c-3.654,27.537 -19.075,62.756 -40.082,84.474c22.399,3.822 44.789,5.122 66.536,3.948c31.237,-4.334 62.713,-58.617 69.012,-102.61c1.144,-7.992 8.55,-13.539 16.537,-12.395c7.988,1.143 13.535,8.546 12.391,16.537c-3.93,27.452 -17.113,61.881 -36.786,88.125c16.627,-4.978 32.33,-11.645 46.712,-19.986c34.251,-19.864 57.036,-47.684 64.164,-78.341c1.823,-7.858 9.673,-12.744 17.542,-10.921c7.857,1.824 12.751,9.677 10.92,17.538c-8.969,38.6 -36.657,73.047 -77.966,97.005c-9.265,5.378 -19.032,10.097 -29.165,14.234c8.642,6.418 18.945,9.111 27.391,10.082c34.892,4.018 77.36,-14.63 105.666,-46.396c5.371,-6.028 14.606,-6.556 20.63,-1.185c6.027,5.367 6.555,14.602 1.188,20.626c-20.222,22.694 -45.977,39.613 -72.739,48.83c-19.409,6.684 -39.344,9.313 -58.082,7.159c-23.423,-2.694 -42.521,-12.788 -54.953,-28.739c-33.403,8.992 -69.726,12.001 -106.535,8.811c1.828,9.125 5.967,18.885 14.87,25.321c13.996,10.114 36.757,9.816 65.585,-0.489c7.539,-2.753 15.969,1.189 18.705,8.783c2.74,7.591 -1.194,15.966 -8.78,18.702c-0.977,0.357 -1.934,0.691 -2.895,1.025c-46.775,16.106 -74.576,6.622 -89.736,-4.335c-16.073,-11.619 -25.699,-30.145 -27.828,-52.946c-12.748,-2.273 -25.47,-5.279 -38.065,-9.055c-0.043,-0.012 -0.082,-0.021 -0.121,-0.034l-0.015,-0.004c-129.266,-38.704 -184.946,11.107 -249.483,85.691c-5.282,6.096 -14.509,6.766 -20.613,1.487c-6.101,-5.279 -6.77,-14.509 -1.488,-20.61" style="fill:#954129;fill-rule:nonzero;"/><path d="M5628.35,3267.8c72.872,-71.428 128.977,-142.136 77.672,-283.382c-1.574,-17.278 40.896,-48.451 75.785,-55.309c7.919,-1.556 13.07,-9.235 11.519,-17.158c-1.555,-7.918 -9.239,-13.074 -17.158,-11.515c-27.258,5.359 -61.451,22.935 -81.825,45.249c-5.208,-22.122 -7.89,-44.384 -8.071,-66.166c2.387,-31.445 54.613,-66.226 98.133,-75.247c7.905,-1.638 12.984,-9.374 11.342,-17.271c-1.635,-7.901 -9.371,-12.98 -17.272,-11.341c-27.155,5.624 -60.705,20.917 -85.673,42.18c3.933,-16.904 9.615,-32.99 17.045,-47.857c17.704,-35.419 44.055,-59.892 74.212,-68.906c7.729,-2.309 12.119,-10.446 9.81,-18.183c-2.309,-7.733 -10.45,-12.127 -18.182,-9.814c-37.969,11.349 -70.635,41.124 -91.983,83.836c-4.786,9.582 -8.892,19.624 -12.395,29.994c-6.94,-8.224 -10.266,-18.342 -11.763,-26.714c-6.176,-34.575 9.801,-78.116 39.748,-108.341c5.685,-5.734 5.636,-14.985 -0.094,-20.663c-5.734,-5.682 -14.985,-5.64 -20.663,0.094c-21.396,21.591 -36.685,48.348 -44.219,75.631c-5.465,19.784 -6.855,39.843 -3.539,58.414c4.142,23.21 15.402,41.646 32.091,53.063c-6.9,33.894 -7.65,70.334 -2.18,106.876c-9.22,-1.259 -19.22,-4.784 -26.197,-13.268c-10.966,-13.343 -12.076,-36.081 -3.581,-65.493c2.277,-7.694 -2.181,-15.862 -9.926,-18.122c-7.749,-2.264 -15.863,2.181 -18.126,9.926c-0.29,0.993 -0.569,1.97 -0.839,2.948c-13.175,47.687 -1.979,74.846 9.898,89.293c12.588,15.323 31.682,23.782 54.572,24.495c3.059,12.577 6.846,25.09 11.397,37.429c0.015,0.039 0.026,0.075 0.04,0.114c0,0.008 0.004,0.012 0.004,0.016c46.655,126.615 0.394,185.277 -70.041,254.321c-5.754,5.654 -5.85,14.901 -0.204,20.663c5.649,5.766 14.901,5.858 20.663,0.208" style="fill:#954129;fill-rule:nonzero;"/><path d="M6516.92,3491.1c0,-0 101.931,104.81 33.539,190.391c-52.026,65.104 -119.431,53.344 -180.339,46.037c-4.297,-0.515 -8.184,-1.431 -11.819,-2.577c20.72,-101.347 224.266,-1.109 158.619,-233.851" style="fill:#fdcd44;fill-rule:nonzero;"/><path d="M6320.13,3661.81c0.468,-98.208 145.158,-80.415 196.794,-170.702c65.643,232.743 -137.899,132.5 -158.619,233.847c-30.254,-9.554 -38.289,-39.362 -38.175,-63.145" style="fill:#f6a81b;fill-rule:nonzero;"/><path d="M5682.83,3809.48c-4.821,46.11 48.176,132.019 44.962,192.801c-3.215,60.782 -209.114,541.629 -209.114,541.629c-0,0 9.4,10.42 28.911,14.063c-0,-0 234.728,-454.827 286.234,-519.195c51.503,-64.364 16.335,-160.272 44.15,-215.478c27.816,-55.206 -16.638,-117.647 -88.687,-115.551c-72.045,2.099 -103.374,72.22 -106.456,101.731" style="fill:#f18621;fill-rule:nonzero;"/><path d="M5624.17,3204.44c11.042,-33.465 8.304,-139.134 -51.383,-154.046c-17.68,-4.415 -45.639,43.495 -40.406,96.178c5.229,52.68 39.324,66.564 60.636,75.242c21.307,8.677 31.153,-17.374 31.153,-17.374" style="fill:#f6a81b;fill-rule:nonzero;"/><path d="M5582.57,3189.12c1.256,-8.099 -0.944,-106.257 -16.096,-112.109c-12.402,-4.79 -29.748,29.12 -22.035,66.974c4.077,20.021 11.941,46.304 27.732,52.011c3.759,1.36 9.509,-1.149 10.399,-6.876" style="fill:#fdcd44;fill-rule:nonzero;"/><path d="M6134.18,3924.68c14.814,90.442 25.466,144.592 62.769,207.324c37.302,62.732 -134.512,462.318 -134.512,462.318c0,-0 8.441,10.365 31.016,15.916c-0,0 155.148,-348.073 197.109,-400.914c41.961,-52.84 -0.892,-92.998 32.724,-181.238c33.617,-88.24 13.141,-178.879 -54.444,-188.139c-67.59,-9.255 -142.371,37.66 -134.662,84.733" style="fill:#f18621;fill-rule:nonzero;"/><path d="M5263.77,3326.92c3.022,0.072 5.961,0.123 8.843,0.16c3.273,26.428 22.016,48.705 78.501,64.051c112.451,30.55 165.506,23.557 198.855,93.57c37.238,78.187 19.448,369.781 106.359,435.837c182.598,138.795 411.105,-31.544 456.21,59.551c-114.646,-14.529 -239.121,111.328 -413.486,43.549c-159.303,-61.922 -175.244,-358.538 -191.544,-512.082c-8.35,-78.613 -139.934,-58.278 -229.438,-117.244c-26.431,-17.41 -48.182,-68.203 -14.3,-67.392" style="fill:#fdcd44;fill-rule:nonzero;"/><path d="M5656.33,3920.54c-86.907,-66.06 -69.121,-357.654 -106.36,-435.837c-33.348,-70.013 -86.403,-63.021 -198.854,-93.57c-56.485,-15.346 -75.228,-37.627 -78.502,-64.055c173.748,2.141 93.946,-62.106 197.496,-120.527c105.27,-59.388 177.184,-35.835 228.482,31.114c27.803,36.284 64.673,71.37 40.203,154.414c-30.919,104.953 53.775,253.985 104.472,274.109c75.26,29.88 181.406,44.394 303.952,-11.824c171.739,-78.787 306.711,17.081 331.711,177.605c13.83,88.814 -1.256,104.616 30.537,164.213c31.475,59.001 30.438,32.042 33.783,84.315c22.185,346.497 172.666,598.545 172.666,598.545c-14.84,22.741 -38.294,7.569 -38.294,7.569c-136.869,-184.256 -243.279,-607.805 -302.6,-611.463c-165.634,-10.213 -206.393,-77.423 -229.126,-86.499c-11.046,-4.409 -22.156,-7.141 -33.356,-8.562c-45.105,-91.096 -273.612,79.244 -456.21,-59.547" style="fill:#f6a81b;fill-rule:nonzero;"/><path d="M5710.98,3265.75c38.971,-17.176 167.895,-32.521 192.773,37.549c7.369,20.754 -47.014,59.958 -110.99,59.788c-63.976,-0.17 -84.643,-39.57 -97.558,-64.193c-12.915,-24.628 15.775,-33.144 15.775,-33.144" style="fill:#f6a81b;fill-rule:nonzero;"/><path d="M5734.02,3293.39c9.599,-2.456 130.588,-4.585 139.506,16.52c6.256,14.803 -32.372,38.491 -79.058,38.367c-46.682,-0.121 -58.809,-23.248 -67.511,-41.575c-2.075,-4.371 0.277,-11.577 7.063,-13.312" style="fill:#fdcd44;fill-rule:nonzero;"/><path d="M5242.46,3329.63c-0.368,15.378 13.935,28.193 31.95,28.624c18.011,0.431 32.911,-11.686 33.279,-27.063c0.368,-15.378 -13.935,-28.193 -31.946,-28.624c-18.015,-0.431 -32.915,11.686 -33.283,27.063" style="fill:#954129;fill-rule:nonzero;"/><path d="M5517.27,3387.54c-0.31,12.96 7.272,23.654 16.94,23.885c9.664,0.231 17.753,-10.088 18.063,-23.048c0.31,-12.959 -7.276,-23.653 -16.94,-23.884c-9.668,-0.232 -17.753,10.087 -18.063,23.047" style="fill:#954129;fill-rule:nonzero;"/><path d="M5707.94,3817.28c-57.715,53.621 -241.474,197.579 -253.851,221.28c-12.374,23.697 14.266,67.624 36.282,76.177c22.016,8.557 362.839,264.512 362.839,264.512c0,-0 36.933,-2.12 27.541,-31.745c-0,-0 -279.421,-223.227 -296.093,-245.541c-16.668,-22.314 167.173,-77.928 240.687,-103.355c73.517,-25.426 135.146,-108.09 59.644,-183.264c-75.506,-75.17 -151.921,-21.409 -177.049,1.936" style="fill:#f6a81b;fill-rule:nonzero;"/><path d="M6152.45,3973.94c1.517,0.037 3.038,-0.586 4.099,-1.831c1.875,-2.19 1.613,-5.486 -0.581,-7.362c-25.277,-21.582 -31.536,-65.139 -26.529,-98.732c4.05,-27.167 14.884,-47.662 28.269,-53.494c2.647,-1.152 3.857,-4.229 2.705,-6.872c-1.148,-2.646 -4.233,-3.857 -6.872,-2.705c-16.915,7.367 -29.785,30.366 -34.432,61.53c-5.035,33.777 -0.179,82.385 30.078,108.216c0.949,0.811 2.107,1.223 3.263,1.25" style="fill:#fff;fill-rule:nonzero;"/><path d="M6156.31,3700.25c-8.393,1.066 -16.545,3.369 -24.196,7.005c-2.892,1.374 -6.402,1.086 -8.956,-0.979c-1.766,-1.426 -3.451,-5.074 -0.524,-6.463c9.432,-4.483 19.183,-7.422 29.551,-8.739c6.175,-0.781 12.549,8.107 4.125,9.176" style="fill:#fbc60b;fill-rule:nonzero;"/><path d="M6085.38,3712.45c-5.75,2.372 -11.501,4.744 -17.251,7.116c-4.894,2.02 -14.388,-5.164 -7.161,-8.143c5.75,-2.372 11.5,-4.744 17.251,-7.116c4.891,-2.02 14.388,5.163 7.161,8.143" style="fill:#fbc60b;fill-rule:nonzero;"/><path d="M6100.43,3740.81c-7.878,5.447 -16.632,7.358 -26.125,6.351c-2.19,-0.233 -6.716,-1.807 -6.99,-4.488c-0.291,-2.877 3.63,-2.874 5.503,-2.676c5.683,0.606 11.451,-1.189 16.119,-4.418c2.425,-1.675 5.742,-1.196 8.309,0.007c1.136,0.529 5.605,3.549 3.184,5.224" style="fill:#fbc60b;fill-rule:nonzero;"/><path d="M6034.89,3738.9l-14.699,-0.352c-2.916,-0.069 -6.333,-0.986 -8.796,-2.582c-1.861,-1.213 -1.81,-2.369 0.678,-2.309l14.7,0.351c2.916,0.07 6.332,0.987 8.796,2.587c1.861,1.209 1.81,2.365 -0.679,2.305" style="fill:#fbc60b;fill-rule:nonzero;"/><path d="M6029.87,3713.81c-5.429,1.897 -10.961,3.164 -16.691,3.706c-2.912,0.275 -6.078,-0.64 -8.687,-1.894c-0.826,-0.4 -4.39,-2.701 -1.552,-2.966c5.203,-0.492 10.263,-1.539 15.198,-3.268c2.471,-0.862 5.661,0.183 7.997,1.07c0.447,0.167 5.546,2.717 3.735,3.352" style="fill:#fbc60b;fill-rule:nonzero;"/><path d="M5981.6,3736.98c-5.664,0.539 -11.338,-0.095 -16.776,-1.746c-2.223,-0.677 -5.928,-2.816 -5.083,-5.698c0.841,-2.854 5.194,-2.703 7.358,-2.043c3.387,1.03 6.662,1.296 10.188,0.961c2.853,-0.273 6.782,1.17 8.098,3.888c1.364,2.804 -1.36,4.406 -3.785,4.638" style="fill:#fbc60b;fill-rule:nonzero;"/><path d="M5987.56,3768.49c-6.954,0.555 -13.762,-0.4 -20.484,-2.141c-1.107,-0.285 -6.214,-1.85 -5.68,-3.665c0.534,-1.822 5.891,-0.235 6.76,-0.01c3.706,0.959 7.585,0.934 11.372,0.632c2.801,-0.223 6.509,0.991 8.796,2.583c2.001,1.397 1.616,2.411 -0.764,2.601" style="fill:#fbc60b;fill-rule:nonzero;"/><path d="M5924.6,3716.85l-13.473,-0.322c-2.783,-0.067 -6.713,-1.015 -8.154,-3.708c-1.366,-2.543 1.311,-4.004 3.584,-3.949l13.473,0.322c2.783,0.067 6.712,1.015 8.154,3.708c1.362,2.542 -1.312,4.004 -3.584,3.949" style="fill:#fbc60b;fill-rule:nonzero;"/><path d="M5933.56,3743.57c-7.367,0.31 -14.463,-0.374 -21.651,-2.008c-2.511,-0.57 -5.766,-3.181 -4.976,-6.071c0.855,-3.113 5.086,-2.961 7.469,-2.417c4.93,1.117 9.986,1.532 15.033,1.32c2.948,-0.126 6.826,1.026 8.064,4.024c1.141,2.764 -1.211,5.037 -3.939,5.152" style="fill:#fbc60b;fill-rule:nonzero;"/><path d="M5863.77,3707.51c-5.703,-2.889 -11.402,-5.778 -17.104,-8.664c-1.558,-0.79 -3.754,-2.72 -1.309,-3.795c2.453,-1.082 6.593,0.585 8.751,1.676c5.698,2.889 11.401,5.778 17.104,8.667c1.557,0.786 3.754,2.717 1.309,3.791c-2.457,1.083 -6.597,-0.585 -8.751,-1.675" style="fill:#fbc60b;fill-rule:nonzero;"/><path d="M5828.13,3695.91c2.541,4.884 6.409,9.239 11.791,10.944c1.837,0.581 6,2.284 5.318,4.899c-0.665,2.537 -5.528,1.75 -7.123,1.245c-9.075,-2.875 -17.174,-8.566 -21.639,-17.139c-2.699,-5.185 9.763,-3.574 11.653,0.051" style="fill:#fbc60b;fill-rule:nonzero;"/><path d="M5802.91,3674.96c-5.028,-2.901 -9.791,-6.218 -14.186,-10.009c-1.817,-1.569 -1.5,-3.193 1.012,-3.446c2.767,-0.283 6.652,0.731 8.796,2.583c3.715,3.202 7.646,6.056 11.893,8.507c1.45,0.838 3.854,2.946 1.253,3.99c-2.518,1.006 -6.586,-0.366 -8.768,-1.625" style="fill:#fbc60b;fill-rule:nonzero;"/><path d="M5773.24,3623.55c3.603,4.952 7.209,9.904 10.812,14.86c1.799,2.471 -1.679,3.956 -3.602,4.02c-3.061,0.099 -6.334,-1.23 -8.149,-3.728c-3.606,-4.953 -7.209,-9.905 -10.815,-14.857c-1.796,-2.47 1.682,-3.96 3.605,-4.019c3.061,-0.1 6.335,1.229 8.149,3.724" style="fill:#fbc60b;fill-rule:nonzero;"/><path d="M5760.48,3648.03l11.906,18.604c1.516,2.366 -1.442,2.93 -3.268,2.883c-2.469,-0.067 -6.768,-1.135 -8.239,-3.428l-11.906,-18.605c-1.516,-2.365 1.442,-2.929 3.268,-2.882c2.469,0.067 6.769,1.134 8.239,3.428" style="fill:#fbc60b;fill-rule:nonzero;"/><path d="M5668.52,3255.5c-6.465,-5.44 -13.773,-8.905 -22.125,-10.21c-1.867,-0.292 -7.005,-1.725 -7.062,-4.259c-0.058,-2.679 3.504,-2.559 5.387,-2.267c12.528,1.958 24.079,7.073 33.792,15.246c2.125,1.792 1.093,3.465 -1.196,4.073c-2.754,0.73 -6.708,-0.827 -8.796,-2.583" style="fill:#fbc60b;fill-rule:nonzero;"/><path d="M5632.72,3214.39c-6.178,-2.367 -12.37,-3.653 -18.979,-3.897c-7.283,-0.272 -9.264,-9.918 -0.774,-9.602c7.667,0.286 15.217,1.807 22.382,4.551c2.518,0.962 5.788,3.099 4.904,6.301c-0.803,2.914 -5.116,3.571 -7.533,2.647" style="fill:#fbc60b;fill-rule:nonzero;"/><path d="M5601.68,3227.35c-4.495,0.382 -8.986,0.769 -13.481,1.152c-2.766,0.239 -6.747,-1.201 -8.145,-3.744c-1.492,-2.714 1.446,-3.902 3.627,-4.089c4.491,-0.383 8.986,-0.769 13.481,-1.152c2.766,-0.236 6.747,1.201 8.144,3.744c1.492,2.717 -1.446,3.902 -3.626,4.089" style="fill:#fbc60b;fill-rule:nonzero;"/><path d="M5563.22,3208.29c-3.553,1.492 -6.621,3.865 -9.176,6.733c-2.345,2.63 -14.143,-1.966 -11.621,-4.799c2.994,-3.359 6.628,-5.77 10.767,-7.506c2.547,-1.069 6.527,0.376 8.759,1.641c1.521,0.859 3.865,2.845 1.271,3.931" style="fill:#fbc60b;fill-rule:nonzero;"/><path d="M5529.27,3237.17c-4.546,2.354 -9.088,4.704 -13.633,7.057c-2.601,1.346 -6.568,0.145 -8.845,-1.36c-1.776,-1.172 -3.583,-3.642 -0.955,-5.007c4.546,-2.35 9.092,-4.703 13.638,-7.057c2.596,-1.342 6.567,-0.145 8.841,1.36c1.779,1.176 3.587,3.647 0.954,5.007" style="fill:#fbc60b;fill-rule:nonzero;"/><path d="M5501.17,3224.85c-3.283,2.015 -6.566,4.034 -9.849,6.05c-2.265,1.392 -5.873,0.294 -8.126,-0.63c-0.761,-0.316 -5.621,-2.824 -3.504,-4.126c3.283,-2.016 6.562,-4.031 9.845,-6.046c2.268,-1.393 5.873,-0.299 8.125,0.629c0.761,0.312 5.626,2.821 3.509,4.123" style="fill:#fbc60b;fill-rule:nonzero;"/><path d="M5467.21,3261c-4.485,1.127 -7.918,4.327 -9.343,8.83c-1.836,5.779 -14.269,2.105 -12.441,-3.654c2.167,-6.822 7.838,-12.125 14.785,-13.872c3.065,-0.77 6.752,-0.003 8.796,2.582c1.705,2.163 1.134,5.376 -1.797,6.114" style="fill:#fbc60b;fill-rule:nonzero;"/></g></svg>