<svg id="a57380a4-7d9a-43f4-92f7-352c263b5db6" data-name="Layer 1" xmlns="http://www.w3.org/2000/svg" viewBox="0 0 764.79 113.58">
  <defs>
    <style>
      .bb020d90-cbef-483f-95ca-1d5cb5646658 {
        fill: #56090f;
      }

      .a1979e5b-1ec5-45de-b2b2-f302096d30b0 {
        fill: #fffb02;
      }

      .a3a47a79-433e-4225-a392-d86a7618b9f5 {
        fill: #037eb7;
      }

      .eaf3fbea-4bf9-4c31-abe0-8a35054a5280 {
        fill: #fff;
      }

      .a7266654-cf66-467b-ad24-96e632623921 {
        isolation: isolate;
        font-size: 20px;
        font-family: Arial-ItalicMT, Arial;
        font-style: italic;
      }

      .b8e650e1-6dea-4fc7-b742-81ba72aaff40 {
        letter-spacing: -0.02em;
      }

      .a8a43c45-78f3-41ee-9a37-43caf4a87dbe {
        fill: #cf271e;
      }

      .b0d796a3-633e-411d-969c-628498e22a48 {
        fill: #040404;
      }

      .a6afdfe4-68aa-4f78-9bc8-942987e1fde0 {
        fill: #e9852f;
      }

      .b9949632-e541-41d6-9fb7-a9e2bd1a2866 {
        fill: #fdfdfd;
      }

      .a1fe5f68-28eb-4b43-8d10-e76f2a266c86 {
        fill: #e98630;
      }
    </style>
  </defs>
  <path class="bb020d90-cbef-483f-95ca-1d5cb5646658" d="M651.31,10.88c5.48-2.7,8.28-5.5,8.28-8.2l-73.13-.4a69.31,69.31,0,0,0-9,2A56.12,56.12,0,0,1,560,5.38Q452.44,1.63,328.29,2.48a16.13,16.13,0,0,0-6.88,1c-2,.8-2.9,1.6-2.7,2.2s.8,1,1.9,1.2c1.4.2,2.19.7,2.49,1.5-13.76,2.1-29.52,2.2-47.38.4a236.42,236.42,0,0,0-34.22-3.2H102.14c1.3,2.1,4.89,4.4,10.77,6.7,3,1.1,4,3.3,2.8,6.5-1.2,2.3-3.49,3.5-6.69,3.7q-9.12-.75-10.17,6.6c-1.2,5.4,2,8.1,9.58,8s12.47,1.4,15,4.6,1.3,5.2-3.19,6.2a94.78,94.78,0,0,1-11.38,2c-3.09.3-4.68,1-4.88,2.2s3.59,2.6,11.17,4.5,11,5.4,10.07,10.6c-1,5.7-5.68,9.3-14,10.8-4,.4-6.49,1.8-7.38,4.4s2.19,3.3,9.47,2.4c8.78-.8,14.27,0,16.36,2.6s.4,4.5-5,6-9.58,3.8-12.37,7.3-3.79,6.7-3,9.8a98.47,98.47,0,0,0,18.46-.8,82,82,0,0,1,14.76-1.3q213.09-1.2,425.37-.7a469.13,469.13,0,0,1,72.42,2.4c15.17,1.4,26,1.2,32.42-.6,1.2-3.6-1.69-6.1-8.68-7.4a152.26,152.26,0,0,1-22.44-6.6c-8.68-2.9-12.37-5.3-11.17-7.3s3.59-3,7.18-3,7.18.1,10.67.3,5.19-.4,5-2.1-3.29-4-9.38-6.8-9-6.4-8.68-10.6,2.5-6.8,6.59-7.6,6.48-1.8,7.18-2.8.4-2.3-1.1-3.7a28.73,28.73,0,0,0-7.58-4.3c-3.49-1.6-4.29-3.5-2.29-5.9s6.38-3.8,13.27-4.3q6.87.9,7.18-3.3c.2-2.8-1.6-5-5.59-6.7a14.22,14.22,0,0,1-8.28-7.8C643.13,15.88,645.32,13,651.31,10.88Z"/>
  <path class="a1979e5b-1ec5-45de-b2b2-f302096d30b0" d="M649.27,10.68c5.5-2.7,8.2-5.3,8.2-8L585,2.28a73.2,73.2,0,0,0-9,2,55.57,55.57,0,0,1-17.4,1.1q-106.65-3.75-229.9-2.9a17,17,0,0,0-7,1c-1.9.8-2.7,1.6-2.5,2.2s.8,1,1.8,1.1c1.4.2,2.2.7,2.5,1.5-13.6,2-29.3,2.2-47,.4a247.76,247.76,0,0,0-34-3.2H104.27c1.3,2.1,4.8,4.2,10.6,6.5,3,1.1,3.9,3.2,2.8,6.4q-1.8,3.3-6.6,3.6c-6-.4-9.3,1.7-10.1,6.5-1.1,5.3,2,8,9.4,7.8s12.4,1.4,14.8,4.5,1.4,5.1-3.1,6.1-8.2,1.6-11.2,2-4.7,1-4.9,2.1,3.5,2.6,11.1,4.3,11,5.3,10,10.4q-1.5,8.4-13.8,10.5c-4,.4-6.5,1.8-7.4,4.2s2.2,3.3,9.4,2.4c8.7-.8,14.1,0,16.2,2.5s.4,4.5-5,5.8-9.5,3.7-12.2,7.2-3.7,6.6-3,9.6a89,89,0,0,0,18.3-.9,80.48,80.48,0,0,1,14.7-1.2q211.5-1.2,422.1-.7a461,461,0,0,1,71.8,2.4c15.1,1.4,25.8,1.2,32.2-.7,1.2-3.5-1.7-6-8.5-7.3a131.15,131.15,0,0,1-22.2-6.4c-8.6-2.8-12.3-5.2-11.2-7.1s3.5-2.9,7.1-3,7.1.1,10.6.4,5.09-.4,5-2.1-3.3-3.8-9.3-6.6-8.91-6.2-8.6-10.4,2.5-6.6,6.5-7.4,6.5-1.7,7.2-2.8.4-2.2-1.1-3.6a30,30,0,0,0-7.5-4.2c-3.5-1.5-4.3-3.5-2.4-5.8s6.4-3.7,13.3-4.1c4.5.6,6.9-.5,7.1-3.3s-1.6-4.9-5.5-6.5a14.45,14.45,0,0,1-8.2-7.7C641.17,15.48,643.37,12.68,649.27,10.68Z"/>
  <g id="ba2baa4a-6bf5-4923-83ed-5f0fa7c7d452" data-name="Layer 1">
    <g>
      <path class="a3a47a79-433e-4225-a392-d86a7618b9f5" d="M746.66,23.48a45.39,45.39,0,0,0-64,0,44,44,0,0,0-13.2,32.1,43.63,43.63,0,0,0,13.2,32,45.15,45.15,0,0,0,64,0,43.34,43.34,0,0,0,13.3-32,43.72,43.72,0,0,0-13.3-32.1m-32-8.8a39.64,39.64,0,0,1,28.9,11.9,39.5,39.5,0,0,1,12,28.9,39.5,39.5,0,0,1-12,28.9,40.92,40.92,0,0,1-57.9,0,39.25,39.25,0,0,1-11.9-28.9,39.64,39.64,0,0,1,11.9-28.9A40.19,40.19,0,0,1,714.66,14.68Z"/>
      <path class="eaf3fbea-4bf9-4c31-abe0-8a35054a5280" d="M743.56,26.68a39.25,39.25,0,0,0-28.9-11.9,40,40,0,0,0-29,11.9,39.41,39.41,0,0,0-11.9,28.9,39.8,39.8,0,0,0,11.9,28.9,40.92,40.92,0,0,0,57.9,0,39.34,39.34,0,0,0,12-28.9A39.34,39.34,0,0,0,743.56,26.68Z"/>
    </g>
  </g>
  <g>
    <text class="a7266654-cf66-467b-ad24-96e632623921" transform="translate(145.55 30.13)">&apos;&apos;Dream project coming alive with millions of students </text>
    <text class="a7266654-cf66-467b-ad24-96e632623921" transform="translate(145.55 52.48)">completing this program - This would not have been </text>
    <text class="a7266654-cf66-467b-ad24-96e632623921" transform="translate(145.55 74.83)">possible without the long term generous support and </text>
    <text class="a7266654-cf66-467b-ad24-96e632623921" transform="translate(145.55 97.18)">encouragement of DEL<tspan class="b8e650e1-6dea-4fc7-b742-81ba72aaff40" x="205.68" y="0">L</tspan><tspan x="216.45" y="0" xml:space="preserve"> Giving and Dell Employees.&apos;&apos;</tspan></text>
  </g>
  <g>
    <rect class="eaf3fbea-4bf9-4c31-abe0-8a35054a5280" x="4.38" y="3.4" width="76.81" height="108.21"/>
    <g>
      <path class="a8a43c45-78f3-41ee-9a37-43caf4a87dbe" d="M42.78,5.76H78.52a.12.12,0,0,1,.08.1,1,1,0,0,1,0,.17V8.9c0,.1,0,.15-.14.15H7.06A.11.11,0,0,1,7,9a.61.61,0,0,1,0-.14V6a.91.91,0,0,1,0-.17.18.18,0,0,1,.07-.08l.1,0H42.78Z"/>
      <path class="a8a43c45-78f3-41ee-9a37-43caf4a87dbe" d="M42.78,106H78.51s.09,0,.09.09a.66.66,0,0,1,0,.14v2.92a.14.14,0,0,1-.11.12H7.08s-.1,0-.1-.09,0-.09,0-.14v-2.82a.71.71,0,0,1,0-.14.23.23,0,0,1,.07-.07H42.78Z"/>
      <g>
        <path class="b0d796a3-633e-411d-969c-628498e22a48" d="M38.52,17V12.13c0-.33,0-.33.32-.33h3.79c.47,0,.93,0,1.39,0A5.06,5.06,0,0,1,45,12a1.17,1.17,0,0,1,.33.11A2.52,2.52,0,0,1,46.86,14a3.07,3.07,0,0,1,0,1.59,2.5,2.5,0,0,1-1.27,1.57,3.48,3.48,0,0,1-1,.35l-.2.05,0,0a.11.11,0,0,0,0,.06l.21.14a4.31,4.31,0,0,1,1,1c.27.36.52.74.76,1.12l1.28,2,.06.12s0,.07-.05.07H45.36a.13.13,0,0,1-.12-.06l-.16-.23-1.69-2.52c-.14-.21-.29-.41-.45-.62a2.37,2.37,0,0,0-.29-.34,1.44,1.44,0,0,0-1-.48c-.33,0-.65,0-1,0a.11.11,0,0,0-.11.11v3.76c0,.1,0,.21,0,.31a.12.12,0,0,1-.11.11H38.6a.07.07,0,0,1-.07-.06c0-.11,0-.21,0-.32Zm3.67-3.4v0H40.7a.11.11,0,0,0-.09.09.66.66,0,0,0,0,.14v2.15a.66.66,0,0,0,0,.14.1.1,0,0,0,.09.08h2.43a4.17,4.17,0,0,0,.79-.1,1.05,1.05,0,0,0,.8-.75,1.59,1.59,0,0,0,.05-.75,1.09,1.09,0,0,0-.65-.84,1.27,1.27,0,0,0-.54-.14H42.19Z"/>
        <path class="b0d796a3-633e-411d-969c-628498e22a48" d="M28.92,17V12.21c0-.1,0-.21,0-.31a.11.11,0,0,1,.09-.09H36.4c.11,0,.15,0,.15.15v1.47c0,.09,0,.12-.13.13H31.09a.12.12,0,0,0-.09.09v2a.19.19,0,0,0,0,.07s0,0,.05,0H36c.13,0,.15,0,.16.17v1.39a.41.41,0,0,1,0,.11.07.07,0,0,1-.07.06h-4.7c-.44,0-.39,0-.39.39v2.33s.05.06.08.07h5.57a.09.09,0,0,1,.09.08.41.41,0,0,1,0,.11v1.36a.34.34,0,0,1,0,.1s0,.07-.07.07H29.19l-.21,0s0,0,0-.05a.88.88,0,0,1,0-.17V17Z"/>
        <path class="b0d796a3-633e-411d-969c-628498e22a48" d="M57,22.09H56.1c-.24,0-.21,0-.29-.21l-.66-1.73c0-.1-.09-.21-.13-.32a.15.15,0,0,0-.11-.08H51.12a.65.65,0,0,0-.14,0,.13.13,0,0,0-.11.08,2,2,0,0,0-.1.26c-.2.57-.41,1.13-.61,1.7l-.09.23c0,.05-.06.06-.11.07H48l-.1,0s0,0,0-.05l.09-.26,2.34-6c.47-1.22,1-2.44,1.43-3.66,0-.06,0-.13.08-.19a.15.15,0,0,1,.12-.07h2a.21.21,0,0,1,.21.14,1.57,1.57,0,0,0,.09.23l2.91,7.3c.31.79.63,1.57.95,2.36a1.39,1.39,0,0,1,.06.19,0,0,0,0,1,0,.05l-.14,0ZM52.93,18h1.18l.14,0a.07.07,0,0,0,0-.05.19.19,0,0,0,0-.07c-.42-1.16-.85-2.32-1.28-3.48,0,0,0,0,0-.06l0,0h0a1.12,1.12,0,0,0,0,.13l-1.23,3.36c0,.05,0,.09,0,.14s0,0,0,.05l.14,0Z"/>
        <path class="b0d796a3-633e-411d-969c-628498e22a48" d="M61,17a7.36,7.36,0,0,0,.18,1.61,3.53,3.53,0,0,0,.15.46,2.38,2.38,0,0,0,2.72,1.41,2.19,2.19,0,0,0,1.26-.88,3.65,3.65,0,0,0,.39-.85l.09-.3a.09.09,0,0,1,.1-.07l.1,0,1.63.52.13.05s0,0,0,.08,0,.05,0,.07a5.85,5.85,0,0,1-.57,1.31,3.74,3.74,0,0,1-2.45,1.75,5.19,5.19,0,0,1-2,.06,4.39,4.39,0,0,1-3.43-2.69A4.7,4.7,0,0,1,59,18.25a8.38,8.38,0,0,1,0-2.5A5.07,5.07,0,0,1,59.56,14a4.33,4.33,0,0,1,3.18-2.3,6.47,6.47,0,0,1,1.46-.06,4.17,4.17,0,0,1,1.82.53,3.52,3.52,0,0,1,1.41,1.45,4.82,4.82,0,0,1,.37.91q0,.11-.09.15l-1.8.42h0a.11.11,0,0,1-.12-.06c0-.09-.05-.18-.09-.27a2.31,2.31,0,0,0-.5-.78,1.84,1.84,0,0,0-1-.53,2.77,2.77,0,0,0-1.28,0,2.2,2.2,0,0,0-1.43,1.13,3.28,3.28,0,0,0-.35,1A7.39,7.39,0,0,0,61,17Z"/>
        <path class="b0d796a3-633e-411d-969c-628498e22a48" d="M72.35,19.91V18a.76.76,0,0,0-.14-.49l-1.83-2.88-1.64-2.59a2.12,2.12,0,0,1-.11-.21l0-.06h2.27a.15.15,0,0,1,.11.07l.15.24,2.1,3.52a1.3,1.3,0,0,0,.1.15.05.05,0,0,0,.08,0l.17-.27,2-3.37.18-.29a.14.14,0,0,1,.12-.06h2.16a.08.08,0,0,1,.08.12l-.06.09-.13.2c-1.12,1.76-2.25,3.52-3.35,5.29l-.06.09a.64.64,0,0,0-.12.42v4c0,.07,0,.11-.11.11H72.45a.09.09,0,0,1-.09-.09,2.44,2.44,0,0,1,0-.27Z"/>
        <path class="b0d796a3-633e-411d-969c-628498e22a48" d="M22.47,17.83V13.66a.12.12,0,0,0-.12-.11H19.49a.07.07,0,0,1-.06-.07.17.17,0,0,1,0-.1V11.91a.11.11,0,0,1,.09-.1h7.76l.24,0s0,0,0,0a.11.11,0,0,1,0,.06v1.5a.1.1,0,0,1-.1.11H24.65a.12.12,0,0,0-.1.12c0,.11,0,.23,0,.35v7.9c0,.14,0,.16-.15.17H22.54s-.06,0-.06-.07,0-.21,0-.31Z"/>
        <path class="b0d796a3-633e-411d-969c-628498e22a48" d="M7.44,17V12.3c0-.1,0-.2,0-.31s0-.08.09-.09H9.45a.08.08,0,0,1,.06.08c0,.1,0,.2,0,.31v7.62c0,.11,0,.23,0,.34a.09.09,0,0,0,.09.09h4.69l.32,0s0,0,0,0a.19.19,0,0,1,0,.07V22c0,.07,0,.1-.11.11h-7a.1.1,0,0,1-.1-.11c0-.1,0-.2,0-.31Z"/>
        <path class="b0d796a3-633e-411d-969c-628498e22a48" d="M18.18,17v4.8c0,.33,0,.32-.31.32H16.2c-.05,0-.08,0-.09-.09v-10a.13.13,0,0,1,.12-.14H18c.13,0,.17,0,.17.16v5Z"/>
      </g>
      <g>
        <path class="b0d796a3-633e-411d-969c-628498e22a48" d="M21.24,99v-5a.11.11,0,0,1,.1-.09h1.77a.26.26,0,0,1,.23.13c.34.57.69,1.13,1,1.69.95,1.55,1.9,3.11,2.86,4.66,0,.08.1.15.15.23h0s0,0,0,0,0-.23,0-.34V94.27c0-.11,0-.23,0-.35s0,0,.07-.06h1.77s.07,0,.07.06,0,.21,0,.32v9.6a1.48,1.48,0,0,1,0,.21.07.07,0,0,1-.07.06H27.47a.26.26,0,0,1-.25-.15c-.33-.55-.67-1.09-1-1.63-.93-1.5-1.86-3-2.78-4.49l-.18-.26h0s0,0,0,0,0,.23,0,.35v5.7c0,.12,0,.23,0,.35a.11.11,0,0,1-.09.09H21.29s0,0,0,0a1.93,1.93,0,0,1,0-.24V99Z"/>
        <path class="b0d796a3-633e-411d-969c-628498e22a48" d="M38.08,99V94c0-.16,0-.18.18-.18h3.13l1.19,0a5.83,5.83,0,0,1,.72.06,3.59,3.59,0,0,1,1.87.86,3.93,3.93,0,0,1,.75.92,5.3,5.3,0,0,1,.62,1.65,8.75,8.75,0,0,1,.15,2.11,6.4,6.4,0,0,1-.22,1.51,5.35,5.35,0,0,1-.67,1.48,3.49,3.49,0,0,1-2,1.45,5.56,5.56,0,0,1-1.51.21H38.16s0,0-.07-.06a.34.34,0,0,1,0-.1V99Zm2.07,0V102a2.62,2.62,0,0,0,0,.28.07.07,0,0,0,.06.07h1.92a3,3,0,0,0,.79-.09,1.63,1.63,0,0,0,1.2-.91,3.69,3.69,0,0,0,.17-.42,3.89,3.89,0,0,0,.21-1.12,11.64,11.64,0,0,0,0-1.67,4.16,4.16,0,0,0-.13-.86,2.46,2.46,0,0,0-.47-1,1.58,1.58,0,0,0-.58-.48,2.55,2.55,0,0,0-1-.26l-2,0h0c-.11,0-.15,0-.15.14V99Z"/>
        <path class="b0d796a3-633e-411d-969c-628498e22a48" d="M74.25,104.12h-.94a.19.19,0,0,1-.22-.16l-.09-.23-.63-1.66a.76.76,0,0,1-.06-.16.18.18,0,0,0-.19-.12h-3.9s-.07,0-.08.06l-.14.35-.57,1.61-.09.22a.13.13,0,0,1-.11.08H65.32a.34.34,0,0,1-.14,0s0,0,0,0l.08-.26c.28-.71.56-1.43.83-2.14.67-1.72,1.34-3.43,2-5.15.32-.8.63-1.6,1-2.39a1.08,1.08,0,0,1,.08-.19.16.16,0,0,1,.08-.06h2a.19.19,0,0,1,.21.14c0,.09.07.17.11.26.64,1.61,1.28,3.23,1.93,4.84l1.89,4.71a2.09,2.09,0,0,1,.08.23s0,.08,0,.08H74.25Zm-4-4.06h1.25c.09,0,.12-.06.09-.14a1,1,0,0,0,0-.1c-.4-1.08-.79-2.15-1.19-3.22l-.09-.23,0,0,0,0-.06.13-1.22,3.36,0,.1s0,.08,0,.08H70.2Z"/>
        <path class="b0d796a3-633e-411d-969c-628498e22a48" d="M12.28,99v4.73c0,.12,0,.23,0,.35a.06.06,0,0,1,0,0H10.35c-.09,0-.14,0-.14-.12V94.19a2.62,2.62,0,0,1,0-.28s0,0,0,0h1.88c.09,0,.13,0,.13.12v5Z"/>
        <path class="b0d796a3-633e-411d-969c-628498e22a48" d="M56.74,99v4.66c0,.11,0,.21,0,.31s0,.12-.13.12H54.72a.07.07,0,0,1,0,0,1.49,1.49,0,0,1,0-.21V94.11a1.09,1.09,0,0,1,0-.18.23.23,0,0,1,.07-.07h1.94a.09.09,0,0,1,0,0c0,.12,0,.24,0,.35C56.74,95.85,56.74,97.44,56.74,99Z"/>
        <path class="b0d796a3-633e-411d-969c-628498e22a48" d="M48.9,100.58h0l0,0c-.24-.54-.48-1.08-.73-1.61a.2.2,0,0,1,0-.2l.75-1.29c0-.06.09,0,.13,0l.75,1.6a.2.2,0,0,1,0,.2L49,100.55Z"/>
        <path class="b0d796a3-633e-411d-969c-628498e22a48" d="M32.09,100.61s-.06-.06-.07-.09c-.25-.54-.49-1.08-.73-1.61a.2.2,0,0,1,0-.2L32,97.42c0-.06.1,0,.13,0l.75,1.6a.18.18,0,0,1,0,.19l-.41.69-.31.54Z"/>
        <path class="b0d796a3-633e-411d-969c-628498e22a48" d="M60.46,97.38h0s0,0,0,.05c.26.53.51,1.07.76,1.6a.2.2,0,0,1,0,.2c-.26.44-.51.88-.77,1.31a.07.07,0,0,1,0,0c-.05,0-.06,0-.07,0l-.73-1.65a.15.15,0,0,1,0-.16c.19-.32.37-.64.55-1l.2-.33S60.44,97.4,60.46,97.38Z"/>
        <path class="b0d796a3-633e-411d-969c-628498e22a48" d="M15.79,100.59s0,0,0,0a.24.24,0,0,1-.06-.08c-.24-.53-.47-1.06-.71-1.58a.2.2,0,0,1,0-.2l.76-1.32s.07,0,.09,0l0,.06c.25.53.5,1.05.74,1.57a.18.18,0,0,1,0,.2c-.25.44-.51.87-.77,1.31Z"/>
      </g>
      <circle class="a6afdfe4-68aa-4f78-9bc8-942987e1fde0" cx="42.79" cy="58.03" r="34.12"/>
      <g>
        <path class="b9949632-e541-41d6-9fb7-a9e2bd1a2866" d="M71.21,50.76v8.29c0,.15,0,.18-.19.18H68.55s-.06,0-.07-.07,0-.2,0-.31V56a2.45,2.45,0,0,0,0-.27l0,0s0,0,0,0a1,1,0,0,0-.08.11,7,7,0,0,1-1.61,1.91c-.16.14-.34.27-.51.41a7.41,7.41,0,0,1-1.55.93,7.24,7.24,0,0,1-1.93.56,6.26,6.26,0,0,1-2-.06,8.54,8.54,0,0,1-2.2-.75,2.87,2.87,0,0,1-.48-.28,6.43,6.43,0,0,1-1.28-1.22,4.32,4.32,0,0,1-.92-2.11,4.58,4.58,0,0,1,0-1.11,3.78,3.78,0,0,1,.53-1.46,5.26,5.26,0,0,1,1.82-1.84,7.51,7.51,0,0,1,1.89-.8l.87-.21a5.19,5.19,0,0,0,1.44-.53,3.35,3.35,0,0,0,1-.82,3.18,3.18,0,0,0,.66-1.4,5,5,0,0,0,.13-1.28,4,4,0,0,0-.26-1.32,1.62,1.62,0,0,0-.38-.58,1.31,1.31,0,0,0-.93-.41h-.28a.58.58,0,0,0-.47.31.79.79,0,0,0-.1.33c0,.13,0,.26,0,.39,0,.89,0,1.78,0,2.68a.3.3,0,0,1,0,.13.08.08,0,0,1-.07.07l-.1,0H59.64s-.07,0-.07-.07a1,1,0,0,1,0-.24v-2.3a1.14,1.14,0,0,0-.11-.44A.94.94,0,0,0,59,43.9a1.28,1.28,0,0,0-1,0,.86.86,0,0,0-.56.73,2.06,2.06,0,0,0,0,.35v2.26c0,.19,0,.23-.22.23H54.78a.14.14,0,0,1-.09-.09c0-.06,0-.12,0-.18V45a1.32,1.32,0,0,1,0-.28,3.3,3.3,0,0,1,.8-1.55,2.45,2.45,0,0,1,1.23-.69,3.59,3.59,0,0,1,2.15.15,2.06,2.06,0,0,1,1.33,1.54c0,.13,0,.25.08.38s0,0,0,0l0,0,.14-.36a3,3,0,0,1,.66-1,2.36,2.36,0,0,1,.84-.55,3.7,3.7,0,0,1,1.19-.23h.42a2,2,0,0,1,.65.08,4.13,4.13,0,0,1,1.17.53,3.19,3.19,0,0,1,.91,1A3.78,3.78,0,0,1,66.78,45a4.57,4.57,0,0,1,.09,1.52,6.33,6.33,0,0,1-.16.78,3.65,3.65,0,0,1-1.19,1.77A5.82,5.82,0,0,1,64,50a13.56,13.56,0,0,1-2.42.75,4,4,0,0,0-1.89,1,3.26,3.26,0,0,0-1,1.74,6.16,6.16,0,0,0-.08,1.21,3.47,3.47,0,0,0,.48,1.66,3,3,0,0,0,1.33,1.23,4.45,4.45,0,0,0,1.23.36,6.23,6.23,0,0,0,1.43.05A4.53,4.53,0,0,0,65,57.62a4.63,4.63,0,0,0,1.56-1.14,7.14,7.14,0,0,0,1-1.43,11.41,11.41,0,0,0,.91-2.4,1.92,1.92,0,0,0,0-.41V42.38a.13.13,0,0,1,.13-.13h2.51s.09,0,.09.09,0,.23,0,.35v8.07Z"/>
        <path class="b9949632-e541-41d6-9fb7-a9e2bd1a2866" d="M25.4,53.25h7.52s.09,0,.09.09a.78.78,0,0,1,0,.14v2.27a.59.59,0,0,1,0,.13A.07.07,0,0,1,33,56l-.11,0H26.09a.12.12,0,0,0-.13.13v.39c0,.29,0,.31.31.37a6,6,0,0,1,2.07.68,5.09,5.09,0,0,1,2.28,2.5,7.37,7.37,0,0,1,.49,1.66,12.38,12.38,0,0,1,.15,1.35c0,.21,0,.42,0,.63a8.6,8.6,0,0,1-.47,2.66,5.56,5.56,0,0,1-1.11,1.87,4.15,4.15,0,0,1-1.65,1.12,3,3,0,0,1-1.1.19,3.21,3.21,0,0,1-.69,0,1.63,1.63,0,0,1-1-.75.42.42,0,0,1-.07-.24V59.76A.16.16,0,0,0,25,59.6l-.18,0a16.61,16.61,0,0,0-2.64-.06,6.5,6.5,0,0,0-1.75.26,2.31,2.31,0,0,0-.91.49,1.53,1.53,0,0,0-.48.83.49.49,0,0,0,0,.17s0,0,.05,0l.16-.06a6.84,6.84,0,0,1,1.13-.53,4.17,4.17,0,0,1,1.91-.29,3,3,0,0,1,1.44.48,2.29,2.29,0,0,1,1,1.45,2.38,2.38,0,0,1,.07.59A1.93,1.93,0,0,1,24,64.56a2.7,2.7,0,0,1-.64.36,4.52,4.52,0,0,1-1.31.34,3.94,3.94,0,0,1-1.41-.08,4.6,4.6,0,0,1-1.13-.45,2.66,2.66,0,0,1-.51-.37,4,4,0,0,1-1.33-2,3.81,3.81,0,0,1-.19-1.06,6.82,6.82,0,0,1,.06-1.28,3.11,3.11,0,0,1,1.08-1.9A4.67,4.67,0,0,1,20,57.39a9.19,9.19,0,0,1,2-.47,16.89,16.89,0,0,1,2.36-.12c.23,0,.46,0,.69,0a.13.13,0,0,0,.15-.15c0-.19,0-.37,0-.56A.13.13,0,0,0,25,56H17.87a.15.15,0,0,1-.12-.11v-2.3a1.48,1.48,0,0,1,0-.21.11.11,0,0,1,.08-.09H25.4ZM26,63.88v4a.26.26,0,0,0,.08.19,1.41,1.41,0,0,0,1.54.33,2.48,2.48,0,0,0,1.2-.87,3.63,3.63,0,0,0,.57-1.06,7.09,7.09,0,0,0,.34-2.09.71.71,0,0,0,0-.14c0-.18,0-.37,0-.55a5.11,5.11,0,0,0-.36-1.59,3.72,3.72,0,0,0-1.48-1.75,4.64,4.64,0,0,0-1.53-.57l-.2,0a.12.12,0,0,0-.1.09c0,.1,0,.2,0,.31ZM21.45,63a5.36,5.36,0,0,0-1.07.08,3,3,0,0,0-.72.24,1,1,0,0,0-.2.15.27.27,0,0,0,0,.37,1.07,1.07,0,0,0,.16.14,1.73,1.73,0,0,0,.31.14c.24.06.47.12.71.16a8,8,0,0,0,1,.05,3.89,3.89,0,0,0,.83-.08,3.1,3.1,0,0,0,.66-.19.92.92,0,0,0,.3-.18.28.28,0,0,0,0-.45,1.38,1.38,0,0,0-.24-.14A3,3,0,0,0,22,63.06Z"/>
        <path class="b9949632-e541-41d6-9fb7-a9e2bd1a2866" d="M62.54,75H58.09a.13.13,0,0,1-.09-.1v0c0-.32,0-.63,0-.94,0-.1,0-.14.16-.15h6.23a.08.08,0,0,0,.05-.13l-.18-.26a8.32,8.32,0,0,1-.72-1.27,3.87,3.87,0,0,1-.29-1A2.44,2.44,0,0,1,63.89,69a4.06,4.06,0,0,1,1.26-.91,3.73,3.73,0,0,1,1.26-.37,3.09,3.09,0,0,1,1.21.12,4,4,0,0,1,1.44.82,4.57,4.57,0,0,1,.62.7,5.8,5.8,0,0,1,1,1.92,5.19,5.19,0,0,1,.17.89c0,.23.05.46.05.69A5.86,5.86,0,0,1,70,76a7.37,7.37,0,0,1-1.64,1.84,9.12,9.12,0,0,1-2.29,1.36,9.63,9.63,0,0,1-2,.56,13.41,13.41,0,0,1-1.42.16,7.94,7.94,0,0,1-1.29,0l-.2,0a9.28,9.28,0,0,1-2.45-.5A8.4,8.4,0,0,1,55.17,77a5.61,5.61,0,0,1-1.24-2.27,5.75,5.75,0,0,1-.19-1.31,6.46,6.46,0,0,1,.08-1.24,5.72,5.72,0,0,1,.38-1.3,5.89,5.89,0,0,1,.85-1.4,3.87,3.87,0,0,1,2.38-1.39,4.5,4.5,0,0,1,1,0l.62,0a1.28,1.28,0,0,1,.48.09,2.47,2.47,0,0,1,1.57,1.61,2.38,2.38,0,0,1-.52,2.43A2.35,2.35,0,0,1,59,73a2.49,2.49,0,0,1-2.76-2,2.14,2.14,0,0,1,0-.62c0-.1,0-.21,0-.31s0,0,0,0a.16.16,0,0,0-.07.07A4.18,4.18,0,0,0,55.62,72a5.32,5.32,0,0,0,.12,1.32,2.38,2.38,0,0,0,.84,1.36,3.77,3.77,0,0,0,.75.5,8.3,8.3,0,0,0,1.66.62,14.69,14.69,0,0,0,1.6.34,6.53,6.53,0,0,0,.76.08,15,15,0,0,0,1.64.06c.22,0,1.12-.07,1.35-.1a11.41,11.41,0,0,0,1.3-.23,7.61,7.61,0,0,0,1.54-.54,5.44,5.44,0,0,0,.67-.37A2.83,2.83,0,0,0,69.15,73a3.29,3.29,0,0,0,0-.83c0-.22,0-.44-.08-.66a2.38,2.38,0,0,0-.4-1,1.67,1.67,0,0,0-.6-.52,1.85,1.85,0,0,0-1.74,0,1.35,1.35,0,0,0-.73.93c0,.12,0,.25-.07.37a2,2,0,0,0,.29,1.3,2.84,2.84,0,0,0,.87.89,4.57,4.57,0,0,0,.47.29.62.62,0,0,1,.33.5.65.65,0,0,1,0,.14,1,1,0,0,1-.4.6A.26.26,0,0,1,67,75H62.54Zm-4.26-3.43.28,0a.31.31,0,0,0,.13,0,1.3,1.3,0,1,0-1.64-.89A1.29,1.29,0,0,0,58.28,71.57Z"/>
        <path class="b9949632-e541-41d6-9fb7-a9e2bd1a2866" d="M50.31,64.41v5c0,.12,0,.23,0,.35a.13.13,0,0,1-.11.11H48.13l-.17,0a.07.07,0,0,1-.07-.06.43.43,0,0,1,0-.11V63.3c0-.11,0-.23,0-.34a.11.11,0,0,0-.13-.1,2.43,2.43,0,0,0-1,.37,2.92,2.92,0,0,0-.87.88.81.81,0,0,0-.11.33l-.09.58a9,9,0,0,1-.49,1.78,6,6,0,0,1-.35.72,3.24,3.24,0,0,1-.71.89,2.07,2.07,0,0,1-.42.31,1.34,1.34,0,0,1-1,.26.78.78,0,0,1-.51-.21,1,1,0,0,1-.38-.79c0-.82,0-1.64,0-2.47a1.84,1.84,0,0,1,0-.41,4,4,0,0,1,.45-1.27,3.15,3.15,0,0,1,.75-.91l.27-.22a.21.21,0,0,0,.07-.12,2.55,2.55,0,0,0-.12-1.16.19.19,0,0,0,0-.07.79.79,0,0,0-.67-.49.4.4,0,0,0-.35.09l-.36.28-1.1.86a.41.41,0,0,0-.13.23,8.17,8.17,0,0,1-.17.86,6.18,6.18,0,0,1-.9,1.95,6.52,6.52,0,0,1-1,1.14,3.23,3.23,0,0,1-.77.54,1.35,1.35,0,0,1-.74.14l-.17,0a.46.46,0,0,1-.28-.19,1.42,1.42,0,0,1-.23-.69,2.36,2.36,0,0,1,0-.38,8,8,0,0,1,.3-2.23,4.79,4.79,0,0,1,.46-1.13,3,3,0,0,1,.82-.93l.08-.06a.3.3,0,0,0,.13-.2,1.55,1.55,0,0,0,0-.21.38.38,0,0,0-.06-.23.71.71,0,0,1-.1-.14,1,1,0,0,1-.13-.47.34.34,0,0,0,0-.1,1,1,0,0,0-.37-.83.29.29,0,0,0-.19-.08H35.58l-.27,0a.13.13,0,0,1-.1-.09V56.86a.12.12,0,0,1,.12-.13H38.5a.26.26,0,0,1,.19.08,6.47,6.47,0,0,1,.61.67A7.55,7.55,0,0,1,40.22,59a1.08,1.08,0,0,0,.08.19.13.13,0,0,0,.1,0l.14-.09.69-.48a4.66,4.66,0,0,1,.84-.41,4,4,0,0,1,.81-.19.65.65,0,0,1,.28,0,2.66,2.66,0,0,1,1.11.62,3.46,3.46,0,0,1,.7.91,6.21,6.21,0,0,1,.54,1.24c.1.31.1.34.38.14a6.62,6.62,0,0,1,1.77-.87l.07,0c.1,0,.14-.08.14-.18V57.11c0-.1,0-.2,0-.31a.1.1,0,0,1,.1-.08h4.59s0,0,0,.05a1.49,1.49,0,0,1,0,.21v1.84s0,0,0,.07-.05.1-.12.1H50.42a.1.1,0,0,0-.1.11c0,.12,0,.24,0,.35Z"/>
        <path class="b9949632-e541-41d6-9fb7-a9e2bd1a2866" d="M50.3,78.15v4.66c0,.12,0,.23,0,.35a.09.09,0,0,0,.13.07.88.88,0,0,0,.21-.12,1.16,1.16,0,0,0,.33-.4,4.59,4.59,0,0,0,.24-.5,1.35,1.35,0,0,1,.19-.33.56.56,0,0,1,.27-.21h.17a.12.12,0,0,1,.11.08l0,.1c.14.58.27,1.17.41,1.76a.51.51,0,0,1,0,.4,2.67,2.67,0,0,1-.52.69,1.58,1.58,0,0,1-1.36.4,3.41,3.41,0,0,1-1.94-1,3.81,3.81,0,0,1-.82-1.4.47.47,0,0,1,0-.17,2.43,2.43,0,0,1,0-.27v-3c0-.11,0-.21,0-.32s-.05-.08-.09-.09h-.11l-.27,0-1.15-.1h-.13l-.05,0a2.25,2.25,0,0,0-.08.24A4.07,4.07,0,0,1,45,80.59a4.14,4.14,0,0,1-.83.79,5.25,5.25,0,0,1-1.68.82,4,4,0,0,1-1,.15h-.14a3.44,3.44,0,0,1-2.17-.74A4.73,4.73,0,0,1,38,80.3L37.84,80a.11.11,0,0,0-.15,0l-.06,0a2.05,2.05,0,0,1-1.09.16A1.38,1.38,0,0,1,36,80,1.79,1.79,0,0,1,35,78.88a1.86,1.86,0,0,1,.73-2.09,1.64,1.64,0,0,1,1-.31,1.88,1.88,0,0,1,.62.07,1.25,1.25,0,0,1,.4.2,1,1,0,0,0,.17.12.22.22,0,0,0,.23,0,4.54,4.54,0,0,0,1.07-.56,2.19,2.19,0,0,0,.66-.76A1.75,1.75,0,0,0,40,74.2a1.27,1.27,0,0,0-.56-.65,2,2,0,0,0-.89-.27,5.54,5.54,0,0,0-1.52.11c-.38.08-.75.18-1.11.28l-.1,0a.15.15,0,0,1-.09,0,.52.52,0,0,1-.06-.16L35,71.41a.38.38,0,0,1,0-.1s0-.08.06-.08l.54-.14a6.85,6.85,0,0,1,2-.15,3.57,3.57,0,0,1,2.72,1.47,6,6,0,0,1,.81,1.65c.05.17.1.33.14.5a4.11,4.11,0,0,1-.14,2.33,5.57,5.57,0,0,1-1,1.65,6.36,6.36,0,0,1-.61.66l-.12.13a.11.11,0,0,0,0,.13,1.78,1.78,0,0,0,1.32.75A3,3,0,0,0,41.93,80a1.75,1.75,0,0,0,.91-.67,1.42,1.42,0,0,0,.25-.71,5.23,5.23,0,0,0,0-.56A.29.29,0,0,0,43,77.9a1.37,1.37,0,0,1-.17-.17,1.79,1.79,0,0,1-.38-1.7,1.83,1.83,0,0,1,1.39-1.32,2.17,2.17,0,0,1,1.1.08,1.87,1.87,0,0,1,1.16,2s0,.09,0,.14,0,0,0,0,0,0,0,0a.09.09,0,0,0,.06,0l1.27-.85.11-.08a.14.14,0,0,0,.06-.12c0-.1,0-.21,0-.31V71.63a.08.08,0,0,1,.12-.07l.1,0L50.12,73l.12.08a.26.26,0,0,1,0,.09.61.61,0,0,1,0,.14v4.87Z"/>
        <path class="b9949632-e541-41d6-9fb7-a9e2bd1a2866" d="M41.76,28.55h3.52a.11.11,0,0,1,.09.09s0,.07,0,.11v1.39a.2.2,0,0,1,0,.07.12.12,0,0,1-.13.12h-1s-.1,0-.1.09,0,.07,0,.1V44.22c0,.13,0,.25,0,.38a.07.07,0,0,1-.05,0l-.16,0L42,43.8l-.58-.25a.2.2,0,0,1-.12-.19V37.61c0-.11,0-.23,0-.34s0,0-.06,0l-.12.07a2.58,2.58,0,0,1-.53.32,2.14,2.14,0,0,1-.75.16,3.42,3.42,0,0,1-1.48-.31,7.88,7.88,0,0,1-1.69-1l-.47-.36a0,0,0,0,0,0,0s0,0,0,.06a8.1,8.1,0,0,1,.58.86,7.64,7.64,0,0,1,.6,1.26,3.57,3.57,0,0,1,.25,1.25,2.51,2.51,0,0,1-.48,1.54,3.23,3.23,0,0,1-.67.66,4.86,4.86,0,0,1-1.24.69,3.75,3.75,0,0,1-1.06.19,3.62,3.62,0,0,1-1.67-.41,6.17,6.17,0,0,1-1.82-1.43A10.77,10.77,0,0,1,28.93,38a17.77,17.77,0,0,1-1-2.64c-.05-.18-.09-.36-.14-.54a.16.16,0,0,1,.1-.2l.56-.29a.11.11,0,0,1,.11.06c0,.09.05.17.07.26.17.63.35,1.26.57,1.87a12.31,12.31,0,0,0,.95,2,6.61,6.61,0,0,0,.9,1.15A4.19,4.19,0,0,0,33,40.8a2.38,2.38,0,0,0,1.47,0,2.49,2.49,0,0,0,1.21-.91,2.27,2.27,0,0,0,.42-1.23A3.51,3.51,0,0,0,36,37.55,6.36,6.36,0,0,0,35.42,36a.24.24,0,0,0-.06-.09l-.06,0-.1,0a3.42,3.42,0,0,1-2.15.37.18.18,0,0,1-.15-.08l-.56-.92c-.11-.17-.21-.34-.31-.51,0,0,0,0,0-.06h.07a2.5,2.5,0,0,0,.72,0A3.16,3.16,0,0,0,35,34a2.92,2.92,0,0,0,.42-.51A2,2,0,0,0,35.69,32a1.37,1.37,0,0,0-.32-.65,2.33,2.33,0,0,0-1.7-.89,4.21,4.21,0,0,0-.87,0,2.92,2.92,0,0,0-1.69.76l-.12.12a.1.1,0,0,1-.15,0l-.22-.4-.47-.85a.13.13,0,0,1,0-.16,2.92,2.92,0,0,1,1-.72A3.44,3.44,0,0,1,33,28.91a5.43,5.43,0,0,1,.69.09,4.09,4.09,0,0,1,2,1,4.34,4.34,0,0,1,.77.94A3.78,3.78,0,0,1,37,32.62a3.68,3.68,0,0,1-.13,1.44,2.81,2.81,0,0,1-.57,1l-.23.27c-.08.09-.08.13,0,.19a5.13,5.13,0,0,0,1.94.82,3.63,3.63,0,0,0,1.79-.1,4.56,4.56,0,0,0,1.43-.71.27.27,0,0,0,.12-.26V30.49a.14.14,0,0,0-.16-.14H39.12a.19.19,0,0,1-.2-.11l0-.1-.63-1.4,0-.1s0-.07.06-.07h3.48Z"/>
        <path class="b9949632-e541-41d6-9fb7-a9e2bd1a2866" d="M20.22,46.45h7.45c.06,0,.09-.08.07-.13a.39.39,0,0,0-.22-.25.67.67,0,0,0-.28-.06l-.34,0a2.32,2.32,0,0,1-.59,0l-.14,0a.51.51,0,0,1-.35-.6,1.12,1.12,0,0,1,.66-.84,1.21,1.21,0,0,1,.37-.11,2.41,2.41,0,0,1,1,0,3,3,0,0,1,.66.22A3.07,3.07,0,0,1,30,46a1.62,1.62,0,0,1,.1.18c.12.26.11.26.42.26h3.56a.15.15,0,0,1,.09,0,1.14,1.14,0,0,1,.23.38.08.08,0,0,1-.06.08h-.55s-.07,0-.07.07,0,.21,0,.31c0,.88,0,1.76,0,2.65v.31a.09.09,0,0,1-.11.06l-.39-.22a.18.18,0,0,1-.1-.17.34.34,0,0,0,0-.1.14.14,0,0,0-.06-.12l-.23-.16-1.45-1-.14-.1a.08.08,0,0,1,0-.1c.06,0,.12-.1.19-.14l1.35-.86.29-.2A.19.19,0,0,0,33,47a.07.07,0,0,0,0,0H30.34a.09.09,0,0,0-.06.07,1.62,1.62,0,0,0,0,.31v2.93c0,.1,0,.2,0,.31s-.06,0-.08,0l-.09-.06-.3-.24c-.32-.28-.27-.16-.27-.58V47.15c0-.15,0-.18-.19-.18h-.9a.13.13,0,0,0-.1.09v.32c0,.89,0,1.78,0,2.68a2.44,2.44,0,0,1,0,.27s-.06.05-.08,0l-.42-.32a.25.25,0,0,1-.13-.23.19.19,0,0,0-.08-.15l-.2-.13-1.33-.89-.2-.14c-.12-.08-.13-.12,0-.2l.7-.45.94-.6a.71.71,0,0,0,.14-.1.15.15,0,0,0,0-.13.12.12,0,0,0-.08-.06H23.43a.12.12,0,0,0-.13.12V48a.15.15,0,0,0,.21.12,1.88,1.88,0,0,0,.23-.16l.34-.3a1.18,1.18,0,0,1,.41-.19.6.6,0,0,1,.52.1,1,1,0,0,1,.28.32.15.15,0,0,1,0,.13l-.13.2a3.25,3.25,0,0,0-.28.56,1.86,1.86,0,0,0,0,1.23c.05.14.12.28.18.42s0,.06-.06.06h-.07a.78.78,0,0,1-.48-.37,1.52,1.52,0,0,1-.21-.63,4.33,4.33,0,0,1,0-.72.47.47,0,0,0,0-.17s0,0,0,0l-.09.05-.24.25a3,3,0,0,1-.27.23,1.17,1.17,0,0,1-.27.15.36.36,0,0,1-.48-.16.7.7,0,0,1-.13-.39,2.09,2.09,0,0,1,0-.25V47.32a1.93,1.93,0,0,0,0-.24.11.11,0,0,0-.11-.11h-.21a.3.3,0,0,0-.16.05A2.59,2.59,0,0,0,21,48.55a2.74,2.74,0,0,0,0,1.21.45.45,0,0,0,.19.31.09.09,0,0,0,.13,0c0-.08.07-.17.12-.25a.53.53,0,0,1,.61-.23.43.43,0,0,1,.3.27.79.79,0,0,1-.64,1.09,2.44,2.44,0,0,1-.38,0,1,1,0,0,1-.67-.41,1.5,1.5,0,0,1-.22-.5c0-.15-.06-.3-.08-.45l0-.38a.38.38,0,0,1,0-.1,3.65,3.65,0,0,1,.34-1.56c.06-.12.14-.23.21-.35A.8.8,0,0,0,21,47s0,0,0-.05H19.72a.13.13,0,0,0-.1.09c0,.1,0,.21,0,.31v2.82a2.64,2.64,0,0,1,0,.28s0,0-.05,0l-.06,0-.41-.27A.2.2,0,0,1,19,50v0c0-.32,0-.26-.26-.44l-1.44-1-.17-.12a.08.08,0,0,1,0-.12l.2-.14,1.3-.8.3-.19a.19.19,0,0,0,0-.13s0-.1-.07-.1H14.58a.14.14,0,0,0-.07.06.18.18,0,0,0,0,.1v.77a.36.36,0,0,0,0,.1.1.1,0,0,0,.11.06l.12-.06.17-.18a1.67,1.67,0,0,1,.42-.32.87.87,0,0,1,.8,0,1.43,1.43,0,0,1,.42.31.1.1,0,0,1,0,.13l-.19.33a2.43,2.43,0,0,0-.25.65,2.33,2.33,0,0,0,0,1.2,1.42,1.42,0,0,1,0,.2c0,.06-.06.13-.13.14s0,0-.06,0a.44.44,0,0,1-.08-.11,3.55,3.55,0,0,1-.43-1.42.45.45,0,0,0,0-.2s0,0-.06,0l-.16.12a2.54,2.54,0,0,1-.52.41.7.7,0,0,1-.4.08.43.43,0,0,1-.38-.35,1.93,1.93,0,0,1,0-.24v-1.4c0-.32,0-.33-.33-.32h-.14c-.36,0-.29,0-.57.24a2.76,2.76,0,0,0-.64.94,2.06,2.06,0,0,0-.15.85,2.67,2.67,0,0,0,.27,1.11l0,0s0,0,0,0a1.46,1.46,0,0,0,.07-.19.51.51,0,0,1,1,.1,1,1,0,0,1,0,.42.48.48,0,0,1-.36.38.83.83,0,0,1-.94-.29A3.45,3.45,0,0,1,11.43,49a1.9,1.9,0,0,1,.16-1.28,3,3,0,0,1,.75-.91l.22-.17a.45.45,0,0,0,.1-.14.18.18,0,0,1,.17-.09h7.39Zm8.67,0h.45a.08.08,0,0,0,.08-.09s0,0,0-.07A1.94,1.94,0,0,0,28,45.16a4.46,4.46,0,0,0-1.21-.07.2.2,0,0,0-.14.08.14.14,0,0,0,0,.21,1,1,0,0,0,.36.12l.45.07a1.67,1.67,0,0,1,.3.08.68.68,0,0,1,.41.35,1,1,0,0,1,.11.29c0,.15.07.17.22.17Zm-9.92,2h0V48a.06.06,0,0,0-.1,0l-.67.36c-.06,0-.05.1,0,.13l.6.35h0a.09.09,0,0,0,.13-.07Zm14.1.14h0V48.4c0-.06,0-.12,0-.17a.07.07,0,0,0-.11,0l-.55.35a.06.06,0,0,0,0,.09L33,49h0l0,0C33.06,48.8,33.07,48.69,33.07,48.57Zm-5.4-.16h0c0-.11,0-.22,0-.34s-.05,0-.08,0a2.62,2.62,0,0,0-.54.35s0,0,0,.06a2.24,2.24,0,0,0,.57.31s0,0,.05,0,0,0,0,0Z"/>
        <path class="b9949632-e541-41d6-9fb7-a9e2bd1a2866" d="M48.86,46.14v-.7s-.06-.09-.09-.08l-.17,0a1.31,1.31,0,0,1-.52,0,.52.52,0,0,1-.47-.36.82.82,0,0,1,.08-.73.56.56,0,0,1,.25-.23,1,1,0,0,1,.61-.11.69.69,0,0,0,.2,0,.83.83,0,0,1,.53.25c.09.09.16.19.25.29a.23.23,0,0,0,.28.07.88.88,0,0,0,.33-.24c.06-.07.1-.13.15-.2a.36.36,0,0,1,.23-.15l.2-.06a.12.12,0,0,0,.08-.1v-.52a.11.11,0,0,0-.12-.11,4.44,4.44,0,0,1-.62,0,1.7,1.7,0,0,1-.62-.22,1.27,1.27,0,0,1-.63-.91,1,1,0,0,1,.22-.79,1.18,1.18,0,0,1,.33-.3,1.93,1.93,0,0,1,.52-.2,3.36,3.36,0,0,1,.9-.08,1.28,1.28,0,0,1,.5.13.86.86,0,0,1,.39.43.14.14,0,0,1,0,.06.94.94,0,0,1-.14.8.46.46,0,0,1-.21.18,1.23,1.23,0,0,1-1,0,.43.43,0,0,1-.27-.34.35.35,0,0,1,.16-.36.45.45,0,0,1,.29-.1h.28a.13.13,0,0,0,.11-.15.21.21,0,0,0-.14-.18l-.06,0a4,4,0,0,0-.49,0,.74.74,0,0,0-.65.5,1,1,0,0,0-.08.37.57.57,0,0,0,.28.5,1.17,1.17,0,0,0,.45.17,2.88,2.88,0,0,0,.59.06h.27l.21.05a.5.5,0,0,1,.37.49.9.9,0,0,1,0,.28,1.8,1.8,0,0,1-.16.38c0,.08-.09.16-.14.24a.12.12,0,0,0,0,.13l.23.31a2,2,0,0,1,.26.53,1.37,1.37,0,0,1,0,.85,1.51,1.51,0,0,1-.33.49.75.75,0,0,1-.6.23.84.84,0,0,1-.31-.05.13.13,0,0,1-.06-.14.39.39,0,0,1,.16-.23.31.31,0,0,0,.14-.33.71.71,0,0,0,0-.14.06.06,0,0,0-.06-.07s-.06,0-.09,0a3.44,3.44,0,0,1-.27.27.43.43,0,0,1-.29.1.49.49,0,0,1-.23-.08L49.64,46h0s0,0,0,.05c0,.2,0,.41,0,.62s0,.21,0,.31-.06.09-.09.08L49,46.9a.1.1,0,0,1-.07-.1,1,1,0,0,1,0-.17v-.49Zm-.46-1.25.16,0,.16-.06a.14.14,0,0,0,.06-.12s0-.08-.07-.11h0a.78.78,0,0,0-.6,0s0,0-.06,0a.13.13,0,0,0,0,.21A.81.81,0,0,0,48.4,44.89Zm2.4.34a.26.26,0,0,0,0-.07.76.76,0,0,0-.28-.38.09.09,0,0,0-.13,0,.06.06,0,0,0,0,0,.54.54,0,0,0,.25.46l.06,0A.11.11,0,0,0,50.8,45.23Z"/>
        <path class="b9949632-e541-41d6-9fb7-a9e2bd1a2866" d="M44.05,48.86v1.6a1.49,1.49,0,0,1,0,.21s0,0-.05,0l-.07,0-.33-.2a.18.18,0,0,1-.08-.14v-.21a.32.32,0,0,0-.07-.19,1.7,1.7,0,0,0-.86-.56,1.17,1.17,0,0,0-.49,0,.19.19,0,0,1-.16,0l-.09-.1-.6-.68-.06-.08a.09.09,0,0,1,0-.13.62.62,0,0,1,.47-.17h.14a.45.45,0,0,0,.38-.13,2.4,2.4,0,0,0,.4-.38.74.74,0,0,0,.16-.27.27.27,0,0,0-.14-.32.76.76,0,0,0-.2-.06.23.23,0,0,0-.22.07.21.21,0,0,0-.08.11c0,.09,0,.18,0,.27a.45.45,0,0,1-.2.28.35.35,0,0,1-.22.08,1.47,1.47,0,0,1-.21,0,.5.5,0,0,1-.47-.3.71.71,0,0,1,.17-.83.45.45,0,0,1,.14-.1,1.51,1.51,0,0,1,1.43,0,1.2,1.2,0,0,1,.58.71.85.85,0,0,1-.06.68,1.46,1.46,0,0,1-.37.45,1.37,1.37,0,0,0-.18.16s0,0,0,.06,0,0,0,0a7.61,7.61,0,0,0,.72.55s.09,0,.09,0,0-.07,0-.11V46.51c0-.28,0-.25.19-.5l.17-.17h0l0,0c0,.08,0,.16,0,.24a1.49,1.49,0,0,0,0,.21.12.12,0,0,0,.07.07h.1l.32,0a1,1,0,0,1,.56.15l.18.11s.08,0,.08,0a1.91,1.91,0,0,0,0-.41c0-.13,0-.26,0-.38s0,0,.05,0a.07.07,0,0,1,.07,0c.1.06.19.13.29.18a.29.29,0,0,1,.16.29.14.14,0,0,0,0,.06.07.07,0,0,0,0,0l.17,0a.64.64,0,0,1,.58.48.09.09,0,0,1-.07.1H46c-.09,0-.16,0-.16.15v3.13a.36.36,0,0,1,0,.1l-.05,0a.32.32,0,0,1-.14,0c-.32-.15-.31-.1-.31-.45s0-.84,0-1.26c0-.24,0-.48,0-.73a.66.66,0,0,0-.07-.3,1.78,1.78,0,0,0-.17-.3.87.87,0,0,0-.91-.36.14.14,0,0,0-.11.12,2.62,2.62,0,0,0,0,.28Z"/>
        <path class="b9949632-e541-41d6-9fb7-a9e2bd1a2866" d="M38.14,46.43h2.29l.09,0a1.18,1.18,0,0,1,.23.35s0,.05,0,.05l-.17,0H39.09c-.1,0-.14.05-.15.15v.25a.16.16,0,0,0,.1.16l.26.12a2.42,2.42,0,0,1,.58.38,2.2,2.2,0,0,1,.2.23,1,1,0,0,1,0,1.12.39.39,0,0,1-.4.22.46.46,0,0,1-.38-.36.42.42,0,0,1,.3-.48l.13,0c.06,0,.08-.08.06-.14l0-.09a.73.73,0,0,0-.36-.31l-.3-.1a.13.13,0,0,0-.17.12V50c0,.1,0,.21,0,.31a.07.07,0,0,1,0,.06h-.06l-.09-.1a7.19,7.19,0,0,0-2.19-1.64l-.21-.12a.06.06,0,0,1,0-.06.09.09,0,0,1,0-.06,3,3,0,0,1,1.41-.91l.41-.09a.1.1,0,0,0,.08-.1V47a.1.1,0,0,0-.1-.11H36.12a.21.21,0,0,1-.18-.1l-.16-.27a.08.08,0,0,1,.06-.1h2.3Zm.13,2.14h0c0-.14,0-.28,0-.42s-.05-.13-.13-.11a2.28,2.28,0,0,0-.78.35s0,.08,0,.09a1.82,1.82,0,0,1,.75.49l.05.05h.06s0,0,0-.05Z"/>
        <path class="b9949632-e541-41d6-9fb7-a9e2bd1a2866" d="M48.87,33.79V32.72c0-.22,0-.34-.34-.3h-.1s0-.05,0-.08a.45.45,0,0,1,.38-.32.81.81,0,0,1,.31,0,.5.5,0,0,1,.35.25c0,.08.09.17.13.25a.07.07,0,0,0,.09,0,1.07,1.07,0,0,1,.16-.14,1,1,0,0,1,.7-.25h.07a1,1,0,0,1,.77.33.87.87,0,0,1,.22.74c0,.17-.1.33-.12.51l.21.44a.94.94,0,0,1,0,.77.52.52,0,0,1-.29.29,1.42,1.42,0,0,1-.29.1,1.63,1.63,0,0,1-.79-.09l-.1,0a.62.62,0,0,1-.36-.8.32.32,0,0,1,.27-.24,1,1,0,0,1,.41,0l.17,0a.16.16,0,0,0,.12-.06.15.15,0,0,0,0-.12s0,0,0,0-.16-.16-.14-.26a1.47,1.47,0,0,1,.14-.28.64.64,0,0,0-.1-.71.4.4,0,0,0-.28-.14,1,1,0,0,0-.62.16.41.41,0,0,0-.23.39c0,.4,0,.79,0,1.18s0,.56,0,.84a.1.1,0,0,1-.12.08h0l-.06,0c-.54-.21-.45-.06-.46-.65v-.8Zm1.63.78-.09,0a.2.2,0,0,0-.08.33.21.21,0,0,0,.26,0,.28.28,0,0,0,.13-.23l0-.06A.23.23,0,0,0,50.5,34.57Z"/>
        <path class="b9949632-e541-41d6-9fb7-a9e2bd1a2866" d="M48.87,30.25V29.2c0-.05,0-.11,0-.17a.15.15,0,0,0-.12-.11h-.21l-.13,0a0,0,0,0,1,0,0,.48.48,0,0,1,.46-.4h.07a.56.56,0,0,1,.57.32,1.51,1.51,0,0,1,.09.18.05.05,0,0,0,.09,0,.93.93,0,0,1,.13-.15,1.25,1.25,0,0,1,1.28-.33.57.57,0,0,1,.32.2,1.21,1.21,0,0,1,.31,1.06.76.76,0,0,1-.23.42.16.16,0,0,0,0,.16,2.29,2.29,0,0,1,.12.37.77.77,0,0,1-.11.59,1.32,1.32,0,0,1-.58.49.61.61,0,0,1-.13,0,1,1,0,0,1-.91-.33l-.16-.18s0,0-.06,0a0,0,0,0,0,0,0c0,.06,0,.12,0,.17,0,.28,0,.27-.28.19L49,31.61a.12.12,0,0,1-.07-.11,1.48,1.48,0,0,1,0-.21v-1Zm1.57-.1a1.56,1.56,0,0,0,.2-.16.55.55,0,0,0,.07-.72.57.57,0,0,0-.67-.22.9.9,0,0,0-.46.46.36.36,0,0,0,0,.1v1.08a.33.33,0,0,0,0,.13.84.84,0,0,0,.82.48A.43.43,0,0,0,50.8,31a.65.65,0,0,0-.18-.67Z"/>
        <path class="b9949632-e541-41d6-9fb7-a9e2bd1a2866" d="M48.87,37.39v-.8a1.48,1.48,0,0,0,0-.21.15.15,0,0,0-.14-.13h-.27a.08.08,0,0,1-.06-.1.41.41,0,0,1,.18-.24.63.63,0,0,1,.8.11c.05.06.08.13.13.2a.75.75,0,0,0,.07.12.06.06,0,0,0,.06,0,.62.62,0,0,0,.25-.17l.24-.26a.21.21,0,0,1,.15-.07h.49c.27,0,.26,0,.47.21a2.2,2.2,0,0,1,.43.63,1.33,1.33,0,0,1,.13.43,1.23,1.23,0,0,1-.19.77,2.28,2.28,0,0,1-.73.72.32.32,0,0,1-.39,0,.14.14,0,0,1,0-.21,3.55,3.55,0,0,0,.23-.31.51.51,0,0,0,.08-.36.31.31,0,0,0-.06-.13.1.1,0,0,0-.08,0l0,0a.06.06,0,0,0,0,0c0,.22-.1.21-.23.22a1,1,0,0,1-.48-.09l-.18-.1c-.06,0-.11,0-.12.09v.73a.57.57,0,0,1,0,.13.08.08,0,0,1-.1.07L49,38.52h0a.14.14,0,0,1-.07-.11,1.09,1.09,0,0,1,0-.18v-.83Zm1.48-1.06a.14.14,0,0,0-.12.06.12.12,0,0,0,0,.13.27.27,0,0,0,.07.08l.42.3.07,0a.09.09,0,0,0,.1-.07.34.34,0,0,0,0-.1.78.78,0,0,0-.31-.36A.38.38,0,0,0,50.35,36.33Zm-.37.85,0,.11a.05.05,0,0,0,.08,0,.21.21,0,0,0,.06-.22.13.13,0,0,0-.09-.1s-.07,0-.08.1A.39.39,0,0,1,50,37.18Z"/>
        <path class="b9949632-e541-41d6-9fb7-a9e2bd1a2866" d="M49.63,54.71c0,.32,0,.64,0,1a.08.08,0,0,1-.08,0h0l-.07,0c-.61-.28-.5-.09-.51-.77V53.59c0-.18-.09-.25-.27-.23l-.21,0a0,0,0,0,1,0,0,.53.53,0,0,1,.4-.39h.07a.58.58,0,0,1,.62.29l.06.08a.07.07,0,0,0,.09,0l.17-.18a1,1,0,0,1,.66-.27h.21a1,1,0,0,1,.75.38.86.86,0,0,1,.17.66,3,3,0,0,1-.11.43.2.2,0,0,0,0,.17l.12.21a1.14,1.14,0,0,1,.09.81.6.6,0,0,1-.34.42.79.79,0,0,1-.26.08,1.47,1.47,0,0,1-1-.16.62.62,0,0,1-.3-.41.54.54,0,0,1,.08-.43.3.3,0,0,1,.26-.16,1,1,0,0,1,.37.05l.17,0c.09,0,.17-.11.15-.2a.53.53,0,0,0-.13-.2.12.12,0,0,1,0-.13l.14-.28a.61.61,0,0,0-.15-.7.31.31,0,0,0-.18-.09.93.93,0,0,0-.83.27.17.17,0,0,0,0,.12,1.48,1.48,0,0,0,0,.21v.73Zm.9.61h-.09a.17.17,0,0,0-.12.15.31.31,0,0,0,0,.1.17.17,0,0,0,.2.14.22.22,0,0,0,.15-.08.22.22,0,0,0,.06-.22C50.72,55.36,50.64,55.32,50.53,55.32Z"/>
        <path class="b9949632-e541-41d6-9fb7-a9e2bd1a2866" d="M48.87,51.37v-.73a1.09,1.09,0,0,0,0-.18.17.17,0,0,0-.15-.16,1.06,1.06,0,0,0-.31,0s0,0,0-.05a.49.49,0,0,1,.39-.39h.14a.67.67,0,0,1,.67.62c0,.17,0,.34,0,.52l0,0h.07a.34.34,0,0,1,.38.08.39.39,0,0,0,.36.06.08.08,0,0,0,.06,0,2.44,2.44,0,0,1,.28-.43.35.35,0,0,0,0-.13c0-.07,0-.14,0-.21a.1.1,0,0,0-.07-.07h-.8c-.08,0-.12-.05-.13-.14V50a.15.15,0,0,1,.09-.13,1.44,1.44,0,0,1,.61-.15,1.92,1.92,0,0,1,.82.09.69.69,0,0,1,.15.07s0,.06.06.09a0,0,0,0,1,0,0v.76a.11.11,0,0,1-.09.1l-.1,0c-.1,0-.13.05-.13.13v.87c0,.07,0,.15,0,.2a.42.42,0,0,0,.16,0,.16.16,0,0,1,.13.15.11.11,0,0,1-.05.08h-.42c-.3,0-.29,0-.49-.29a1.32,1.32,0,0,1-.15-.39.13.13,0,0,0-.12-.1.24.24,0,0,0-.25.09.46.46,0,0,0-.07.07.25.25,0,0,1-.2.07l-.17,0a.06.06,0,0,0-.07,0c0,.15,0,.3,0,.45s0,.21,0,.31-.06.06-.08.05l-.39-.16c-.22-.1-.21-.12-.21-.34v-.8Z"/>
        <path class="b9949632-e541-41d6-9fb7-a9e2bd1a2866" d="M50.42,49.45a1.47,1.47,0,0,1-1-.3l-.11-.08a.83.83,0,0,1-.08-1.24,1,1,0,0,1,.45-.32,2,2,0,0,1,1.43,0,1.12,1.12,0,0,1,.42.3.86.86,0,0,1-.1,1.26A1.55,1.55,0,0,1,50.42,49.45Zm.48-1.06a.85.85,0,0,0-.18-.61.36.36,0,0,0-.57-.06.62.62,0,0,0-.14.19,1.07,1.07,0,0,0,0,.84.79.79,0,0,0,.18.29.39.39,0,0,0,.53,0A.9.9,0,0,0,50.9,48.39Z"/>
        <path class="b9949632-e541-41d6-9fb7-a9e2bd1a2866" d="M49.89,40.48a1.21,1.21,0,0,1-1.13-.66.59.59,0,0,1,.36-.89,1.06,1.06,0,0,1,.61,0,.64.64,0,0,1,.38.28.51.51,0,0,1,0,.62c-.06.06-.14.12-.2.19s0,0,0,.06h0a1.51,1.51,0,0,0,1.37-.51l.15-.19s.08-.06.09,0l0,.06a2.63,2.63,0,0,1-.09.3,1.15,1.15,0,0,1-.59.56,4.11,4.11,0,0,1-.46.15,1.27,1.27,0,0,1-.28.06A1.92,1.92,0,0,1,49.89,40.48Zm-.43-.69a.28.28,0,0,0,.28-.26.27.27,0,1,0-.28.26Z"/>
        <path class="b9949632-e541-41d6-9fb7-a9e2bd1a2866" d="M52.29,35.62h-.1c-.35,0-.28,0-.56.2l-.08.06h0s0,0,0,0a.59.59,0,0,1,.16-.4.36.36,0,0,1,.22-.11H53a.15.15,0,0,1,.09,0,.45.45,0,0,1,.15.4.18.18,0,0,1,0,.1l-.23.21a1.34,1.34,0,0,0-.27.4.34.34,0,0,0,.1.43.8.8,0,0,0,.21.13,1.54,1.54,0,0,0,.19.08.13.13,0,0,1,.07.12.57.57,0,0,1,0,.13.18.18,0,0,1-.07.08h-.06a1.45,1.45,0,0,1-.68-.13,1.09,1.09,0,0,1-.23-.14.71.71,0,0,1,0-1.05,1.12,1.12,0,0,1,.29-.19l.21-.11a.12.12,0,0,0,.06-.12s0-.1-.07-.1h-.39Z"/>
        <path class="b9949632-e541-41d6-9fb7-a9e2bd1a2866" d="M32.4,49.83a.4.4,0,0,1-.37.39.39.39,0,0,1-.36-.35.35.35,0,0,1,.36-.38A.37.37,0,0,1,32.4,49.83Z"/>
        <path class="a1fe5f68-28eb-4b43-8d10-e76f2a266c86" d="M38.27,48.57V49s0,.05,0,.05h-.06L38.12,49a1.82,1.82,0,0,0-.75-.49s0-.07,0-.09a2.28,2.28,0,0,1,.78-.35c.08,0,.13,0,.13.11s0,.28,0,.42Z"/>
      </g>
    </g>
  </g>
  <path class="a3a47a79-433e-4225-a392-d86a7618b9f5" d="M681.64,55.12c0-2.81,0-5.62,0-8.44,0-1.4.06-1.44,1.45-1.45,2.16,0,4.32,0,6.48,0a9.9,9.9,0,0,1,9.3,6c.59,1.23.59,1.24,1.69.39,3-2.32,5.93-4.64,8.91-6.94,1-.8,1-.8,2,0,.71.54,1.37,1.15,2,1.73-.68.63-1.33,1.31-2,1.88-2.52,2-5.07,4-7.59,5.95-.78.62-.76.65,0,1.29.19.16.42.28.6.46.57.57,1.05.49,1.68,0,2.91-2.31,5.85-4.57,8.78-6.85,1.09-.85,1.1-.85,2.24,0,.48.37,1,.73,1.42,1.12.68.57.68.64-.06,1.22l-4.39,3.43c-1.51,1.17-3,2.33-4.51,3.52-.94.74-.92.83,0,1.55.23.19.5.34.72.54a.81.81,0,0,0,1.2,0c1.06-.84,2.13-1.67,3.2-2.5,1.9-1.48,3.8-3,5.72-4.42a2.37,2.37,0,0,0,1.07-2.16c-.06-1.66,0-3.32,0-5,0-1.13.1-1.2,1.21-1.23.8,0,1.61,0,2.41,0,1,0,1.06.12,1.12,1.17,0,.35,0,.7,0,1.05v11.6c0,.3,0,.6,0,.9,0,1.09.1,1.16,1.27,1.18,1.6,0,3.21,0,4.82,0,2.11,0,2.11,0,2.1,2.17,0,1.83,0,1.84-1.82,1.84h-9.34c-1.78,0-1.79,0-1.79-1.87,0-1.51,0-3,0-4.52a3.88,3.88,0,0,0-.09-.58,2.72,2.72,0,0,0-.63.27C718,60.7,715.09,63,712.2,65.23l-.35.29c-1.6,1.17-1.17,1.12-2.63,0-2.91-2.23-5.78-4.51-8.66-6.77-1.11-.87-1.1-.88-1.68.37a9.84,9.84,0,0,1-9.13,6q-3.32,0-6.63,0c-1.39,0-1.46-.08-1.47-1.44C681.63,60.84,681.64,58,681.64,55.12Zm4.62.07c0,1.05,0,2.11,0,3.16.06,3.09-.57,2.79,3,2.77a5.4,5.4,0,0,0,4-1.51,6.09,6.09,0,0,0,1.63-6,5.26,5.26,0,0,0-5.43-4.26c-.5,0-1,0-1.51,0-1.61,0-1.62,0-1.63,1.57S686.26,53.78,686.26,55.19Z"/>
  <path class="a3a47a79-433e-4225-a392-d86a7618b9f5" d="M740.57,53.21c0,2.21,0,4.42,0,6.63,0,1.18.1,1.27,1.31,1.28,1.91,0,3.82,0,5.73,0,1.23,0,1.31.09,1.32,1.28,0,3.14.27,2.71-2.58,2.73s-5.82,0-8.73,0c-1.62,0-1.64,0-1.65-1.55V46.73c0-1.48,0-1.49,1.54-1.51h1.65c1.33,0,1.38.07,1.4,1.36,0,2.21,0,4.42,0,6.63Z"/>
</svg>
