<svg version="1.1" id="a759dbe8-81d8-400a-b887-7dc38b6dfd2c"
	 xmlns="http://www.w3.org/2000/svg" xmlns:xlink="http://www.w3.org/1999/xlink" x="0px" y="0px" viewBox="0 0 314 337.7"
	 style="enable-background:new 0 0 314 337.7;" xml:space="preserve">
<style type="text/css">
	.st0{fill:#5F930C;}
	.st1{fill:#FFD3BF;}
	.st2{fill:#939598;}
	.st3{fill:#E6E7E8;}
	.st4{fill:#FFFFFF;}
	.st5{fill:#BCBEC0;}
	.st6{fill:#F7C3AB;}
	.st7{fill:#F0B297;}
	.st8{fill:#69942F;}
	.st9{fill:#CFA232;}
	.st10{fill:#FFFEE3;}
	.st11{fill:#7ABECC;}
	.st12{fill:#ED5739;}
	.st13{fill:#ED6F55;}
	.st14{fill:#6E4726;}
	.st15{fill:#854E1B;}
	.st16{fill:#603913;}
	.st17{fill:#FBB040;}
	.st18{fill:#941116;}
	.st19{fill:#8A1115;}
	.st20{fill:#ED1C24;}
	.st21{fill:#262262;}
	.st22{opacity:0.18;}
	.st23{fill:#754C29;}
	.st24{fill:#EDBA39;}
</style>
<g id="a013f47d-e5e1-4bea-bbd5-60b6a4f06175">
	<path class="st0" d="M255.1,292c8.6-2.4,12.8-5.6,12.6-9.5c-0.4-7-16.8-9.6-49.1-7.8c-32.2,1.8-48.1,6.2-47.7,13.2
		c0.2,3.8,5.5,6.5,15.8,7.9c9,1.2,20.8,1.4,35.4,0.5C236.4,295.6,247.4,294.1,255.1,292z"/>
</g>
<path class="st1" d="M195.4,171l1-3l-8.7-2.3c-2.6,6.6-7.8,12.8-15.5,18.6c-3.4,2.6-7,4.8-10.8,6.7l3.1,4.7
	c11.8-3.9,20.7-9.7,26.6-17.3C192.9,176.1,194.3,173.6,195.4,171z"/>
<path class="st1" d="M164.7,197c0.8-0.7,1.3-1.7,1.6-2.7c0.3-1.1-0.2-2.2-1.1-2.8c-1-0.8-2.2-1.2-3.5-1.1c-1.2,0-2.3,0.5-3.1,1.4
	c-0.8,0.7-1.3,1.8-1.2,2.9c0,1.1,0.5,2.1,1.3,2.8c0.8,0.8,1.9,1.1,3,1.1C162.8,198.4,163.9,197.9,164.7,197z"/>
<path class="st1" d="M160.9,197.2c-0.6,0.5-1.3,1-2.1,1.2c-0.7,0.3-1.6,0.4-2.4,0.2c-0.4-0.1-0.6,0-0.7,0.4c-0.1,0.3,0,0.7,0.4,0.8
	h0.1c1,0.3,2.1,0.2,3-0.2c1-0.3,1.9-0.9,2.7-1.6c0.3-0.3,0.3-0.5,0-0.8C161.6,197,161.2,197,160.9,197.2L160.9,197.2z"/>
<path class="st1" d="M159.4,196.2c-0.1-0.3-0.4-0.6-0.8-0.5l0,0c-0.3,0.1-0.5,0.2-0.8,0.3c-0.4,0.2-0.7,0.3-0.8,0.4
	c-0.6,0.1-1.2,0.2-1.8,0.1c-0.4,0-0.6,0.2-0.6,0.6c0,0.4,0.3,0.7,0.6,0.7l0,0c0.7,0,1.3,0,2-0.2c0.3-0.1,0.6-0.2,0.9-0.4
	c0.3-0.2,0.5-0.3,0.8-0.3C159.4,196.9,159.6,196.6,159.4,196.2z"/>
<path class="st1" d="M159.2,194.7c0-0.4-0.2-0.7-0.6-0.7c-0.6,0.1-1.2,0.2-1.7,0.3c-0.7,0.2-1.5,0.2-2.2,0.1
	c-0.4-0.1-0.7,0.2-0.8,0.5c0,0,0,0,0,0.1c-0.1,0.3,0,0.6,0.3,0.7c0.1,0,0.1,0,0.2,0c0.7,0.1,1.5,0.1,2.2-0.1c0,0,0.4-0.1,1.1-0.3
	c0.3-0.1,0.7-0.2,1.1-0.1c0.3,0,0.5-0.1,0.6-0.4C159.2,194.8,159.2,194.8,159.2,194.7z"/>
<path class="st1" d="M158.4,192.2c-1.3,0.2-2.7,0.2-4,0.2c-0.5,0-0.7,0.3-0.7,0.8c0,0.4,0.2,0.7,0.5,0.7c0.1,0,0.1,0,0.2,0
	c1.8-0.1,3.1-0.1,4-0.2c0.4,0,0.7-0.4,0.7-0.8c0,0,0,0,0-0.1C159.1,192.3,158.8,192.1,158.4,192.2z"/>
<path class="st1" d="M163.2,189.9c-0.9-0.8-2.1-1.1-3.2-0.9c-1.2,0.1-2.3,0.3-3.5,0.6c-0.6,0.1-0.7,0.5-0.6,1.1
	c0.1,0.5,0.6,0.8,1,0.7h0.1c1.4-0.3,2.3-0.4,2.6-0.5c1.2-0.1,2,0,2.4,0.4c0.2,0.3,0.7,0.4,1,0.2c0.1,0,0.1-0.1,0.2-0.2
	c0.4-0.3,0.4-0.9,0.1-1.3L163.2,189.9z"/>
<path class="st1" d="M238.5,165.2l1.2,2.9c1.3,2.5,3,4.9,4.9,7c6.5,7.1,15.8,12.2,27.9,15.2l2.7-4.9c-4-1.5-7.8-3.5-11.3-5.8
	c-8.2-5.1-13.8-10.9-17-17.3L238.5,165.2z"/>
<path class="st1" d="M279.5,188.6c0-1.1-0.6-2.1-1.4-2.8c-0.9-0.7-2.1-1.1-3.2-1.1c-1.2,0-2.4,0.5-3.4,1.3c-0.9,0.7-1.3,1.8-0.9,2.9
	c0.3,1,1,1.9,1.8,2.6c0.9,0.8,2,1.2,3.2,1.2c1.1,0,2.2-0.5,2.9-1.3C279.1,190.7,279.5,189.6,279.5,188.6z"/>
<path class="st1" d="M275.3,192.4c0.8,0.6,1.8,1.1,2.8,1.3c1,0.3,2,0.3,3,0c0.3-0.1,0.5-0.4,0.4-0.7c0,0,0-0.1-0.1-0.1
	c-0.1-0.4-0.4-0.5-0.8-0.4c-0.7,0.3-1.6,0.3-2.3,0c-0.8-0.2-1.5-0.5-2.2-1c-0.2-0.2-0.6-0.2-0.8,0l-0.1,0.1
	C275,191.9,275,192.2,275.3,192.4z"/>
<path class="st1" d="M281.9,190.4c-0.6,0.1-1.3,0.1-1.9,0c-0.5-0.3-1.1-0.5-1.6-0.6c-0.4-0.1-0.7,0.2-0.8,0.6l0,0
	c-0.1,0.4,0.1,0.6,0.5,0.7c0.3,0.1,0.6,0.2,0.9,0.3s0.6,0.2,0.9,0.3c0.7,0.1,1.3,0.1,2,0c0.4,0,0.6-0.3,0.6-0.7
	c0-0.3-0.1-0.5-0.4-0.6C282,190.4,281.9,190.4,281.9,190.4z"/>
<path class="st1" d="M278.3,189.4c0.7,0,1.5,0,2.2,0.2c0.7,0.1,1.5,0,2.2-0.1c0.4-0.1,0.6-0.3,0.4-0.7c-0.1-0.4-0.4-0.6-0.8-0.5
	c-0.7,0.2-1.5,0.2-2.3,0c-0.6-0.1-1.2-0.2-1.8-0.2c-0.3,0-0.6,0.2-0.6,0.5c0,0.1,0,0.1,0,0.2C277.7,189.2,277.9,189.4,278.3,189.4z"
	/>
<path class="st1" d="M278.4,187.7c1.3,0.1,2.7,0.1,4,0c0.4,0,0.7-0.3,0.7-0.7c0-0.1,0-0.1,0-0.2c0-0.4-0.2-0.7-0.6-0.7
	c-0.1,0-0.1,0-0.2,0c-1.3,0.1-2.7,0.1-4,0.1c-0.5,0-0.7,0.2-0.7,0.8S278,187.7,278.4,187.7z"/>
<path class="st1" d="M274.7,185.6c0.4-0.5,1.1-0.7,2.3-0.6c0.1,0,1,0.1,2.6,0.3c0.5,0.1,1-0.2,1.1-0.7l0,0c0.1-0.6-0.1-1-0.7-1
	c-1.2-0.2-2.3-0.3-3.5-0.3c-1.2-0.1-2.3,0.3-3.1,1.1c-0.3,0.3-0.3,0.9,0,1.2l0.1,0.1C274,186.1,274.4,186.1,274.7,185.6z"/>
<path class="st2" d="M223,256.8c-0.7-0.4-1.4,0-2.1,1.3c-0.2,0.3-0.5,0.8-0.9,1.5c-0.2,0.9-0.2,1.9,0.2,2.8c1.2,3.2,3.4,5.9,6.2,7.7
	c3.1,2.1,5.6,2.5,7.3,1.2c2-1.5,1.5-3.8-1.5-6.8l-8.4-6.7C223.7,257.4,223.4,257,223,256.8z"/>
<path class="st3" d="M232.7,263.1l-4.2-4.4l-3.3-2.6c-0.9-0.2-1.8-0.2-2.6,0.1c-1.6,0.5-1.9,2-1.1,4.5c1.3,3.3,3.5,6.2,6.3,8.4
	c3.3,2.6,5.6,3,6.9,1.2C235.9,268.7,235.2,266.3,232.7,263.1z"/>
<path class="st1" d="M242.8,229.3l-12.3,0.7c-0.8,5.8-3.3,15.4-7.3,28.7l0.5,0.6c0.4,0.4,1,0.8,1.6,0.9c0.8,0.3,1.7,0,2.1-0.7
	c2.8-3.3,6.2-9.4,10.2-18.2L242.8,229.3z"/>
<path class="st4" d="M228.7,267.4c1.1-0.9,2.5-1.3,3.9-1c0.3,0.1,0.6-0.1,0.7-0.4c0-0.1,0-0.1,0-0.2c0.1-0.3,0-0.6-0.3-0.7
	c-0.1,0-0.1,0-0.2,0c-1.7-0.3-3.5,0.1-4.9,1.1c-0.3,0.2-0.4,0.5-0.2,0.8c0,0,0,0.1,0.1,0.1c0.1,0.3,0.4,0.4,0.7,0.3
	C228.6,267.5,228.7,267.4,228.7,267.4z"/>
<path class="st4" d="M226.9,265.6c1.8-1.2,3.2-1.6,4.5-1.2c0.3,0.1,0.6,0,0.7-0.3c0-0.1,0-0.1,0-0.2c0.1-0.4-0.1-0.7-0.5-0.8l0,0
	c-1.6-0.4-3.4,0.1-5.4,1.5c-0.3,0.1-0.4,0.4-0.3,0.7c0,0.1,0.1,0.1,0.1,0.2c0.1,0.3,0.5,0.4,0.7,0.3
	C226.8,265.7,226.9,265.7,226.9,265.6z"/>
<path class="st4" d="M227.6,262.8c0.8-0.3,1.7-0.4,2.5-0.2c0.3,0.1,0.6-0.1,0.7-0.4v-0.1c0.1-0.3-0.1-0.7-0.4-0.8h-0.1
	c-1-0.2-2-0.1-2.9,0.3s-1.8,0.8-2.7,1.3c-0.3,0.1-0.4,0.4-0.3,0.7c0,0.1,0.1,0.1,0.1,0.2c0.2,0.3,0.6,0.4,0.9,0.3l0,0
	C226.5,263.3,227.2,262.9,227.6,262.8z"/>
<path class="st5" d="M223.7,259.3c0.4,0.4,1,0.8,1.6,0.9c0.8,0.3,1.7,0,2.1-0.7c1.2-1.5,2.3-3.1,3.3-4.7c-1.7,0.2-3.6-0.6-5.7-2.4
	l-1.8,6.2L223.7,259.3z"/>
<path class="st2" d="M195.7,257.9c-0.7-0.4-1.4,0-2.1,1.2c-0.3,0.6-0.6,1.1-0.9,1.6c-0.2,0.9-0.2,1.9,0.2,2.8
	c1.2,3.2,3.4,5.9,6.2,7.7c3.1,2.2,5.6,2.6,7.3,1.2c2-1.5,1.5-3.8-1.5-6.9l-8.4-6.7C196.4,258.5,196.1,258.1,195.7,257.9z"/>
<path class="st3" d="M205.4,264.2l-4.1-4.4l-3.3-2.5c-0.9-0.2-1.8-0.2-2.6,0.1c-1.5,0.6-1.9,2.1-1,4.5c1.2,3.4,3.4,6.3,6.3,8.4
	c3.3,2.6,5.5,2.9,6.8,1.1C208.7,269.8,208,267.4,205.4,264.2z"/>
<path class="st1" d="M200.2,260.6c2.8-3.3,6.2-9.4,10.2-18.1l5.2-12.1l-12.3,0.6c-0.8,5.9-3.3,15.4-7.3,28.8l0.5,0.6
	c0.5,0.4,1,0.7,1.6,0.9C198.9,261.6,199.7,261.3,200.2,260.6z"/>
<path class="st4" d="M201.4,268.5c1.1-0.9,2.6-1.2,4-0.9c0.3,0.1,0.6-0.1,0.7-0.4c0,0,0-0.1,0-0.2c0.1-0.3-0.1-0.6-0.4-0.7h-0.1
	c-1.7-0.3-3.5,0.1-4.9,1.1c-0.3,0.2-0.4,0.6-0.2,0.9l0,0c0.1,0.3,0.5,0.4,0.7,0.2C201.4,268.5,201.4,268.5,201.4,268.5z"/>
<path class="st4" d="M199.7,266.7c1.8-1.2,3.2-1.6,4.5-1.2c0.4,0.1,0.6,0,0.7-0.5c0.1-0.3-0.1-0.7-0.4-0.8h-0.1
	c-1.5-0.4-3.3,0.1-5.4,1.4c-0.3,0.1-0.4,0.5-0.2,0.8c0,0.1,0.1,0.1,0.1,0.1C199,266.8,199.3,266.9,199.7,266.7L199.7,266.7z"/>
<path class="st4" d="M200.4,263.9c0.8-0.3,1.6-0.4,2.4-0.2c0.3,0.1,0.6-0.1,0.7-0.4c0,0,0-0.1,0-0.2c0.1-0.5-0.1-0.7-0.5-0.8
	c-1-0.2-2-0.1-3,0.2c-0.9,0.4-1.8,0.8-2.7,1.4c-0.3,0.1-0.4,0.4-0.3,0.7c0,0.1,0.1,0.1,0.1,0.2c0.1,0.3,0.5,0.4,0.8,0.3
	c0,0,0.1,0,0.1-0.1C199.4,264.3,200.1,264,200.4,263.9z"/>
<path class="st5" d="M196.4,260.4c0.5,0.4,1,0.7,1.6,0.9c0.8,0.3,1.7,0,2.1-0.7c1.2-1.5,2.3-3.1,3.3-4.8c-1.6,0.2-3.5-0.6-5.7-2.3
	l-1.8,6.2L196.4,260.4z"/>
<path class="st1" d="M173.4,110.1c-0.7-1.8-1.3-3.1-1.6-3.9c-0.8-1.9-1.4-3.3-1.8-4.2c-0.6-1.4-1.4-2.7-2.4-3.8
	c-1.7-2.3-4.5-3.3-7.2-2.6c-2.8,0.4-5,2.6-5.4,5.4c-0.3,1.1-0.2,2.2,0.2,3.3c0.4,1.1,1,2,1.9,2.8c1.4,1.1,3,2,4.6,2.7
	c1.7,0.6,3.1,1.7,4.2,3.2c1.5,2.3,2.3,3.6,2.4,3.7c0.8,1.2,2.2,1.9,3.7,1.8c0.9-0.1,1.7-0.7,2-1.6c0.5-0.8,0.7-1.7,0.6-2.6
	C174.4,112.8,174,111.4,173.4,110.1z"/>
<path class="st1" d="M202.6,124.6l0.5,34.5l27,0.5l-1.4-36.1L202.6,124.6z"/>
<path class="st6" d="M202.5,124.6l0.4,21.5c3.8,2.2,8.1,3.3,12.4,3.3c5-0.2,9.8-1.6,14.1-4.1l-0.9-21.7L202.5,124.6z"/>
<path class="st1" d="M265.6,76.1c-4.3-15.8-14.8-27-31.5-33.7c-7.5-3-16.9-3.8-28.1-2.5c-3.5,0.4-7,1-10.4,1.8l-4.1,1.1
	c-14.7,5.5-24.3,15.1-28.9,28.8c-3.7,10.7-3.5,22.4,0.5,33c4.1,11.2,11.1,21.1,20.4,28.7c10.1,8.6,20.3,12.6,30.6,12.2
	c10-0.3,19.8-3.5,28-9.2c7.8-5.6,14.2-12.8,18.8-21.3c3.2-5.6,5.2-11.9,6-18.3C267.8,89.8,267.4,82.8,265.6,76.1z"/>
<path class="st7" d="M206.2,100.6c-1.7,0.7-3.2,2-4.1,3.7c-0.9,1.7-0.9,3.6,0,5.3c0.7,1.6,2.3,2.7,4.1,2.8c1.7,0.3,3.5-0.1,5-1
	c0.6-0.4,0.9-0.8,0.7-1s-0.6-0.2-1.2,0.2c-1,0.5-2.2,0.5-3.3,0c-1.1-0.4-2.1-1-2.8-1.8c-1-1-1.3-2.5-0.9-3.9
	c0.3-1.4,1.2-2.5,2.5-3.1c0.5-0.2,0.9-0.6,1-1.1C207.2,100.3,206.9,100.2,206.2,100.6z"/>
<path class="st4" d="M182.6,88.2c-5.3,0.2-9.4,4.7-9.2,9.9c0,0,0,0,0,0.1c0,2.6,1.2,5,3.1,6.7c3.9,3.6,9.9,3.4,13.5-0.5l0.1-0.1
	c1.8-1.8,2.7-4.3,2.5-6.9c-0.1-2.6-1.2-5-3.1-6.7S185.1,88.1,182.6,88.2z"/>
<path class="st7" d="M182.5,87.5c-5.7,0.2-10.1,5-9.9,10.7c0.1,2.7,1.3,5.3,3.3,7.2c1.9,1.8,4.4,2.8,7,2.7l0.4-0.1
	c2.8,0,5.4-1.2,7.2-3.3c1.9-2,2.9-4.7,2.7-7.4c-0.1-2.7-1.3-5.3-3.3-7.2C187.9,88.3,185.2,87.4,182.5,87.5 M182.5,88.9h0.4
	c4.8,0,8.7,3.8,8.9,8.6c0.1,2.4-0.7,4.7-2.4,6.4c-1.6,1.8-3.8,2.8-6.2,2.8c-2.4,0.2-4.7-0.7-6.4-2.4c-3.6-3.4-3.8-9-0.4-12.6
	C178,90,180.2,89,182.5,88.9z"/>
<path class="st8" d="M182.6,91.2c-1.8,0-3.5,0.8-4.6,2.2c-1.2,1.3-1.9,3-1.8,4.8c0,1.8,0.8,3.5,2.2,4.7c1.3,1.2,3,1.8,4.8,1.7
	c3.7-0.2,6.6-3.3,6.4-7l0,0C189.5,93.9,186.4,91,182.6,91.2C182.7,91.2,182.7,91.2,182.6,91.2L182.6,91.2z"/>
<path d="M185.4,100.1c0.5-0.5,0.8-1.2,0.8-2s-0.4-1.5-1-1.9c-0.6-0.5-1.4-0.8-2.2-0.8s-1.5,0.4-2.1,0.9c-1.1,1-1.1,2.7-0.1,3.7
	c0.1,0.1,0.1,0.1,0.2,0.2c0.6,0.5,1.4,0.8,2.2,0.7C184.1,101,184.8,100.6,185.4,100.1z"/>
<path class="st9" d="M234.7,78.3c5.3-0.2,10.5,1.5,14.6,4.9c0.7,0.6,1.9,0.5,3.4-0.4s1.8-1.6,1-2.3c-4.7-3.7-10.5-5.7-16.5-5.4
	c-1.3,0-2.6,0.5-3.4,1.5c-0.3,0.3-0.4,0.7-0.2,1.1C233.8,78.2,234.2,78.4,234.7,78.3z"/>
<path class="st9" d="M168.8,83.8c-0.8,0.7-0.4,1.5,1.1,2.2s2.7,0.8,3.4,0.2c3.8-3.7,8.9-5.9,14.3-6c0.5,0,0.9-0.2,1.1-0.6
	c0.2-0.4,0.1-0.8-0.2-1.1c-0.9-0.9-2.2-1.4-3.6-1.3C178.9,77.3,173.1,79.7,168.8,83.8z"/>
<path class="st10" d="M178.6,99c0.4-0.4,0.6-0.9,0.5-1.5c0-0.6-0.3-1.1-0.7-1.4c-0.4-0.4-0.9-0.6-1.5-0.6s-1.1,0.3-1.4,0.7
	c-0.4,0.4-0.6,0.9-0.5,1.5c0,0.6,0.3,1.1,0.7,1.4c0.4,0.4,1,0.6,1.5,0.6C177.8,99.7,178.3,99.5,178.6,99z"/>
<path class="st10" d="M179.3,103.1c0.2-0.2,0.3-0.5,0.3-0.9c0-0.3-0.1-0.6-0.4-0.8c-0.2-0.2-0.5-0.3-0.8-0.3s-0.6,0.1-0.9,0.4
	c-0.2,0.2-0.3,0.5-0.3,0.8s0.1,0.6,0.4,0.9c0.2,0.2,0.6,0.3,0.9,0.3C178.8,103.5,179.1,103.3,179.3,103.1z"/>
<path class="st4" d="M238.2,86.3c-2.6,0.1-5,1.2-6.7,3.1c-1.8,1.8-2.7,4.3-2.6,6.9c0.1,2.6,1.2,5,3.1,6.7c3.9,3.6,10,3.4,13.6-0.5
	c1.7-1.9,2.7-4.4,2.5-7C248,90.2,243.5,86.1,238.2,86.3L238.2,86.3z"/>
<path class="st7" d="M238.2,85.6c-2.8,0-5.4,1.2-7.2,3.3c-3.8,4.1-3.6,10.5,0.4,14.4c1.9,1.9,4.4,2.9,7.1,2.9h0.5
	c2.7-0.1,5.3-1.3,7.1-3.3c3.9-4.2,3.6-10.7-0.5-14.5l0,0C243.6,86.5,240.9,85.5,238.2,85.6 M238.2,87h0.4c4.8,0,8.7,3.8,8.9,8.6
	c0.1,2.4-0.7,4.7-2.4,6.4c-1.6,1.8-3.8,2.8-6.2,2.9s-4.7-0.7-6.4-2.3c-1.8-1.6-2.8-3.8-2.9-6.2c-0.1-2.4,0.7-4.7,2.3-6.4
	C233.6,88.1,235.9,87.1,238.2,87L238.2,87z"/>
<path class="st8" d="M238.4,89.2c-1.8,0-3.5,0.8-4.6,2.2c-1.2,1.3-1.9,3-1.8,4.8c0,1.8,0.8,3.4,2.2,4.6c1.3,1.2,3,1.9,4.8,1.8
	c1.8,0,3.5-0.8,4.7-2.2c1.2-1.3,1.9-3,1.8-4.8c0-1.8-0.8-3.4-2.2-4.6S240.2,89.1,238.4,89.2z"/>
<path d="M238.8,93.4c-0.8,0-1.5,0.4-2.1,0.9c-1.1,1-1.1,2.7-0.1,3.7c0.1,0.1,0.2,0.2,0.2,0.2c0.6,0.5,1.4,0.8,2.2,0.7
	c0.8,0,1.6-0.4,2.1-0.9c0.6-0.5,0.9-1.2,0.8-2c0-0.8-0.4-1.5-1-1.9C240.3,93.6,239.6,93.3,238.8,93.4z"/>
<path class="st10" d="M231.4,94.3c-0.4,0.4-0.6,0.9-0.6,1.5s0.3,1.1,0.7,1.4c0.4,0.4,0.9,0.6,1.5,0.6s1.1-0.3,1.4-0.7
	c0.4-0.4,0.6-1,0.6-1.5c0-0.6-0.3-1.1-0.7-1.4c-0.4-0.4-0.9-0.6-1.5-0.5C232.3,93.7,231.8,93.9,231.4,94.3z"/>
<path class="st10" d="M235.2,101.2c0.4-0.5,0.4-1.2-0.1-1.7c-0.2-0.2-0.5-0.3-0.9-0.3c-0.3,0-0.6,0.2-0.8,0.4
	c-0.2,0.2-0.3,0.5-0.3,0.9c0,0.3,0.1,0.6,0.4,0.9c0.2,0.2,0.5,0.3,0.8,0.3C234.7,101.6,235,101.4,235.2,101.2z"/>
<path class="st1" d="M269.1,92.4c-2.6-0.4-5.3,0.8-6.7,3.1c-0.9,1.2-1.5,2.5-2,3.8c-0.4,0.9-0.8,2.3-1.4,4.1
	c-0.2,0.6,2.6,1.7,8.4,3.6c0.5-0.3,1-0.7,1.6-1c1.5-0.8,3-1.8,4.2-2.9c0.7-0.8,1.2-1.8,1.5-2.8s0.3-2.1,0-3.2
	C274.1,94.5,271.8,92.6,269.1,92.4z"/>
<path class="st11" d="M214.1,234.4c0.8-0.2,1.5-0.4,2.3-0.7c-0.1-1.1-0.1-2.2,0.1-3.2c0.4-2.2,1.4-3.2,3-3.2c1.5,0,2.6,0.9,3.2,2.7
	c0.5,1.1,0.6,2.3,0.3,3.5l2.4,0.5c2.5,0.4,5.1,0.5,7.6,0.3c2.4-0.1,4.8-0.4,7.2-0.9c0.7-0.2,1.4-0.4,2-0.7c0.9-1,1.5-2.3,1.9-3.6
	c1.3-3.9,1.8-8,1.5-12.1l-51.3,2.1l0.6,5.7c0.7,4.3,1.8,7.5,3.4,9.7l2.2,0.5c2.3,0.4,4.5,0.5,6.8,0.4
	C209.5,235.3,211.8,235,214.1,234.4z"/>
<g id="a8761f69-1cdd-40db-aad0-19e52c0270fc">
	<path d="M245.6,219.4v-2.3l-51.3,2.1l0.1,2.3L245.6,219.4z"/>
</g>
<g id="e8abca26-a86f-4eaf-a329-e5d25c923a47">
	<path d="M197.1,223.4l5.2-0.2v-1L197.1,223.4z"/>
</g>
<g id="ae2c06de-850d-4d58-b8e3-27e14325fd87">
	<path d="M237.2,222.1l5.2-0.1l-5.2-0.8V222.1z"/>
</g>
<path class="st12" d="M205,154.3l-2-1.5c-5.4,0.5-10.7,2.1-15.5,4.7l-6.7,4l13.6,15.5l-2.9,42.4l57.7-2.4l-6.9-42.2l12.3-15.8
	c-3.6-2.3-8.8-4.2-15.7-5.7l-9.2-1.6c-6.2,4.8-12.5,6.5-19,4.9C208.7,156.1,206.8,155.3,205,154.3z"/>
<path class="st1" d="M159.4,196.2c-0.1-0.3-0.4-0.6-0.7-0.5l0,0c-0.3,0.1-0.5,0.2-0.8,0.3c-0.4,0.2-0.7,0.3-0.8,0.4
	c-0.6,0.1-1.2,0.2-1.8,0.1c-0.4,0-0.6,0.2-0.6,0.6c0,0.4,0.3,0.7,0.6,0.7l0,0c0.7,0,1.3,0,2-0.2c0.3-0.1,0.6-0.2,0.9-0.4
	c0.3-0.1,0.6-0.2,0.9-0.3C159.4,196.9,159.5,196.6,159.4,196.2z"/>
<path class="st1" d="M159.2,194.7c0-0.4-0.2-0.7-0.6-0.7c-0.6,0.1-1.2,0.2-1.7,0.3c-0.7,0.2-1.5,0.2-2.3,0.1
	c-0.4-0.1-0.7,0.2-0.8,0.5l0,0c-0.1,0.4,0.1,0.7,0.5,0.7c0.7,0.1,1.5,0.1,2.2,0c0,0,0.4-0.1,1.1-0.3c0.3-0.1,0.7-0.2,1.1-0.1
	c0.3,0.1,0.5-0.1,0.6-0.4C159.2,194.8,159.2,194.7,159.2,194.7z"/>
<path class="st13" d="M205.1,185l0.2,5.4l25.9-1L231,184L205.1,185z"/>
<path class="st13" d="M231.5,195.1l-0.1-3.5l-25.9,1l0.1,3.5L231.5,195.1z"/>
<path class="st13" d="M231.6,199.1v-1.7l-25.9,1l0.1,1.8L231.6,199.1z"/>
<path class="st13" d="M231.8,201.9v-1.4l-26,1l0.1,1.4L231.8,201.9z"/>
<path class="st1" d="M158.3,192.2c-1.3,0.1-2.7,0.2-4,0.2c-0.5,0-0.7,0.3-0.7,0.8c0,0.4,0.2,0.7,0.5,0.7c0.1,0,0.1,0,0.2,0
	c1.8-0.1,3.1-0.1,4-0.2c0.4,0,0.7-0.4,0.7-0.8c0,0,0,0,0-0.1C159,192.3,158.8,192.1,158.3,192.2z"/>
<path d="M193.2,116.5l-3.6-2.6l1.5,2.2c1.3,1.7,2.8,3.3,4.4,4.8c5,4.6,10.2,6.7,15.6,6.5c6.6-0.3,12.9-3.1,17.5-7.8
	c1.6-1.5,3-3.2,4.2-5l1.4-2.3c-10.2,8.4-20.6,11.2-31.4,8.4C199.4,119.7,196.1,118.3,193.2,116.5z"/>
<path class="st1" d="M238.5,165.1l1.2,2.9c1.3,2.5,3,4.9,4.9,7c6.5,7.1,15.8,12.2,27.8,15.2l2.7-4.9c-4-1.5-7.8-3.5-11.3-5.8
	c-8.2-5.1-13.8-10.9-17-17.3L238.5,165.1z"/>
<path class="st4" d="M227.6,262.7c0.8-0.3,1.7-0.4,2.5-0.2c0.3,0.1,0.6-0.1,0.7-0.4c0,0,0-0.1,0-0.2c0.1-0.3-0.1-0.7-0.4-0.8h-0.1
	c-1-0.2-2-0.1-2.9,0.3s-1.8,0.8-2.7,1.3c-0.3,0.1-0.4,0.4-0.3,0.7c0,0.1,0.1,0.1,0.1,0.2c0.2,0.3,0.6,0.4,0.9,0.3l0,0
	C226.5,263.2,227.2,262.9,227.6,262.7z"/>
<path class="st1" d="M200.1,260.6c2.8-3.3,6.2-9.4,10.2-18.1l5.2-12.1l-12.3,0.6c-0.9,5.9-3.3,15.4-7.3,28.8l0.5,0.6
	c0.5,0.4,1,0.7,1.6,0.9C198.8,261.6,199.7,261.3,200.1,260.6z"/>
<path class="st5" d="M196.4,260.4c0.5,0.4,1,0.7,1.6,0.9c0.8,0.3,1.7,0,2.1-0.7c1.2-1.5,2.3-3.1,3.3-4.8c-1.6,0.2-3.5-0.6-5.7-2.3
	l-1.8,6.2L196.4,260.4z"/>
<g>
	<g>
		<g id="f8045c7f-f457-4305-a1ed-d8f7f9eedcbe">
			<path class="st12" d="M81.5,227.3c2.9,1.5,6.4,1.9,10.4,1.1c1.8-0.3,3.6-0.9,5.3-1.7c-1-1.3-2.6-1.8-4.7-1.6l-2.9,0.8
				c-1.3-0.8-3-0.8-5.2-0.1L81.5,227.3z"/>
		</g>
	</g>
	<path class="st4" d="M86.3,217.6c0.4-0.6,0.6-1.3,0.4-2c-0.1-0.7-0.5-1.3-1-1.6c-1.1-0.8-2.7-0.6-3.5,0.6l-0.1,0.1
		c-0.4,0.5-0.6,1.2-0.4,1.9c0.1,0.7,0.5,1.3,1.1,1.6C83.9,219,85.5,218.7,86.3,217.6L86.3,217.6L86.3,217.6z"/>
	<path class="st4" d="M97.3,206.5c0.3-0.5,0.5-1.1,0.3-1.7c-0.1-0.6-0.4-1.1-0.9-1.4c-0.5-0.3-1.1-0.5-1.6-0.3
		c-0.6,0.1-1.1,0.4-1.4,0.9s-0.5,1.1-0.4,1.6c0.1,0.6,0.5,1.1,1,1.4c0.5,0.3,1.1,0.5,1.6,0.4C96.5,207.3,97,207,97.3,206.5z"/>
	<path class="st4" d="M104.6,216c0.2-0.3,0.3-0.8,0.2-1.1c-0.1-0.4-0.3-0.8-0.7-1c-0.3-0.3-0.8-0.3-1.2-0.2c-0.4,0.1-0.8,0.3-1,0.6
		s-0.3,0.8-0.2,1.1c0,0.4,0.3,0.8,0.6,1c0.3,0.2,0.8,0.3,1.2,0.2C104,216.6,104.4,216.3,104.6,216z"/>
	<path class="st4" d="M83,205.8c0.2-0.2,0.3-0.5,0.2-0.8c0-0.3-0.2-0.6-0.4-0.7c-0.3-0.2-0.6-0.2-0.9-0.1c-0.3,0.1-0.5,0.2-0.7,0.4
		s-0.2,0.5-0.2,0.8c0.1,0.3,0.2,0.6,0.5,0.7c0.2,0.2,0.5,0.2,0.8,0.1C82.6,206.2,82.9,206,83,205.8z"/>
	<path class="st4" d="M97.2,223.4c0.6-0.8,0.4-2-0.5-2.6c-0.4-0.3-0.9-0.4-1.4-0.3c-0.5,0.1-0.9,0.4-1.2,0.8
		c-0.3,0.4-0.4,0.9-0.3,1.4s0.4,0.9,0.8,1.2C95.4,224.5,96.6,224.2,97.2,223.4z"/>
	<path class="st4" d="M105.6,208.4c0.5-0.1,0.7-0.4,0.5-0.8c0-0.3-0.3-0.6-0.6-0.5h-0.1c-0.5,0.1-0.7,0.4-0.5,0.8
		c0,0.3,0.2,0.6,0.5,0.6C105.4,208.4,105.5,208.4,105.6,208.4z"/>
	<path class="st1" d="M107.1,187.9l1.3,2.9c1.4,2.5,3.1,4.7,5.1,6.7c6.7,6.9,16.1,11.7,28.3,14.4l2.6-5c-4-1.4-7.8-3.2-11.5-5.4
		c-8.3-4.9-14.2-10.4-17.5-16.7L107.1,187.9z"/>
	<path class="st1" d="M139.8,210.6c0.4,1,1.1,1.9,1.9,2.6c0.9,0.8,2,1.2,3.2,1.1c1.1,0,2.2-0.5,2.9-1.3s1.1-1.9,1-2.9
		c0-1.1-0.6-2.1-1.5-2.7c-0.9-0.7-2.1-1.1-3.3-1s-2.4,0.6-3.3,1.4C139.8,208.4,139.4,209.6,139.8,210.6z"/>
	<path class="st1" d="M147.8,214c-0.8-0.2-1.6-0.5-2.2-1c-0.3-0.2-0.7-0.2-0.9,0.1c0,0,0,0,0,0.1c-0.3,0.4-0.3,0.6,0.1,0.9
		c0.9,0.6,1.8,1,2.8,1.2c1,0.3,2,0.3,3-0.1c0.3-0.1,0.5-0.4,0.4-0.8v-0.1c-0.1-0.3-0.4-0.5-0.7-0.4c-0.1,0-0.1,0-0.2,0.1
		C149.4,214.2,148.6,214.2,147.8,214z"/>
	<path class="st1" d="M149.3,213.1c0.7,0.1,1.3,0.1,2,0c0.3,0,0.6-0.3,0.6-0.6v-0.1c0-0.3-0.2-0.6-0.5-0.6c-0.1,0-0.1,0-0.2,0
		c-0.6,0.1-1.3,0.1-1.9,0c-0.5-0.3-1-0.4-1.6-0.5c-0.4-0.1-0.7,0.2-0.8,0.5l0,0c-0.1,0.4,0.1,0.7,0.5,0.7c0.3,0.1,0.7,0.1,1,0.3
		C148.7,213,149,213.1,149.3,213.1z"/>
	<path class="st1" d="M149.3,209.8c-0.6-0.1-1.2-0.2-1.8-0.2c-0.3,0-0.6,0.3-0.6,0.6v0.1c0,0.4,0.3,0.6,0.7,0.6c0.7,0,1.5,0,2.2,0.2
		c0.7,0,1.5-0.1,2.2-0.2c0.4-0.1,0.6-0.3,0.4-0.7c-0.1-0.3-0.4-0.6-0.7-0.5h-0.1C150.8,209.8,150.1,209.8,149.3,209.8z"/>
	<path class="st1" d="M151.6,207.5c-1.3,0.1-2.7,0.2-4,0.2c-0.5,0-0.7,0.2-0.7,0.8c0,0.4,0.3,0.7,0.7,0.7h0.1c1.3,0,2.7-0.1,4-0.2
		c0.4,0,0.7-0.3,0.7-0.7v-0.1c0-0.3-0.2-0.6-0.5-0.7C151.7,207.5,151.6,207.5,151.6,207.5z"/>
	<path class="st1" d="M145.6,204.8c-1.2-0.1-2.3,0.4-3.1,1.2c-0.3,0.4-0.2,0.9,0.1,1.2c0,0,0,0,0.1,0.1c0.4,0.4,0.8,0.4,1.1-0.1
		s1.1-0.7,2.3-0.7c0.2,0,1,0.1,2.6,0.2c0.5,0.1,0.9-0.2,1-0.7v-0.1c0.2-0.4,0-0.8-0.4-0.9c-0.1,0-0.2-0.1-0.3-0.1
		C147.9,204.8,146.8,204.7,145.6,204.8z"/>
	<path class="st1" d="M69.4,191.6l-2.6,1.7c-2.2,1.8-4.2,3.8-5.9,6.1c-5.8,7.7-9.1,17.7-9.8,30.2l5.3,1.8c0.8-4.2,2-8.2,3.6-12.1
		c3.5-9,8.1-15.6,13.9-19.8L69.4,191.6z"/>
	<path class="st1" d="M51.9,227.4c-0.9,0.5-1.7,1.3-2.2,2.3c-0.7,1-0.9,2.2-0.7,3.4c0.4,2.1,2.4,3.6,4.6,3.2c0.1,0,0.2,0,0.3-0.1
		c1.1-0.2,2-0.9,2.5-1.9s0.7-2.2,0.4-3.4s-1-2.3-2-3.1C54,227.1,52.8,226.9,51.9,227.4z"/>
	<path class="st1" d="M49.8,235.8c0-0.8,0.3-1.6,0.6-2.4c0.2-0.3,0-0.7-0.3-0.9s-0.6-0.2-0.8,0.2c-0.5,0.9-0.7,2-0.8,3
		s0.1,2,0.6,2.9c0.2,0.3,0.5,0.4,0.8,0.3c0,0,0.1,0,0.1-0.1c0.4-0.2,0.5-0.5,0.2-0.8C49.9,237.4,49.7,236.6,49.8,235.8z"/>
	<path class="st1" d="M52.2,236.9c0.2-0.5,0.3-1.1,0.3-1.7c0-0.3-0.2-0.6-0.6-0.6h-0.1c-0.5,0-0.7,0.2-0.6,0.6c0,0.3,0,0.7-0.1,1
		s-0.1,0.6-0.2,0.9c0,0.7,0.2,1.3,0.3,2c0.1,0.3,0.4,0.5,0.8,0.5c0,0,0,0,0.1,0c0.4-0.1,0.6-0.3,0.4-0.7
		C52.3,238.2,52.2,237.6,52.2,236.9z"/>
	<path class="st1" d="M54.3,236.6c0-0.6,0-1.2-0.1-1.8c-0.1-0.3-0.4-0.5-0.8-0.5c0,0,0,0-0.1,0c-0.4,0.1-0.6,0.3-0.4,0.7
		c0.1,0.7,0.2,1.4,0.1,2.2c0.1,0.7,0.3,1.5,0.6,2.2c0,0.3,0.3,0.4,0.6,0.4c0.1,0,0.1,0,0.2-0.1c0.3-0.1,0.5-0.5,0.4-0.9
		c0,0,0,0,0-0.1C54.4,238.1,54.3,237.4,54.3,236.6z"/>
	<path class="st1" d="M56.8,238.5c-0.4-1.3-0.6-2.6-0.8-3.9c-0.1-0.5-0.3-0.7-0.8-0.5c-0.4,0-0.7,0.4-0.6,0.7v0.1
		c0.2,1.3,0.5,2.6,0.8,3.9c0.1,0.4,0.4,0.6,0.8,0.6h0.1C56.8,239.2,56.9,239,56.8,238.5z"/>
	<path class="st1" d="M58.7,232.2c-0.1-1.2-0.7-2.2-1.7-2.8c-0.4-0.3-0.9-0.2-1.2,0.2c0,0,0,0.1-0.1,0.1c-0.3,0.3-0.2,0.8,0.1,1.1
		c0.1,0.1,0.1,0.1,0.2,0.1c0.5,0.3,0.8,1,1,2.2c0,0.4,0.1,1.2,0.2,2.6c0,0.5,0.4,0.9,0.9,0.9c0,0,0,0,0.1,0c0.6,0,0.9-0.2,0.9-0.8
		C59,234.5,58.9,233.3,58.7,232.2z"/>
	<path class="st14" d="M141.8,100.8c-6-14.5-14.2-25.4-24.8-32.7c-13.2-9.2-29.8-12.5-49.6-10c-19.5,4.3-33.6,13-42.2,26.1
		c-6.9,10.5-10.1,23.6-9.8,39.3c0.4,12.1,2.5,24.2,6.1,35.7c1.6,5.3,3.5,10.5,5.7,15.6c11.4,4.9,24.2,7.3,38.2,7.1
		c8,0,15.9-1,23.6-2.8l6.4-1c5.3-1,10.6-2.3,15.8-3.9c16.8-5.2,30.2-12.7,40.2-22.5c0-5.4-0.3-10.8-1-16.2
		C149.3,123.7,146.3,112,141.8,100.8z"/>
	<path class="st1" d="M33.2,136.7c-2-2-4.9-2.6-7.5-1.6c-2.7,0.8-4.5,3.3-4.6,6.1c-0.1,1.1,0.2,2.3,0.7,3.3s1.3,1.9,2.2,2.6
		c1.6,0.9,3.2,1.6,5,2c1.7,0.4,3.3,1.3,4.6,2.5c1.8,2.1,2.8,3.2,2.9,3.3c1,1.1,2.5,1.6,3.9,1.2c0.8-0.3,1.5-1,1.7-1.9
		c0.3-0.8,0.4-1.7,0.2-2.6c-0.4-1.4-0.9-2.7-1.6-3.9c-1-1.7-1.8-2.9-2.2-3.6c-1.3-2.2-2.1-3.5-2.4-3.9
		C35.4,138.9,34.4,137.7,33.2,136.7z"/>
	<path class="st1" d="M71.7,157.9l5.4,34l26.8-3.3l-6.6-35.4L71.7,157.9z"/>
	<path class="st6" d="M71.6,158l3.4,21.1c4,1.7,8.5,2.2,12.8,1.4c4.9-0.9,9.5-3,13.4-6.1L97.3,153L71.6,158z"/>
	<path class="st1" d="M128.1,140.1c2.3-6.1,3.5-12.5,3.3-19c-0.1-6.9-1.5-13.8-4.3-20.2c-6.5-15-18.5-24.6-35.9-28.8
		c-7.9-1.9-17.3-1.4-28.2,1.5c-3.4,0.9-6.8,1.9-10,3.2l-4,1.7C35.2,86,27.1,96.9,24.6,111.2c-2.2,11.1-0.3,22.7,5.2,32.6
		c5.7,10.5,14,19.3,24.2,25.5c11.3,7,22,9.6,32,7.8c9.9-1.7,19.1-6.3,26.4-13.1C119.1,157.7,124.3,149.8,128.1,140.1z"/>
	<path class="st7" d="M78.9,142.5c-0.2-0.2-0.6-0.1-1.2,0.4c-0.9,0.7-2.1,0.9-3.2,0.5c-1.1-0.2-2.2-0.7-3.1-1.4
		c-1.1-0.9-1.7-2.3-1.5-3.8c0.1-1.4,0.9-2.7,2.1-3.5c0.4-0.3,0.7-0.7,0.8-1.2c0-0.4-0.3-0.4-1,0c-1.6,1-2.8,2.5-3.5,4.2
		c-0.6,1.8-0.4,3.7,0.7,5.3c1,1.5,2.7,2.3,4.5,2.2c1.8,0.1,3.5-0.5,4.8-1.7C78.9,143.1,79.1,142.8,78.9,142.5z"/>
	<path class="st7" d="M39.9,129.5c-1.6-0.5-2.5-1.2-2.7-2.3c-0.1-0.3-0.3-0.4-0.8-0.5s-0.6,0.1-0.6,0.4c0.4,1.5,1.7,2.5,3.9,3.1
		c0.4,0.1,0.6,0,0.7-0.2S40.3,129.6,39.9,129.5z"/>
	<path class="st7" d="M38.6,131.8c-0.7,0-1.3-0.1-1.9-0.5c-0.6-0.3-1.1-0.8-1.4-1.4c-0.2-0.3-0.4-0.3-0.8,0s-0.5,0.5-0.3,0.8
		c0.4,0.7,0.9,1.3,1.6,1.7c0.7,0.4,1.4,0.6,2.2,0.6c0.3,0,0.5-0.2,0.7-0.6C39,132,38.9,131.8,38.6,131.8z"/>
	<path class="st4" d="M56.3,139.7c1.5-2.1,2-4.7,1.5-7.2c-0.4-2.5-1.9-4.7-4-6.2c-4.4-3-10.4-1.9-13.4,2.5c-3,4.4-1.8,10.3,2.5,13.3
		c2.1,1.5,4.7,2,7.2,1.5C52.7,143.2,54.9,141.8,56.3,139.7z"/>
	<path class="st7" d="M54.3,125.7c-4.7-3.2-11.1-2-14.4,2.6c-3.2,4.7-2,11.1,2.7,14.4l0,0c1.7,1.2,3.7,1.8,5.8,1.8l1.9-0.1
		c2.7-0.5,5.1-2,6.6-4.3c1.6-2.2,2.2-5,1.6-7.7C58.1,129.6,56.5,127.3,54.3,125.7 M48.4,125.3c2.1,0,4.1,0.7,5.7,2.1
		c1.6,1.3,2.7,3.2,3.1,5.2c0.9,4.9-2.3,9.5-7.2,10.4c-2.3,0.4-4.7-0.1-6.7-1.4c-2-1.3-3.3-3.4-3.7-5.8c-0.5-2.3,0-4.7,1.4-6.6
		c1.3-2,3.4-3.3,5.8-3.7L48.4,125.3z"/>
	<path class="st15" d="M53.9,138.1c2.1-3.1,1.3-7.2-1.7-9.4c-3.1-2.1-7.2-1.3-9.3,1.7c-2.1,3.1-1.3,7.2,1.7,9.4c1.4,1,3.3,1.4,5,1.1
		C51.4,140.6,52.9,139.6,53.9,138.1z"/>
	<path d="M51.2,136.1c0.5-0.6,0.7-1.3,0.5-2.1c-0.1-0.8-0.6-1.4-1.2-1.8c-0.7-0.4-1.5-0.6-2.3-0.4c-0.8,0.1-1.5,0.6-1.9,1.2
		c-0.5,0.6-0.7,1.4-0.5,2.1c0.1,0.7,0.6,1.4,1.2,1.7c0.7,0.5,1.5,0.6,2.3,0.4C50,137.2,50.7,136.7,51.2,136.1z"/>
	<path class="st7" d="M112.6,112.3c-0.5,0.1-0.7,0.1-0.7,0.2c-0.1,0.6-0.2,1.1-0.5,1.6c-0.1,0.3-0.4,0.6-0.7,0.9l-0.3,0.2
		c-0.1,0.1-0.2,0.1-0.2,0.2c-0.1,0,0,0,0.2,0l-1,0.1c-0.1,0-0.2,0.1-0.2,0.1c-0.1,0-0.1,0.1,0,0.1c1,0.1,1.9-0.2,2.7-0.7
		c0.8-0.7,1.3-1.6,1.4-2.7C113.2,112.2,113,112.2,112.6,112.3z"/>
	<path class="st7" d="M111.5,117.8c1.6-0.1,3-1.1,3.6-2.6c0.2-0.4,0-0.6-0.4-0.8c-0.3-0.2-0.7-0.1-0.9,0.2l0,0
		c-0.4,1.1-1.4,1.8-2.6,1.9c-0.4,0-0.6,0.3-0.5,0.7C110.8,117.6,111.1,117.8,111.5,117.8L111.5,117.8z"/>
	<path class="st4" d="M112.3,129.3c1.5-2.1,2-4.7,1.5-7.2c-0.4-2.5-1.9-4.8-4-6.2c-2.1-1.5-4.7-2-7.2-1.5c-2.5,0.4-4.7,1.9-6.2,4
		c-2.9,4.4-1.7,10.4,2.7,13.3C103.5,134.5,109.3,133.5,112.3,129.3L112.3,129.3z"/>
	<path class="st7" d="M114.5,122c-0.5-2.7-2-5.1-4.3-6.6c-4.7-3.2-11.1-2.1-14.3,2.6l0,0c-1.6,2.2-2.2,5-1.6,7.7
		c0.9,4.9,5.1,8.5,10.1,8.5c0.6,0,1.3-0.1,1.9-0.2c2.7-0.5,5.1-2,6.6-4.3C114.4,127.4,115,124.6,114.5,122 M111.7,128.9
		c-1.3,2-3.4,3.3-5.7,3.7c-4.8,0.9-9.5-2.3-10.4-7.1s2.3-9.5,7.1-10.4l1.6-0.2c1.8,0,3.5,0.5,5,1.5c2,1.3,3.3,3.4,3.7,5.7
		C113.5,124.5,113,126.9,111.7,128.9L111.7,128.9z"/>
	<path class="st15" d="M109.9,127.6c1-1.5,1.4-3.3,1-5c-0.3-1.7-1.3-3.3-2.8-4.3s-3.3-1.4-5-1.1c-3.6,0.7-6,4.2-5.3,7.8
		c0.3,1.7,1.3,3.3,2.8,4.3c1.4,1,3.3,1.4,5,1.1C107.4,130.1,109,129.1,109.9,127.6z"/>
	<path d="M107.1,125.6c0.9-1.2,0.6-2.8-0.5-3.7c-0.1,0-0.1-0.1-0.2-0.1c-0.7-0.5-1.5-0.6-2.3-0.4c-0.8,0.1-1.5,0.6-2,1.2
		c-0.9,1.1-0.7,2.7,0.4,3.6c0.1,0.1,0.2,0.2,0.3,0.2c0.7,0.4,1.5,0.6,2.3,0.4C105.9,126.6,106.7,126.2,107.1,125.6z"/>
	<path class="st16" d="M100.5,104.6c-1.3,0.1-2.5,0.9-3.2,2c-0.2,0.3-0.2,0.8,0,1.2c0.3,0.3,0.8,0.4,1.2,0.3c5.2-1,10.6,0,15.1,2.8
		c0.8,0.5,1.9,0.2,3.3-0.9s1.6-1.9,0.6-2.4C112.4,104.6,106.3,103.5,100.5,104.6z"/>
	<path class="st1" d="M49.8,235.7c0.1-0.8,0.3-1.6,0.6-2.4c0.2-0.3,0-0.7-0.3-0.9c-0.2-0.2-0.5-0.2-0.7,0c-0.1,0.1-0.1,0.1-0.1,0.2
		c-0.5,0.9-0.7,2-0.8,3s0.1,2,0.6,2.9c0.2,0.3,0.5,0.4,0.8,0.3c0,0,0.1,0,0.1-0.1c0.4-0.2,0.5-0.5,0.2-0.8
		C49.8,237.3,49.7,236.5,49.8,235.7z"/>
	<path class="st10" d="M44.3,136.1c0.3-0.5,0.5-1,0.3-1.6c-0.1-0.5-0.4-1-0.9-1.3s-1-0.4-1.6-0.3c-0.5,0.1-1,0.4-1.3,0.9
		s-0.4,1-0.3,1.6c0.1,0.6,0.4,1,0.9,1.4c0.4,0.3,1,0.4,1.5,0.3C43.5,136.8,44,136.5,44.3,136.1z"/>
	<path class="st10" d="M45.6,139.9c0.2-0.2,0.3-0.6,0.2-0.9c0-0.3-0.2-0.6-0.5-0.8s-0.6-0.3-0.9-0.2c-0.3,0.1-0.6,0.2-0.8,0.5
		s-0.2,0.6-0.2,0.9c0.1,0.3,0.3,0.6,0.5,0.8c0.3,0.2,0.6,0.2,0.9,0.1C45.2,140.4,45.5,140.2,45.6,139.9z"/>
	<path class="st10" d="M100.4,125.6c0.3-0.4,0.4-1,0.3-1.5s-0.4-1-0.9-1.3c-0.4-0.4-1-0.5-1.6-0.3c-0.6,0.1-1,0.4-1.3,0.9
		s-0.4,1-0.3,1.6c0.1,0.5,0.4,1,0.9,1.3C98.4,126.9,99.7,126.6,100.4,125.6C100.4,125.7,100.4,125.7,100.4,125.6z"/>
	<path class="st10" d="M101.7,129.6c0.2-0.3,0.3-0.6,0.2-0.9c-0.1-0.3-0.3-0.6-0.5-0.8c-0.3-0.2-0.6-0.2-0.9-0.2
		c-0.3,0.1-0.6,0.3-0.8,0.5c-0.4,0.5-0.2,1.3,0.3,1.6c0.3,0.2,0.6,0.3,0.9,0.2C101.3,130,101.5,129.8,101.7,129.6z"/>
	<path class="st1" d="M138.6,123c0.1-1,0-2-0.4-2.9c-1-2.3-3.3-3.8-5.8-3.7c-2.5,0-4.8,1.4-5.8,3.7c-0.6,1.2-1.1,2.5-1.4,3.8
		c0,0.1-0.3,1.5-0.7,4c-0.1,0.8-0.3,2.1-0.7,3.7c-0.2,1.2-0.2,2.5-0.1,3.8c0.1,0.8,0.5,1.5,1,2.1s1.2,1,2,1c1.3-0.2,2.4-1,2.9-2.2
		c0-0.1,0.5-1.3,1.4-3.7c0.6-1.4,1.7-2.7,3-3.6c1.3-0.9,2.5-2,3.5-3.3C138,124.9,138.4,124,138.6,123z"/>
	<path class="st17" d="M102.5,181.3c-0.9,2-3.3,3.8-7.3,5.5l-5.8,2c-1.8,0.3-3.5,0.5-5.3,0.5c-3.8,0-6.4-0.8-7.8-2.4
		c-3.2-0.4-6.5-0.1-9.6,0.9c-6.4,1.9-9.7,6.3-9.9,13l6.6,2.3c4.5,1.7,7,3.1,7.5,4l2.2-0.7c1.3-0.4,2.3-1.3,2.9-2.4l-0.3,22.4
		l5.1,1.8c5,1,10.2,1,15.3,0.1c5.1-0.9,9.9-2.8,14.3-5.5l4.1-3.6l-8.4-20.7c1,0.8,2.3,1.3,3.7,1.2c0.8,0.1,1.6,0,2.4-0.1
		c0.1-1.1,1.9-3.2,5.5-6.4l5.4-4.5c-2.6-6.2-6.8-9.3-12.6-9.1c-1.9,0.1-3.8,0.4-5.6,1.1L102.5,181.3z"/>
	<path class="st4" d="M101.9,191.9c0.1,0.7,0.5,1.3,1.1,1.7c0.5,0.4,1.3,0.6,1.9,0.4c0.7-0.1,1.3-0.5,1.7-1.1c0.4-0.6,0.5-1.3,0.4-2
		s-0.5-1.3-1-1.7c-0.6-0.4-1.3-0.5-2-0.4s-1.3,0.5-1.7,1C101.9,190.4,101.7,191.1,101.9,191.9z"/>
	<path class="st4" d="M114.2,187.9c0.2-0.3,0.3-0.8,0.2-1.2c-0.1-0.4-0.3-0.8-0.7-1c-0.3-0.3-0.8-0.4-1.2-0.3
		c-0.4,0.1-0.8,0.3-1,0.7c-0.3,0.3-0.4,0.8-0.3,1.2s0.3,0.8,0.7,1.1c0.3,0.2,0.8,0.3,1.2,0.2C113.5,188.5,113.9,188.3,114.2,187.9z"
		/>
	<path class="st18" d="M125.7,94.4c-2.6-9-8-16.1-16.3-21.6c-10.9-7.1-24.8-9.2-41.8-6.3c-15.8,2.7-27.6,10-35.3,22
		c-3.8,6-6.1,11.7-6.8,17.1L125.7,94.4z"/>
	<g id="ed458d3a-2f7e-47f3-9053-5518e8ecf916">
		<path class="st4" d="M33.8,101c5.4-8.4,12.4-15.7,20.5-21.5c-4.2,1.5-8,3.7-11.3,6.6c-8.1,6.7-13.3,15.5-15.6,26.5
			C29.2,108.6,31.3,104.7,33.8,101z"/>
	</g>
	<path class="st7" d="M80.8,168c1.9-1.9,4.6-2.8,7.2-2.3c0.3,0.1,0.7-0.1,0.8-0.4v-0.1c0.1-0.4,0-0.7-0.4-0.7
		c-3.1-0.6-6.3,0.4-8.5,2.7c-0.2,0.1-0.3,0.5-0.2,0.7c0,0.1,0.1,0.1,0.2,0.2c0.2,0.3,0.5,0.3,0.8,0.1C80.7,168.1,80.7,168,80.8,168z
		"/>
	<path d="M63.4,154.3l-4-1.8l2,1.8c1.6,1.4,3.4,2.6,5.2,3.7c5.8,3.4,11.3,4.5,16.5,3.2c6.4-1.6,12-5.6,15.6-11.2
		c1.2-1.8,2.3-3.8,3.1-5.8l0.9-2.5c-8.3,10.2-18,15.1-29.1,14.6C70.2,156.3,66.7,155.6,63.4,154.3z"/>
	<g>
		<g id="bda4ce70-ddee-44b6-8da1-df04623a41b0">
			<path class="st12" d="M83.9,233.2c3.1,0.9,6.6,0.6,10.4-1c1.7-0.7,3.4-1.6,4.8-2.8c-1.2-1-2.9-1.2-4.9-0.6l-2.7,1.3
				c-1.5-0.5-3.2-0.2-5.2,1C85.5,231.8,84.6,232.5,83.9,233.2z"/>
		</g>
	</g>
	<g id="fe68ca7a-7cd9-4f53-b51c-ffe6241efe05">
		<path class="st0" d="M153.8,299.1c7.9-4.2,11.4-8.1,10.3-11.9c-1.9-6.8-18.4-5.8-49.7,2.9c-31.1,8.7-45.7,16.4-43.8,23.1
			c1,3.7,6.7,5.1,17,4.3c9-0.7,20.6-3.1,34.8-7.1C136.3,306.7,146.7,302.9,153.8,299.1z"/>
	</g>
	<path class="st19" d="M100.1,295.5c0.5-0.8,0.7-1.8,0.5-2.7c-0.3-0.8-0.6-1.3-0.7-1.7c-0.5-1.3-1.1-1.9-1.9-1.5l-1,0.9l-9.1,5.6
		c-3.3,2.7-4.1,4.9-2.3,6.6c1.6,1.6,4.1,1.5,7.5-0.3C96.1,300.9,98.6,298.5,100.1,295.5z"/>
	<path class="st20" d="M92.3,290.8l-4.7,3.9c-2.9,2.9-3.9,5.2-3,6.9c1.1,1.9,3.4,1.8,7-0.4c3.1-1.8,5.6-4.4,7.3-7.5
		c1.2-2.3,1-3.8-0.5-4.6l-2.5-0.4L92.3,290.8z"/>
	<path class="st1" d="M81.6,259.9l3.7,12.6c2.9,9.2,5.6,15.6,8,19.2l4.5-0.5c-2.5-13.6-3.8-23.3-4-29.3L81.6,259.9z"/>
	<path class="st1" d="M93.2,291.7l-2.3,1.9c-1.6,1.4-2.5,2.7-2.7,3.8c-0.2,1,0.3,1.5,1.7,1.2c0.7-0.1,1.4-0.3,2.1-0.6
		c0.8-0.4,1.5-1,2.1-1.6c1.6-1.4,2.8-3.2,3.7-5.1L93.2,291.7z"/>
	<path class="st20" d="M88.8,295.3l1.5-0.1c1.2,0.1,2.4,0.7,3.2,1.6h0.6c0.4-0.2,0.7-0.6,0.6-1.1c-0.5-0.4-1.1-0.8-1.8-1
		c-1.1-0.6-2.3-0.7-3.5-0.3l-0.4,0.3C88.8,294.8,88.7,295.1,88.8,295.3z"/>
	<path class="st19" d="M132.8,286.2c-1.7,3.9-1.3,6.2,1.1,6.9c2.2,0.6,4.3-0.6,6.4-3.8c1.9-2.8,3-6.1,2.9-9.4c0-1-0.3-1.9-0.9-2.7
		c-0.6-0.5-1.1-0.9-1.4-1.2c-1.1-0.9-1.9-1.1-2.4-0.4c-0.3,0.4-0.4,0.8-0.4,1.2L132.8,286.2z"/>
	<path class="st20" d="M134.2,279.4l-2.3,5.6c-1.2,3.9-1,6.4,0.6,7.5c1.8,1.2,3.8,0,5.9-3.6c1.9-3,2.9-6.5,2.9-10.1
		c-0.1-2.6-1-3.9-2.6-3.9l-2.4,0.8L134.2,279.4z"/>
	<path class="st1" d="M110.2,257.3l9.2,9.4c6.9,6.7,12.3,11.1,16.1,13.2l3.6-2.5c-2.1-2.7-4.5-5.7-7-9.1c-3.7-4.7-7.1-9.7-10.3-14.8
		L110.2,257.3z"/>
	<path class="st1" d="M135.4,279.8l-1.2,2.7c-0.6,1.4-0.9,3-0.6,4.6c0.3,1,1,1.1,2.1,0.3l1.5-1.5c0.5-0.7,0.8-1.5,1.1-2.4
		c0.7-2,1-4.1,0.9-6.2L135.4,279.8z"/>
	<path class="st20" d="M133.3,285.1l1.2-0.8c1.1-0.5,2.4-0.5,3.6-0.1c0.2-0.1,0.4-0.2,0.5-0.3c0.3-0.4,0.3-0.9,0-1.2
		c-0.7-0.1-1.4-0.1-2.1-0.1c-1.2,0-2.4,0.5-3.2,1.4l-0.3,0.5C132.9,284.6,133,284.9,133.3,285.1C133.2,285,133.3,285.1,133.3,285.1z
		"/>
	<path class="st21" d="M70.6,234.6c-3.1,7.1-3.8,14.9-2,22.4l0.7,2c0.9,1.8,2.3,3.2,4.1,4.2c6,3.7,15.9,4.5,29.9,2.5
		c13.4-2.7,22.3-6.9,26.7-12.7c1.3-1.6,2.1-3.5,2.5-5.6V245c-1.6-10-7.1-18.9-15.4-24.8l-2.4-1.5l-19,6.3l-19.8,0.9l-1.8,2.2
		C72.7,230.3,71.5,232.4,70.6,234.6z"/>
	<g>
		<g id="fe52e15f-5df4-4442-8a26-189da3028d51" class="st22">
			<path class="st4" d="M80,221.6c-0.6-0.3-1.4-0.1-1.7,0.6c0,0,0,0.1-0.1,0.1c-3.3,7.1-5,14.9-5,22.8c0,7.9,1,15.7,3,23.4
				c0.1,0.7,0.8,1.2,1.5,1c0.1,0,0.1,0,0.2,0c0.6,0,1.1-0.5,1.1-1.1c0-0.1,0-0.3-0.1-0.4c-2-7.4-3-15-3-22.6s1.7-15.2,4.8-22.1
				C81.1,222.5,80.8,221.9,80,221.6z"/>
			<path class="st4" d="M86.4,219.9c-0.7-0.2-1.4,0.3-1.5,1v0.1c-2.4,15.7-1.9,31.8,1.6,47.4c0,0.7,0.6,1.2,1.3,1.1
				c0.1,0,0.2,0,0.3-0.1c0.6-0.1,1.1-0.6,1.1-1.2c0-0.1,0-0.2-0.1-0.3c-3.4-15.3-3.9-31.1-1.5-46.6C87.7,220.4,87.3,220,86.4,219.9z
				"/>
			<path class="st4" d="M89.9,219.6c-0.6,0.4-0.7,1.2-0.3,1.7c0,0.1,0.1,0.1,0.1,0.2c1.2,1.9,1.9,4,2.2,6.1c0.2,1.5,0.5,3.7,0.8,6.6
				l2,11.2c1.4,7.8,2.7,15.6,3.9,23.4c0,0.6,0.6,1.1,1.2,1.1c0.1,0,0.2,0,0.3-0.1c0.6,0,1.2-0.5,1.2-1.2c0-0.1,0-0.2-0.1-0.3
				c-1.4-9.1-3-18.2-4.7-27.5l-2.4-13.2c-0.5-2.5-0.7-3.9-0.8-4.1c-0.3-1.4-0.9-2.6-1.8-3.8c-0.3-0.5-1-0.7-1.6-0.3
				C90,219.5,89.9,219.6,89.9,219.6z"/>
			<path class="st4" d="M94.7,217.1c-0.6,0.2-0.9,0.7-0.7,1.3c0,0.1,0.1,0.3,0.2,0.4c8.6,14.7,14.6,30.7,17.6,47.5
				c0.1,0.7,0.7,1.1,1.3,1.1c0.1,0,0.2,0,0.3-0.1c0.6,0,1.1-0.6,1.1-1.2c0-0.1,0-0.2-0.1-0.3c-3.1-16.9-9.1-33.2-17.8-48.1
				C96.2,216.9,95.4,216.7,94.7,217.1C94.7,217,94.7,217.1,94.7,217.1z"/>
			<path class="st4" d="M99.7,215.6c-0.5,0.3-0.7,0.9-0.4,1.5c0.1,0.1,0.2,0.2,0.3,0.3c11.8,12.3,19.9,27.5,23.5,44.2
				c0.1,0.7,0.7,1.2,1.4,1.1c0.1,0,0.2,0,0.3-0.1c0.6,0,1.1-0.5,1.1-1.1c0-0.1,0-0.3-0.1-0.4c-3.7-17.1-12.1-32.8-24.2-45.4
				c-0.4-0.5-1.2-0.6-1.7-0.2C99.8,215.5,99.7,215.6,99.7,215.6z"/>
			<path class="st4" d="M123.1,232.3c-4.3-7.3-9.7-13.9-15.9-19.6c-0.5-0.6-1.3-0.6-1.9-0.1l-0.1,0.1c-0.7,0.6-0.7,1.2,0,1.8
				c12.2,11.2,20.8,25.6,24.8,41.7c0.1,0.7,0.7,1.2,1.4,1.1c0.1,0,0.2,0,0.3-0.1c0.6,0,1.1-0.5,1.1-1.1c0-0.1,0-0.3-0.1-0.4
				C130.6,247.4,127.4,239.6,123.1,232.3z"/>
		</g>
	</g>
	<path class="st16" d="M44.2,112.9c1.2-0.4,2.6-0.2,3.7,0.6c0.4,0.2,0.6,0.6,0.5,1.1c-0.1,0.4-0.5,0.7-1,0.8
		c-5.2,1.2-9.7,4.3-12.8,8.6c-0.6,0.8-1.7,1-3.3,0.5s-2.2-1.1-1.5-2C33.2,117.6,38.4,114.2,44.2,112.9z"/>
	<path class="st23" d="M128.9,100.5c-2.5-6.3-6.8-12.3-13-18.1c-12.3-11.5-27.6-16-45.9-13.5S38.3,80.6,29.6,96.4
		c-4.3,7.9-6.9,15.6-7.6,22.9h7.9c7.8-0.3,15.5-1.2,23.2-2.4l3.1-14.9l2.9,15.8l9-0.6c6-0.6,12-2,17.6-4.4l-2.6-13.9l8.9,12.7
		l12.4-1.8C114.1,107.9,122.2,104.7,128.9,100.5z"/>
	<g>
		<g>
			<path class="st20" d="M115,68c-0.1-2.2-0.5-4.3-1.3-6.3c-0.3-0.7-0.7-1.2-1.2-1.7c-0.6-0.4-1.4-0.5-2.1-0.2
				c-0.8,0.3-1.4,0.8-1.7,1.5c-0.6,1.4-0.6,3.1,0,4.5c0.9,2.7,2.5,5.2,4.7,7l1,0.4C114.8,71.5,115,69.8,115,68 M102.1,72.4
				c-1.1,0.4-1.9,1.4-2.1,2.6c-0.1,0.7,0.2,1.5,0.7,2c0.5,0.6,1.1,1,1.8,1.1c1.5,0.3,2.9,0.1,4.3-0.4c2.4-0.7,4.7-1.7,7-2.8
				c-2.1,1.3-3.8,3.2-4.7,5.5c-0.5,1.2-0.7,2.4-0.5,3.7c0.1,1.2,0.5,2.4,1.2,3.4c0.3,0.6,0.8,1,1.4,1.3c0.9,0.4,1.9,0.4,2.7,0
				c0.9-0.4,1.7-1,2.2-1.9c0.9-1.7,1.2-3.7,0.9-5.6c0-2-0.5-4.1-1.4-5.9c1,1.6,2.1,3.1,3.4,4.4c1.6,1.7,3.8,2.7,6.2,2.9
				c1.5,0.2,3-0.5,3.8-1.7c0.4-0.5,0.5-1.2,0.5-1.8c0-0.7-0.2-1.3-0.5-1.9c-0.7-1.1-1.8-2-3-2.5c-2.2-0.8-4.6-1.1-6.9-0.7
				c0.8-0.1,1.4-0.3,2-0.4c1.7-0.4,3.2-1.2,4.5-2.3c0.8-0.7,1.4-1.6,1.8-2.6s0.3-2-0.2-2.9c-0.4-0.8-1.1-1.3-1.9-1.6
				c-0.8-0.3-1.7-0.4-2.6-0.2c-1.7,0.5-3.2,1.5-4.2,2.9c-1.7,1.9-2.8,4.2-3.4,6.6l-0.7-0.3c-0.1,0.4-0.3,0.8-0.4,1.2
				c-1.8-1-3.7-1.8-5.7-2.5C106.2,71.4,104,71.5,102.1,72.4L102.1,72.4z"/>
			<path class="st20" d="M125.8,72.5c3.9-2.4,4.6-5.1,2.1-8.1c-2.5-3-5.4-2.9-8.6,0.2c-1.1,1-2.2,2.2-3.1,3.4c0-0.9,0-1.9-0.1-2.8
				c-0.4-4.6-2-6.9-5-6.9c-3.9,0-5.1,2.3-3.7,6.7c0.7,2.3,1.7,4.5,3.1,6.5c-1.6-0.5-3.2-0.9-4.8-1.1c-4.2-0.5-6.5,0.9-6.9,4.2
				c-0.5,3.7,1.6,5.2,6.4,4.4c1.2-0.2,2.5-0.5,3.7-0.9c-1,1.6-1.5,3.5-1.4,5.3c0,1.5,0.4,3,1.2,4.3c0.7,1.3,2,2.3,3.5,2.5
				c3.8,0.5,5.9-1.6,6.2-6.3c0.1-1.1,0.1-2.2,0-3.3c1.1,1.1,2.4,2,3.8,2.6s2.9,0.7,4.4,0.5c1.5-0.1,2.9-1,3.7-2.3
				c0.7-1.1,0.8-2.5,0.4-3.7c-0.4-1.2-1.2-2.3-2.2-3.1c-1.1-0.8-2.3-1.5-3.6-1.8C125.2,72.8,125.5,72.7,125.8,72.5 M117.8,70
				l0.8-1.2c1.2-2.8,2.5-2.9,4.1-0.3c2.6,1.1,2.9,2,0.8,2.7c-0.8,0.6-1.8,1.1-2.8,1.2c-0.7,0.2-1.4,0.4-2.1,0.5s-1.4,0.2-2.1,0.3
				C116.9,72,117.3,71,117.8,70 M112.8,74L112.8,74L112.8,74L112.8,74 M118.1,75.5l1.5-0.2h3.1c4.2,0.1,4.9,1.2,2.1,3.4
				c-1,1.3-1.8,1.9-2.4,1.9c-0.9-0.5-1.7-1.1-2.4-1.9c-0.9-0.9-1.8-2-2.5-3.1l0,0C117.7,75.6,117.9,75.6,118.1,75.5 M114.6,76.1
				c0.5,1.1,0.9,2.2,1.2,3.3c0.7,2.5,0.8,4.1,0.1,4.8l-5.8,0.4l0.4-3.7C111,79.4,112.3,77.7,114.6,76.1L114.6,76.1z"/>
		</g>
		<path class="st18" d="M113.9,76.9c0.4,0.3,1.5-1.6,3.4-5.6c-0.6-0.4-1.4-0.5-2.1-0.3c-0.9,0.1-1.6,0.6-2.1,1.4
			c-0.5,0.7-0.7,1.6-0.5,2.4C112.7,75.6,113.2,76.4,113.9,76.9z"/>
	</g>
</g>
<path class="st24" d="M238.7,35.7c-8-3.1-17.1-4.4-27.4-3.9c-9.7,0.4-17.7,1.6-23.8,3.6c-7.7,2.4-14.7,6.9-20,13.1
	c-4.5,5.3-7.3,12.7-8.4,22.3c-0.9,8.2-0.5,16.5,1.1,24.6l-0.2-5.7c0.4-4.4,1.2-8.8,2.4-13.1c1.4-4.7,3.7-8.2,6.8-10.4
	c4.4-3,9.5-4.9,14.8-5.7c5.3-0.7,10.7-0.6,15.9,0.5s10.6,1.2,15.8,0.1c2.8-0.8,5.5-1.7,8.2-2.8c13.4-2.5,24.3,1.2,32.8,10.9
	c3.3,3.8,6,8.2,7.8,12.9c1.4,3.3,2.3,6.8,2.7,10.4c-0.2-4.2-0.5-7.5-0.6-9.8c-0.2-3.7-0.7-7.5-1.4-11.1c-1-4.3-1.8-7.6-2.5-9.8
	c-1-3.2-2.2-6.2-3.8-9.1C254.6,45,247.9,39.4,238.7,35.7z"/>
<path class="st24" d="M263.6,47.7c-1.8-2.2-4-4.1-6.3-5.6c-2.1-1-4.2-1.7-6.4-2.1c-2.9-0.8-4.9-1.5-5.9-2.3c2.5-1.1,5.3-1.6,8.1-1.5
	c2.8,0,5.5,0.5,8.1,1.4c-4.1-2.9-8.5-5.2-13.2-6.8c-4.7-1.5-9.5-2.5-14.4-3.1c-5.8-0.6-11.6-0.4-17.4,0.7c-2.5,0.4-5.1,1.1-7.5,1.9
	c-2.3,0.8-4.7,1.5-7.1,1.9c1.3-4,4.2-7.2,8.1-8.9c0.1,0,4-1.2,11.9-3.8c-7.9-1.6-16-0.7-23.3,2.5c-8.2,3.5-13.8,8.7-17,16
	c0.4-2.7,0.2-5.4-0.6-8c-0.9-3.5-2.1-5.6-3.6-6.2c0.3,4.1-0.6,8.2-2.5,11.9c-1.2,2.4-3.4,6-6.3,10.8c-2,3.3-3.6,6.7-5,10.3
	c-0.8,2.2-1.9,5.9-3.4,10.8v0.8c3-4.1,7.2-7.3,12.9-9.7c6.6-2.9,11-4.7,12.9-5.5c4.3-1.8,8.8-3.2,13.4-4.1c11.8-2.4,23.9-3,35.9-1.5
	c13.8,1.5,25.1,5.4,33.8,11.5c-1-2.6-1.6-4.5-2.1-5.9C265.7,51.3,264.7,49.4,263.6,47.7z"/>
</svg>
