<svg width="108" height="218" viewBox="0 0 108 218" fill="none" xmlns="http://www.w3.org/2000/svg">
<g id="eng">
<g id="english">
<g id="Layer_3">
<g id="Layer_1">
<g id="Group">
<g id="Group_2">
<g id="Group_3">
<path id="Vector" d="M42.0594 122.505C42.0673 122.547 42.1668 125.314 42.3579 130.807C42.528 137.923 42.5485 145.683 42.4194 154.084C42.4155 154.246 42.4389 154.391 42.4895 154.52C42.5407 154.628 42.6019 154.686 42.6733 154.695C42.7447 154.704 42.8087 154.65 42.8651 154.535C42.9216 154.42 42.9517 154.282 42.9556 154.12C43.0847 145.718 43.0652 137.919 42.897 130.721C42.698 125.186 42.599 122.399 42.6 122.358C42.595 122.195 42.5579 122.058 42.4889 121.948C42.4284 121.859 42.3622 121.821 42.2903 121.832C42.2179 121.864 42.158 121.938 42.1105 122.054C42.0714 122.192 42.0543 122.342 42.0594 122.505Z" fill="#BA3C1A"/>
</g>
</g>
</g>
<g id="Group_4">
<g id="Group_5">
<g id="Group_6">
<path id="Vector_2" d="M49.5819 120.687C49.5255 120.802 49.4953 120.941 49.4914 121.103L48.7383 153.185C48.7344 153.348 48.7578 153.493 48.8085 153.621C48.8591 153.749 48.9201 153.818 48.9915 153.827C49.063 153.835 49.1269 153.782 49.1833 153.667C49.2398 153.552 49.27 153.414 49.2738 153.251L50.0269 121.169C50.0308 121.007 50.0074 120.862 49.9568 120.734C49.9061 120.605 49.8451 120.537 49.7737 120.528C49.7023 120.519 49.6384 120.572 49.5819 120.687Z" fill="#BA3C1A"/>
</g>
</g>
</g>
<g id="Group_7">
<g id="Group_8">
<g id="Group_9">
<path id="Vector_3" d="M56.59 121.856C56.5191 121.827 56.4514 121.849 56.387 121.923C56.3221 122.016 56.2788 122.143 56.2571 122.303C56.2561 122.344 56.0323 125.152 55.5858 130.729C55.163 137.935 54.9827 145.67 55.0448 153.932C55.041 154.094 55.0644 154.239 55.115 154.368C55.1572 154.474 55.214 154.532 55.2854 154.541L55.3122 154.544C55.3841 154.533 55.4482 154.47 55.5047 154.355C55.5522 154.239 55.5735 154.099 55.5684 153.936C55.5132 145.755 55.6963 138.093 56.1177 130.947C56.5539 125.43 56.7724 122.651 56.7734 122.611C56.7951 122.451 56.7898 122.297 56.7575 122.151C56.7163 122.004 56.6604 121.905 56.59 121.856Z" fill="#BA3C1A"/>
</g>
</g>
</g>
<g id="Group_10">
<g id="Group_11">
<g id="Group_12">
<path id="Vector_4" d="M46.2837 120.956C46.2608 120.791 46.2146 120.663 46.1451 120.573C46.0841 120.505 46.0172 120.497 45.9443 120.549C45.8809 120.581 45.8296 120.667 45.7905 120.804C45.7604 120.943 45.7525 121.084 45.767 121.228C45.8327 122.599 45.8517 126.485 45.8241 132.886C45.7807 141.075 45.6202 147.979 45.3428 153.597C45.3389 153.759 45.3576 153.914 45.3988 154.061C45.4494 154.19 45.5102 154.268 45.5811 154.297L45.5945 154.299C45.6659 154.308 45.7299 154.255 45.7863 154.14C45.8423 154.045 45.8722 153.916 45.8761 153.754C46.1569 147.994 46.3175 140.897 46.3579 132.464C46.3856 125.31 46.3608 121.474 46.2837 120.956Z" fill="#BA3C1A"/>
</g>
</g>
</g>
<g id="Group_13">
<g id="Group_14">
<g id="Group_15">
<path id="Vector_5" d="M53.7011 121.291C53.6406 121.202 53.5743 121.163 53.5025 121.175C53.4301 121.207 53.3699 121.291 53.3219 121.427C53.1378 122.014 52.8482 125.893 52.4531 133.062C51.9838 141.463 51.8377 148.328 52.0148 153.657C52.0244 154.004 52.1095 154.187 52.2702 154.207L52.297 154.21C52.3688 154.198 52.4286 154.135 52.4761 154.019C52.533 153.883 52.5545 153.733 52.5405 153.569C52.3775 148.405 52.5131 141.793 52.9473 133.733C53.2957 127.392 53.5769 123.492 53.7908 122.034C53.8431 121.715 53.8133 121.467 53.7011 121.291Z" fill="#BA3C1A"/>
</g>
</g>
</g>
<g id="Group_16">
<g id="Group_17">
<g id="Group_18">
<path id="Vector_6" d="M47.1486 115.498C47.1483 115.491 47.1483 115.483 47.1486 115.473C46.26 115.528 45.3778 115.631 44.502 115.784C44.5047 115.794 44.5047 115.803 44.502 115.808C44.9579 115.735 45.4177 115.673 45.8813 115.622C46.3053 115.573 46.7278 115.532 47.1486 115.498ZM105.423 35.8268C103.029 27.0629 99.5917 20.7922 95.1103 17.015C93.7104 15.8304 92.2897 14.9689 90.8484 14.4305L89.4692 14.0577C91.6938 16.7443 93.3878 20.0412 94.5511 23.9483C96.9026 31.7813 96.8487 40.6198 94.3896 50.4638C90.2383 49.5861 86.1007 48.8365 81.9767 48.2149C83.5223 39.3776 83.5264 30.6012 81.9892 21.8857C80.7309 14.7336 78.2582 9.53152 74.5713 6.27949C73.119 4.99257 71.4747 4.01097 69.6384 3.3347C67.6172 2.5809 65.4842 2.26198 63.2394 2.37795C62.527 2.4028 61.8478 2.47321 61.2016 2.58918H61.1892C61.5805 2.84011 61.9615 3.11761 62.3323 3.42168C67.9154 8.0356 70.5869 17.8185 70.3467 32.7702C70.2755 37.4495 69.9773 42.0965 69.452 46.7114C58.855 45.773 48.3722 45.6902 38.0036 46.4629C37.9326 41.3292 38.1356 36.1893 38.6125 31.0431C39.9958 16.1576 43.7151 6.72266 49.7704 2.73829C50.1749 2.47389 50.585 2.23781 51.0005 2.03004C50.4277 1.86107 49.7526 1.71611 48.9752 1.59516C46.7552 1.24725 44.5973 1.33423 42.5016 1.85609C40.6045 2.33097 38.8608 3.13033 37.2705 4.25417C33.2667 7.09099 30.2474 11.9948 28.2125 18.9657C25.4957 28.307 24.6259 37.92 25.6032 47.8048C21.5366 48.3888 17.486 49.1053 13.4512 49.9544C13.3448 49.3967 13.2454 48.8417 13.153 48.2894C11.3058 37.2889 12.0927 27.7463 15.5138 19.6615C17.112 15.8764 19.1746 12.7659 21.7016 10.3301C21.3059 10.3516 20.8131 10.4386 20.223 10.5911C18.732 10.9804 17.2285 11.6845 15.7126 12.7034C10.8502 15.9754 6.74986 21.8401 3.4116 30.2976C0.543973 37.5652 -0.288518 45.1447 0.914115 53.0359C1.27849 55.4266 1.82935 57.8454 2.56668 60.2923C3.92731 64.8086 5.79525 69.0994 8.17049 73.1649C10.5945 77.3222 13.5476 81.2444 17.0297 84.9316C22.2069 90.3987 27.6036 97.5806 33.2199 106.477C35.5832 110.224 37.5796 113.574 39.2089 116.529L39.1095 116.33C39.9154 115.935 40.8266 115.6 41.843 115.324C40.7374 112.992 39.3209 110.047 37.5936 106.49C33.4187 97.8829 29.0326 89.1396 24.4352 80.2597C22.9396 77.3746 21.5811 74.5292 20.3597 71.7235C23.8276 71.3758 27.3067 71.0776 30.7969 70.8289C31.4985 72.9811 32.2647 75.2053 33.0956 77.5013C35.4399 83.9707 38.0533 92.3495 40.936 102.638C42.2223 107.21 43.324 111.265 44.2411 114.802C44.6923 114.733 45.1562 114.671 45.6327 114.616C46.1289 114.557 46.6218 114.511 47.1114 114.479C46.8945 108.829 46.1987 102.542 45.0239 95.6174C43.3921 87.1019 42.1661 80.649 41.346 76.2588C40.9649 74.2111 40.617 72.2231 40.3023 70.2946C48.4071 69.9559 56.5871 69.8897 64.8423 70.0958C64.2073 72.4414 63.5073 74.8809 62.7424 77.4143C61.4584 81.6886 59.5408 87.9758 56.9895 96.2759C55.0763 103.026 53.7054 109.197 52.8767 114.79C53.8152 114.962 54.7429 115.185 55.66 115.461C56.9641 112.026 58.5048 108.104 60.2822 103.694C64.2665 93.7701 67.7788 85.7227 70.8188 79.5515C72.3613 76.3916 73.7488 73.3681 74.9813 70.481C78.7318 70.6785 82.4967 70.927 86.2759 71.2265C84.2126 75.1738 81.8352 79.1747 79.1438 83.2293C73.5938 91.5626 68.2716 99.7757 63.1773 107.869C61.0542 111.261 59.3147 114.065 57.9586 116.281C58.8901 116.666 59.8096 117.109 60.7171 117.61C62.7568 115.009 65.1549 112.047 67.9113 108.726C74.621 100.674 80.6389 93.9897 85.9653 88.6716C91.3674 83.2866 95.7287 77.8857 99.0491 72.469C100.573 70.0014 101.877 67.5288 102.963 65.0511C104.673 61.1356 105.833 57.234 106.442 53.3465C107.357 47.4758 107.018 41.6359 105.423 35.8268Z" fill="#FDC500"/>
<path id="Vector_7" d="M20.3597 71.7235C21.5811 74.5292 22.9396 77.3746 24.4352 80.2597C29.0326 89.1397 33.4187 97.8829 37.5936 106.49C39.3209 110.047 40.7374 112.992 41.843 115.324C42.5882 115.12 43.3876 114.946 44.2411 114.802C43.324 111.265 42.2223 107.21 40.936 102.638C38.0533 92.3495 35.4399 83.9707 33.0956 77.5013C32.2648 75.2053 31.4985 72.9811 30.797 70.8289C27.3067 71.0776 23.8276 71.3758 20.3597 71.7235ZM37.2705 4.25419C36.9307 4.19012 36.2763 4.18184 35.3073 4.22934C33.3938 4.31218 31.4182 4.73878 29.3805 5.50914C26.4688 6.60438 23.9092 8.21139 21.7016 10.3302C19.1746 12.766 17.112 15.8764 15.5138 19.6616C12.0927 27.7463 11.3058 37.2889 13.153 48.2894C13.2454 48.8417 13.3448 49.3967 13.4512 49.9544C17.486 49.1054 21.5366 48.3888 25.6032 47.8048C24.6259 37.92 25.4957 28.307 28.2125 18.9657C30.2474 11.9949 33.2667 7.09101 37.2705 4.25419ZM59.0521 120.306L60.1828 118.281C58.5954 117.344 56.5494 116.598 54.0447 116.045C51.7006 115.523 49.402 115.333 47.1486 115.473C47.1483 115.483 47.1483 115.491 47.1486 115.498C46.7278 115.532 46.3053 115.573 45.8813 115.622C45.4177 115.673 44.9579 115.735 44.5021 115.808C44.5047 115.803 44.5047 115.794 44.5021 115.784C42.837 116.088 41.1969 116.577 39.5816 117.25L39.5444 117.188C40.3644 118.795 40.9691 120.514 41.3585 122.344C41.549 123.255 41.6608 124.009 41.6939 124.606C44.4772 123.802 47.9066 123.595 51.9821 123.984C54.0198 124.191 55.7801 124.477 57.2628 124.842C57.5942 123.5 58.1906 121.988 59.0521 120.306ZM86.2759 71.2265C82.4967 70.9271 78.7318 70.6786 74.9813 70.481C73.7488 73.3681 72.3613 76.3916 70.8188 79.5515C67.7788 85.7227 64.2666 93.7702 60.2822 103.694C58.5048 108.104 56.9641 112.026 55.66 115.461C56.4378 115.698 57.204 115.972 57.9586 116.281C59.3147 114.065 61.0542 111.261 63.1773 107.869C68.2716 99.7757 73.5938 91.5626 79.1438 83.2294C81.8352 79.1747 84.2126 75.1738 86.2759 71.2265ZM62.7424 77.4143C63.5073 74.8809 64.2073 72.4414 64.8423 70.0958C56.5871 69.8897 48.4071 69.9559 40.3023 70.2946C40.617 72.2231 40.9649 74.2111 41.346 76.2588C42.1661 80.649 43.3921 87.1019 45.0239 95.6174C46.1987 102.542 46.8945 108.829 47.1114 114.479C49.0707 114.359 50.9925 114.462 52.8767 114.79C53.7054 109.197 55.0763 103.026 56.9895 96.2759C59.5408 87.9758 61.4584 81.6886 62.7424 77.4143ZM53.8831 1.01119C53.8847 1.0272 53.8847 1.04377 53.8831 1.06089C52.8952 1.24077 51.9343 1.56382 51.0005 2.03006C50.585 2.23783 50.1749 2.47391 49.7704 2.7383C43.7151 6.72268 39.9958 16.1576 38.6125 31.0431C38.1356 36.1893 37.9326 41.3293 38.0036 46.4629C48.3722 45.6902 58.855 45.773 69.452 46.7114C69.9773 42.0966 70.2755 37.4495 70.3467 32.7702C70.5869 17.8185 67.9155 8.03562 62.3324 3.4217C61.9615 3.11763 61.5805 2.84013 61.1892 2.5892C60.3149 2.02278 59.3955 1.59618 58.4308 1.3094C58.4358 1.29186 58.44 1.27529 58.4432 1.25969C57.8175 1.02597 57.0347 0.90172 56.0949 0.886933C55.5889 0.85684 55.096 0.860987 54.6162 0.899363L53.8831 1.01119ZM76.5469 6.46589C75.587 6.31459 74.9284 6.25246 74.5713 6.27951C78.2582 9.53154 80.7309 14.7336 81.9892 21.8857C83.5264 30.6012 83.5223 39.3776 81.9767 48.2149C86.1007 48.8365 90.2383 49.5861 94.3896 50.4639C96.8488 40.6199 96.9026 31.7813 94.5511 23.9483C93.3878 20.0412 91.6938 16.7443 89.4692 14.0577C87.4968 11.6855 85.107 9.79274 82.2998 8.37939C80.3615 7.39365 78.4438 6.75582 76.5469 6.46589Z" fill="#F15A29"/>
<path id="Vector_8" d="M60.7419 117.623C60.7331 117.618 60.7248 117.614 60.7171 117.61C59.8096 117.109 58.8901 116.666 57.9586 116.281C57.204 115.972 56.4378 115.698 55.66 115.461C54.743 115.185 53.8152 114.962 52.8767 114.79C50.9925 114.462 49.0707 114.359 47.1114 114.479C46.6218 114.511 46.1289 114.557 45.6328 114.616C45.1562 114.671 44.6923 114.733 44.2411 114.802C43.3876 114.946 42.5882 115.12 41.843 115.324C40.8266 115.6 39.9154 115.935 39.1095 116.33L39.2089 116.529L39.5444 117.188L39.5816 117.25C41.1969 116.577 42.837 116.088 44.5021 115.784C45.3778 115.631 46.26 115.528 47.1486 115.473C49.402 115.333 51.7006 115.523 54.0447 116.045C56.5494 116.598 58.5954 117.344 60.1828 118.281L60.1952 118.294L60.7419 117.623Z" fill="#FBAB00" fill-opacity="0.588235"/>
</g>
</g>
</g>
<g id="Group_19">
<g id="Group_20">
<g id="Group_21">
<path id="Vector_9" d="M70.1971 7.90048C67.9272 6.34504 64.9218 5.14802 61.1807 4.30944C58.3418 3.67199 55.5457 3.31884 52.7923 3.24999C51.509 3.14454 49.8441 3.14371 47.7974 3.24748C43.7033 3.47289 39.738 4.12602 35.9018 5.20688C23.6194 8.68496 14.9277 15.8535 9.82676 26.7126C6.91188 32.919 7.28171 37.8983 10.9363 41.6504C12.5816 43.3331 14.807 44.6355 17.6125 45.5576C20.3561 46.4674 23.4717 46.9542 26.9594 47.0182C34.3542 47.1688 41.8291 45.5961 49.3842 42.3001C57.7365 38.6625 64.5083 33.5516 69.6995 26.9674C76.3322 18.5636 76.4981 12.208 70.1971 7.90048Z" fill="#FBAB00" fill-opacity="0.290196"/>
</g>
</g>
</g>
<g id="Group_22">
<g id="Group_23">
<g id="Group_24">
<path id="Vector_10" d="M101.545 25.9141C101.902 27.2672 102.153 29.0578 102.301 31.2858C102.587 35.7503 102.19 40.1822 101.11 44.5815C99.6033 50.7301 96.8402 56.3674 92.8202 61.4934C87.7909 67.8984 80.935 73.3226 72.2525 77.7659C63.5615 82.1997 54.6994 84.0955 45.6663 83.4531C38.4435 82.9358 31.272 80.8145 24.1517 77.0892C19.0596 74.4227 14.2546 71.0871 9.73649 67.0822C8.31833 65.8326 7.0162 64.5892 5.8301 63.3522L4.47313 61.8821L4.90663 63.5438C5.32245 64.9539 5.87323 66.4339 6.55895 67.984C8.74295 72.9364 11.827 77.6333 15.8112 82.0747C20.3103 87.0901 25.5078 93.9158 31.4038 102.552C36.9843 110.732 39.9768 115.715 40.3812 117.5L42.3084 117.122C43.9081 116.841 45.4893 116.654 47.052 116.56C52.0544 116.258 55.9536 116.904 58.7496 118.497C61.0009 115.28 63.7953 111.543 67.1326 107.284C73.8158 98.7752 79.8892 91.9345 85.3529 86.7616C94.1381 78.4478 100.156 70.2434 103.406 62.1484C108.144 50.3835 107.524 38.3054 101.545 25.9141Z" fill="#FBAB00" fill-opacity="0.290196"/>
</g>
</g>
</g>
<g id="Group_25">
<g id="Group_26">
<g id="Group_27">
<path id="Vector_11" d="M42.6672 122.053L41.439 122.416L41.6961 124.605C44.5501 123.811 47.9732 123.661 51.9657 124.156C53.9662 124.407 55.6806 124.733 57.1091 125.133L57.7862 123.048C53.8496 121.689 49.9432 121.177 46.0668 121.513C44.8527 121.617 43.7194 121.797 42.6672 122.053Z" fill="#BA3C1A"/>
</g>
</g>
</g>
</g>
<g id="Layer_2">
<g id="Group_28">
<path id="ENGLISH" d="M28.1996 67.4536C28.1969 67.5952 28.1448 67.8548 28.0433 68.2323L27.8281 68.3736C27.1828 68.3727 26.2211 68.4579 24.943 68.6291C23.6649 68.8004 22.7033 68.8856 22.058 68.8847C20.972 68.8831 20.3105 68.4887 20.0735 67.7016C19.9996 67.4497 19.9604 66.6077 19.9559 65.1757C19.9562 60.9898 19.9643 58.472 19.9804 57.6222C20.0388 54.5222 20.1086 52.9093 20.1897 52.7836C21.0117 52.5959 22.1388 52.5031 23.571 52.5051C25.1763 52.5074 26.1823 52.5797 26.5888 52.7219C27.5114 53.038 27.9609 53.8254 27.9372 55.0843L27.7438 55.3201C26.1839 55.4123 25.2124 55.5997 24.8294 55.8824C24.3346 56.2437 24.0739 57.1324 24.0472 58.5486C24.0326 59.3197 24.1171 59.847 24.3007 60.1305C25.5577 60.2425 26.3109 60.3616 26.5604 60.4878C27.1531 60.7719 27.4398 61.4254 27.4205 62.4483C27.4205 62.4483 27.3856 62.6292 27.3158 62.991L27.0054 63.1794L26.2499 63.1783C24.6291 63.1603 23.8103 63.5997 23.7933 64.4967C23.7806 65.1733 24.1586 65.5751 24.9274 65.7021C25.6345 65.7661 26.3493 65.8379 27.0718 65.9177C27.8394 66.1076 28.2153 66.6196 28.1996 67.4536ZM40.3334 52.9541C40.3446 53.1901 40.3481 53.4262 40.3436 53.6622C40.3299 54.3861 40.2072 55.4717 39.9753 56.9192C39.7436 58.3508 39.621 59.4286 39.6074 60.1525C39.5979 60.656 39.5992 61.4193 39.6114 62.4421C39.6396 63.4493 39.649 64.2047 39.6395 64.7082C39.635 64.9443 39.6372 65.2433 39.6461 65.6052C39.6551 65.9672 39.6582 66.219 39.6555 66.3606C39.6424 67.053 39.4998 67.5249 39.2275 67.7763C38.9067 68.0905 38.2664 68.247 37.3063 68.2456C36.5036 68.2444 35.7878 67.8107 35.1588 66.9443C34.6828 66.3141 34.228 65.3929 33.7945 64.1805C33.496 63.3146 33.2054 62.4487 32.9227 61.5828C32.825 61.7557 32.772 62.0625 32.7637 62.5031C32.7316 64.2026 32.8046 66.1777 32.9825 68.4282L32.7428 68.6167C31.7183 68.6939 31.0723 68.7324 30.8047 68.732C30.1909 68.7311 29.7838 68.6204 29.5833 68.3998C29.3986 68.1792 29.3122 67.7542 29.3241 67.1247C29.4265 61.6958 29.5445 57.5258 29.6781 54.6147C29.7019 54.1899 29.7336 53.7572 29.7734 53.3166C30.1084 53.081 30.5198 52.9636 31.0077 52.9643C31.5271 52.965 32.1304 53.1075 32.8175 53.3918C33.8325 53.8181 34.4104 54.055 34.5512 54.1024C34.7151 54.5905 34.875 55.708 35.0309 57.455C35.1604 58.9344 35.4997 60.1387 36.0488 61.068C36.145 60.9737 36.2056 60.2656 36.2305 58.9438C36.2382 58.5347 36.2431 57.858 36.2452 56.9138C36.2633 55.9539 36.2766 55.2458 36.2853 54.7894C36.3135 53.2945 36.3774 52.4055 36.4772 52.1224C36.577 51.8393 37.2486 51.6986 38.4919 51.7004C39.3418 51.7016 39.9442 51.8913 40.299 52.2695L40.3334 52.9541ZM52.5304 64.7267C52.5158 65.4978 51.8695 66.386 50.5914 67.3913C49.3291 68.3966 48.2966 68.8987 47.4939 68.8975C43.8582 68.8923 42.0778 66.907 42.1526 62.9415C42.1832 61.3207 42.6308 59.2834 43.4956 56.8298C44.5586 53.8728 45.704 52.3953 46.9316 52.397C47.4982 52.3978 48.2796 52.6901 49.2759 53.2738C50.3346 53.889 51.0348 54.7319 51.3766 55.8025C51.5991 56.5267 51.696 57.6441 51.6675 59.1548C51.6628 59.4065 51.4794 59.5322 51.1174 59.5317C50.4564 59.5307 49.9253 59.3175 49.5241 58.892C49.2613 58.6399 49.0251 58.2304 48.8154 57.6636C48.6203 57.1597 48.4682 56.8763 48.3593 56.8132C47.7606 56.8438 47.1548 58.0861 46.5419 60.5401C46.0309 62.6008 45.7657 64.1426 45.7464 65.1655C45.7345 65.7949 45.9475 66.1886 46.3852 66.3466C47.0985 66.0801 47.6432 65.5695 48.0195 64.8147L47.9789 64.4605L47.3651 64.4597C46.6094 64.4743 46.2365 64.2141 46.2466 63.6791C46.2727 62.2943 47.7416 61.604 50.6533 61.6082C51.0782 61.6088 51.5111 62.0265 51.9517 62.8611C52.3464 63.6328 52.5393 64.2546 52.5304 64.7267ZM61.8048 67.5962C61.8048 67.5962 61.771 67.722 61.7033 67.9737C60.2633 68.3808 58.3787 68.5827 56.0494 68.5793C55.4828 68.5785 55.1022 68.3105 54.9077 67.7751C54.8038 67.4445 54.7583 66.933 54.7714 66.2406C54.9255 58.0736 55.1205 53.5733 55.3566 52.7396C56.2121 52.4418 57.0097 52.2935 57.7495 52.2945C58.9928 52.2963 59.7094 52.6907 59.8991 53.4778C59.5933 53.8393 59.3355 55.4047 59.1259 58.1741C58.9801 60.0622 58.8907 61.8797 58.8578 63.6264C58.8453 64.2873 58.9706 64.736 59.2338 64.9724C59.4505 65.1615 59.8344 65.2565 60.3852 65.2573C60.5269 65.2575 60.771 65.25 61.1175 65.2347C61.5929 65.8964 61.822 66.6835 61.8048 67.5962ZM67.4699 52.993C67.4417 54.4879 67.2891 56.738 67.012 59.7433C66.7353 62.7328 66.5827 64.9829 66.5542 66.4936C66.5405 67.2175 66.4736 67.8468 66.3533 68.3817C66.0029 68.6015 65.537 68.6874 64.9555 68.6393L62.7867 68.471C62.6944 68.3607 62.6618 67.5817 62.6891 66.134C62.8542 57.3847 62.9698 52.9236 63.036 52.7506C63.4978 52.468 64.2953 52.3275 65.4285 52.3291C65.759 52.3296 66.1437 52.3774 66.5826 52.4724C67.178 52.6149 67.4738 52.7884 67.4699 52.993ZM78.1031 66.2977C78.0877 67.116 77.3895 67.831 76.0087 68.4427C74.8657 68.9604 73.8142 69.2186 72.8541 69.2172C71.8154 69.2157 70.836 68.9861 69.916 68.5284C68.7932 67.976 68.2406 67.2356 68.2581 66.3072C68.2581 66.3072 68.285 66.1341 68.3387 65.788C68.7993 65.5684 69.0296 65.4585 69.0296 65.4585C69.2657 65.4589 69.7331 65.7113 70.4318 66.2159C71.1466 66.7048 71.866 66.9497 72.5899 66.9507C72.8732 66.9511 73.1577 66.8886 73.4434 66.7631L73.565 66.5745C73.5071 66.3069 73.0894 65.9207 72.312 65.416C71.3786 64.8324 70.7047 64.265 70.2901 63.7136C69.5991 62.7999 69.2665 61.6585 69.2923 60.2895C69.311 59.2981 69.5765 58.1576 70.0888 56.8679C70.601 55.5783 71.1943 54.5799 71.8687 53.8727C72.0935 53.637 72.3882 53.4485 72.7529 53.3074C73.1178 53.1506 73.4668 53.0095 73.7996 52.884C74.1132 52.9474 74.4175 53.0895 74.7123 53.3102C74.96 53.5309 75.2155 53.7516 75.4789 53.9723C76.3469 54.6817 76.8999 55.4063 77.1378 56.1463C77.3165 56.6816 77.3936 57.6023 77.369 58.9084L77.0327 59.2148C76.246 59.1979 75.4977 58.8191 74.7877 58.0785L74.5289 58.0309C73.7413 58.8953 73.3363 59.9255 73.3137 61.1214C73.2977 61.9712 73.7087 62.7114 74.5467 63.342C75.3096 63.7837 76.0802 64.2333 76.8585 64.6908C77.6989 65.1956 78.1138 65.7312 78.1031 66.2977ZM89.3301 53.52C88.9482 57.0759 88.7048 61.6392 88.5997 67.2097C88.5926 67.5874 88.5541 67.9572 88.4843 68.319C87.9929 68.5071 86.9759 68.6001 85.4336 68.5979C84.9929 68.5973 84.7431 68.0697 84.6843 67.0153C84.6671 66.2599 84.6497 65.5124 84.6322 64.7728L84.1872 64.5833C83.5083 64.6925 83.1602 65.2113 83.1427 66.1397C83.1388 66.3443 83.1488 66.6512 83.1725 67.0603C83.212 67.4695 83.2303 67.7528 83.2273 67.9102C83.216 68.5082 82.9492 68.8854 82.4269 69.0421C82.1893 69.1204 81.6692 69.159 80.8665 69.1579C79.6074 69.156 78.9838 68.8404 78.9957 68.211L79.0843 63.5138L79.3203 53.5057C79.497 53.3171 79.7191 53.223 79.9866 53.2234C82.6622 53.2272 83.9936 53.5675 83.9809 54.2441C83.9708 54.7791 83.8296 55.5894 83.5573 56.6748C83.2853 57.7445 83.1441 58.5547 83.1337 59.1055C83.1138 60.1598 83.2283 60.7658 83.4771 60.9235L84.1613 60.9481C84.6017 60.9645 84.8736 60.3197 84.9769 59.0137C84.9944 58.9193 85.0188 58.046 85.0499 56.3937C85.0556 56.0947 85.0248 55.6383 84.9577 55.0245C84.8906 54.4107 84.8599 53.9543 84.8655 53.6553C84.8815 52.8055 85.2673 52.3812 86.0227 52.3823C87.8012 52.3848 88.9037 52.7641 89.3301 53.52Z" fill="black"/>
</g>
<g id="Group_29">
<path id="ENGLISH_2" d="M27.1807 65.9004C27.178 66.042 27.1259 66.3016 27.0244 66.6792L26.8092 66.8205C26.1639 66.8195 25.2023 66.9047 23.9242 67.076C22.6461 67.2473 21.6844 67.3324 21.0391 67.3315C19.9531 67.3299 19.2916 66.9356 19.0547 66.1484C18.9807 65.8965 18.9415 65.0546 18.937 63.6225C18.9373 59.4366 18.9454 56.9188 18.9615 56.0691C19.0199 52.9691 19.0897 51.3562 19.1708 51.2304C19.9928 51.0427 21.1199 50.9499 22.5521 50.952C24.1574 50.9543 25.1634 51.0265 25.5699 51.1688C26.4926 51.4848 26.942 52.2723 26.9183 53.5312L26.7249 53.7669C25.165 53.8591 24.1935 54.0466 23.8105 54.3293C23.3157 54.6905 23.055 55.5792 23.0283 56.9955C23.0138 57.7665 23.0982 58.2938 23.2818 58.5774C24.5388 58.6893 25.292 58.8084 25.5415 58.9347C26.1342 59.2188 26.4209 59.8723 26.4016 60.8951C26.4016 60.8951 26.3667 61.076 26.2969 61.4379L25.9865 61.6263L25.231 61.6252C23.6102 61.6071 22.7914 62.0466 22.7745 62.9435C22.7617 63.6202 23.1397 64.022 23.9085 64.149C24.6156 64.2129 25.3304 64.2848 26.0529 64.3645C26.8205 64.5544 27.1965 65.0664 27.1807 65.9004ZM39.3145 51.4009C39.3257 51.637 39.3292 51.873 39.3247 52.1091C39.3111 52.8329 39.1883 53.9186 38.9564 55.366C38.7247 56.7977 38.6021 57.8755 38.5885 58.5993C38.579 59.1029 38.5803 59.8661 38.5925 60.889C38.6207 61.8962 38.6301 62.6515 38.6206 63.1551C38.6161 63.3911 38.6183 63.6901 38.6273 64.0521C38.6362 64.414 38.6393 64.6658 38.6366 64.8074C38.6236 65.4998 38.4809 65.9717 38.2086 66.2231C37.8879 66.5374 37.2475 66.6938 36.2874 66.6924C35.4847 66.6913 34.7689 66.2575 34.14 65.3911C33.6639 64.761 33.2091 63.8397 32.7756 62.6274C32.4771 61.7615 32.1865 60.8955 31.9038 60.0296C31.8061 60.2026 31.7531 60.5094 31.7448 60.95C31.7128 62.6495 31.7857 64.6245 31.9636 66.8751L31.7239 67.0636C30.6994 67.1408 30.0534 67.1792 29.7858 67.1788C29.172 67.1779 28.7649 67.0672 28.5645 66.8466C28.3797 66.626 28.2933 66.201 28.3052 65.5716C28.4076 60.1426 28.5256 55.9726 28.6592 53.0616C28.683 52.6367 28.7147 52.204 28.7545 51.7634C29.0895 51.5279 29.5009 51.4104 29.9888 51.4111C30.5082 51.4119 31.1115 51.5544 31.7986 51.8386C32.8136 52.265 33.3915 52.5018 33.5323 52.5492C33.6962 53.0373 33.8561 54.1548 34.012 55.9018C34.1415 57.3812 34.4808 58.5856 35.0299 59.5148C35.1261 59.4205 35.1867 58.7125 35.2116 57.3906C35.2193 56.9815 35.2242 56.3048 35.2263 55.3606C35.2444 54.4007 35.2578 53.6926 35.2664 53.2363C35.2946 51.7413 35.3585 50.8523 35.4583 50.5692C35.5581 50.2861 36.2297 50.1454 37.473 50.1472C38.3229 50.1484 38.9253 50.3381 39.2802 50.7163L39.3145 51.4009ZM51.5115 63.1736C51.4969 63.9446 50.8506 64.8328 49.5725 65.8381C48.3102 66.8434 47.2777 67.3455 46.475 67.3444C42.8394 67.3392 41.0589 65.3538 41.1337 61.3883C41.1643 59.7675 41.612 57.7303 42.4767 55.2766C43.5398 52.3197 44.6851 50.8421 45.9127 50.8439C46.4793 50.8447 47.2608 51.1369 48.2571 51.7206C49.3157 52.3358 50.0159 53.1787 50.3577 54.2493C50.5802 54.9735 50.6771 56.0909 50.6486 57.6016C50.6439 57.8534 50.4605 57.979 50.0985 57.9785C49.4375 57.9775 48.9064 57.7643 48.5052 57.3389C48.2424 57.0867 48.0062 56.6772 47.7965 56.1104C47.6014 55.6066 47.4494 55.3231 47.3404 55.26C46.7417 55.2906 46.1359 56.5329 45.523 58.9869C45.012 61.0477 44.7468 62.5895 44.7275 63.6123C44.7156 64.2418 44.9286 64.6355 45.3663 64.7935C46.0796 64.527 46.6243 64.0163 47.0006 63.2615L46.96 62.9074L46.3462 62.9065C45.5905 62.9212 45.2176 62.661 45.2277 62.1259C45.2539 60.7412 46.7227 60.0509 49.6344 60.055C50.0594 60.0557 50.4922 60.4733 50.9329 61.308C51.3275 62.0796 51.5204 62.7015 51.5115 63.1736ZM60.7859 66.043C60.7859 66.043 60.7521 66.1689 60.6844 66.4206C59.2444 66.8277 57.3598 67.0295 55.0305 67.0262C54.4639 67.0254 54.0833 66.7573 53.8888 66.222C53.7849 65.8914 53.7394 65.3799 53.7525 64.6875C53.9066 56.5205 54.1016 52.0201 54.3377 51.1864C55.1932 50.8886 55.9909 50.7403 56.7306 50.7414C57.9739 50.7431 58.6905 51.1376 58.8803 51.9247C58.5744 52.2862 58.3166 53.8516 58.107 56.6209C57.9612 58.5091 57.8719 60.3265 57.8389 62.0732C57.8264 62.7341 57.9518 63.1828 58.2149 63.4192C58.4316 63.6084 58.8155 63.7033 59.3663 63.7041C59.508 63.7043 59.7521 63.6968 60.0986 63.6816C60.574 64.3432 60.8032 65.1303 60.7859 66.043ZM66.451 51.4398C66.4228 52.9348 66.2702 55.1849 65.9932 58.1901C65.7164 61.1797 65.5638 63.4298 65.5353 64.9404C65.5216 65.6643 65.4547 66.2937 65.3344 66.8285C64.984 67.0483 64.5181 67.1342 63.9366 67.0862L61.7678 66.9178C61.6755 66.8075 61.6429 66.0285 61.6703 64.5808C61.8353 55.8316 61.9509 51.3704 62.0171 51.1974C62.4789 50.9148 63.2764 50.7743 64.4096 50.776C64.7401 50.7764 65.1248 50.8242 65.5637 50.9193C66.1591 51.0617 66.4549 51.2353 66.451 51.4398ZM77.0842 64.7446C77.0688 65.5628 76.3706 66.2778 74.9898 66.8896C73.8468 67.4072 72.7953 67.6654 71.8352 67.664C70.7965 67.6625 69.8171 67.4329 68.8971 66.9753C67.7743 66.4229 67.2217 65.6825 67.2392 64.754C67.2392 64.754 67.2661 64.581 67.3198 64.2348C67.7804 64.0152 68.0107 63.9054 68.0107 63.9054C68.2468 63.9057 68.7142 64.1582 69.4129 64.6627C70.1277 65.1516 70.8471 65.3965 71.5711 65.3976C71.8544 65.398 72.1388 65.3354 72.4245 65.21L72.5461 65.0213C72.4882 64.7537 72.0705 64.3676 71.2931 63.8629C70.3598 63.2793 69.6858 62.7118 69.2713 62.1604C68.5802 61.2467 68.2476 60.1053 68.2734 58.7363C68.2921 57.7449 68.5576 56.6044 69.0699 55.3148C69.5821 54.0251 70.1754 53.0267 70.8498 52.3195C71.0746 52.0838 71.3693 51.8954 71.734 51.7543C72.0989 51.5974 72.4479 51.4563 72.7807 51.3309C73.0943 51.3943 73.3986 51.5363 73.6934 51.7571C73.9411 51.9777 74.1966 52.1984 74.46 52.4191C75.3281 53.1285 75.881 53.8532 76.1189 54.5931C76.2976 55.1284 76.3747 56.0491 76.3501 57.3552L76.0138 57.6616C75.2271 57.6447 74.4788 57.266 73.7688 56.5253L73.51 56.4778C72.7224 57.3421 72.3174 58.3723 72.2948 59.5682C72.2788 60.418 72.6898 61.1582 73.5278 61.7889C74.2907 62.2306 75.0613 62.6802 75.8396 63.1376C76.68 63.6424 77.0949 64.1781 77.0842 64.7446ZM88.3112 51.9669C87.9293 55.5228 87.6859 60.086 87.5808 65.6566C87.5737 66.0343 87.5352 66.404 87.4654 66.7658C86.974 66.954 85.9571 67.0469 84.4147 67.0447C83.974 67.0441 83.7242 66.5166 83.6654 65.4621C83.6482 64.7068 83.6308 63.9592 83.6133 63.2196L83.1683 63.0301C82.4895 63.1393 82.1413 63.6581 82.1238 64.5865C82.1199 64.7911 82.1299 65.098 82.1536 65.5072C82.1931 65.9164 82.2114 66.1997 82.2084 66.357C82.1971 66.955 81.9303 67.3323 81.408 67.4889C81.1704 67.5672 80.6503 67.6058 79.8476 67.6047C78.5885 67.6029 77.9649 67.2873 77.9768 66.6578L78.0654 61.9606L78.3014 51.9525C78.4781 51.7639 78.7002 51.6698 78.9678 51.6702C81.6433 51.6741 82.9747 52.0143 82.962 52.691C82.9519 53.226 82.8107 54.0362 82.5384 55.1216C82.2664 56.1913 82.1252 57.0016 82.1148 57.5523C82.0949 58.6066 82.2094 59.2127 82.4582 59.3704L83.1424 59.395C83.5828 59.4113 83.8547 58.7665 83.958 57.4605C83.9755 57.3662 83.9999 56.4928 84.031 54.8405C84.0367 54.5415 84.0059 54.0851 83.9388 53.4713C83.8717 52.8575 83.841 52.4011 83.8466 52.1021C83.8626 51.2524 84.2484 50.828 85.0038 50.8291C86.7823 50.8317 87.8848 51.2109 88.3112 51.9669Z" fill="#CC0000"/>
</g>
</g>
</g>
<g id="Layer_5">
<g id="Layer_1_2">
<g id="Group_30">
<g id="Group_31">
<g id="Group_32">
<path id="Vector_12" d="M69.7502 208.439H69.7875L65.215 192.932L55.9209 193.641L59.2882 205.122L69.7502 208.439ZM11.0407 212.353L18.5208 217.062L45.8937 134.422L36.7487 138.336L11.0407 212.353ZM53.1128 151.892L48.329 167.746L52.2554 181.153L61.6365 180.78L53.1128 151.892Z" fill="#258EC2"/>
<path id="Vector_13" d="M59.5242 136.658L45.8937 134.422L18.5208 217.062L34.2263 214.416L40.1656 194.796L55.9209 193.641L65.215 192.932L69.7875 208.439L80.6845 206.613L59.5242 136.658ZM48.329 167.746L53.1128 151.892L61.6365 180.78L52.2554 181.153L44.179 181.464L48.329 167.746Z" fill="#3DB5F0"/>
</g>
</g>
<g id="Group_33">
<path id="Vector_14" d="M45.8937 134.422L59.5242 136.658L80.6845 206.613L69.7875 208.439V208.464L69.7502 208.439L59.2881 205.122L55.9209 193.641L40.1656 194.796L34.2263 214.416L18.5208 217.062L11.0407 212.353L36.7487 138.336L45.8937 134.422ZM45.8937 134.422L18.5208 217.062L45.8937 134.422ZM52.2554 181.153L61.6365 180.78L53.1128 151.892L48.329 167.746L52.2554 181.153ZM52.2554 181.153L44.179 181.464L48.329 167.746L52.2554 181.153ZM69.7502 208.439H69.7875L65.215 192.932L55.9209 193.641" stroke="white" stroke-width="0.248506" stroke-linecap="round" stroke-linejoin="round"/>
</g>
</g>
</g>
</g>
</g>
</g>
</svg>
