<svg viewBox="0 0 2504 278" version="1.1" xmlns="http://www.w3.org/2000/svg" xmlns:xlink="http://www.w3.org/1999/xlink" xml:space="preserve" xmlns:serif="http://www.serif.com/" style="fill-rule:evenodd;clip-rule:evenodd;stroke-linejoin:round;stroke-miterlimit:2;"><rect id="Artboard2" x="0" y="0" width="2503.44" height="277.791" style="fill:none;"/><clipPath id="_clip1"><rect x="0" y="0" width="2503.44" height="277.791"/></clipPath><g clip-path="url(#_clip1)"><rect id="Artboard1" x="-65.393" y="-346.582" width="1120.69" height="501.362" style="fill:none;"/><g><g><path d="M1697.93,127.838c0.012,-35.75 -0.042,-71.496 0.029,-107.246c14.508,-0.017 29.017,0.1 43.537,-0.059c0.234,80.955 0.046,161.921 0.105,242.875c-14.221,-0.029 -28.438,0.013 -42.642,-0.012c-0.029,-9.096 0.117,-18.188 -0.088,-27.267c-5.662,7.863 -11.683,15.738 -19.85,21.184c-15.058,10.67 -36.358,11.541 -52.183,2.07c-18.55,-11.395 -30.046,-31.954 -34.087,-52.95c-4.084,-22.804 -2.055,-47.404 9.166,-67.979c6.529,-11.7 15.521,-22.516 27.425,-29.016c12.075,-6.646 26.788,-7.388 39.904,-3.68c11.917,3.534 20.88,12.842 28.684,22.08m-37.746,22.704c-11.6,3.766 -19.996,14.754 -22.329,26.512c-2.025,10.15 -1.709,21.242 3.229,30.55c3.779,6.95 9.787,13.263 17.696,15.221c8.571,1.983 18.008,-0.221 24.758,-5.896c16.533,-13.725 18.679,-41.629 3.925,-57.408c-6.575,-7.633 -17.433,-11.629 -27.279,-8.979Z" style="fill:#4d2627;fill-rule:nonzero;"/><path d="M1785.33,20.242c14.42,-0.013 28.858,0.029 43.295,-0.029c0.071,35.995 0.03,71.991 0.03,107.987c7.237,-8.962 16.112,-17.042 27.045,-21.167c15.855,-6.112 34.592,-2.97 48.042,7.255c15.929,12.075 26.729,30.375 30.813,49.85c5.054,24.266 1.954,50.966 -11.988,71.891c-6.85,10.321 -15.654,19.809 -26.904,25.354c-13.25,6.571 -29.9,6.846 -42.758,-0.829c-9.613,-5.716 -17.375,-13.971 -24.584,-22.383l0,25.225c-14.337,-0 -28.671,0.012 -42.991,-0l-0,-243.154m64.579,131.908c-10.034,3.663 -16.971,13.25 -19.084,23.5c-2.925,13.654 -0.795,29.508 9.584,39.642c10.021,10.646 29.004,11.933 39.383,1.116c16.029,-16.375 14.192,-46.883 -4.283,-60.741c-7.196,-5.517 -17.188,-6.559 -25.6,-3.517Z" style="fill:#4d2627;fill-rule:nonzero;"/><path d="M1972.69,20.621c14.608,-0.088 29.25,0.129 43.875,-0.133c0.329,34.866 0.042,69.75 0.142,104.616c9.312,-8.341 19.633,-16.466 32.116,-19.246c12.888,-2.791 27.38,-1.925 38.5,5.792c11.309,7.746 17.896,20.692 20.938,33.767c3.475,14.191 2.621,28.871 2.721,43.35c-0.029,24.875 0.046,49.766 -0.029,74.654c-14.55,-0.042 -29.105,-0 -43.642,-0.025c0.017,-25.313 -0,-50.638 0.017,-75.946c0.895,-14.712 -1.709,-32.146 -15.017,-40.833c-9.279,-5.588 -22.788,-2.4 -28.233,7.096c-6.025,10.079 -6.775,22.241 -7.284,33.708c-0.204,25.325 -0.012,50.65 -0.1,75.987c-14.612,0.1 -29.221,-0.245 -43.8,0.175c-0.479,-80.97 -0.075,-161.979 -0.204,-242.962Z" style="fill:#4d2627;fill-rule:nonzero;"/><path d="M1383.31,24.588c15.712,-0.03 31.433,0.041 47.158,-0.03c0.104,42.684 0.017,85.384 0.046,128.084c0.304,12.566 -1.321,25.6 3.083,37.675c4.025,11.758 13.755,22.008 26.221,24.5c13.438,2.604 28.988,-0.188 38.5,-10.688c8.804,-9.483 11.525,-22.921 11.554,-35.487c0.03,-48.029 0,-96.042 0.017,-144.054c15.696,-0 31.392,-0.017 47.088,-0l-0,131.008c-0.321,14.029 1.083,28.279 -1.984,42.104c-4.346,19.779 -13.296,39.704 -30.016,52.013c-23.038,17.462 -54.184,20.312 -81.68,13.854c-14.683,-3.488 -28.566,-11.292 -38.008,-23.225c-12.971,-16.142 -21.792,-36.225 -21.95,-57.179c-0.071,-52.846 -0.012,-105.713 -0.029,-158.575Z" style="fill:#4d2627;fill-rule:nonzero;"/><path d="M2177.21,112.621c13.362,-8.904 31.187,-11.483 46.217,-5.429c10.67,4.604 18.941,13.175 26.483,21.762c-0,-7.212 -0,-14.421 0.017,-21.633c14.433,-0 28.87,0.017 43.32,-0c0.03,52.025 0.03,104.062 0,156.087c-14.45,-0.029 -28.887,0 -43.32,-0.012c-0.046,-9.067 0.029,-18.129 -0.046,-27.196c-7.442,10.138 -15.146,21.129 -27.034,26.367c-13.9,5.737 -30.479,4.954 -43.637,-2.388c-17.579,-10.208 -29.092,-28.8 -34.188,-48.129c-5.808,-23.775 -4.27,-50.112 7.63,-71.833c6.008,-10.829 14.175,-20.688 24.558,-27.596m32.925,39.037c-10.221,3.288 -17.2,12.859 -20.154,22.834c-2.475,8.875 -2.709,18.475 -0.363,27.408c2.55,9.483 9.671,18.054 19.3,20.808c8.659,2.546 18.638,1.171 25.7,-4.679c17.463,-13.796 19.434,-43.046 3.521,-58.754c-6.967,-7.546 -18.187,-10.787 -28.004,-7.617Z" style="fill:#4d2627;fill-rule:nonzero;"/><path d="M2321.73,106.958c15.233,0 30.466,0.017 45.695,-0.012c13.321,30.55 26.63,61.117 39.909,91.683c13.175,-30.496 26.612,-60.887 39.525,-91.496c15.204,-0.404 30.421,-0.058 45.654,-0.175c-22.442,52.142 -45.104,104.18 -67.4,156.363c-11.875,0.175 -23.733,0.046 -35.575,0.075c-22.575,-52.158 -45.221,-104.283 -67.808,-156.438Z" style="fill:#4d2627;fill-rule:nonzero;"/></g><g><path d="M69.646,27.721c34.526,-20.515 81.59,-17.864 113.262,6.981c5.158,4.056 9.825,8.699 14.07,13.674c-6.489,5.928 -13.028,11.806 -19.532,17.72c-13.232,-17.144 -35.003,-25.947 -56.273,-26.489c-14.781,-0.456 -29.706,3.829 -41.811,12.368c-15.764,11.122 -28.226,27.641 -32.352,46.681c-2.82,13.197 -2.423,27.184 1.644,40.093c6.261,19.756 23.042,36.279 43.523,40.619c14.637,2.998 30.351,1.658 43.99,-4.593c12.283,-5.64 22.074,-15.655 29.055,-27.089c-15.088,-0.05 -30.172,-0 -45.261,-0.025c0,-8.038 -0.015,-16.077 0,-24.1c26.727,-0.01 53.444,-0.01 80.175,-0c-3.336,20.406 -11.553,40.475 -25.937,55.603c-12.621,13.619 -29.696,22.998 -47.987,26.166c-21.101,3.684 -43.886,1.608 -62.698,-9.191c-20.138,-11.528 -35.028,-31.671 -40.465,-54.198c-5.66,-23.469 -3.907,-49.128 7.055,-70.831c8.987,-17.61 22.601,-33.071 39.542,-43.389Z" style="fill:#4d2627;fill-rule:nonzero;"/><path d="M681.042,36.465c8.048,-0.07 16.101,-0 24.14,-0.035c-2.473,16.926 -5.005,33.866 -7.487,50.792c6.946,0.015 13.902,-0 20.863,0.015c-1.033,7.472 -2.091,14.944 -3.143,22.417c-7.006,0.025 -14.012,-0.06 -21.007,0.049c-4.499,30.411 -9.071,60.802 -13.639,91.198c-8.113,-0.01 -16.236,-0 -24.344,-0.01c4.633,-30.411 9.26,-60.822 13.902,-91.222c-6.007,-0.025 -12.02,-0.015 -18.018,-0.015c1.083,-7.482 2.15,-14.96 3.253,-22.432c5.903,0.015 11.806,0.015 17.72,-0c2.576,-16.926 5.218,-33.832 7.76,-50.757Z" style="fill:#4d2627;fill-rule:nonzero;"/><path d="M1055.84,36.44c8.038,-0.01 16.076,-0 24.125,-0c-2.493,16.93 -5,33.856 -7.498,50.782c6.961,0.025 13.917,-0.01 20.873,0.015c-1.077,7.472 -2.095,14.944 -3.167,22.417c-6.991,-0 -13.972,-0.01 -20.958,0.015c-4.558,30.41 -9.091,60.821 -13.663,91.232c-8.123,-0.01 -16.241,-0 -24.354,-0c4.623,-30.421 9.275,-60.822 13.882,-91.232c-5.997,-0.025 -11.995,-0.015 -17.983,-0.015c1.043,-7.473 2.145,-14.945 3.227,-22.417c5.904,-0.015 11.802,-0 17.72,-0c2.602,-16.931 5.204,-33.867 7.796,-50.797Z" style="fill:#4d2627;fill-rule:nonzero;"/><path d="M364.369,54.483c43.235,0.024 86.46,-0 129.681,0.015c0.025,3.728 -0,7.462 -0.025,11.191c-43.22,-0.05 -86.446,-0 -129.656,-0.025c-0.015,-3.729 -0,-7.448 -0,-11.181Z" style="fill:#4d2627;fill-rule:nonzero;"/><path d="M382.471,94.779c14.19,-10.233 33.459,-13.207 50.013,-7.507c11.95,4.195 20.972,13.976 27.099,24.76c1.335,-8.252 2.318,-16.568 3.674,-24.835c7.988,0.05 15.967,0.05 23.966,0c-5.323,37.933 -11.032,75.796 -16.529,113.704c-8.132,-0.01 -16.27,-0 -24.403,-0.01c0.551,-4.057 1.108,-8.108 1.703,-12.155c-10.615,10.104 -25.133,16.772 -39.993,15.238c-17.914,-0.998 -33.722,-12.596 -43.046,-27.471c-8.818,-13.848 -10.75,-31.374 -6.812,-47.148c3.515,-14.011 12.665,-26.225 24.328,-34.576m28.539,10.774c-9.667,2.457 -17.695,9.428 -22.839,17.804c-5.918,9.707 -7.15,21.821 -4.632,32.799c2.82,12.189 12.333,22.755 24.422,26.26c11.301,3.252 24.413,1.653 33.688,-5.913c12.571,-9.841 17.442,-27.104 14.706,-42.446c-1.976,-10.124 -8.768,-18.857 -17.357,-24.329c-8.207,-5.243 -18.604,-6.524 -27.988,-4.175Z" style="fill:#4d2627;fill-rule:nonzero;"/><path d="M546.669,107.33c10.436,-10.282 22.218,-21.558 37.62,-22.71c20.396,-2.77 38.94,18.197 35.569,38.077c-3.897,26.066 -7.929,52.123 -11.886,78.194c-7.944,0.01 -15.898,0.01 -23.837,-0c3.56,-23.887 7.09,-47.783 10.665,-71.67c0.839,-5.899 0.491,-12.403 -3.059,-17.417c-3.396,-5.149 -9.696,-7.751 -15.739,-7.368c-8.435,0.208 -15.838,5.362 -21.007,11.712c-9.622,11.554 -13.822,26.523 -15.754,41.17c-2.145,14.528 -4.329,29.045 -6.464,43.573c-8.048,0.01 -16.102,0.01 -24.14,-0c5.531,-37.883 11.077,-75.771 16.608,-113.654c8.033,-0.015 16.087,-0 24.125,-0.015c-0.889,6.708 -1.802,13.4 -2.701,20.108Z" style="fill:#4d2627;fill-rule:nonzero;"/><path d="M757.712,94.446c14.026,-9.875 32.823,-12.765 49.113,-7.333c12.18,4.131 21.37,14.051 27.571,25.003c1.187,-8.301 2.354,-16.603 3.575,-24.894c8.038,0.015 16.077,-0 24.115,0.015c-5.546,37.883 -11.077,75.771 -16.618,113.654c-8.133,0.01 -16.265,-0 -24.403,0.01c0.556,-4.067 1.092,-8.118 1.693,-12.174c-10.411,9.935 -24.616,16.578 -39.238,15.297c-18.321,-0.745 -34.587,-12.596 -43.995,-27.844c-8.615,-13.728 -10.496,-31.011 -6.668,-46.597c3.515,-14.299 12.909,-26.716 24.855,-35.137m30.783,10.521c-10.869,1.772 -20.059,9.309 -25.65,18.559c-5.838,9.692 -7.04,21.747 -4.518,32.675c2.875,12.417 12.726,23.132 25.133,26.419c10.159,2.676 21.653,1.593 30.505,-4.33c14.731,-9.697 20.61,-29.224 16.772,-45.971c-4.558,-17.958 -23.768,-31.155 -42.242,-27.352Z" style="fill:#4d2627;fill-rule:nonzero;"/><path d="M921.458,107.305c10.59,-10.451 22.645,-21.905 38.364,-22.759c14.766,-1.763 28.311,9.309 33.315,22.605c2.408,6.44 2.061,13.505 0.84,20.163c-3.769,24.523 -7.488,49.055 -11.231,73.577c-7.939,0.01 -15.883,0.01 -23.827,-0c3.555,-24.135 7.189,-48.25 10.739,-72.39c0.948,-6.643 -0.109,-14.12 -5.064,-19.026c-4.871,-5.074 -12.666,-6.008 -19.205,-4.22c-7.512,2.026 -13.425,7.651 -17.889,13.808c-7.303,10.138 -11.057,22.387 -12.929,34.621c-2.363,15.739 -4.682,31.478 -7.045,47.217c-8.039,-0.01 -16.072,-0.01 -24.11,-0c5.531,-37.893 11.047,-75.791 16.628,-113.679c8.058,0.109 16.121,-0.179 24.184,0.144c-1.092,6.623 -1.862,13.291 -2.77,19.939Z" style="fill:#4d2627;fill-rule:nonzero;"/><path d="M1160.54,88.101c10.794,-5.844 23.871,-3.868 35.018,-0.04c-3.659,7.86 -7.368,15.704 -11.037,23.549c-9.022,-3.704 -19.448,-5.65 -28.768,-1.857c-6.985,2.617 -11.866,8.887 -14.552,15.645c-3.888,9.379 -5.243,19.517 -6.718,29.487c-2.293,15.342 -4.597,30.674 -6.886,46.016c-8.133,-0.01 -16.27,-0.01 -24.403,-0c5.6,-37.893 11.231,-75.781 16.846,-113.664c8.192,-0.025 16.395,0.044 24.602,-0.05c-0.924,7.979 -2.314,15.893 -3.357,23.847c5.447,-8.311 10.75,-17.368 19.255,-22.933Z" style="fill:#4d2627;fill-rule:nonzero;"/><path d="M1237.46,94.312c12.606,-8.853 28.995,-11.886 44.014,-8.599c14.359,2.924 25.347,13.951 32.496,26.225c1.177,-8.242 2.344,-16.484 3.555,-24.716c8.034,0.025 16.072,-0.01 24.11,0.025c-5.565,37.883 -11.062,75.771 -16.627,113.654c-8.133,-0.01 -16.266,-0 -24.389,-0c0.542,-4.067 1.083,-8.118 1.694,-12.165c-10.377,9.841 -24.438,16.509 -38.981,15.308c-16.528,-0.596 -31.572,-10.268 -41.194,-23.366c-10.089,-13.078 -13.485,-30.485 -10.69,-46.606c2.607,-16.161 12.681,-30.51 26.012,-39.76m27.724,11.275c-10.198,2.677 -18.574,10.283 -23.613,19.379c-5.06,9.294 -6.043,20.476 -3.823,30.733c2.72,12.443 12.392,23.276 24.735,26.777c11.167,3.133 24.076,1.583 33.291,-5.819c12.521,-9.657 17.516,-26.682 15.019,-41.93c-1.788,-10.421 -8.734,-19.458 -17.552,-25.048c-8.241,-5.229 -18.678,-6.49 -28.057,-4.092Z" style="fill:#4d2627;fill-rule:nonzero;"/><path d="M225.592,87.222c8.227,0.015 16.459,-0 24.676,0.015c7.954,23.509 15.957,47.013 23.872,70.548c0.878,-0.695 1.583,-1.52 2.125,-2.508c12.978,-22.705 26.106,-45.335 39.109,-68.02c8.972,-0.06 17.958,-0.02 26.945,-0.02c-32.128,56.204 -64.302,112.383 -96.455,168.577c-9.26,0.035 -18.535,0.02 -27.794,0.01c13.4,-23.167 26.885,-46.274 40.286,-69.436c-10.933,-33.052 -21.886,-66.089 -32.764,-99.166Z" style="fill:#4d2627;fill-rule:nonzero;"/><path d="M343.54,225.857c5.973,0.169 11.996,-0.397 17.934,0.357c5.447,0.82 9.036,6.013 9.662,11.221c1.053,6.693 0.238,15.412 -6.589,18.808c-6.658,2.616 -14.036,1.057 -21.016,1.464c0.009,-10.615 -0.015,-21.235 0.009,-31.85m9.419,7.115c-0.059,5.853 -0.05,11.707 -0.025,17.571c2.736,-0.308 6.658,0.541 8.113,-2.517c1.46,-3.709 1.331,-8.083 0.154,-11.852c-1.271,-3.336 -5.337,-3.058 -8.242,-3.202Z" style="fill:#4d2627;fill-rule:nonzero;"/><path d="M433.382,225.857c3.123,-0 6.241,-0.015 9.359,-0.015c0.05,10.62 0.01,21.25 0.025,31.875c-3.133,0 -6.261,-0.01 -9.384,-0.01c0,-10.615 -0.01,-21.235 0,-31.85Z" style="fill:#4d2627;fill-rule:nonzero;"/><path d="M514.59,226.214c4.464,-1.221 9.309,-1.196 13.798,-0.084c3.813,1.057 5.948,4.657 7.209,8.147c-2.989,0.601 -5.988,1.162 -8.977,1.679c-1.797,-4.702 -8.996,-4.846 -11.106,-0.383c-1.679,4.186 -1.847,9.548 0.66,13.46c2.914,3.55 8.063,2.269 11.494,0.229c-0,-0.78 -0.025,-2.314 -0.04,-3.083c-2.085,-0 -4.185,-0.01 -6.271,-0.01c0,-2.22 0.01,-4.429 0.01,-6.639c4.777,-0.034 9.548,0.11 14.334,-0.119c0.328,4.598 0.1,9.215 0.144,13.823c-6.355,4.831 -15.103,6.549 -22.625,3.644c-11.683,-5.551 -11.142,-26.369 1.37,-30.664Z" style="fill:#4d2627;fill-rule:nonzero;"/><path d="M598.384,225.882c3.133,-0.025 6.266,-0.04 9.409,-0.025c0.035,10.605 -0.04,21.195 0.035,31.801c-3.143,0.039 -6.286,0.084 -9.429,0.059c-0.015,-10.615 0.01,-21.23 -0.015,-31.835Z" style="fill:#4d2627;fill-rule:nonzero;"/><path d="M683.142,225.857c9.548,0.119 19.11,-0.253 28.658,0.193c-0.144,2.543 -0.179,5.109 -0.144,7.666c-3.202,0 -6.38,0.035 -9.557,0.02l-0,23.961c-3.143,0.02 -6.276,0.01 -9.409,-0.014c0.025,-7.979 0.015,-15.968 0.015,-23.947c-3.203,0.015 -6.395,-0.02 -9.573,-0.02c0,-2.631 0,-5.243 0.01,-7.859Z" style="fill:#4d2627;fill-rule:nonzero;"/><path d="M780.829,225.882c3.411,-0.04 6.827,-0.04 10.257,-0.015c3.779,10.62 7.597,21.21 11.4,31.83c-3.336,0.045 -6.673,0.08 -9.994,-0.144c-0.432,-1.717 -0.874,-3.42 -1.306,-5.123c-3.555,0.024 -7.115,0.009 -10.665,0.009c-0.516,1.753 -1.048,3.516 -1.549,5.293c-3.193,-0.015 -6.37,-0.035 -9.538,-0.025c3.793,-10.615 7.606,-21.22 11.395,-31.825m4.811,8.862c-1.053,3.59 -2.026,7.209 -3.118,10.789c2.194,0.01 4.379,0.045 6.588,0.144c-1.127,-3.649 -1.584,-7.572 -3.47,-10.933Z" style="fill:#4d2627;fill-rule:nonzero;"/><path d="M862.086,225.857c3.118,-0.015 6.246,-0 9.379,0.01c-0.01,8.003 -0.01,15.992 0.015,23.996c4.871,-0.015 9.751,-0 14.632,-0c-0.01,2.616 -0.01,5.228 -0.01,7.854c-8.029,-0.059 -16.062,0.109 -24.09,-0.104c0.158,-10.58 0.024,-21.166 0.074,-31.756Z" style="fill:#4d2627;fill-rule:nonzero;"/><path d="M1017.37,228.017c6.479,0.312 13.137,-0.745 19.507,0.754c6.921,2.22 8.902,10.437 8.401,16.891c0.104,5.819 -3.168,12.284 -9.24,13.58c-6.142,1.211 -12.462,0.372 -18.668,0.625c-0.01,-10.615 -0.01,-21.235 -0,-31.85m9.384,7.134c-0.015,5.844 -0,11.688 -0,17.542c2.805,-0.263 6.861,0.541 8.227,-2.711c1.295,-3.828 1.295,-8.277 -0.144,-12.07c-1.485,-2.999 -5.303,-2.592 -8.083,-2.761Z" style="fill:#4d2627;fill-rule:nonzero;"/><path d="M1129.43,228.374c5.774,-1.678 12.839,-1.246 17.407,3.049c4.379,4.235 4.931,10.868 4.116,16.578c-0.586,4.885 -3.728,9.503 -8.396,11.28c-4.185,1.534 -8.892,1.425 -13.137,0.263c-13.038,-4.294 -13.028,-26.85 0.01,-31.17m3.59,7.031c-4.717,2.447 -4.166,8.927 -3.242,13.331c1.022,4.974 8.738,5.913 10.967,1.425c1.475,-3.431 1.405,-7.448 0.551,-11.038c-0.913,-3.465 -5.099,-5.143 -8.276,-3.718Z" style="fill:#4d2627;fill-rule:nonzero;"/><path d="M1217.94,228.702c4.573,-1.693 9.9,-1.708 14.493,0.01c3.431,1.281 4.826,4.895 5.546,8.207c-2.895,0.189 -5.784,0.417 -8.664,0.645c-0.432,-4.15 -7.378,-6.201 -8.396,-1.484c2.89,3.619 8.565,2.552 12.353,4.965c6.241,2.338 7.259,11.156 2.761,15.63c-4.414,4.488 -11.529,4.225 -17.214,2.954c-4.727,-1.068 -7.09,-5.879 -7.666,-10.283c2.924,-0.218 5.879,-0.407 8.828,-0.576c0.491,3.565 3.753,6.514 7.472,5.109c2.378,-0.705 3.158,-4.27 0.804,-5.506c-4.567,-2.269 -10.461,-2.145 -13.996,-6.261c-3.709,-4.245 -1.524,-11.519 3.679,-13.41Z" style="fill:#4d2627;fill-rule:nonzero;"/><path d="M1298,228.017c9.503,-0 19.016,-0 28.529,0.01c-0.025,2.606 -0.025,5.233 -0,7.844c-3.203,0 -6.38,0.015 -9.563,0.015c-0.02,7.989 -0.01,15.978 -0.01,23.981c-3.133,-0.015 -6.275,-0.015 -9.393,0c-0.01,-8.003 -0,-15.992 -0,-23.981c-3.203,0 -6.381,-0.025 -9.563,-0.015c-0.01,-2.611 -0.01,-5.238 -0,-7.854Z" style="fill:#4d2627;fill-rule:nonzero;"/></g></g></g></svg>