<svg width="100%" height="100%" viewBox="0 0 269 121" version="1.1" xmlns="http://www.w3.org/2000/svg" xmlns:xlink="http://www.w3.org/1999/xlink" xml:space="preserve" xmlns:serif="http://www.serif.com/" style="fill-rule:evenodd;clip-rule:evenodd;stroke-linejoin:round;stroke-miterlimit:2;"><rect id="Artboard1" x="-0" y="0" width="268.965" height="120.327" style="fill:none;"/><g><g><path d="M77.197,85.458c0.003,-8.58 -0.01,-17.159 0.007,-25.739c3.482,-0.004 6.964,0.024 10.449,-0.014c0.056,19.429 0.011,38.861 0.025,58.29c-3.413,-0.007 -6.825,0.003 -10.234,-0.003c-0.007,-2.183 0.028,-4.365 -0.021,-6.544c-1.359,1.887 -2.804,3.777 -4.764,5.084c-3.614,2.561 -8.726,2.77 -12.524,0.497c-4.452,-2.735 -7.211,-7.669 -8.181,-12.708c-0.98,-5.473 -0.493,-11.377 2.2,-16.315c1.567,-2.808 3.725,-5.404 6.582,-6.964c2.898,-1.595 6.429,-1.773 9.577,-0.883c2.86,0.848 5.011,3.082 6.884,5.299m-9.059,5.449c-2.784,0.904 -4.799,3.541 -5.359,6.363c-0.486,2.436 -0.41,5.098 0.775,7.332c0.907,1.668 2.349,3.183 4.247,3.653c2.057,0.476 4.322,-0.053 5.942,-1.415c3.968,-3.294 4.483,-9.991 0.942,-13.778c-1.578,-1.832 -4.184,-2.791 -6.547,-2.155Z" style="fill:#4d2627;fill-rule:nonzero;"/><path d="M98.172,59.635c3.461,-0.003 6.926,0.007 10.391,-0.007c0.017,8.639 0.007,17.278 0.007,25.917c1.737,-2.151 3.867,-4.09 6.491,-5.08c3.805,-1.467 8.302,-0.713 11.53,1.741c3.823,2.898 6.415,7.29 7.395,11.964c1.213,5.824 0.469,12.232 -2.877,17.254c-1.644,2.477 -3.757,4.754 -6.457,6.085c-3.18,1.577 -7.176,1.643 -10.262,-0.199c-2.307,-1.372 -4.17,-3.353 -5.9,-5.372l-0,6.054c-3.441,-0 -6.881,0.003 -10.318,-0l0,-58.357m15.499,31.658c-2.408,0.879 -4.073,3.18 -4.58,5.64c-0.702,3.277 -0.191,7.082 2.3,9.514c2.405,2.555 6.961,2.864 9.452,0.268c3.847,-3.93 3.406,-11.252 -1.028,-14.578c-1.727,-1.324 -4.125,-1.574 -6.144,-0.844Z" style="fill:#4d2627;fill-rule:nonzero;"/><path d="M143.139,59.726c3.506,-0.021 7.02,0.031 10.53,-0.032c0.079,8.368 0.01,16.74 0.034,25.108c2.235,-2.002 4.712,-3.952 7.708,-4.619c3.093,-0.67 6.571,-0.462 9.24,1.39c2.714,1.859 4.295,4.966 5.025,8.104c0.834,3.406 0.629,6.929 0.653,10.404c-0.007,5.97 0.011,11.944 -0.007,17.917c-3.492,-0.01 -6.985,0 -10.474,-0.006c0.004,-6.075 0,-12.153 0.004,-18.227c0.215,-3.531 -0.41,-7.715 -3.604,-9.8c-2.227,-1.341 -5.469,-0.576 -6.776,1.703c-1.446,2.419 -1.626,5.338 -1.748,8.09c-0.049,6.078 -0.003,12.156 -0.024,18.237c-3.507,0.024 -7.013,-0.059 -10.512,0.042c-0.115,-19.433 -0.018,-38.875 -0.049,-58.311Z" style="fill:#4d2627;fill-rule:nonzero;"/><path d="M1.688,60.678c3.771,-0.007 7.544,0.01 11.318,-0.007c0.025,10.244 0.004,20.492 0.011,30.74c0.073,3.016 -0.317,6.144 0.74,9.042c0.966,2.822 3.301,5.282 6.293,5.88c3.225,0.625 6.957,-0.045 9.24,-2.565c2.113,-2.276 2.766,-5.501 2.773,-8.517c0.007,-11.527 0,-23.05 0.004,-34.573c3.767,-0 7.534,-0.004 11.301,-0l-0,31.442c-0.077,3.367 0.26,6.787 -0.476,10.105c-1.043,4.747 -3.191,9.529 -7.204,12.483c-5.529,4.191 -13.004,4.875 -19.603,3.325c-3.524,-0.837 -6.856,-2.71 -9.122,-5.574c-3.113,-3.874 -5.23,-8.694 -5.268,-13.723c-0.017,-12.683 -0.003,-25.371 -0.007,-38.058Z" style="fill:#4d2627;fill-rule:nonzero;"/><path d="M192.224,81.806c3.207,-2.137 7.485,-2.756 11.092,-1.303c2.561,1.105 4.546,3.162 6.356,5.223c0,-1.731 0,-3.461 0.004,-5.192c3.464,0 6.929,0.004 10.397,0c0.007,12.486 0.007,24.975 -0,37.461c-3.468,-0.007 -6.933,0 -10.397,-0.003c-0.011,-2.176 0.007,-4.351 -0.011,-6.527c-1.786,2.433 -3.635,5.071 -6.488,6.328c-3.336,1.377 -7.315,1.189 -10.473,-0.573c-4.219,-2.45 -6.982,-6.912 -8.205,-11.551c-1.394,-5.706 -1.025,-12.027 1.831,-17.24c1.442,-2.599 3.402,-4.965 5.894,-6.623m7.902,9.369c-2.453,0.789 -4.128,3.086 -4.837,5.48c-0.594,2.13 -0.65,4.434 -0.087,6.578c0.612,2.276 2.321,4.333 4.632,4.994c2.078,0.611 4.473,0.281 6.168,-1.123c4.191,-3.311 4.664,-10.331 0.845,-14.101c-1.672,-1.811 -4.365,-2.589 -6.721,-1.828Z" style="fill:#4d2627;fill-rule:nonzero;"/><path d="M226.908,80.447c3.656,0 7.312,0.004 10.967,-0.003c3.197,7.332 6.391,14.668 9.578,22.004c3.162,-7.319 6.387,-14.613 9.486,-21.959c3.649,-0.097 7.301,-0.014 10.957,-0.042c-5.386,12.514 -10.825,25.003 -16.176,37.527c-2.85,0.042 -5.696,0.011 -8.538,0.018c-5.418,-12.518 -10.853,-25.028 -16.274,-37.545Z" style="fill:#4d2627;fill-rule:nonzero;"/></g><g><path d="M11.705,5.18c6.954,-4.132 16.433,-3.598 22.812,1.406c1.039,0.817 1.979,1.752 2.834,2.754c-1.307,1.194 -2.624,2.378 -3.934,3.569c-2.665,-3.453 -7.05,-5.226 -11.334,-5.335c-2.977,-0.092 -5.983,0.771 -8.421,2.491c-3.175,2.24 -5.685,5.567 -6.516,9.402c-0.568,2.658 -0.488,5.475 0.331,8.075c1.261,3.979 4.641,7.307 8.766,8.181c2.948,0.604 6.113,0.334 8.86,-0.925c2.474,-1.136 4.446,-3.153 5.852,-5.456c-3.039,-0.01 -6.077,-0 -9.116,-0.005c-0,-1.619 -0.003,-3.238 -0,-4.854c5.383,-0.002 10.764,-0.002 16.148,-0c-0.672,4.11 -2.327,8.152 -5.224,11.199c-2.542,2.743 -5.981,4.632 -9.665,5.27c-4.25,0.742 -8.839,0.324 -12.628,-1.851c-4.056,-2.322 -7.055,-6.379 -8.15,-10.916c-1.14,-4.727 -0.787,-9.895 1.421,-14.266c1.81,-3.547 4.552,-6.661 7.964,-8.739Z" style="fill:#4d2627;fill-rule:nonzero;"/><path d="M134.846,6.941c1.621,-0.014 3.243,0 4.862,-0.007c-0.498,3.409 -1.008,6.821 -1.508,10.23c1.399,0.003 2.8,0 4.202,0.003c-0.208,1.505 -0.421,3.01 -0.633,4.515c-1.411,0.005 -2.822,-0.012 -4.231,0.01c-0.906,6.125 -1.827,12.246 -2.747,18.368c-1.634,-0.002 -3.27,0 -4.903,-0.002c0.933,-6.125 1.865,-12.25 2.8,-18.373c-1.21,-0.005 -2.421,-0.003 -3.629,-0.003c0.218,-1.507 0.433,-3.013 0.655,-4.518c1.189,0.003 2.378,0.003 3.569,0c0.519,-3.409 1.051,-6.814 1.563,-10.223Z" style="fill:#4d2627;fill-rule:nonzero;"/><path d="M210.334,6.936c1.619,-0.002 3.238,0 4.859,0c-0.502,3.41 -1.007,6.819 -1.51,10.228c1.402,0.005 2.803,-0.002 4.204,0.003c-0.217,1.505 -0.422,3.01 -0.638,4.515c-1.408,0 -2.814,-0.002 -4.221,0.003c-0.918,6.125 -1.831,12.25 -2.752,18.375c-1.636,-0.002 -3.271,0 -4.905,0c0.931,-6.127 1.868,-12.25 2.796,-18.375c-1.208,-0.005 -2.416,-0.003 -3.622,-0.003c0.21,-1.505 0.432,-3.01 0.65,-4.515c1.189,-0.003 2.377,-0 3.569,-0c0.524,-3.41 1.048,-6.821 1.57,-10.231Z" style="fill:#4d2627;fill-rule:nonzero;"/><path d="M71.065,10.57c8.708,0.005 17.414,0 26.119,0.003c0.005,0.751 0,1.503 -0.005,2.254c-8.705,-0.01 -17.411,-0 -26.114,-0.005c-0.003,-0.751 -0,-1.5 -0,-2.252Z" style="fill:#4d2627;fill-rule:nonzero;"/><path d="M74.711,18.686c2.858,-2.061 6.739,-2.66 10.073,-1.512c2.407,0.845 4.224,2.815 5.458,4.987c0.269,-1.662 0.467,-3.337 0.74,-5.002c1.609,0.01 3.216,0.01 4.827,0c-1.072,7.64 -2.222,15.266 -3.329,22.901c-1.638,-0.002 -3.277,0 -4.915,-0.002c0.111,-0.817 0.223,-1.633 0.343,-2.448c-2.138,2.035 -5.062,3.378 -8.055,3.069c-3.608,-0.201 -6.792,-2.537 -8.67,-5.533c-1.776,-2.789 -2.165,-6.319 -1.372,-9.496c0.708,-2.822 2.551,-5.282 4.9,-6.964m5.748,2.17c-1.947,0.495 -3.564,1.899 -4.6,3.586c-1.192,1.955 -1.44,4.395 -0.933,6.606c0.568,2.455 2.484,4.583 4.919,5.289c2.276,0.655 4.917,0.333 6.785,-1.191c2.532,-1.982 3.513,-5.459 2.962,-8.549c-0.398,-2.039 -1.766,-3.798 -3.496,-4.9c-1.653,-1.056 -3.747,-1.314 -5.637,-0.841Z" style="fill:#4d2627;fill-rule:nonzero;"/><path d="M107.782,21.214c2.102,-2.071 4.475,-4.342 7.577,-4.574c4.108,-0.558 7.843,3.665 7.164,7.669c-0.785,5.25 -1.597,10.498 -2.394,15.749c-1.6,0.002 -3.202,0.002 -4.801,-0c0.717,-4.811 1.428,-9.624 2.148,-14.435c0.169,-1.188 0.099,-2.498 -0.616,-3.508c-0.684,-1.037 -1.953,-1.561 -3.17,-1.484c-1.699,0.042 -3.19,1.08 -4.231,2.359c-1.938,2.327 -2.784,5.342 -3.173,8.292c-0.432,2.926 -0.872,5.85 -1.302,8.776c-1.621,0.002 -3.243,0.002 -4.862,-0c1.114,-7.63 2.231,-15.261 3.345,-22.891c1.618,-0.003 3.24,-0 4.859,-0.003c-0.179,1.351 -0.363,2.699 -0.544,4.05Z" style="fill:#4d2627;fill-rule:nonzero;"/><path d="M150.288,18.619c2.825,-1.989 6.611,-2.571 9.892,-1.477c2.453,0.832 4.304,2.83 5.553,5.036c0.239,-1.672 0.474,-3.344 0.72,-5.014c1.619,0.003 3.238,0 4.857,0.003c-1.117,7.63 -2.231,15.261 -3.347,22.891c-1.638,0.002 -3.276,-0 -4.915,0.002c0.112,-0.819 0.22,-1.635 0.341,-2.452c-2.097,2.001 -4.958,3.339 -7.903,3.081c-3.69,-0.15 -6.966,-2.537 -8.861,-5.608c-1.735,-2.765 -2.114,-6.246 -1.343,-9.385c0.708,-2.88 2.6,-5.381 5.006,-7.077m6.2,2.119c-2.189,0.357 -4.04,1.875 -5.166,3.738c-1.176,1.952 -1.418,4.38 -0.91,6.581c0.579,2.501 2.563,4.659 5.062,5.321c2.046,0.539 4.361,0.321 6.144,-0.872c2.967,-1.953 4.151,-5.886 3.378,-9.259c-0.918,-3.617 -4.787,-6.275 -8.508,-5.509Z" style="fill:#4d2627;fill-rule:nonzero;"/><path d="M183.268,21.209c2.133,-2.105 4.561,-4.412 7.727,-4.584c2.974,-0.355 5.702,1.875 6.71,4.553c0.485,1.297 0.415,2.72 0.169,4.061c-0.759,4.939 -1.508,9.88 -2.262,14.819c-1.599,0.002 -3.199,0.002 -4.799,-0c0.716,-4.861 1.448,-9.718 2.163,-14.58c0.191,-1.338 -0.022,-2.844 -1.02,-3.832c-0.981,-1.022 -2.551,-1.21 -3.868,-0.85c-1.513,0.408 -2.704,1.541 -3.603,2.781c-1.471,2.042 -2.227,4.509 -2.604,6.973c-0.476,3.17 -0.943,6.34 -1.419,9.51c-1.619,-0.002 -3.237,-0.002 -4.856,0c1.114,-7.632 2.225,-15.265 3.349,-22.896c1.623,0.022 3.247,-0.036 4.871,0.029c-0.22,1.334 -0.375,2.677 -0.558,4.016Z" style="fill:#4d2627;fill-rule:nonzero;"/><path d="M231.421,17.341c2.174,-1.177 4.808,-0.779 7.053,-0.008c-0.737,1.583 -1.484,3.163 -2.223,4.743c-1.817,-0.746 -3.917,-1.138 -5.794,-0.374c-1.407,0.527 -2.39,1.79 -2.931,3.151c-0.783,1.889 -1.056,3.931 -1.353,5.939c-0.462,3.09 -0.926,6.178 -1.387,9.268c-1.638,-0.002 -3.277,-0.002 -4.915,0c1.128,-7.632 2.262,-15.263 3.393,-22.893c1.65,-0.005 3.302,0.009 4.955,-0.01c-0.186,1.607 -0.466,3.201 -0.676,4.803c1.097,-1.674 2.165,-3.498 3.878,-4.619Z" style="fill:#4d2627;fill-rule:nonzero;"/><path d="M246.914,18.592c2.539,-1.783 5.84,-2.394 8.865,-1.732c2.892,0.589 5.105,2.81 6.545,5.282c0.237,-1.66 0.472,-3.32 0.716,-4.978c1.618,0.005 3.237,-0.002 4.856,0.005c-1.121,7.63 -2.228,15.261 -3.349,22.891c-1.638,-0.002 -3.276,0 -4.912,0c0.109,-0.819 0.218,-1.635 0.341,-2.45c-2.09,1.982 -4.922,3.325 -7.851,3.083c-3.329,-0.12 -6.359,-2.068 -8.297,-4.706c-2.032,-2.634 -2.716,-6.14 -2.153,-9.387c0.525,-3.255 2.554,-6.145 5.239,-8.008m5.584,2.271c-2.054,0.539 -3.741,2.071 -4.756,3.903c-1.019,1.872 -1.217,4.124 -0.77,6.19c0.548,2.506 2.496,4.688 4.982,5.393c2.249,0.631 4.849,0.319 6.705,-1.172c2.522,-1.945 3.528,-5.374 3.025,-8.445c-0.36,-2.099 -1.759,-3.919 -3.535,-5.045c-1.66,-1.053 -3.762,-1.307 -5.651,-0.824Z" style="fill:#4d2627;fill-rule:nonzero;"/><path d="M43.114,17.164c1.657,0.003 3.315,0 4.97,0.003c1.602,4.735 3.214,9.469 4.808,14.209c0.177,-0.14 0.319,-0.306 0.428,-0.505c2.614,-4.573 5.258,-9.131 7.877,-13.7c1.807,-0.012 3.617,-0.004 5.427,-0.004c-6.471,11.32 -12.951,22.635 -19.427,33.953c-1.865,0.007 -3.733,0.004 -5.598,0.002c2.699,-4.666 5.415,-9.32 8.114,-13.985c-2.202,-6.657 -4.408,-13.311 -6.599,-19.973Z" style="fill:#4d2627;fill-rule:nonzero;"/><path d="M66.87,47.604c1.203,0.034 2.416,-0.08 3.612,0.072c1.097,0.165 1.82,1.211 1.946,2.26c0.212,1.348 0.048,3.104 -1.327,3.788c-1.341,0.527 -2.827,0.213 -4.233,0.295c0.002,-2.138 -0.003,-4.277 0.002,-6.415m1.897,1.433c-0.012,1.179 -0.01,2.358 -0.005,3.539c0.551,-0.062 1.341,0.109 1.634,-0.507c0.294,-0.747 0.268,-1.628 0.031,-2.387c-0.256,-0.672 -1.075,-0.616 -1.66,-0.645Z" style="fill:#4d2627;fill-rule:nonzero;"/><path d="M84.965,47.604c0.629,-0 1.257,-0.003 1.885,-0.003c0.01,2.139 0.002,4.28 0.005,6.42c-0.631,0 -1.261,-0.002 -1.89,-0.002c0,-2.138 -0.002,-4.277 0,-6.415Z" style="fill:#4d2627;fill-rule:nonzero;"/><path d="M101.321,47.676c0.899,-0.246 1.875,-0.241 2.779,-0.017c0.768,0.213 1.198,0.938 1.452,1.641c-0.602,0.121 -1.206,0.234 -1.808,0.338c-0.362,-0.947 -1.812,-0.976 -2.237,-0.077c-0.338,0.843 -0.372,1.923 0.133,2.711c0.587,0.715 1.624,0.457 2.315,0.046c-0,-0.157 -0.005,-0.466 -0.008,-0.621c-0.42,-0 -0.843,-0.002 -1.263,-0.002c-0,-0.447 0.002,-0.892 0.002,-1.337c0.962,-0.007 1.923,0.022 2.887,-0.024c0.066,0.926 0.02,1.856 0.029,2.784c-1.28,0.973 -3.042,1.319 -4.557,0.734c-2.353,-1.118 -2.244,-5.311 0.276,-6.176Z" style="fill:#4d2627;fill-rule:nonzero;"/><path d="M118.198,47.609c0.631,-0.005 1.262,-0.008 1.895,-0.005c0.007,2.136 -0.008,4.269 0.007,6.405c-0.633,0.008 -1.266,0.017 -1.899,0.012c-0.003,-2.138 0.002,-4.276 -0.003,-6.412Z" style="fill:#4d2627;fill-rule:nonzero;"/><path d="M135.269,47.604c1.923,0.024 3.849,-0.051 5.772,0.039c-0.029,0.512 -0.036,1.029 -0.029,1.544c-0.645,-0 -1.285,0.007 -1.925,0.004l-0,4.826c-0.633,0.004 -1.264,0.002 -1.895,-0.003c0.005,-1.607 0.003,-3.216 0.003,-4.823c-0.645,0.003 -1.288,-0.004 -1.928,-0.004c-0,-0.53 -0,-1.056 0.002,-1.583Z" style="fill:#4d2627;fill-rule:nonzero;"/><path d="M154.944,47.609c0.687,-0.008 1.375,-0.008 2.066,-0.003c0.761,2.139 1.53,4.272 2.296,6.411c-0.672,0.009 -1.344,0.016 -2.013,-0.029c-0.087,-0.346 -0.176,-0.689 -0.263,-1.032c-0.716,0.005 -1.433,0.002 -2.148,0.002c-0.104,0.353 -0.211,0.708 -0.312,1.066c-0.643,-0.003 -1.283,-0.007 -1.921,-0.005c0.764,-2.138 1.532,-4.274 2.295,-6.41m0.969,1.785c-0.212,0.723 -0.408,1.452 -0.628,2.173c0.442,0.002 0.882,0.009 1.327,0.029c-0.227,-0.735 -0.319,-1.525 -0.699,-2.202Z" style="fill:#4d2627;fill-rule:nonzero;"/><path d="M171.31,47.604c0.628,-0.003 1.258,-0 1.889,0.002c-0.002,1.612 -0.002,3.221 0.003,4.833c0.981,-0.003 1.964,-0 2.947,-0c-0.002,0.527 -0.002,1.053 -0.002,1.582c-1.617,-0.012 -3.235,0.022 -4.852,-0.021c0.032,-2.131 0.005,-4.263 0.015,-6.396Z" style="fill:#4d2627;fill-rule:nonzero;"/><path d="M202.585,48.039c1.305,0.063 2.646,-0.15 3.929,0.152c1.394,0.447 1.793,2.102 1.692,3.402c0.021,1.172 -0.638,2.474 -1.861,2.735c-1.237,0.244 -2.51,0.075 -3.76,0.126c-0.002,-2.138 -0.002,-4.277 0,-6.415m1.89,1.437c-0.003,1.177 -0,2.354 -0,3.533c0.565,-0.053 1.382,0.109 1.657,-0.546c0.261,-0.771 0.261,-1.667 -0.029,-2.431c-0.299,-0.604 -1.068,-0.522 -1.628,-0.556Z" style="fill:#4d2627;fill-rule:nonzero;"/><path d="M225.155,48.111c1.163,-0.338 2.586,-0.251 3.506,0.614c0.882,0.853 0.993,2.189 0.829,3.339c-0.118,0.984 -0.751,1.914 -1.691,2.272c-0.843,0.309 -1.791,0.287 -2.646,0.053c-2.626,-0.865 -2.624,-5.408 0.002,-6.278m0.723,1.416c-0.95,0.493 -0.839,1.798 -0.653,2.685c0.206,1.002 1.76,1.191 2.209,0.287c0.297,-0.691 0.283,-1.5 0.111,-2.223c-0.184,-0.698 -1.027,-1.036 -1.667,-0.749Z" style="fill:#4d2627;fill-rule:nonzero;"/><path d="M242.982,48.177c0.921,-0.341 1.994,-0.344 2.919,0.002c0.691,0.258 0.972,0.986 1.117,1.653c-0.583,0.038 -1.165,0.084 -1.745,0.13c-0.087,-0.836 -1.486,-1.249 -1.691,-0.299c0.582,0.729 1.725,0.514 2.488,1c1.257,0.471 1.462,2.247 0.556,3.148c-0.889,0.904 -2.322,0.851 -3.467,0.595c-0.952,-0.215 -1.428,-1.184 -1.544,-2.071c0.589,-0.044 1.184,-0.082 1.778,-0.116c0.099,0.718 0.756,1.312 1.505,1.029c0.479,-0.142 0.636,-0.86 0.162,-1.109c-0.92,-0.457 -2.107,-0.432 -2.819,-1.261c-0.747,-0.855 -0.307,-2.32 0.741,-2.701Z" style="fill:#4d2627;fill-rule:nonzero;"/><path d="M259.108,48.039c1.914,-0 3.83,-0 5.746,0.002c-0.005,0.525 -0.005,1.054 0,1.58c-0.645,0 -1.285,0.003 -1.926,0.003c-0.004,1.609 -0.002,3.218 -0.002,4.83c-0.631,-0.003 -1.264,-0.003 -1.892,-0c-0.002,-1.612 0,-3.221 0,-4.83c-0.645,-0 -1.285,-0.005 -1.926,-0.003c-0.002,-0.526 -0.002,-1.055 0,-1.582Z" style="fill:#4d2627;fill-rule:nonzero;"/></g></g></svg>