<svg width="214" height="166" viewBox="0 0 214 166" fill="none" xmlns="http://www.w3.org/2000/svg">
<g id="hin">
<g id="hindi">
<g id="Layer_3">
<g id="Layer_1">
<g id="Layer_1_2">
<g id="Group">
<g id="Group_2">
<g id="Group_3">
<path id="Vector" d="M96.4557 135.624C96.7487 135.669 97.0577 135.713 97.3828 135.756L97.3802 135.708C97.0873 135.663 96.7774 135.602 96.4506 135.527L96.4557 135.624ZM107.574 117.204L107.604 116.863C107.123 116.927 106.626 116.992 106.113 117.058L106.116 117.107C106.57 117.141 107.056 117.174 107.574 117.204ZM107.49 47.8298C107.883 47.933 108.246 48.0866 108.58 48.2906L108.752 47.8916C108.295 47.7927 107.857 47.7409 107.437 47.7364L107.49 47.8298Z" fill="#FF98D0"/>
<path id="Vector_2" d="M75.6246 98.3393L75.6221 98.2911L75.8659 98.3234L96.1743 98.7238L87.3228 97.0808L63.9713 95.9128L75.6246 98.3393Z" fill="#CC5798"/>
<path id="Vector_3" d="M75.6729 98.3361L75.6246 98.3393L63.9713 95.9128L63.6792 95.8836L61.9918 121.334C65.047 129.562 73.392 134.404 87.0269 135.86C87.9666 135.927 88.9071 136.01 89.8485 136.109C93.3464 136.33 97.1886 136.35 101.375 136.17C101.44 136.166 101.504 136.162 101.568 136.157C102.278 136.143 102.986 136.112 103.694 136.065C102.661 136.069 101.66 136.055 100.689 136.022C99.8801 135.978 99.1021 135.917 98.3555 135.837C98.0304 135.794 97.7061 135.767 97.3828 135.756C97.0577 135.713 96.7487 135.669 96.4557 135.624C86.1476 134.206 79.1287 129.115 75.3992 120.35L75.6729 98.3361ZM96.8238 90.0568L96.8617 89.8605L96.7934 74.1189L82.3159 74.1079L81.9147 87.4096L96.8238 90.0568ZM83.3363 36.2013C83.6086 35.8603 83.8995 35.5665 84.2091 35.3199C84.3326 35.2148 84.4569 35.1259 84.5821 35.053C79.1291 35.0908 74.3995 35.6783 70.3933 36.8155C65.9414 41.0829 63.7426 48.5443 63.7967 59.1996L78.7653 60.244C79.019 47.5012 80.5427 39.4869 83.3363 36.2013ZM111.991 93.8982C110.639 92.7602 108.766 91.8506 106.373 91.1691C105.554 90.9326 104.655 90.7337 103.678 90.5722C103.45 90.5227 103.221 90.4733 102.993 90.4238C102.733 90.4086 102.458 90.3785 102.165 90.3332C101.528 90.2489 100.879 90.1788 100.217 90.123C100.186 90.1573 100.188 90.1895 100.222 90.2195C100.425 93.4038 100.533 96.3359 100.548 99.0158C100.521 99.1145 100.526 99.211 100.563 99.3055C100.542 104.346 100.172 108.585 99.4527 112.024C99.4022 112.286 99.3347 112.533 99.2503 112.764C99.1205 113.354 98.9737 113.929 98.81 114.489C100.474 116.026 102.714 116.863 105.529 117C105.692 117.022 105.887 117.041 106.113 117.058C106.626 116.992 107.123 116.927 107.604 116.863C110.414 116.289 112.058 114.743 112.536 112.224C113.655 102.977 113.473 96.8685 111.991 93.8982ZM108.58 48.2906C108.246 48.0866 107.883 47.933 107.49 47.8298C107.228 47.7503 106.983 47.7018 106.756 47.6846C103.623 47.052 101.244 47.5164 99.6164 49.0775C99.8019 50.1311 99.9513 51.4132 100.064 52.9238C100.148 55.0824 100.143 57.699 100.049 60.7737C100.056 60.9024 100.048 61.0483 100.024 61.2114C99.8702 64.9683 99.5739 69.3807 99.1351 74.4485L99.1377 74.4967C99.5915 74.5313 100.045 74.5659 100.499 74.6005C100.694 74.6199 100.888 74.6393 101.083 74.6587C102.67 74.7475 104.089 74.7344 105.342 74.6192C108.707 74.1704 110.697 72.7468 111.31 70.3483L112.299 58.0735C112.477 52.9584 111.238 49.6974 108.58 48.2906ZM133.632 43.2415L127.477 44.0363C129.078 50.4226 129.576 58.8199 128.971 69.2281C128.915 72.3972 128.639 75.6777 128.143 79.0697L128.08 79.7037C127.568 82.8061 126.071 85.2792 123.587 87.1231C125.625 88.4095 127.007 90.4174 127.735 93.1471C127.893 93.6857 128.019 94.2426 128.115 94.8177C128.638 102.18 128.681 110.219 128.244 118.937L140.866 124.982L140.43 94.245L129.494 92.5462L129.75 78.3336L140.228 78.7061L139.939 57.9404L134.867 57.2586L133.632 43.2415Z" fill="#B1357A"/>
<path id="Vector_4" d="M134.867 57.2586L139.939 57.9404L140.228 78.7061L129.75 78.3336L129.494 92.5462L140.43 94.245L140.866 124.982L156.866 123.584L157.301 60.28L163.64 61.1202L164.464 48.4688L133.632 43.2415L134.867 57.2586ZM127.309 43.6114C126.289 42.6453 124.987 41.8432 123.404 41.2051C115.913 38.7615 108.527 37.0538 101.245 36.0822C100.819 35.9811 100.396 35.9123 99.9746 35.8756C94.9357 35.2077 89.9174 34.926 84.9198 35.0306L84.5821 35.053C84.4569 35.1259 84.3326 35.2148 84.2091 35.3199C83.8995 35.5665 83.6086 35.8603 83.3363 36.2013C80.5427 39.4869 79.019 47.5012 78.7653 60.244L96.8441 60.5981L98.3482 50.7118C98.7014 50.0748 99.1241 49.53 99.6164 49.0775C101.244 47.5164 103.623 47.0521 106.756 47.6846C106.983 47.7018 107.228 47.7503 107.49 47.8298L107.437 47.7364C107.857 47.7409 108.295 47.7927 108.752 47.8916L108.58 48.2906C111.238 49.6975 112.477 52.9584 112.299 58.0736L111.31 70.3483C110.697 72.7468 108.707 74.1704 105.342 74.6192C104.089 74.7344 102.67 74.7475 101.083 74.6587C100.888 74.6393 100.694 74.6199 100.499 74.6005C100.045 74.5659 99.5915 74.5313 99.1377 74.4967C99.0056 74.4409 98.8913 74.4161 98.7948 74.4225C98.5984 74.3709 98.3867 74.3365 98.1599 74.3192C97.7383 74.2825 97.2828 74.2157 96.7934 74.1189L96.8617 89.8605C97.5406 89.8802 98.2043 89.917 98.8528 89.971C98.8867 90.001 98.9197 90.015 98.9518 90.0129C99.3734 90.0496 99.7789 90.0873 100.168 90.1262L100.217 90.123C100.879 90.1788 101.528 90.2489 102.165 90.3332C102.458 90.3785 102.733 90.4086 102.993 90.4238C103.221 90.4733 103.45 90.5227 103.678 90.5722C104.655 90.7337 105.554 90.9326 106.373 91.1691C108.766 91.8505 110.639 92.7602 111.991 93.8982C113.473 96.8685 113.655 102.977 112.536 112.224C112.058 114.743 110.414 116.289 107.604 116.863L107.574 117.204C107.056 117.174 106.57 117.141 106.116 117.107L106.113 117.058C105.887 117.041 105.692 117.022 105.529 117C102.714 116.863 100.474 116.026 98.8101 114.489C98.0237 113.669 97.3753 112.711 96.8646 111.614L96.4638 98.7046L96.1743 98.7238L75.8659 98.3234L75.6729 98.3361L75.3992 120.35C79.1287 129.115 86.1476 134.206 96.4557 135.624L96.4506 135.527C96.7774 135.602 97.0873 135.663 97.3802 135.708L97.3828 135.756C97.7061 135.767 98.0304 135.794 98.3555 135.837C99.1021 135.917 99.8801 135.978 100.689 136.022C101.66 136.055 102.661 136.069 103.694 136.065L105.481 135.995C106.639 135.919 107.779 135.811 108.902 135.672C115.082 134.746 119.934 132.52 123.457 128.992C125.84 126.477 127.395 123.87 128.122 121.174C128.146 120.429 128.187 119.684 128.244 118.937C128.681 110.219 128.638 102.18 128.115 94.8177C128.019 94.2426 127.893 93.6857 127.735 93.1471C127.007 90.4174 125.625 88.4095 123.587 87.1231C126.071 85.2792 127.568 82.8061 128.08 79.7037L128.143 79.0697C128.639 75.6777 128.915 72.3972 128.971 69.2281C129.576 58.8199 129.078 50.4226 127.477 44.0363C127.404 43.8797 127.348 43.738 127.309 43.6114Z" fill="#FF6BBC"/>
</g>
</g>
<g id="Group_4">
<path id="Vector_5" d="M84.9198 35.0306C89.9174 34.926 94.9357 35.2077 99.9746 35.8756C100.396 35.9123 100.819 35.9811 101.245 36.0822C108.527 37.0538 115.913 38.7615 123.404 41.2051C124.987 41.8432 126.289 42.6453 127.309 43.6114C127.348 43.738 127.404 43.8797 127.477 44.0363L133.632 43.2415L164.464 48.4688L163.64 61.1202L157.301 60.28L156.866 123.584L140.866 124.982L128.244 118.937C128.187 119.684 128.146 120.429 128.122 121.174C127.395 123.87 125.84 126.477 123.457 128.992C119.934 132.52 115.082 134.747 108.902 135.672C107.779 135.811 106.639 135.919 105.481 135.995L103.694 136.065C102.986 136.112 102.278 136.143 101.568 136.157C101.504 136.162 101.44 136.166 101.375 136.17C97.1886 136.35 93.3464 136.33 89.8485 136.109C88.9071 136.01 87.9666 135.927 87.0269 135.86C73.392 134.404 65.047 129.562 61.9918 121.334L63.6792 95.8836L63.9713 95.9128L87.3227 97.0808L96.1743 98.7238L96.4638 98.7046L96.8646 111.614C97.3753 112.711 98.0237 113.669 98.8101 114.489C98.9737 113.929 99.1205 113.354 99.2503 112.764C99.3347 112.533 99.4022 112.286 99.4527 112.024C100.172 108.585 100.542 104.346 100.563 99.3055C100.526 99.211 100.521 99.1145 100.548 99.0158C100.533 96.3359 100.425 93.4038 100.222 90.2195C100.188 90.1895 100.186 90.1573 100.217 90.123L100.168 90.1262C99.7789 90.0873 99.3734 90.0496 98.9518 90.0129C98.9197 90.015 98.8867 90.001 98.8528 89.971C98.2043 89.917 97.5406 89.8802 96.8617 89.8605L96.8721 90.0536L96.8238 90.0568L81.9147 87.4096L82.3159 74.1079L96.7934 74.1189C97.2828 74.2157 97.7383 74.2825 98.1599 74.3192C98.3867 74.3365 98.5984 74.3709 98.7948 74.4225C98.8913 74.4161 99.0056 74.4409 99.1377 74.4967L99.1351 74.4485C99.5739 69.3807 99.8702 64.9683 100.024 61.2114C100.048 61.0483 100.056 60.9024 100.049 60.7737C100.143 57.699 100.148 55.0824 100.064 52.9238C99.9513 51.4132 99.8019 50.1311 99.6164 49.0775C99.1241 49.53 98.7014 50.0748 98.3482 50.7118L96.8441 60.5981L78.7653 60.244L63.7967 59.1996C63.7426 48.5443 65.9414 41.0829 70.3933 36.8155C74.3995 35.6783 79.1291 35.0908 84.5821 35.053C84.6447 35.0165 84.6921 34.9972 84.7243 34.9951C84.7862 35.0213 84.8514 35.0331 84.9198 35.0306ZM84.9198 35.0306L84.5821 35.053C84.4569 35.1259 84.3326 35.2148 84.2091 35.3199C83.8995 35.5665 83.6086 35.8603 83.3363 36.2013C80.5427 39.4869 79.019 47.5012 78.7653 60.244L84.9198 35.0306ZM96.4557 135.624C96.7487 135.669 97.0577 135.713 97.3828 135.756M108.58 48.2906C108.246 48.0866 107.883 47.933 107.49 47.8298C107.228 47.7503 106.983 47.7018 106.756 47.6846C103.623 47.052 101.244 47.5164 99.6164 49.0775L108.58 48.2906ZM108.58 48.2906C111.238 49.6974 112.477 52.9584 112.299 58.0736L111.311 70.3483C110.697 72.7468 108.707 74.1704 105.342 74.6192C104.089 74.7344 102.67 74.7475 101.083 74.6587C100.888 74.6393 100.694 74.6199 100.499 74.6005C100.045 74.5659 99.5915 74.5313 99.1377 74.4967L108.58 48.2906ZM133.632 43.2415L134.867 57.2586L139.939 57.9404L140.228 78.7061L129.75 78.3336L129.494 92.5462L140.43 94.245L140.866 124.982L133.632 43.2415ZM128.244 118.937C128.681 110.219 128.638 102.18 128.115 94.8177C128.019 94.2426 127.893 93.6857 127.735 93.1471C127.007 90.4175 125.625 88.4095 123.587 87.1231C126.071 85.2792 127.568 82.8061 128.08 79.7037L128.143 79.0697C128.639 75.6777 128.915 72.3972 128.971 69.2281C129.576 58.8199 129.078 50.4226 127.477 44.0363L128.244 118.937ZM100.217 90.123C100.879 90.1788 101.528 90.2489 102.165 90.3332C102.458 90.3785 102.733 90.4086 102.993 90.4238C103.221 90.4733 103.45 90.5227 103.678 90.5722C104.655 90.7337 105.554 90.9326 106.373 91.1691C108.766 91.8506 110.639 92.7602 111.991 93.8982C113.473 96.8685 113.655 102.977 112.536 112.224C112.058 114.743 110.414 116.289 107.604 116.863L100.217 90.123ZM106.113 117.058C105.887 117.041 105.692 117.022 105.529 117C102.714 116.863 100.474 116.026 98.8101 114.489L106.113 117.058ZM107.604 116.863C107.123 116.927 106.626 116.992 106.113 117.058L107.604 116.863ZM96.7934 74.1189L96.8617 89.8605L96.7934 74.1189ZM75.8659 98.3234L75.6729 98.3361L75.3992 120.35C79.1287 129.115 86.1476 134.206 96.4557 135.624L75.8659 98.3234ZM97.3828 135.756C97.7061 135.767 98.0304 135.794 98.3555 135.837C99.1021 135.917 99.8801 135.978 100.689 136.022C101.66 136.055 102.661 136.069 103.694 136.065L97.3828 135.756ZM75.6246 98.3393L75.6729 98.3361L75.6221 98.2911L75.6246 98.3393ZM75.6246 98.3393L63.9713 95.9128L75.6246 98.3393ZM75.6221 98.2911L75.8659 98.3234L96.1743 98.7238L75.6221 98.2911Z" stroke="white" stroke-width="0.0483499" stroke-linecap="round" stroke-linejoin="round"/>
</g>
</g>
</g>
</g>
<g id="Layer_2">
<g id="Layer_1_3">
<g id="Group_5">
<g id="Group_6">
<g id="Group_7">
<path id="Vector_6" d="M120.446 51.1503L119.521 51.2502C120.533 53.0892 121.703 54.2004 123.031 54.5839C123.488 54.7087 123.956 54.7553 124.433 54.7237C124.827 54.6976 125.209 54.5948 125.578 54.4153C125.952 54.2423 126.313 53.9987 126.663 53.6847C126.1 53.3085 125.368 52.9047 124.467 52.4733C122.475 51.4424 121.135 51.0014 120.446 51.1503Z" fill="#EE8383"/>
<path id="Vector_7" d="M129.779 48.9436C129.344 49.0241 129.062 49.0686 128.934 49.0771C125.486 49.3052 122.458 48.7045 119.851 47.275C118.891 46.7183 118.127 46.1875 117.558 45.6825C117.719 46.292 118.33 48.0475 119.389 50.9489C119.419 51.0245 119.463 51.1249 119.521 51.2502L120.446 51.1503C121.135 51.0014 122.475 51.4424 124.467 52.4733C125.368 52.9047 126.1 53.3085 126.663 53.6847C126.933 53.4342 127.201 53.1322 127.466 52.7788C128.144 51.9329 128.915 50.6545 129.779 48.9436Z" fill="#A11616"/>
</g>
</g>
<g id="Group_8">
<path id="Vector_8" d="M117.558 45.6825C118.127 46.1875 118.891 46.7183 119.851 47.275C122.458 48.7045 125.486 49.3052 128.934 49.0771C129.062 49.0686 129.344 49.0241 129.779 48.9436C128.915 50.6545 128.144 51.9329 127.466 52.7788C127.201 53.1322 126.933 53.4342 126.663 53.6847C126.313 53.9987 125.958 54.2418 125.598 54.414C125.215 54.5944 124.827 54.6976 124.433 54.7237C123.956 54.7553 123.495 54.7082 123.05 54.5826C121.71 54.1999 120.533 53.0892 119.521 51.2502C119.463 51.1249 119.419 51.0245 119.389 50.9489C118.33 48.0475 117.719 46.292 117.558 45.6825ZM117.558 45.6825C117.043 45.2257 116.683 44.7715 116.478 44.3199C116.019 44.9187 115.445 45.5252 114.755 46.1393L117.558 45.6825ZM119.521 51.2502L120.446 51.1503C121.135 51.0014 122.475 51.4424 124.467 52.4733C125.368 52.9047 126.1 53.3085 126.663 53.6847M129.779 48.9436C129.932 48.9077 130.11 48.87 130.315 48.8306C131.233 48.6149 131.983 48.3973 132.565 48.1779L129.779 48.9436ZM117.323 42.7523C117.092 43.2586 116.81 43.7811 116.478 44.3199L117.323 42.7523ZM119.403 56.9945C119.578 57.3705 119.985 57.744 120.625 58.1152C121.425 58.579 122.312 58.7658 123.289 58.6753L119.403 56.9945Z" stroke="black" stroke-opacity="0.501961" stroke-width="0.0386797" stroke-linecap="round" stroke-linejoin="round"/>
</g>
</g>
</g>
<g id="Layer_2_2">
<g id="Group_9">
<g id="Group_10">
<g id="Group_11">
<path id="Vector_9" d="M122.137 7.5116L125.237 8.97316C126.489 8.73524 127.38 7.52644 127.909 5.34676C127.165 4.64432 126.347 4.0783 125.455 3.64867C124.319 3.08701 123.062 2.75676 121.684 2.65793C120.687 2.89354 119.731 3.37022 118.816 4.08795C116.844 5.66314 115.093 8.40174 113.562 12.3038C116.934 8.7215 119.792 7.12412 122.137 7.5116ZM125.93 26.2528C124.514 26.3464 123.339 27.0701 122.405 28.424C122.371 28.4776 122.335 28.5317 122.297 28.5861C121.887 29.2714 121.591 30.0144 121.41 30.8154C121.297 31.3376 121.235 31.8843 121.226 32.4554C121.215 32.7215 121.216 32.9927 121.231 33.269C121.256 33.7238 121.305 34.1599 121.379 34.5771C121.53 35.3494 121.775 36.0568 122.112 36.6991C122.339 37.1233 122.605 37.5191 122.912 37.8865C122.933 37.9112 122.947 37.9361 122.954 37.9612C123.461 38.5168 123.987 38.9342 124.532 39.2134C125.16 39.5126 125.813 39.6503 126.491 39.6264L126.722 39.6111C127.426 39.5496 128.059 39.3268 128.623 38.9426C129.147 38.593 129.612 38.11 130.018 37.4938C130.048 37.4662 130.073 37.4388 130.091 37.4115C130.363 37.0065 130.585 36.5783 130.758 36.127C130.932 35.7114 131.064 35.2764 131.153 34.8218C131.212 34.5332 131.247 34.2337 131.26 33.9233C131.314 33.4976 131.329 33.0573 131.305 32.6025C131.29 32.3262 131.263 32.0567 131.223 31.7939C131.149 31.2284 131.017 30.6944 130.827 30.1922C130.575 29.42 130.202 28.7212 129.708 28.0958C129.666 28.0465 129.625 27.9976 129.584 27.9489C128.537 26.7262 127.319 26.1608 125.93 26.2528ZM123.264 28.5609C123.27 28.5475 123.269 28.5346 123.262 28.5223C123.648 27.6699 124.41 27.206 125.551 27.1306C126.589 27.0618 127.306 27.4278 127.701 28.2286C127.722 28.24 127.735 28.252 127.742 28.2646C127.97 28.663 128.083 29.0947 128.082 29.5599C128.099 29.8734 128.088 30.1455 128.048 30.3761C128.02 30.5996 127.966 30.7841 127.884 30.9296C127.531 31.5731 126.776 31.9331 125.618 32.0098C124.383 32.0915 123.579 31.7829 123.206 31.0841C123.188 30.9425 123.168 30.8146 123.147 30.7004C123.096 30.2336 123.07 29.9898 123.069 29.9692C123.04 29.4285 123.105 28.959 123.264 28.5609ZM128.419 35.8554C128.427 36.0037 128.422 36.1462 128.403 36.2828C128.359 36.5266 128.267 36.7523 128.13 36.9598C127.919 37.3614 127.595 37.5766 127.157 37.6056C126.385 37.6566 125.868 37.4066 125.606 36.8555C125.571 36.7106 125.538 36.5835 125.509 36.4743C125.441 36.1805 125.407 36.0149 125.405 35.9774C125.359 35.1277 125.836 34.631 126.835 34.4873C127.835 34.3437 128.363 34.7997 128.419 35.8554ZM139.82 27.4266C139.443 27.3482 139.055 27.3223 138.654 27.3488C138.261 27.3748 137.878 27.4518 137.505 27.5799C136.617 27.9007 135.838 28.5466 135.168 29.5174C135.085 29.6487 135.002 29.7834 134.919 29.9215C134.65 30.4341 134.435 30.991 134.272 31.5922C134.268 31.6564 134.259 31.7217 134.244 31.7878C134.077 32.3986 133.983 33.0508 133.961 33.7445C133.972 33.9466 133.983 34.1526 133.994 34.3625C134.023 34.9014 134.089 35.4138 134.193 35.8997C134.293 36.3533 134.42 36.7842 134.572 37.1924C134.781 37.6585 135.024 38.0946 135.301 38.5008C135.421 38.6654 135.546 38.8252 135.675 38.9799C135.686 38.9922 135.699 39.0043 135.716 39.016C136.352 39.7493 137.037 40.2466 137.771 40.5079C138.287 40.6805 138.82 40.7486 139.37 40.7122C139.93 40.6751 140.452 40.5372 140.936 40.2985C141.652 39.9412 142.279 39.3571 142.817 38.5461C142.833 38.5322 142.845 38.5185 142.854 38.5049C142.969 38.334 143.076 38.1589 143.174 37.9798C143.418 37.5392 143.612 37.0741 143.758 36.5846C143.885 36.1579 143.977 35.7126 144.035 35.2485C144.086 34.7523 144.097 34.2348 144.068 33.6959C144.057 33.4865 144.033 33.2813 143.997 33.0805C143.923 32.3265 143.756 31.627 143.497 30.9818C143.277 30.4168 142.991 29.8931 142.638 29.4107C142.545 29.2852 142.448 29.1624 142.347 29.0424C141.597 28.1655 140.754 27.627 139.82 27.4266ZM140.695 30.7408C140.703 30.8862 140.698 31.0286 140.679 31.1682C140.663 31.5458 140.579 31.9002 140.426 32.2315C140.103 32.9505 139.543 33.3364 138.745 33.3892C137.742 33.4556 137.088 33.0596 136.784 32.2012C136.738 31.8894 136.699 31.6336 136.665 31.4338C136.621 31.0912 136.599 30.9119 136.598 30.8957C136.576 30.4865 136.582 30.1243 136.617 29.8091C136.803 28.6526 137.446 28.1191 138.545 28.2087C139.502 28.2919 140.133 28.7411 140.438 29.5563C140.585 29.8891 140.671 30.284 140.695 30.7408ZM138.311 38.3016C138.214 38.2071 138.143 38.0826 138.098 37.9282L138.026 37.3127C138.019 37.1868 138.013 37.071 138.007 36.9651C138.077 36.3068 138.435 36.0117 139.083 36.08C139.648 36.1395 140.01 36.3869 140.169 36.8221C140.228 36.9668 140.263 37.1324 140.273 37.3191C140.288 37.6023 140.212 37.8658 140.044 38.1094C140.021 38.1384 139.997 38.1659 139.971 38.1918C139.781 38.3853 139.515 38.4933 139.175 38.5158C138.795 38.5409 138.507 38.4695 138.311 38.3016ZM146.382 5.28722C144.005 5.75454 142.04 6.90526 140.485 8.73936C141.243 10.8339 142.256 11.9167 143.526 11.9878L146.486 10.1252C148.208 9.6027 150.329 10.16 152.85 11.7971C153.076 11.9415 153.304 12.0944 153.533 12.2558C154.158 12.6936 154.804 13.1935 155.473 13.7554C155.183 13.2055 154.884 12.6826 154.575 12.1869C154.491 12.0217 154.392 11.8603 154.278 11.7026C151.814 7.68647 149.181 5.548 146.382 5.28722Z" fill="black" fill-opacity="0.811765"/>
<path id="Vector_10" d="M114.324 25.0827C114.307 25.4152 114.286 25.7525 114.262 26.0946C114.144 27.9286 114.198 29.6563 114.424 31.2776C114.516 31.825 114.622 32.3607 114.742 32.8845C114.909 33.6046 115.114 34.3016 115.358 34.9755C115.662 35.8281 116.028 36.6436 116.457 37.4221C116.924 38.2949 117.429 39.0496 117.973 39.6862C118.108 39.8573 118.246 40.0161 118.385 40.1627C119.759 41.6067 121.363 42.3791 123.196 42.48C123.3 42.4859 123.404 42.4919 123.507 42.4982C123.689 42.4968 123.869 42.4849 124.048 42.4625C125.31 42.3899 126.501 41.9623 127.62 41.1796C128.302 40.7156 128.955 40.1297 129.579 39.4221C129.742 39.2387 129.9 39.0474 130.051 38.8481C130.227 38.639 130.396 38.4211 130.559 38.1944C130.657 38.1104 130.743 38.0143 130.814 37.9062C130.918 37.7451 131.012 37.5838 131.098 37.4223C131.167 37.3405 131.227 37.259 131.279 37.1778C131.315 37.1253 131.351 37.0713 131.386 37.0156C131.409 36.9624 131.432 36.9092 131.455 36.856C131.616 36.5923 131.769 36.3237 131.916 36.0504C132.301 35.3367 132.636 34.591 132.919 33.8135C133.193 33.1252 133.426 32.4121 133.618 31.6742C133.621 31.6611 133.621 31.6482 133.616 31.6356C133.761 31.0947 133.874 30.5446 133.954 29.9853C134.097 29.2706 134.2 28.5403 134.262 27.7944C134.281 27.6007 134.296 27.4059 134.309 27.2099C134.381 26.0108 134.384 24.8607 134.318 23.7598C134.292 23.4081 134.26 23.0614 134.223 22.7195C134.165 22.1699 134.084 21.6325 133.982 21.1076C133.815 20.2357 133.59 19.3979 133.305 18.5943C132.995 17.6328 132.598 16.716 132.112 15.8438C131.682 15.0578 131.219 14.3649 130.722 13.7652C130.6 13.5985 130.462 13.4396 130.31 13.2886C128.911 11.7592 127.279 10.9499 125.415 10.8606C122.97 10.7032 120.754 11.7671 118.769 14.0523C118.636 14.2221 118.49 14.3996 118.333 14.585C118.229 14.7296 118.121 14.8789 118.008 15.0328C116.471 17.1486 115.389 19.5975 114.76 22.3794C114.587 23.247 114.442 24.1481 114.324 25.0827ZM122.405 28.424C123.339 27.0701 124.514 26.3464 125.93 26.2528C127.319 26.1608 128.537 26.7262 129.584 27.9489C129.625 27.9976 129.666 28.0465 129.708 28.0958C130.202 28.7212 130.575 29.42 130.827 30.1922C131.017 30.6944 131.149 31.2284 131.223 31.7939C131.263 32.0567 131.29 32.3262 131.305 32.6025C131.329 33.0573 131.314 33.4975 131.26 33.9233C131.247 34.2337 131.212 34.5332 131.153 34.8218C131.064 35.2764 130.932 35.7114 130.758 36.127C130.585 36.5783 130.363 37.0065 130.091 37.4115C130.073 37.4388 130.048 37.4662 130.018 37.4938C129.612 38.11 129.147 38.593 128.623 38.9426C128.059 39.3268 127.426 39.5496 126.722 39.6111L126.491 39.6264C125.813 39.6503 125.16 39.5126 124.532 39.2134C123.987 38.9342 123.461 38.5168 122.954 37.9612C122.947 37.9361 122.933 37.9112 122.912 37.8865C122.605 37.5191 122.339 37.1233 122.112 36.6991C121.775 36.0568 121.53 35.3494 121.379 34.5771C121.305 34.1599 121.256 33.7238 121.231 33.269C121.216 32.9927 121.215 32.7215 121.226 32.4554C121.235 31.8843 121.297 31.3376 121.41 30.8154C121.591 30.0144 121.887 29.2714 122.297 28.5861C122.335 28.5317 122.371 28.4776 122.405 28.424ZM128.403 36.2828C128.422 36.1462 128.427 36.0037 128.419 35.8554C128.363 34.7997 127.835 34.3437 126.835 34.4873C125.836 34.631 125.359 35.1277 125.405 35.9774C125.407 36.0149 125.441 36.1805 125.509 36.4743C125.538 36.5835 125.571 36.7106 125.607 36.8555C125.868 37.4066 126.385 37.6566 127.157 37.6056C127.595 37.5766 127.919 37.3614 128.13 36.9598C128.267 36.7523 128.359 36.5266 128.403 36.2828ZM123.262 28.5223C123.269 28.5346 123.27 28.5475 123.264 28.5609C123.105 28.959 123.04 29.4285 123.069 29.9692C123.07 29.9898 123.096 30.2336 123.147 30.7004C123.168 30.8146 123.188 30.9425 123.206 31.0841C123.579 31.7829 124.383 32.0915 125.618 32.0098C126.776 31.9331 127.531 31.5731 127.884 30.9296C127.966 30.7841 128.02 30.5996 128.048 30.3761C128.088 30.1455 128.099 29.8734 128.082 29.5599C128.083 29.0947 127.97 28.663 127.742 28.2646C127.735 28.252 127.722 28.24 127.701 28.2286C127.306 27.4278 126.589 27.0618 125.551 27.1306C124.41 27.206 123.648 27.6699 123.262 28.5223ZM148.641 14.2074C146.079 13.1366 143.292 13.6441 140.279 15.7297C139.881 16.0145 139.497 16.3241 139.128 16.6586C137.665 17.8722 136.375 19.3271 135.256 21.0233C134.891 21.5643 134.547 22.1297 134.223 22.7195C134.26 23.0614 134.292 23.4081 134.318 23.7598C134.384 24.8607 134.381 26.0108 134.309 27.2099C134.296 27.4059 134.281 27.6007 134.262 27.7944C134.2 28.5403 134.097 29.2706 133.954 29.9853C133.874 30.5446 133.761 31.0947 133.616 31.6356C133.621 31.6482 133.621 31.6611 133.618 31.6742C133.426 32.4121 133.193 33.1252 132.919 33.8135C132.636 34.591 132.301 35.3367 131.916 36.0504C131.769 36.3237 131.616 36.5923 131.455 36.856C131.489 37.0378 131.524 37.2164 131.562 37.3916C131.666 37.8589 131.78 38.3036 131.904 38.7256C131.984 38.9053 132.058 39.0813 132.126 39.2535C132.356 39.8255 132.616 40.3509 132.908 40.8297C133.023 40.9816 133.134 41.1293 133.241 41.2727C133.784 41.2885 134.387 41.4553 135.05 41.7732C135.537 41.9793 135.924 42.2121 136.21 42.4716C136.564 42.8033 136.752 43.1785 136.774 43.5971C136.776 43.6228 136.778 43.6614 136.781 43.7129C139.056 44.4023 141.529 43.8124 144.2 41.9429C144.26 41.9135 144.31 41.8843 144.35 41.8555C145.199 41.2843 145.991 40.6376 146.725 39.9154C147.29 39.379 147.814 38.8017 148.298 38.1834C148.462 37.9957 148.62 37.8044 148.771 37.6095C149.105 37.1568 149.429 36.6832 149.741 36.1887C150.019 35.7482 150.278 35.2918 150.52 34.8194C150.899 34.1443 151.248 33.4364 151.568 32.6958C151.585 32.6559 151.596 32.6164 151.6 32.5774C151.922 31.8412 152.193 31.1127 152.413 30.3918C152.606 29.8339 152.77 29.2804 152.905 28.7314C153.085 27.9913 153.227 27.2584 153.33 26.5328C153.511 25.1605 153.542 23.8148 153.423 22.4956C153.394 22.0564 153.345 21.6204 153.276 21.1875C153.2 20.72 153.099 20.2746 152.972 19.8511C152.267 17.0225 150.824 15.1413 148.641 14.2074ZM138.654 27.3488C139.055 27.3223 139.443 27.3482 139.82 27.4266C140.754 27.627 141.597 28.1655 142.347 29.0424C142.448 29.1624 142.545 29.2852 142.638 29.4107C142.991 29.8931 143.277 30.4168 143.497 30.9818C143.756 31.627 143.923 32.3265 143.997 33.0805C144.033 33.2813 144.057 33.4865 144.068 33.6959C144.097 34.2348 144.086 34.7523 144.035 35.2485C143.977 35.7126 143.885 36.1579 143.758 36.5846C143.612 37.0741 143.418 37.5392 143.174 37.9798C143.076 38.1589 142.969 38.334 142.854 38.5049C142.845 38.5185 142.833 38.5322 142.817 38.5461C142.279 39.3571 141.652 39.9412 140.936 40.2985C140.452 40.5372 139.93 40.6751 139.37 40.7122C138.82 40.7486 138.287 40.6805 137.771 40.5079C137.037 40.2466 136.352 39.7493 135.716 39.016C135.699 39.0043 135.686 38.9922 135.675 38.9799C135.546 38.8252 135.421 38.6654 135.301 38.5008C135.024 38.0946 134.781 37.6585 134.572 37.1924C134.42 36.7842 134.293 36.3533 134.193 35.8997C134.09 35.4138 134.023 34.9014 133.994 34.3625C133.983 34.1526 133.972 33.9466 133.961 33.7445C133.983 33.0508 134.077 32.3985 134.244 31.7878C134.259 31.7217 134.268 31.6564 134.272 31.5922C134.435 30.991 134.65 30.4341 134.919 29.9215C135.002 29.7834 135.085 29.6487 135.168 29.5174C135.838 28.5466 136.617 27.9007 137.505 27.5799C137.878 27.4518 138.261 27.3748 138.654 27.3488ZM138.098 37.9281C138.143 38.0826 138.214 38.2071 138.311 38.3016C138.507 38.4695 138.795 38.5409 139.175 38.5158C139.515 38.4933 139.781 38.3853 139.971 38.1918C139.997 38.1659 140.021 38.1384 140.044 38.1094C140.212 37.8658 140.288 37.6023 140.273 37.3191C140.263 37.1324 140.228 36.9668 140.169 36.8221C140.01 36.3869 139.648 36.1395 139.083 36.08C138.435 36.0117 138.077 36.3068 138.007 36.9651C138.013 37.071 138.019 37.1868 138.026 37.3127L138.098 37.9281ZM140.679 31.1682C140.698 31.0286 140.703 30.8862 140.695 30.7408C140.671 30.284 140.585 29.8891 140.438 29.5563C140.133 28.7411 139.502 28.2919 138.545 28.2087C137.446 28.1191 136.803 28.6526 136.617 29.8091C136.582 30.1243 136.576 30.4865 136.598 30.8957C136.599 30.9119 136.621 31.0912 136.665 31.4338C136.699 31.6336 136.738 31.8894 136.784 32.2012C137.088 33.0596 137.742 33.4556 138.745 33.3892C139.543 33.3364 140.103 32.9505 140.426 32.2315C140.579 31.9002 140.663 31.5458 140.679 31.1682Z" fill="#F6F9FE"/>
</g>
</g>
<g id="Group_12">
<path id="Vector_11" d="M131.775 41.3698L132.469 41.3238C132.698 41.257 132.955 41.24 133.241 41.2727M146.382 5.28721C149.181 5.548 151.82 7.68605 154.298 11.7014C154.398 11.8598 154.497 12.0212 154.595 12.1856C154.89 12.6822 155.183 13.2055 155.473 13.7554C154.804 13.1935 154.158 12.6936 153.533 12.2558C153.304 12.0944 153.076 11.9415 152.85 11.7971C150.33 10.16 148.208 9.6027 146.486 10.1252L143.526 11.9878C142.256 11.9167 141.243 10.8339 140.485 8.73936C142.04 6.90525 144.005 5.75454 146.382 5.28721ZM139.82 27.4266C140.754 27.627 141.597 28.1655 142.347 29.0424C142.448 29.1624 142.545 29.2852 142.638 29.4107C142.991 29.8931 143.277 30.4168 143.497 30.9818C143.756 31.627 143.929 32.3261 144.016 33.0792C144.04 33.2809 144.057 33.4865 144.068 33.6959C144.097 34.2348 144.086 34.7523 144.035 35.2485C143.977 35.7126 143.885 36.1579 143.758 36.5846C143.612 37.0741 143.418 37.5392 143.174 37.9798C143.076 38.1589 142.969 38.334 142.854 38.5049C142.845 38.5185 142.833 38.5322 142.817 38.5461C142.279 39.3571 141.652 39.9412 140.936 40.2985C140.452 40.5372 139.93 40.6751 139.37 40.7122C138.82 40.7486 138.293 40.68 137.79 40.5066C137.044 40.2461 136.352 39.7493 135.716 39.016C135.699 39.0043 135.686 38.9922 135.675 38.9799C135.546 38.8252 135.421 38.6654 135.301 38.5008C135.024 38.0946 134.787 37.6581 134.591 37.1912C134.426 36.7838 134.293 36.3533 134.193 35.8997C134.09 35.4138 134.023 34.9014 133.994 34.3625C133.983 34.1526 133.979 33.9461 133.981 33.7432C133.989 33.0503 134.077 32.3985 134.244 31.7878C134.259 31.7217 134.275 31.656 134.291 31.5909C134.441 30.9906 134.657 30.4337 134.938 29.9202C135.008 29.783 135.085 29.6487 135.168 29.5174C135.838 28.5466 136.624 27.9003 137.524 27.5786C137.884 27.4514 138.261 27.3748 138.654 27.3488C139.055 27.3223 139.443 27.3482 139.82 27.4266ZM133.241 41.2727C133.134 41.1293 133.03 40.9812 132.927 40.8284C132.623 40.3504 132.356 39.8255 132.126 39.2535C132.058 39.0813 131.99 38.9049 131.923 38.7243C131.787 38.3031 131.666 37.8589 131.562 37.3916C131.524 37.2164 131.489 37.0378 131.455 36.856C131.432 36.9092 131.409 36.9624 131.386 37.0156C131.351 37.0713 131.315 37.1253 131.279 37.1778C131.227 37.259 131.174 37.3401 131.118 37.421C131.019 37.5834 130.918 37.7451 130.814 37.9062C130.743 38.0143 130.657 38.1104 130.559 38.1944C130.396 38.4211 130.233 38.6386 130.071 38.8469C129.906 39.047 129.742 39.2387 129.579 39.4221C128.955 40.1297 128.308 40.7151 127.639 41.1783C126.507 41.9619 125.31 42.3964 124.049 42.4818C123.869 42.4913 123.689 42.4968 123.507 42.4982C123.404 42.4919 123.3 42.4859 123.196 42.48C121.363 42.3791 119.759 41.6067 118.385 40.1627C118.246 40.0161 118.108 39.8637 117.974 39.7055C117.429 39.056 116.924 38.2949 116.457 37.4221C116.028 36.6436 115.662 35.8281 115.358 34.9755C115.114 34.3016 114.909 33.6046 114.742 32.8845C114.622 32.3607 114.523 31.8246 114.443 31.2764C114.205 29.6558 114.144 27.9286 114.262 26.0946C114.286 25.7525 114.314 25.4148 114.344 25.0814C114.448 24.1476 114.593 23.2465 114.78 22.3782C115.395 19.597 116.471 17.1486 118.008 15.0328C118.121 14.8789 118.235 14.7292 118.352 14.5837C118.497 14.3992 118.642 14.2216 118.788 14.051C120.761 11.7667 122.97 10.7032 125.415 10.8606C127.279 10.9499 128.917 11.7588 130.329 13.2873C130.468 13.4392 130.606 13.5981 130.742 13.7639C131.225 14.3645 131.682 15.0578 132.112 15.8438C132.598 16.716 132.995 17.6328 133.305 18.5943C133.59 19.3979 133.815 20.2357 133.982 21.1076C134.084 21.6325 134.165 22.1699 134.223 22.7195C134.547 22.1297 134.891 21.5643 135.256 21.0233C136.375 19.3271 137.665 17.8722 139.128 16.6586C139.497 16.3241 139.881 16.0145 140.279 15.7297C143.292 13.6441 146.079 13.1366 148.641 14.2074C150.824 15.1413 152.274 17.0221 152.991 19.8498C153.105 20.2741 153.2 20.72 153.276 21.1875C153.345 21.6204 153.401 22.056 153.442 22.4943C153.549 23.8144 153.511 25.1605 153.33 26.5327C153.227 27.2584 153.085 27.9913 152.905 28.7314C152.77 29.2804 152.612 29.8335 152.432 30.3905C152.199 31.1123 151.928 31.8408 151.62 32.5761C151.602 32.616 151.585 32.6559 151.568 32.6958C151.248 33.4364 150.905 34.1439 150.539 34.8181C150.285 35.2914 150.019 35.7482 149.741 36.1887C149.429 36.6832 149.105 37.1568 148.771 37.6095C148.62 37.8044 148.468 37.9953 148.318 38.1821C147.821 38.8012 147.296 39.3786 146.745 39.9141C145.997 40.6372 145.199 41.2843 144.35 41.8555C144.31 41.8843 144.266 41.913 144.219 41.9416C141.536 43.8119 139.056 44.4023 136.781 43.7129C136.727 44.1558 136.41 44.5126 135.831 44.7835C135.301 45.0253 134.779 45.1632 134.265 45.1972C133.57 45.2432 132.741 45.1947 131.778 45.0517C131.752 45.0477 131.726 45.0429 131.7 45.0375C130.563 44.8575 129.605 44.5784 128.827 44.2004L133.241 41.2727ZM133.241 41.2727C133.784 41.2885 134.387 41.4553 135.05 41.7732C135.537 41.9793 135.924 42.2121 136.21 42.4716C136.564 42.8033 136.752 43.1784 136.774 43.5971C136.776 43.6228 136.778 43.6614 136.781 43.7129L133.241 41.2727ZM125.237 8.97316C126.489 8.73524 127.38 7.52644 127.909 5.34676C127.165 4.64432 126.353 4.07787 125.474 3.6474C124.326 3.08658 123.062 2.75676 121.684 2.65793C120.687 2.89354 119.738 3.36979 118.836 4.08667C116.851 5.66272 115.093 8.40174 113.562 12.3038C116.934 8.7215 119.792 7.12412 122.137 7.5116L125.237 8.97316ZM122.405 28.424C123.339 27.0701 124.514 26.3464 125.93 26.2528C127.319 26.1608 128.537 26.7262 129.584 27.9489C129.625 27.9976 129.666 28.0465 129.708 28.0958C130.202 28.7212 130.582 29.4196 130.847 30.1909C131.023 30.694 131.149 31.2283 131.223 31.7939C131.263 32.0567 131.29 32.3262 131.305 32.6025C131.329 33.0573 131.321 33.4971 131.279 33.922C131.254 34.2332 131.212 34.5332 131.153 34.8218C131.064 35.2764 130.939 35.711 130.777 36.1257C130.592 36.5779 130.363 37.0064 130.091 37.4115C130.073 37.4388 130.055 37.4658 130.037 37.4925C129.618 38.1096 129.147 38.593 128.623 38.9426C128.059 39.3268 127.432 39.5492 126.742 39.6098L126.51 39.6251C125.819 39.6498 125.166 39.5122 124.551 39.2121C123.993 38.9338 123.467 38.5164 122.974 37.9599C122.954 37.9357 122.933 37.9112 122.912 37.8865C122.605 37.5191 122.339 37.1233 122.112 36.6991C121.775 36.0568 121.53 35.3494 121.379 34.5771C121.305 34.1599 121.256 33.7238 121.231 33.269C121.216 32.9927 121.215 32.7215 121.226 32.4554C121.235 31.8843 121.297 31.3376 121.41 30.8154C121.591 30.0144 121.887 29.2714 122.297 28.5861C122.335 28.5317 122.371 28.4776 122.405 28.424ZM134.223 22.7195C134.26 23.0614 134.292 23.4081 134.318 23.7598C134.384 24.8607 134.381 26.0108 134.309 27.2099C134.296 27.4059 134.281 27.6007 134.262 27.7944C134.2 28.5403 134.103 29.2702 133.973 29.9841C133.88 30.5442 133.768 31.0942 133.635 31.6343C133.627 31.6478 133.621 31.6611 133.618 31.6742C133.426 32.4121 133.2 33.1248 132.939 33.8122C132.642 34.5906 132.301 35.3367 131.916 36.0504C131.769 36.3237 131.616 36.5923 131.455 36.856L134.223 22.7195Z" stroke="black" stroke-opacity="0.501961" stroke-width="0.0386797" stroke-linecap="round" stroke-linejoin="round"/>
</g>
</g>
</g>
</g>
</g>
<g id="Layer_1_4">
<g id="Layer_1_5">
<g id="Group_13">
<g id="Group_14">
<g id="Group_15">
<path id="Vector_12" d="M23.9696 136.857C22.8623 134.919 21.7944 132.922 20.7662 130.866C77.0836 148.03 137.04 151.431 200.634 141.069C199.329 142.928 197.945 144.787 196.481 146.646C135.616 156.019 78.1119 152.756 23.9696 136.857ZM35.1224 151.391C33.1845 149.533 31.3455 147.496 29.6053 145.281C80.0695 159.202 133.381 162.228 189.54 154.358C189.422 154.516 189.283 154.674 189.125 154.832C138.186 162.465 86.8521 161.318 35.1224 151.391ZM28.1816 143.383C27.0742 141.84 26.0262 140.278 25.0374 138.696C78.4678 154.16 135.161 157.363 195.117 148.307C193.891 149.809 192.566 151.273 191.142 152.697C133.836 160.844 79.5159 157.739 28.1816 143.383ZM16.9695 122.026C16.4554 120.603 15.9412 119.139 15.4271 117.637C39.3541 125.349 63.9337 130.549 89.1657 133.239C96.7591 134.029 104.412 134.623 112.124 135.018C142.932 136.442 174.69 134.287 207.397 128.552C206.843 129.897 206.23 131.261 205.558 132.645C173.484 138.143 142.339 140.199 112.124 138.815C104.412 138.459 96.7591 137.885 89.1657 137.095C64.4873 134.445 40.4219 129.422 16.9695 122.026ZM19.9357 129.145C19.1447 127.366 18.3735 125.527 17.6221 123.628C40.8767 130.945 64.7246 135.928 89.1657 138.578C96.7591 139.329 104.412 139.922 112.124 140.357C142.062 141.741 172.93 139.685 204.727 134.188C203.818 135.967 202.809 137.708 201.702 139.408C162.825 145.815 125.313 147.1 89.1657 143.264C65.5156 140.733 42.4389 136.027 19.9357 129.145Z" fill="#A07001"/>
<path id="Vector_13" d="M29.6053 145.281C29.1307 144.648 28.6561 144.016 28.1816 143.383C79.5158 157.739 133.836 160.844 191.142 152.696C190.628 153.29 190.094 153.843 189.54 154.358C133.381 162.228 80.0695 159.202 29.6053 145.281ZM25.0374 138.696C24.6815 138.063 24.3256 137.45 23.9696 136.857C78.1119 152.756 135.616 156.019 196.481 146.646C196.046 147.239 195.591 147.792 195.117 148.307C135.161 157.363 78.4678 154.16 25.0374 138.696ZM17.622 123.628C17.4243 123.114 17.2068 122.58 16.9695 122.026C40.4219 129.422 64.4873 134.445 89.1657 137.095C96.7591 137.885 104.412 138.459 112.124 138.815C142.339 140.199 173.484 138.143 205.558 132.645C205.281 133.159 205.004 133.674 204.727 134.188C172.93 139.685 142.062 141.741 112.124 140.357C104.412 139.922 96.7591 139.329 89.1657 138.578C64.7246 135.928 40.8767 130.945 17.622 123.628ZM20.7662 130.866C20.5289 130.272 20.252 129.699 19.9357 129.145C42.4389 136.027 65.5156 140.733 89.1657 143.264C125.313 147.1 162.825 145.815 201.702 139.408C201.346 139.922 200.99 140.476 200.634 141.069C137.039 151.431 77.0836 148.03 20.7662 130.866ZM4.1557 95.9836C2.89014 95.4695 1.64435 94.9553 0.418335 94.4412C2.19803 94.9949 3.97772 95.509 5.75742 95.9836C32.1364 103.735 59.5437 109.371 87.9793 112.891C88.3748 112.93 88.7702 112.99 89.1657 113.069C97.9851 114.018 105.638 114.769 112.124 115.323C113.033 115.323 113.943 115.382 114.853 115.501C146.531 117.834 179.456 117.656 213.626 114.967C179.297 121.097 146.373 123.233 114.853 121.374C113.943 121.374 113.033 121.334 112.124 121.255C105.321 120.781 98.5783 120.168 91.8946 119.416C90.985 119.258 90.0754 119.12 89.1657 119.001C59.5042 115.086 31.1675 107.413 4.1557 95.9836Z" fill="#654601"/>
<path id="Vector_14" d="M15.4271 117.637C14.9525 116.213 14.4977 114.789 14.0627 113.365C38.4247 121.275 63.4591 126.634 89.1657 129.442C96.7591 130.193 104.412 130.767 112.124 131.162C143.407 132.626 175.679 130.351 208.939 124.34C208.504 125.724 207.99 127.128 207.397 128.552C174.69 134.287 142.932 136.442 112.124 135.018C104.412 134.623 96.7591 134.029 89.1657 133.239C63.9336 130.549 39.3541 125.349 15.4271 117.637Z" fill="#875F01"/>
<path id="Vector_15" d="M4.51164 110.043L0.418335 94.4412C1.64435 94.9553 2.89014 95.4695 4.1557 95.9836C31.1675 107.413 59.5042 115.086 89.1657 119.001C90.0754 119.12 90.985 119.258 91.8946 119.416C98.5783 120.168 105.321 120.781 112.124 121.255C113.033 121.334 113.943 121.374 114.853 121.374C146.373 123.233 179.297 121.097 213.626 114.967L211.787 123.865C210.877 124.024 209.928 124.182 208.939 124.34C175.679 130.351 143.407 132.626 112.124 131.162C104.412 130.767 96.7591 130.193 89.1657 129.442C63.459 126.634 38.4247 121.275 14.0627 113.365C10.8988 112.297 7.71509 111.19 4.51164 110.043Z" fill="#BA8201"/>
</g>
</g>
</g>
</g>
</g>
<path id="fgUnh" d="M107.4 133.364L107.364 129.332L107.292 129.044C107.196 128.948 107.124 128.9 107.076 128.9L106.68 128.828L91.956 128.9L91.776 129.08L91.668 129.368V134.84H95.196V136.568H91.668V153.488C91.668 154.064 91.944 154.436 92.496 154.604C92.736 154.676 92.88 154.736 92.928 154.784L93.072 155H84.792L84.936 154.82L85.476 154.604C85.668 154.532 85.836 154.412 85.98 154.244C86.052 154.1 86.112 153.86 86.16 153.524V136.568H83.352V134.84H86.16V128.72C86.16 127.952 86.472 127.412 87.096 127.1C87.624 126.836 88.248 126.704 88.968 126.704L110.388 126.668C111.468 126.668 112.188 127.016 112.548 127.712L112.656 128.144L112.728 128.756V133.364H107.4ZM93.4042 136.568V134.84H111.98V136.568H109.28V140.672H101.216C100.808 140.672 100.568 140.924 100.496 141.428V142.544C100.496 142.952 100.844 143.276 101.54 143.516L102.26 143.696L103.052 143.732L106.58 143.696L106.868 143.768L107.192 143.804L107.804 144.02L108.416 144.308C108.92 144.548 109.22 145.028 109.316 145.748V147.044L109.424 147.656C109.496 147.776 109.628 147.872 109.82 147.944L110.216 148.16L110.36 148.304L103.952 148.268L104.096 148.16L104.492 147.944C104.66 147.92 104.792 147.824 104.888 147.656L105.032 147.08V146.9L104.888 146.612L104.528 146.324L104.06 146.072L103.52 145.928L100.856 145.892C100.472 146.012 100.196 146.18 100.028 146.396C99.8842 146.588 99.7882 146.852 99.7402 147.188V150.86C99.7402 151.724 100.22 152.144 101.18 152.12L103.34 152.084L103.88 152.048L104.348 151.796C104.516 151.676 104.624 151.544 104.672 151.4L104.816 150.896V150.464H109.64V150.86C109.64 152.036 109.352 152.912 108.776 153.488C108.296 153.968 107.408 154.292 106.112 154.46C105.68 154.508 105.212 154.532 104.708 154.532L100.1 154.496C98.9722 154.496 98.1322 154.424 97.5802 154.28C95.9722 153.896 95.1682 152.768 95.1682 150.896V148.16C95.1682 146.96 95.6482 146.108 96.6082 145.604L96.2122 145.496L95.9242 145.244L95.8162 145.172L95.7082 145.028L95.4202 144.56L95.3482 144.128V141.428C95.3482 140.444 95.6602 139.748 96.2842 139.34C96.9322 138.932 97.9282 138.728 99.2722 138.728L104.672 138.692V136.568H93.4042ZM109.887 136.568V134.84H134.367V136.568H109.887ZM133.683 146.432L133.395 146.324C132.075 144.692 130.995 143.876 130.155 143.876L125.547 143.84V147.224C125.547 148.424 125.235 149.384 124.611 150.104C124.131 150.512 123.543 150.824 122.847 151.04C122.151 151.256 121.239 151.352 120.111 151.328L117.807 151.292C116.535 151.268 115.611 151.184 115.035 151.04C113.859 150.728 113.043 150.032 112.587 148.952C112.443 148.496 112.371 147.932 112.371 147.26L112.335 144.164C112.311 142.892 112.623 141.956 113.271 141.356C114.135 140.54 115.635 140.132 117.771 140.132L134.007 140.06V146.504L133.683 146.432ZM121.227 143.876H118.851C118.059 143.876 117.663 144.38 117.663 145.388V147.224C117.663 148.184 118.047 148.652 118.815 148.628L119.967 148.592L120.579 148.556L120.975 148.34L121.155 147.944L121.227 147.26V143.876ZM148.59 136.568V141.824H137.142C136.542 141.944 136.194 142.316 136.098 142.94V150.932C136.098 151.748 136.482 152.228 137.25 152.372L138.978 152.336V148.772L139.086 147.98C139.278 147.452 139.602 147.116 140.058 146.972L141.102 146.828L146.862 146.792C147.15 146.792 147.39 146.876 147.582 147.044C147.798 147.188 148.014 147.428 148.23 147.764L148.626 148.628L148.77 149.42V150.932C148.77 152.132 148.506 153.056 147.978 153.704C147.378 154.448 146.454 154.82 145.206 154.82L145.458 155.144L145.71 155.504L146.214 156.26L146.718 157.052L147.474 157.988L148.626 159.32H143.658L140.562 154.964L136.242 155C134.154 155.024 132.654 154.628 131.742 153.812C131.094 153.236 130.77 152.288 130.77 150.968V142.904C130.77 141.104 131.886 140 134.118 139.592C134.862 139.448 135.762 139.376 136.818 139.376L142.758 139.34V136.568H129.258V134.84H151.398V136.568H148.59ZM145.35 150.536C145.35 150.416 145.338 150.284 145.314 150.14C145.29 149.972 145.23 149.84 145.134 149.744C145.038 149.648 144.906 149.564 144.738 149.492L142.938 149.42L142.578 149.744L142.362 150.176L142.254 150.644L142.218 150.968V151.184L142.254 151.364L142.29 151.58C142.314 151.7 142.338 151.772 142.362 151.796L142.578 152.156L142.902 152.336H144.702C144.822 152.336 144.942 152.264 145.062 152.12L145.278 151.58V151.436L145.35 151.22L145.386 150.968L145.35 150.536ZM159.459 136.568V153.488C159.459 153.8 159.531 154.064 159.675 154.28C159.819 154.4 160.047 154.52 160.359 154.64C160.503 154.688 160.599 154.736 160.647 154.784L160.791 155H152.511L152.655 154.82L153.195 154.604C153.675 154.412 153.915 154.052 153.915 153.524V136.568H151.107V134.84H153.807V129.332L153.735 129.044C153.615 128.948 153.531 128.9 153.483 128.9L153.087 128.828L148.227 128.792L147.831 128.9L147.615 129.08L147.543 129.656L147.507 133.832H141.927V128.72L142.143 127.928C142.311 127.28 142.935 126.884 144.015 126.74C144.207 126.716 144.483 126.704 144.843 126.704L156.831 126.668C157.911 126.668 158.631 127.016 158.991 127.712L159.099 128.144L159.171 128.756V134.84H162.915V136.568H159.459Z" fill="black"/>
<path id="fgUnh_2" d="M106.4 132.364L106.364 128.332L106.292 128.044C106.196 127.948 106.124 127.9 106.076 127.9L105.68 127.828L90.956 127.9L90.776 128.08L90.668 128.368V133.84H94.196V135.568H90.668V152.488C90.668 153.064 90.944 153.436 91.496 153.604C91.736 153.676 91.88 153.736 91.928 153.784L92.072 154H83.792L83.936 153.82L84.476 153.604C84.668 153.532 84.836 153.412 84.98 153.244C85.052 153.1 85.112 152.86 85.16 152.524V135.568H82.352V133.84H85.16V127.72C85.16 126.952 85.472 126.412 86.096 126.1C86.624 125.836 87.248 125.704 87.968 125.704L109.388 125.668C110.468 125.668 111.188 126.016 111.548 126.712L111.656 127.144L111.728 127.756V132.364H106.4ZM92.4042 135.568V133.84H110.98V135.568H108.28V139.672H100.216C99.8082 139.672 99.5682 139.924 99.4962 140.428V141.544C99.4962 141.952 99.8442 142.276 100.54 142.516L101.26 142.696L102.052 142.732L105.58 142.696L105.868 142.768L106.192 142.804L106.804 143.02L107.416 143.308C107.92 143.548 108.22 144.028 108.316 144.748V146.044L108.424 146.656C108.496 146.776 108.628 146.872 108.82 146.944L109.216 147.16L109.36 147.304L102.952 147.268L103.096 147.16L103.492 146.944C103.66 146.92 103.792 146.824 103.888 146.656L104.032 146.08V145.9L103.888 145.612L103.528 145.324L103.06 145.072L102.52 144.928L99.8562 144.892C99.4722 145.012 99.1962 145.18 99.0282 145.396C98.8842 145.588 98.7882 145.852 98.7402 146.188V149.86C98.7402 150.724 99.2202 151.144 100.18 151.12L102.34 151.084L102.88 151.048L103.348 150.796C103.516 150.676 103.624 150.544 103.672 150.4L103.816 149.896V149.464H108.64V149.86C108.64 151.036 108.352 151.912 107.776 152.488C107.296 152.968 106.408 153.292 105.112 153.46C104.68 153.508 104.212 153.532 103.708 153.532L99.1002 153.496C97.9722 153.496 97.1322 153.424 96.5802 153.28C94.9722 152.896 94.1682 151.768 94.1682 149.896V147.16C94.1682 145.96 94.6482 145.108 95.6082 144.604L95.2122 144.496L94.9242 144.244L94.8162 144.172L94.7082 144.028L94.4202 143.56L94.3482 143.128V140.428C94.3482 139.444 94.6602 138.748 95.2842 138.34C95.9322 137.932 96.9282 137.728 98.2722 137.728L103.672 137.692V135.568H92.4042ZM108.887 135.568V133.84H133.367V135.568H108.887ZM132.683 145.432L132.395 145.324C131.075 143.692 129.995 142.876 129.155 142.876L124.547 142.84V146.224C124.547 147.424 124.235 148.384 123.611 149.104C123.131 149.512 122.543 149.824 121.847 150.04C121.151 150.256 120.239 150.352 119.111 150.328L116.807 150.292C115.535 150.268 114.611 150.184 114.035 150.04C112.859 149.728 112.043 149.032 111.587 147.952C111.443 147.496 111.371 146.932 111.371 146.26L111.335 143.164C111.311 141.892 111.623 140.956 112.271 140.356C113.135 139.54 114.635 139.132 116.771 139.132L133.007 139.06V145.504L132.683 145.432ZM120.227 142.876H117.851C117.059 142.876 116.663 143.38 116.663 144.388V146.224C116.663 147.184 117.047 147.652 117.815 147.628L118.967 147.592L119.579 147.556L119.975 147.34L120.155 146.944L120.227 146.26V142.876ZM147.59 135.568V140.824H136.142C135.542 140.944 135.194 141.316 135.098 141.94V149.932C135.098 150.748 135.482 151.228 136.25 151.372L137.978 151.336V147.772L138.086 146.98C138.278 146.452 138.602 146.116 139.058 145.972L140.102 145.828L145.862 145.792C146.15 145.792 146.39 145.876 146.582 146.044C146.798 146.188 147.014 146.428 147.23 146.764L147.626 147.628L147.77 148.42V149.932C147.77 151.132 147.506 152.056 146.978 152.704C146.378 153.448 145.454 153.82 144.206 153.82L144.458 154.144L144.71 154.504L145.214 155.26L145.718 156.052L146.474 156.988L147.626 158.32H142.658L139.562 153.964L135.242 154C133.154 154.024 131.654 153.628 130.742 152.812C130.094 152.236 129.77 151.288 129.77 149.968V141.904C129.77 140.104 130.886 139 133.118 138.592C133.862 138.448 134.762 138.376 135.818 138.376L141.758 138.34V135.568H128.258V133.84H150.398V135.568H147.59ZM144.35 149.536C144.35 149.416 144.338 149.284 144.314 149.14C144.29 148.972 144.23 148.84 144.134 148.744C144.038 148.648 143.906 148.564 143.738 148.492L141.938 148.42L141.578 148.744L141.362 149.176L141.254 149.644L141.218 149.968V150.184L141.254 150.364L141.29 150.58C141.314 150.7 141.338 150.772 141.362 150.796L141.578 151.156L141.902 151.336H143.702C143.822 151.336 143.942 151.264 144.062 151.12L144.278 150.58V150.436L144.35 150.22L144.386 149.968L144.35 149.536ZM158.459 135.568V152.488C158.459 152.8 158.531 153.064 158.675 153.28C158.819 153.4 159.047 153.52 159.359 153.64C159.503 153.688 159.599 153.736 159.647 153.784L159.791 154H151.511L151.655 153.82L152.195 153.604C152.675 153.412 152.915 153.052 152.915 152.524V135.568H150.107V133.84H152.807V128.332L152.735 128.044C152.615 127.948 152.531 127.9 152.483 127.9L152.087 127.828L147.227 127.792L146.831 127.9L146.615 128.08L146.543 128.656L146.507 132.832H140.927V127.72L141.143 126.928C141.311 126.28 141.935 125.884 143.015 125.74C143.207 125.716 143.483 125.704 143.843 125.704L155.831 125.668C156.911 125.668 157.631 126.016 157.991 126.712L158.099 127.144L158.171 127.756V133.84H161.915V135.568H158.459Z" fill="white"/>
</g>
</g>
</svg>
