<svg width="1920" height="1080" viewBox="0 0 1920 1080" fill="none" xmlns="http://www.w3.org/2000/svg">
<g id="index_bg 1" clip-path="url(#clip0)">
<g id="Group">
<g id="Group 2">
<g id="Group 3">
<g id="Layer 6">
<g id="Layer 1">
<path id="Vector" d="M1920 1080V0H0V1080H1920Z" fill="#8FC7FF"/>
</g>
</g>
<g id="Layer 1 2">
<path id="Vector 2" d="M1622.56 722.67C1628.06 714.73 1630.19 706.49 1629.12 697.95C1628.05 689.41 1623.63 681.63 1616.18 674.95C1608.71 668.117 1599.41 663.601 1589.42 661.95L1586.23 662.87C1579.85 647.61 1567.62 635.41 1549.36 626.25C1531.1 617.09 1512.36 613.74 1492.64 616.18C1500.26 596.18 1505.58 580.79 1508.59 570.26C1513.38 553.02 1515.51 537.26 1515.33 523.26C1515.1 507 1511.1 491.017 1503.63 476.57C1495.63 461.196 1483.39 448.439 1468.36 439.81C1462.36 436.3 1459.36 434.47 1459.14 434.31C1456.32 432.544 1453.91 430.207 1452.05 427.45C1450.6 424.943 1449.81 422.107 1449.75 419.21C1449.75 418.45 1449.75 415.55 1449.92 410.36C1450.46 394.65 1446.02 379.54 1436.98 365.05C1427.77 350.55 1415.18 338.96 1399.05 330.11C1383.05 321.41 1365.05 316.23 1345.17 314.85C1326.04 313.264 1306.79 315.647 1288.63 321.85C1283.13 323.85 1280.12 324.9 1279.41 325.06C1276.32 326.071 1273.09 326.633 1269.84 326.73C1265.92 326.824 1262.02 326.204 1258.32 324.9C1256.19 324.29 1252.65 322.77 1247.68 320.78C1197.68 299.73 1154.27 293.32 1116.68 301.56C1094.01 306.593 1075.76 317.12 1061.91 333.14C1049.32 347.64 1044.54 362.43 1047.37 377.08C1043.12 365.64 1033.37 356.33 1018.13 349.31C1001.34 341.204 982.373 338.748 964.07 342.31C946.8 345.58 930.747 353.49 917.63 365.19C905.309 375.869 895.76 389.374 889.8 404.55C856.3 374.19 821.2 355.73 784.69 348.87C763.668 344.867 742.036 345.385 721.23 350.39C699.23 355.73 682.23 365.04 670.01 378.46C658.13 360.31 640.23 345.97 616.84 335.59C593.828 325.256 568.612 320.789 543.45 322.59C518.615 324.204 494.592 332.079 473.62 345.48C452.55 359 438 375.42 429.86 395C411.067 377.613 386.96 366.07 357.54 360.37C328.12 354.72 300.29 356.1 273.7 364.64C247.11 373.18 225.7 387.64 209.01 408.12C192.343 428.72 184.543 450.537 185.61 473.57C161.5 467.78 137.22 469.45 112.61 478.91C88.15 488.37 70.96 502.56 61.39 521.33C51.64 540.09 51.28 559.93 60.32 580.68C69.36 601.43 84.78 616.68 106.76 626.6C66.7133 632.093 36.5233 643.537 16.19 660.93C4.13661 671.297 -3.66339 683.5 -7.21006 697.54C-11 712.14 -8.66006 725.26 -0.500061 736.86C-29.92 737.77 -55.8 747.38 -78.31 766C-100.82 784.62 -112.31 805.82 -113.05 829.77C-113.23 834.04 -112.17 836.94 -110.05 838.47C-108.778 839.342 -107.325 839.913 -105.8 840.14C-104.91 840.3 -103.32 840.45 -101.19 840.75C394.75 870.663 890.513 878.597 1386.1 864.55C1426.34 863.33 1457.18 861.81 1478.63 859.82C1512.63 856.487 1542.47 850.947 1568.14 843.2C1604.81 832.06 1627.85 816.65 1637.27 796.97C1642.94 784.91 1642.05 772.71 1634.27 760.35C1626.27 747.54 1614.95 740.97 1600.06 740.67C1609.62 736.55 1617.07 730.75 1622.56 722.67Z" fill="white"/>
</g>
<path id="Vector 3" d="M1335.57 563.72C1313.77 554.88 1292.32 553.2 1271.05 558.72C1271.93 537.06 1264.84 516.46 1250.13 497.24C1235.42 478.02 1216.46 464.43 1192.88 456.35C1169.3 448.27 1144.67 447.04 1118.61 452.35C1092.55 457.66 1071.29 468.67 1054.61 485C1047.34 466.54 1034.4 451.13 1015.79 438.47C997.507 425.969 976.209 418.594 954.11 417.11C931.736 415.496 909.33 419.757 889.11 429.47C868.19 439.23 852.59 452.66 841.96 469.74C831.15 457.08 815.9 448.23 796.41 443.35C778.03 438.647 758.829 438.125 740.22 441.82C707.96 448.08 676.94 465.62 647.16 494C641.97 479.926 633.531 467.277 622.53 457.08C611.091 446.126 596.763 438.664 581.23 435.57C564.998 432.151 548.083 434.47 533.37 442.13C519.9 448.84 511.37 457.54 507.49 468.22C510.15 454.33 505.9 440.6 494.73 426.87C482.5 411.77 466.37 401.87 446.34 397.27C413.2 389.49 374.677 395.49 330.77 415.27C327.675 416.819 324.477 418.156 321.2 419.27C317.963 420.437 314.541 421.007 311.1 420.95C308.201 420.77 305.34 420.205 302.59 419.27C299.05 417.9 296.21 416.98 294.44 416.22C278.467 410.346 261.397 408.055 244.44 409.51C227.589 410.635 211.217 415.591 196.57 424C182.836 431.835 171.356 443.08 163.24 456.65C155.09 470.23 151.19 484.42 151.55 499.07C151.72 503.49 151.72 506.24 151.72 507.3C151.64 510.028 150.913 512.698 149.6 515.09C147.946 517.647 145.772 519.828 143.22 521.49C143.04 521.49 140.38 523.17 134.88 526.68C121.398 534.952 110.573 546.919 103.69 561.16C97 574.56 93.59 589.2 93.23 605.07C93.05 618.34 95 632.99 99.23 649.16C101.89 659.23 106.5 673.57 113.23 692.34C95.8732 690.14 78.2639 693.449 62.89 701.8C46.76 710.34 35.95 721.8 30.28 736.13L27.44 735.21C18.4919 736.821 10.2309 741.074 3.71997 747.42C-2.84003 753.82 -6.74003 761 -7.80003 769.08C-8.86003 777.16 -6.91003 784.8 -2.13003 792.27C2.69011 799.683 9.67188 805.436 17.87 808.75C4.57997 809.05 -5.53003 815.31 -12.44 827.21C-19.1733 838.963 -20.06 850.407 -15.1 861.54C-6.7467 880.153 13.6467 894.64 46.08 905C68.95 912.32 95.36 917.51 125.49 920.56C144.463 922.56 171.76 924.087 207.38 925.14C646.78 938.407 1085.82 930.98 1524.51 902.86C1525.95 902.815 1527.38 902.611 1528.77 902.25C1530.06 902.044 1531.27 901.522 1532.31 900.73C1534.31 899.35 1535.15 896.61 1534.97 892.64C1534.44 870.213 1524.16 850.277 1504.13 832.83C1485.1 815.823 1460.64 806.142 1435.13 805.52C1442.22 794.693 1444.17 782.337 1440.98 768.45C1437.98 755.33 1431.05 743.89 1420.24 734.28C1402.34 717.953 1375.58 707.22 1339.95 702.08C1359.45 692.93 1373.27 678.59 1381.25 659.08C1389.23 639.57 1388.87 620.94 1380.36 603.39C1372.43 586 1357.19 572.73 1335.57 563.72Z" fill="white"/>
</g>
<path id="Vector 4" d="M-23.6602 770.59C-90.3202 783.59 -141.66 795.4 -177.07 806.18V1041.43H1938.93V819C1650.36 757.92 1363.11 719.71 1077.19 704.37C848.397 692.23 625.687 694.97 409.06 712.59C253.8 724.91 109.56 744.243 -23.6602 770.59Z" fill="#8DC63F"/>
</g>
<g id="Group 4">
<path id="Vector 5" d="M1422.28 980.84C1420.7 979.316 1418.84 978.125 1416.79 977.34C1414.65 976.73 1412.97 977.03 1411.9 978.56C1409.9 981 1410.38 983.13 1413.13 984.66C1415.76 986.084 1418.68 986.869 1421.67 986.95C1419.48 988.125 1417.6 989.796 1416.18 991.83C1414.8 993.97 1414.96 995.95 1416.63 997.63C1418.31 999.46 1420.14 999.63 1421.82 998.24C1423.19 997.17 1424.42 995.24 1425.48 992.24C1425.97 994.002 1427.02 995.554 1428.48 996.66C1429.62 997.592 1431.01 998.176 1432.48 998.34C1433.18 998.512 1433.92 998.504 1434.62 998.317C1435.32 998.13 1435.96 997.77 1436.48 997.27C1438.31 995.59 1438.76 993.76 1437.85 991.78C1436.79 989.724 1435.14 988.027 1433.12 986.9C1434.65 986.744 1436.15 986.332 1437.55 985.68C1438.83 984.981 1439.87 983.92 1440.55 982.63C1440.99 982.047 1441.26 981.358 1441.34 980.633C1441.42 979.908 1441.31 979.175 1441.01 978.51C1440.8 977.934 1440.47 977.407 1440.05 976.96C1439.63 976.513 1439.12 976.156 1438.56 975.91C1437.4 975.416 1436.12 975.311 1434.9 975.61C1433.61 975.88 1432.41 976.456 1431.39 977.29C1432.31 972.29 1430.78 969.66 1426.82 969.66C1425.67 969.562 1424.53 969.9 1423.63 970.606C1422.72 971.313 1422.11 972.336 1421.93 973.47C1421.06 975.5 1421.21 978 1422.28 980.84Z" fill="#ED1C24"/>
<path id="Vector 6" d="M1430.37 985.73C1430.4 985.185 1430.3 984.641 1430.09 984.138C1429.88 983.636 1429.55 983.189 1429.14 982.83C1428.79 982.452 1428.37 982.149 1427.9 981.939C1427.42 981.729 1426.92 981.617 1426.4 981.61C1425.86 981.58 1425.31 981.674 1424.81 981.885C1424.31 982.097 1423.86 982.42 1423.5 982.83C1423.11 983.203 1422.8 983.653 1422.59 984.152C1422.38 984.651 1422.27 985.189 1422.28 985.73C1422.25 986.251 1422.35 986.771 1422.56 987.247C1422.77 987.724 1423.09 988.143 1423.5 988.47C1423.87 988.865 1424.32 989.177 1424.82 989.387C1425.32 989.597 1425.86 989.7 1426.4 989.69C1426.92 989.719 1427.44 989.624 1427.92 989.412C1428.39 989.199 1428.81 988.877 1429.14 988.47C1429.52 988.121 1429.83 987.698 1430.04 987.227C1430.25 986.756 1430.36 986.246 1430.37 985.73Z" fill="#8F1116"/>
<path id="Vector 7" d="M375.82 964.83C375.21 968.03 376.43 969.83 379.17 970.47C381.31 970.93 384.17 970.62 388.02 969.55C386.665 971.415 385.921 973.655 385.89 975.96C385.818 977.816 386.239 979.659 387.11 981.3C387.504 982.129 388.102 982.845 388.85 983.379C389.597 983.912 390.468 984.247 391.38 984.35C392.66 984.699 394.022 984.604 395.24 984.079C396.459 983.554 397.464 982.63 398.09 981.46C399.16 979.32 399.62 976.57 399.47 972.91C400.758 974.319 402.311 975.461 404.04 976.27C405.707 977.042 407.564 977.307 409.38 977.03C410.279 976.939 411.146 976.645 411.913 976.168C412.681 975.691 413.33 975.046 413.81 974.28C414.247 973.641 414.529 972.909 414.635 972.142C414.741 971.375 414.667 970.594 414.42 969.86C414.001 968.377 413.152 967.051 411.98 966.05C410.738 964.9 409.207 964.108 407.55 963.76C410.15 962.54 411.82 961.16 412.74 959.49C413.65 957.65 413.35 955.49 411.67 953.38C409.53 950.64 407.09 950.03 404.19 951.25C401.91 952.31 399.623 954.443 397.33 957.65C397.631 954.892 397.424 952.103 396.72 949.42C395.8 946.82 394.13 945.42 391.84 945.42C387.84 945.27 386.04 947.25 386.5 951.22C386.8 954.42 388.18 957.78 390.62 961.44C386.95 960.07 384.06 959.44 381.62 959.61C378.11 960.1 376.28 961.77 375.82 964.83Z" fill="white"/>
<path id="Vector 8" d="M398.4 969.71C398.945 969.366 399.397 968.893 399.716 968.333C400.035 967.774 400.212 967.144 400.23 966.5C400.385 965.161 400.059 963.811 399.31 962.69C398.52 961.689 397.373 961.033 396.11 960.86C395.459 960.764 394.795 960.81 394.163 960.995C393.531 961.18 392.947 961.499 392.45 961.93C391.911 962.313 391.466 962.814 391.149 963.394C390.832 963.974 390.651 964.619 390.62 965.28C390.521 965.93 390.564 966.595 390.747 967.227C390.93 967.859 391.249 968.443 391.68 968.94C392.027 969.482 392.501 969.933 393.059 970.253C393.618 970.574 394.246 970.754 394.89 970.78C396.143 970.799 397.37 970.424 398.4 969.71Z" fill="#FBB040"/>
<path id="Vector 9" d="M461.56 1016.7C461.432 1015.19 460.964 1013.73 460.19 1012.43C459.815 1011.81 459.305 1011.28 458.697 1010.88C458.089 1010.49 457.4 1010.23 456.68 1010.14C456.041 1010.07 455.395 1010.15 454.788 1010.36C454.182 1010.57 453.629 1010.91 453.17 1011.36C452.22 1012.19 451.576 1013.32 451.34 1014.56C451.106 1015.88 451.106 1017.24 451.34 1018.56C447.07 1015.35 444.02 1015.66 442.34 1019.32C441.12 1021.92 441.57 1023.9 443.56 1025.58C445.65 1027.14 448.132 1028.09 450.73 1028.32C448.565 1029.06 446.586 1030.25 444.93 1031.83C443.25 1033.51 442.93 1035.19 443.71 1036.83C445.08 1039.73 447.22 1040.34 449.97 1038.35C452.466 1036.56 454.505 1034.21 455.92 1031.49C456.22 1034.69 456.83 1037.13 457.92 1038.81C459.29 1041.1 461.12 1041.71 463.72 1040.95C466.16 1040.18 467.23 1038.66 466.62 1036.52C465.805 1034.23 464.502 1032.15 462.8 1030.42C464.616 1030.73 466.481 1030.46 468.14 1029.66C469.511 1029.03 470.676 1028.02 471.5 1026.76C472.021 1026.02 472.337 1025.15 472.414 1024.24C472.491 1023.34 472.327 1022.43 471.939 1021.61C471.551 1020.78 470.953 1020.08 470.205 1019.56C469.457 1019.05 468.586 1018.74 467.68 1018.67C465.293 1018.78 462.978 1019.52 460.97 1020.81C461.472 1019.5 461.673 1018.1 461.56 1016.7Z" fill="#ED5739"/>
<path id="Vector 10" d="M458.66 1023C458.195 1022.75 457.679 1022.61 457.152 1022.58C456.624 1022.56 456.098 1022.65 455.61 1022.85C454.582 1023.2 453.715 1023.91 453.17 1024.85C452.92 1025.32 452.777 1025.83 452.751 1026.36C452.725 1026.89 452.817 1027.42 453.02 1027.91C453.193 1028.44 453.471 1028.93 453.837 1029.35C454.203 1029.77 454.65 1030.11 455.15 1030.35C456.114 1030.77 457.199 1030.83 458.2 1030.5C459.198 1030.1 460.05 1029.4 460.64 1028.5C460.892 1028.01 461.037 1027.47 461.064 1026.91C461.092 1026.36 461.002 1025.81 460.8 1025.29C460.616 1024.78 460.331 1024.32 459.964 1023.93C459.596 1023.53 459.152 1023.22 458.66 1023Z" fill="#FBB040"/>
<path id="Vector 11" d="M805 910.66C804.314 910.116 803.449 909.846 802.575 909.903C801.701 909.96 800.879 910.341 800.27 910.97C797.683 913.41 799.057 915.697 804.39 917.83C803.021 918.141 801.82 918.959 801.03 920.12C800.294 920.986 799.773 922.014 799.51 923.12C799.426 923.689 799.463 924.269 799.62 924.823C799.777 925.376 800.05 925.89 800.42 926.33C801.8 927.7 803.17 928.16 804.85 927.4C806.441 926.562 807.763 925.289 808.66 923.73C808.788 924.891 809.099 926.025 809.58 927.09C810.135 928.077 810.921 928.914 811.87 929.53C812.342 929.825 812.87 930.019 813.421 930.098C813.972 930.177 814.534 930.14 815.07 929.99C815.521 929.809 815.931 929.539 816.275 929.195C816.619 928.851 816.889 928.441 817.07 927.99C817.407 927.063 817.513 926.068 817.38 925.09C817.177 924.068 816.704 923.118 816.01 922.34C820.01 923.26 821.96 922.19 821.96 918.98C822.066 918.093 821.823 917.199 821.282 916.488C820.74 915.777 819.944 915.304 819.06 915.17C817.53 914.71 815.7 914.87 813.26 915.63C814.445 914.368 815.424 912.927 816.16 911.36C816.492 910.719 816.581 909.98 816.412 909.278C816.243 908.577 815.827 907.96 815.24 907.54C813.41 906.02 811.73 906.32 810.51 908.3C809.341 910.294 808.71 912.558 808.68 914.87C807.766 913.221 806.512 911.786 805 910.66Z" fill="white"/>
<path id="Vector 12" d="M809.57 921.8C809.968 921.797 810.361 921.715 810.726 921.559C811.092 921.403 811.423 921.175 811.7 920.89C811.999 920.621 812.236 920.291 812.395 919.921C812.554 919.552 812.631 919.152 812.62 918.75C812.617 918.35 812.534 917.955 812.376 917.587C812.218 917.22 811.988 916.887 811.7 916.61C811.432 916.313 811.103 916.078 810.735 915.921C810.367 915.764 809.97 915.688 809.57 915.7C809.171 915.702 808.776 915.783 808.408 915.939C808.041 916.095 807.708 916.324 807.43 916.61C807.132 916.879 806.897 917.21 806.74 917.58C806.582 917.949 806.507 918.349 806.52 918.75C806.508 919.174 806.582 919.595 806.738 919.989C806.895 920.383 807.13 920.74 807.43 921.04C807.716 921.307 808.053 921.512 808.421 921.642C808.789 921.773 809.18 921.827 809.57 921.8Z" fill="#FBB040"/>
<path id="Vector 13" d="M1024.08 904.1C1023.77 906.54 1024.54 907.92 1026.82 908.38C1029.05 908.613 1031.3 908.297 1033.38 907.46C1032.4 908.9 1031.87 910.599 1031.86 912.34C1031.89 913.778 1032.25 915.19 1032.93 916.46C1033.23 917.081 1033.68 917.616 1034.24 918.016C1034.8 918.417 1035.45 918.669 1036.13 918.75C1037.1 918.953 1038.11 918.84 1039.01 918.428C1039.91 918.016 1040.65 917.326 1041.13 916.46C1041.96 914.432 1042.22 912.216 1041.89 910.05C1042.89 911.083 1044.08 911.912 1045.4 912.49C1046.71 912.995 1048.12 913.203 1049.52 913.1C1050.22 913.067 1050.89 912.853 1051.48 912.48C1052.07 912.106 1052.55 911.586 1052.87 910.97C1053.18 910.473 1053.37 909.91 1053.42 909.327C1053.48 908.743 1053.39 908.155 1053.18 907.61C1052.81 906.472 1052.11 905.465 1051.18 904.71C1050.22 903.885 1049.07 903.311 1047.83 903.04C1052.25 900.9 1053.32 898.31 1050.83 895.25C1049.15 893.25 1047.32 892.66 1045.03 893.73C1042.9 894.877 1041.12 896.559 1039.84 898.61C1040.15 892.51 1038.62 889.46 1035.42 889.3C1032.42 889.3 1031 890.83 1031.42 893.88C1031.93 896.698 1033.08 899.36 1034.78 901.66C1032.61 900.738 1030.26 900.321 1027.91 900.44C1026.92 900.421 1025.96 900.795 1025.24 901.481C1024.52 902.167 1024.11 903.108 1024.08 904.1Z" fill="#ADF1FF"/>
<path id="Vector 14" d="M1041.47 907.31C1042.24 906.672 1042.74 905.759 1042.85 904.763C1042.97 903.767 1042.69 902.766 1042.08 901.97C1041.78 901.562 1041.39 901.227 1040.94 900.988C1040.49 900.749 1040 900.613 1039.49 900.59C1039 900.517 1038.51 900.547 1038.03 900.68C1037.56 900.813 1037.12 901.044 1036.74 901.36C1036 901.982 1035.52 902.848 1035.37 903.8C1035.29 904.285 1035.32 904.78 1035.45 905.253C1035.58 905.726 1035.81 906.165 1036.13 906.54C1036.79 907.312 1037.71 907.805 1038.72 907.92C1039.19 908.04 1039.69 908.047 1040.17 907.941C1040.64 907.835 1041.09 907.619 1041.47 907.31Z" fill="white"/>
</g>
</g>
<g id="Group 6">
<g id="Group 7">
<path id="Vector 153" d="M445.29 1111C493.957 1100.96 554.29 1083.88 626.29 1059.77L-32.2101 1051.56L-114.85 1050.43C-126.74 1070.1 -138.77 1090.2 -151.08 1111H445.29Z" fill="url(#paint0_linear)"/>
<path id="Vector 154" d="M722.67 1030.17C734.84 1030.17 741.21 1030.17 741.92 1030.02C742.92 1029.88 727.77 1029.46 696.35 1029.02C646.25 1028.17 565.773 1029.45 454.92 1032.84C343.96 1035.96 252.627 1025.96 180.92 1002.84C109.04 979.613 64.0866 975.843 46.0599 991.53C27.9499 1007.24 21.7199 1019.13 27.0599 1027.33C20.1299 1029.6 14.8899 1031.44 11.4899 1032.71C-3.43725 1038.09 -17.9981 1044.44 -32.1001 1051.71L626.26 1059.91C642.26 1053.12 661.07 1046.75 682.86 1040.53C695.22 1036.82 708.52 1033.42 722.67 1030.17Z" fill="url(#paint1_linear)"/>
<path id="Vector 155" d="M2145.94 1050.4C2104.9 1030.31 2063.43 1011.67 2021.54 994.5C1950.78 975.833 1867.43 958.757 1771.48 943.27C1720.81 971.583 1679.81 992.2 1648.48 1005.12C1617.06 1017.99 1579.27 1027.47 1535.12 1033.56C1490.82 1039.65 1448.46 1039.84 1408.03 1034.13C1381.71 1030.45 1351.43 1024.12 1317.18 1015.13C1280.1 1005.51 1250.38 997.13 1227.74 990.23C1205.1 983.33 1172.97 979.75 1131.36 979.75C1091.06 979.607 1050.86 983.879 1011.49 992.49C997.343 994.19 987.58 995.323 982.2 995.89C973.99 996.89 967.34 997.3 962.39 997.44C962.1 997.44 959.56 997.3 955.03 997.02C886.363 1006.64 815.32 1017.64 741.9 1030.02C741.19 1030.17 734.82 1030.17 722.65 1030.17C708.5 1033.42 695.2 1036.82 682.88 1040.17C663.612 1045.4 644.706 1051.87 626.28 1059.56L2145.94 1050.4Z" fill="url(#paint2_linear)"/>
<path id="Vector 156" d="M2177.07 1111C2166.74 1090.48 2156.27 1070.25 2145.94 1050.43L626.3 1059.6C554.4 1083.8 494.067 1100.88 445.3 1110.83H2177.07V1111Z" fill="url(#paint3_linear)"/>
</g>
<g id="Group 8">
<g id="Group 9">
<path id="Vector 157" d="M365.75 -15.95L354.23 -15.1L353.61 4.57004L365.28 3.86004L365.75 -15.95ZM388.16 3.58004L388.79 -16.23L377.11 -15.23L376.49 4.44004L388.16 3.59004V3.58004ZM412.76 5.15004L413.38 -14.67L401.71 -13.82L401.09 5.85004L412.76 5.15004ZM424.28 -11.41L423.66 8.12004L435.33 7.41004L436 -12.27L424.32 -11.42L424.28 -11.41ZM460.9 -8.30996L449.5 -10.57L447.32 9.10004L458.68 11.22L460.86 -8.30996H460.9ZM481.57 14.76L483.75 -4.76996L472.38 -6.99996L470.2 12.64L481.57 14.76ZM507.41 -1.36996L496.05 -3.63996L493.87 15.89L505.23 18.16L507.41 -1.36996ZM528.74 3.00004L517.37 0.890038L515.19 20.56L526.71 22.69L528.71 3.01004L528.74 3.00004ZM547.71 27.21L549.89 7.68004L538.55 5.42004L536.37 25.09L547.73 27.21H547.71ZM587.73 36.7L589.91 17.17L578.55 14.9L576.37 34.43L587.74 36.7H587.73ZM555.2 29.76L566.57 31.88L568.75 12.35L557.23 10.09L555.23 29.76H555.2ZM655.3 51.41L666.82 53.54L669 34L657.48 31.87L655.3 51.41ZM608.91 42.5L611.09 23L599.57 20.7L597.57 40.38L608.93 42.5H608.91ZM647.85 30.89L636.33 28.63L634.15 48.16L645.51 50.42L647.85 30.89ZM629.79 26.89L618.27 24.63L616.09 44.3L627.45 46.42L629.79 26.89ZM690.19 37.51L678.67 35.24L676.47 55L687.84 57.12L690.17 37.6L690.19 37.51ZM712.43 41.6L701.07 39.47L698.73 58.86L710.25 60.99L712.43 41.6ZM806.15 49.38L794.63 48.96L792.45 68.77L804 69.1L806.18 49.29L806.15 49.38ZM826.7 70.38L827.32 50.56L815.64 51.41L815 71.09L826.68 70.38H826.7ZM848.16 70.66L848.78 50.85L837.11 51.7L836.64 71.37L848.16 70.66ZM733.76 64L735.94 44.47L724.42 42.21L722.24 61.73L733.76 64ZM760.69 45.88L749.17 44.33L747 64.15L758.52 65.57L760.7 45.89L760.69 45.88ZM768.95 66.13L780.32 67.13L782.5 47.32L770.98 46.32L768.98 66.13H768.95ZM934.27 53.82L933.64 73.35L945.32 72.5L945.94 52.69L934.27 53.82ZM964.94 73.21L965.56 53.4L953.88 54.24L953.26 73.92L964.94 73.21ZM868.42 52.55L856.74 53.55L856.12 71.55V71.83V72.83L867.8 72.41L868.42 52.6V52.55ZM895.5 73.21L907.18 72.5L907.8 52.69L896.13 53.54L895.5 73.21ZM915.74 55.09L915.12 74.76L926.8 73.92L927.42 54.1L915.74 55.1V55.09ZM887.57 72.64L888.19 53L876.51 53.85L876.05 72.11H875.89V72.25H876.05L875.89 73.38H877L887.59 72.67L887.57 72.64ZM1052.44 74.23L1064.12 73.23L1064.74 53.42L1053.07 54.55L1052.44 74.22V74.23ZM1104.13 52.85L1092.43 54L1091.81 73.67L1103.33 72.54L1104.11 52.87L1104.13 52.85ZM1083.71 72.54L1084.34 52.73L1072.66 53.86L1072.19 73.39L1083.71 72.54ZM983.77 72.97L984.39 53.15L972.72 54.28L972.1 73.96L983.77 72.96V72.97ZM1003.54 73.52L1004.17 53.71L992.49 54.84L991.87 74.51L1003.54 73.51V73.52ZM1033.28 74.64L1044.8 73.64L1045.42 53.83L1033.74 55L1033.28 74.67V74.64ZM1025.49 72.41L1026.27 52.74L1014.6 53.87L1014 73.49L1025.52 72.36L1025.49 72.41ZM1223 69L1223.62 49.05L1212 50.28L1211.52 70L1223 69ZM1203.7 69.57L1204.48 49.76L1192.84 51L1192.22 70.67L1203.74 69.54L1203.7 69.57ZM1112.67 70.95L1124.19 69.95L1124.97 50.14L1113.14 51.27L1112.67 70.94V70.95ZM1141.31 70.24L1141.94 50.42L1130.26 51.56L1129.64 71.37L1141.31 70.24ZM1170.58 51.7L1170.11 71.37L1181.63 70.24L1182.26 50.42L1170.58 51.7ZM1162 71.09L1162.62 51.41L1151 52.69L1150.37 72.36L1162 71.09ZM1320.16 45.89L1308.51 47L1308 66.84L1319.52 65.71L1320.14 45.89H1320.16ZM1329.79 64.43L1341.47 63.3L1342.09 43.49L1330.42 44.62L1329.79 64.43ZM1242.31 67.55L1242.93 47.88L1231.29 49L1230.67 68.67L1242.35 67.54L1242.31 67.55ZM1262.58 46.73L1250.91 47.87L1250.44 67.54L1262.12 66.41L1262.58 46.73ZM1291.38 47.02L1290.92 66.83L1302.59 65.7L1303.21 45.88L1291.38 47V47.02ZM1281.58 65.54L1282.35 45.72L1270.68 46.86L1270.06 66.67L1281.58 65.54ZM1361.12 62.28L1361.75 42.47L1350.07 43.6L1349.6 63.27L1361.12 62.27V62.28ZM1403 40L1391.33 41.27L1390.86 61L1402.53 59.87L1403 39.87V40ZM1422.46 40.58L1410.78 41.85L1410 61.6L1421.67 60.47L1422.45 40.66L1422.46 40.58ZM1383.84 40.8L1372.17 42.07L1371.54 61.74L1383.22 60.61L1383.84 40.8ZM1461.68 38.68L1450 40.09L1449.38 59.91L1461.06 58.77L1461.68 38.68ZM1482.54 37.97L1470.86 39.38L1470.4 59.2L1482.07 58.07L1482.54 37.97ZM1441.91 39.24L1430.23 40.66L1429.77 60.33L1441.44 59.06L1441.91 39.24ZM1559 52.12L1559.77 32.45L1547.94 33.45L1547.32 53.12L1559 52.12ZM1537.5 33.3L1525.83 34.43L1525.2 54.1L1536.88 53L1537.5 33.33V33.3ZM1517.73 36.16L1506.06 37.29L1505.43 56.96L1517.11 55.83L1517.73 36.16ZM1499.52 37.58L1487.84 38.85L1487.38 58.66L1498.9 57.39L1499.52 37.58ZM1598.06 30.5L1586.38 31.63L1585.92 51.16L1597.59 50.16L1598.06 30.49V30.5ZM1578.91 31.49L1567.24 32.62L1566.61 52.29L1578.29 51.44L1578.91 31.49ZM1617.05 50L1617.67 30.19L1606 31.19L1605.38 50.86L1617.05 50.01V50ZM1726.8 45.01L1738.48 43.87L1739.26 24.2L1727.42 25.33L1726.8 45.01ZM1637.6 30.43L1625.77 31.56L1625.3 51.37L1636.98 50.37L1637.6 30.37V30.43ZM1658.31 29.1L1646.63 30.23L1646 50L1657.67 49L1658.3 29.19L1658.31 29.1ZM1675.42 29.04L1663.74 30.18L1663.13 50L1674.65 48.87L1675.43 29.05L1675.42 29.04ZM1697.22 26.79L1685.55 27.92L1684.93 47.45L1696.6 46.45L1697.22 26.78V26.79ZM1716.99 25.93L1705.32 27.06L1704.7 46.73L1716.37 45.73L1716.99 25.92V25.93ZM1784.87 42.76L1796.54 41.76L1797.17 21.95L1785.49 22.95L1784.87 42.76ZM1765.87 23.94L1765.24 43.61L1776.92 42.76L1777.54 22.95L1765.87 23.95V23.94ZM1757.62 43.9L1758.24 24.09L1746.56 25.22L1746 44.9L1757.68 43.9H1757.62ZM1859.68 19.42L1848.01 20.55L1847.38 40.37L1859.06 39.37L1859.68 19.37V19.42ZM1828.08 21.37L1827.61 41.18L1839.44 40.9L1839.76 20.38L1828.08 21.38V21.37ZM1816.4 41.05L1817.18 21.24L1805.35 22.37L1804.88 42.19L1816.4 41.05ZM1913.86 37.05L1914.63 17.24L1902.96 18.24L1902.49 38.05L1913.86 37.05ZM1884 38.39L1895.68 37.39L1896.46 17.58L1884.78 18.58L1884 38.39ZM1878.09 18.3L1866.26 19.3L1865.79 39.11L1877.49 38L1878.12 18.33L1878.09 18.3ZM1933.38 35.88L1934.16 16.06L1922.33 17.06L1921.86 36.88L1933.38 35.88Z" fill="#FFCC00"/>
<g id="Group 10">
<g id="Group 11">
<path id="Vector 158" d="M351 -59.72V-39.72L365.49 -59.72H351ZM1267.28 15C1270.76 14.29 1274.08 13.44 1277.4 12.45L1335.06 -59.87H1326.61L1267.28 15ZM845.54 -59.72H839.65L768.7 39.63H774.7L845.5 -59.72H845.54ZM1090.79 -59.72H1083.39L1009.27 39.63H1016.27L1090.84 -59.72H1090.79ZM1219.14 -59.72H1211.44L1136.72 35.39C1139.59 35.1 1142.31 34.82 1145.03 34.39L1219.14 -59.72ZM1276.8 -59.72H1267.29L1197.1 28.17C1200.73 27.74 1204.35 27.17 1207.82 26.61L1276.82 -59.72H1276.8ZM1305.2 -59.72H1298.41L1233.95 22.08C1236.67 21.66 1239.24 21.08 1241.8 20.67L1250.11 10.19L1250.71 9.63L1305.2 -59.72ZM1320.45 -59.72H1313.2L1251.2 18.54C1254.07 17.98 1256.94 17.41 1259.81 16.7L1320.49 -59.72H1320.45ZM1313.39 -59.72H1305.24L1250.68 9.63L1250.08 10.19L1241.77 20.67C1244.94 20.1 1248.11 19.39 1251.13 18.67L1313.32 -59.74L1313.39 -59.72ZM1326.61 -59.74H1320.42L1259.74 16.7C1262.3 16.14 1264.74 15.57 1267.28 15.01L1326.61 -59.72V-59.74ZM1291.44 -59.72H1284.19L1217.77 24.91C1220.49 24.49 1223.21 23.91 1225.92 23.5L1291.44 -59.72ZM1284.19 -59.72H1276.79L1207.66 26.61C1210.98 26.05 1214.45 25.48 1217.77 24.91L1284.19 -59.72ZM1298.19 -59.72H1291.4L1225.92 23.5C1228.64 23.07 1231.21 22.5 1233.77 22.08L1298.23 -59.72H1298.19ZM1243.89 -59.72H1234.83L1162.38 32.13C1165.57 31.5775 1168.8 31.2932 1172.04 31.28L1243.89 -59.72ZM1257.47 -59.72H1251.13L1179.43 30.57L1186.23 29.72L1257.47 -59.72ZM1251.13 -59.72H1243.74L1172 31.14L1171.69 31.28C1174.26 31 1176.98 30.72 1179.54 30.28L1251.09 -59.72H1251.13ZM1267.24 -59.72H1257.43L1186.19 29.72C1189.81 29.3 1193.43 28.72 1196.9 28.17L1267.24 -59.72ZM1234.79 -59.72H1225.88L1152.22 33.55C1155.09 33.12 1158.11 32.84 1160.98 32.27C1161.42 32.1539 1161.88 32.1067 1162.34 32.13L1234.79 -59.72ZM1225.88 -59.72H1219.09L1145.09 34.54L1152.33 33.69L1225.84 -59.72H1225.88ZM1150.97 -59.72H1144.79L1068.86 39.49C1070.97 39.49 1072.93 39.49 1074.86 39.35L1150.93 -59.72H1150.97ZM1187.61 -59.72H1180L1104.07 38.22C1106.79 38.07 1109.5 37.93 1112.07 37.65L1187.69 -59.72H1187.61ZM1202.49 -59.72H1195.24L1119.77 37.08C1122.33 36.94 1124.9 36.66 1127.47 36.38L1202.47 -59.72H1202.49ZM1195.22 -59.72H1187.67L1112.05 37.65C1114.62 37.51 1117.18 37.37 1119.75 37.08L1195.22 -59.72ZM1211.37 -59.72H1202.47L1127.47 36.38C1130.64 36.09 1133.81 35.81 1136.83 35.38L1211.39 -59.73L1211.37 -59.72ZM1180 -59.73H1169.58L1093.65 38.63C1096.37 38.49 1098.94 38.49 1101.65 38.35C1102.41 38.35 1103.31 38.21 1104.07 38.21L1180 -59.72V-59.73ZM1169.58 -59.72H1160.22L1084.3 39.07L1093.65 38.64L1169.58 -59.72ZM1160.22 -59.72H1151.01L1075 39.35C1078.17 39.35 1081.34 39.21 1084.36 39.07L1160.28 -59.72H1160.22ZM1120.28 -59.72H1113.79L1038.6 39.63H1044.94L1120.26 -59.72H1120.28ZM1137.77 -59.72H1129L1053.52 39.63H1062L1137.77 -59.72ZM1129.02 -59.72H1120.26L1044.94 39.63H1053.54L1129 -59.72H1129.02ZM1144.69 -59.72H1137.6L1062 39.49H1066.07C1066.48 39.522 1066.89 39.4745 1067.28 39.35H1068.79L1144.71 -59.72H1144.69ZM1106.37 -59.72H1097.92L1023.35 39.63H1031.65L1106.37 -59.72ZM1097.77 -59.72H1090.83L1016.26 39.63H1023.2L1097.77 -59.72ZM1113.77 -59.72H1106.37L1031.5 39.63H1038.75L1113.75 -59.72H1113.77ZM974.58 -59.72H964.58L893.84 39.63H903.5L974.6 -59.72H974.58ZM1034.22 -59.72H1025.92L953.31 39.49H961.46L1034.22 -59.72ZM1065.22 -59.72H1056.16L982.6 39.63H991.35L995.28 34.25L995.58 33.97L1065.17 -59.72H1065.22ZM1083.43 -59.72H1075.88L1006 34L1001.93 39.52H1009.48L1083.48 -59.69L1083.43 -59.72ZM1075.93 -59.69H1065.22L995.58 34L995.43 34.14L991.5 39.52H1001.92L1006 34L1075.89 -59.69H1075.93ZM1046.89 -59.69H1041L968 39.63H973.74L1046.95 -59.72L1046.89 -59.69ZM1041.06 -59.72H1034.27L961.31 39.63H968L1041 -59.72H1041.06ZM1056.1 -59.72H1046.89L973.69 39.63H982.6L1056.11 -59.72H1056.1ZM1004.03 -59.72H995.73L923.88 39.63H931.73L1004 -59.72H1004.03ZM1017.44 -59.72H1011.25L939 39.63H945L948.93 34.11H949.08L1017.46 -59.72H1017.44ZM1011.27 -59.72H1004L931.88 39.63H939L1011.31 -59.72H1011.27ZM1025.95 -59.72H1017.5L949.09 34H948.94L945 39.49H953.15L1025.91 -59.72H1025.95ZM988.91 -59.72H981.91L910.44 39.63H917.24L988.94 -59.72H988.91ZM981.94 -59.72H974.7L903.5 39.49H910.44L982 -59.72H981.94ZM995.74 -59.72H988.95L917.25 39.63H923.89L995.74 -59.72ZM910.74 -59.72H903.34L832.54 39.49H840L910.8 -59.72H910.74ZM940.68 -59.72H933.89L863.05 39.63H869.84L940.63 -59.72H940.68ZM955.63 -59.72H946.57L875.73 39.63H884.73L955.53 -59.72H955.63ZM946.47 -59.72H940.58L869.84 39.63H875.73L946.52 -59.72H946.47ZM964.63 -59.72H955.63L884.83 39.63H893.89L964.68 -59.72H964.63ZM925.44 -59.72H917.14L846.14 39.63H854.74L925.39 -59.72H925.44ZM917.09 -59.72H910.75L840 39.63H846.19L917.19 -59.72H917.09ZM933.94 -59.72H925.49L854.74 39.63H863.05L933.84 -59.72H933.94ZM880.84 -59.72H873.44L802.67 39.63H810.06L880.86 -59.72H880.84ZM895.05 -59.72H888.1L817.31 39.63H824.25L895.05 -59.72ZM888.1 -59.72H880.86L810.06 39.63H817.31L888.1 -59.72ZM903.35 -59.72H895.05L824.25 39.63H832.55L903.35 -59.72ZM863.65 -59.72H854.59L783.8 39.63H792.86L863.65 -59.72ZM854.59 -59.72H845.54L774.74 39.63H783.8L854.59 -59.72ZM873.46 -59.72H863.65L792.86 39.63H802.67L873.46 -59.72ZM605.23 -59.72H598L542.89 17L543.49 17.28C545.49 17.71 547.26 17.99 549.23 18.41L605.23 -59.71V-59.72ZM722.66 -59.71H714.21L643.42 39.63H652L722.64 -59.72L722.66 -59.71ZM787.1 -59.72H779.85L709.23 39.63H716.32L787.12 -59.72H787.1ZM815.95 -59.72H809.61L738.82 39.63H745.16L816 -59.72H815.95ZM832.91 -59.72H824.4L753.61 39.63H761.91L832.91 -59.72ZM824.45 -59.72H816L745.16 39.63H753.61L824.4 -59.72H824.45ZM839.8 -59.72H833L762.2 39.63H769L839.8 -59.72ZM802.37 -59.72H794.06L723.27 39.63H731.57L802.37 -59.72ZM794.06 -59.72H787.12L716.32 39.49H723.27L794.06 -59.72ZM809.76 -59.72H802.37L731.57 39.63H738.82L809.76 -59.72ZM752.85 -59.72H743.8L673 39.63H682.06L752.85 -59.72ZM772.48 -59.72H761.91L691 39.63H701.71L772.51 -59.72H772.48ZM761.94 -59.72H752.88L682.06 39.63H691L761.94 -59.72ZM779.94 -59.72H772.55L701.75 39.63H709.3L779.94 -59.72ZM737.94 -59.72H731L660.2 39.63H667.2L737.99 -59.72H737.94ZM731.2 -59.72H722.74L652 39.63H660.15L731.15 -59.72H731.2ZM743.83 -59.72H737.94L667.12 39.63H673L743.8 -59.72H743.83ZM670.74 -59.72H659.27L596 28.31C598.41 28.88 601 29.44 603.4 30.01C604.3 30.29 605.21 30.43 606.26 30.72L670.72 -59.72H670.74ZM692.3 -59.72H685.36L618.81 33.55C619.57 33.69 620.32 33.97 620.93 34.11C621.247 34.1384 621.553 34.2339 621.83 34.39C622.74 34.68 623.83 34.82 624.7 35.1L692.32 -59.72H692.3ZM707.87 -59.72H700.63L631.63 36.8C632.84 37.08 633.9 37.37 634.95 37.65C636 37.93 636.95 38.07 637.82 38.36L707.82 -59.72H707.87ZM700.58 -59.72H692.27L624.7 35.1C626.06 35.39 627.57 35.81 629.08 36.1C629.98 36.39 630.89 36.53 631.79 36.81L700.63 -59.71L700.58 -59.72ZM714.21 -59.71H707.87L638 38.22C638.61 38.36 639.06 38.5 639.66 38.64C639.97 38.78 640.27 38.78 640.57 38.92L642.38 39.35H642.53L643.14 39.49H643.44L714.23 -59.72L714.21 -59.71ZM685.23 -59.72H678L612.47 32.13C613.562 32.4324 614.67 32.6695 615.79 32.84C616.7 33.12 617.6 33.26 618.66 33.55L685.23 -59.72ZM678.14 -59.72H670.74L606.13 30.72C607.34 31 608.55 31.28 609.6 31.56C610.65 31.84 611.42 31.99 612.47 32.27L678.14 -59.73V-59.72ZM635.27 -59.73H628.32L569.32 22.64C571.32 23.06 573.25 23.49 575.21 23.77L635.29 -59.73H635.27ZM650.23 -59.73H641L580.32 25.05C582.89 25.62 585.6 26.19 588.17 26.75L650.17 -59.72L650.23 -59.73ZM641.11 -59.72H635.23L575.19 23.92C576.85 24.35 578.66 24.63 580.32 25.05L641.15 -59.72H641.11ZM659.27 -59.72H650.36L588.36 26.75C590.93 27.32 593.49 27.88 596.21 28.45L659.31 -59.72H659.27ZM620.06 -59.72H611.61L554.55 19.68C556.96 20.24 559.55 20.68 561.95 21.23H562.1L620.1 -59.72H620.06ZM611.65 -59.72H605.31L549.07 18.54C550.89 18.97 552.7 19.25 554.66 19.68L611.57 -59.72H611.65ZM628.47 -59.72H620.17L562.17 21.28C564.58 21.85 567 22.28 569.41 22.84L628.41 -59.67L628.47 -59.72ZM481.69 -59.67H474.45L431.18 0.710007C433.45 1 435.56 1.14 437.83 1.42L481.75 -59.72L481.69 -59.67ZM540.17 -59.72H534.28L486 7.65C487.81 7.93 489.47 8.21 491.28 8.5L540.19 -59.72H540.17ZM575.66 -59.72H568.27L516.32 12.46C517.38 12.6 518.32 12.88 519.19 13.03C520.39 13.17 521.6 13.45 522.81 13.59L575.64 -59.72H575.66ZM589.64 -59.72H582.7L529.3 14.87C531.3 15.29 533.38 15.57 535.3 16L589.64 -59.72ZM582.7 -59.72H575.45L522.81 13.73C524.92 14.16 527.04 14.44 529.15 14.87L582.74 -59.72H582.7ZM597.98 -59.72H589.68L535.34 16C537.75 16.42 540.34 16.85 542.73 17.41L542.89 17.13L598 -59.72H597.98ZM558.3 -59.72H549.4L499.56 9.77C502.28 10.19 504.85 10.62 507.56 11.04L558.28 -59.72H558.3ZM549.38 -59.72H540.17L491.26 8.5L499.41 9.77L549.41 -59.72H549.38ZM568.28 -59.72H558.28L507.41 11C510.28 11.57 513.3 12 516.17 12.42L568.25 -59.76L568.28 -59.72ZM510.58 -59.76H504.24L458.66 4C460.66 4.28 462.43 4.56001 464.39 4.71001L510.58 -59.69V-59.76ZM527.34 -59.69H519L472.09 5.67001C474.66 6.09001 477.22 6.37 479.79 6.8L527.34 -59.72V-59.69ZM519.04 -59.72H510.43L464.43 4.53001C467 4.82001 469.57 5.24001 472.28 5.53001L519 -59.72H519.04ZM534.24 -59.72H527.3L479.79 6.8L485.98 7.65L534.28 -59.72H534.24ZM497 -59.72H488.7L444.17 2.13L451.86 2.98L497 -59.72ZM488.7 -59.72H481.75L437.83 1.42C439.94 1.7 442.05 1.85 444.17 2.13L488.7 -59.72ZM504.24 -59.72H497L451.86 3L458.66 3.85L504.24 -59.7V-59.72ZM417.3 -59.7H408.69L367.94 -3.11C370.65 -3.11 373.52 -2.97 376.39 -2.82L417.3 -59.72V-59.7ZM447.49 -59.72H438.28L396.92 -2C399.79 -1.85 402.66 -1.57 405.52 -1.43L447.52 -59.74L447.49 -59.72ZM467.14 -59.74H456.39L414.13 -0.699993L424.24 0.150009L467.11 -59.72L467.14 -59.74ZM456.39 -59.72H447.49L405.49 -1.41H405.64C408.51 -1.13 411.38 -0.989993 414.1 -0.699993L456.36 -59.7L456.39 -59.72ZM474.48 -59.7H467.08L424.24 7.62939e-06C426.51 0.280008 428.77 0.420008 431.03 0.700008L474.51 -59.73L474.48 -59.7ZM432.51 -59.73H425.72L384.51 -2.73C386.62 -2.59 388.89 -2.45 391.15 -2.45L432.51 -59.77V-59.73ZM425.72 -59.77H417.42L376.54 -2.82C379.26 -2.68 381.98 -2.68 384.69 -2.54L425.75 -59.72L425.72 -59.77ZM438.28 -59.72H432.54L391.18 -2.25999C392.99 -2.11999 394.96 -2.12 396.77 -1.98L438.28 -59.72ZM386.81 -59.72H379.86L351 -19.52V-9.89999L386.78 -59.72H386.81ZM402.32 -59.72H395.08L354.5 -3.11H361.75L402.35 -59.72H402.32ZM395.11 -59.72H386.81L351 -9.75999V-3.25C351.21 -3.26764 351.42 -3.21865 351.6 -3.11H354.6L395.06 -59.72H395.11ZM408.64 -59.72H402.3L361.9 -3.11C364.01 -3.11 365.98 -2.97 368.09 -2.97L408.69 -59.72H408.64ZM379.86 -59.72H372.62L351 -29.43V-19.38L379.83 -59.72H379.86ZM372.74 -59.72H365.34L351 -39.76V-29.43L372.74 -59.72ZM1399.33 -59.72H1392.09L1352.39 -10.89C1355.86 -12.17 1359.33 -13.44 1362.65 -14.89L1363.71 -16.17L1399.33 -59.76V-59.72ZM1446.13 -59.76H1437.37L1424.09 -43.76C1429.67 -46.76 1435.26 -49.99 1440.69 -53.25L1446.13 -59.76ZM1440.69 -53.25C1444.32 -55.37 1447.94 -57.63 1451.41 -59.76H1446.13L1440.69 -53.25ZM1409.18 -35.8C1414.31 -38.35 1419.29 -41.04 1424.27 -43.72L1437.55 -59.72H1428.8L1409.18 -35.8ZM1406.46 -59.72H1399.36L1363.89 -16.13C1366.89 -16.98 1369.89 -17.97 1372.95 -18.96C1373.1 -18.96 1373.25 -19.1 1373.4 -19.24L1406.46 -59.72ZM1422.31 -59.72L1398.16 -30.42C1401.78 -32.12 1405.4 -33.96 1409.02 -35.8L1428.65 -59.72H1422.31ZM1422.31 -59.72H1414.91L1386.53 -25L1398.31 -30.52L1422.31 -59.68V-59.72ZM1414.91 -59.68H1406.46L1373.4 -19.24C1377.33 -20.51 1381.1 -21.79 1385.02 -23.24L1386.53 -25.08L1414.91 -59.76V-59.68ZM1365.1 -59.76H1356L1303.51 5.52C1307.44 4.39 1311.51 3.26001 1315.44 1.99001L1365.1 -59.72V-59.76ZM1384.72 -59.72H1374.16L1327.36 -2C1332.36 -3.55 1337.17 -5.25 1342 -7.09L1384.72 -59.74V-59.72ZM1374.16 -59.74H1365.1L1315.44 2C1319.51 0.720008 1323.44 -0.549992 1327.36 -2L1374.16 -59.74ZM1392.27 -59.74H1384.72L1342 -6.93C1345.63 -8.2 1349.1 -9.48 1352.57 -10.93L1392.27 -59.76V-59.74ZM1350.15 -59.76H1343.36L1293.7 2.24001V2.38L1287.7 10.02C1290.57 9.32 1293.44 8.47 1296.16 7.76L1350.16 -59.75L1350.15 -59.76ZM1343.52 -59.75H1335.22L1277.55 12.6C1281.02 11.75 1284.49 10.9 1287.81 9.91L1293.81 2.27V2.13H1293.96L1343.47 -59.72L1343.52 -59.75ZM1356 -59.72H1350.27L1296.27 7.65C1298.83 6.94 1301.27 6.23 1303.81 5.52L1356 -59.72Z" fill="#11A10E"/>
<path id="Vector 159" d="M1923.91 21.94L1934.78 10.76V7.62939e-06L1912.78 22.5L1923.95 21.93L1923.91 21.94ZM1931.8 21.51L1934.97 21.37V18.37L1931.8 21.49V21.51ZM1923.95 21.91L1931.8 21.49L1934.97 18.37V10.76L1923.97 21.94L1923.95 21.91ZM1885.97 23.64H1888.53L1935.03 -24.36V-31.29L1881.74 23.9C1883.14 23.732 1884.56 23.6385 1885.97 23.62V23.64ZM1934.88 -18.55V-24.5L1888.38 23.5C1890.04 23.5 1891.86 23.36 1893.52 23.36H1894.27L1934.88 -18.53V-18.55ZM1934.88 -9.05V-18.53L1894 23.21L1903.06 22.79H1903.36L1934.78 -9L1934.88 -9.05ZM1934.78 -0.0899925V-9L1903.53 23L1912.74 22.58L1934.74 -0.0699921L1934.78 -0.0899925ZM542.89 17L542.73 17.28C542.967 17.3927 543.229 17.441 543.49 17.42L542.89 17ZM708.17 50.67C709.23 50.81 710.29 50.95 711.49 51.09C712.539 51.2605 713.598 51.3574 714.66 51.38L723.27 39.38H716.32L708.17 50.7V50.67ZM657.91 42.77C658.96 42.92 660.02 43.2 661.08 43.34C662.14 43.48 663.08 43.77 663.95 43.91L667.12 39.52H660.12L657.86 42.77H657.91ZM650.46 41.36C650.31 41.22 650.01 41.22 649.71 41.08C649.809 41.1758 649.927 41.2501 650.056 41.2983C650.185 41.3465 650.323 41.3675 650.46 41.36ZM660.12 39.52H652L650.64 41.22L650.49 41.36L650.34 41.5L652.15 41.93C652.3 41.93 652.45 42.07 652.6 42.07H653.81C654.11 42.07 654.42 42.21 654.72 42.21C655.62 42.35 656.72 42.63 657.59 42.77L660.15 39.52H660.12ZM643.4 39.52L650.64 41.22L652 39.52H643.4ZM643.25 39.66H643.1L642.49 39.52C642.64 39.52 642.79 39.66 642.94 39.66C642.94 39.52 643.1 39.52 643.25 39.66ZM701.66 39.52H691L685.26 47.44C687.37 47.73 689.34 48.15 691.45 48.44H692.05L695.05 48.86L701.69 39.52H701.66ZM716.33 39.52H709.24L701.84 49.85C703.05 49.99 704.11 50.13 705.16 50.28C706.153 50.4413 707.155 50.5348 708.16 50.56L716.31 39.56L716.33 39.52ZM682.05 39.56H673L669.08 44.94L674.21 45.79C675.221 45.9097 676.224 46.0968 677.21 46.35L682.04 39.56H682.05ZM690.95 39.56H682.04L677.21 46.35C678.87 46.64 680.68 46.92 682.34 47.2C683.4 47.34 684.34 47.48 685.21 47.63L691 39.49L690.95 39.56ZM709.26 39.49H701.71L695 49C696.267 49.1158 697.526 49.3061 698.77 49.57C699.83 49.71 700.89 49.85 701.77 49.99L709.17 39.52L709.26 39.49ZM672.94 39.52H667.06L664 43.88L666.26 44.3C667.32 44.44 668.26 44.73 669.13 44.87L673 39.49L672.94 39.52ZM825 60.43C825.9 60.43 826.81 60.58 827.71 60.58H831.04L846.13 39.49H840L825 60.43ZM768.25 56.9C769.302 57.0166 770.361 57.0633 771.42 57.04L783.8 39.49H774.74L762.82 56.19C764.02 56.3532 765.229 56.4467 766.44 56.47C766.89 56.47 767.35 56.61 767.65 56.61C767.95 56.61 768.1 56.76 768.25 56.9ZM774.89 39.49H768.89L757.23 55.76L762.97 56.19L774.89 39.49ZM762.06 39.49H753.76L743 54.63L744.21 54.77L751 55.2L762 39.49H762.06ZM745.1 39.49H738.76L729 53.22C729.91 53.36 730.82 53.36 731.72 53.5C732.78 53.64 733.83 53.64 734.89 53.78L745.16 39.49H745.1ZM731.57 39.49H723.27L714.66 51.49C716.17 51.63 717.66 51.91 719.19 52.05C720.239 52.2205 721.298 52.3174 722.36 52.34L731.57 39.46V39.49ZM753.76 39.46H745.31L735 53.78C736.66 53.92 738.17 54.21 739.83 54.21C740.74 54.35 741.64 54.35 742.55 54.49H742.85L753.72 39.49L753.76 39.46ZM768.81 39.49H762.02L750.89 55.2C753.01 55.34 755.12 55.62 757.23 55.76L768.85 39.49H768.81ZM738.85 39.49H731.6L722.24 52.37L725.86 52.79C726.909 52.9555 727.968 53.0524 729.03 53.08L738.85 39.49ZM839.98 39.49H832.58L817.91 60C819.216 60.1193 820.529 60.166 821.84 60.14C822.74 60.14 823.84 60.28 824.71 60.28H825.01L840 39.49H839.98ZM824.3 39.49H817.36L803.12 59.16C804.33 59.3 805.38 59.3 806.44 59.44C807.391 59.5687 808.351 59.6189 809.31 59.59H809.76L824.25 39.49H824.3ZM810.06 39.49H802.67L789.23 58.31C790.59 58.45 791.8 58.45 793.01 58.59C794.01 58.59 795.12 58.74 796.18 58.74L810.06 39.49ZM793.06 39.49H784L771.57 57L776.85 57.42C777.91 57.56 778.97 57.56 780.02 57.71L793.02 39.45L793.06 39.49ZM817.32 39.45H810.07L796.33 58.74C797.557 58.7555 798.783 58.8423 800 59C801.06 59 802.11 59.14 803.17 59.14L817.36 39.47L817.32 39.45ZM832.6 39.47H824.3L809.96 59.57C811.62 59.71 813.13 59.71 814.79 59.85C815.7 59.85 816.79 59.99 817.79 59.99H818.09L832.58 39.47H832.6ZM802.7 39.47H792.89L779.89 57.58L786.08 58.01C787.14 58.15 788.2 58.15 789.25 58.29L802.69 39.47H802.7ZM947.29 63.39H950.29L968 39.63H961.36L943.8 63.41H947.27L947.29 63.39ZM886.9 62.56H887.65C889.76 62.56 891.73 62.56 893.65 62.7L910.4 39.63H903.5L886.9 62.56ZM903.5 39.49H893.84L877.69 62.27C880.69 62.42 883.88 62.42 886.9 62.56L903.5 39.49ZM884.78 39.49H875.78L859.88 61.85C861.69 61.85 863.65 61.99 865.46 61.99C866.52 61.99 867.73 62.13 868.78 62.13L884.78 39.49ZM869.84 39.49H863.05L847.5 61.28C848.602 61.4048 849.711 61.4549 850.82 61.43C851.88 61.43 852.93 61.57 853.99 61.57L869.84 39.49ZM854.74 39.49H846.14L831.05 60.58C832.71 60.58 834.37 60.72 836.18 60.86C837.23 60.86 838.44 61 839.5 61L854.74 39.49ZM875.74 39.49H869.85L854 61.57H856.57C857.62 61.57 858.68 61.71 859.74 61.71L875.74 39.49ZM893.85 39.49H884.79L868.79 61.99C870.6 61.99 872.41 62.13 874.23 62.13H877.55L893.85 39.49ZM863.06 39.49H854.75L839.35 61C840.86 61 842.52 61.14 844.18 61.28H847.5L863.05 39.49H863.06ZM938.97 39.49H931.88L914.82 63C915.579 62.9768 916.339 63.0237 917.09 63.14H921.76L939 39.49H938.97ZM953.34 39.49H945.19L927.65 63.26H935.65L953.31 39.49H953.34ZM945.01 39.49H939.01L921.76 63.12H924.33C925.439 63.0933 926.548 63.1401 927.65 63.26L945 39.49H945.01ZM961.45 39.49H953.3L935.8 63.26H939C940.66 63.26 942.17 63.26 943.83 63.41L961.49 39.49H961.45ZM931.88 39.52H924L907.12 62.84H908.93C910.93 62.84 912.86 62.98 914.93 62.98L931.84 39.49L931.88 39.52ZM917.2 39.49H910.4L893.69 62.56C894.098 62.5378 894.508 62.5851 894.9 62.7H900.33L917.24 39.49H917.2ZM923.88 39.49H917.24L900.48 62.7H900.78C901.188 62.6766 901.598 62.724 901.99 62.84H906.99L923.9 39.49H923.88ZM1066.24 62.56C1068.05 62.56 1069.86 62.56 1071.83 62.42C1072.83 62.42 1073.94 62.27 1075 62.27H1075.6L1093.71 38.64L1084.36 39.07L1066.24 62.56ZM1005.41 63.41C1007.07 63.41 1008.88 63.41 1010.54 63.26H1013.71L1031.71 39.49H1023.41L1005.41 63.41ZM1001.79 39.49H991.35L973.54 63.41H984L1001.81 39.49H1001.79ZM1023.24 39.49H1016.3L998.3 63.26H1005.24L1023.24 39.49ZM1009.35 39.49H1001.81L984 63.41H991.39L1009.39 39.49H1009.35ZM1016.39 39.49H1009.39L991.5 63.41C993.16 63.41 994.67 63.41 996.33 63.26H998.45L1016.26 39.49H1016.39ZM973.69 39.49H968L950.29 63.41C951.552 63.3867 952.814 63.4335 954.07 63.55H956.07L973.73 39.49H973.69ZM982.79 39.49H973.88L956.18 63.41H964.94L982.75 39.49H982.79ZM991.35 39.49H982.6L964.78 63.41H973.54L991.35 39.49ZM1062 39.49H1053.54L1035.54 62.98C1037.35 62.98 1039.16 62.98 1041.12 62.84H1044L1062 39.49ZM1074.83 39.35C1072.83 39.49 1070.75 39.49 1068.83 39.49L1050.83 62.84H1056.71L1074.83 39.35ZM1084.34 39.07C1081.34 39.21 1078.15 39.21 1074.98 39.35L1056.98 62.84C1058.98 62.84 1060.76 62.7 1062.57 62.7H1066.19L1084.31 39.07H1084.34ZM1064.83 39.49H1062L1044 62.84C1045.81 62.84 1047.63 62.7 1049.44 62.7H1050.64L1068.64 39.35H1067.13C1066.72 39.3175 1066.31 39.3651 1065.92 39.49H1064.86H1064.83ZM1044.94 39.49H1038.6L1020.6 63.12H1027L1045 39.49H1044.94ZM1053.6 39.49H1045L1027 63.12H1032.43C1033.39 63.1397 1034.35 63.0929 1035.3 62.98H1035.6L1053.6 39.49ZM1038.66 39.49H1031.41L1013.41 63.26H1018.69C1019.2 63.2904 1019.71 63.2432 1020.2 63.12H1020.5L1038.62 39.49H1038.66ZM1184 59.16C1186.42 59.02 1188.83 59.02 1191.25 58.88L1217.81 24.88C1214.49 25.45 1211.17 26.02 1207.7 26.58L1181.55 59.3C1182.35 59.1836 1183.15 59.1368 1183.96 59.16H1184ZM1124.19 61.16C1125.7 61.16 1127.19 61.02 1128.71 61.02H1130.71L1152.29 33.57C1149.88 33.85 1147.46 34.27 1145.05 34.41L1124.22 61.16H1124.19ZM1145.22 34.41C1142.5 34.84 1139.63 35.12 1136.92 35.41L1116.69 61.3C1118.2 61.3 1119.86 61.16 1121.37 61.16H1124.37L1145.2 34.41H1145.22ZM1127.54 36.41C1124.97 36.69 1122.54 36.97 1119.84 37.11L1100.52 61.88C1102.18 61.88 1103.84 61.74 1105.65 61.74H1107.76L1127.54 36.41ZM1112.14 37.54C1109.57 37.82 1106.86 37.96 1104.14 38.1L1085.54 62H1093.09L1112.09 37.52L1112.14 37.54ZM1119.79 37.09C1117.22 37.38 1114.66 37.52 1112.09 37.66L1093.09 62C1094.9 62 1096.56 61.86 1098.37 61.86H1100.49L1119.81 37.09H1119.79ZM1136.71 35.4C1133.71 35.68 1130.53 36.1 1127.36 36.4L1107.58 61.59C1109.24 61.59 1110.9 61.45 1112.58 61.45C1113.89 61.4749 1115.2 61.4248 1116.51 61.3L1136.73 35.41L1136.71 35.4ZM1101.73 38.24C1099.02 38.38 1096.45 38.52 1093.73 38.52L1075.62 62.29H1080.9C1082.41 62.29 1084.07 62.15 1085.58 62.15L1104.15 38.24H1101.73ZM1186.27 29.6L1179.47 30.45L1155.92 60.17C1157.13 60.17 1158.19 60.03 1159.4 60.03C1160.31 60.0532 1161.21 60.0064 1162.11 59.89L1186.27 29.6ZM1207.7 26.6C1204.23 27.17 1200.61 27.73 1196.98 28.16L1171.77 59.58H1174.64C1176.91 59.43 1179.17 59.43 1181.44 59.29L1207.7 26.6ZM1161 32.27C1158.13 32.7 1155.26 33.12 1152.24 33.55L1130.66 60.86C1132.17 60.86 1133.52 60.72 1135.03 60.72C1136.69 60.72 1138.2 60.58 1139.71 60.58L1162.38 32C1161.92 32.14 1161.47 32.14 1161.02 32.28L1161 32.27ZM1179.43 30.44C1176.87 30.73 1174.15 31.01 1171.58 31.44L1148.64 60.44C1149.85 60.44 1151.21 60.3 1152.41 60.3H1155.88L1179.43 30.44ZM1171.73 31.44L1172.04 31.3C1168.8 31.3132 1165.57 31.5975 1162.38 32.15L1139.73 60.74C1141.09 60.74 1142.45 60.6 1143.81 60.6C1145.32 60.6 1146.98 60.45 1148.64 60.45L1171.73 31.45V31.44ZM1197.09 28C1193.62 28.56 1190 29 1186.38 29.55L1162.22 59.84C1163.28 59.84 1164.34 59.7 1165.55 59.7C1167.66 59.7 1169.92 59.56 1172.04 59.41L1197.04 28H1197.09ZM1299.84 53.89L1306.93 53.61L1362.78 -14.88C1359.46 -13.47 1355.99 -12.2 1352.52 -10.88L1299.84 53.93V53.89ZM1281.27 54.93L1292.14 54.36L1342 -7.07C1337.17 -5.37 1332.34 -3.67 1327.36 -1.98L1281.36 54.92L1281.27 54.93ZM1292.23 54.35L1299.93 53.92L1352.61 -10.89C1349.14 -9.48 1345.52 -8.2 1342.04 -6.89L1292.23 54.39V54.35ZM1314.23 53.26L1322.83 52.83L1385.02 -23.17C1381.1 -21.9 1377.33 -20.48 1373.4 -19.17L1314.23 53.29V53.26ZM1306.98 53.57L1314.23 53.29L1373.4 -19.17C1373.25 -19.03 1373.1 -19.03 1372.95 -18.89C1369.95 -17.89 1366.95 -16.89 1363.89 -16.06L1362.83 -14.78L1307 53.5L1306.98 53.57ZM1322.85 52.79L1330.25 52.37L1398.33 -30.42L1386.55 -24.9L1385 -23.06L1322.81 52.79H1322.85ZM1233.77 57C1235.13 57 1236.64 56.86 1238 56.86C1239.36 56.86 1240.72 56.72 1242.23 56.57L1277.55 12.42C1274.23 13.27 1270.91 14.12 1267.44 14.97L1233.77 56.97V57ZM1259.77 16.63C1256.9 17.34 1254.03 17.91 1251.16 18.47L1220.22 57.68C1220.97 57.68 1221.73 57.53 1222.48 57.53C1224.14 57.53 1225.8 57.39 1227.48 57.25L1259.79 16.63H1259.77ZM1225.97 23.43C1223.26 23.85 1220.54 24.43 1217.82 24.84L1191.26 58.84C1193.67 58.7 1196.09 58.7 1198.5 58.55L1225.97 23.46V23.43ZM1241.82 20.46C1239.26 21.02 1236.54 21.46 1233.97 21.87L1205.4 58.31C1206.4 58.31 1207.66 58.17 1208.72 58.17C1209.88 58.1961 1211.04 58.1494 1212.19 58.03L1241.77 20.53L1241.82 20.46ZM1251.13 18.53C1247.96 19.24 1244.94 19.95 1241.77 20.53L1212.19 58C1213.3 58.0265 1214.41 57.9797 1215.51 57.86C1217.02 57.86 1218.51 57.72 1220.04 57.72L1251.13 18.51V18.53ZM1267.28 15C1264.87 15.56 1262.28 16.13 1259.74 16.69L1227.43 57.45C1228.49 57.45 1229.55 57.31 1230.75 57.31C1231.75 57.3325 1232.75 57.2858 1233.75 57.17L1267.28 15ZM1233.77 21.93C1231.21 22.5 1228.49 22.93 1225.92 23.35L1198.45 58.44C1199.51 58.44 1200.45 58.3 1201.45 58.3C1202.81 58.3 1204.17 58.16 1205.53 58.16L1233.75 21.93H1233.77ZM1303.49 5.51C1301.08 6.22 1298.49 6.93001 1295.94 7.64001L1257.15 56.04C1258.36 56.04 1259.72 55.9 1260.92 55.9C1261.68 55.9 1262.28 55.75 1262.92 55.75L1303.52 5.51H1303.49ZM1296.13 7.64001C1293.41 8.49001 1290.54 9.19 1287.67 9.9L1250.54 56.32C1251.29 56.32 1251.9 56.18 1252.65 56.18C1254.16 56.18 1255.82 56.04 1257.33 55.9L1296.13 7.64001ZM1287.67 9.9C1284.2 10.75 1280.88 11.74 1277.41 12.59L1242.09 56.75H1244.2C1246.31 56.6 1248.43 56.6 1250.54 56.46L1287.67 9.9ZM1315.44 2C1311.51 3.27 1307.59 4.40001 1303.51 5.53001L1263.06 55.92C1264.72 55.92 1266.23 55.77 1267.89 55.63C1269.35 55.6113 1270.82 55.5178 1272.27 55.35L1315.44 2ZM1327.36 -2C1323.44 -0.719992 1319.51 0.690008 1315.44 2L1272.27 55.49H1273.78C1274.98 55.49 1276.04 55.35 1277.25 55.35L1281.32 55.07L1327.32 -1.93L1327.36 -2ZM1828.77 -59.67H1820.02L1735.18 31.47L1744.24 31.05L1828.77 -59.67ZM1884.32 -59.67H1874.66L1791.49 28.22C1794.96 27.93 1798.28 27.79 1801.75 27.51L1884.32 -59.67ZM1917.23 -59.67H1910.23L1828.72 25.81C1831.14 25.67 1833.4 25.67 1835.81 25.53L1917.18 -59.67H1917.23ZM1934.69 -48.49V-55L1858.15 24.4C1860.27 24.4 1862.38 24.26 1864.49 24.26L1934.69 -48.49ZM1934.69 -55V-59.81H1931.97L1851 24.63H1852.06C1854.17 24.63 1856.28 24.49 1858.24 24.35L1934.78 -55H1934.69ZM1934.78 -39.85V-48.49L1864.58 24.4C1867.45 24.26 1870.17 24.26 1873.04 24.11L1934.78 -39.89V-39.85ZM1932.21 -59.71H1924.21L1842.85 25.2L1851.15 24.77L1932.21 -59.72V-59.71ZM1934.78 -31.41V-40L1873 24.06C1875.87 24.06 1878.58 23.92 1881.45 23.78L1934.74 -31.41H1934.78ZM1924.17 -59.72H1917.23L1835.86 25.48C1838.28 25.34 1840.54 25.2 1842.81 25.2L1924.17 -59.72ZM1903.04 -59.72H1893.83L1811.71 26.75L1819.26 26.33C1819.86 26.33 1820.47 26.19 1821.07 26.19L1903.07 -59.72H1903.04ZM1894.01 -59.72H1884.35L1801.93 27.46C1805.25 27.18 1808.57 27.04 1811.93 26.75L1894 -59.72H1894.01ZM1910.3 -59.72H1903.06L1821.24 26.05C1823.81 25.9 1826.24 25.9 1828.64 25.76L1910.3 -59.72ZM1861.24 -59.72H1852.34L1768.11 29.72L1771.43 29.58C1773.43 29.44 1775.35 29.3 1777.17 29.02L1861.24 -59.72ZM1874.68 -59.72H1868.34L1785 28.59C1786.35 28.45 1787.71 28.45 1789.07 28.31C1789.93 28.2861 1790.79 28.1925 1791.64 28.03L1874.64 -59.72H1874.68ZM1868.3 -59.72H1861.05L1777.28 29.16C1779.84 29.02 1782.41 28.88 1784.98 28.59L1868.3 -59.72ZM1852.15 -59.72H1843.24L1758.71 30.43L1767.92 29.87L1852.15 -59.72ZM1843.39 -59.72H1836.6L1752.07 30.72L1758.86 30.43L1843.39 -59.72ZM1836.6 -59.72H1828.75L1744.22 31.14L1752.07 30.72L1836.6 -59.72ZM1584.21 -59.72H1574.7L1484.65 44.44L1494.46 43.88L1584.27 -59.72H1584.21ZM1702.01 -59.72H1694.47L1607.37 37.37C1609.94 37.23 1612.5 37.23 1615.07 37.08L1702 -59.72H1702.01ZM1762.84 -59.72H1755.89L1669.26 35L1676.35 34.72L1762.85 -59.68L1762.84 -59.72ZM1797.71 -59.68H1787.6L1702.01 33.32L1712.28 32.76L1797.71 -59.66V-59.68ZM1812.96 -59.66H1805.41L1720.13 32.34L1727.68 32.06L1813 -59.72L1812.96 -59.66ZM1805.6 -59.72H1797.75L1712.28 32.7L1720.13 32.27L1805.56 -59.73L1805.6 -59.72ZM1820.06 -59.73H1813L1727.68 32L1735.07 31.57L1820.07 -59.71L1820.06 -59.73ZM1778.25 -59.71H1769L1682.66 34.29L1692.32 33.73L1778.21 -59.68L1778.25 -59.71ZM1769 -59.68H1762.82L1676.32 34.58L1682.66 34.29L1769 -59.71V-59.68ZM1787.72 -59.71H1778.36L1692.5 33.83L1702.16 33.4L1787.75 -59.72L1787.72 -59.71ZM1732.2 -59.72H1724.66L1637.86 36.23C1640.28 36.23 1642.69 36.09 1645.11 36.09L1732.2 -59.72ZM1747 -59.72H1738.54L1651.75 35.81H1654.62L1660.5 35.53L1747 -59.72ZM1738.54 -59.72H1732.2L1645.26 36.09C1647.37 36.09 1649.64 35.95 1651.75 35.81L1738.54 -59.72ZM1756.05 -59.72H1747.15L1660.5 35.39L1669.26 34.96L1756.05 -59.72ZM1716.35 -59.72H1709.26L1622.26 36.8C1624.68 36.66 1626.94 36.66 1629.36 36.52L1716.3 -59.72H1716.35ZM1709.21 -59.72H1702L1615.06 37.08C1617.47 36.94 1619.89 36.94 1622.3 36.8L1709.3 -59.72H1709.21ZM1724.7 -59.72H1716.24L1629.3 36.52C1632.17 36.38 1635.03 36.38 1637.9 36.23L1724.7 -59.72ZM1645 -59.72H1636.54L1548.05 40.34L1556.65 39.91L1645 -59.72ZM1675 -59.72H1666L1578.3 38.78L1587.66 38.36L1675 -59.72ZM1694.48 -59.72H1683.9L1596.65 37.79C1600.28 37.65 1603.9 37.51 1607.52 37.23L1694.52 -59.72H1694.48ZM1683.95 -59.72H1675L1587.6 38.22L1596.65 37.79L1683.9 -59.72H1683.95ZM1660.05 -59.72H1653.26L1565.41 39.49L1572.2 39.07L1660.05 -59.72ZM1653.26 -59.72H1645L1556.69 39.91C1559.56 39.77 1562.43 39.63 1565.3 39.35L1653.3 -59.72H1653.26ZM1665.83 -59.72H1659.94L1572.24 38.92C1574.24 38.78 1576.16 38.78 1578.24 38.64L1665.79 -59.72H1665.83ZM1615.07 -59.72H1608.07L1518.61 42.46C1521.03 42.32 1523.29 42.18 1525.71 41.9L1615.07 -59.72ZM1630.31 -59.72H1623.07L1534.16 41.33H1534.46C1536.88 41.19 1539.29 41.05 1541.71 40.76L1630.31 -59.72ZM1623.22 -59.72H1615.22L1525.86 41.9C1528.73 41.75 1531.44 41.47 1534.31 41.33L1623.22 -59.67V-59.72ZM1636.5 -59.67H1630.5L1541.71 40.9C1543.82 40.76 1546.08 40.62 1548.05 40.62L1636.5 -59.72V-59.67ZM1608.12 -59.72H1601.18L1511.37 43C1513.78 42.86 1516.2 42.57 1518.61 42.43L1608.12 -59.75V-59.72ZM1601.18 -59.75H1593.94L1503.82 43.45L1505.93 43.31C1507.74 43.17 1509.56 43.03 1511.22 43.03L1601.22 -59.72L1601.18 -59.75ZM1594.13 -59.72H1584.31L1494.5 43.88L1504.01 43.45L1594.13 -59.72ZM1459.33 -59.72H1453.33L1361.32 51L1367.51 50.72L1459.29 -59.67L1459.33 -59.72ZM1519.37 -59.67H1510.46L1419.46 47.89L1428.37 47.46L1519.37 -59.67ZM1551.37 -59.67H1542.46L1452 46.14L1461.06 45.72L1551.33 -59.72L1551.37 -59.67ZM1564.91 -59.72H1558.72L1468.46 45.28L1474.8 45L1565 -59.72H1564.91ZM1558.81 -59.72H1551.57L1461.25 45.72L1468.65 45.43L1558.76 -59.72H1558.81ZM1574.76 -59.72H1565L1474.84 45L1484.65 44.57L1574.76 -59.73V-59.72ZM1533.76 -59.73H1526.96L1436.19 47L1442.84 46.72L1533.71 -59.71L1533.76 -59.73ZM1526.91 -59.71H1519.37L1428.5 47.41L1436.35 46.99L1526.91 -59.72V-59.71ZM1542.46 -59.72H1533.71L1442.84 46.71L1452.04 46.28L1542.46 -59.72ZM1487.97 -59.72H1477.86L1386.53 49.54L1396.8 49L1488 -59.72H1487.97ZM1503.25 -59.72H1495.85L1404.65 48.55L1412.19 48.26L1503.19 -59.74L1503.25 -59.72ZM1495.79 -59.74H1488L1396.65 49L1404.5 48.58L1495.82 -59.69L1495.79 -59.74ZM1510.46 -59.69H1503.22L1412.22 48.15L1419.47 47.73L1510.47 -59.69H1510.46ZM1468.36 -59.69L1377 50.1L1386.51 49.54L1477.84 -59.72H1468.33L1468.36 -59.69ZM1468.33 -59.72H1459.27L1367.51 50.53L1377 50L1468.33 -59.68V-59.72ZM1440.7 -53.17C1435.27 -49.91 1429.7 -46.8 1424.1 -43.68L1345.46 51.7L1354.36 51.28L1440.7 -53.17ZM1451.42 -59.68C1447.95 -57.41 1444.33 -55.29 1440.7 -53.17L1354.38 51.24L1361.32 50.95L1453.25 -59.72H1451.44L1451.42 -59.68ZM1424.12 -43.72C1419.12 -41.04 1414.12 -38.35 1409.02 -35.8L1336.57 52.08L1345.32 51.66L1424.12 -43.72ZM1409.18 -35.8C1405.55 -33.96 1401.93 -32.12 1398.31 -30.42L1330.23 52.37L1336.72 52.08L1409.18 -35.8Z" fill="#6ACD36"/>
</g>
<path id="Vector 160" d="M379.83 -59.68L351 -19.38L379.83 -59.68ZM1350.15 -59.72L1296.15 7.64999L1350.15 -59.72ZM1303.54 5.52L1355.92 -59.72L1303.54 5.52ZM1930 23.21L1931.81 21.52L1930 23.21ZM1335.11 -59.72L1277.4 12.6L1335.11 -59.72ZM1287.66 9.91L1293.66 2.27L1287.66 9.91ZM1293.81 2.13L1343.32 -59.87L1293.81 2.13ZM1398.32 -30.57L1422.32 -59.87L1398.32 -30.57ZM1409.18 -35.8L1428.8 -59.72L1409.18 -35.8ZM1424.12 -43.72L1437.4 -59.72L1424.12 -43.72ZM1446.16 -59.72L1440.72 -53.21L1354.38 51.24L1446.16 -59.72ZM1453.25 -59.76L1361.32 51L1453.25 -59.76ZM1377.02 50L1468.35 -59.68L1468.5 -59.82L1377.02 50ZM365.37 -59.68L351 -39.76L365.37 -59.68ZM351 -29.43L372.74 -59.86L351 -29.43ZM1327.36 -2L1374.16 -59.88L1327.36 -2ZM1365.1 -59.74L1315.44 2L1365.1 -59.74ZM1257.32 56.06L1296.12 7.66L1257.32 56.06ZM1263.21 55.77L1303.51 5.53L1263.21 55.77ZM1233.92 22.09L1298.38 -59.71L1233.92 22.09ZM1267.28 15L1326.76 -59.87L1267.28 15ZM1305.17 -59.73L1250.68 9.63L1250.08 10.19L1241.77 20.67L1305.17 -59.73ZM1251.28 18.54L1313.28 -59.86L1251.28 18.54ZM1241.73 20.53L1212.19 58L1241.73 20.53ZM1220.19 57.72L1251.13 18.51L1220.19 57.72ZM1320.42 -59.75L1259.74 16.7L1320.42 -59.75ZM1291.44 -59.72L1226.08 23.5L1291.44 -59.72ZM1263.21 55.76L1261.55 57.89L1263.21 55.76ZM1270.61 57.6L1272.42 55.34L1315.42 1.84999L1270.61 57.6ZM1249.15 58.17L1250.66 56.33L1249.15 58.17ZM1242.06 56.76L1240.7 58.45L1242.06 56.76ZM1255.79 58.03L1257.3 56.03L1255.79 58.03ZM1232.4 58.72L1233.75 57.02L1232.4 58.72ZM1227.41 57.44L1226.21 59L1227.41 57.44ZM1242.06 56.74L1277.4 12.6L1242.06 56.74ZM1267.28 15L1233.77 57.17L1267.28 15ZM1227.43 57.45L1259.74 16.69L1227.43 57.45ZM1219 59.3L1220.21 57.75L1219 59.3ZM1330.21 52.37L1398.29 -30.56L1330.21 52.37ZM1386.53 -25L1385 -23.2L1322.81 52.65L1386.53 -25ZM1306.96 53.65L1304.96 56.06L1306.96 53.65ZM1298.17 55.92L1299.83 53.92L1298.17 55.92ZM1292.13 54.35L1290.77 55.91L1292.13 54.35ZM1280.51 55.91L1281.26 54.77L1327.26 -2.12L1280.51 55.91ZM1384.62 -59.72L1341.85 -6.93L1292.19 54.49L1384.62 -59.72ZM1352.57 -10.89L1392.27 -59.72L1352.57 -10.89ZM1307 53.64L1362.85 -14.85L1307 53.64ZM1352.59 -10.85L1299.91 53.96L1352.59 -10.85ZM1250.55 56.37L1287.68 9.95L1250.55 56.37ZM1197.11 28.21L1267.3 -59.68L1197.11 28.21ZM1172 31.14L1171.69 31.28L1172 31.14ZM1179.39 30.43L1251.09 -59.86L1179.39 30.43ZM1243.85 -59.72L1172 31.14L1243.85 -59.72ZM1234.79 -59.72L1162.34 32.13L1234.79 -59.72ZM1276.9 -59.72L1207.77 26.61L1276.9 -59.72ZM1257.43 -59.72L1186.19 29.72L1257.43 -59.72ZM1104.07 38.22L1180 -59.72L1104.07 38.22ZM1136.83 35.39L1211.39 -59.72L1136.83 35.39ZM1119.77 37.08L1195.24 -59.72L1119.77 37.08ZM1187.69 -59.72L1112.07 37.65L1187.69 -59.72ZM1202.49 -59.72L1127.49 36.38L1202.49 -59.72ZM1219.11 -59.72L1145.11 34.54L1124.11 61.28L1219.11 -59.72ZM1225.84 -59.72L1152.18 33.55L1130.6 60.86L1225.84 -59.72ZM1148.6 60.43L1171.54 31.43L1148.6 60.43ZM1139.69 60.73L1162.34 32.14L1139.69 60.73ZM1100.45 61.86L1119.77 37.09L1100.45 61.86ZM1093.24 62L1112.11 37.66L1093.24 62ZM1107.73 61.58L1127.51 36.24L1107.73 61.58ZM1116.51 61.29L1136.89 35.4L1116.51 61.29ZM1212.19 58L1211 59.59L1212.19 58ZM1205.42 58.31L1233.94 22.08L1205.42 58.31ZM1191.23 58.88L1217.79 24.88L1191.23 58.88ZM1207.79 26.58L1181.55 59.3L1180.34 60.86L1207.79 26.58ZM1190 60.43L1191.21 58.88L1190 60.43ZM1225.92 23.5L1198.45 58.59L1197.24 60.15L1225.92 23.5ZM1204.04 59.87L1205.24 58.31L1204.04 59.87ZM1162.07 59.87L1160.72 61.71L1162.07 59.87ZM1171.89 59.59L1197.09 28.17L1171.89 59.59ZM1162.09 59.87L1186.25 29.58L1162.09 59.87ZM1154.09 62.42L1155.9 60.15L1154.09 62.42ZM1170.55 61.28L1171.91 59.59L1170.55 61.28ZM1155.91 60.15L1179.46 30.43L1155.91 60.15ZM1038.6 39.49L1113.77 -59.86L1038.6 39.49ZM1053.54 39.49L1129 -59.86L1053.54 39.49ZM1120.24 -59.72L1044.92 39.63L1120.24 -59.72ZM1068.77 39.35L1144.69 -59.86L1068.77 39.35ZM1084.32 39.07L1160.24 -59.72L1084.32 39.07ZM1151.03 -59.72L1075 39.35L1151.03 -59.72ZM1137.79 -59.72L1062 39.49L1137.79 -59.72ZM991.5 39.49L995.43 34.25L995.58 33.97L1065.32 -59.86L991.5 39.49ZM982.75 39.49L1056.26 -59.86L982.75 39.49ZM1047.05 -59.72L973.84 39.63L1047.05 -59.72ZM1090.84 -59.72L1016.27 39.63L1090.84 -59.72ZM1083.59 -59.72L1009.48 39.63L1083.59 -59.72ZM1001.93 39.49L1006 34.11L1076 -59.72L1001.93 39.49ZM1023.2 39.49L1097.77 -59.86L1023.2 39.49ZM984.11 63.41L1001.92 39.49L984.11 63.41ZM991.5 63.41L1009.31 39.49L991.5 63.41ZM1004.79 63.41H1005.24L1023.24 39.63L1004.79 63.41ZM1106.41 -59.72L1031.5 39.63L1106.41 -59.72ZM998.5 63.41L997.89 64.11L998.5 63.41ZM1013.14 63.26H1013.59L1031.59 39.49L1013.14 63.26ZM1026.76 63.12H1027.07L1045.07 39.49L1026.76 63.12ZM1020.46 63.12H1020.92L1038.92 39.49L1020.46 63.12ZM972.63 64.82L973.69 63.41L972.63 64.82ZM964.94 63.41L963.88 65L964.94 63.41ZM984.11 63.45L983.2 64.58L984.11 63.45ZM990.75 64.44L991.5 63.44L990.75 64.44ZM998.5 63.44L1016.5 39.52L998.5 63.44ZM1065.86 62.59H1066.31L1084.31 39.1L1065.86 62.59ZM1169.75 -59.69L1093.82 38.67L1169.75 -59.69ZM1075 62.27H1075.6L1093.71 38.64L1075 62.27ZM1085.56 62.13L1104.13 38.22L1085.56 62.13ZM1035.43 63H1035.73L1053.54 39.51L1035.43 63ZM1043.73 62.86H1044.03L1062.03 39.51L1043.73 62.86ZM1050.52 62.7H1050.83L1068.83 39.35L1050.52 62.7ZM1056.56 62.7H1056.86L1074.86 39.35L1056.56 62.7ZM973.69 63.41L991.5 39.49L973.69 63.41ZM924.03 39.49L995.88 -59.86L924.03 39.49ZM988.94 -59.72L917.24 39.63L988.94 -59.72ZM1004 -59.72L931.88 39.63L1004 -59.72ZM1017.47 -59.72L949.09 34L1017.47 -59.72ZM1034.22 -59.69L961.31 39.63L1034.22 -59.69ZM945 39.49L948.94 34L945 39.49ZM953.31 39.52L1026.07 -59.83L953.31 39.52ZM939 39.49L1011.31 -59.86L939 39.49ZM863.05 39.49L933.84 -59.86L863.05 39.49ZM893.84 39.49L964.63 -59.86L893.84 39.49ZM875.73 39.49L946.52 -59.86L875.73 39.49ZM925.52 -59.72L854.72 39.63L925.52 -59.72ZM940.61 -59.72L869.84 39.63L940.61 -59.72ZM955.58 -59.72L884.78 39.63L955.58 -59.72ZM974.78 -59.72L903.5 39.49L974.78 -59.72ZM885.69 64.26L886.9 62.56L885.69 64.26ZM877.69 62.27L876.48 64L877.69 62.27ZM893.84 62.73L910.44 39.52L893.84 62.73ZM886.9 62.56L903.5 39.49L886.9 62.56ZM899 64.82L900.51 62.82L899 64.82ZM893.87 62.68L892.51 64.52L893.87 62.68ZM907 62.84L923.91 39.49L907 62.84ZM853.23 62.7L853.99 61.57L853.23 62.7ZM847.5 61.28L846.74 62.28L847.5 61.28ZM875.74 39.5L859.88 61.85L859 63.12L875.74 39.5ZM877.72 62.27L894 39.49L877.72 62.27ZM867.58 63.69L868.79 61.99L884.79 39.49L867.58 63.69ZM948 66.66L950.41 63.41L948 66.66ZM940.91 67.41L943.77 63.41L961.28 39.63L940.91 67.41ZM967.92 39.49L1041 -59.86L967.92 39.49ZM956.18 63.41L954.52 65.53L956.18 63.41ZM964.94 63.41L982.75 39.49L964.94 63.41ZM956.18 63.41L973.84 39.49L956.18 63.41ZM921.76 63.12L939 39.49L921.76 63.12ZM931.91 39.49L914.82 63L912.82 65.69L931.91 39.49ZM935.76 63.28L933.05 66.96L935.76 63.28ZM925.35 66.54L927.76 63.28L925.35 66.54ZM921.76 63.14L919.5 66.14L921.76 63.14ZM935.8 63.3L953.31 39.53L935.8 63.3ZM927.8 63.26L945.16 39.49L927.8 63.26ZM854.16 61.57L870 39.49L854.16 61.57ZM900.49 62.84L917.25 39.49L900.49 62.84ZM863.06 39.49L847.5 61.28L863.06 39.49ZM839.35 61L838.74 61.85L839.35 61ZM906.97 62.85L905.31 65.11L906.97 62.85ZM950.44 63.42L968 39.49L950.44 63.42ZM802.87 39.49L873.66 -59.86L802.87 39.49ZM832.55 39.49L903.35 -59.86L832.55 39.49ZM817.35 39.49L888.1 -59.86L817.35 39.49ZM863.65 -59.72L792.86 39.63L863.65 -59.72ZM881 -59.72L810.2 39.63L881 -59.72ZM895.04 -59.72L824.24 39.63L895.04 -59.72ZM910.74 -59.72L840 39.63L910.74 -59.72ZM738.87 39.49L809.66 -59.86L738.87 39.49ZM768.85 39.49L839.65 -59.86L768.85 39.49ZM753.76 39.49L824.55 -59.86L753.76 39.49ZM802.37 -59.72L731.57 39.63L802.37 -59.72ZM816 -59.72L745.16 39.63L816 -59.72ZM832.86 -59.72L762.06 39.63L832.86 -59.72ZM845.69 -59.72L774.89 39.63L845.69 -59.72ZM779 59L779.9 57.73L779 59ZM735.07 53.73L734.17 54.87L735.07 53.73ZM729.17 53.17L739 39.49L729.17 53.17ZM735 53.78L745.27 39.49L735 53.78ZM824.67 60.43H824.97L840 39.49L824.67 60.43ZM846.19 39.49L917.19 -59.86L846.19 39.49ZM830.59 60.58H831.05L846.14 39.49L830.59 60.58ZM817.61 60H817.91L832.55 39.48L817.61 60ZM839.35 61L854.74 39.49L839.35 61ZM803.27 59.16L817.27 39.49L803.27 59.16ZM796.27 58.74L810 39.49L796.27 58.74ZM789.38 58.31L802.82 39.49L789.38 58.31ZM809.46 59.59H809.91L824.25 39.49L809.46 59.59ZM789.38 58.31L788.48 59.73L789.38 58.31ZM802.67 60.01L803.27 59.16L802.67 60.01ZM795.57 59.87L796.33 58.74L795.57 59.87ZM854.74 -59.72L784 39.63L771.42 57.18L854.74 -59.72ZM768.85 39.49L757.23 55.76L768.85 39.49ZM753.76 39.49L743 54.63L753.76 39.49ZM750.85 55.2L762.17 39.49L750.85 55.2ZM763 56.33L774.92 39.49L763 56.33ZM779.92 57.75L792.92 39.49L779.92 57.75ZM673 39.49L743.8 -59.86L673 39.49ZM709.23 39.49L779.87 -59.86L709.23 39.49ZM691.12 39.49L761.91 -59.86L691.12 39.49ZM752.85 -59.72L682.06 39.63L752.85 -59.72ZM787.12 -59.72L716.32 39.49L787.12 -59.72ZM772.48 -59.72L701.68 39.63L772.48 -59.72ZM670.74 -59.72L606.13 30.72L670.74 -59.72ZM612.62 32.13L678.29 -59.87L612.62 32.13ZM685.38 -59.73L618.66 33.69L685.38 -59.73ZM692.32 -59.72L624.7 35.1L692.32 -59.72ZM631.64 36.8L700.48 -59.72L631.64 36.8ZM707.87 -59.72L638 38.22L707.87 -59.72ZM642.38 39.35L643.14 39.49L642.38 39.35ZM643.44 39.49L714.23 -59.86L643.44 39.49ZM643.27 39.63L643.12 39.49L643.27 39.63ZM722.66 -59.72L652 39.63L722.66 -59.72ZM660.15 39.49L731 -59.86L660.15 39.49ZM652 39.49L650.79 41.19L650.64 41.33L652 39.49ZM657.89 42.74L660.15 39.49L657.89 42.74ZM737.89 -59.72L667.12 39.63L664 44L737.89 -59.72ZM714.71 51.5L723.32 39.5L714.71 51.5ZM708.32 50.81L716.32 39.49L708.32 50.81ZM722.32 52.37L731.53 39.49L722.32 52.37ZM701.83 50L709.23 39.53L701.83 50ZM695 49L701.79 39.52L695 49ZM685.34 47.59L691.08 39.52L685.34 47.59ZM677.19 46.31L682.02 39.52L677.19 46.31ZM669.19 44.9L673.11 39.52L669.19 44.9ZM605.23 -59.72L549.07 18.54L605.23 -59.72ZM620 -59.72L562 21.28L620 -59.72ZM542.52 17.28L542.67 17L597.77 -59.85L542.52 17.28ZM569.3 22.65L628.3 -59.72L569.3 22.65ZM554.64 19.68L611.7 -59.72L554.64 19.68ZM580.3 25.05L641.13 -59.72L580.3 25.05ZM596 28.31L659.25 -59.86L596 28.31ZM650.19 -59.72L588.19 26.75L650.19 -59.72ZM635.29 -59.72L575.19 23.92L635.29 -59.72ZM499.41 9.77L549.23 -59.72L499.41 9.77ZM558.23 -59.72L507.56 11L558.23 -59.72ZM540.17 -59.76L491.26 8.5L540.17 -59.76ZM575.64 -59.72L523 13.73L575.64 -59.72ZM529.34 14.87L582.78 -59.72L529.34 14.87ZM589.72 -59.72L535.34 16L589.72 -59.72ZM516.34 12.46L568.27 -59.86L516.34 12.46ZM486 7.64999L534.3 -59.72L486 7.64999ZM458.66 3.82999L504.24 -59.86L458.66 3.82999ZM472.09 5.67L519 -59.72L472.09 5.67ZM510.54 -59.72L464.39 4.53L510.54 -59.72ZM431.18 0.709991L474.66 -59.86L431.18 0.709991ZM444.17 2.14L488.7 -59.86L444.17 2.14ZM481.75 -59.72L437.83 1.41999L481.75 -59.72ZM497 -59.72L451.86 3L497 -59.72ZM447.49 -59.7L405.49 -1.39L447.49 -59.7ZM396.92 -2L438.43 -59.88L396.92 -2ZM414.13 -0.700008L456.54 -59.7L414.13 -0.700008ZM432.54 -59.7L391.18 -2.26L432.54 -59.7ZM384.54 -2.54L425.6 -59.72L384.54 -2.54ZM368.09 -3.11L408.69 -59.72L368.09 -3.11ZM417.3 -59.72L376.54 -2.82L417.3 -59.72ZM402.54 -59.72L361.9 -3.11L402.54 -59.72ZM467.11 -59.72L424.24 0.149994L467.11 -59.72ZM527.49 -59.72L479.79 6.8L527.49 -59.72ZM1903.23 22.93H1903.53L1934.78 -9.07L1903.23 22.93ZM1934.78 -24.36L1888.28 23.64L1934.78 -24.36ZM1912.13 23.21L1912.89 22.51L1912.13 23.21ZM1934.78 -18.39L1894.17 23.5L1934.78 -18.39ZM1923.91 21.94L1922.7 23.21L1923.91 21.94ZM1934.78 18.26L1931.61 21.52L1934.78 18.26ZM1934.78 10.62L1923.91 21.8L1934.78 10.62ZM1912.91 22.37L1934.91 -0.140007L1912.91 22.37ZM1851.13 24.63L1932.19 -59.86L1851.13 24.63ZM1873 24.06L1934.74 -39.94L1873 24.06ZM1934.74 -48.58L1864.54 24.31L1934.74 -48.58ZM1924.17 -59.76L1842.85 25.2L1924.17 -59.76ZM1934.78 -55L1858.4 24.4L1934.78 -55ZM1881.49 23.83L1934.78 -31.17L1881.49 23.83ZM1917.27 -59.62L1835.9 25.58L1917.27 -59.62ZM1785 28.59L1868.32 -59.86L1785 28.59ZM1861.22 -59.72L1777.45 29.28L1861.22 -59.72ZM1874.66 -59.72L1791.49 28.17L1874.66 -59.72ZM1811.86 26.75L1894 -59.72L1811.86 26.75ZM1903.21 -59.72L1821.39 26.19L1903.21 -59.72ZM1884.34 -59.72L1801.77 27.46L1884.34 -59.72ZM1735.2 31.56L1820.2 -59.72L1735.2 31.56ZM1720.27 32.28L1805.55 -59.85L1720.27 32.28ZM1752.12 30.73L1836.65 -59.71L1752.12 30.73ZM1797.65 -59.71L1712.22 32.85L1797.65 -59.71ZM1813.05 -59.71L1727.83 32L1813.05 -59.71ZM1829 -59.72L1744.32 31.14L1829 -59.72ZM1758.51 30.86L1758.96 30.29L1758.51 30.86ZM1768.17 29.87L1852.25 -59.72L1768.17 29.87ZM1669.41 35L1756.05 -59.68L1669.41 35ZM1651.75 35.85L1738.54 -59.68L1651.75 35.85ZM1747.15 -59.68L1660.5 35.39L1747.15 -59.68ZM1668.96 35.39L1669.26 34.96L1668.96 35.39ZM1762.85 -59.72L1676.35 34.68L1762.85 -59.72ZM1682.69 34.25L1769.03 -59.75L1682.69 34.25ZM1676.5 34.54L1675.9 35.1L1676.5 34.54ZM1682.69 34.25L1681.94 34.96L1682.69 34.25ZM1778.24 -59.72L1692.35 33.83L1778.24 -59.72ZM1596.65 37.83L1684.05 -59.82L1596.65 37.83ZM1637.86 36.27L1724.86 -59.68L1637.86 36.27ZM1622.31 36.8L1709.41 -59.72L1622.31 36.8ZM1702.16 -59.72L1615.07 37.08L1702.16 -59.72ZM1694.62 -59.72L1607.52 37.37L1694.62 -59.72ZM1716.35 -59.72L1629.41 36.52L1716.35 -59.72ZM1732.2 -59.72L1645.26 36.09L1732.2 -59.72ZM1702 33.26L1787.74 -59.86L1702 33.26ZM1548.04 40.34L1636.49 -59.86L1548.04 40.34ZM1578.08 38.64L1665.78 -59.72L1578.08 38.64ZM1565.26 39.35L1653.26 -59.86L1565.26 39.35ZM1630.26 -59.72L1541.56 40.9L1630.26 -59.72ZM1645 -59.72L1556.69 39.91L1645 -59.72ZM1660.09 -59.72L1572.2 39.07L1660.09 -59.72ZM1504.12 43.45L1594.24 -59.72L1504.12 43.45ZM1601.18 -59.72L1511.52 43L1601.18 -59.72ZM1565 -59.72L1474.84 45L1474.23 45.56L1565 -59.72ZM1484.8 44.43L1574.8 -59.87L1484.8 44.43ZM1468.5 45.29L1558.76 -59.71L1468.5 45.29ZM1484.35 44.87L1484.65 44.44L1484.35 44.87ZM1584.27 -59.72L1494.46 43.88L1584.27 -59.72ZM1467.89 46L1468.5 45.29L1467.89 46ZM1461.1 45.72L1460.35 46.57L1461.1 45.72ZM1615.07 -59.72L1525.86 41.9L1615.07 -59.72ZM1518.76 42.46L1608.28 -59.72L1518.76 42.46ZM1534.28 41.33L1623.19 -59.67L1534.28 41.33ZM1406.43 -59.67L1373.4 -19.24L1314.23 53.22L1406.43 -59.67ZM1363.89 -16.13L1362.83 -14.85L1363.89 -16.13ZM1477.83 -59.72L1386.53 49.54L1477.83 -59.72ZM1459.29 -59.72L1367.51 50.53L1459.29 -59.72ZM1353.32 52.37L1354.38 51.24L1353.32 52.37ZM1452.2 46.14L1542.61 -59.72L1452.2 46.14ZM1436.19 47L1526.91 -59.71L1436.19 47ZM1441.91 47.85L1442.97 46.58L1441.91 47.85ZM1452.18 46.15L1451.27 47.15L1452.18 46.15ZM1419.42 47.86L1510.42 -59.7L1419.42 47.86ZM1404.65 48.55L1495.82 -59.86L1404.65 48.55ZM1503.22 -59.72L1412.22 48.12L1503.22 -59.72ZM1519.37 -59.72L1428.5 47.41L1519.37 -59.72ZM1488 -59.72L1396.65 49L1488 -59.72ZM1551.52 -59.72L1461.1 45.72L1551.52 -59.72ZM1675 -59.72L1587.45 38.36L1675 -59.72ZM1828.82 25.76L1910.48 -59.72L1828.82 25.76ZM1386.53 -25L1415.06 -59.82L1386.53 -25ZM1399.51 -59.68L1363.89 -16.09L1399.51 -59.68ZM1533.71 -59.68L1442.84 46.71L1533.71 -59.68ZM1843.45 -59.72L1758.92 30.43L1843.45 -59.72ZM723.27 39.49L794.06 -59.86L723.27 39.49ZM910.44 39.49L982 -59.72L910.44 39.49ZM1217.78 24.91L1284.2 -59.72L1217.78 24.91ZM1424.13 -43.72L1345.49 51.66L1424.13 -43.72ZM1336.73 52.08L1409.19 -35.8L1336.73 52.08ZM354.65 -3.25L395.26 -59.86L354.65 -3.25ZM386.81 -59.72L351 -9.76L346.62 -3.67001L386.81 -59.72ZM351 -19.38L340.31 -4.52L351 -19.38ZM351 -29.43L333.52 -5.09L351 -29.43ZM351 -39.76L326.7 -5.76L351 -39.76Z" stroke="#275600" stroke-opacity="0.29" stroke-linecap="round" stroke-linejoin="round"/>
</g>
</g>
<g id="Group 12">
<path id="Vector 161" d="M1352.83 -2.46002C1351.7 -4.46002 1350 -5.15003 1347.31 -4.58003C1344.62 -4.01003 1343.63 -2.46004 1343.91 -0.0500336C1348.44 42.97 1365.94 80.7566 1396.42 113.31C1425.43 144.303 1461.51 165.813 1504.68 177.84C1525.91 183.78 1551.95 187.447 1582.8 188.84C1617.9 189.55 1644.22 190.39 1661.91 191.39C1676.2 192.119 1690.42 193.725 1704.51 196.2C1718.57 198.645 1732.32 202.629 1745.51 208.08C1759.24 214.03 1769.28 218.84 1775.51 222.8C1786.41 229.45 1794.33 236.96 1799.29 245.45C1799.37 245.701 1799.5 245.933 1799.68 246.133C1799.85 246.332 1800.06 246.496 1800.3 246.614C1800.53 246.732 1800.79 246.802 1801.05 246.82C1801.32 246.839 1801.58 246.804 1801.83 246.72C1804.1 263.84 1807.08 283.227 1810.75 304.88C1812.75 316.49 1816.27 335.74 1821.36 362.88C1830.84 413.4 1837.51 457.79 1841.36 496.05C1846.17 544.17 1847.26 589.03 1844.61 630.63C1841.75 675.225 1834.55 719.435 1823.1 762.63C1811.68 805.85 1796.28 847.919 1777.1 888.3C1762.38 919.44 1747.38 945.62 1731.81 966.99C1729.12 970.67 1720.91 987.79 1707.33 1018.22C1692.89 1050.63 1684.97 1067.89 1683.84 1070.16C1682.99 1071.57 1682.42 1072.7 1682 1073.55C1681.35 1074.76 1680.82 1076.05 1680.44 1077.37C1679.02 1077.66 1678.32 1078.65 1678.32 1080.37C1678.32 1082.09 1679.02 1082.92 1680.44 1083.21L1680.72 1083.77C1681 1084.36 1681.45 1084.86 1682 1085.21C1682.55 1085.56 1683.19 1085.76 1683.84 1085.77C1684.44 1085.76 1685.03 1085.62 1685.57 1085.35C1686.11 1085.08 1686.58 1084.7 1686.95 1084.22C1696.39 1085.35 1705.88 1085.91 1715.39 1085.91C1731.53 1086.06 1741.01 1086.2 1743.84 1086.34L1779.36 1088.04C1792.66 1088.6 1804.55 1088.74 1815.02 1088.74C1822.95 1088.6 1832.71 1088.18 1844.46 1087.19L1873.9 1084.92C1879.84 1084.64 1888.9 1084.36 1900.9 1084.07C1902.32 1084 1903.74 1083.86 1905.14 1083.65C1906.41 1083.18 1907.43 1082.23 1908 1081C1908.08 1080.77 1908.11 1080.52 1908.09 1080.28C1908.06 1080.04 1907.99 1079.8 1907.86 1079.59C1907.58 1079.02 1907.44 1078.59 1907.3 1078.31C1907.3 1078.17 1907.01 1077.89 1906.73 1077.46C1913.24 1066.85 1922.77 1041.99 1935.32 1002.88C1947.06 966.513 1954.28 940.947 1956.97 926.18C1972.4 841.967 1976.12 754.13 1968.15 662.67C1965.6 633.37 1963.62 611.67 1961.92 597.57C1959.64 575.899 1956.24 554.36 1951.73 533.04C1947.91 514.92 1942.73 493.83 1936.17 469.92C1928.38 442.18 1922.58 421.38 1918.62 407.51C1918.05 390.81 1922.62 373.12 1932.49 354.58C1939.85 340.71 1950.49 325.58 1964.61 309.15C1967.73 305.47 1980.99 290.893 2004.38 265.42C2020.51 247.867 2033.1 232.723 2042.16 219.99C2061.69 192.25 2075.84 165.457 2084.62 139.61C2084.89 139.91 2085.21 140.154 2085.58 140.326C2085.94 140.497 2086.34 140.594 2086.74 140.61C2102.03 140.33 2115.33 131.41 2126.65 114C2136.56 98.72 2141.79 82.87 2142.22 66.6C2142.36 65.18 2141.65 64.33 2140.1 63.91C2139.81 63.7841 2139.5 63.7171 2139.19 63.7131C2138.87 63.709 2138.56 63.7679 2138.27 63.8863C2137.98 64.0047 2137.72 64.1801 2137.49 64.4023C2137.27 64.6245 2137.1 64.889 2136.98 65.18C2132.8 72.8661 2126.71 79.3472 2119.3 84C2111.95 88.6269 2103.78 91.7978 2095.24 93.34C2097.01 74.6784 2095.48 55.8501 2090.72 37.72C2086.61 21.31 2079.96 3.71998 2070.62 -14.92C2069.62 -17.04 2067.93 -17.61 2065.67 -16.62C2063.41 -15.63 2062.55 -14.07 2063.26 -11.95C2075.26 21.45 2074.72 56.83 2061.7 94.47C2049.74 129.091 2028.73 159.878 2000.85 183.63C1994.06 189.43 1983.87 197.357 1970.28 207.41C1955.28 218.41 1944.67 226.51 1938.58 231.61C1914.1 251.557 1897.68 271.37 1889.33 291.05C1876.6 233.45 1869.33 181.273 1867.54 134.52C1865.98 107.21 1864.99 86.83 1864.43 73.1C1863.43 49.19 1863.72 28.67 1865.43 11.69C1867.29 -10.4691 1872.15 -32.2739 1879.86 -53.13C1882.84 -61.2905 1886.49 -69.1935 1890.76 -76.76C1895.99 -85.11 1902.08 -91.06 1909.01 -94.76C1909.85 -95.1217 1910.53 -95.7903 1910.9 -96.631C1911.27 -97.4718 1911.31 -98.422 1911.01 -99.29C1911.87 -100.113 1912.42 -101.214 1912.56 -102.4C1912.69 -103.037 1912.66 -103.699 1912.46 -104.319C1912.26 -104.939 1911.91 -105.498 1911.43 -105.94C1905.06 -113.44 1894.02 -111.03 1878.6 -98.58C1866.99 -89.1 1857.94 -79.47 1851.6 -69.71C1836.88 -46.4967 1825.27 -19.7034 1816.78 10.67C1809.85 35.87 1804.67 64.74 1801.22 97.28C1800.37 105.07 1799.52 114.69 1798.67 126.01C1789.05 123.61 1776.87 123.01 1762.16 124.46C1754.94 125.02 1744.47 126.293 1730.74 128.28C1716.59 130.28 1706.11 131.53 1699.46 132.28C1650.79 136.947 1607.58 136.947 1569.83 132.28C1522.14 126.34 1480.2 112.753 1444.02 91.52C1404.77 68.44 1374.2 37 1352.83 -2.46002Z" fill="#7D4E24"/>
<path id="Vector 162" d="M1385 -120.48C1391.58 -138.1 1401.77 -149.57 1415.78 -154.66C1430.21 -159.97 1445.28 -157.42 1461.42 -147.44C1475.21 -138.95 1481.16 -126.85 1478.82 -111.57C1476.91 -98.62 1469.69 -83.97 1456.75 -67.63C1445.07 -53.0032 1431.82 -39.6915 1417.26 -27.93C1403 -16.47 1391.11 -8.61007 1381.77 -4.79007L1381.56 -4.58006C1380.5 -0.120065 1377.74 1.35994 1373.07 0.299942C1368.4 -0.760058 1366.7 -3.70006 1367.55 -8.19006C1369.03 -16.04 1371.16 -34.72 1373.92 -64.44C1376.25 -88 1379.86 -106.47 1385 -120.48Z" fill="#008C36"/>
<path id="Vector 163" d="M1326.15 12.83C1297.71 27.69 1277.33 36.6033 1265 39.57C1237 46.16 1222.12 36.81 1220.42 11.77C1219.57 -0.550028 1223.6 -9.25336 1232.52 -14.34C1240.16 -18.5867 1250.77 -20.0733 1264.36 -18.8C1276.92 -17.3447 1289.21 -14.1298 1300.87 -9.25003C1312.76 -4.37003 1321.68 0.519971 1327.2 5.81997C1327.5 6.03614 1327.73 6.32663 1327.88 6.66202C1328.02 6.99742 1328.08 7.36583 1328.04 7.72997C1328.44 8.67973 1328.51 9.73254 1328.26 10.73C1328.06 11.55 1327.21 12.19 1326.15 12.83Z" fill="#94C01F"/>
<path id="Vector 164" d="M1336.13 27.69C1336.6 28.0382 1336.97 28.4911 1337.23 29.0123C1337.49 29.5334 1337.62 30.1081 1337.62 30.69C1338.41 42.8498 1338.34 55.0506 1337.4 67.2C1336.13 80.79 1333.58 92.67 1329.55 102.65C1324.88 114.11 1317.87 121.54 1308.55 124.52C1299 127.52 1289.24 125.58 1278.84 118.36C1269.71 112.2 1265.67 103.71 1266.74 93.36C1267.58 84.45 1272.04 74.68 1279.9 64.28C1287.23 54.6868 1295.96 46.2435 1305.79 39.23C1315.79 32.01 1324.48 27.77 1331.69 26.49C1332.29 26.4497 1332.88 26.6003 1333.39 26.92C1333.88 26.8554 1334.37 26.8903 1334.84 27.0227C1335.31 27.1551 1335.75 27.3821 1336.13 27.69Z" fill="#3AA935"/>
<g id="Group 13">
<path id="Vector 165" d="M1609.12 40.6399C1608.91 38.2999 1609.34 36.6399 1610.18 35.7499C1610.34 35.0136 1610.7 34.3386 1611.24 33.8062C1611.77 33.2739 1612.44 32.907 1613.18 32.7499L1623.37 30.1999C1626.86 29.4017 1630.48 29.3336 1634 29.9999C1634.75 30.1163 1635.45 30.4699 1635.99 31.0093C1636.53 31.5487 1636.88 32.2459 1637 32.9999C1637.23 33.6977 1637.25 34.4469 1637.06 35.1568C1636.87 35.8667 1636.48 36.5068 1635.94 36.9999C1632.32 40.2526 1628.97 43.8015 1625.94 47.6099C1629.34 49.3099 1632.1 50.6099 1634.01 51.4299C1634.76 51.7502 1635.42 52.2447 1635.95 52.8724C1636.47 53.5002 1636.83 54.2432 1637.01 55.0399C1637.26 55.8244 1637.2 56.6756 1636.85 57.4192C1636.49 58.1628 1635.87 58.7426 1635.1 59.0399C1632.98 59.8899 1630.01 61.3799 1625.76 63.4999C1622.72 65.0147 1619.39 65.8829 1616 66.0499C1614.72 66.2599 1614.09 65.6199 1613.87 64.1399C1613.57 64.0477 1613.3 63.8839 1613.08 63.6625C1612.86 63.4412 1612.69 63.169 1612.6 62.8699C1611.54 57.3499 1610.69 51.6099 1610.05 45.8699C1609.55 43.6099 1609.34 41.9099 1609.12 40.6399Z" fill="#F8B133"/>
<path id="Vector 166" d="M1565.61 98.9999C1565.49 98.7797 1565.42 98.5372 1565.39 98.2873C1565.37 98.0374 1565.4 97.7856 1565.48 97.5474C1565.56 97.3092 1565.68 97.0898 1565.85 96.9027C1566.02 96.7156 1566.22 96.5648 1566.45 96.4599C1566.65 96.2983 1566.88 96.1849 1567.13 96.1287C1567.38 96.0725 1567.64 96.0751 1567.88 96.1363C1568.13 96.1974 1568.36 96.3156 1568.55 96.4811C1568.75 96.6466 1568.9 96.855 1569 97.0899C1572.38 102.286 1574.29 108.304 1574.52 114.5C1574.87 120.622 1572.98 126.662 1569.21 131.5C1571.21 133.03 1572.63 135.207 1573.21 137.66C1573.84 140.239 1573.84 142.931 1573.21 145.51C1573.2 145.732 1573.13 145.949 1573.02 146.143C1572.91 146.336 1572.76 146.502 1572.57 146.626C1572.39 146.75 1572.18 146.829 1571.96 146.858C1571.74 146.886 1571.51 146.863 1571.3 146.79C1570.24 146.57 1569.6 145.94 1569.6 145.09C1569.39 140.84 1568.54 138.09 1567.05 136.38C1566.2 138.08 1565.14 140.63 1563.44 144.03C1563.02 145.51 1561.96 145.94 1560.44 145.3C1560.13 145.223 1559.85 145.072 1559.62 144.86C1559.39 144.647 1559.21 144.381 1559.11 144.084C1559 143.787 1558.97 143.469 1559.02 143.158C1559.07 142.846 1559.19 142.552 1559.38 142.3C1560.02 141.45 1561.29 138.9 1563.38 134.87C1561.48 134.9 1559.64 135.492 1558.08 136.57C1556.54 137.58 1554.9 138.431 1553.19 139.11C1552.93 139.207 1552.65 139.218 1552.38 139.142C1552.12 139.067 1551.88 138.908 1551.71 138.69C1551.28 138.26 1551.07 137.84 1551.28 137.42C1551.71 136.111 1552.43 134.916 1553.39 133.923C1554.34 132.929 1555.51 132.163 1556.8 131.68C1559.37 130.425 1562.26 129.982 1565.08 130.41L1565.29 129.77C1570.49 119.39 1570.49 109.2 1565.61 98.9999Z" fill="#1D1D1B"/>
<path id="Vector 167" d="M1544.8 96.89C1544.86 96.595 1545.02 96.3299 1545.26 96.1376C1545.49 95.9452 1545.78 95.8368 1546.08 95.83C1546.41 95.8127 1546.74 95.882 1547.04 96.0311C1547.33 96.1801 1547.59 96.4037 1547.77 96.68C1550.11 100.5 1550.54 105.593 1549.05 111.96C1547.56 118.54 1544.8 123 1540.77 125.34C1541.11 126.584 1541.25 127.873 1541.19 129.16C1541.19 131.7 1539.92 134.46 1537.19 137.44C1537.1 137.578 1536.98 137.695 1536.85 137.783C1536.71 137.87 1536.55 137.926 1536.39 137.946C1536.23 137.966 1536.06 137.95 1535.91 137.899C1535.75 137.847 1535.61 137.763 1535.49 137.65C1534.85 137.22 1534.64 136.8 1534.85 136.16C1536.13 131.7 1536.13 128.517 1534.85 126.61C1534.93 129.082 1534.27 131.522 1532.94 133.61C1531.46 135.95 1529.55 137.01 1527 136.61C1526.86 136.619 1526.72 136.597 1526.58 136.547C1526.45 136.497 1526.33 136.419 1526.23 136.319C1526.13 136.219 1526.05 136.098 1526 135.966C1525.95 135.833 1525.93 135.691 1525.94 135.55C1525.8 134.977 1525.88 134.372 1526.15 133.85C1526.36 133.42 1527 133 1528.06 132.15C1528.8 131.624 1529.44 130.978 1529.97 130.24C1530.79 128.88 1531.29 127.357 1531.46 125.78C1529.52 126.579 1527.67 127.585 1525.94 128.78C1524.67 129.63 1523.6 129.42 1522.54 128.15C1521.48 126.88 1521.69 125.81 1522.76 124.96C1524.89 123.19 1527.34 121.834 1529.97 120.96C1532.97 120.11 1535.49 120.32 1537.61 121.81C1539.53 118.62 1540.61 116.92 1540.8 116.5C1541.85 114.563 1542.64 112.49 1543.13 110.34C1543.59 108.173 1543.88 105.973 1543.98 103.76C1544.01 101.447 1544.28 99.1438 1544.8 96.89Z" fill="#1D1D1B"/>
<path id="Vector 168" d="M1558.6 22.59C1568.79 14.95 1580.04 13.25 1592.6 17.5C1603.85 21.32 1611.06 29.6 1614.46 42.12C1617.48 53.471 1616.35 65.525 1611.28 76.12C1605.6 88.5429 1595.33 98.2815 1582.62 103.29C1569.88 108.377 1556.72 108.59 1543.13 103.93C1529.97 99.5352 1518.87 90.471 1511.93 78.45C1504.68 67 1501.28 54 1501.28 39.57C1501.24 38.8805 1501.43 38.1973 1501.81 37.6236C1502.2 37.0499 1502.76 36.6169 1503.41 36.39C1504.03 36.071 1504.74 35.961 1505.43 36.0763C1506.11 36.1916 1506.75 36.5261 1507.23 37.03C1512.23 41.7973 1518.15 45.481 1524.64 47.85C1531.05 49.9716 1537.57 51.7442 1544.17 53.16C1543.74 40.42 1548.62 30 1558.6 22.59Z" fill="#FFC700"/>
<path id="Vector 169" d="M1538.86 69.51C1542.15 66.9131 1546.14 65.3598 1550.32 65.05C1552.23 64.84 1553.32 65.9 1553.32 67.81C1553.32 69.93 1552.47 70.99 1550.32 70.99C1548.2 71.1323 1546.12 71.6362 1544.17 72.48C1541.62 73.75 1540.77 75.24 1541.62 77.15C1542.68 79.27 1544.62 79.7 1547.35 78.42C1549.42 77.445 1551.3 76.088 1552.87 74.42C1553.72 73.57 1554.57 73.57 1555.87 73.99C1556.36 74.1557 1556.79 74.47 1557.09 74.8892C1557.4 75.3084 1557.56 75.8118 1557.57 76.33C1556.93 81.64 1557.36 84.18 1558.84 83.97C1560.32 83.76 1562.03 81.42 1563.94 77.18C1564.1 76.6287 1564.43 76.1443 1564.89 75.7996C1565.35 75.4549 1565.91 75.2685 1566.49 75.2685C1567.06 75.2685 1567.62 75.4549 1568.08 75.7996C1568.54 76.1443 1568.87 76.6287 1569.03 77.18C1569.62 78.997 1570.47 80.7135 1571.58 82.27C1573.07 83.97 1574.34 83.76 1575.58 81.85C1577.49 78.66 1577.28 74.85 1574.73 70.39C1574.57 70.1718 1574.47 69.9231 1574.41 69.6603C1574.36 69.3975 1574.37 69.1266 1574.43 68.8656C1574.49 68.6047 1574.6 68.3595 1574.77 68.1465C1574.93 67.9334 1575.13 67.7574 1575.37 67.63C1575.53 67.4405 1575.74 67.2923 1575.97 67.1975C1576.2 67.1027 1576.45 67.0639 1576.7 67.0844C1576.95 67.1049 1577.19 67.184 1577.4 67.3154C1577.61 67.4467 1577.79 67.6265 1577.92 67.84C1580.15 70.5525 1581.48 73.8886 1581.74 77.39C1581.91 79.1341 1581.7 80.895 1581.11 82.5462C1580.52 84.1974 1579.58 85.6979 1578.34 86.94C1576.22 89.28 1574.1 89.94 1571.76 88.85C1569.85 88 1568.15 86.31 1566.45 83.76C1564.12 87.37 1561.57 89.28 1558.39 89.28C1555.21 89.28 1553.29 86.73 1552.66 81.85C1549.68 83.7633 1546.92 84.6133 1544.38 84.4C1541.38 84.4 1539.07 82.7 1537.16 79.94C1534.4 76.09 1535 72.48 1538.86 69.51Z" fill="#F8B133"/>
<path id="Vector 170" d="M1579.62 44C1579.02 45.4904 1578.66 47.0666 1578.55 48.67C1578.46 50.2067 1578.1 51.7158 1577.49 53.13C1577.3 53.4193 1577.05 53.6642 1576.76 53.8473C1576.47 54.0304 1576.14 54.1474 1575.8 54.19C1575.45 54.1915 1575.1 54.0928 1574.8 53.9053C1574.5 53.7177 1574.25 53.449 1574.1 53.13C1572.61 50.13 1573.25 46.13 1575.8 40.82C1576.37 39.4152 1577.26 38.1643 1578.41 37.1688C1579.55 36.1733 1580.91 35.4611 1582.38 35.09C1585.98 34.24 1588.96 35.51 1590.87 39.09C1592.58 42.2201 1593.32 45.7877 1593 49.34C1593 50.4 1592.58 50.83 1591.3 51.04C1591.09 51.1153 1590.86 51.1401 1590.64 51.1126C1590.42 51.0851 1590.21 51.0059 1590.02 50.8814C1589.84 50.7569 1589.68 50.5906 1589.57 50.3959C1589.46 50.2011 1589.4 49.9833 1589.39 49.76C1587.69 42.97 1585.39 39.76 1582.81 39.76C1582 40.21 1580.68 41.49 1579.62 44Z" fill="#1D1D1B"/>
</g>
</g>
</g>
</g>
</g>
<defs>
<linearGradient id="paint0_linear" x1="227.91" y1="743.3" x2="237.46" y2="1080.19" gradientUnits="userSpaceOnUse">
<stop offset="0.02" stop-color="#8BD547"/>
<stop offset="1" stop-color="#56A742"/>
</linearGradient>
<linearGradient id="paint1_linear" x1="-627405" y1="55728.8" x2="-627329" y2="62559.4" gradientUnits="userSpaceOnUse">
<stop offset="0.02" stop-color="#8BD547"/>
<stop offset="1" stop-color="#56A742"/>
</linearGradient>
<linearGradient id="paint2_linear" x1="338249" y1="83141.7" x2="338318" y2="94490.4" gradientUnits="userSpaceOnUse">
<stop offset="0.02" stop-color="#8BD547"/>
<stop offset="1" stop-color="#56A742"/>
</linearGradient>
<linearGradient id="paint3_linear" x1="257786" y1="36236.7" x2="257803" y2="59075.6" gradientUnits="userSpaceOnUse">
<stop offset="0.02" stop-color="#8BD547"/>
<stop offset="1" stop-color="#56A742"/>
</linearGradient>
<clipPath id="clip0">
<rect width="1920" height="1080" fill="white"/>
</clipPath>
</defs>
</svg>
