<svg id="bf301036-33d8-4646-88a5-2f79a7300d50" data-name="Layer 1" xmlns="http://www.w3.org/2000/svg" viewBox="0 0 408.56 75.35">
  <defs>
    <style>
      .a357e410-74aa-44cc-a75e-94e545b793ca {
        fill: #03f;
      }

      .f09fc816-c030-4cf9-b9da-0df32c29732b {
        isolation: isolate;
        font-size: 46.53px;
        fill: #fff;
        font-family: Chacey;
      }
    </style>
  </defs>
  <g id="b638414a-93ce-44ce-bcbb-06149e4f0ca1" data-name="Layer 2">
    <path class="a357e410-74aa-44cc-a75e-94e545b793ca" d="M396.6,29.9a.82.82,0,0,0-.2-.59c-1.19-1.39-5.84-2.18-13.86-2.18h-.4c-3.07.1-4.85-.5-5.44-1.78a1.71,1.71,0,0,1-.3-1.39,3.55,3.55,0,0,1,1.78-2.08c6-2.08,8.22-4.06,6.54-6-1.39-.49-4.26-.29-8.52.6h-.39c-6,1.38-11.09,1.58-15.35.49h-.3l-5.44-1c-3.56-.59-9.21.2-17,2.28h-.1a29.77,29.77,0,0,1-12.67.59,97.43,97.43,0,0,0-26.33,0c-5.15.2-10.5.4-16,.4-21,.49-42.77.89-65.34,1.38h-2.38c-3.66,0-7.32,0-11.08.1v.4c-3.77,0-7.73-.1-11.88-.4H180.28c-7.13.2-14.05.4-20.79.4q-13.06,0-25.54-.59v-.1c-2.67-.3-5.25-.7-7.92-1.09a95.09,95.09,0,0,0-28.51-.4,30.49,30.49,0,0,1-12.77-.59h-.2C76.83,16.24,71.19,15.45,67.72,16l-5.54,1h-.3a25.64,25.64,0,0,1-8.91.59,56.15,56.15,0,0,1-6.34-1.08h-.29c-4.36-.9-7.23-1.09-8.62-.6-1.68,2,.5,4,6.54,6A3.92,3.92,0,0,1,46,24.06a3.18,3.18,0,0,1-.3,1.39c-.69,1.28-2.47,1.88-5.54,1.78h-.4c-8,.1-12.57.79-13.76,2.18-.1.09-.2.19-.2.59-.69,2.28,4.36,3.66,15.15,4.26,5.64.39,8.81,1.48,9.41,3.36.59,1.59-2.87,2.58-10.3,2.87-3.07.89-.69,2.18,6.93,3.86,2.28.7,3.66,1.69,4.16,3a7.92,7.92,0,0,1,0,2.18.85.85,0,0,0-.2.6Q48.91,56,26.64,54.25h-.4c-5.15-.19-7.72.3-7.52,1.29,0,2.48,8.71,3.17,26,2.18,4.06-.1,6.74.1,8.12.59,1,.4,1.39.89,1.19,1.59,0,.39-.4.79-1.19,1.19-2.67,1.28-9.5,2.37-20.59,3.16-2.77.4-4.26,1.49-4.46,3.07a2.62,2.62,0,0,0,0,1.19q1.79,3.12,25,.89A36.9,36.9,0,0,1,56.53,69c18.62-.4,37.52-.6,56.63-.8H308.78c19.11.1,37.92.4,56.63.8q26.88,2.82,28.81-.6a2.36,2.36,0,0,0,0-1.19c-.2-1.58-1.68-2.67-4.26-3.07q-21.68-1.62-22-4.45-.6-2.37,9.5-2.08c17.32,1,25.94.3,25.94-2.18.1-1-2.38-1.48-7.43-1.28h-.39c-14.76,1.18-22.87-.2-24.46-4.16a.9.9,0,0,0-.19-.6,5.31,5.31,0,0,1,.09-2.17c.4-1.29,1.79-2.28,4.06-3,7.72-1.69,10.1-3,6.93-3.87-7.42-.29-10.79-1.28-10.19-2.87.69-1.88,3.86-3,9.4-3.36C392.14,33.56,397.19,32.18,396.6,29.9Z"/>
    <text class="f09fc816-c030-4cf9-b9da-0df32c29732b" transform="translate(70.23 59.37)">Select Class </text>
  </g>
</svg>
