<svg width="179" height="154" viewBox="0 0 179 154" fill="none" xmlns="http://www.w3.org/2000/svg">
<g id="ve">
<g id="value_education">
<g id="Layer_2">
<g id="Group">
<g id="Group_2">
<path id="Vector" d="M114.827 54.5437L112.615 62.2109" stroke="black" stroke-width="0.368614" stroke-linecap="round" stroke-linejoin="round"/>
</g>
</g>
<g id="Group_3">
<g id="Group_4">
<g id="Group_5">
<path id="Vector_2" d="M77.4371 108.121L84.807 106.676L85.0237 91.8643L77.4371 108.121ZM98.7519 81.4236L98.5713 69.9353L88.0584 71.1997L87.9139 128.244L99.4022 125.462H99.4383L98.7519 81.4236ZM98.5713 69.9353L98.7519 81.4236L104.243 69.2489L98.5713 69.9353ZM98.1378 7.2552L98.1016 3.64252L88.2029 4.32891V8.01385L98.1378 7.2552ZM153.954 113.432V113.504L166.092 110.831L159.084 62.5654L147.921 63.9382L153.954 113.432ZM140.587 3.93153L150.486 3.13673L150.016 0.0659485L140.226 0.752367L140.587 3.93153Z" fill="#C46A32"/>
<path id="Vector_3" d="M85.0237 91.8642L85.096 86.1201L75.4501 107.074L77.4371 108.121L85.0237 91.8642ZM85.096 86.1201L85.0237 91.8642L84.8069 106.676L84.5541 126.582L87.8055 128.28L87.9138 128.244L88.0584 71.1997L85.2766 71.561L85.096 86.1201ZM75.6307 9.09764C74.3577 9.529 73.5991 10.5887 73.3547 12.2768L77.1481 70.2243C77.4283 71.5201 78.2713 72.1584 79.6769 72.139L75.6307 9.09764ZM88.2029 8.01384V4.32889L85.7824 5.05143V8.19447L88.2029 8.01384ZM147.921 63.9382L145.464 64.2272L150.919 112.529L153.954 113.432L147.921 63.9382ZM138.672 4.076L140.587 3.93151L140.226 0.75235L138.347 1.65552L138.672 4.076Z" fill="#9F5121"/>
<path id="Vector_4" d="M140.587 3.93152L138.672 4.07601L98.1378 7.25519L88.2029 8.01385L85.7824 8.19448L75.6307 8.98927V9.09765L79.6769 72.139V72.2474L85.2766 71.561L88.0584 71.1997L98.5713 69.9353L104.243 69.2488L145.464 64.2272L147.921 63.9382L159.084 62.5654L164.9 61.879L159.698 2.41418L150.486 3.13672L140.587 3.93152ZM156.374 5.44885L161.071 59.7836L83.1451 69.285L79.4602 11.482L156.374 5.44885Z" fill="#E0854C"/>
<path id="Vector_5" d="M161.071 59.7836L156.374 5.44885L79.4602 11.482L83.1451 69.285L161.071 59.7836Z" fill="#202020"/>
</g>
</g>
<g id="Group_6">
<path id="Vector_6" d="M98.751 81.4381L99.4194 125.458L99.3832 125.476L87.9131 128.258M138.653 4.07313L140.586 3.92862L140.206 0.749485L138.328 1.65265L138.653 4.07313ZM138.653 4.07313L98.1188 7.25226L88.184 8.02899L85.7635 8.20962L75.612 9.0044V9.09472L79.6581 72.1536V72.2439L85.2758 71.5575L88.0395 71.2143L98.5704 69.9318L104.242 69.2454L145.445 64.2419L147.901 63.9348L159.082 62.5801L164.881 61.8756L159.697 2.42937L150.466 3.1519L140.586 3.92862L138.653 4.07313ZM150.466 3.1519L150.015 0.0811462L140.206 0.749485L150.466 3.1519ZM161.051 59.7803L83.1263 69.2815L79.4414 11.4791L156.355 5.44594L161.051 59.7803ZM153.934 113.446L150.9 112.543L145.445 64.2419L153.934 113.446ZM159.082 62.5801L166.091 110.827L153.934 113.5V113.446L147.901 63.9348L159.082 62.5801ZM88.2021 4.34408L98.1007 3.65767L98.1188 7.25226L88.2021 4.34408ZM88.184 8.02899L88.2021 4.34408L85.7635 5.04854V8.20962L88.184 8.02899ZM79.6581 72.1536C78.2525 72.1609 77.4095 71.5167 77.1293 70.2208L73.336 12.2739C73.5803 10.5858 74.339 9.52607 75.612 9.09472L79.6581 72.1536ZM98.5704 69.9318L98.751 81.4381L104.242 69.2454L98.5704 69.9318ZM85.0771 86.1165L85.0049 91.8787L84.8062 106.691L84.5352 126.578L87.8047 128.294L87.9131 128.258L88.0395 71.2143L85.0771 86.1165ZM77.4364 108.118L75.4313 107.07L85.0771 86.1165L85.2758 71.5575L77.4364 108.118ZM84.8062 106.691L77.4364 108.118L85.0049 91.8787L84.8062 106.691ZM87.9131 128.258V128.348L87.8047 128.294L87.9131 128.258Z" stroke="black" stroke-width="0.0368611" stroke-linecap="round" stroke-linejoin="round"/>
</g>
</g>
<path id="VALUE EDUCATION" d="M107.645 21.4826C107.374 22.0733 107 23.824 106.522 26.7348C106.069 29.5228 105.831 31.3697 105.806 32.2756C105.652 32.4341 104.965 32.5624 103.745 32.6605L102.363 32.7672C102.036 32.3629 101.507 30.5492 100.774 27.3259C100.054 24.1017 99.5147 22.2466 99.1564 21.7609L99.1577 21.58C99.6236 21.4054 100.06 21.2998 100.466 21.2631C101.637 21.1574 102.449 21.1986 102.9 21.3868L102.996 22.4264C103.255 25.2224 103.56 27.0203 103.911 27.8199C104.133 27.4866 104.314 26.7052 104.453 25.4757C104.661 23.8183 104.803 22.8114 104.879 22.4552C105.099 21.4473 105.43 20.9235 105.872 20.8835C106.517 20.8253 107.09 20.9543 107.589 21.2707L107.645 21.4826ZM116.952 30.7995L116.92 31.2361C116.298 31.4128 115.628 31.5335 114.911 31.5982C114.325 31.6511 113.878 30.9806 113.568 29.5868C113.292 29.4672 113.153 29.4074 113.153 29.4074C112.532 29.4635 112.084 29.5762 111.811 29.7454C111.711 29.9713 111.675 30.2336 111.703 30.5323C111.713 30.6399 111.74 30.8061 111.785 31.031C111.829 31.2439 111.856 31.4041 111.866 31.5116C111.911 32.0015 111.617 32.2751 110.984 32.3323C109.669 32.451 108.971 32.0682 108.889 31.184C108.809 30.3236 108.838 28.4174 108.974 25.4652C109.12 22.3555 109.297 20.5563 109.505 20.0676C109.614 19.8168 109.908 19.6698 110.386 19.6266C111.258 19.5478 112.083 19.5397 112.86 19.602C114.086 19.6962 114.773 19.9595 114.922 20.3919C114.835 20.7611 114.826 21.3102 114.894 22.0391C115.135 24.644 115.808 27.5532 116.913 30.7669L116.952 30.7995ZM112.693 26.9729C112.601 25.9812 112.375 24.9714 112.015 23.9436C111.951 24.0337 111.877 24.5344 111.792 25.4457C111.719 26.344 111.692 26.8946 111.71 27.0978C111.718 27.1814 111.782 27.2178 111.901 27.207C111.985 27.1995 112.104 27.1827 112.258 27.1568C112.412 27.1308 112.525 27.1146 112.597 27.1081L112.693 26.9729ZM124.143 30.0238C124.143 30.0238 124.128 30.1215 124.098 30.317C123.039 30.7259 121.625 31.0102 119.856 31.1698C119.426 31.2087 119.115 31.032 118.922 30.6397C118.815 30.3964 118.737 30.0118 118.688 29.4861C118.114 23.2846 117.881 19.8596 117.99 19.2112C118.614 18.926 119.207 18.758 119.769 18.7072C120.713 18.622 121.291 18.8711 121.501 19.4545C121.3 19.7498 121.237 20.9544 121.312 23.0682C121.361 24.5096 121.447 25.8935 121.57 27.2198C121.616 27.7217 121.749 28.053 121.969 28.2139C122.15 28.3422 122.449 28.3875 122.867 28.3497C122.975 28.34 123.16 28.3173 123.421 28.2816C123.838 28.75 124.079 29.3308 124.143 30.0238ZM131.757 24.9266C131.918 26.6712 131.876 27.904 131.629 28.6251C131.242 29.7805 130.284 30.4273 128.754 30.5654C127.367 30.6906 126.35 30.5716 125.702 30.2084C124.925 29.7604 124.476 28.8732 124.353 27.5469C124.276 26.7224 124.173 25.4787 124.044 23.8156C123.914 22.1526 123.81 20.9028 123.733 20.0664C123.708 19.8035 123.708 19.5385 123.731 19.2713C124.041 19.0988 124.554 18.9802 125.271 18.9154C125.57 18.8885 125.938 18.8914 126.374 18.9242C126.969 18.967 127.273 19.066 127.288 19.2213C127.354 19.9383 127.352 21.0169 127.28 22.4571C127.219 23.8844 127.222 24.9564 127.289 25.6734C127.347 26.3067 127.461 26.8808 127.629 27.3958C127.893 28.1671 128.222 28.535 128.617 28.4994C128.92 28.2552 128.982 27.1712 128.804 25.2474C128.741 24.5663 128.637 23.7082 128.493 22.6729C128.361 21.6366 128.289 21.0587 128.278 20.9392C128.227 20.3896 128.213 19.9029 128.234 19.4793C128.423 19.3176 128.775 19.2136 129.289 19.1672C130.174 19.0873 130.806 19.211 131.186 19.5382C131.234 20.1964 131.33 21.0975 131.472 22.2414C131.613 23.5058 131.708 24.4009 131.757 24.9266ZM139.32 28.5814C139.33 28.6889 139.312 28.8893 139.267 29.1826L139.116 29.3047C138.626 29.3489 137.903 29.4804 136.947 29.6993C135.991 29.9181 135.268 30.0496 134.778 30.0939C133.954 30.1683 133.418 29.9155 133.171 29.3353C133.094 29.1495 132.993 28.514 132.868 27.4288C132.514 24.2558 132.307 22.3467 132.248 21.7014C132.03 19.3475 131.946 18.12 131.997 18.019C132.605 17.8196 133.453 17.6707 134.541 17.5725C135.76 17.4625 136.53 17.4472 136.85 17.5267C137.578 17.702 137.986 18.2676 138.074 19.2235L137.947 19.4157C136.771 19.5942 136.049 19.804 135.782 20.0449C135.437 20.3532 135.314 21.0451 135.414 22.1205C135.468 22.706 135.577 23.0998 135.74 23.3019C136.704 23.2992 137.286 23.3371 137.486 23.4154C137.96 23.5895 138.233 24.0648 138.305 24.8415C138.305 24.8415 138.294 24.9811 138.271 25.2602L138.052 25.4247L137.478 25.4764C136.246 25.5756 135.661 25.9658 135.724 26.6468C135.772 27.1607 136.093 27.4389 136.688 27.4816C137.23 27.4809 137.779 27.4856 138.334 27.4957C138.933 27.5862 139.261 27.9481 139.32 28.5814ZM91.0148 51.0153C91.0248 51.1228 91.0072 51.3232 90.962 51.6165L90.8106 51.7386C90.3206 51.7828 89.5977 51.9143 88.6418 52.1332C87.6859 52.352 86.9629 52.4835 86.4729 52.5278C85.6483 52.6022 85.1127 52.3494 84.8662 51.7692C84.7887 51.5834 84.6877 50.9479 84.5631 49.8627C84.2091 46.6897 84.0022 44.7806 83.9424 44.1353C83.7245 41.7814 83.641 40.5539 83.6919 40.4529C84.3001 40.2535 85.148 40.1046 86.2355 40.0064C87.4546 39.8964 88.2245 39.8811 88.5451 39.9606C89.2724 40.1359 89.6803 40.7015 89.7688 41.6574L89.642 41.8496C88.4654 42.0281 87.7437 42.2379 87.4768 42.4788C87.1317 42.7871 87.009 43.479 87.1085 44.5544C87.1628 45.1399 87.2715 45.5337 87.4349 45.7358C88.3987 45.7331 88.9807 45.771 89.1808 45.8493C89.6548 46.0234 89.9278 46.4987 89.9997 47.2754C89.9997 47.2754 89.9885 47.415 89.9662 47.6941L89.7464 47.8586L89.1727 47.9103C87.9406 48.0095 87.3561 48.3997 87.4192 49.0807C87.4667 49.5946 87.7878 49.8728 88.3822 49.9155C88.9245 49.9148 89.4732 49.9195 90.0285 49.9296C90.6274 50.0201 90.9562 50.382 91.0148 51.0153ZM99.104 44.7908C99.239 46.2486 98.8486 47.7598 97.933 49.3244C96.9459 51.0281 95.7531 51.943 94.3548 52.0693C92.7294 52.216 91.8144 51.1841 91.6097 48.9735C91.5677 48.5195 91.4522 47.0118 91.2633 44.4504C91.1298 42.619 90.9845 41.1139 90.8271 39.9353L90.9311 39.691C91.3319 39.5946 91.8191 39.5205 92.3928 39.4687C94.2452 39.3014 95.7813 39.6869 97.001 40.625C98.2326 41.5621 98.9336 42.9507 99.104 44.7908ZM96.809 43.8232C96.7626 43.3214 96.4973 42.9296 96.0133 42.648C95.5685 42.399 95.0831 42.2982 94.5572 42.3457C94.5572 42.3457 94.5285 42.3604 94.4709 42.3896C94.4028 42.5645 94.3965 43.4085 94.4523 44.9216C94.4989 46.2066 94.5488 47.1359 94.6019 47.7094C94.6285 47.9962 94.7026 48.1461 94.8243 48.1592C95.3551 47.7739 95.8305 47.1165 96.2506 46.187C96.6826 45.2564 96.8688 44.4685 96.809 43.8232ZM108.486 45.1005C108.648 46.845 108.605 48.0779 108.359 48.7989C107.972 49.9544 107.013 50.6012 105.483 50.7393C104.097 50.8645 103.08 50.7454 102.432 50.3823C101.655 49.9343 101.205 49.0471 101.082 47.7208C101.006 46.8963 100.903 45.6526 100.773 43.9895C100.643 42.3264 100.54 41.0767 100.462 40.2403C100.438 39.9774 100.437 39.7124 100.461 39.4452C100.77 39.2727 101.283 39.154 102.001 39.0893C102.299 39.0623 102.667 39.0653 103.104 39.0981C103.699 39.1408 104.003 39.2399 104.017 39.3952C104.084 40.1121 104.081 41.1907 104.01 42.631C103.949 44.0582 103.952 45.1303 104.018 45.8473C104.077 46.4805 104.19 47.0547 104.358 47.5696C104.623 48.341 104.952 48.7089 105.346 48.6733C105.649 48.4291 105.711 47.3451 105.533 45.4213C105.47 44.7402 105.367 43.882 105.223 42.8468C105.091 41.8105 105.019 41.2326 105.008 41.1131C104.957 40.5635 104.942 40.0768 104.963 39.6532C105.153 39.4915 105.505 39.3874 106.019 39.341C106.903 39.2612 107.535 39.3849 107.915 39.712C107.964 40.3703 108.06 41.2714 108.202 42.4152C108.343 43.6797 108.438 44.5747 108.486 45.1005ZM116.841 46.9489C116.909 47.6897 116.554 48.4085 115.775 49.1054C115.063 49.748 114.319 50.1044 113.542 50.1745C112.418 50.2759 111.484 50.0049 110.737 49.3614C110.001 48.7049 109.581 47.809 109.476 46.6739C109.335 45.1564 109.403 43.4755 109.678 41.6313C110.039 39.1528 110.709 37.8694 111.689 37.7809C114.259 37.5489 115.71 39.2312 116.043 42.8279C116.057 42.9713 116.01 43.12 115.904 43.2742C115.796 43.4164 115.671 43.494 115.528 43.507C115.062 43.549 114.689 43.4321 114.411 43.156C114.237 42.9788 114.039 42.6534 113.814 42.1797C113.6 41.6929 113.413 41.3604 113.252 41.1822C112.857 41.8684 112.588 42.8024 112.445 43.9841C112.321 44.9953 112.304 45.9788 112.392 46.9347C112.426 47.2932 112.551 47.6072 112.769 47.8767C113.026 48.1788 113.327 48.3142 113.674 48.283C114.104 48.2441 114.558 48.0043 115.036 47.5636C115.412 47.2043 115.788 46.8391 116.163 46.4678L116.475 46.512L116.841 46.9489ZM126.665 47.9958L126.633 48.4325C126.01 48.6091 125.341 48.7298 124.624 48.7946C124.038 48.8474 123.59 48.177 123.28 46.7832C123.004 46.6635 122.866 46.6037 122.866 46.6037C122.245 46.6598 121.797 46.7725 121.524 46.9418C121.424 47.1677 121.388 47.43 121.416 47.7287C121.426 47.8362 121.453 48.0024 121.498 48.2273C121.542 48.4402 121.569 48.6004 121.579 48.708C121.624 49.1979 121.33 49.4714 120.697 49.5286C119.382 49.6473 118.684 49.2645 118.602 48.3803C118.522 47.52 118.55 45.6137 118.687 42.6615C118.833 39.5518 119.01 37.7526 119.217 37.264C119.327 37.0131 119.621 36.8661 120.099 36.8229C120.971 36.7442 121.796 36.736 122.573 36.7984C123.799 36.8926 124.486 37.1558 124.634 37.5882C124.548 37.9575 124.539 38.5066 124.606 39.2354C124.847 41.8403 125.52 44.7496 126.625 47.9632L126.665 47.9958ZM122.406 44.1693C122.314 43.1775 122.088 42.1677 121.728 41.14C121.664 41.2301 121.589 41.7308 121.505 42.642C121.432 43.5403 121.404 44.091 121.423 44.2941C121.431 44.3778 121.494 44.4142 121.614 44.4034C121.698 44.3958 121.817 44.3791 121.971 44.3531C122.125 44.3271 122.238 44.3109 122.31 44.3044L122.406 44.1693ZM133.602 37.8811L133.644 38.528C133.089 38.6504 132.48 38.8379 131.816 39.0906C131.578 39.3772 131.602 41.0679 131.888 44.1627C132 45.3695 132.134 46.6225 132.291 47.9217L132.2 48.1106C131.812 48.2179 131.421 48.2894 131.026 48.325C130.285 48.3919 129.71 48.2992 129.301 48.047C129.212 47.9948 129.117 47.425 129.017 46.3376C128.952 45.6446 128.882 44.6931 128.806 43.483C128.729 42.261 128.69 41.638 128.688 41.6141C128.581 40.467 128.464 39.7788 128.334 39.5496C128.263 39.4355 128.071 39.3805 127.758 39.3846C127.397 39.3931 127.18 39.3827 127.105 39.3533C126.526 39.0923 126.186 38.4181 126.086 37.3307C126.086 37.3307 126.104 37.2688 126.141 37.145C126.488 36.9931 126.973 36.8892 127.594 36.8331C127.714 36.8223 128.047 36.7801 128.595 36.7066C129.141 36.6211 129.594 36.5622 129.952 36.5298C132.319 36.3162 133.535 36.7666 133.602 37.8811ZM138.374 35.625C138.479 36.7601 138.554 38.4763 138.598 40.7737C138.641 43.0591 138.715 44.7753 138.821 45.9224C138.872 46.4721 138.875 46.9538 138.829 47.3676C138.581 47.5586 138.235 47.6562 137.789 47.6603L136.128 47.6837C136.049 47.6065 135.958 47.0183 135.856 45.919C135.241 39.2754 134.952 35.8857 134.987 35.75C135.314 35.5036 135.908 35.3416 136.768 35.2639C137.019 35.2412 137.315 35.2507 137.656 35.2921C138.121 35.3587 138.36 35.4696 138.374 35.625ZM146.732 39.0092C147.224 44.3264 146.521 47.0708 144.62 47.2424C143.246 47.3665 142.217 47.2485 141.532 46.8886C140.913 46.571 140.473 45.9902 140.214 45.1461C140.042 44.5833 139.888 43.573 139.753 42.1153C139.623 40.7172 139.633 39.385 139.78 38.1186C140.023 36.181 140.586 35.1722 141.471 35.0924C141.769 35.0654 142.3 35.132 143.062 35.2921C144.475 35.5863 145.385 35.9138 145.792 36.2746C146.293 36.7355 146.606 37.647 146.732 39.0092ZM144.001 40.1594C143.85 38.5344 143.646 37.6311 143.388 37.4495C143.09 37.4885 142.893 38.3497 142.796 40.0332C142.717 41.3899 142.71 42.4266 142.776 43.1436C142.804 43.4423 142.874 43.8035 142.985 44.2272C143.13 44.7443 143.274 45.0686 143.419 45.2001C143.781 44.9505 143.999 44.1778 144.072 42.882C144.112 42.0109 144.088 41.1034 144.001 40.1594ZM156.3 34.0067C156.329 34.1848 156.352 34.3635 156.368 34.5427C156.419 35.0924 156.418 35.9239 156.364 37.0372C156.309 38.1386 156.307 38.9641 156.358 39.5137C156.394 39.8961 156.459 40.4745 156.555 41.2491C156.662 42.0106 156.733 42.5825 156.768 42.9649C156.785 43.1441 156.812 43.3706 156.849 43.6443C156.887 43.9181 156.91 44.1087 156.92 44.2163C156.969 44.742 156.901 45.1096 156.715 45.3192C156.498 45.5797 156.025 45.7429 155.296 45.8087C154.687 45.8637 154.107 45.5848 153.556 44.9718C153.141 44.5273 152.718 43.8607 152.286 42.9719C151.986 42.3363 151.692 41.7001 151.404 41.0634C151.345 41.2014 151.33 41.4376 151.361 41.7722C151.481 43.0626 151.703 44.5547 152.029 46.2483L151.863 46.4078C151.092 46.5377 150.604 46.6118 150.401 46.6302C149.935 46.6722 149.617 46.6166 149.446 46.4634C149.287 46.3091 149.185 45.9929 149.141 45.5149C148.759 41.3926 148.496 38.2234 148.351 36.0075C148.333 35.6838 148.321 35.3536 148.314 35.0168C148.548 34.815 148.85 34.6973 149.221 34.6638C149.615 34.6282 150.085 34.6942 150.631 34.8618C151.438 35.1143 151.897 35.2537 152.008 35.2798C152.173 35.6383 152.389 36.4743 152.655 37.7877C152.879 38.9001 153.239 39.7894 153.734 40.4555C153.799 40.3773 153.785 39.8364 153.692 38.8327C153.663 38.522 153.61 38.0088 153.532 37.2929C153.464 36.564 153.414 36.0263 153.382 35.6798C153.277 34.5447 153.251 33.8663 153.302 33.6448C153.354 33.4232 153.852 33.2698 154.796 33.1846C155.442 33.1263 155.915 33.2282 156.216 33.4901L156.3 34.0067Z" fill="white"/>
</g>
<g id="FEETS">
<g id="Layer_1">
<g id="Group_7">
<g id="Group_8">
<g id="Group_9">
<path id="Vector_7" d="M23.6355 146.059C21.9845 145.265 19.9942 144.868 17.6648 144.868C15.3354 144.868 13.3451 145.265 11.6941 146.059C10.043 146.852 9.21747 147.812 9.21747 148.939C9.21747 150.065 10.043 151.025 11.6941 151.818C13.3451 152.612 15.3354 153.009 17.6648 153.009C19.9942 153.009 21.9845 152.612 23.6355 151.818C25.2866 151.025 26.1121 150.065 26.1121 148.939C26.1121 147.812 25.2866 146.852 23.6355 146.059ZM44.1971 152.145C46.5265 152.145 48.5167 151.748 50.1678 150.954C51.8189 150.161 52.6444 149.201 52.6444 148.075C52.6444 146.948 51.8189 145.988 50.1678 145.195C48.5167 144.401 46.5265 144.005 44.1971 144.005C41.8677 144.005 39.8774 144.401 38.2264 145.195C36.5753 145.988 35.7497 146.948 35.7497 148.075C35.7497 149.201 36.5753 150.161 38.2264 150.954C39.8774 151.748 41.8677 152.145 44.1971 152.145Z" fill="black"/>
</g>
</g>
<g id="Group_10">
<path id="Vector_8" d="M44.1796 152.142C41.8502 152.142 39.86 151.745 38.2089 150.951C36.5578 150.158 35.7323 149.198 35.7323 148.072C35.7323 146.945 36.5578 145.985 38.2089 145.192C39.86 144.398 41.8502 144.001 44.1796 144.001C46.509 144.001 48.4993 144.398 50.1503 145.192C51.8014 145.985 52.6269 146.945 52.6269 148.072C52.6269 149.198 51.8014 150.158 50.1503 150.951C48.4993 151.745 46.509 152.142 44.1796 152.142ZM23.6181 146.056C25.2692 146.849 26.0947 147.809 26.0947 148.935C26.0947 150.062 25.2692 151.022 23.6181 151.815C21.9671 152.609 19.9768 153.006 17.6474 153.006C15.318 153.006 13.3278 152.609 11.6767 151.815C10.0256 151.022 9.2001 150.062 9.2001 148.935C9.2001 147.809 10.0256 146.849 11.6767 146.056C13.3278 145.262 15.318 144.865 17.6474 144.865C19.9768 144.865 21.9671 145.262 23.6181 146.056Z" stroke="black" stroke-width="0.737226" stroke-linecap="round" stroke-linejoin="round"/>
</g>
</g>
</g>
</g>
<g id="HAND">
<g id="Layer_1_2">
<g id="Group_11">
<g id="Group_12">
<g id="Group_13">
<path id="Vector_9" d="M78.1352 76.4473C76.5371 78.3451 74.6946 80.1394 72.6078 81.8302C68.6097 85.0334 65.0091 86.6351 61.8058 86.6351C60.5294 86.6351 59.3131 86.2497 58.157 85.479C57.025 84.7083 56.4591 83.9135 56.4591 83.0946C56.4591 81.9145 57.2538 80.5296 58.8434 78.94C59.0482 78.7623 59.2409 78.5937 59.4215 78.4342L59.277 78.3259C56.6517 80.084 54.6286 82.2878 53.2076 84.9371L59.6743 89.5974H59.7466C60.6377 89.5493 61.6011 89.3446 62.6367 88.9833C62.9017 88.887 63.1546 88.7906 63.3954 88.6943C65.7798 87.7068 68.5495 85.9366 71.7046 83.3836C72.8125 82.4684 73.9806 81.4689 75.2089 80.3851C76.2445 79.4458 77.3042 78.4342 78.3881 77.3504C78.3115 77.0241 78.2272 76.723 78.1352 76.4473Z" fill="#EB9D7B"/>
<path id="Vector_10" d="M72.6078 81.8302C74.6947 80.1393 76.5371 78.345 78.1352 76.4472C77.5433 74.6924 76.604 73.8253 75.3173 73.8461C73.1256 74.9059 71.1747 75.8692 69.4647 76.7363C66.4301 78.2536 64.1661 79.4699 62.6729 80.3851H62.6368C62.5163 80.4573 62.3959 80.5416 62.2755 80.6379L59.4215 78.4342C59.2409 78.5937 59.0483 78.7623 58.8434 78.94C57.2539 80.5296 56.4591 81.9144 56.4591 83.0946C56.4591 83.9135 57.0251 84.7083 58.157 85.479C59.3131 86.2497 60.5294 86.635 61.8059 86.635C65.0091 86.635 68.6097 85.0334 72.6078 81.8302Z" fill="#FFCC99"/>
<path id="Vector_11" d="M47.4996 68.7161L47.4274 68.7522C46.2472 68.3428 45.3681 68.5114 44.7901 69.258C44.6456 69.547 44.5011 69.836 44.3566 70.1251C43.0319 73.0393 43.0921 76.1462 44.5372 79.4458L52.3767 86.6351C52.6176 86.0329 52.8946 85.4669 53.2077 84.9371C54.6286 82.2878 56.6517 80.084 59.277 78.3259C59.5419 78.1573 59.7948 77.9887 60.0356 77.8201L47.4996 68.7161Z" fill="#FFEF0F"/>
</g>
</g>
<g id="Group_14">
<path id="Vector_12" d="M53.2031 84.9161C54.6241 82.2668 56.6472 80.0631 59.2724 78.3049M53.2031 84.9161C52.89 85.4459 52.613 86.0119 52.3722 86.614L44.5327 79.4248C43.0877 76.1253 43.0275 73.0184 44.3521 70.1042C44.4966 69.8152 44.6411 69.5262 44.7856 69.2371C45.3637 68.4905 46.2427 68.3219 47.4229 68.7314L47.4951 68.6952L60.031 77.7991C59.7902 77.9677 59.5373 78.1363 59.2724 78.3049L59.4169 78.4133L62.2709 80.617C62.3913 80.5207 62.5117 80.4364 62.6321 80.3641H62.6683C64.1615 79.4489 66.4254 78.2326 69.4601 76.7153C71.1701 75.8483 73.1209 74.8849 75.3126 73.8252C76.5993 73.8044 77.5386 74.6715 78.1304 76.4263C78.2224 76.7021 78.3067 77.0031 78.3833 77.3295C77.2995 78.4133 76.2398 79.4248 75.2042 80.3641C73.9759 81.4479 72.8078 82.4474 71.6999 83.3626C68.5449 85.9156 65.7752 87.6858 63.3908 88.6732C63.15 88.7696 62.8971 88.8659 62.6321 88.9622C61.5965 89.3235 60.6331 89.5282 59.742 89.5764H59.6698L53.2031 84.9161Z" stroke="black" stroke-width="0.0368611" stroke-linecap="round" stroke-linejoin="round"/>
</g>
</g>
</g>
</g>
<g id="PALM">
<g id="Layer_1_3">
<g id="Group_15">
<g id="Group_16">
<g id="Group_17">
<path id="Vector_13" d="M77.9288 79.3146C77.3636 78.9214 77.081 78.5159 77.081 78.0982L74.169 81.9686C74.8079 82.4847 75.6434 82.8164 76.6756 82.9639C77.5848 81.4403 78.2483 80.3467 78.6661 79.6832C78.4203 79.5849 78.1746 79.462 77.9288 79.3146ZM78.3712 76.9186C78.322 76.7957 78.2852 76.6729 78.2606 76.55L77.7077 77.2872C77.8551 77.1889 78.0763 77.066 78.3712 76.9186ZM80.1405 72.827L81.9836 70.431C81.1481 70.8733 80.2265 71.1559 79.219 71.2788C78.8995 71.9423 77.5848 73.6502 75.2748 76.4025C74.5376 77.2872 73.6898 78.307 72.7314 79.462C72.8543 80.2238 73.1491 80.8751 73.6161 81.4157L79.4033 73.8591C79.4525 73.343 79.6982 72.999 80.1405 72.827ZM82.684 67.1503C83.2 67.4206 83.5072 67.8261 83.6055 68.3668L104.322 41.163L82.6102 67.1135C82.6348 67.1135 82.6594 67.1257 82.684 67.1503ZM85.7066 69.6569C85.7312 69.6078 85.7558 69.5586 85.7803 69.5095C87.6971 66.8063 89.958 63.5256 92.5628 59.6675C95.6838 55.0229 99.3453 49.5429 103.548 43.2273L81.2095 72.6427C81.701 72.5935 82.3891 72.5321 83.2738 72.4584C83.4212 72.4584 83.5686 72.4584 83.7161 72.4584C84.3304 71.5737 84.9939 70.6399 85.7066 69.6569ZM79.5507 74.8912C79.5753 74.8666 79.6245 74.8421 79.6982 74.8175C79.6736 74.7929 79.649 74.7683 79.6245 74.7438L79.5507 74.8912Z" fill="#DB6C6C"/>
<path id="Vector_14" d="M83.0157 77.9876C82.8683 77.9876 82.7208 77.9876 82.5734 77.9876C81.5904 77.9876 80.7549 77.9016 80.0668 77.7296C79.8702 77.705 79.6982 77.6681 79.5508 77.619C78.961 77.4224 78.5678 77.1889 78.3712 76.9186C78.0763 77.066 77.8551 77.1889 77.7077 77.2872C77.6585 77.3118 77.6217 77.3364 77.5971 77.3609C77.2531 77.5821 77.081 77.8279 77.081 78.0982C77.081 78.5159 77.3636 78.9214 77.9289 79.3146C78.1746 79.462 78.4203 79.5849 78.6661 79.6832C79.0347 79.8307 79.4279 79.9044 79.8456 79.9044C80.9515 79.9044 82.0082 79.2654 83.0157 77.9876ZM85.7803 69.5095C85.7558 69.5586 85.7312 69.6078 85.7066 69.6569C84.994 70.6399 84.3305 71.5737 83.7161 72.4584C84.6745 72.4829 85.3994 72.6058 85.8909 72.827C85.9646 72.8516 86.0384 72.8761 86.1121 72.9007C87.3162 72.655 88.3975 72.2495 89.3559 71.6843C90.388 71.0945 90.9041 70.517 90.9041 69.9518C90.9041 69.4603 90.388 69.2146 89.3559 69.2146C88.7907 69.2146 88.1272 69.2637 87.3654 69.362C86.6036 69.4603 86.0752 69.5095 85.7803 69.5095ZM79.6982 74.8175C79.6245 74.8421 79.5753 74.8667 79.5508 74.8912C79.2067 74.9895 78.9118 75.1493 78.6661 75.3704C78.3958 75.6653 78.2606 76.0339 78.2606 76.4763C78.2606 76.5008 78.2606 76.5254 78.2606 76.55C78.2852 76.6729 78.322 76.7957 78.3712 76.9186C78.5678 77.1889 78.961 77.4224 79.5508 77.619C79.6982 77.6681 79.8702 77.705 80.0668 77.7296C80.7549 77.9016 81.5904 77.9876 82.5734 77.9876C82.7208 77.9876 82.8683 77.9876 83.0157 77.9876C83.925 77.9139 84.6253 77.6681 85.1168 77.2504C85.4854 76.8817 85.6698 76.4886 85.6698 76.0708C85.6698 75.9479 85.6206 75.7636 85.5223 75.5179C85.4732 75.4441 85.4363 75.3827 85.4117 75.3336C84.6745 75.5302 83.925 75.6285 83.1632 75.6285C82.3768 75.6285 81.8485 75.6039 81.5781 75.5547C81.2832 75.5056 80.9884 75.4441 80.6935 75.3704C80.2266 75.223 79.8948 75.0387 79.6982 74.8175ZM79.4033 73.8591C79.3787 73.9328 79.3665 74.0188 79.3665 74.1171C79.3665 74.3383 79.4525 74.5472 79.6245 74.7438C79.6491 74.7684 79.6736 74.7929 79.6982 74.8175C79.8948 75.0387 80.2266 75.223 80.6935 75.3704C80.9884 75.4441 81.2832 75.5056 81.5781 75.5547C81.8485 75.6039 82.3768 75.6285 83.1632 75.6285C83.925 75.6285 84.6745 75.5302 85.4117 75.3336C85.3871 75.3336 85.3749 75.3213 85.3749 75.2967C86.3087 75.0018 86.7756 74.5963 86.7756 74.0803C86.7756 73.5642 86.5667 73.1833 86.149 72.9376C86.1244 72.9376 86.1121 72.9253 86.1121 72.9007C86.0384 72.8761 85.9646 72.8516 85.8909 72.827C85.3994 72.6058 84.6745 72.4829 83.7161 72.4584C83.5687 72.4584 83.4212 72.4584 83.2738 72.4584C82.3891 72.5321 81.701 72.5935 81.2095 72.6427C80.718 72.6918 80.3986 72.741 80.2511 72.7901C80.202 72.8147 80.1651 72.827 80.1405 72.827C79.6982 72.999 79.4525 73.343 79.4033 73.8591ZM79.2927 71.0576C79.2927 71.1068 79.2682 71.1805 79.219 71.2788C80.2266 71.1559 81.1481 70.8733 81.9836 70.431C82.0573 70.3818 82.1311 70.3327 82.2048 70.2835C83.1386 69.7429 83.6055 69.19 83.6055 68.6248C83.6055 68.5265 83.6055 68.4405 83.6055 68.3668C83.5072 67.8261 83.2 67.4206 82.684 67.1503C82.6594 67.1258 82.6348 67.1135 82.6103 67.1135C82.2171 66.9414 81.8116 66.8554 81.3938 66.8554C80.1405 66.9292 79.3665 67.0029 79.0716 67.0766C77.5725 67.3715 76.5527 67.8384 76.0121 68.4773C75.0291 69.5095 74.5376 70.6153 74.5376 71.7949L73.7267 74.7806V75.0387L75.2748 76.4025C77.5848 73.6502 78.8995 71.9423 79.219 71.2788C79.2682 71.1805 79.2927 71.1068 79.2927 71.0576Z" fill="#FFCC99"/>
<path id="Vector_15" d="M79.3664 74.1171C79.3664 74.0188 79.3787 73.9328 79.4033 73.8591L73.6161 81.4157C73.7635 81.6123 73.9478 81.7966 74.169 81.9686L77.081 78.0982C77.081 77.8279 77.2531 77.5821 77.5971 77.3609C77.6217 77.3364 77.6585 77.3118 77.7077 77.2872L78.2606 76.55C78.2606 76.5254 78.2606 76.5008 78.2606 76.4763C78.2606 76.0339 78.3958 75.6653 78.6661 75.3704C78.9118 75.1493 79.2067 74.9895 79.5507 74.8912L79.6245 74.7438C79.4524 74.5472 79.3664 74.3383 79.3664 74.1171ZM103.548 43.2273C104.653 41.5316 105.796 39.7869 106.976 37.993L104.322 41.163L83.6055 68.3668C83.6055 68.4405 83.6055 68.5265 83.6055 68.6248C83.6055 69.19 83.1386 69.7429 82.2048 70.2836C82.131 70.3327 82.0573 70.3819 81.9836 70.431L80.1405 72.827C80.1651 72.827 80.202 72.8147 80.2511 72.7901C80.3986 72.741 80.718 72.6918 81.2095 72.6427L103.548 43.2273Z" fill="white"/>
</g>
</g>
<g id="Group_18">
<path id="Vector_16" d="M79.219 71.2788C78.8995 71.9423 77.5848 73.6502 75.2748 76.4026M103.548 43.2273C104.653 41.5317 105.796 39.7869 106.976 37.993L104.322 41.163L103.548 43.2273ZM83.6055 68.3668C83.6055 68.4405 83.6055 68.5265 83.6055 68.6248C83.6055 69.19 83.1386 69.7429 82.2048 70.2836C82.131 70.3327 82.0573 70.3819 81.9836 70.431L83.6055 68.3668ZM80.1405 72.827C80.1651 72.827 80.202 72.8147 80.2511 72.7901C80.3986 72.741 80.718 72.6918 81.2095 72.6427L80.1405 72.827ZM103.548 43.2273C99.3453 49.5429 95.6838 55.0229 92.5628 59.6675C89.958 63.5256 87.6971 66.8063 85.7803 69.5095C86.0752 69.5095 86.6036 69.4603 87.3654 69.362C88.1272 69.2637 88.7907 69.2146 89.3559 69.2146C90.388 69.2146 90.9041 69.4603 90.9041 69.9518C90.9041 70.517 90.388 71.0945 89.3559 71.6843C88.3975 72.2495 87.3162 72.655 86.1121 72.9007C86.1121 72.9253 86.1244 72.9376 86.1489 72.9376C86.5667 73.1833 86.7756 73.5642 86.7756 74.0803C86.7756 74.5963 86.3087 75.0018 85.3749 75.2967C85.3749 75.3213 85.3871 75.3336 85.4117 75.3336C85.4363 75.3827 85.4731 75.4442 85.5223 75.5179C85.6206 75.7636 85.6697 75.9479 85.6697 76.0708C85.6697 76.4886 85.4854 76.8818 85.1168 77.2504C84.6253 77.6681 83.925 77.9139 83.0157 77.9876C82.0082 79.2655 80.9515 79.9044 79.8456 79.9044C79.4279 79.9044 79.0347 79.8307 78.6661 79.6832C78.2483 80.3467 77.5848 81.4403 76.6756 82.9639C75.6434 82.8164 74.8079 82.4847 74.169 81.9686C73.9478 81.7966 73.7635 81.6123 73.6161 81.4157C73.1491 80.8751 72.8543 80.2239 72.7314 79.4621C73.6898 78.3071 74.5376 77.2872 75.2748 76.4026L73.7266 75.0387V74.7807L74.5376 71.7949C74.5376 70.6153 75.0291 69.5095 76.0121 68.4774C76.5527 67.8384 77.5725 67.3715 79.0715 67.0766C79.3664 67.0029 80.1405 66.9292 81.3938 66.8555C81.8116 66.8555 82.2171 66.9415 82.6102 67.1135L104.322 41.163L103.548 43.2273ZM106.976 37.993L109.077 35.4495L106.976 37.993ZM79.2927 71.0577C79.2927 71.1068 79.2681 71.1805 79.219 71.2788C80.2265 71.156 81.1481 70.8733 81.9836 70.431L79.2927 71.0577ZM79.6245 74.7438C79.4525 74.5472 79.3664 74.3383 79.3664 74.1172C79.3664 74.0189 79.3787 73.9328 79.4033 73.8591L79.6245 74.7438ZM79.6982 74.8175C79.6245 74.8421 79.5753 74.8667 79.5507 74.8912C79.2067 74.9895 78.9118 75.1493 78.6661 75.3704C78.3958 75.6653 78.2606 76.0339 78.2606 76.4763C78.2606 76.5009 78.2606 76.5254 78.2606 76.55C78.2852 76.6729 78.322 76.7957 78.3712 76.9186C78.5678 77.1889 78.961 77.4224 79.5507 77.619C79.6982 77.6681 79.8702 77.705 80.0668 77.7296C80.7549 77.9016 81.5904 77.9876 82.5734 77.9876C82.7208 77.9876 82.8683 77.9876 83.0157 77.9876L79.6982 74.8175ZM79.6245 74.7438C79.649 74.7684 79.6736 74.7929 79.6982 74.8175C79.8948 75.0387 80.2265 75.223 80.6935 75.3704C80.9883 75.4442 81.2832 75.5056 81.5781 75.5547C81.8484 75.6039 82.3768 75.6285 83.1632 75.6285C83.925 75.6285 84.6745 75.5302 85.4117 75.3336L79.6245 74.7438ZM85.7803 69.5095C85.7558 69.5586 85.7312 69.6078 85.7066 69.6569C84.994 70.6399 84.3304 71.5737 83.7161 72.4584C84.6745 72.483 85.3994 72.6058 85.8909 72.827C85.9646 72.8516 86.0384 72.8761 86.1121 72.9007L85.7803 69.5095ZM82.6102 67.1135C82.6348 67.1135 82.6594 67.1258 82.684 67.1503C83.2 67.4207 83.5072 67.8261 83.6055 68.3668L82.6102 67.1135ZM83.7161 72.4584C83.5686 72.4584 83.4212 72.4584 83.2738 72.4584C82.3891 72.5321 81.701 72.5935 81.2095 72.6427L83.7161 72.4584ZM80.1405 72.827C79.6982 72.999 79.4525 73.3431 79.4033 73.8591L80.1405 72.827ZM77.081 78.0982C77.081 77.8279 77.2531 77.5821 77.5971 77.361C77.6217 77.3364 77.6585 77.3118 77.7077 77.2872C77.8551 77.1889 78.0763 77.0661 78.3712 76.9186L77.081 78.0982ZM77.081 78.0982C77.081 78.5159 77.3636 78.9214 77.9288 79.3146C78.1746 79.4621 78.4203 79.5849 78.6661 79.6832L77.081 78.0982Z" stroke="black" stroke-width="0.0368614" stroke-linecap="round" stroke-linejoin="round"/>
</g>
</g>
</g>
</g>
<g id="HAND_2">
<g id="Layer_1_4">
<g id="Group_19">
<g id="Group_20">
<g id="Group_21">
<path id="Vector_17" d="M13.586 82.0528C12.8635 81.9565 12.0808 81.9324 11.2378 81.9805C11.1415 82.5104 11.0692 83.0764 11.021 83.6785C10.7561 85.3404 11.7917 88.1703 14.1279 92.1683C14.441 92.7945 16.4641 95.9255 20.1973 101.561C22.5094 101.152 23.7016 100.213 23.7738 98.7434C23.7738 98.7193 23.7738 98.6952 23.7738 98.6712C22.8104 96.4554 21.9675 94.4684 21.2449 92.7102C19.8962 89.6033 18.8124 87.2671 17.9935 85.7016L17.9574 85.7377C17.8851 85.5691 17.8249 85.4367 17.7768 85.3403C17.6804 85.0995 17.572 84.8948 17.4516 84.7262L17.4155 84.69C16.7652 83.823 16.0908 83.1125 15.3924 82.5585C14.7903 82.3418 14.1882 82.1732 13.586 82.0528Z" fill="#FFCC99"/>
<path id="Vector_18" d="M11.2378 81.9805C10.5152 82.0287 9.75658 82.1491 8.96179 82.3418C8.93771 83.2329 9.07017 84.1843 9.35919 85.1958C9.47961 85.4608 9.57595 85.7257 9.6482 85.9906C10.4912 88.4231 12.0928 91.2772 14.4531 94.5527C15.3201 95.7328 16.2715 96.9611 17.3071 98.2376C18.1741 99.3214 19.1134 100.441 20.125 101.597L20.1972 101.561C16.4641 95.9255 14.441 92.7945 14.1279 92.1683C11.7917 88.1703 10.7561 85.3404 11.021 83.6785C11.0692 83.0764 11.1414 82.5104 11.2378 81.9805Z" fill="#EB9D7B"/>
</g>
</g>
<g id="Group_22">
<path id="Vector_19" d="M20.1664 101.546C22.4785 101.137 23.6707 100.197 23.7429 98.7282M8.93106 82.3267C8.90698 83.2178 9.03944 84.1692 9.32845 85.1807C9.44888 85.4456 9.54521 85.7106 9.61747 85.9755C10.4604 88.408 12.062 91.262 14.4223 94.5375C15.2893 95.7176 16.2407 96.9459 17.2763 98.2224C18.1433 99.3062 19.0826 100.426 20.0942 101.582L20.1664 101.546L8.93106 82.3267ZM17.3847 84.6749C16.7344 83.8079 16.06 83.0974 15.3616 82.5435L17.3847 84.6749ZM17.4208 84.7111L17.3847 84.6749L17.4208 84.7111ZM17.7459 85.3252C17.6496 85.0844 17.5412 84.8797 17.4208 84.7111L17.7459 85.3252ZM17.9266 85.7226C17.8543 85.554 17.7941 85.4216 17.7459 85.3252L17.9266 85.7226ZM17.9627 85.6865L17.9266 85.7226L17.9627 85.6865ZM21.2141 92.695C19.8654 89.5882 18.7816 87.252 17.9627 85.6865L21.2141 92.695ZM23.7429 98.6559C22.7796 96.4402 21.9366 94.4532 21.2141 92.695L23.7429 98.6559ZM23.7429 98.7282C23.7429 98.7041 23.7429 98.68 23.7429 98.6559V98.7282Z" stroke="black" stroke-width="0.0368611" stroke-linecap="round" stroke-linejoin="round"/>
</g>
<g id="Group_23">
<path id="Vector_20" d="M15.3616 82.5435C14.7595 82.3267 14.1574 82.1581 13.5553 82.0377M11.207 81.9655C10.4845 82.0136 9.72584 82.1341 8.93106 82.3267L11.207 81.9655ZM13.5553 82.0377C12.8327 81.9414 12.05 81.9173 11.207 81.9655L13.5553 82.0377Z" stroke="white" stroke-width="0.0368611" stroke-linecap="round" stroke-linejoin="round"/>
</g>
</g>
</g>
</g>
<g id="BODY">
<g id="Layer_1_5">
<g id="Group_24">
<g id="Group_25">
<g id="Group_26">
<path id="Vector_21" d="M48.5134 100.952C48.1149 101.799 47.6235 102.843 47.039 104.085C45.1642 107.851 42.9648 111.365 40.4408 114.628L43.6109 149.167C44.7137 148.946 45.6721 148.835 46.486 148.835C46.8792 148.835 47.555 148.897 48.5134 149.02C49.4472 149.118 50.3073 149.167 51.0937 149.167C52.3206 149.166 53.5002 148.859 54.6324 148.245C55.7926 147.634 56.2226 146.676 55.9226 145.37L48.5134 100.952ZM40.4408 114.628C39.2305 116.2 37.9403 117.711 36.5703 119.162L36.8284 150.789C37.8968 150.619 39.1255 150.336 40.5145 149.941C41.6488 149.604 42.681 149.346 43.6109 149.167L40.4408 114.628ZM30.267 124.802C29.3203 125.579 28.2882 126.39 27.1707 127.234C21.4694 131.559 17.9799 134.263 16.702 135.344C15.6517 136.231 14.6687 137.115 13.7531 137.998C12.4998 140.129 11.8732 142.587 11.8732 145.37C11.8732 147.003 12.1681 148.429 12.7578 149.646C13.8381 149.753 14.821 149.667 15.7068 149.388C17.4985 148.873 18.9115 148.627 19.9458 148.651C21.0047 148.674 22.0491 148.797 23.079 149.02C24.1336 149.266 25.7555 149.647 27.9447 150.162L30.267 124.802ZM30.4513 122.811L30.4882 122.369C30.3195 122.546 30.1352 122.718 29.9353 122.885L30.4513 122.811ZM36.5703 119.162C36.5415 119.212 36.5047 119.262 36.4597 119.309C35.0136 120.846 32.9494 122.677 30.267 124.802L27.9447 150.162C28.0257 150.171 28.0994 150.184 28.1659 150.199C30.5251 150.74 32.6507 151.01 34.5429 151.01C35.2003 151.01 35.9621 150.936 36.8284 150.789L36.5703 119.162ZM24.2586 97.0081C23.9811 97.2518 23.6985 97.4975 23.4108 97.7453C23.1567 97.9671 22.8987 98.1883 22.6367 98.4088C22.3905 98.7063 22.1202 99.0872 21.8258 99.5515C20.9902 100.854 20.5725 102.12 20.5725 103.348C20.5725 104.823 21.5923 105.56 23.632 105.56C26.6792 105.56 29.5052 104.331 32.1101 101.874C32.9731 101.059 34.7547 98.8717 37.455 95.3124C37.2356 96.0254 35.5154 98.2862 32.2944 102.095C28.9769 106.567 27.3181 110.364 27.3181 113.485C27.3181 114.302 27.7359 114.879 28.5714 115.218C28.6008 115.235 28.6253 115.247 28.6451 115.254C29.6328 115.506 30.6526 115.506 31.7046 115.254C36.4685 114.2 41.8748 108.118 47.9236 97.0081C47.9471 97.0371 47.9839 97.0616 48.0342 97.0818L48.2185 97.0081C48.2185 96.8622 48.1694 96.7517 48.0711 96.6763C48.9299 95.1252 49.79 93.4664 50.6514 91.7C50.6938 91.6282 50.7307 91.5545 50.762 91.4788C51.138 90.5804 51.5066 89.6589 51.8678 88.7142C52.3571 87.5401 52.8363 86.3359 53.3054 85.1018C54.5305 81.823 55.71 78.3703 56.8441 74.7438C55.9947 73.1786 54.8028 72.0728 53.2686 71.4262L53.1948 71.3525L52.1258 71.5368C52.1849 71.5906 52.234 71.6397 52.2733 71.6843L50.7988 75.9233C49.4024 78.6711 47.4733 81.9887 45.0116 85.8759C45.6972 84.6289 46.4958 82.7489 47.4076 80.2361C48.6609 76.6974 49.2875 73.9328 49.2875 71.9423C49.2875 71.0822 49.2384 70.5293 49.1401 70.2835C49.0418 70.0378 48.8452 69.9149 48.5503 69.9149C47.9359 69.9149 47.211 70.1607 46.3755 70.6521C45.9743 70.8928 45.6303 71.1263 45.3433 71.3525C44.5364 73.4146 43.234 75.9827 41.436 79.0566C39.1015 82.9639 33.3757 88.9477 24.2586 97.0081Z" fill="#4D80F7"/>
<path id="Vector_22" d="M35.0959 117.687C35.0467 117.736 35.0099 117.786 34.9853 117.835C33.5359 119.472 32.0369 120.984 30.4882 122.369L30.4513 122.811L30.267 124.802C32.9494 122.677 35.0136 120.846 36.4598 119.309C36.5047 119.262 36.5415 119.212 36.5703 119.162V115.955C36.083 116.546 35.5915 117.124 35.0959 117.687ZM40.109 111.237C38.9637 112.904 37.7842 114.477 36.5703 115.955V119.162C37.9403 117.711 39.2305 116.2 40.4408 114.628L40.109 111.237ZM43.2423 106.445C42.8186 107.145 42.3886 107.833 41.9521 108.509C41.3542 109.449 40.7398 110.359 40.109 111.237L40.4408 114.628C42.9648 111.365 45.1642 107.851 47.039 104.085C47.6235 102.843 48.115 101.799 48.5134 100.952L47.9605 97.6716C46.4554 100.794 44.8827 103.718 43.2423 106.445ZM10.6936 127.456L10.6568 127.603L6.45455 143.675C6.1348 145.006 6.25767 146.112 6.82317 146.992C7.32454 147.762 8.14778 148.364 9.29288 148.798C10.5419 149.261 11.6969 149.544 12.7579 149.646C12.1681 148.429 11.8732 147.003 11.8732 145.37C11.8732 142.587 12.4998 140.129 13.7531 137.998C14.6687 137.115 15.6517 136.231 16.702 135.344C17.9799 134.263 21.4694 131.559 27.1707 127.234C28.2882 126.39 29.3203 125.579 30.267 124.802L30.4513 122.811L29.9353 122.885C20.3975 129.583 13.9836 131.107 10.6936 127.456ZM16.7758 96.234L15.9279 96.7869C15.8044 97.2428 15.6692 97.6974 15.5225 98.1508L15.4119 98.5931C14.7531 100.931 14.1141 103.425 13.4951 106.076C13.4897 106.099 13.4774 106.123 13.4582 106.15C12.1002 111.954 10.8101 118.503 9.58777 125.797C9.91636 126.442 10.285 126.995 10.6936 127.456C13.9836 131.107 20.3975 129.583 29.9353 122.885C30.1352 122.718 30.3195 122.546 30.4882 122.369C32.0369 120.984 33.5359 119.472 34.9853 117.835C35.0099 117.786 35.0467 117.736 35.0959 117.687C35.5915 117.124 36.083 116.546 36.5703 115.955C37.7842 114.477 38.9637 112.904 40.109 111.237C40.7398 110.359 41.3542 109.449 41.9521 108.509C42.3886 107.833 42.8186 107.145 43.2423 106.445C44.8827 103.718 46.4554 100.794 47.9605 97.6716C48.8831 95.7589 49.7801 93.7684 50.6514 91.7C49.7901 93.4664 48.93 95.1251 48.0711 96.6763C48.1694 96.7517 48.2185 96.8622 48.2185 97.0081L48.0342 97.0818C47.9839 97.0616 47.9471 97.037 47.9237 97.0081C41.8748 108.118 36.4685 114.2 31.7046 115.254C30.6526 115.506 29.6328 115.506 28.6451 115.254C28.6254 115.247 28.6008 115.234 28.5714 115.218C27.7359 114.879 27.3181 114.302 27.3181 113.485C27.3181 110.364 28.9769 106.567 32.2944 102.095C35.5154 98.2862 37.2356 96.0254 37.455 95.3124C34.7547 98.8717 32.9731 101.059 32.1101 101.874C29.5052 104.331 26.6792 105.56 23.632 105.56C21.5923 105.56 20.5725 104.823 20.5725 103.348C20.5725 102.12 20.9902 100.854 21.8258 99.5515C22.1202 99.0872 22.3905 98.7063 22.6367 98.4088C22.8987 98.1883 23.1567 97.9671 23.4108 97.7453C23.6985 97.4975 23.9811 97.2518 24.2586 97.0081C33.3757 88.9477 39.1015 82.9639 41.436 79.0566C43.234 75.9827 44.5364 73.4146 45.3434 71.3525C45.6303 71.1263 45.9743 70.8928 46.3755 70.6521C47.211 70.1607 47.9359 69.9149 48.5503 69.9149C48.8452 69.9149 49.0418 70.0378 49.1401 70.2835C49.2384 70.5293 49.2875 71.0822 49.2875 71.9423C49.2875 73.9328 48.6609 76.6974 47.4076 80.2361C46.4958 82.7489 45.6972 84.6289 45.0116 85.8759C47.4733 81.9887 49.4024 78.6711 50.7988 75.9233L52.2733 71.6843C52.234 71.6397 52.1849 71.5906 52.1259 71.5368C50.2756 69.5431 48.4448 68.6216 46.6335 68.7722C46.4618 68.8007 46.2897 68.8253 46.1174 68.8459C46.0945 68.8647 46.0699 68.877 46.0437 68.8828C45.6027 69.9075 45.1235 70.9028 44.6061 71.8686C44.5076 72.0388 44.4093 72.2108 44.3112 72.3846C43.6578 73.5386 42.9452 74.6444 42.1733 75.7022C40.0008 78.7001 37.9119 81.0347 35.9068 82.7058C33.8961 84.3944 32.3847 85.5985 31.3729 86.3182C30.3634 87.0672 29.1101 87.9764 27.613 89.046C26.1135 90.1372 24.2459 91.4027 22.0101 92.8427L16.7758 96.234Z" fill="#2D61D9"/>
<path id="Vector_23" d="M13.2739 106.039C13.3449 106.051 13.4186 106.063 13.4951 106.076C14.1142 103.425 14.7531 100.931 15.4119 98.5931C14.7054 100.941 13.9927 103.423 13.2739 106.039ZM42.7262 69.1777C42.8982 69.3006 43.0579 69.4357 43.2054 69.5832C43.9426 70.3204 44.3112 71.2296 44.3112 72.3109C44.3112 72.3349 44.3112 72.3595 44.3112 72.3846C44.4093 72.2108 44.5076 72.0388 44.6061 71.8686C45.1235 70.9028 45.6027 69.9075 46.0437 68.8828C46.0699 68.877 46.0945 68.8648 46.1174 68.8459C46.2898 68.8253 46.4618 68.8007 46.6335 68.7722C46.4922 68.6633 46.3448 68.5527 46.1912 68.4405C45.3692 67.845 44.3616 67.3781 43.1685 67.0397C36.8775 66.0076 32.0978 66.7203 28.8294 69.1777C28.7557 69.2514 28.6697 69.3251 28.5714 69.3989C28.5447 69.4235 28.5202 69.4481 28.4977 69.4726C28.5562 69.4726 28.6176 69.4726 28.682 69.4726C29.493 69.4726 30.0827 69.6569 30.4513 70.0255C30.8937 70.4678 31.1149 71.2665 31.1149 72.4215C31.1149 74.0434 30.0459 76.6606 27.9079 80.273C25.2831 84.6938 23.3171 88.8837 22.0101 92.8427C24.2459 91.4027 26.1135 90.1372 27.613 89.046C29.1101 87.9764 30.3634 87.0672 31.3729 86.3183C32.3847 85.5985 33.8961 84.3944 35.9068 82.7058C37.9119 81.0347 40.0008 78.7001 42.1733 75.7022C41.6658 75.9479 41.1006 76.0708 40.4777 76.0708C39.3964 76.0708 38.4748 75.7022 37.713 74.9649C36.9758 74.2277 36.6072 73.343 36.6072 72.3109C36.6072 71.2296 36.9758 70.3204 37.713 69.5832C37.8605 69.4357 38.0202 69.3006 38.1922 69.1777C38.8312 68.7354 39.593 68.5142 40.4777 68.5142C41.3132 68.5142 42.0627 68.7354 42.7262 69.1777Z" fill="#FFEF0F"/>
<path id="Vector_24" d="M30.4513 70.0255C30.0827 69.6569 29.4929 69.4726 28.682 69.4726C28.6176 69.4726 28.5561 69.4726 28.4977 69.4726C28.4052 69.5598 28.307 69.6458 28.2028 69.7306C28.1104 69.8474 28.0121 69.958 27.9079 70.0624C24.6397 74.7364 20.929 83.4603 16.7758 96.234L22.0101 92.8427C23.3171 88.8837 25.2831 84.6938 27.9079 80.273C30.0459 76.6606 31.1149 74.0434 31.1149 72.4215C31.1149 71.2665 30.8937 70.4679 30.4513 70.0255Z" fill="#FFC70F"/>
<path id="Vector_25" d="M43.2054 69.5832C43.0579 69.4357 42.8982 69.3006 42.7262 69.1777C42.0627 68.7354 41.3132 68.5142 40.4776 68.5142C39.593 68.5142 38.8311 68.7354 38.1922 69.1777C38.0202 69.3006 37.8605 69.4357 37.713 69.5832C36.9758 70.3204 36.6072 71.2296 36.6072 72.3109C36.6072 73.343 36.9758 74.2277 37.713 74.9649C38.4748 75.7022 39.3964 76.0708 40.4776 76.0708C41.1005 76.0708 41.6657 75.9479 42.1733 75.7022C42.9451 74.6444 43.6578 73.5386 44.3112 72.3846C44.3112 72.3595 44.3112 72.3349 44.3112 72.3109C44.3112 71.2296 43.9426 70.3204 43.2054 69.5832Z" fill="#FFCC99"/>
</g>
</g>
<g id="Group_27">
<path id="Vector_26" d="M43.6109 149.167C44.7137 148.946 45.6721 148.835 46.4861 148.835C46.8792 148.835 47.555 148.897 48.5134 149.02C49.4473 149.118 50.3074 149.167 51.0937 149.167C52.3206 149.166 53.5063 148.859 54.6509 148.245C55.7988 147.634 56.2227 146.676 55.9226 145.37L48.5134 100.971M42.1733 75.7022C41.6658 75.9479 41.1006 76.0708 40.4777 76.0708C39.3964 76.0708 38.4748 75.7022 37.713 74.9649C36.9758 74.2277 36.6072 73.343 36.6072 72.3109C36.6072 71.2296 36.9758 70.3204 37.713 69.5832C37.8605 69.4357 38.0202 69.3006 38.1922 69.1777C38.8312 68.7354 39.593 68.5142 40.4777 68.5142C41.3132 68.5142 42.0627 68.7354 42.7262 69.1777C42.8982 69.3006 43.0579 69.4357 43.2054 69.5832C43.9426 70.3204 44.3112 71.2296 44.3112 72.3109C44.3112 72.3349 44.3112 72.3595 44.3112 72.3846C44.4093 72.2108 44.5076 72.0388 44.6061 71.8686C45.1235 70.9028 45.6027 69.9075 46.0437 68.8828C46.0699 68.877 46.0945 68.8709 46.1174 68.8644C46.2898 68.8314 46.4618 68.8069 46.6335 68.7906L42.1733 75.7022ZM43.1685 67.0397C36.8775 66.0076 32.0978 66.7203 28.8294 69.1777C28.7557 69.2514 28.6697 69.3251 28.5714 69.3989C28.5447 69.4235 28.5202 69.4481 28.4977 69.4726L43.1685 67.0397ZM22.0101 92.8427C24.2459 91.4027 26.1135 90.1433 27.613 89.0644C29.1101 87.9826 30.3634 87.0733 31.3729 86.3367C32.3847 85.6046 33.8961 84.4005 35.9068 82.7243C37.9119 81.0408 40.0008 78.7001 42.1733 75.7022C42.9452 74.6444 43.6578 73.5386 44.3112 72.3846L22.0101 92.8427ZM28.4977 69.4726C28.4053 69.5597 28.3131 69.6519 28.2212 69.749C28.1165 69.8536 28.0121 69.9642 27.9079 70.0808C24.6397 74.7425 20.929 83.4664 16.7758 96.2524L22.0101 92.8427L28.4977 69.4726ZM16.7758 96.2524L15.9464 96.8053C15.8105 97.2489 15.6754 97.6974 15.5409 98.1508L15.4119 98.5931C14.7531 100.931 14.1142 103.425 13.4951 106.076C13.4897 106.099 13.4836 106.123 13.4767 106.15C12.1064 111.954 10.8162 118.509 9.60622 125.815C9.92251 126.449 10.2911 126.995 10.7121 127.456C13.9897 131.107 20.4036 129.583 29.9537 122.885C30.1414 122.718 30.3257 122.552 30.5066 122.387C32.043 120.99 33.5359 119.473 34.9853 117.835C35.0099 117.786 35.0467 117.736 35.0959 117.687C35.5915 117.124 36.083 116.546 36.5703 115.955C37.7842 114.477 38.9699 112.91 40.1275 111.255C40.7459 110.365 41.3542 109.449 41.9521 108.509C42.3886 107.833 42.8186 107.145 43.2423 106.445C44.8827 103.718 46.4554 100.794 47.9605 97.6716C48.8831 95.7589 49.7862 93.7684 50.6698 91.7L16.7758 96.2524ZM50.8173 75.9233L52.2917 71.7027C52.2402 71.6459 52.191 71.5906 52.1443 71.5368C50.2817 69.5431 48.4448 68.6277 46.6335 68.7906L50.8173 75.9233ZM15.9464 96.8053C15.9347 96.8204 15.9224 96.8327 15.9095 96.8422C15.7827 97.2721 15.6598 97.7083 15.5409 98.1508L15.9464 96.8053ZM12.7579 149.646C11.697 149.544 10.5481 149.261 9.31132 148.798C8.15393 148.364 7.33069 147.762 6.84161 146.992C6.26383 146.112 6.13481 145.006 6.45456 143.675L10.6568 127.603L10.7121 127.456L12.7579 149.646ZM40.4408 114.646L40.1275 111.255L40.4408 114.646ZM36.5703 115.955L36.5888 119.162L36.5703 115.955ZM30.4698 122.811L30.2855 124.82L27.9632 150.162C28.0318 150.171 28.0994 150.184 28.1659 150.199C30.5251 150.74 32.6507 151.01 34.543 151.01C35.2003 151.01 35.9621 150.936 36.8284 150.789L36.5888 119.162L30.4698 122.811ZM48.5134 100.971L47.9605 97.6716L48.5134 100.971ZM29.9537 122.885L30.4698 122.811L30.5066 122.387L29.9537 122.885ZM12.7579 149.646C13.8381 149.753 14.8272 149.673 15.7252 149.407C17.5046 148.879 18.9177 148.627 19.9643 148.651C21.0109 148.674 22.0553 148.803 23.0975 149.038C24.1398 149.272 25.7617 149.647 27.9632 150.162L12.7579 149.646ZM36.8284 150.789C37.8968 150.619 39.1255 150.336 40.5145 149.941C41.6489 149.604 42.681 149.346 43.6109 149.167L40.4408 114.646L36.8284 150.789ZM50.762 91.4788C51.138 90.5804 51.5128 89.6651 51.8863 88.7327C52.3633 87.5462 52.8363 86.3359 53.3054 85.1018C54.5305 81.823 55.7101 78.3764 56.8441 74.7622C55.9947 73.1847 54.8028 72.0728 53.2686 71.4262L53.1948 71.3525L52.1443 71.5368L50.762 91.4788Z" stroke="black" stroke-width="0.0368614" stroke-linecap="round" stroke-linejoin="round"/>
</g>
</g>
</g>
</g>
<g id="HAN">
<g id="Layer_1_6">
<g id="Group_28">
<g id="Group_29">
<g id="Group_30">
<path id="Vector_27" d="M14.8589 78.8354C14.7361 78.9583 14.5763 79.1057 14.3797 79.2777C13.7708 79.7649 12.7263 80.6619 11.2465 81.9686C11.235 81.9817 11.2227 81.994 11.2097 82.0055L15.9279 86.2445C15.9525 86.4657 15.9648 86.6746 15.9648 86.8712L19.4666 84.3646C18.3362 82.2512 16.8003 80.4081 14.8589 78.8354ZM14.2691 82.5584C14.7115 82.9762 15.117 83.4554 15.4856 83.996C15.6822 84.5858 15.8173 85.237 15.8911 85.9496C14.3429 83.271 13.8022 82.1406 14.2691 82.5584Z" fill="#FFCC99"/>
<path id="Vector_28" d="M14.8589 78.8354C14.8229 78.805 14.786 78.7681 14.7484 78.7248C14.3152 78.3787 13.8606 78.047 13.3845 77.7295C10.755 79.8184 9.28059 81.3788 8.96112 82.4109C9.73454 82.8702 10.4841 82.735 11.2097 82.0055C11.2227 81.9939 11.235 81.9817 11.2465 81.9686C12.7264 80.6618 13.7708 79.7649 14.3797 79.2777C14.5763 79.1057 14.7361 78.9583 14.8589 78.8354Z" fill="#EB9D7B"/>
<path id="Vector_29" d="M29.0875 68.8459L29.1612 68.5879C29.0165 68.4031 28.6233 68.2188 27.9816 68.035C27.34 67.8538 26.4308 67.9029 25.2539 68.1824L25.5119 67.9244L12.6473 77.2504C12.893 77.4224 13.1388 77.5821 13.3845 77.7295C13.8606 78.047 14.3153 78.3788 14.7484 78.7248C16.2947 77.6435 21.0744 74.3506 29.0875 68.8459Z" fill="#FFC70F"/>
<path id="Vector_30" d="M29.1612 68.5879L29.0874 68.8459C21.0744 74.3506 16.2947 77.6435 14.7484 78.7248C14.786 78.7681 14.8228 78.805 14.8589 78.8354C16.8003 80.4081 18.3362 82.2512 19.4666 84.3646C19.7861 84.8807 20.0687 85.4459 20.3144 86.0602L29.2349 77.9507C30.5752 74.2965 30.8947 71.7285 30.1933 70.2467C29.52 68.7855 29.1759 68.2326 29.1612 68.5879Z" fill="#FFEF0F"/>
</g>
</g>
<g id="Group_31">
<path id="Vector_31" d="M13.3845 77.7295C10.755 79.8184 9.28059 81.3788 8.96112 82.411M14.7484 78.7432C14.786 78.7742 14.8229 78.805 14.8589 78.8354C16.8003 80.4081 18.3362 82.2512 19.4666 84.3646C19.7861 84.8807 20.0687 85.4459 20.3144 86.0602L29.2349 77.9507L14.7484 78.7432ZM25.2539 68.1824L25.5119 67.9244L12.6473 77.2504C12.893 77.4224 13.1387 77.5821 13.3845 77.7295C13.8606 78.047 14.3152 78.3849 14.7484 78.7432L25.2539 68.1824ZM15.9648 86.8712L19.4666 84.3646L15.9648 86.8712Z" stroke="black" stroke-width="0.0368614" stroke-linecap="round" stroke-linejoin="round"/>
</g>
</g>
</g>
</g>
<g id="HEAD">
<g id="Layer_1_7">
<g id="Group_32">
<g id="Group_33">
<g id="Group_34">
<path id="Vector_32" d="M3.80054 20.3732C3.80054 22.6094 4.5992 24.2928 6.19653 25.4232C7.59726 26.4307 9.47719 26.9345 11.8363 26.9345C12.6473 26.9345 13.3968 26.8608 14.0849 26.7133C14.306 26.6642 14.5272 26.6028 14.7484 26.529C15.9771 24.6122 17.5253 22.8306 19.3929 21.1841C19.9335 20.7172 20.4742 20.2626 21.0148 19.8203V19.7834C20.6954 17.4734 19.7124 15.4829 18.0659 13.8118C16.3457 12.1162 14.3429 11.121 12.0575 10.8261C11.5906 10.7769 11.136 10.7523 10.6936 10.7523C10.4233 10.7523 10.1653 10.7646 9.91953 10.7892C8.98571 11.1087 7.96588 11.809 6.86003 12.8903C4.82037 14.9054 3.80054 17.3997 3.80054 20.3732ZM64.9536 46.6554C64.8553 46.2868 64.7325 45.8813 64.585 45.4389C64.1673 44.1611 63.8232 43.3624 63.5529 43.043C64.1181 44.1979 64.585 45.4021 64.9536 46.6554ZM58.9452 40.2046C58.2817 39.8852 57.6305 39.7009 56.9916 39.6517C56.5247 39.6026 56.07 39.6148 55.6277 39.6886C55.4557 39.6886 55.2837 39.7254 55.1116 39.7991H55.001C55.001 39.922 55.001 40.0449 55.001 40.1678C55.0256 40.6347 55.1854 41.077 55.4802 41.4948C56.3403 41.3473 57.1882 41.3228 58.0237 41.421C59.449 41.5439 60.862 41.974 62.2628 42.7112C61.1078 41.5316 60.0019 40.6961 58.9452 40.2046ZM45.2328 39.7254C45.0362 39.6763 44.8519 39.6517 44.6798 39.6517C42.5665 39.5288 40.5759 40.3521 38.7083 42.1214C38.2905 42.4655 37.8851 42.8709 37.4919 43.3378C37.6885 43.215 37.8974 43.1044 38.1185 43.0061C40.3056 41.8511 42.6525 41.335 45.159 41.4579C45.4785 40.8927 45.5522 40.3152 45.3802 39.7254H45.2328ZM39.8879 30.1046C40.748 30.2275 41.4238 30.2889 41.9152 30.2889C48.452 30.2889 54.0304 32.4269 58.6503 36.7028C60.7391 38.6442 62.3733 40.7575 63.5529 43.043C63.8232 43.3624 64.1673 44.1611 64.585 45.4389C64.7325 45.8813 64.8553 46.2868 64.9536 46.6554C65.0519 47.024 65.1379 47.3803 65.2117 47.7244C65.3345 48.3633 65.4328 49.0022 65.5065 49.6411C65.5311 49.6411 65.5434 49.6289 65.5434 49.6043C65.8137 49.0391 66.084 48.4739 66.3544 47.9087C67.5094 45.1318 68.0869 42.1583 68.0869 38.9882C68.0869 32.0583 65.2977 26.1236 59.7193 21.1841C54.1409 16.2693 47.4199 13.8118 39.5561 13.8118C32.4541 13.8118 26.2737 15.8147 21.0148 19.8203C20.4742 20.2626 19.9335 20.7172 19.3929 21.1841C17.5253 22.8306 15.9771 24.6122 14.7484 26.529C13.6917 28.1018 12.8684 29.7606 12.2787 31.5053C12.1312 31.9722 11.9961 32.4269 11.8732 32.8692C11.8486 33.1149 11.8363 33.3607 11.8363 33.6064C11.8363 38.767 14.9573 41.3473 21.1991 41.3473C24.3201 41.3473 27.3796 40.3521 30.3776 38.3616C33.5969 36.2236 35.9437 33.3115 37.4182 29.6254C38.1062 29.7728 38.696 29.8957 39.1875 29.994C39.4332 30.0432 39.6667 30.08 39.8879 30.1046Z" fill="#BBBBBB"/>
<path id="Vector_33" d="M3.28448 13.8119C1.26939 15.8515 0.261841 18.3212 0.261841 21.221C0.261841 24.0962 1.26939 26.5536 3.28448 28.5933C5.32414 30.6084 7.79386 31.6159 10.6936 31.6159C11.136 31.6159 11.5906 31.5913 12.0575 31.5422C12.1312 31.5176 12.2049 31.5053 12.2787 31.5053C12.8684 29.7606 13.6917 28.1018 14.7484 26.529C14.5272 26.6028 14.306 26.6642 14.0849 26.7133C13.3968 26.8608 12.6473 26.9345 11.8363 26.9345C9.4772 26.9345 7.59727 26.4307 6.19653 25.4232C4.5992 24.2928 3.80054 22.6094 3.80054 20.3732C3.80054 17.3997 4.82037 14.9054 6.86004 12.8903C7.96588 11.809 8.98571 11.1087 9.91953 10.7892C7.33924 10.9612 5.12755 11.9688 3.28448 13.8119ZM39.1875 29.994C38.696 29.8957 38.1062 29.7728 37.4182 29.6254C35.9437 33.3115 33.5969 36.2236 30.3776 38.3616C27.3796 40.3521 24.3201 41.3473 21.1991 41.3473C14.9573 41.3473 11.8363 38.767 11.8363 33.6064C11.8363 33.3607 11.8486 33.1149 11.8732 32.8692C11.3571 34.8351 11.0991 36.8748 11.0991 38.9882C11.0991 43.2641 12.1435 47.1714 14.2323 50.7101C14.2569 50.7347 14.2815 50.7716 14.306 50.8207C14.6009 50.3784 14.945 49.9483 15.3382 49.5306C17.8447 47.7858 19.8967 48.7442 21.494 52.4058C29.2595 44.2717 35.1573 36.8011 39.1875 29.994Z" fill="#9A9A9A"/>
<path id="Vector_34" d="M39.8879 30.1046C39.6667 30.08 39.4332 30.0432 39.1875 29.994C35.1573 36.8011 29.2595 44.2717 21.494 52.4058C21.5923 52.6269 21.6906 52.8604 21.7889 53.1061C21.6906 52.8604 21.5923 52.6269 21.494 52.4058C19.8967 48.7442 17.8447 47.7858 15.3382 49.5306C14.945 49.9483 14.6009 50.3784 14.306 50.8207C14.2815 50.8453 14.2569 50.8699 14.2323 50.8944C12.8562 53.1307 13.1142 55.6127 15.0064 58.3405C16.7758 60.6013 18.6065 61.8054 20.4988 61.9529C21.3343 62.0266 22.0469 61.572 22.6367 60.589C22.6613 60.4907 22.6982 60.4047 22.7473 60.331C22.6982 60.4047 22.6613 60.4907 22.6367 60.589C22.6613 60.6381 22.6982 60.6873 22.7473 60.7364C23.3862 61.6457 23.7794 62.8007 23.9269 64.2014C24.0497 65.7004 24.4306 66.8186 25.0696 67.5558C25.2907 67.8015 25.5119 68.0473 25.7331 68.293C27.1584 69.4972 28.6574 70.517 30.2302 71.3525C33.1299 72.5321 37.7499 73.2693 44.0901 73.5642C44.2621 73.7117 44.5078 73.8468 44.8273 73.9697C45.1468 74.0926 45.5399 74.2031 46.0069 74.3014C46.7932 74.4735 47.5673 74.5595 48.3291 74.5595C50.0002 74.5595 51.5361 74.0557 52.9368 73.0482C53.0842 72.9253 53.2194 72.8024 53.3423 72.6795C51.8924 73.6379 50.4548 73.81 49.0295 73.1956C49.1032 73.171 49.1769 73.1465 49.2507 73.1219C49.1032 73.1219 48.9681 73.1219 48.8452 73.1219C42.9228 72.999 38.1922 72.3232 34.6535 71.0945C28.8049 69.0548 25.8805 65.4547 25.8805 60.2941C25.8805 57.6892 26.4089 55.0229 27.4656 52.2952C28.5468 49.3708 30.0827 46.766 32.0732 44.4806C33.2528 43.129 34.5184 41.4088 35.87 39.32C35.9191 39.2708 35.9683 39.2217 36.0174 39.1725C36.8529 37.8209 37.6025 36.4448 38.266 35.044C39.3472 32.7095 39.8879 31.149 39.8879 30.3626C39.8879 30.2643 39.8879 30.1783 39.8879 30.1046ZM18.1396 57.0134C19.3683 57.0134 19.8107 57.7507 19.4666 59.2251C19.8107 57.7507 19.3683 57.0134 18.1396 57.0134C18.3362 56.7431 18.496 56.4728 18.6188 56.2025C18.6188 56.1533 18.6311 56.1288 18.6557 56.1288C19.2946 54.8263 19.1963 53.4747 18.3608 52.074C17.427 50.9927 16.4809 50.8453 15.5225 51.6317C16.4809 50.8453 17.427 50.9927 18.3608 52.074C19.1963 53.4747 19.2946 54.8263 18.6557 56.1288C18.6311 56.1288 18.6188 56.1533 18.6188 56.2025C18.496 56.4728 18.3362 56.7431 18.1396 57.0134Z" fill="#EB9D7B"/>
<path id="Vector_35" d="M41.9152 30.2889C41.4238 30.2889 40.748 30.2275 39.8879 30.1046C39.8879 30.1783 39.8879 30.2643 39.8879 30.3626C39.8879 31.149 39.3472 32.7095 38.266 35.044C37.6025 36.4447 36.8529 37.8209 36.0174 39.1725C35.9683 39.2216 35.9191 39.2708 35.87 39.3199C34.5184 41.4088 33.2528 43.129 32.0732 44.4805C30.0827 46.7659 28.5468 49.3708 27.4656 52.2952C26.4089 55.0229 25.8805 57.6892 25.8805 60.2941C25.8805 65.4547 28.8049 69.0548 34.6535 71.0945C38.1922 72.3232 42.9228 72.999 48.8452 73.1219C48.9681 73.1219 49.1032 73.1219 49.2507 73.1219C49.1769 73.1464 49.1032 73.171 49.0295 73.1956C50.4548 73.8099 51.8924 73.6379 53.3423 72.6795C54.2515 71.8931 54.7922 71.4508 54.9642 71.3525C54.743 71.4017 54.5096 71.4631 54.2638 71.5368C54.5096 71.4631 54.743 71.4017 54.9642 71.3525C58.4783 70.3941 60.8866 69.3006 62.189 68.0718C63.172 67.1626 63.6635 65.9707 63.6635 64.4963C63.6635 63.3167 63.7249 62.1003 63.8478 60.847C63.9707 59.1268 64.1918 57.3329 64.5113 55.4652C65.0765 52.1477 65.3591 50.0712 65.3591 49.2357C65.3591 48.8179 65.31 48.3141 65.2117 47.7243C65.1379 47.3803 65.0519 47.024 64.9536 46.6554C64.585 45.4021 64.1181 44.1979 63.5529 43.0429C62.3733 40.7575 60.7391 38.6441 58.6503 36.7028C54.0304 32.4269 48.452 30.2889 41.9152 30.2889ZM44.6798 39.6517C44.8519 39.6517 45.0362 39.6763 45.2328 39.7254H45.3802C45.5522 40.3152 45.4785 40.8927 45.159 41.4579C42.6525 41.335 40.3056 41.8511 38.1185 43.0061C37.8973 43.1044 37.6885 43.215 37.4919 43.3378C37.8851 42.8709 38.2905 42.4654 38.7083 42.1214C40.5759 40.3521 42.5665 39.5288 44.6798 39.6517ZM56.9916 39.6517C57.6305 39.7008 58.2817 39.8851 58.9452 40.2046C60.0019 40.6961 61.1078 41.5316 62.2627 42.7112C60.862 41.974 59.449 41.5439 58.0237 41.421C57.1882 41.3227 56.3403 41.3473 55.4802 41.4948C55.1854 41.077 55.0256 40.6347 55.001 40.1678C55.001 40.0449 55.001 39.922 55.001 39.7991H55.1116C55.2837 39.7254 55.4557 39.6886 55.6277 39.6886C56.07 39.6148 56.5246 39.6025 56.9916 39.6517ZM56.881 58.9302C56.9793 59.4463 57.2865 60.0238 57.8025 60.6627C58.2449 61.2033 58.5643 61.4982 58.7609 61.5474C59.3998 61.7931 59.8053 62.1249 59.9773 62.5426C60.1002 62.8375 60.2477 63.4765 60.4197 64.4594C60.2477 63.4765 60.1002 62.8375 59.9773 62.5426C59.8053 62.1249 59.3998 61.7931 58.7609 61.5474C58.5643 61.4982 58.2449 61.2033 57.8025 60.6627C57.2865 60.0238 56.9793 59.4463 56.881 58.9302ZM41.5098 63.5379C40.4776 64.1522 39.7404 65.1475 39.2981 66.5237C39.7404 65.1475 40.4776 64.1522 41.5098 63.5379C42.5419 62.9235 43.5126 61.7194 44.4218 59.9255C43.5126 61.7194 42.5419 62.9235 41.5098 63.5379ZM52.9368 54.5806C53.2563 56.9643 52.2487 57.9227 49.9142 57.4558C52.2487 57.9227 53.2563 56.9643 52.9368 54.5806ZM49.5824 67.777C50.0493 67.6049 50.9463 67.4575 52.2733 67.3346C50.9463 67.4575 50.0493 67.6049 49.5824 67.777ZM42.1733 63.4273C47.9482 65.0738 53.158 64.4963 57.8025 61.6948C53.158 64.4963 47.9482 65.0738 42.1733 63.4273Z" fill="#FFCC99"/>
</g>
</g>
<g id="Group_35">
<path id="Vector_36" d="M21.7889 53.1061C21.6906 52.8604 21.5923 52.6269 21.494 52.4058C29.2595 44.2717 35.1573 36.8011 39.1875 29.994M39.8879 30.1046C40.748 30.2275 41.4238 30.2889 41.9152 30.2889C48.452 30.2889 54.0304 32.4269 58.6503 36.7028C60.7391 38.6442 62.3733 40.7575 63.5529 43.043C63.8232 43.3624 64.1673 44.1611 64.585 45.4389C64.7325 45.8813 64.8553 46.2868 64.9536 46.6554C65.0519 47.024 65.1379 47.3803 65.2117 47.7244C65.3345 48.3633 65.4328 49.0022 65.5066 49.6411C65.5311 49.6411 65.5434 49.6289 65.5434 49.6043C65.8137 49.0391 66.0841 48.4739 66.3544 47.9087C67.5094 45.1318 68.0869 42.1583 68.0869 38.9882C68.0869 32.0583 65.2977 26.1236 59.7193 21.1841C54.141 16.2693 47.4199 13.8118 39.5561 13.8118C32.4541 13.8118 26.2737 15.8147 21.0148 19.8203C20.4742 20.2626 19.9336 20.7172 19.3929 21.1841C17.5253 22.8306 15.9771 24.6122 14.7484 26.529C13.6917 28.1018 12.8684 29.7606 12.2787 31.5053C12.1312 31.9722 11.9961 32.4269 11.8732 32.8692L39.8879 30.1046ZM37.4182 29.6254C38.1062 29.7728 38.696 29.8957 39.1875 29.994C39.4332 30.0432 39.6667 30.08 39.8879 30.1046L37.4182 29.6254ZM53.3423 72.6795C54.2515 71.8932 54.7922 71.4508 54.9642 71.3525C54.743 71.4017 54.5096 71.4631 54.2638 71.5368L53.3423 72.6795ZM45.1591 41.4579C42.6525 41.335 40.3056 41.8511 38.1185 43.0061C37.8974 43.1044 37.6885 43.215 37.4919 43.3378C37.8851 42.8709 38.2905 42.4655 38.7083 42.1214C40.5759 40.3521 42.5665 39.5288 44.6799 39.6517C44.8519 39.6517 45.0362 39.6763 45.2328 39.7254H45.3802C45.5522 40.3152 45.4785 40.8927 45.1591 41.4579ZM58.9452 40.2046C60.0019 40.6961 61.1078 41.5316 62.2628 42.7112C60.862 41.974 59.449 41.5439 58.0237 41.421C57.1882 41.3228 56.3403 41.3473 55.4802 41.4948C55.1854 41.077 55.0256 40.6347 55.001 40.1678C55.001 40.0449 55.001 39.922 55.001 39.7991H55.1116C55.2837 39.7254 55.4557 39.6886 55.6277 39.6886C56.07 39.6148 56.5247 39.6026 56.9916 39.6517C57.6305 39.7009 58.2817 39.8852 58.9452 40.2046ZM65.2117 47.7244C65.31 48.3141 65.3591 48.8179 65.3591 49.2357C65.3591 50.0712 65.0765 52.1477 64.5113 55.4653C64.1918 57.3329 63.9707 59.1268 63.8478 60.847C63.7249 62.1003 63.6635 63.3167 63.6635 64.4963C63.6635 65.9708 63.172 67.1626 62.189 68.0719C60.8866 69.3006 58.4783 70.3941 54.9642 71.3525L65.2117 47.7244ZM63.5529 43.043C64.1181 44.1979 64.585 45.4021 64.9536 46.6554L63.5529 43.043ZM56.881 58.9302C56.9793 59.4463 57.2865 60.0238 57.8025 60.6627C58.2449 61.2033 58.5643 61.4982 58.7609 61.5474C59.3998 61.7931 59.8053 62.1249 59.9773 62.5426C60.1002 62.8375 60.2477 63.4765 60.4197 64.4594L56.881 58.9302ZM44.4218 59.9255C43.5126 61.7194 42.5419 62.9235 41.5098 63.5379C40.4777 64.1523 39.7404 65.1475 39.2981 66.5237L44.4218 59.9255ZM53.3423 72.6795C53.2194 72.8024 53.0843 72.9253 52.9368 73.0481C51.5361 74.0557 50.0002 74.5595 48.3291 74.5595C47.5673 74.5595 46.7932 74.4735 46.0069 74.3014C45.54 74.2031 45.1468 74.0926 44.8273 73.9697C44.5078 73.8468 44.2621 73.7117 44.0901 73.5642C37.7499 73.2693 33.1299 72.5321 30.2302 71.3525C30.1073 71.3034 29.9844 71.2542 29.8616 71.2051C28.3871 70.5416 27.0109 69.5709 25.7331 68.293C25.5119 68.0473 25.2907 67.8015 25.0696 67.5558C24.4306 66.8186 24.0497 65.7004 23.9269 64.2014C23.7794 62.8007 23.3862 61.6457 22.7473 60.7364C22.6982 60.6873 22.6613 60.6381 22.6367 60.589C22.0469 61.572 21.3343 62.0266 20.4988 61.9529C18.6065 61.8054 16.7758 60.6013 15.0064 58.3404C13.1142 55.6127 12.8562 53.1307 14.2323 50.8944C14.2569 50.8699 14.2815 50.8453 14.306 50.8207C14.2815 50.7716 14.2569 50.7347 14.2323 50.7101C12.1435 47.1714 11.0991 43.2641 11.0991 38.9882C11.0991 36.8748 11.3571 34.8351 11.8732 32.8692L53.3423 72.6795ZM52.9368 54.5806C53.2563 56.9643 52.2487 57.9227 49.9142 57.4558L52.9368 54.5806ZM49.5824 67.777C50.0493 67.6049 50.9463 67.4575 52.2733 67.3346L49.5824 67.777ZM42.1733 63.4273C47.9482 65.0738 53.158 64.4963 57.8025 61.6948L42.1733 63.4273ZM12.2787 31.5053C12.2049 31.5053 12.1312 31.5176 12.0575 31.5422C11.5906 31.5913 11.136 31.6159 10.6936 31.6159C7.79386 31.6159 5.32414 30.6084 3.28448 28.5933C1.26939 26.5536 0.261841 24.0962 0.261841 21.221C0.261841 18.3212 1.26939 15.8515 3.28448 13.8118C5.12755 11.9688 7.33924 10.9612 9.91953 10.7892C10.1653 10.7646 10.4233 10.7523 10.6936 10.7523C11.136 10.7523 11.5906 10.7769 12.0575 10.8261C14.3429 11.121 16.3457 12.1162 18.0659 13.8118C19.7124 15.4829 20.6954 17.4734 21.0148 19.7834V19.8203L12.2787 31.5053ZM22.6367 60.589C22.6613 60.4907 22.6982 60.4047 22.7473 60.331L22.6367 60.589ZM21.494 52.4058C19.8967 48.7442 17.8447 47.7858 15.3382 49.5306C14.945 49.9483 14.6009 50.3784 14.306 50.8207L21.494 52.4058ZM15.5225 51.6317C16.4809 50.8453 17.427 50.9927 18.3608 52.074C19.1963 53.4747 19.2946 54.8263 18.6557 56.1288C18.6311 56.1288 18.6188 56.1533 18.6188 56.2025C18.496 56.4728 18.3362 56.7431 18.1396 57.0134C19.3683 57.0134 19.8107 57.7507 19.4666 59.2251L15.5225 51.6317ZM30.2302 71.3525C28.6574 70.517 27.1584 69.4972 25.7331 68.293L30.2302 71.3525Z" stroke="black" stroke-width="0.0368614" stroke-linecap="round" stroke-linejoin="round"/>
</g>
</g>
<g id="Layer_1_8">
<g id="Group_36">
<g id="Group_37">
<g id="Group_38">
<path id="Vector_37" d="M43.6846 44.9966C43.2422 44.7017 42.763 44.5543 42.247 44.5543C41.1903 44.5543 40.2933 45.1318 39.5561 46.2867C38.8434 47.4417 38.4871 48.8302 38.4871 50.4521C38.4871 51.3368 38.5977 52.16 38.8189 52.9218C38.9909 53.5362 39.2366 54.1137 39.5561 54.6543C40.2933 55.8093 41.1903 56.3868 42.247 56.3868C43.2791 56.3868 44.1515 55.8093 44.8641 54.6543C45.6014 53.4993 45.97 52.0986 45.97 50.4521C45.97 48.8302 45.6014 47.4417 44.8641 46.2867C44.4955 45.697 44.1023 45.2669 43.6846 44.9966ZM43.1317 49.6043C43.3283 49.6043 43.5248 49.6288 43.7214 49.678C44.1146 49.8009 44.4587 50.0466 44.7536 50.4152C45.2205 50.9804 45.4539 51.6562 45.4539 52.4426C45.4539 53.229 45.2205 53.9048 44.7536 54.47C44.3112 55.0352 43.7706 55.3178 43.1317 55.3178C42.4927 55.3178 41.9398 55.0352 41.4729 54.47C41.178 54.1014 40.9937 53.6959 40.92 53.2536C40.8463 53.0078 40.8094 52.7375 40.8094 52.4426C40.8094 51.6562 41.0306 50.9804 41.4729 50.4152C41.9398 49.8746 42.4927 49.6043 43.1317 49.6043ZM43.4266 50.3784C43.2545 50.575 43.1685 50.8084 43.1685 51.0787C43.1685 51.3736 43.2545 51.6071 43.4266 51.7791C43.5986 51.9757 43.7952 52.074 44.0163 52.074C44.2375 52.074 44.4218 51.9757 44.5693 51.7791C44.7413 51.6071 44.8273 51.3736 44.8273 51.0787C44.8273 50.8084 44.7413 50.575 44.5693 50.3784C44.4218 50.1572 44.2375 50.0466 44.0163 50.0466C43.8443 50.0466 43.6846 50.1203 43.5371 50.2678C43.488 50.2924 43.4511 50.3292 43.4266 50.3784ZM62.5208 49.8623C62.5208 48.2158 62.1522 46.8151 61.4149 45.6601C61.0463 45.0703 60.6531 44.6403 60.2354 44.3699C59.7684 44.0751 59.277 43.9276 58.7609 43.9276C57.7288 43.9276 56.8441 44.5051 56.1069 45.6601C55.3697 46.8151 55.001 48.2158 55.001 49.8623C55.001 50.7224 55.1116 51.5211 55.3328 52.2583C55.5048 52.8972 55.7628 53.487 56.1069 54.0276C56.8441 55.1826 57.7288 55.7601 58.7609 55.7601C59.8176 55.7601 60.7023 55.1826 61.4149 54.0276C62.1522 52.8727 62.5208 51.4842 62.5208 49.8623ZM59.4244 49.3462C59.6702 49.3462 59.9036 49.3954 60.1248 49.4937C60.4688 49.6166 60.776 49.8377 61.0463 50.1572C61.5132 50.7224 61.7467 51.3982 61.7467 52.1846C61.7467 52.9955 61.5132 53.6713 61.0463 54.2119C60.604 54.7772 60.0633 55.0598 59.4244 55.0598C58.7855 55.0598 58.2326 54.7772 57.7656 54.2119C57.4216 53.7942 57.2127 53.2904 57.139 52.7006C57.1144 52.5286 57.1021 52.3566 57.1021 52.1846C57.1021 51.3982 57.3233 50.7224 57.7656 50.1572C58.2326 49.6166 58.7855 49.3462 59.4244 49.3462ZM60.2722 49.8992C60.1493 49.8992 60.0388 49.936 59.9405 50.0097C59.8422 50.0343 59.7562 50.0958 59.6824 50.1941C59.5104 50.3906 59.4244 50.6241 59.4244 50.8944C59.4244 50.919 59.4244 50.9436 59.4244 50.9681C59.449 51.2385 59.535 51.4596 59.6824 51.6316C59.8545 51.8037 60.0511 51.8897 60.2722 51.8897C60.4934 51.8897 60.6777 51.8037 60.8251 51.6316C60.9972 51.4351 61.0832 51.1893 61.0832 50.8944C61.0832 50.6241 60.9972 50.3906 60.8251 50.1941C60.6777 49.9975 60.4934 49.8992 60.2722 49.8992Z" fill="white"/>
<path id="Vector_38" d="M43.7214 49.678C43.5248 49.6289 43.3283 49.6043 43.1317 49.6043C42.4927 49.6043 41.9398 49.8746 41.4729 50.4152C41.0306 50.9804 40.8094 51.6562 40.8094 52.4426C40.8094 52.7375 40.8462 53.0078 40.92 53.2536C40.9937 53.6959 41.178 54.1014 41.4729 54.47C41.9398 55.0352 42.4927 55.3178 43.1317 55.3178C43.7706 55.3178 44.3112 55.0352 44.7536 54.47C45.2205 53.9048 45.4539 53.229 45.4539 52.4426C45.4539 51.6562 45.2205 50.9804 44.7536 50.4152C44.4587 50.0466 44.1146 49.8009 43.7214 49.678ZM43.1685 51.0787C43.1685 50.8084 43.2545 50.575 43.4265 50.3784C43.4511 50.3292 43.488 50.2924 43.5371 50.2678C43.6846 50.1203 43.8443 50.0466 44.0163 50.0466C44.2375 50.0466 44.4218 50.1572 44.5693 50.3784C44.7413 50.575 44.8273 50.8084 44.8273 51.0787C44.8273 51.3736 44.7413 51.6071 44.5693 51.7791C44.4218 51.9757 44.2375 52.074 44.0163 52.074C43.7952 52.074 43.5986 51.9757 43.4265 51.7791C43.2545 51.6071 43.1685 51.3736 43.1685 51.0787ZM60.1248 49.4937C59.9036 49.3954 59.6701 49.3463 59.4244 49.3463C58.7855 49.3463 58.2326 49.6166 57.7656 50.1572C57.3233 50.7224 57.1021 51.3982 57.1021 52.1846C57.1021 52.3566 57.1144 52.5286 57.139 52.7006C57.2127 53.2904 57.4216 53.7942 57.7656 54.212C58.2326 54.7772 58.7855 55.0598 59.4244 55.0598C60.0633 55.0598 60.604 54.7772 61.0463 54.212C61.5132 53.6713 61.7467 52.9955 61.7467 52.1846C61.7467 51.3982 61.5132 50.7224 61.0463 50.1572C60.776 49.8377 60.4688 49.6166 60.1248 49.4937ZM59.9405 50.0098C60.0388 49.936 60.1493 49.8992 60.2722 49.8992C60.4934 49.8992 60.6777 49.9975 60.8251 50.1941C60.9972 50.3907 61.0832 50.6241 61.0832 50.8944C61.0832 51.1893 60.9972 51.4351 60.8251 51.6317C60.6777 51.8037 60.4934 51.8897 60.2722 51.8897C60.051 51.8897 59.8545 51.8037 59.6824 51.6317C59.535 51.4596 59.449 51.2385 59.4244 50.9682C59.4244 50.9436 59.4244 50.919 59.4244 50.8944C59.4244 50.6241 59.5104 50.3907 59.6824 50.1941C59.7562 50.0958 59.8422 50.0343 59.9405 50.0098Z" fill="black"/>
</g>
</g>
<g id="Group_39">
<path id="Vector_39" d="M61.4149 45.6601C62.1522 46.8151 62.5208 48.2158 62.5208 49.8623C62.5208 51.4842 62.1522 52.8726 61.4149 54.0276C60.7023 55.1826 59.8176 55.7601 58.7609 55.7601C57.7288 55.7601 56.8441 55.1826 56.1069 54.0276C55.7628 53.487 55.5048 52.8972 55.3328 52.2583C55.1116 51.5211 55.001 50.7224 55.001 49.8623C55.001 48.2158 55.3697 46.8151 56.1069 45.6601C56.8441 44.5051 57.7288 43.9276 58.7609 43.9276C59.277 43.9276 59.7684 44.0751 60.2354 44.3699C60.6531 44.6403 61.0463 45.0703 61.4149 45.6601ZM60.1248 49.4937C60.4688 49.6166 60.776 49.8377 61.0463 50.1572C61.5132 50.7224 61.7467 51.3982 61.7467 52.1846C61.7467 52.9955 61.5132 53.6713 61.0463 54.2119C60.604 54.7772 60.0633 55.0598 59.4244 55.0598C58.7855 55.0598 58.2326 54.7772 57.7656 54.2119C57.4216 53.7942 57.2127 53.2904 57.139 52.7006C57.1144 52.5286 57.1021 52.3566 57.1021 52.1846C57.1021 51.3982 57.3233 50.7224 57.7656 50.1572C58.2326 49.6166 58.7855 49.3462 59.4244 49.3462C59.6702 49.3462 59.9036 49.3954 60.1248 49.4937ZM42.247 44.5543C42.763 44.5543 43.2422 44.7017 43.6846 44.9966C44.1023 45.2669 44.4955 45.697 44.8641 46.2867C45.6014 47.4417 45.97 48.8302 45.97 50.4521C45.97 52.0986 45.6014 53.4993 44.8641 54.6543C44.1515 55.8093 43.2791 56.3868 42.247 56.3868C41.1903 56.3868 40.2933 55.8093 39.5561 54.6543C39.2366 54.1137 38.9909 53.5362 38.8189 52.9218C38.5977 52.16 38.4871 51.3368 38.4871 50.4521C38.4871 48.8302 38.8434 47.4417 39.5561 46.2867C40.2933 45.1318 41.1903 44.5543 42.247 44.5543ZM43.7214 49.678C44.1146 49.8009 44.4587 50.0466 44.7536 50.4152C45.2205 50.9804 45.4539 51.6562 45.4539 52.4426C45.4539 53.229 45.2205 53.9048 44.7536 54.47C44.3112 55.0352 43.7706 55.3178 43.1317 55.3178C42.4927 55.3178 41.9398 55.0352 41.4729 54.47C41.178 54.1014 40.9937 53.6959 40.92 53.2536C40.8463 53.0078 40.8094 52.7375 40.8094 52.4426C40.8094 51.6562 41.0306 50.9804 41.4729 50.4152C41.9398 49.8746 42.4927 49.6043 43.1317 49.6043C43.3283 49.6043 43.5248 49.6288 43.7214 49.678Z" stroke="black" stroke-width="0.0368614" stroke-linecap="round" stroke-linejoin="round"/>
</g>
</g>
</g>
<g id="Layer_2_2">
<g id="Group_40">
<g id="Group_41">
<g id="Group_42">
<path id="Vector_40" d="M44.8641 46.2867C44.4955 45.697 44.1023 45.2669 43.6846 44.9966C43.2422 44.7017 42.763 44.5543 42.247 44.5543C41.1903 44.5543 40.2933 45.1318 39.5561 46.2867C38.8434 47.4417 38.4871 48.8302 38.4871 50.4521C38.4871 51.3368 38.5977 52.16 38.8189 52.9218C38.9909 53.5362 39.2366 54.1137 39.5561 54.6543C40.2933 55.8093 41.1903 56.3868 42.247 56.3868C43.2791 56.3868 44.1515 55.8093 44.8641 54.6543C45.6014 53.4993 45.97 52.0986 45.97 50.4521C45.97 48.8302 45.6014 47.4417 44.8641 46.2867ZM43.1317 49.6043C43.3283 49.6043 43.5248 49.6288 43.7214 49.678C44.1146 49.8009 44.4587 50.0466 44.7536 50.4152C45.2205 50.9804 45.4539 51.6562 45.4539 52.4426C45.4539 53.229 45.2205 53.9048 44.7536 54.47C44.3112 55.0352 43.7706 55.3178 43.1317 55.3178C42.4927 55.3178 41.9398 55.0352 41.4729 54.47C41.178 54.1014 40.9937 53.6959 40.92 53.2536C40.8463 53.0078 40.8094 52.7375 40.8094 52.4426C40.8094 51.6562 41.0306 50.9804 41.4729 50.4152C41.9398 49.8746 42.4927 49.6043 43.1317 49.6043ZM43.1685 51.0787C43.1685 51.3736 43.2545 51.6071 43.4266 51.7791C43.5986 51.9757 43.7952 52.074 44.0163 52.074C44.2375 52.074 44.4218 51.9757 44.5693 51.7791C44.7413 51.6071 44.8273 51.3736 44.8273 51.0787C44.8273 50.8084 44.7413 50.575 44.5693 50.3784C44.4218 50.1572 44.2375 50.0466 44.0163 50.0466C43.8443 50.0466 43.6846 50.1203 43.5371 50.2678C43.488 50.2924 43.4511 50.3292 43.4266 50.3784C43.2545 50.575 43.1685 50.8084 43.1685 51.0787ZM56.1069 45.6601C55.3697 46.8151 55.001 48.2158 55.001 49.8623C55.001 50.7224 55.1116 51.5211 55.3328 52.2583C55.5048 52.8972 55.7628 53.487 56.1069 54.0276C56.8441 55.1826 57.7288 55.7601 58.7609 55.7601C59.8176 55.7601 60.7023 55.1826 61.4149 54.0276C62.1522 52.8727 62.5208 51.4842 62.5208 49.8623C62.5208 48.2158 62.1522 46.8151 61.4149 45.6601C61.0463 45.0703 60.6531 44.6403 60.2354 44.3699C59.7684 44.0751 59.277 43.9276 58.7609 43.9276C57.7288 43.9276 56.8441 44.5051 56.1069 45.6601ZM59.4244 49.3462C59.6702 49.3462 59.9036 49.3954 60.1248 49.4937C60.4688 49.6166 60.776 49.8377 61.0463 50.1572C61.5132 50.7224 61.7467 51.3982 61.7467 52.1846C61.7467 52.9955 61.5132 53.6713 61.0463 54.2119C60.604 54.7772 60.0633 55.0598 59.4244 55.0598C58.7855 55.0598 58.2326 54.7772 57.7656 54.2119C57.4216 53.7942 57.2127 53.2904 57.139 52.7006C57.1144 52.5286 57.1021 52.3566 57.1021 52.1846C57.1021 51.3982 57.3233 50.7224 57.7656 50.1572C58.2326 49.6166 58.7855 49.3462 59.4244 49.3462ZM60.2722 49.8992C60.1493 49.8992 60.0388 49.936 59.9405 50.0097C59.8422 50.0343 59.7562 50.0958 59.6824 50.1941C59.5104 50.3906 59.4244 50.6241 59.4244 50.8944C59.4244 50.919 59.4244 50.9436 59.4244 50.9681C59.449 51.2385 59.535 51.4596 59.6824 51.6316C59.8545 51.8037 60.0511 51.8897 60.2722 51.8897C60.4934 51.8897 60.6777 51.8037 60.8251 51.6316C60.9972 51.4351 61.0832 51.1893 61.0832 50.8944C61.0832 50.6241 60.9972 50.3906 60.8251 50.1941C60.6777 49.9975 60.4934 49.8992 60.2722 49.8992Z" fill="white"/>
<path id="Vector_41" d="M43.7214 49.678C43.5248 49.6289 43.3283 49.6043 43.1317 49.6043C42.4927 49.6043 41.9398 49.8746 41.4729 50.4152C41.0306 50.9804 40.8094 51.6562 40.8094 52.4426C40.8094 52.7375 40.8462 53.0078 40.92 53.2536C40.9937 53.6959 41.178 54.1014 41.4729 54.47C41.9398 55.0352 42.4927 55.3178 43.1317 55.3178C43.7706 55.3178 44.3112 55.0352 44.7536 54.47C45.2205 53.9048 45.4539 53.229 45.4539 52.4426C45.4539 51.6562 45.2205 50.9804 44.7536 50.4152C44.4587 50.0466 44.1146 49.8009 43.7214 49.678ZM43.4265 51.7791C43.2545 51.6071 43.1685 51.3736 43.1685 51.0787C43.1685 50.8084 43.2545 50.575 43.4265 50.3784C43.4511 50.3292 43.488 50.2924 43.5371 50.2678C43.6846 50.1203 43.8443 50.0466 44.0163 50.0466C44.2375 50.0466 44.4218 50.1572 44.5693 50.3784C44.7413 50.575 44.8273 50.8084 44.8273 51.0787C44.8273 51.3736 44.7413 51.6071 44.5693 51.7791C44.4218 51.9757 44.2375 52.074 44.0163 52.074C43.7952 52.074 43.5986 51.9757 43.4265 51.7791ZM60.1248 49.4937C59.9036 49.3954 59.6701 49.3463 59.4244 49.3463C58.7855 49.3463 58.2326 49.6166 57.7656 50.1572C57.3233 50.7224 57.1021 51.3982 57.1021 52.1846C57.1021 52.3566 57.1144 52.5286 57.139 52.7006C57.2127 53.2904 57.4216 53.7942 57.7656 54.212C58.2326 54.7772 58.7855 55.0598 59.4244 55.0598C60.0633 55.0598 60.604 54.7772 61.0463 54.212C61.5132 53.6713 61.7467 52.9955 61.7467 52.1846C61.7467 51.3982 61.5132 50.7224 61.0463 50.1572C60.776 49.8377 60.4688 49.6166 60.1248 49.4937ZM59.9405 50.0098C60.0388 49.936 60.1493 49.8992 60.2722 49.8992C60.4934 49.8992 60.6777 49.9975 60.8251 50.1941C60.9972 50.3907 61.0832 50.6241 61.0832 50.8944C61.0832 51.1893 60.9972 51.4351 60.8251 51.6317C60.6777 51.8037 60.4934 51.8897 60.2722 51.8897C60.051 51.8897 59.8545 51.8037 59.6824 51.6317C59.535 51.4596 59.449 51.2385 59.4244 50.9682C59.4244 50.9436 59.4244 50.919 59.4244 50.8944C59.4244 50.6241 59.5104 50.3907 59.6824 50.1941C59.7562 50.0958 59.8422 50.0343 59.9405 50.0098Z" fill="black"/>
</g>
</g>
<g id="Group_43">
<path id="Vector_42" d="M62.5208 49.8623C62.5208 51.4842 62.1522 52.8726 61.4149 54.0276C60.7023 55.1826 59.8176 55.7601 58.7609 55.7601C57.7288 55.7601 56.8441 55.1826 56.1069 54.0276C55.7628 53.487 55.5048 52.8972 55.3328 52.2583C55.1116 51.5211 55.001 50.7224 55.001 49.8623C55.001 48.2158 55.3697 46.8151 56.1069 45.6601C56.8441 44.5051 57.7288 43.9276 58.7609 43.9276C59.277 43.9276 59.7684 44.0751 60.2354 44.3699C60.6531 44.6403 61.0463 45.0703 61.4149 45.6601C62.1522 46.8151 62.5208 48.2158 62.5208 49.8623ZM60.1248 49.4937C60.4688 49.6166 60.776 49.8377 61.0463 50.1572C61.5132 50.7224 61.7467 51.3982 61.7467 52.1846C61.7467 52.9955 61.5132 53.6713 61.0463 54.2119C60.604 54.7772 60.0633 55.0598 59.4244 55.0598C58.7855 55.0598 58.2326 54.7772 57.7656 54.2119C57.4216 53.7942 57.2127 53.2904 57.139 52.7006C57.1144 52.5286 57.1021 52.3566 57.1021 52.1846C57.1021 51.3982 57.3233 50.7224 57.7656 50.1572C58.2326 49.6166 58.7855 49.3462 59.4244 49.3462C59.6702 49.3462 59.9036 49.3954 60.1248 49.4937ZM43.6846 44.9966C44.1023 45.2669 44.4955 45.697 44.8641 46.2867C45.6014 47.4417 45.97 48.8302 45.97 50.4521C45.97 52.0986 45.6014 53.4993 44.8641 54.6543C44.1515 55.8093 43.2791 56.3868 42.247 56.3868C41.1903 56.3868 40.2933 55.8093 39.5561 54.6543C39.2366 54.1137 38.9909 53.5362 38.8189 52.9218C38.5977 52.16 38.4871 51.3368 38.4871 50.4521C38.4871 48.8302 38.8434 47.4417 39.5561 46.2867C40.2933 45.1318 41.1903 44.5543 42.247 44.5543C42.763 44.5543 43.2422 44.7017 43.6846 44.9966ZM43.7214 49.678C44.1146 49.8009 44.4587 50.0466 44.7536 50.4152C45.2205 50.9804 45.4539 51.6562 45.4539 52.4426C45.4539 53.229 45.2205 53.9048 44.7536 54.47C44.3112 55.0352 43.7706 55.3178 43.1317 55.3178C42.4927 55.3178 41.9398 55.0352 41.4729 54.47C41.178 54.1014 40.9937 53.6959 40.92 53.2536C40.8463 53.0078 40.8094 52.7375 40.8094 52.4426C40.8094 51.6562 41.0306 50.9804 41.4729 50.4152C41.9398 49.8746 42.4927 49.6043 43.1317 49.6043C43.3283 49.6043 43.5248 49.6288 43.7214 49.678Z" stroke="black" stroke-width="0.0368614" stroke-linecap="round" stroke-linejoin="round"/>
</g>
</g>
</g>
<g id="Group_44">
<g id="Group_45">
<path id="Vector_43" d="M70.0125 58.1495C68.2303 60.0522 66.0627 61.0035 63.5098 61.0035C60.9568 61.0035 58.7772 60.0522 56.9709 58.1495C55.1886 56.2469 54.2975 53.9468 54.2975 51.2493C54.2975 48.5519 55.1886 46.2518 56.9709 44.3492C58.7772 42.4465 60.9568 41.4952 63.5098 41.4952C66.0627 41.4952 68.2303 42.4465 70.0125 44.3492C71.8189 46.2518 72.722 48.5519 72.722 51.2493C72.722 53.9468 71.8189 56.2469 70.0125 58.1495ZM31.8629 51.6829C31.8629 48.9854 32.754 46.6854 34.5363 44.7827C36.1499 43.0968 38.0526 42.1575 40.2443 41.9648C40.5092 41.9407 40.7862 41.9287 41.0752 41.9287C41.3642 41.9287 41.6532 41.9407 41.9422 41.9648C44.1098 42.1575 45.9884 43.0968 47.578 44.7827C49.3843 46.6854 50.2875 48.9854 50.2875 51.6829C50.2875 54.3803 49.3843 56.6804 47.578 58.583C45.7957 60.4857 43.6281 61.437 41.0752 61.437C38.5222 61.437 36.3426 60.4857 34.5363 58.583C32.754 56.6804 31.8629 54.3803 31.8629 51.6829Z" stroke="black" stroke-width="0.0368611" stroke-linecap="round" stroke-linejoin="round"/>
</g>
</g>
</g>
</g>
</g>
</g>
</svg>
